#N canvas 1133 250 508 447 10;
#X obj 216 93 ggee/image @pd_extra/K12/objects/arduino_analog_out.png
1 0 25 25 empty empty empty 110 140 1 0 10 #000000 0 -8 55 70 0 1 1
;
#X obj 58 388 outlet;
#X obj 215 92 ggee/image @pd_extra/K12/objects/arduino_analog_out_off.png
1 0 25 25 empty empty empty 110 140 1 0 10 #000000 0 -8 55 70 0 1 1
;
#X obj 58 40 inlet;
#X obj 240 45 preset_node k12;
#X text 204 116 pin:;
#N canvas 722 315 505 425 pin_parser 0;
#X obj 138 15 inlet;
#X obj 93 123 select 3 5 6 9 10 11, f 44;
#X obj 114 280 outlet;
#X obj 273 369 outlet;
#X msg 93 145 3;
#X msg 136 145 5;
#X msg 180 145 6;
#X msg 223 145 9;
#X msg 267 145 10;
#X msg 310 145 11;
#X obj 273 276 t b;
#X obj 354 276 t b;
#X obj 93 15 inlet;
#X obj 93 92 gate 2 1;
#X obj 138 67 f;
#X obj 93 37 t b f;
#X obj 387 123 split 2 13;
#X msg 354 298 visible 1;
#X msg 273 338 visible 0;
#X connect 0 0 14 0;
#X connect 1 0 4 0;
#X connect 1 1 5 0;
#X connect 1 2 6 0;
#X connect 1 3 7 0;
#X connect 1 4 8 0;
#X connect 1 5 9 0;
#X connect 1 6 11 0;
#X connect 4 0 2 0;
#X connect 4 0 10 0;
#X connect 5 0 2 0;
#X connect 5 0 10 0;
#X connect 6 0 2 0;
#X connect 6 0 10 0;
#X connect 7 0 2 0;
#X connect 7 0 10 0;
#X connect 8 0 2 0;
#X connect 8 0 10 0;
#X connect 9 0 2 0;
#X connect 9 0 10 0;
#X connect 10 0 18 0;
#X connect 11 0 17 0;
#X connect 12 0 15 0;
#X connect 13 0 1 0;
#X connect 13 1 16 0;
#X connect 14 0 13 1;
#X connect 15 0 14 0;
#X connect 15 1 13 0;
#X connect 16 0 2 0;
#X connect 16 0 10 0;
#X connect 16 1 11 0;
#X connect 17 0 3 0;
#X connect 18 0 3 0;
#X restore 284 220 pd pin_parser;
#X msg 267 317 pinMode \$1 pwm;
#X obj 284 242 t f f;
#X msg 58 304 pwm \$2 \$1;
#X obj 58 281 pack 0 0;
#X obj 228 118 nbx 3 14 -1 13 0 1 empty empty empty 0 -8 0 10 #fcfcfc
#000000 #000000 -1 256 3 0 1 0;
#X obj 238 134 tgl 15 0 empty empty empty 17 7 0 10 #fcfcfc #000000
#000000 0 1 1;
#X text 200 131 servo:;
#X text 196 102 PWM OUTPUT;
#X obj 280 73 preset_node k12;
#X obj 266 294 gate 2 1;
#X msg 311 338 pinMode \$1 servo;
#X obj 239 190 t f f;
#X obj 239 168 + 1;
#X obj 58 144 split 0 1;
#X obj 109 170 > 1;
#X obj 311 268 pipe 1000;
#X connect 3 0 20 0;
#X connect 4 0 11 0;
#X connect 6 0 8 0;
#X connect 6 1 2 0;
#X connect 7 0 1 0;
#X connect 8 0 10 1;
#X connect 8 1 22 0;
#X connect 9 0 1 0;
#X connect 10 0 9 0;
#X connect 11 0 6 1;
#X connect 12 0 19 0;
#X connect 15 0 12 0;
#X connect 16 0 7 0;
#X connect 16 1 17 0;
#X connect 17 0 1 0;
#X connect 18 0 6 0;
#X connect 18 1 16 0;
#X connect 19 0 18 0;
#X connect 20 0 10 0;
#X connect 20 1 21 0;
#X connect 21 0 10 0;
#X connect 22 0 16 1;
#X coords 0 -1 1 1 90 90 2 183 73;
#X gopspill 1;
