#N canvas 259 64 502 512 10;
#X obj 252 -29 preset_hub k12 %hidden% %node% 2 6 7 %node% 2 7 17 %node%
2 8 3;
#X obj 16 149 cnv 15 473 182 empty empty empty 20 12 0 14 #e0e0e0 #404040
0;
#X obj 0 -7 cnv 3 501 3 empty empty empty 5 14 0 20 #fc8000 #b8b8b8
0;
#X obj 0 -35 cnv 15 501 28 empty empty Arduino/DigitalIn 5 14 0 20
#880024 #fcfcfc 0;
#X obj 447 -29 ggee/image @pd_extra/K12/icons/l2ork.png 0 0 48 50 empty
empty empty 48 50 1 0 10 #000000 0 -8 24 25 0 1 1;
#N canvas 502 164 385 225 META 0;
#X text 8 38 INLET_0 Connect the Arduino Connect object to this inlet
;
#X text 7 58 OUTLET_0 Connect this to any object where you wish to
pass the captured sensor data (e.g. a math object or an instrument)
;
#X text 6 5 DESCRIPTION Use this object to get the digital data from
the desired Arduino Uno board pin;
#X restore 447 452 pd META;
#X obj 24 367 K12/math_number;
#X obj 24 42 K12/arduino_connect;
#X obj 24 156 K12/arduino_digital_in;
#X text 122 157 The Arcduino Digital In object takes in the digital
pin data coming from the Arduino. You can specify pin 0-13 (default
is -1=off) by clicking on the pin number and dragging it up and down
or by clicking onto the number \, typing the value \, and pressing
enter/return. Connect the Arduino Connect object to the inlet. Connect
the outlet to wherever you wish to send captured pin data (e.g. a math
object or an instrument). Outputting data will be either 0 or 1.Object's
color will change from red to Arduino bluish-green indicating valid
pin selection., f 59;
#X connect 7 0 8 0;
#X connect 8 0 6 0;
