#N canvas 330 100 502 474 10;
#X obj 252 -29 preset_hub k12 %hidden% %node% 2 6 7 %node% 2 7 17 %node%
2 8 3;
#X obj 16 119 cnv 15 472 163 empty empty empty 20 12 0 14 #e0e0e0 #404040
0;
#X obj 0 -7 cnv 3 501 3 empty empty empty 5 14 0 20 #fc8000 #b8b8b8
0;
#X obj 0 -35 cnv 15 501 28 empty empty Arduino/DigitalOut 5 14 0 20
#880024 #fcfcfc 0;
#X obj 447 -29 ggee/image @pd_extra/K12/icons/l2ork.png 0 0 48 50 empty
empty empty 48 50 1 0 10 #000000 0 -8 24 25 0 1 1;
#N canvas 502 164 385 225 META 0;
#X text 6 5 DESCRIPTION Use this object to send digital data (0 or
1) to the specified Arduino Uno pin;
#X text 8 38 INLET_0 Connect the data stream you wish to send to Arduino
;
#X text 7 58 OUTLET_0 Connect to Arduino Connect object's inlet;
#X restore 446 412 pd META;
#X obj 24 40 K12/math_number;
#X obj 24 308 K12/arduino_connect;
#X obj 24 127 K12/arduino_digital_out;
#X text 122 127 The Arcduino Digital Out object takes in the incoming
data and sends it to a desired Arduino digital pin. You can specify
pin 0-13 (default -1=off) by clicking on the pin number and dragging
it up and down or by clicking onto the number \, typing the value \,
and pressing enter/return. Connect the data stream you wish to send
to the pin into object's inlet (either 0 or 1). Connect the outlet
to the Arduino Connect's inlet.Object's color will change from red
to Arduino bluish-green indicating valid pin selection., f 59;
#X connect 6 0 8 0;
#X connect 8 0 7 0;
