#N canvas 284 99 450 470 10;
#X obj 10 15 inlet~;
#X obj 10 410 outlet~;
#X obj 131 159 ggee/image @pd_extra/K12/objects/fx_autotune.png 1 0
25 25 empty empty empty 110 140 1 0 10 #000000 0 -8 55 70 0 1 1;
#X obj 131 74 loadbang;
#X obj 10 308 autotune~;
#X msg 131 97 open @pd_extra/K12/objects/fx_autotune.png;
#N canvas 609 221 450 281 keys 0;
#X obj 74 141 tgl 13 0 empty empty C 4 7 0 10 #fcfcfc #000000 #fc8000
0 1;
#X obj 87 141 tgl 13 0 empty empty C# 1 7 0 10 #000000 #fcfcfc #fc8000
0 1;
#X obj 100 141 tgl 13 0 empty empty D 4 7 0 10 #fcfcfc #000000 #fc8000
0 1;
#X obj 126 141 tgl 13 0 empty empty E 4 7 0 10 #fcfcfc #000000 #fc8000
0 1;
#X obj 139 141 tgl 13 0 empty empty F 4 7 0 10 #fcfcfc #000000 #fc8000
0 1;
#X obj 113 141 tgl 13 0 empty empty D# 1 7 0 10 #000000 #fcfcfc #fc8000
0 1;
#X obj 74 156 tgl 13 0 empty empty F# 1 7 0 10 #000000 #fcfcfc #fc8000
0 1;
#X obj 87 156 tgl 13 0 empty empty G 4 7 0 10 #fcfcfc #000000 #fc8000
0 1;
#X obj 113 156 tgl 13 0 empty empty A 4 7 0 10 #fcfcfc #000000 #fc8000
0 1;
#X obj 100 156 tgl 13 0 empty empty G# 1 7 0 10 #000000 #fcfcfc #fc8000
0 1;
#X obj 139 156 tgl 13 0 empty empty B 4 7 0 10 #fcfcfc #000000 #fc8000
0 1;
#X obj 126 156 tgl 13 0 empty empty A# 1 7 0 10 #000000 #fcfcfc #fc8000
0 1;
#N canvas 379 181 544 389 format 0;
#X obj 29 8 inlet;
#X obj 29 360 outlet;
#X obj 29 337 pack -1 -1 -1 -1 -1 -1 -1 -1 -1 -1 -1 -1, f 75;
#X obj 68 8 inlet;
#X obj 107 8 inlet;
#X obj 146 8 inlet;
#X obj 185 8 inlet;
#X obj 224 8 inlet;
#X obj 263 8 inlet;
#X obj 302 8 inlet;
#X obj 341 8 inlet;
#X obj 380 8 inlet;
#X obj 419 8 inlet;
#X obj 458 8 inlet;
#X obj 68 85 t b f;
#X obj 107 109 t b f;
#X obj 146 133 t b f;
#X obj 185 59 t b f;
#X obj 224 83 t b f;
#X obj 263 107 t b f;
#X obj 341 58 t b f;
#X obj 380 82 t b f;
#X obj 419 106 t b f;
#X obj 302 131 t b f;
#X obj 458 130 t b f;
#X obj 29 35 expr -1+($f1*2);
#X obj 68 61 expr -1+($f1*2);
#X obj 107 85 expr -1+($f1*2);
#X obj 146 109 expr -1+($f1*2);
#X obj 185 35 expr -1+($f1*2);
#X obj 224 59 expr -1+($f1*2);
#X obj 263 83 expr -1+($f1*2);
#X obj 302 107 expr -1+($f1*2);
#X obj 341 34 expr -1+($f1*2);
#X obj 380 58 expr -1+($f1*2);
#X obj 419 82 expr -1+($f1*2);
#X obj 458 106 expr -1+($f1*2);
#X connect 0 0 25 0;
#X connect 2 0 1 0;
#X connect 3 0 26 0;
#X connect 4 0 27 0;
#X connect 5 0 28 0;
#X connect 6 0 29 0;
#X connect 7 0 30 0;
#X connect 8 0 31 0;
#X connect 9 0 32 0;
#X connect 10 0 33 0;
#X connect 11 0 34 0;
#X connect 12 0 35 0;
#X connect 13 0 36 0;
#X connect 14 0 2 0;
#X connect 14 1 2 1;
#X connect 15 0 2 0;
#X connect 15 1 2 2;
#X connect 16 0 2 0;
#X connect 16 1 2 3;
#X connect 17 0 2 0;
#X connect 17 1 2 4;
#X connect 18 0 2 0;
#X connect 18 1 2 5;
#X connect 19 0 2 0;
#X connect 19 1 2 6;
#X connect 20 0 2 0;
#X connect 20 1 2 8;
#X connect 21 0 2 0;
#X connect 21 1 2 9;
#X connect 22 0 2 0;
#X connect 22 1 2 10;
#X connect 23 0 2 0;
#X connect 23 1 2 7;
#X connect 24 0 2 0;
#X connect 24 1 2 11;
#X connect 25 0 2 0;
#X connect 26 0 14 0;
#X connect 27 0 15 0;
#X connect 28 0 16 0;
#X connect 29 0 17 0;
#X connect 30 0 18 0;
#X connect 31 0 19 0;
#X connect 32 0 23 0;
#X connect 33 0 20 0;
#X connect 34 0 21 0;
#X connect 35 0 22 0;
#X connect 36 0 24 0;
#X restore 35 229 pd format;
#X obj 35 252 outlet;
#X obj 26 10 preset_node k12;
#X obj 128 10 preset_node k12;
#X obj 230 10 preset_node k12;
#X obj 332 10 preset_node k12;
#X obj 54 34 preset_node k12;
#X obj 156 34 preset_node k12;
#X obj 258 34 preset_node k12;
#X obj 360 34 preset_node k12;
#X obj 29 58 preset_node k12;
#X obj 131 58 preset_node k12;
#X obj 233 58 preset_node k12;
#X obj 335 58 preset_node k12;
#X connect 0 0 12 3;
#X connect 1 0 12 4;
#X connect 2 0 12 5;
#X connect 3 0 12 7;
#X connect 4 0 12 8;
#X connect 5 0 12 6;
#X connect 6 0 12 9;
#X connect 7 0 12 10;
#X connect 8 0 12 0;
#X connect 9 0 12 10;
#X connect 10 0 12 2;
#X connect 11 0 12 1;
#X connect 12 0 13 0;
#X connect 14 0 0 0;
#X connect 15 0 1 0;
#X connect 16 0 2 0;
#X connect 17 0 5 0;
#X connect 18 0 3 0;
#X connect 19 0 4 0;
#X connect 20 0 6 0;
#X connect 21 0 7 0;
#X connect 22 0 9 0;
#X connect 23 0 8 0;
#X connect 24 0 11 0;
#X connect 25 0 10 0;
#X coords 0 -1 1 1 78 28 2 74 141;
#X restore 103 171 pd keys;
#X obj 55 15 inlet;
#X obj 94 241 loadbang;
#X obj 55 78 nbx 5 14 -12 12 0 0 empty empty empty 0 -8 0 10 #fcfcfc
#000000 #000000 0 256 0 0;
#X msg 55 97 shift \$1;
#X obj 61 410 outlet;
#X obj 61 364 gate 1 0;
#X obj 35 340 > 0.7;
#X obj 61 387 ftom;
#X msg 94 264 tune 440 \, smooth 0.01 \, fcorr 1 \, lfodepth 0.25 \,
lforate 5 \, mix 1 \, correct 1;
#X connect 0 0 4 0;
#X connect 3 0 5 0;
#X connect 4 0 1 0;
#X connect 4 1 13 0;
#X connect 4 2 12 1;
#X connect 5 0 2 0;
#X connect 6 0 4 0;
#X connect 7 0 9 0;
#X connect 8 0 15 0;
#X connect 9 0 10 0;
#X connect 10 0 4 0;
#X connect 12 0 14 0;
#X connect 13 0 12 0;
#X connect 14 0 11 0;
#X connect 15 0 4 0;
#X coords 0 -1 1 1 89 89 2 98 140;
