#N canvas 47 181 470 440 10;
#X obj 35 303 inlet~;
#X obj 9 410 outlet~;
#X obj 60 326 svf~;
#X obj 81 11 inlet;
#X obj 81 54 * 10000;
#X msg 81 258 \$1 100;
#X obj 106 164 ggee/image @pd_extra/K12/objects/fx_filter.png 1 0 25
25 empty empty empty 110 140 1 0 10 #000000 0 -8 55 70 0 1 1;
#X obj 118 86 loadbang;
#X obj 81 171 hsl 68 14 50 10000 0 0 \$0-s-filt0 \$0-r-filt0 empty
-2 -8 0 10 #fcfcfc #000000 #000000 0 1 0;
#X obj 81 281 line~ 0;
#X obj 171 144 preset_node k12;
#X obj 81 32 abs;
#X msg 118 107 open @pd_extra/K12/objects/fx_filter.png;
#X text 80 182 low;
#X text 128 182 high;
#X obj 271 144 preset_node k12;
#X obj 93 213 cnv 13 14 13 empty \$0-compare notch 10 7 0 10 #fcfcfc
#000000 0;
#X obj 284 332 tosymbol;
#X obj 284 407 s \$0-compare;
#X obj 9 363 + 1;
#N canvas 433 184 360 298 select_output 0;
#X obj 25 29 inlet;
#X obj 81 29 inlet~;
#X obj 96 100 == 1;
#X msg 96 123 \$1 10;
#X obj 96 146 line~;
#X obj 81 170 *~;
#X obj 178 250 outlet~;
#X obj 140 29 inlet~;
#X msg 155 123 \$1 10;
#X obj 155 146 line~;
#X obj 140 170 *~;
#X obj 155 100 == 2;
#X obj 200 29 inlet~;
#X msg 215 123 \$1 10;
#X obj 215 146 line~;
#X obj 200 170 *~;
#X obj 259 29 inlet~;
#X msg 274 123 \$1 10;
#X obj 274 146 line~;
#X obj 259 170 *~;
#X obj 215 100 == 3;
#X obj 274 100 == 4;
#X connect 0 0 2 0;
#X connect 0 0 21 0;
#X connect 0 0 20 0;
#X connect 0 0 11 0;
#X connect 1 0 5 0;
#X connect 2 0 3 0;
#X connect 3 0 4 0;
#X connect 4 0 5 1;
#X connect 5 0 6 0;
#X connect 7 0 10 0;
#X connect 8 0 9 0;
#X connect 9 0 10 1;
#X connect 10 0 6 0;
#X connect 11 0 8 0;
#X connect 12 0 15 0;
#X connect 13 0 14 0;
#X connect 14 0 15 1;
#X connect 15 0 6 0;
#X connect 16 0 19 0;
#X connect 17 0 18 0;
#X connect 18 0 19 1;
#X connect 19 0 6 0;
#X connect 20 0 13 0;
#X connect 21 0 17 0;
#X restore 9 386 pd select_output;
#X msg 284 384 label \$1 \, label_pos \$2 7;
#X msg 396 265 notch 10;
#X obj 284 358 pack s 0, f 10;
#X obj 284 308 unpack s 0;
#X msg 324 265 bandpass 0;
#X msg 252 265 highpass 0;
#X msg 184 265 lowpass 3;
#X obj 254 228 select 0 1 2 3;
#X obj 87 199 hradio 15 1 1 4 empty empty empty 0 -8 0 10 #fcfcfc #000000
#000000 3;
#X connect 0 0 2 0;
#X connect 2 0 20 1;
#X connect 2 1 20 2;
#X connect 2 2 20 3;
#X connect 2 3 20 4;
#X connect 3 0 11 0;
#X connect 4 0 8 0;
#X connect 5 0 9 0;
#X connect 7 0 12 0;
#X connect 7 0 8 0;
#X connect 8 0 5 0;
#X connect 8 0 10 0;
#X connect 9 0 2 1;
#X connect 10 0 8 0;
#X connect 11 0 4 0;
#X connect 15 0 29 0;
#X connect 17 0 23 0;
#X connect 19 0 20 0;
#X connect 20 0 1 0;
#X connect 21 0 18 0;
#X connect 22 0 24 0;
#X connect 23 0 21 0;
#X connect 24 0 17 0;
#X connect 24 1 23 1;
#X connect 25 0 24 0;
#X connect 26 0 24 0;
#X connect 27 0 24 0;
#X connect 28 0 27 0;
#X connect 28 1 26 0;
#X connect 28 2 25 0;
#X connect 28 3 22 0;
#X connect 29 0 19 0;
#X connect 29 0 28 0;
#X coords 0 -1 1 1 89 89 2 74 144;
