#N canvas 568 143 501 555 10;
#X obj 234 4 preset_hub k12 %hidden% %node% 2 2 14 %node% 2 7 6 %node%
2 7 13 %node% 2 2 25 %node% 2 8 6 %node% 2 10 0 %node% 2 10 3;
#X obj 8 309 cnv 15 476 106 empty empty empty 20 12 0 14 #e0e0e0 #404040
0;
#X obj 12 437 output;
#N canvas 454 430 403 161 META 0;
#X text 14 43 INLET_0 Connect the signal to which you want the delay
to be added;
#X text 14 11 DESCRIPTION This effect object adds a delay or echo effect
to a sound. The speed is adjustable using the slider.;
#X text 14 105 OUTLET_0 Connect this to the output object \, signal
processing objects (blue) or another yellow effect object;
#X text 14 73 INLET_1 Change delay time using values between 0 (5 milliseconds)
and 1 (2000 milliseconds).;
#X restore 442 520 pd META;
#X obj -5 26 cnv 3 501 3 empty empty empty 5 14 0 20 #fc8000 #b8b8b8
0;
#X obj -5 -2 cnv 15 501 28 empty empty FX/Multitap 5 14 0 20 #880024
#fcfcfc 0;
#X obj 444 4 ggee/image @pd_extra/K12/icons/l2ork.png 0 0 48 50 empty
empty empty 48 50 1 0 10 #000000 0 -8 24 25 0 1 1;
#X obj 12 313 K12/fx_multitap;
#X obj 119 232 K12/math_number;
#X text 109 315 The Multitap Delay is an adjustable delay or echo that
slowly decays over time. Connect the output of an instrument to the
left inlet. To adjust the delay \, use the slider on the object or
send value between 0 and 1 in the right inlet. The range is 5 ms to
2000 ms. Use the feedback slider to adjust how long the delay decays.
The outlet sends out the original sound plus the delays.;
#X obj 12 80 K12/logic_metronome;
#X obj 12 194 K12/instr_short2 0;
#X connect 7 0 2 0;
#X connect 8 0 7 1;
#X connect 10 0 11 0;
#X connect 11 0 7 0;
