#N canvas 304 140 364 376 10;
#X obj 20 291 inlet~;
#X obj 20 337 outlet~;
#X obj 108 16 inlet;
#X obj 134 153 ggee/image @pd_extra/K12/objects/fx_phaser.png 1 0 25
25 empty empty empty 110 140 1 0 10 #000000 0 -8 55 70 0 1 1;
#X obj 201 134 preset_node k12;
#X msg 83 265 freq \$1;
#X msg 139 265 depth \$1;
#X obj 108 164 hsl 74 14 0 127 0 1 \$0-s-null \$0-r-null empty -2 -8
0 10 #fcfcfc #000000 #000000 500 0 0 1;
#X obj 108 191 hsl 74 14 0 127 0 1 \$0-s-null \$0-r-null empty -2 -8
0 10 #fcfcfc #000000 #000000 4000 1 0 1;
#X text 107 175 low;
#X text 160 175 high;
#X text 155 202 depth;
#X obj 201 164 preset_node k12;
#X text 107 147 freq;
#X obj 139 241 / 100;
#X obj 83 241 / 10;
#N canvas 771 429 662 457 rj.e_phaser 0;
#X obj 43 37 inlet~;
#X obj 383 27 inlet;
#X obj 65 126 rpole~;
#X obj 65 101 rzero_rev~;
#X obj 65 175 rpole~;
#X obj 65 150 rzero_rev~;
#X obj 65 223 rpole~;
#X obj 65 198 rzero_rev~;
#X obj 65 272 rpole~;
#X obj 65 247 rzero_rev~;
#X obj 42 302 +~;
#X obj 41 330 outlet~;
#X obj 372 179 r \$0-freq;
#X obj 372 210 phasor~ 0.3;
#X text 269 389 replacement for: expr~ 1 - 0.03 - 0.6*abs($v1-0.5)*abs($v1-0.5)
;
#X obj 315 210 sig~ 1;
#X obj 315 236 -~;
#X obj 315 280 min~;
#X floatatom 453 177 5 0 0 0 - - - 0 0 1, f 5;
#X obj 315 305 *~;
#X obj 239 359 -~;
#X obj 240 329 sig~ 0.97;
#X obj 375 299 line~;
#X obj 458 249 loadbang;
#X obj 458 270 f 0.6;
#X obj 315 332 *~;
#X obj 375 244 r \$0-depth;
#X obj 375 270 pack 0 10;
#X obj 383 51 list trim;
#X obj 383 75 route freq depth;
#X obj 447 109 s \$0-depth;
#X obj 383 109 s \$0-freq;
#X connect 0 0 3 0;
#X connect 0 0 10 0;
#X connect 1 0 28 0;
#X connect 2 0 5 0;
#X connect 3 0 2 0;
#X connect 4 0 7 0;
#X connect 5 0 4 0;
#X connect 6 0 9 0;
#X connect 7 0 6 0;
#X connect 8 0 10 1;
#X connect 9 0 8 0;
#X connect 10 0 11 0;
#X connect 12 0 13 0;
#X connect 13 0 17 1;
#X connect 13 0 16 1;
#X connect 15 0 16 0;
#X connect 16 0 17 0;
#X connect 17 0 19 0;
#X connect 17 0 19 1;
#X connect 18 0 13 0;
#X connect 19 0 25 0;
#X connect 20 0 3 1;
#X connect 20 0 2 1;
#X connect 20 0 5 1;
#X connect 20 0 4 1;
#X connect 20 0 7 1;
#X connect 20 0 6 1;
#X connect 20 0 9 1;
#X connect 20 0 8 1;
#X connect 21 0 20 0;
#X connect 22 0 25 1;
#X connect 23 0 24 0;
#X connect 24 0 22 0;
#X connect 25 0 20 1;
#X connect 26 0 27 0;
#X connect 27 0 22 0;
#X connect 28 0 29 0;
#X connect 29 0 31 0;
#X connect 29 1 30 0;
#X restore 20 314 pd rj.e_phaser;
#X connect 0 0 16 0;
#X connect 2 0 7 0;
#X connect 4 0 7 0;
#X connect 5 0 16 1;
#X connect 6 0 16 1;
#X connect 7 0 15 0;
#X connect 8 0 14 0;
#X connect 12 0 8 0;
#X connect 14 0 6 0;
#X connect 15 0 5 0;
#X connect 16 0 1 0;
#X coords 0 -1 1 1 89 89 2 102 134;
#X gopspill 1;
