#N canvas 203 131 548 445 10;
#X obj 158 326 bng 86 250 50 0 empty empty empty 17 7 0 10 #fcfcfc
#000000 #000000;
#X obj 188 344 ggee/image @pd_extra/K12/objects/fx_reverb1.png 1 0
25 25 empty empty empty 110 140 1 0 10 #000000 0 -8 55 70 0 1 1;
#X obj 31 262 freeverb~;
#X obj 31 320 outlet~;
#X obj 31 117 inlet~;
#N canvas 41 75 470 252 reverb_levels 0;
#X msg 173 175 roomsize 0.98 \, wet 0.7 \, dry 0.5 \, width 0 \, damping
0.7;
#X obj 56 27 loadbang;
#X obj 113 82 select 0 1 2 3;
#X msg 113 106 roomsize 0.4 \, wet 0.3 \, dry 0.7 \, width 0 \, damping
0.5;
#X msg 133 129 roomsize 0.6 \, wet 0.5 \, dry 0.5 \, width 0 \, damping
0.3;
#X msg 153 152 roomsize 0.8 \, wet 0.6 \, dry 0.2 \, width 0 \, damping
0.7;
#X obj 113 27 inlet;
#X obj 113 222 outlet;
#X connect 0 0 7 0;
#X connect 1 0 3 0;
#X connect 2 0 3 0;
#X connect 2 1 4 0;
#X connect 2 2 5 0;
#X connect 2 3 0 0;
#X connect 3 0 7 0;
#X connect 4 0 7 0;
#X connect 5 0 7 0;
#X connect 6 0 2 0;
#X restore 48 235 pd reverb_levels;
#X obj 31 294 *~ 0.5;
#X obj 211 140 select 0 1 2 3;
#X obj 31 206 +~ 1e-07;
#X obj 219 93 preset_node k12;
#X floatatom 211 116 5 0 0 0 - - - 0 0, f 5;
#X obj 211 70 counter 0 3;
#X msg 211 276 open @pd_extra/K12/objects/fx_reverb1.png;
#X msg 231 300 open @pd_extra/K12/objects/fx_reverb2.png;
#X msg 251 323 open @pd_extra/K12/objects/fx_reverb3.png;
#X msg 271 347 open @pd_extra/K12/objects/fx_reverb4.png;
#X obj 269 44 + 1;
#X obj 242 23 sel 3;
#X msg 242 44 0;
#X obj 151 70 loadbang;
#X obj 188 344 ggee/image @pd_extra/K12/objects/fx_reverb2.png 1 0
25 25 empty empty empty 110 140 1 0 10 #000000 0 -8 55 70 0 0 1;
#X obj 188 344 ggee/image @pd_extra/K12/objects/fx_reverb3.png 1 0
25 25 empty empty empty 110 140 1 0 10 #000000 0 -8 55 70 0 0 1;
#X obj 188 344 ggee/image @pd_extra/K12/objects/fx_reverb4.png 1 0
25 25 empty empty empty 110 140 1 0 10 #000000 0 -8 55 70 0 0 1;
#X msg 427 246 visible \$1;
#X msg 355 246 visible \$1;
#X msg 283 246 visible \$1;
#X msg 211 246 visible \$1;
#X obj 211 162 t 1 0 0 0;
#X obj 231 182 t 0 1 0 0;
#X obj 251 202 t 0 0 1 0;
#X obj 271 222 t 0 0 0 1;
#X msg 151 93 0;
#X connect 0 0 11 0;
#X connect 2 0 6 0;
#X connect 2 1 6 0;
#X connect 4 0 8 0;
#X connect 5 0 2 0;
#X connect 6 0 3 0;
#X connect 7 0 27 0;
#X connect 7 1 28 0;
#X connect 7 2 29 0;
#X connect 7 3 30 0;
#X connect 8 0 2 0;
#X connect 9 0 10 0;
#X connect 10 0 5 0;
#X connect 10 0 7 0;
#X connect 10 0 17 0;
#X connect 11 0 10 0;
#X connect 12 0 1 0;
#X connect 13 0 20 0;
#X connect 14 0 21 0;
#X connect 15 0 22 0;
#X connect 16 0 11 2;
#X connect 17 0 18 0;
#X connect 17 1 16 0;
#X connect 18 0 11 2;
#X connect 19 0 31 0;
#X connect 23 0 22 0;
#X connect 24 0 21 0;
#X connect 25 0 20 0;
#X connect 26 0 1 0;
#X connect 27 0 26 0;
#X connect 27 1 25 0;
#X connect 27 2 24 0;
#X connect 27 3 23 0;
#X connect 28 0 26 0;
#X connect 28 1 25 0;
#X connect 28 2 24 0;
#X connect 28 3 23 0;
#X connect 29 0 26 0;
#X connect 29 1 25 0;
#X connect 29 2 24 0;
#X connect 29 3 23 0;
#X connect 30 0 26 0;
#X connect 30 1 25 0;
#X connect 30 2 24 0;
#X connect 30 3 23 0;
#X connect 31 0 10 0;
#X coords 0 -1 1 1 89 89 2 155 324;
