#N canvas 208 64 502 390 10;
#X obj 259 -15 preset_hub k12 %hidden% %node% 2 2 14 %preset% 0 100
%preset% 1 100 %preset% 2 100 %preset% 3 100 %node% 2 2 25 %preset%
0 0 %preset% 1 0 %preset% 2 0 %preset% 3 0 %node% 2 8 6 %preset% 0
1 %preset% 1 0 %preset% 2 0.5 %preset% 3 0.3 %node% 2 9 6 %preset%
0 60 %preset% 1 60 %preset% 2 72 %preset% 3 67 %node% 2 11 7;
#X obj 14 135 cnv 15 474 99 empty empty empty 20 12 0 14 #e0e0e0 #404040
0;
#X obj 17 257 K12/output;
#N canvas 507 27 450 514 META 0;
#X text 11 9 DESCRIPTION This instrument makes long notes that sound
like a flute;
#X text 9 71 INLET_1 Send a number between 0 and 127 here to change
the pitch;
#X text 8 100 OUTLET_0 Connect this to a yellow effect or the sound
object;
#X text 9 41 INLET_0 Send a number between 0 and 1 here to control
the loudness;
#X restore 447 334 pd META;
#X obj 0 6 cnv 3 501 3 empty empty empty 5 14 0 20 #fc8000 #b8b8b8
0;
#X obj 0 -22 cnv 15 501 28 empty empty Instrument/Air 5 14 0 20 #880024
#fcfcfc 0;
#X obj 448 -15 ggee/image @pd_extra/K12/icons/l2ork.png 0 0 48 50 empty
empty empty 48 50 1 0 10 #000000 0 -8 24 25 0 1 1;
#X obj 17 139 K12/instr_sustained1;
#X obj 17 50 K12/math_number 0;
#X obj 117 50 K12/math_number 0;
#X text 119 143 The Air Instrument makes long notes that sound like
a flute. Connect any input device to the left inlet to trigger the
sound. In this example we are using Wii Speed. To change the pitch
\, send a number between 0 and 127 to the right inlet. Connect the
outlet to an effect object or to the output object.;
#X obj 336 29 K12/preset 0;
#X connect 7 0 2 0;
#X connect 8 0 7 0;
#X connect 9 0 7 1;
