#N canvas 710 168 354 330 10;
#X obj 162 179 ggee/image @pd_extra/K12/objects/instr_sustained1.png
1 0 25 25 empty empty empty 110 140 1 0 10 #000000 0 -8 55 70 0 1 1
;
#X obj 27 281 outlet~;
#X obj 26 53 noise~;
#X obj 27 247 svf~ 500 0.95;
#X obj 109 23 inlet;
#X obj 109 48 * 0.5;
#X obj 27 222 *~ 0.1;
#X obj 27 192 *~;
#X obj 109 96 line~;
#X obj 141 199 cnv 15 51 21 empty empty Air 20 12 1 20 #fcfcfc #404040
0;
#X obj 160 23 inlet;
#X obj 160 95 mtof;
#X msg 109 72 \$1 25;
#X obj 44 96 loadbang;
#X msg 44 118 0;
#X obj 199 23 loadbang;
#X msg 199 45 60;
#X connect 2 0 7 0;
#X connect 3 0 1 0;
#X connect 4 0 5 0;
#X connect 5 0 12 0;
#X connect 6 0 3 0;
#X connect 7 0 6 0;
#X connect 8 0 7 1;
#X connect 10 0 11 0;
#X connect 11 0 3 1;
#X connect 12 0 8 0;
#X connect 13 0 14 0;
#X connect 14 0 7 1;
#X connect 15 0 16 0;
#X connect 16 0 11 0;
#X coords 0 -1 1 1 89 89 2 130 160;
#X gopspill 1;
