#N canvas 208 64 500 427 10;
#X obj 240 -12 preset_hub k12 %hidden% %node% 2 2 14 %preset% 0 100
%preset% 1 100 %preset% 2 100 %preset% 3 100 %node% 2 2 25 %preset%
0 1 %preset% 1 1 %preset% 2 1 %preset% 3 1 %node% 2 8 6 %preset% 0
1 %preset% 1 0.5 %preset% 2 0 %preset% 3 0.25 %node% 2 9 6 %preset%
0 60 %preset% 1 48 %preset% 2 48 %preset% 3 55 %node% 2 11 7;
#X obj 0 164 cnv 15 475 97 empty empty empty 20 12 0 14 #e0e0e0 #404040
0;
#X obj 4 287 output;
#N canvas 489 87 450 514 META 0;
#X text 7 67 INLET_1 Send a number between 0 and 127 here to change
pitch;
#X text 7 94 OUTLET_0 Connect this to a yellow effect or the sound
object;
#X text 9 39 INLET_0 Send a number between 0 and 1 here to change the
loudness;
#X text 10 9 DESCRIPTION This instrument makes long notes and sounds
like brass;
#X restore 432 371 pd META;
#X obj 4 167 K12/instr_sustained2;
#X obj -12 9 cnv 3 501 3 empty empty empty 5 14 0 20 #fc8000 #b8b8b8
0;
#X obj -12 -19 cnv 15 501 28 empty empty Instrument/Brass 5 14 0 20
#880024 #fcfcfc 0;
#X obj 435 -10 ggee/image @pd_extra/K12/icons/l2ork.png 0 0 48 50 empty
empty empty 48 50 1 0 10 #000000 0 -8 24 25 0 1 1;
#X obj 4 60 K12/math_number 0;
#X obj 110 60 K12/math_number 0;
#X text 109 171 The Buzz instrument generates long notes and sounds
like a brass instrument. Connect an input device to the left inlet
to trigger the sound. In this example we are using Wii Speed. To change
the pitch \, send a number between 0 and 127 to the right inlet. Connect
the outlet to an effect object or to the output object \, as shown.
;
#X obj 319 46 K12/preset 0;
#X connect 4 0 2 0;
#X connect 8 0 4 0;
#X connect 9 0 4 1;
