#N canvas 411 64 501 434 10;
#X obj 267 -236 preset_hub k12 %hidden% %node% 2 2 14 %node% 2 2 25
%node% 2 8 0 %node% 2 8 3;
#X obj -4 -59 cnv 15 469 97 empty empty empty 20 12 0 14 #e0e0e0 #404040
0;
#X obj 0 55 K12/output;
#N canvas 832 145 450 514 META 0;
#X text 10 50 OUTLET_0 Connect this to a yellow effect or the green
sound object.;
#X text 11 30 INLET_0 Send a 1 here to trigger the sound.;
#X text 11 5 DESCRIPTION Creates a sound of a bass drum;
#X restore 425 158 pd META;
#X obj -22 -215 cnv 3 501 3 empty empty empty 5 14 0 20 #fc8000 #b8b8b8
0;
#X obj -22 -243 cnv 15 501 28 empty empty Instrument/Bass_Drum 5 14
0 20 #880024 #fcfcfc 0;
#X obj 426 -236 ggee/image @pd_extra/K12/icons/l2ork.png 0 0 48 50
empty empty empty 48 50 1 0 10 #000000 0 -8 24 25 0 1 1;
#X obj 0 -56 K12/instr_short1;
#X obj 0 -180 K12/logic_metronome;
#X text 98 -46 The Short Instrument creates a sound like a bass drum.
Connect any input device object to the left inlet. In this example
we are using Metronome. Connect the outlet to an effect object or to
the sound object as shown. Make sure to bring op the output level to
hear the sound.;
#X connect 7 0 2 0;
#X connect 8 0 7 0;
