#N canvas 86 268 518 366 10;
#X obj 206 17 inlet;
#X obj 109 166 *~;
#X obj 46 142 phasor~ 300;
#X obj 124 142 phasor~ 301;
#X obj 109 326 outlet~;
#X obj 109 192 svf~ 400;
#X obj 110 301 *~;
#X obj 109 223 *~;
#X obj 138 223 rand~;
#X obj 109 272 *~;
#X obj 261 178 osc~ 300;
#X obj 19 220 noise~;
#X obj 19 245 svf~ 300 0.8;
#X obj 19 269 *~ 0.1;
#X obj 139 253 loadbang;
#X msg 139 275 0;
#X obj 206 284 line~;
#X obj 124 120 + 1;
#X obj 431 97 ggee/image @pd_extra/K12/objects/instr_sustained2.png
1 0 25 25 empty empty empty 110 140 1 0 10 #000000 0 -8 55 70 0 1 1
;
#X obj 400 113 cnv 15 65 23 empty empty Brass 16 12 1 20 #fcfcfc #404040
0;
#X obj 261 16 inlet;
#X obj 261 77 mtof;
#X msg 206 261 \$1 25;
#X obj 142 17 loadbang;
#X msg 142 39 60;
#X connect 0 0 22 0;
#X connect 1 0 5 0;
#X connect 2 0 1 0;
#X connect 3 0 1 1;
#X connect 5 0 7 0;
#X connect 6 0 4 0;
#X connect 7 0 9 0;
#X connect 8 0 9 1;
#X connect 9 0 6 0;
#X connect 10 0 7 1;
#X connect 11 0 12 0;
#X connect 12 0 13 0;
#X connect 13 0 6 0;
#X connect 14 0 15 0;
#X connect 15 0 6 1;
#X connect 16 0 6 1;
#X connect 17 0 3 0;
#X connect 20 0 21 0;
#X connect 21 0 2 0;
#X connect 21 0 17 0;
#X connect 21 0 12 1;
#X connect 21 0 10 0;
#X connect 22 0 16 0;
#X connect 23 0 24 0;
#X connect 24 0 21 0;
#X coords 0 -1 1 1 90 90 2 398 77;
#X gopspill 1;
