#N canvas 419 64 502 501 10;
#X obj 305 -578 preset_hub k12 %hidden% %node% 2 3 14 %node% 2 3 28
%node% 2 4 33 %node% 2 4 34;
#X obj 16 -307 cnv 15 463 99 empty empty empty 20 12 0 14 #e0e0e0 #404040
0;
#X obj 20 -520 K12/wii_connect;
#X obj 20 -191 K12/output;
#X obj 20 -411 K12/wii_hit;
#N canvas 529 34 450 514 META 0;
#X text 4 56 OUTLET_0 Connect this to a yellow effect or the green
sound object.;
#X text 4 31 INLET_0 Send a number 1 here to trigger the sound;
#X text 4 6 DESCRIPTION Creates a sound of a snare drum;
#X restore 444 -108 pd META;
#X obj -1 -554 cnv 3 501 3 empty empty empty 5 14 0 20 #fc8000 #b8b8b8
0;
#X obj -1 -583 cnv 15 501 28 empty empty Instrument/Snare_Drum 5 14
0 20 #880024 #fcfcfc 0;
#X obj 445 -575 ggee/image @pd_extra/K12/icons/l2ork.png 0 0 48 50
empty empty empty 48 50 1 0 10 #000000 0 -8 24 25 0 1 1;
#X obj 20 -302 K12/instr_short2;
#X text 116 -290 The Snare Drum creates a sound like a snare drum.
Connect any input device you want to trigger the sound into the left
inlet. In this example we are using Wii Hit. Connect the outlet to
an effect object or to the sound object.;
#X connect 2 0 4 0;
#X connect 4 0 9 0;
#X connect 9 0 3 0;
