#N canvas 390 81 503 505 10;
#X obj 225 6 preset_hub k12 %hidden% %node% 2 4 14 %node% 2 17 8 %node%
2 15 24 %node% 2 18 6 %node% 2 4 25;
#X obj 0 299 cnv 15 486 220 empty empty empty 20 12 0 14 #e0e0e0 #404040
0;
#X obj 5 170 K12/wii_speed;
#X obj 103 536 K12/instr_sustained2;
#X obj 5 781 output;
#N canvas 521 27 450 514 META 0;
#X text 9 66 OUTLET_0 Connect this to an instrument or another math
object;
#X text 9 43 INLET_0 Connect any input device object here;
#X text 9 104 OUTLET_1 Connect this to an instrument or another math
object;
#X text 10 6 DESCRIPTION This lets you make 2 data streams or sounds
interact with each other;
#X restore 441 853 pd META;
#X obj -7 29 cnv 3 501 3 empty empty empty 5 14 0 20 #fc8000 #b8b8b8
0;
#X obj -7 0 cnv 15 501 28 empty empty Logic/Mapper 5 14 0 20 #880024
#fcfcfc 0;
#X obj 440 8 ggee/image @pd_extra/K12/icons/l2ork.png 0 0 48 50 empty
empty empty 48 50 1 0 10 #000000 0 -8 24 25 0 1 1;
#X obj 5 55 K12/wii_connect;
#X text 113 345 With the top toggle option selected \, the outlets
will always be zero.;
#X text 113 311 There are four different functions that the Mapper
object will do.;
#X text 113 379 With the second toggle option selected \, the right
outlet will be the opposite of the left outlet (in other words \, when
one is 0 the other is 1).;
#X text 114 463 With the fourth toggle option selected \, as the left
slider increases from 0 to 1 the right slider increases slowly at first
and then quickly \, also from 0 to 1;
#X text 113 426 With the third toggle option selected \, the left slider
ranges from 0 to 1 and the right slider ranges from 0 to 0.5;
#X obj 5 304 K12/logic_mapper;
#X obj 5 536 K12/instr_sustained1;
#X obj 104 646 K12/fx_reverb;
#X obj 113 199 K12/math_number;
#X connect 2 0 15 0;
#X connect 3 0 17 0;
#X connect 9 0 2 0;
#X connect 15 0 16 0;
#X connect 15 1 3 0;
#X connect 16 0 4 0;
#X connect 17 0 4 0;
#X connect 18 0 15 0;
