#N canvas 620 360 743 496 10;
#X obj 382 276 ggee/image @pd_extra/K12/objects/logic_sequencer.png
1 0 25 25 empty empty empty 355 230 1 0 10 #000000 0 -8 177.5 115 0
1 1;
#X obj 275 16 inlet;
#X obj 383 435 outlet;
#X obj 275 56 select 1 2 3 4 5 6 7 8 9 10 11 12 13 14 15 16;
#X obj 275 36 int;
#X obj 112 84 preset_node k12;
#X obj 220 253 vsl 20 128 0 127 0 0 \$0-slider-s-null \$0-slider-r-null
empty 0 -9 0 10 #fcfcfc #000000 #000000 0 1 0 1;
#X obj 549 195 K12/float_2_midi_pitch;
#X floatatom 220 235 3 0 0 0 - - - 0 0 1, f 3;
#X msg 185 461 set \$1;
#X obj 220 213 bng 20 100 50 0 \$0-bng-send \$0-bng-receive 1 7 8 0
10 #fcfcfc #f06c00 #000000 1;
#X obj 112 104 preset_node k12;
#X obj 242 253 vsl 20 128 0 127 0 0 \$0-slider-s-null \$0-slider-r-null
empty 0 -9 0 10 #fcfcfc #000000 #000000 0 1 0 1;
#X floatatom 242 235 3 0 0 0 - - - 0 0 1, f 3;
#X msg 207 461 set \$1;
#X obj 242 213 bng 20 100 50 0 \$0-bng-send \$0-bng-receive 2 7 8 0
10 #fcfcfc #f06c00 #000000 1;
#X obj 112 124 preset_node k12;
#X obj 264 253 vsl 20 128 0 127 0 0 \$0-slider-s-null \$0-slider-r-null
empty 0 -9 0 10 #fcfcfc #000000 #000000 0 1 0 1;
#X floatatom 264 235 3 0 0 0 - - - 0 0 1, f 3;
#X msg 229 461 set \$1;
#X obj 264 213 bng 20 100 50 0 \$0-bng-send \$0-bng-receive 3 7 8 0
10 #fcfcfc #f06c00 #000000 1;
#X obj 112 144 preset_node k12;
#X obj 286 253 vsl 20 128 0 127 0 0 \$0-slider-s-null \$0-slider-r-null
empty 0 -9 0 10 #fcfcfc #000000 #000000 0 1 0 1;
#X floatatom 286 235 3 0 0 0 - - - 0 0 1, f 3;
#X msg 251 461 set \$1;
#X obj 286 213 bng 20 100 50 0 \$0-bng-send \$0-bng-receive 4 7 8 0
10 #fcfcfc #f06c00 #000000 1;
#X obj 209 84 preset_node k12;
#X obj 308 253 vsl 20 128 0 127 0 0 \$0-slider-s-null \$0-slider-r-null
empty 0 -9 0 10 #fcfcfc #000000 #000000 0 1 0 1;
#X floatatom 308 235 3 0 0 0 - - - 0 0 1, f 3;
#X msg 274 461 set \$1;
#X obj 308 213 bng 20 100 50 0 \$0-bng-send \$0-bng-receive 5 7 8 0
10 #fcfcfc #f06c00 #000000 1;
#X obj 209 104 preset_node k12;
#X obj 330 253 vsl 20 128 0 127 0 0 \$0-slider-s-null \$0-slider-r-null
empty 0 -9 0 10 #fcfcfc #000000 #000000 0 1 0 1;
#X floatatom 330 235 3 0 0 0 - - - 0 0 1, f 3;
#X msg 296 461 set \$1;
#X obj 330 213 bng 20 100 50 0 \$0-bng-send \$0-bng-receive 6 7 8 0
10 #fcfcfc #f06c00 #000000 1;
#X obj 209 124 preset_node k12;
#X obj 352 253 vsl 20 128 0 127 0 0 \$0-slider-s-null \$0-slider-r-null
empty 0 -9 0 10 #fcfcfc #000000 #000000 0 1 0 1;
#X floatatom 352 235 3 0 0 0 - - - 0 0 1, f 3;
#X msg 318 461 set \$1;
#X obj 352 213 bng 20 100 50 0 \$0-bng-send \$0-bng-receive 7 7 8 0
10 #fcfcfc #f06c00 #000000 1;
#X obj 209 144 preset_node k12;
#X obj 374 253 vsl 20 128 0 127 0 0 \$0-slider-s-null \$0-slider-r-null
empty 0 -9 0 10 #fcfcfc #000000 #000000 0 1 0 1;
#X floatatom 374 235 3 0 0 0 - - - 0 0 1, f 3;
#X msg 340 461 set \$1;
#X obj 374 213 bng 20 100 50 0 \$0-bng-send \$0-bng-receive 8 7 8 0
10 #fcfcfc #f06c00 #000000 1;
#X obj 306 84 preset_node k12;
#X obj 396 253 vsl 20 128 0 127 0 0 \$0-slider-s-null \$0-slider-r-null
empty 0 -9 0 10 #fcfcfc #000000 #000000 0 1 0 1;
#X floatatom 396 235 3 0 0 0 - - - 0 0 1, f 3;
#X msg 362 461 set \$1;
#X obj 396 213 bng 20 100 50 0 \$0-bng-send \$0-bng-receive 9 7 8 0
10 #fcfcfc #f06c00 #000000 1;
#X obj 306 104 preset_node k12;
#X obj 418 253 vsl 20 128 0 127 0 0 \$0-slider-s-null \$0-slider-r-null
empty 0 -9 0 10 #fcfcfc #000000 #000000 0 1 0 1;
#X floatatom 418 235 3 0 0 0 - - - 0 0 1, f 3;
#X msg 384 461 set \$1;
#X obj 418 213 bng 20 100 50 0 \$0-bng-send \$0-bng-receive 10 4 8
0 10 #fcfcfc #f06c00 #000000 1;
#X obj 306 124 preset_node k12;
#X obj 440 253 vsl 20 128 0 127 0 0 \$0-slider-s-null \$0-slider-r-null
empty 0 -9 0 10 #fcfcfc #000000 #000000 0 1 0 1;
#X floatatom 440 235 3 0 0 0 - - - 0 0 1, f 3;
#X msg 406 461 set \$1;
#X obj 440 213 bng 20 100 50 0 \$0-bng-send \$0-bng-receive 11 4 8
0 10 #fcfcfc #f06c00 #000000 1;
#X obj 306 144 preset_node k12;
#X obj 462 253 vsl 20 128 0 127 0 0 \$0-slider-s-null \$0-slider-r-null
empty 0 -9 0 10 #fcfcfc #000000 #000000 0 1 0 1;
#X floatatom 462 235 3 0 0 0 - - - 0 0 1, f 3;
#X msg 428 461 set \$1;
#X obj 462 213 bng 20 100 50 0 \$0-bng-send \$0-bng-receive 12 4 8
0 10 #fcfcfc #f06c00 #000000 1;
#X obj 403 84 preset_node k12;
#X obj 484 253 vsl 20 128 0 127 0 0 \$0-slider-s-null \$0-slider-r-null
empty 0 -9 0 10 #fcfcfc #000000 #000000 0 1 0 1;
#X floatatom 484 235 3 0 0 0 - - - 0 0 1, f 3;
#X msg 451 461 set \$1;
#X obj 484 213 bng 20 100 50 0 \$0-bng-send \$0-bng-receive 13 4 8
0 10 #fcfcfc #f06c00 #000000 1;
#X obj 403 104 preset_node k12;
#X obj 506 253 vsl 20 128 0 127 0 0 \$0-slider-s-null \$0-slider-r-null
empty 0 -9 0 10 #fcfcfc #000000 #000000 0 1 0 1;
#X floatatom 506 235 3 0 0 0 - - - 0 0 1, f 3;
#X msg 473 461 set \$1;
#X obj 506 213 bng 20 100 50 0 \$0-bng-send \$0-bng-receive 14 4 8
0 10 #fcfcfc #f06c00 #000000 1;
#X obj 403 124 preset_node k12;
#X obj 528 253 vsl 20 128 0 127 0 0 \$0-slider-s-null \$0-slider-r-null
empty 0 -9 0 10 #fcfcfc #000000 #000000 0 1 0 1;
#X floatatom 528 235 3 0 0 0 - - - 0 0 1, f 3;
#X msg 495 461 set \$1;
#X obj 528 213 bng 20 100 50 0 \$0-bng-send \$0-bng-receive 15 4 8
0 10 #fcfcfc #f06c00 #000000 1;
#X obj 403 144 preset_node k12;
#X obj 550 253 vsl 20 128 0 127 0 0 \$0-slider-s-null \$0-slider-r-null
empty 0 -9 0 10 #fcfcfc #000000 #000000 0 1 0 1;
#X floatatom 550 235 3 0 0 0 - - - 0 0 1, f 3;
#X msg 516 461 set \$1;
#X obj 550 213 bng 20 100 50 0 \$0-bng-send \$0-bng-receive 16 4 8
0 10 #fcfcfc #f06c00 #000000 1;
#X connect 1 0 4 0;
#X connect 3 0 10 0;
#X connect 3 0 8 0;
#X connect 3 1 15 0;
#X connect 3 1 13 0;
#X connect 3 2 20 0;
#X connect 3 2 18 0;
#X connect 3 3 25 0;
#X connect 3 3 23 0;
#X connect 3 4 30 0;
#X connect 3 4 28 0;
#X connect 3 5 35 0;
#X connect 3 5 33 0;
#X connect 3 6 40 0;
#X connect 3 6 38 0;
#X connect 3 7 45 0;
#X connect 3 7 43 0;
#X connect 3 8 50 0;
#X connect 3 8 48 0;
#X connect 3 9 55 0;
#X connect 3 9 53 0;
#X connect 3 10 60 0;
#X connect 3 10 58 0;
#X connect 3 11 65 0;
#X connect 3 11 63 0;
#X connect 3 12 70 0;
#X connect 3 12 68 0;
#X connect 3 13 75 0;
#X connect 3 13 73 0;
#X connect 3 14 80 0;
#X connect 3 14 78 0;
#X connect 3 15 85 0;
#X connect 3 15 83 0;
#X connect 4 0 3 0;
#X connect 5 0 6 0;
#X connect 6 0 7 0;
#X connect 6 0 9 0;
#X connect 6 0 2 0;
#X connect 8 0 6 0;
#X connect 9 0 8 0;
#X connect 11 0 12 0;
#X connect 12 0 14 0;
#X connect 12 0 7 0;
#X connect 12 0 2 0;
#X connect 13 0 12 0;
#X connect 14 0 13 0;
#X connect 16 0 17 0;
#X connect 17 0 19 0;
#X connect 17 0 2 0;
#X connect 17 0 7 0;
#X connect 18 0 17 0;
#X connect 19 0 18 0;
#X connect 21 0 22 0;
#X connect 22 0 24 0;
#X connect 22 0 2 0;
#X connect 22 0 7 0;
#X connect 23 0 22 0;
#X connect 24 0 23 0;
#X connect 26 0 27 0;
#X connect 27 0 29 0;
#X connect 27 0 7 0;
#X connect 27 0 2 0;
#X connect 28 0 27 0;
#X connect 29 0 28 0;
#X connect 31 0 32 0;
#X connect 32 0 34 0;
#X connect 32 0 7 0;
#X connect 32 0 2 0;
#X connect 33 0 32 0;
#X connect 34 0 33 0;
#X connect 36 0 37 0;
#X connect 37 0 39 0;
#X connect 37 0 7 0;
#X connect 37 0 2 0;
#X connect 38 0 37 0;
#X connect 39 0 38 0;
#X connect 41 0 42 0;
#X connect 42 0 44 0;
#X connect 42 0 7 0;
#X connect 42 0 2 0;
#X connect 43 0 42 0;
#X connect 44 0 43 0;
#X connect 46 0 47 0;
#X connect 47 0 49 0;
#X connect 47 0 2 0;
#X connect 47 0 7 0;
#X connect 48 0 47 0;
#X connect 49 0 48 0;
#X connect 51 0 52 0;
#X connect 52 0 54 0;
#X connect 52 0 2 0;
#X connect 52 0 7 0;
#X connect 53 0 52 0;
#X connect 54 0 53 0;
#X connect 56 0 57 0;
#X connect 57 0 59 0;
#X connect 57 0 2 0;
#X connect 57 0 7 0;
#X connect 58 0 57 0;
#X connect 59 0 58 0;
#X connect 61 0 62 0;
#X connect 62 0 64 0;
#X connect 62 0 2 0;
#X connect 62 0 7 0;
#X connect 63 0 62 0;
#X connect 64 0 63 0;
#X connect 66 0 67 0;
#X connect 67 0 69 0;
#X connect 67 0 2 0;
#X connect 67 0 7 0;
#X connect 68 0 67 0;
#X connect 69 0 68 0;
#X connect 71 0 72 0;
#X connect 72 0 74 0;
#X connect 72 0 2 0;
#X connect 72 0 7 0;
#X connect 73 0 72 0;
#X connect 74 0 73 0;
#X connect 76 0 77 0;
#X connect 77 0 79 0;
#X connect 77 0 2 0;
#X connect 77 0 7 0;
#X connect 78 0 77 0;
#X connect 79 0 78 0;
#X connect 81 0 82 0;
#X connect 82 0 84 0;
#X connect 82 0 2 0;
#X connect 82 0 7 0;
#X connect 83 0 82 0;
#X connect 84 0 83 0;
#X coords 0 -1 1 1 356 212 2 217 192;
#X gopspill 1;
