#N canvas 512 73 471 401 10;
#X obj 98 45 inlet;
#X obj 239 107 ggee/image @pd_extra/K12/objects/logic_compare.png 1
0 25 25 empty empty empty 110 140 1 0 10 #000000 0 -8 55 70 0 1 1;
#X obj 152 46 preset_node k12;
#X obj 60 349 outlet;
#X obj 228 132 hradio 15 1 0 3 \$0-s-null \$0-r-null empty 0 -8 0 10
#fcfcfc #000000 #000000 0;
#X obj 60 45 inlet;
#X obj 60 107 pack 0 0;
#X obj 98 70 t b f;
#X obj 224 108 cnv 13 14 13 empty \$0-compare = 20 12 0 20 #fcfcfc
#404040 0;
#X obj 60 193 gate 3 1;
#X obj 60 171 + 1;
#X obj 60 225 unpack 0 0;
#X obj 60 253 ==;
#X obj 130 224 unpack 0 0;
#X obj 200 224 unpack 0 0;
#X obj 130 252 >;
#X obj 200 252 <;
#X obj 272 221 select 0 1 2;
#X msg 272 243 =;
#X msg 301 243 >;
#X msg 330 243 <;
#X obj 272 265 tosymbol;
#X obj 272 310 s \$0-compare;
#X msg 272 287 label \$1;
#X obj 269 151 tgl 13 1 \$0-s-null \$0-r-null empty 17 7 0 10 #fcfcfc
#000000 #000000 0 1;
#X text 220 147 rolling:;
#X obj 60 294 gate 2 1;
#X obj 269 182 + 1;
#X obj 305 120 preset_node k12;
#X obj 60 315 change -1;
#X connect 0 0 7 0;
#X connect 2 0 4 0;
#X connect 4 0 10 0;
#X connect 4 0 17 0;
#X connect 5 0 6 0;
#X connect 6 0 9 1;
#X connect 7 0 6 0;
#X connect 7 1 6 1;
#X connect 9 0 11 0;
#X connect 9 1 13 0;
#X connect 9 2 14 0;
#X connect 10 0 9 0;
#X connect 11 0 12 0;
#X connect 11 1 12 1;
#X connect 12 0 26 1;
#X connect 13 0 15 0;
#X connect 13 1 15 1;
#X connect 14 0 16 0;
#X connect 14 1 16 1;
#X connect 15 0 26 1;
#X connect 16 0 26 1;
#X connect 17 0 18 0;
#X connect 17 1 19 0;
#X connect 17 2 20 0;
#X connect 18 0 21 0;
#X connect 19 0 21 0;
#X connect 20 0 21 0;
#X connect 21 0 23 0;
#X connect 23 0 22 0;
#X connect 24 0 27 0;
#X connect 24 0 28 0;
#X connect 26 0 29 0;
#X connect 26 1 3 0;
#X connect 27 0 26 0;
#X connect 28 0 24 0;
#X connect 29 0 3 0;
#X coords 0 -1 1 1 90 90 2 206 87;
#X gopspill 1;
