#N canvas 152 87 866 456 10;
#X obj 579 81 ggee/image @pd_extra/K12/objects/logic_mapper.png 1 0
25 25 empty empty empty 110 140 1 0 10 #000000 0 -8 55 70 0 1 1;
#X obj 291 425 outlet;
#X obj 337 425 outlet;
#X obj 55 100 inlet;
#X obj 265 323 line;
#X msg 265 301 \$1 100;
#X obj 405 424 expr abs($f1);
#X obj 492 424 expr abs($f1);
#X obj 10 323 line;
#X msg 10 301 \$1 100;
#X obj 508 323 line;
#X msg 508 301 \$1 100;
#X obj 313 323 line;
#X msg 313 301 \$1 100;
#X obj 811 322 line;
#X msg 811 301 \$1 100;
#X obj 556 323 line;
#X msg 556 301 \$1 100;
#X obj 551 89 vsl 22 38 0 1 0 0 \$0-sld1-nullout \$0-sld1-nullin empty
0 -9 0 10 #fcfcfc #000000 #000000 0 1 0;
#X obj 584 91 vradio 13 1 0 4 \$0-vradio-nullout \$0-vradio-nullin
empty 0 -8 0 10 #fcfcfc #000000 #000000 0;
#X obj 610 89 vsl 22 38 0 1 0 0 \$0-sld2-nullout \$0-sld2-nullin empty
0 -9 0 10 #fcfcfc #000000 #000000 0 1 0;
#X obj 313 266 expr if(abs($f1) <= 1 \, \\$f1 \, \\$f1) \; if(abs($f1)
<= 1 \, \\$f1/2 \, \\$f1/2);
#X obj 556 266 expr if(abs($f1) <= 1 \, \\$f1 \, \\$f1) \; if(abs($f1)
<= 1 \, pow($f1 \, 6) \, pow($f1 \, 6));
#X obj 10 266 expr if(abs($f1) <= 1 \, abs($f1) \, abs($f1)) \; if(abs($f1)
<= 1 \, 1-abs($f1) \, 1-abs($f1));
#X obj 492 23 preset_node k12;
#X obj 10 205 gate 3 0;
#X connect 3 0 25 1;
#X connect 4 0 7 0;
#X connect 4 0 2 0;
#X connect 5 0 4 0;
#X connect 6 0 18 0;
#X connect 7 0 20 0;
#X connect 8 0 6 0;
#X connect 8 0 1 0;
#X connect 9 0 8 0;
#X connect 10 0 7 0;
#X connect 10 0 2 0;
#X connect 11 0 10 0;
#X connect 12 0 6 0;
#X connect 12 0 1 0;
#X connect 13 0 12 0;
#X connect 14 0 2 0;
#X connect 14 0 7 0;
#X connect 15 0 14 0;
#X connect 16 0 1 0;
#X connect 16 0 6 0;
#X connect 17 0 16 0;
#X connect 19 0 24 0;
#X connect 19 0 25 0;
#X connect 21 0 13 0;
#X connect 21 1 11 0;
#X connect 22 0 17 0;
#X connect 22 1 15 0;
#X connect 23 0 9 0;
#X connect 23 1 5 0;
#X connect 24 0 19 0;
#X connect 25 0 23 0;
#X connect 25 1 21 0;
#X connect 25 2 22 0;
#X coords 0 -1 1 1 90 90 2 546 61;
