#N canvas 405 82 539 331 10;
#X obj 228 206 ggee/image @pd_extra/K12/objects/logic_hit6.png 1 0
25 25 empty empty empty 110 140 1 0 10 #000000 0 -8 55 70 0 1 1;
#X obj 228 206 ggee/image @pd_extra/K12/objects/logic_hit5.png 1 0
25 25 empty empty empty 110 140 1 0 10 #000000 0 -8 55 70 0 1 1;
#X obj 228 206 ggee/image @pd_extra/K12/objects/logic_hit4.png 1 0
25 25 empty empty empty 110 140 1 0 10 #000000 0 -8 55 70 0 1 1;
#X obj 228 206 ggee/image @pd_extra/K12/objects/logic_hit3.png 1 0
25 25 empty empty empty 110 140 1 0 10 #000000 0 -8 55 70 0 1 1;
#X obj 228 206 ggee/image @pd_extra/K12/objects/logic_hit2.png 1 0
25 25 empty empty empty 110 140 1 0 10 #000000 0 -8 55 70 0 1 1;
#X obj 13 9 inlet;
#X obj 228 206 ggee/image @pd_extra/K12/objects/logic_hit1.png 1 0
25 25 empty empty empty 110 140 1 0 10 #000000 0 -8 55 70 0 1 1;
#X obj 149 88 select 0 1;
#X obj 177 114 delay 100;
#X obj 13 303 outlet;
#N canvas 64 174 465 442 delays 0;
#X obj 51 406 outlet;
#X obj 51 16 inlet;
#X obj 339 16 inlet;
#X obj 339 74 delay 15;
#X obj 339 121 delay 15;
#X obj 339 174 delay 15;
#X obj 339 228 delay 15;
#X obj 339 279 delay 15;
#X obj 339 334 delay 15;
#X msg 60 38 stop;
#X msg 51 118 visible 0;
#X obj 101 406 outlet;
#X obj 151 406 outlet;
#X obj 201 406 outlet;
#X obj 251 406 outlet;
#X msg 51 168 visible 1;
#X msg 51 216 visible 1;
#X msg 51 270 visible 1;
#X msg 51 322 visible 1;
#X msg 51 368 visible 1;
#X connect 1 0 10 0;
#X connect 1 0 9 0;
#X connect 2 0 3 0;
#X connect 3 0 10 0;
#X connect 3 0 4 0;
#X connect 4 0 15 0;
#X connect 4 0 5 0;
#X connect 5 0 16 0;
#X connect 5 0 6 0;
#X connect 6 0 17 0;
#X connect 6 0 7 0;
#X connect 7 0 18 0;
#X connect 7 0 8 0;
#X connect 8 0 19 0;
#X connect 9 0 3 0;
#X connect 9 0 4 0;
#X connect 9 0 5 0;
#X connect 9 0 6 0;
#X connect 9 0 7 0;
#X connect 9 0 8 0;
#X connect 10 0 0 0;
#X connect 10 0 11 0;
#X connect 10 0 12 0;
#X connect 10 0 13 0;
#X connect 10 0 14 0;
#X connect 15 0 14 0;
#X connect 16 0 13 0;
#X connect 17 0 12 0;
#X connect 18 0 11 0;
#X connect 19 0 0 0;
#X restore 126 138 pd delays;
#X obj 197 217 nbx 4 14 0 1e+37 0 1 \$0-s-null \$0-r-null empty 0 -8
0 10 #fcfcfc #000000 #000000 0.25 256 3 0;
#X obj 197 239 nbx 4 14 0 1e+37 0 1 \$0-s-null \$0-r-null empty 0 -8
0 10 #fcfcfc #000000 #000000 0.1 256 3 0;
#X obj 291 186 preset_node k12;
#X obj 291 208 preset_node k12;
#X obj 13 35 t f f;
#X obj 13 69 -;
#X obj 64 144 sel 1;
#X msg 64 166 1;
#X obj 13 144 sel 1;
#X msg 13 166 0;
#X obj 13 220 change;
#X text 204 206 up;
#X text 204 228 down;
#X obj 197 280 * -1;
#X obj 64 108 > 0.5;
#X obj 13 108 < -0.1;
#X connect 5 0 15 0;
#X connect 7 1 8 0;
#X connect 7 1 10 0;
#X connect 8 0 10 1;
#X connect 10 0 6 0;
#X connect 10 1 4 0;
#X connect 10 2 3 0;
#X connect 10 3 2 0;
#X connect 10 4 1 0;
#X connect 11 0 13 0;
#X connect 11 0 25 1;
#X connect 12 0 14 0;
#X connect 12 0 24 0;
#X connect 13 0 11 0;
#X connect 14 0 12 0;
#X connect 15 0 16 1;
#X connect 15 1 16 0;
#X connect 16 0 25 0;
#X connect 16 0 26 0;
#X connect 17 0 18 0;
#X connect 18 0 21 0;
#X connect 19 0 20 0;
#X connect 20 0 21 0;
#X connect 21 0 9 0;
#X connect 21 0 7 0;
#X connect 24 0 26 1;
#X connect 25 0 17 0;
#X connect 26 0 19 0;
#X coords 0 -1 1 1 90 90 2 195 186;
#X gopspill 1;
