#N canvas 254 64 502 517 10;
#X obj 8 134 cnv 15 484 186 empty empty empty 20 12 0 14 #e0e0e0 #404040
0;
#X obj 121 -36 preset_hub k12 %hidden% %node% 2 6 2 %node% 2 6 28 %node%
2 7 6 %node% 2 8 6 %node% 2 9 6;
#X obj 0 -10 cnv 3 501 3 empty empty empty 5 14 0 20 #fc8000 #b8b8b8
0;
#X obj 0 -38 cnv 15 501 28 empty empty Logic/Compare 5 14 0 20 #880024
#fcfcfc 0;
#X obj 447 -30 ggee/image @pd_extra/K12/icons/l2ork.png 0 0 48 50 empty
empty empty 48 50 1 0 10 #000000 0 -8 24 25 0 1 1;
#N canvas 529 184 450 300 META 0;
#X text 13 6 DESCRIPTION This compares the left inlet to the right
inlet and returns 1 if true and 0 if false. Select from = \, < \, and
>;
#X text 12 53 INLET_0 Input any number here;
#X text 13 82 INLET_1 Input any number here. This gets compared to
the left number with the chosen operation.;
#X text 12 114 OUTLET_0 This outputs 1 if the expression is true \,
and 0 if the expression is false.;
#X restore 447 446 pd META;
#X obj 14 140 K12/logic_compare;
#X obj 14 22 K12/math_number;
#X obj 128 22 K12/math_number;
#X obj 14 347 K12/math_number;
#X text 115 138 The Logic Compare object allows you to compare two
numbers. The expression is in the following form:;
#X text 182 168 [left inlet][operator][right inlet];
#X text 116 184 You can choose from three operators (= \, > \, <) by
selecting one of the boxes. The result is 1 if true \, and 0 if false.
The result is sent out of the outlet.;
#X text 115 233 Toggling rolling status enables continuous output of
the same value (1 or a 0) from the object \, while disabling it (default
behavior) will make the object output a value only when it changes
(e.g. several zeros in a row will not make any output if the last output
was 0 until the value changes).;
#X connect 6 0 9 0;
#X connect 7 0 6 0;
#X connect 8 0 6 1;
