#N canvas 465 218 345 470 10;
#X obj 155 102 ggee/image @pd_extra/K12/objects/logic_counter.png 1
0 25 25 empty empty empty 110 140 1 0 10 #000000 0 -8 55 70 0 1 1;
#X obj 132 114 nbx 5 19 -1e+37 1e+37 0 1 empty empty empty 0 -8 0 16
#fcfcfc #000000 #000000 1 256 1 0 1 0;
#X obj 68 43 preset_node k12;
#X obj 132 136 nbx 5 19 -1e+37 1e+37 0 1 empty empty empty 0 -8 0 16
#fcfcfc #000000 #000000 8 256 1 0 1 0;
#X text 125 98 Start;
#X obj 11 12 inlet;
#X obj 11 43 sel 1;
#X msg 181 326 min \$1;
#X msg 232 326 max \$1;
#X text 188 154 End;
#X obj 21 244 >;
#X obj 181 279 gate 2;
#X obj 181 255 + 1;
#X obj 232 279 gate 2;
#X msg 21 339 up;
#X obj 21 306 sel 0 1;
#X msg 52 339 down;
#X obj 11 446 outlet;
#X obj 68 12 preset_node k12;
#X obj 11 420 counter 1 10;
#X obj 54 394 loadbang;
#X obj 135 297 change;
#X obj 135 318 t b;
#X obj 21 265 t f f f;
#X obj 90 339 gate 2 0;
#X obj 20 185 t b f f 1;
#X obj 89 185 t f b f 2;
#X connect 1 0 2 0;
#X connect 1 0 25 0;
#X connect 2 0 1 0;
#X connect 3 0 18 0;
#X connect 3 0 26 0;
#X connect 5 0 6 0;
#X connect 6 0 19 0;
#X connect 7 0 19 0;
#X connect 8 0 19 0;
#X connect 10 0 23 0;
#X connect 11 0 7 0;
#X connect 11 1 8 0;
#X connect 12 0 11 0;
#X connect 12 0 13 0;
#X connect 13 0 8 0;
#X connect 13 1 7 0;
#X connect 14 0 19 0;
#X connect 15 0 14 0;
#X connect 15 1 16 0;
#X connect 16 0 19 0;
#X connect 18 0 3 0;
#X connect 19 0 17 0;
#X connect 20 0 19 2;
#X connect 21 0 22 0;
#X connect 22 0 24 1;
#X connect 23 0 15 0;
#X connect 23 1 21 0;
#X connect 23 2 12 0;
#X connect 24 0 3 0;
#X connect 24 1 1 0;
#X connect 25 0 19 2;
#X connect 25 1 11 1;
#X connect 25 2 10 0;
#X connect 25 3 24 0;
#X connect 26 0 13 1;
#X connect 26 1 10 0;
#X connect 26 2 10 1;
#X connect 26 3 24 0;
#X coords 0 -1 1 1 89 89 2 123 83;
#X gopspill 1;
