#N canvas 512 59 424 539 10;
#X obj 149 146 ggee/image @pd_extra/K12/objects/math_scale.png 1 0
25 25 empty empty empty 110 140 1 0 10 #000000 0 -8 55 70 0 1 1;
#X obj 8 85 inlet;
#X obj 118 156 nbx 4 14 -1e+37 1e+37 0 1 \$0-s-null \$0-r-null empty
0 -8 0 11 #fcfcfc #000000 #000000 0 256 3 0 1 0;
#X obj 62 16 preset_node k12;
#X obj 47 533 outlet;
#X obj 63 39 preset_node k12;
#X obj 8 260 maxlib/scale 0 10000 0 10000;
#X obj 157 156 nbx 4 14 -1e+37 1e+37 0 1 \$0-s-null \$0-r-null empty
0 -8 0 11 #fcfcfc #000000 #000000 100 256 3 0 1 0;
#X obj 118 183 nbx 4 14 -1e+37 1e+37 0 1 \$0-s-null \$0-r-null empty
0 -8 0 11 #fcfcfc #000000 #000000 0 256 3 0 1 0;
#X obj 157 183 nbx 4 14 -1e+37 1e+37 0 1 \$0-s-null \$0-r-null empty
0 -8 0 11 #fcfcfc #000000 #000000 1 256 3 0 1 0;
#X obj 63 62 preset_node k12;
#X obj 64 85 preset_node k12;
#X obj 132 319 t b f;
#X obj 8 438 moses 0;
#X text 156 153 -;
#X text 156 180 -;
#X text 130 167 scale to;
#X obj 55 371 + 1;
#X obj 55 393 gate 2 1;
#X obj 113 393 gate 2 1;
#X obj 47 480 moses 0;
#X msg 59 438 set \$1;
#X msg 86 503 1;
#X msg 147 438 set \$1;
#X obj 55 349 >;
#X msg 8 480 0;
#X obj 244 377 change;
#X obj 244 398 t b;
#X obj 199 419 gate 2 0;
#X obj 113 295 t f f 2;
#X obj 62 295 t f f 1;
#X connect 1 0 6 0;
#X connect 2 0 3 0;
#X connect 2 0 6 1;
#X connect 3 0 2 0;
#X connect 5 0 7 0;
#X connect 6 0 13 0;
#X connect 7 0 6 2;
#X connect 8 0 10 0;
#X connect 8 0 6 3;
#X connect 8 0 30 0;
#X connect 9 0 11 0;
#X connect 9 0 6 4;
#X connect 9 0 29 0;
#X connect 10 0 8 0;
#X connect 11 0 9 0;
#X connect 12 0 24 0;
#X connect 12 1 24 1;
#X connect 13 0 25 0;
#X connect 13 1 20 0;
#X connect 17 0 18 0;
#X connect 17 0 19 0;
#X connect 18 0 13 1;
#X connect 18 0 21 0;
#X connect 18 1 23 0;
#X connect 18 1 20 1;
#X connect 19 0 20 1;
#X connect 19 0 23 0;
#X connect 19 1 13 1;
#X connect 19 1 21 0;
#X connect 20 0 4 0;
#X connect 20 1 22 0;
#X connect 21 0 25 0;
#X connect 22 0 4 0;
#X connect 23 0 22 0;
#X connect 24 0 17 0;
#X connect 24 0 26 0;
#X connect 25 0 4 0;
#X connect 26 0 27 0;
#X connect 27 0 28 1;
#X connect 28 0 9 0;
#X connect 28 1 8 0;
#X connect 29 0 19 1;
#X connect 29 1 12 0;
#X connect 29 2 28 0;
#X connect 30 0 18 1;
#X connect 30 1 24 0;
#X connect 30 2 28 0;
#X coords 0 -1 1 1 89 89 2 117 127;
#X gopspill 1;
