#N canvas 341 73 502 560 10;
#X obj 241 39 cnv 15 243 107 empty empty empty 20 12 0 14 #e0e0e0 #404040
0;
#X obj 17 319 cnv 15 469 192 empty empty empty 20 12 0 14 #e0e0e0 #404040
0;
#X obj 117 -29 preset_hub k12 %hidden% %node% 2 10 6 %preset% 0 0 %node%
2 9 6 %node% 2 7 2 %preset% 0 3000 %node% 2 7 13 %preset% 0 localhost
%node% 2 8 2 %preset% 0 3000 %node% 2 11 2 %preset% 0 sensor1 %node%
2 12 2 %preset% 0 sensor1 %node% 2 13 7;
#X obj -4 -4 cnv 3 501 3 empty empty empty 5 14 0 20 #fc8000 #b8b8b8
0;
#X obj -4 -33 cnv 15 501 28 empty empty Math/NetReceive 5 14 0 20 #880024
#fcfcfc 0;
#X obj 442 -24 ggee/image @pd_extra/K12/icons/l2ork.png 0 0 48 50 empty
empty empty 48 50 1 0 10 #000000 0 -8 24 25 0 1 1;
#N canvas 652 262 450 370 META 0;
#X text 13 5 DESCRIPTION This receives tagged incoming data information
from the network on the specified port;
#X text 13 44 INLET_0 The port number to listen on for incoming network
data;
#X text 13 83 OUTLET_0 Outputs all tagged data the object receives
on the specified port;
#X restore 443 709 pd META;
#X obj 26 214 K12/math_netsend 0;
#X obj 26 328 K12/math_netreceive 0;
#X obj 26 25 K12/math_number 0;
#X obj 26 646 K12/math_number 0;
#X obj 26 105 K12/math_tag 0;
#X obj 26 532 K12/math_routebytag 0;
#X obj 386 48 K12/preset 0;
#X text 121 325 The Math NetReceive object receives data information
over the network from another computer. In this example \, the NetReceive
object is listening on port 3000 for incoming information. It sends
any information it receives on this port to the RouteByTag object.
The RouteByTag object listens specifically for information tagged with
the tag 'kerplop' in this example \, and sends it to the bottom number
box. Math NetReceive's partner object is the Math NetSend object. Change
the top number box to see a NetSend object send information to this
NetReceive object.Look at the help files for the NetSend \, Tag \,
and RouteByTag objects for more information on how those objects work.
;
#X text 247 105 Recall leftmost presetto start the example.;
#X connect 8 0 12 0;
#X connect 9 0 11 0;
#X connect 11 0 7 0;
#X connect 12 0 10 0;
