#N canvas 1119 496 354 367 10;
#X obj 72 41 inlet;
#X obj 149 146 ggee/image @pd_extra/K12/objects/math_number.png 1 0
25 25 empty empty empty 110 99 1 0 10 #000000 0 -8 55 50 0 1 1;
#X msg 170 252 \$1 10;
#X obj 170 275 line~;
#X obj 170 326 outlet~;
#X obj 126 147 nbx 5 19 -1e+37 1e+37 0 0 \$0-s-null \$0-r-null empty
0 -8 0 16 #fcfcfc #000000 #000000 0 256 1 0 1 0;
#X obj 11 100 preset_node k12;
#X obj 121 326 outlet;
#X obj 110 41 inlet;
#X obj 110 85 t b;
#X obj 110 63 moses 1;
#X connect 0 0 5 0;
#X connect 2 0 3 0;
#X connect 3 0 4 0;
#X connect 5 0 6 0;
#X connect 5 0 7 0;
#X connect 5 0 2 0;
#X connect 6 0 5 0;
#X connect 8 0 10 0;
#X connect 9 0 5 0;
#X connect 10 1 9 0;
#X coords 0 -1 1 1 88 59 2 117 128;
#X gopspill 1;
