#N canvas 127 73 502 457 10;
#X obj 244 -26 preset_hub k12 %hidden% %node% 2 8 7 %node% 2 9 7 %node%
2 10 7;
#X obj 13 148 cnv 15 466 99 empty empty empty 20 12 0 14 #e0e0e0 #404040
0;
#X obj 18 152 K12/math_multiply;
#N canvas 1097 412 450 514 META 0;
#X text 11 88 OUTLET_0 This outputs the result of the multiplication
;
#X text 12 62 INLET_1 Connect a non-signal number here. This will multiplied
to the left inlet number;
#X text 13 36 INLET_0 Connect a non-singal number here;
#X text 13 7 DESCRIPTION This object multiplies the two numbers connected
to the left and right inlets;
#X restore 447 400 pd META;
#X obj -1 -4 cnv 3 501 3 empty empty empty 5 14 0 20 #fc8000 #b8b8b8
0;
#X obj -1 -32 cnv 15 501 28 empty empty Math/Multiply 5 14 0 20 #880024
#fcfcfc 0;
#X obj 447 -23 ggee/image @pd_extra/K12/icons/l2ork.png 0 0 48 50 empty
empty empty 48 50 1 0 10 #000000 0 -8 24 25 0 1 1;
#X text 119 164 Math Multiply does simple multiplication. The non-signal
number connected to the left inlet will be multiplied by the non-signal
number connected to the right inlet. The result of the multiplication
will be sent out of the outlet., f 57;
#X obj 18 23 K12/math_number;
#X obj 125 23 K12/math_number;
#X obj 18 275 K12/math_number;
#X connect 2 0 10 0;
#X connect 8 0 2 0;
#X connect 9 0 2 1;
