#N canvas 264 111 502 457 10;
#X obj 226 -26 preset_hub k12 %hidden% %node% 2 6 6 %node% 2 7 6 %node%
2 8 6;
#X obj 0 146 cnv 15 470 106 empty empty empty 20 12 0 14 #e0e0e0 #404040
0;
#N canvas 1233 437 450 514 META 0;
#X text 14 7 DESCRIPTION This object subtractions the number at the
right inlet from the number at the left inlet;
#X text 11 59 INLET_1 Connect the number to be subtracted.;
#X text 13 36 INLET_0 Connect the number to be subtracted from;
#X text 14 97 OUTLET_0 This outputs the result of the subtraction;
#X restore 436 402 pd META;
#X obj -14 -4 cnv 3 501 3 empty empty empty 5 14 0 20 #fc8000 #b8b8b8
0;
#X obj -14 -32 cnv 15 501 28 empty empty Math/Subtract 5 14 0 20 #880024
#fcfcfc 0;
#X obj 432 -23 ggee/image @pd_extra/K12/icons/l2ork.png 0 0 48 50 empty
empty empty 48 50 1 0 10 #000000 0 -8 24 25 0 1 1;
#X obj 8 23 K12/math_number;
#X obj 159 24 K12/math_number;
#X obj 8 275 K12/math_number;
#X obj 8 153 K12/math_subtract;
#X text 108 164 Math Subtract does simple subtraction. The non-signal
number connected to the right inlet will subtracted from the non-signal
number connected to the left inlet. The result of the subtraction will
be sent out of the outlet., f 56;
#X connect 6 0 9 0;
#X connect 7 0 9 1;
#X connect 9 0 8 0;
