#N canvas 418 162 502 457 10;
#X obj 256 -25 preset_hub k12 %hidden% %node% 2 6 7 %node% 2 7 7 %node%
2 8 7;
#X obj 11 149 cnv 15 466 99 empty empty empty 20 12 0 14 #e0e0e0 #404040
0;
#N canvas 916 254 450 514 META 0;
#X text 14 36 INLET_0 Connect a non-singal number here;
#X text 14 7 DESCRIPTION This object divides the two numbers connected
to the left and right inlets;
#X text 14 62 INLET_1 Connect a non-signal number here. The left inlet
number will be divided by this one;
#X text 14 97 OUTLET_0 This outputs the result of the division;
#X restore 446 401 pd META;
#X obj -2 -4 cnv 3 501 3 empty empty empty 5 14 0 20 #fc8000 #b8b8b8
0;
#X obj -2 -32 cnv 15 501 28 empty empty Math/Divide 5 14 0 20 #880024
#fcfcfc 0;
#X obj 441 -21 ggee/image @pd_extra/K12/icons/l2ork.png 0 0 48 50 empty
empty empty 48 50 1 0 10 #000000 0 -8 24 25 0 1 1;
#X obj 18 23 K12/math_number;
#X obj 125 23 K12/math_number;
#X obj 18 275 K12/math_number;
#X obj 18 153 K12/math_divide;
#X text 117 164 Math Divide does simple division. The non-signal number
connected to the left inlet will be divided by the non-signal number
connected to the right inlet. The result of the division will be sent
out of the outlet.;
#X connect 6 0 9 0;
#X connect 7 0 9 1;
#X connect 9 0 8 0;
