#N canvas 512 64 389 487 10;
#X obj 150 106 ggee/image @pd_extra/K12/objects/math_random.png 1 0
25 25 empty empty empty 110 140 1 0 10 #000000 0 -8 55 70 0 1 1;
#X obj 121 141 nbx 5 19 -1e+37 1e+37 0 1 \$0-s-null \$0-r-null empty
0 -8 0 16 #fcfcfc #000000 #000000 127 256 1 0;
#X obj 8 45 inlet;
#X obj 121 116 nbx 5 19 -1e+37 1e+37 0 1 \$0-s-null \$0-r-null empty
0 -8 0 16 #fcfcfc #000000 #000000 0 256 1 0;
#X obj 62 22 preset_node k12;
#X obj 8 451 outlet;
#X text 120 100 low;
#X text 175 157 high;
#X obj 63 45 preset_node k12;
#X obj 8 67 sel 1;
#X obj 8 425 int;
#X obj 8 400 maxlib/scale 0 10000 0 10000;
#X obj 8 149 random 10000;
#X obj 179 342 + 1;
#X obj 88 321 moses 0;
#X obj 140 321 moses 0;
#X obj 88 342 - 1;
#X obj 200 241 t f f;
#X obj 240 294 sel 1;
#X obj 240 315 f;
#X obj 240 273 >;
#X obj 290 241 t f f;
#X obj 330 294 sel 1;
#X obj 330 315 f;
#X obj 330 273 <;
#X connect 1 0 8 0;
#X connect 1 0 15 0;
#X connect 1 0 21 0;
#X connect 1 0 20 1;
#X connect 2 0 9 0;
#X connect 3 0 4 0;
#X connect 3 0 14 0;
#X connect 3 0 17 0;
#X connect 3 0 24 1;
#X connect 4 0 3 0;
#X connect 8 0 1 0;
#X connect 9 0 12 0;
#X connect 10 0 5 0;
#X connect 11 0 10 0;
#X connect 12 0 11 0;
#X connect 13 0 11 4;
#X connect 14 0 16 0;
#X connect 14 1 11 3;
#X connect 15 0 11 4;
#X connect 15 1 13 0;
#X connect 16 0 11 3;
#X connect 17 0 20 0;
#X connect 17 1 19 1;
#X connect 18 0 19 0;
#X connect 19 0 1 0;
#X connect 20 0 18 0;
#X connect 21 0 24 0;
#X connect 21 1 23 1;
#X connect 22 0 23 0;
#X connect 23 0 3 0;
#X connect 24 0 22 0;
#X coords 0 -1 1 1 90 90 2 117 86;
