#N canvas 349 64 503 456 10;
#X obj 251 -24 preset_hub k12 %hidden% %node% 2 7 6 %node% 2 8 6 %node%
2 9 6;
#X obj 14 162 cnv 15 479 105 empty empty empty 20 12 0 14 #e0e0e0 #404040
0;
#X obj 21 169 K12/math_add;
#N canvas 916 254 450 514 META 0;
#X text 14 67 INLET_1 Connect any non-signal numbers here. This will
set the amount to be added to the left inlet.;
#X text 14 41 INLET_0 Connect any non-signal numbers here;
#X text 14 106 OUTLET_0 This outputs the sum of the two numbers at
the inlets;
#X text 14 15 DESCRIPTION This object adds two numbers together.;
#X restore 447 390 pd META;
#X obj 0 -3 cnv 3 501 3 empty empty empty 5 14 0 20 #fc8000 #b8b8b8
0;
#X obj 0 -31 cnv 15 501 28 empty empty Math/Add 5 14 0 20 #880024 #fcfcfc
0;
#X obj 447 -25 ggee/image @pd_extra/K12/icons/l2ork.png 0 0 48 50 empty
empty empty 48 50 1 0 10 #000000 0 -8 24 25 0 1 1;
#X obj 21 33 K12/math_number;
#X obj 127 34 K12/math_number;
#X obj 21 297 K12/math_number;
#X text 119 178 The Math Add object works with non-sound data only.
Send the number you want to be added into either inlet. It will be
added to whatever number you connect to the other input and the result
will be sent out of the outlet. The default value for both inlets is
0;
#X connect 2 0 9 0;
#X connect 7 0 2 0;
#X connect 8 0 2 1;
