#N canvas 540 64 416 255.031 10;
#X obj 42 31 inlet;
#X obj 42 196 outlet;
#X obj 240 140 ggee/image @pd_extra/K12/objects/math_average.png 1
0 25 25 empty empty empty 110 140 1 0 10 #000000 0 -8 55 70 0 1 1;
#X obj 100 134 nbx 5 19 1 1e+37 0 1 \$0-s-null \$0-r-null empty 0 -8
0 16 #fcfcfc #000000 #000000 5 256 1 0 1 0;
#X obj 42 172 average;
#X text 119 117 length;
#X obj 204 77 preset_node k12;
#X connect 0 0 4 0;
#X connect 3 0 4 1;
#X connect 3 0 6 0;
#X connect 4 0 1 0;
#X connect 6 0 3 0;
#X coords 0 -1 1 1 89 89 2 208 121;
#X gopspill 1;
