#N canvas 571 71 344 443 10;
#X obj 150 147 ggee/image @pd_extra/K12/objects/math_netsend.png 1
0 25 25 empty empty empty 110 140 1 0 10 #000000 0 -8 55 70 0 1 1;
#X obj 34 128 inlet;
#X obj 57 62 preset_node k12;
#X obj 34 395 outlet;
#X obj 122 180 nbx 5 19 -1e+37 1e+37 0 0 \$0-s-null \$0-r-null empty
0 -8 0 16 #fcfcfc #000000 #000000 3000 256 1 0;
#X text 178 196 port;
#X msg 52 338 disconnect \, connect \$1 \$2;
#X symbolatom 122 161 13 0 0 0 - - - 0 0, f 13;
#X text 119 145 address;
#X obj 52 316 pack s f;
#X msg 34 150 send \$1 \$2;
#X obj 215 110 loadbang;
#X msg 242 155 set localhost;
#X obj 57 84 preset_node k12;
#X obj 163 227 t 1 b f 0;
#X obj 67 281 gate 1 1;
#X obj 52 227 t 1 s b 0;
#X obj 168 281 gate 1 1;
#X obj 215 132 t b b;
#X msg 215 177 3000;
#X obj 34 373 netsend 3000 1;
#X connect 1 0 10 0;
#X connect 2 0 4 0;
#X connect 4 0 14 0;
#X connect 6 0 20 0;
#X connect 7 0 16 0;
#X connect 9 0 6 0;
#X connect 10 0 20 0;
#X connect 11 0 18 0;
#X connect 12 0 7 0;
#X connect 13 0 7 0;
#X connect 14 0 15 0;
#X connect 14 1 17 1;
#X connect 14 2 9 1;
#X connect 14 3 15 0;
#X connect 15 0 4 0;
#X connect 16 0 17 0;
#X connect 16 1 9 0;
#X connect 16 2 15 1;
#X connect 16 3 17 0;
#X connect 17 0 7 0;
#X connect 18 0 19 0;
#X connect 18 1 12 0;
#X connect 19 0 4 0;
#X connect 20 0 3 0;
#X coords 0 -1 1 1 90 90 2 117 127;
#X gopspill 1;
