#N canvas 547 64 352 183 10;
#X obj 22 11 inlet;
#X obj 63 11 inlet;
#X obj 22 151 outlet;
#X obj 158 63 ggee/image @pd_extra/K12/objects/math_multiply.png 1
0 25 25 empty empty empty 110 140 1 0 10 #000000 0 -8 55 70 0 1 1;
#X obj 63 36 t b f;
#X obj 22 67 *;
#X connect 0 0 5 0;
#X connect 1 0 4 0;
#X connect 4 0 5 0;
#X connect 4 1 5 1;
#X connect 5 0 2 0;
#X coords 0 -1 1 1 89 89 2 126 44;
#X gopspill 1;
