#N canvas 547 64 389 217.031 10;
#X obj 32 51 inlet;
#X obj 73 51 inlet;
#X obj 32 191 outlet;
#X obj 32 107 +;
#X obj 229 90 ggee/image @pd_extra/K12/objects/math_add.png 1 0 25
25 empty empty empty 110 140 1 0 10 #000000 0 -8 55 70 0 1 1;
#X obj 73 76 t b f;
#X connect 0 0 3 0;
#X connect 1 0 5 0;
#X connect 3 0 2 0;
#X connect 5 0 3 0;
#X connect 5 1 3 1;
#X coords 0 -1 1 1 89 89 2 197 71;
#X gopspill 1;
