#N canvas 540 58 413 218 10;
#X obj 42 51 inlet;
#X obj 83 51 inlet;
#X obj 42 191 outlet;
#X obj 129 132 ggee/image @pd_extra/K12/objects/math_subtract.png 1
0 25 25 empty empty empty 110 140 1 0 10 #000000 0 -8 55 70 0 1 1;
#X obj 83 76 t b f;
#X obj 104 153 nbx 5 14 -1e+37 1e+37 0 0 empty empty empty 0 -8 0 16
#fcfcfc #000000 #000000 0 256 3 0;
#X obj 42 107 -;
#X connect 0 0 6 0;
#X connect 1 0 4 0;
#X connect 4 0 6 0;
#X connect 4 1 6 1;
#X connect 5 0 2 0;
#X connect 6 0 5 0;
#X coords 0 -1 1 1 90 90 2 96 112;
#X gopspill 1;
