#N canvas 485 315 453 369 10;
#X obj 192 61 ggee/image @pd_extra/K12/objects/midi_synth.png 1 0 25
25 empty empty empty 110 140 1 0 10 #000000 0 -8 55 70 0 1 1;
#X obj 107 289 fluid~ /usr/share/sounds/sf2/FluidR3_GM.sf2;
#X obj 107 321 outlet~;
#X obj 362 321 outlet~;
#X obj 26 79 inlet;
#X symbolatom 188 192 30 0 0 0 - - - 0 0, f 30;
#X obj 253 164 preset_node k12;
#X obj 210 78 bng 15 250 50 0 empty empty empty 19 8 0 10 #fcfcfc #000000
#000000;
#X obj 188 164 openpanel;
#X msg 188 213 init \$1;
#X msg 26 154 prog \$1 \$2;
#X obj 26 133 route pgmout, f 14;
#X text 178 77 Open:;
#X connect 1 0 2 0;
#X connect 1 1 3 0;
#X connect 4 0 11 0;
#X connect 5 0 9 0;
#X connect 5 0 6 0;
#X connect 6 0 5 0;
#X connect 7 0 8 0;
#X connect 8 0 5 0;
#X connect 9 0 1 0;
#X connect 10 0 1 0;
#X connect 11 0 10 0;
#X connect 11 1 1 0;
#X coords 0 -1 1 1 90 90 2 159 41;
