#N canvas 648 82 502 652 10;
#X obj 34 134 cnv 15 447 102 empty empty empty 20 12 0 14 #e0e0e0 #404040
0;
#X obj 260 -236 preset_hub k12 %hidden% %node% 2 2 14 %preset% 0 100
%preset% 1 100 %preset% 2 72.093 %preset% 3 72.093 %node% 2 2 28 %preset%
0 1 %preset% 1 1 %node% 2 10 4 %preset% 0 1 %preset% 1 1 %node% 2 12
6 %preset% 0 2 %preset% 1 10 %node% 2 14 6 %preset% 0 48 %preset% 1
48 %node% 2 15 6 %preset% 0 127 %preset% 1 127 %node% 2 8 7 %node%
2 10 3 %preset% 0 1 %preset% 1 1 %node% 2 11 5 %preset% 0 1 %preset%
1 1 %node% 2 9 6;
#X obj 21 463 K12/output;
#N canvas 530 280 379 204 META 0;
#X text 7 5 DESCRIPTION MIDI instrument works exclusively with the
MIDI synth and allows configuring of the instrument on a specified
channel (MIDI synth supports channels 1-16);
#X text 7 91 OUTLET_0 Connect to MIDI synth to issue instrument change
command on a specified channel;
#X text 7 61 INLET_0 Set instrument number (1-128. default 1);
#X restore 448 537 pd META;
#X obj -1 -215 cnv 3 501 3 empty empty empty 5 14 0 20 #fc8000 #b8b8b8
0;
#X obj -1 -243 cnv 15 501 28 empty empty MIDI/Instrument 5 14 0 20
#880024 #fcfcfc 0;
#X obj 446 -237 ggee/image @pd_extra/K12/icons/l2ork.png 0 0 48 50
empty empty empty 48 50 1 0 10 #000000 0 -8 24 25 0 1 1;
#X obj 237 -182 cnv 15 250 99 empty empty empty 20 12 0 14 #e0e0e0
#404040 0;
#X obj 392 -177 K12/preset;
#X obj 20 335 K12/midi_synth;
#X obj 20 34 K12/midi_note;
#X obj 385 140 K12/midi_instrument;
#X obj 385 57 K12/math_number;
#X text 242 -131 Recall leftmost presetto start the example. Then
\, try the second., f 23;
#X obj 20 -161 K12/math_number;
#X obj 126 -161 K12/math_number;
#X text 43 141 MIDI instrument works exclusively with the MIDI synth
object. It allows for changing of the instrument on a specified channel.
The channel can be customized by changing channel value (1-16) on the
object \, while the instrument number (1-128) can be passed using object's
left inlet., f 55;
#X connect 9 0 2 0;
#X connect 9 1 2 0;
#X connect 10 0 9 0;
#X connect 11 0 9 0;
#X connect 12 0 11 0;
#X connect 14 0 10 0;
#X connect 15 0 10 1;
