#N canvas 414 55 365 410 10;
#X obj 183 60 ggee/image @pd_extra/K12/objects/midi_note.png 1 0 25
25 empty empty empty 110 140 1 0 10 #000000 0 -8 55 70 0 1 1;
#X obj 207 68 nbx 2 14 1 16 0 1 empty empty empty -7 -8 0 10 #fcfcfc
#000000 #000000 1 256 3 0;
#X obj 18 40 inlet;
#X obj 246 41 preset_node k12;
#X obj 247 67 preset_node k12;
#X text 160 67 Channel:;
#X obj 167 99 nbx 5 14 0 1e+37 0 1 empty empty empty -4 -8 0 10 #fcfcfc
#000000 #000000 250 256 1 0;
#X text 167 82 Duration:;
#X obj 18 353 outlet;
#X obj 18 172 t l l, f 18;
#X msg 18 151 \$2 \$1;
#X obj 123 310 list append 0;
#X obj 105 40 inlet;
#X obj 123 262 pipe f f 250;
#X obj 123 286 pack 0 0, f 12;
#X obj 18 193 list append 127;
#X obj 18 130 pack f f;
#X obj 123 238 gate 1 1;
#X obj 192 170 t f f;
#X obj 219 193 > 0;
#X connect 1 0 16 1;
#X connect 2 0 16 0;
#X connect 3 0 1 0;
#X connect 4 0 6 0;
#X connect 6 0 18 0;
#X connect 9 0 15 0;
#X connect 9 1 17 1;
#X connect 10 0 9 0;
#X connect 11 0 8 0;
#X connect 12 0 15 1;
#X connect 13 0 14 0;
#X connect 13 1 14 1;
#X connect 14 0 11 0;
#X connect 15 0 8 0;
#X connect 16 0 10 0;
#X connect 17 0 13 0;
#X connect 18 0 13 2;
#X connect 18 1 19 0;
#X connect 19 0 17 0;
#X coords 0 -1 1 1 90 90 2 150 40;
