#N canvas 319 300 343 250 10;
#X obj 223 71 ggee/image @pd_extra/K12/objects/midi_instrument.png
1 0 25 25 empty empty empty 110 140 1 0 10 #000000 0 -8 55 70 0 1 1
;
#X obj 50 51 inlet;
#X obj 50 206 outlet;
#X obj 219 98 nbx 2 14 1 16 0 1 empty empty Channel: -7 -8 0 10 #fcfcfc
#000000 #000000 1 256 3 0;
#X obj 50 164 pack f f;
#X obj 89 51 preset_node k12;
#X msg 50 185 pgmout \$2 \$1;
#X obj 50 72 - 1;
#X connect 1 0 7 0;
#X connect 3 0 4 1;
#X connect 3 0 5 0;
#X connect 4 0 6 0;
#X connect 5 0 3 0;
#X connect 6 0 2 0;
#X connect 7 0 4 0;
#X coords 0 -1 1 1 90 90 2 190 51;
