#N canvas 1032 286 609 484 10;
#X obj 176 175 ggee/image @pd_extra/K12/objects/audio_off.png 1 0 25
25 empty empty empty 110 140 1 0 10 #000000 0 -8 55 70 0 1 1;
#X obj 176 175 ggee/image @pd_extra/K12/objects/audio_on.png 1 0 25
25 empty empty empty 110 140 1 0 10 #000000 0 -8 55 70 0 0 1;
#X obj 6 26 inlet~;
#N canvas 316 207 286 259 dsp 0;
#X obj 178 43 route dsp;
#X msg 11 184 \; pd dsp \$1;
#X obj 178 131 float;
#X obj 178 22 receive pd;
#X obj 11 36 > 0;
#X obj 178 223 outlet;
#X obj 11 7 r pd-l2ork-k12_main_out;
#X obj 11 62 change -1;
#X connect 0 0 2 0;
#X connect 2 0 5 0;
#X connect 3 0 0 0;
#X connect 4 0 7 0;
#X connect 6 0 4 0;
#X connect 7 0 1 0;
#X connect 7 0 2 0;
#X restore 234 324 pd dsp logic;
#X obj 6 131 *~;
#X obj 6 97 z~ 64;
#X obj 53 97 limiter~;
#X msg 65 74 compress 98 88 0.5;
#X obj 6 389 svf~ 200;
#X obj 28 346 sig~ 200;
#X obj 51 367 sig~ 0.01;
#X obj 6 458 dac~;
#X obj 49 426 *~ 0.5;
#X obj 6 426 *~ 0.5;
#X obj 91 120 preset_node k12;
#X obj 193 192 vsl 34 44 0 100 0 0 pd-l2ork-k12_main_out null empty
0 -9 0 10 #fcfcfc #000000 #000000 0 1 0 1;
#N canvas 0 0 271 201 level 0;
#X obj 49 8 inlet~;
#X obj 48 140 *~;
#X obj 152 8 inlet;
#X obj 152 124 line~;
#X obj 48 163 outlet~;
#X obj 152 58 / 100;
#X msg 152 102 \$1 50;
#X obj 152 80 pow 2;
#X connect 0 0 1 0;
#X connect 1 0 4 0;
#X connect 2 0 5 0;
#X connect 3 0 1 1;
#X connect 5 0 7 0;
#X connect 6 0 3 0;
#X connect 7 0 6 0;
#X restore 6 50 pd level;
#X obj 65 50 loadbang;
#X obj 149 226 tgl 15 0 \$0-null-send \$0-null-receive empty 17 7 0
10 #fcfcfc #000000 #000000 0 1 1;
#X text 146 209 mode;
#X text 146 200 stereo;
#X obj 6 322 *~;
#X obj 111 367 *~;
#X obj 126 346 line~;
#X obj 21 155 loadbang;
#X obj 110 97 preset_node k12;
#X obj 22 301 line~;
#X msg 22 177 1;
#X msg 51 177 0;
#X msg 126 324 \$1 10;
#X msg 29 277 \$1 10;
#X obj 29 255 expr 1-$f1;
#X obj 287 74 sig~ 1;
#X obj 287 119 snapshot~;
#X obj 333 74 loadbang;
#X obj 287 141 change;
#X obj 287 163 s pd-l2ork-k12_main_out;
#X text 223 53 logic for detecting dsp status on startup;
#X obj 333 96 delay 10;
#X obj 239 224 change;
#X obj 239 202 r pd-l2ork-k12_main_out;
#X msg 193 251 set \$1;
#X obj 434 163 value glob_l2ork_stereo;
#X obj 149 251 change;
#X obj 434 100 t b f;
#X obj 434 121 s glob_l2ork_stereo_changed;
#X obj 434 141 r glob_l2ork_stereo_changed;
#X msg 234 349 visible \$1;
#X connect 2 0 16 0;
#X connect 3 0 47 0;
#X connect 4 0 21 0;
#X connect 4 0 22 0;
#X connect 5 0 4 0;
#X connect 6 0 4 1;
#X connect 7 0 6 0;
#X connect 8 0 13 0;
#X connect 8 1 12 0;
#X connect 12 0 11 0;
#X connect 13 0 11 1;
#X connect 14 0 15 0;
#X connect 15 0 16 1;
#X connect 15 0 41 0;
#X connect 17 0 7 0;
#X connect 18 0 25 0;
#X connect 18 0 29 0;
#X connect 18 0 31 0;
#X connect 18 0 43 0;
#X connect 22 0 13 0;
#X connect 22 0 12 0;
#X connect 23 0 22 1;
#X connect 24 0 27 0;
#X connect 24 0 28 0;
#X connect 25 0 18 0;
#X connect 26 0 21 1;
#X connect 27 0 26 0;
#X connect 28 0 23 0;
#X connect 29 0 23 0;
#X connect 30 0 26 0;
#X connect 31 0 30 0;
#X connect 32 0 33 0;
#X connect 33 0 35 0;
#X connect 34 0 38 0;
#X connect 35 0 36 0;
#X connect 38 0 33 0;
#X connect 38 0 42 0;
#X connect 39 0 15 0;
#X connect 40 0 39 0;
#X connect 41 0 39 0;
#X connect 42 0 18 0;
#X connect 43 0 44 0;
#X connect 44 0 45 0;
#X connect 44 1 42 0;
#X connect 46 0 42 0;
#X connect 47 0 1 0;
#X coords 0 -1 1 1 89 89 2 144 156;
#X gopspill 1;
