#N canvas 72 100 629 473 10;
#X obj 176 175 ggee/image @pd_extra/K12/objects/audio_off.png 1 0 25
25 empty empty empty 110 140 1 0 10 #000000 0 -8 55 70 0 1 1;
#X obj 176 175 ggee/image @pd_extra/K12/objects/audio_on.png 1 0 25
25 empty empty empty 110 140 1 0 10 #000000 0 -8 55 70 0 0 1;
#X obj 6 10 inlet~;
#N canvas 316 207 286 259 dsp 0;
#X obj 178 43 route dsp;
#X msg 11 184 \; pd dsp \$1;
#X obj 178 131 float;
#X obj 178 22 receive pd;
#X obj 11 36 > 0;
#X obj 178 223 outlet;
#X obj 11 7 r pd-l2ork-k12_main_out;
#X obj 11 62 change -1;
#X connect 0 0 2 0;
#X connect 2 0 5 0;
#X connect 3 0 0 0;
#X connect 4 0 7 0;
#X connect 6 0 4 0;
#X connect 7 0 1 0;
#X connect 7 0 2 0;
#X restore 234 308 pd dsp logic;
#X obj 6 115 *~;
#X obj 6 81 z~ 64;
#X obj 116 81 limiter~ 0 1;
#X msg 116 34 compress 98 88 0.5;
#X text 146 200 to;
#X text 146 210 right;
#X text 385 264 Updated version that supports stereo.;
#X obj 6 442 dac~;
#X obj 61 410 *~ 0.5;
#X obj 6 410 *~ 0.5;
#X obj 180 104 preset_node k12;
#X obj 194 191 vsl 34 44 0 100 0 0 pd-l2ork-k12_main_out null empty
0 -9 0 10 #fcfcfc #000000 #000000 0 1 0 1;
#N canvas 0 0 271 201 level 0;
#X obj 49 8 inlet~;
#X obj 48 140 *~;
#X obj 152 8 inlet;
#X obj 152 124 line~;
#X obj 48 163 outlet~;
#X obj 152 58 / 100;
#X msg 152 102 \$1 50;
#X obj 152 80 pow 2;
#X connect 0 0 1 0;
#X connect 1 0 4 0;
#X connect 2 0 5 0;
#X connect 3 0 1 1;
#X connect 5 0 7 0;
#X connect 6 0 3 0;
#X connect 7 0 6 0;
#X restore 6 34 pd level;
#X obj 116 10 loadbang;
#X obj 149 225 tgl 15 0 \$0-null-send \$0-null-receive empty 17 7 0
10 #fcfcfc #000000 #000000 0 1 1;
#X text 146 190 left;
#X text 146 180 copy;
#X text 351 230 Pd-L2Ork;
#X obj 132 360 *~;
#X obj 149 338 line~;
#X obj 90 251 loadbang;
#X obj 199 81 preset_node k12;
#X text 351 298 ico@vt.edu;
#X text 351 332 Have fun!;
#X msg 90 273 0;
#X msg 149 316 \$1 10;
#X text 351 281 l2ork.music.vt.edu;
#X text 351 264 2022:;
#X obj 307 58 sig~ 1;
#X obj 307 103 snapshot~;
#X obj 353 58 loadbang;
#X obj 307 125 change;
#X obj 307 147 s pd-l2ork-k12_main_out;
#X text 323 34 logic for detecting dsp status on startup;
#X obj 353 80 delay 10;
#X obj 239 224 change;
#X obj 239 202 r pd-l2ork-k12_main_out;
#X msg 193 251 set \$1;
#X obj 454 147 value glob_l2ork_stereo;
#X obj 149 251 change;
#X obj 454 84 t b f;
#X obj 454 105 s glob_l2ork_stereo_changed;
#X obj 454 125 r glob_l2ork_stereo_changed;
#X msg 234 333 visible \$1;
#X obj 61 10 inlet~;
#X obj 61 115 *~;
#X obj 61 81 z~ 64;
#N canvas 0 0 271 201 level 0;
#X obj 49 8 inlet~;
#X obj 48 140 *~;
#X obj 152 8 inlet;
#X obj 152 124 line~;
#X obj 48 163 outlet~;
#X obj 152 58 / 100;
#X msg 152 102 \$1 50;
#X obj 152 80 pow 2;
#X connect 0 0 1 0;
#X connect 1 0 4 0;
#X connect 2 0 5 0;
#X connect 3 0 1 1;
#X connect 5 0 7 0;
#X connect 6 0 3 0;
#X connect 7 0 6 0;
#X restore 61 34 pd level;
#X connect 2 0 16 0;
#X connect 3 0 47 0;
#X connect 4 0 22 0;
#X connect 4 0 13 0;
#X connect 5 0 4 0;
#X connect 6 0 4 1;
#X connect 6 0 49 1;
#X connect 7 0 6 0;
#X connect 12 0 11 1;
#X connect 13 0 11 0;
#X connect 14 0 15 0;
#X connect 15 0 16 1;
#X connect 15 0 41 0;
#X connect 16 0 5 0;
#X connect 16 0 6 0;
#X connect 17 0 7 0;
#X connect 18 0 25 0;
#X connect 18 0 29 0;
#X connect 18 0 43 0;
#X connect 22 0 12 0;
#X connect 23 0 22 1;
#X connect 24 0 28 0;
#X connect 25 0 18 0;
#X connect 28 0 23 0;
#X connect 29 0 23 0;
#X connect 32 0 33 0;
#X connect 33 0 35 0;
#X connect 34 0 38 0;
#X connect 35 0 36 0;
#X connect 38 0 33 0;
#X connect 38 0 42 0;
#X connect 39 0 15 0;
#X connect 40 0 39 0;
#X connect 41 0 39 0;
#X connect 42 0 18 0;
#X connect 43 0 44 0;
#X connect 44 0 45 0;
#X connect 44 1 42 0;
#X connect 46 0 42 0;
#X connect 47 0 1 0;
#X connect 48 0 51 0;
#X connect 49 0 12 0;
#X connect 50 0 49 0;
#X connect 51 0 50 0;
#X connect 51 0 6 1;
#X coords 0 -1 1 1 89 89 2 144 156;
#X gopspill 1;
