#N canvas 16 424 684 500 10;
#X obj 149 146 ggee/image @pd_extra/K12/objects/raspberrypi_motor_off.png
1 0 25 25 empty empty empty 110 140 1 0 10 #000000 0 -8 55 70 0 1 1
;
#X obj 149 146 ggee/image @pd_extra/K12/objects/raspberrypi_motor_on.png
1 0 25 25 empty empty empty 110 140 1 0 10 #000000 0 -8 55 70 0 0 1
;
#X obj 112 -8 inlet;
#X msg 292 317 pwm \$1;
#X obj 325 263 t 0 f clear;
#X obj 218 -9 change;
#X obj 69 165 nbx 3 14 0 161 0 1 \$0-s-null \$0-r-null degree: -40
8 0 11 #fcfcfc #000000 #000000 0 256 3 0 1 0;
#X obj 112 38 max 0;
#X obj 358 180 int;
#X obj 174 178 nbx 2 14 0 8 0 0 empty empty channel: -47 6 0 11 #fcfcfc
#000000 #000000 0 256 3 0 1 0;
#X obj 9 127 preset_node k12;
#X obj 173 273 coll rpi_gpio.coll;
#C restore;
#X obj 160 414 disis_gpio;
#X obj 149 192 cnv 15 52 15 empty \$0-r-cnv pin:00 4 7 0 11 #fcfcfc
#606060 0;
#X obj 173 318 tosymbol;
#X msg 173 339 label \$1;
#X obj 173 360 s \$0-r-cnv;
#X obj 68 84 gate 1 0;
#X obj 112 309 sel 0;
#X obj 112 287 change;
#X msg 14 359 togglesoftpwm 1;
#X obj 4 280 loadbang;
#X msg 112 333 unexport;
#X msg 159 383 unexport \, export \$1 \, direction out \, open;
#X obj 169 44 loadbang;
#X msg 169 67 0;
#X msg 291 230 0;
#X msg 520 361 togglepwm 1;
#X msg 405 307 pwmrange \$1;
#X obj 405 286 + 1;
#X obj 180 156 tgl 15 0 \$0-bs-null \$0-br-null stay\ put: -55 5 0
10 #fcfcfc #000000 #000000 0 1 1;
#X obj 325 202 gate 2;
#X obj 325 179 + 1;
#X obj 462 122 maxlib/scale 1 161 455 145;
#X obj 462 145 t f f;
#X obj 112 60 min 161;
#X obj 430 45 == 2;
#X obj 430 75 + 1;
#X obj 430 97 gate 2;
#X obj 290 53 route 0;
#X obj 489 193 int;
#X obj 519 295 route 1 0;
#X msg 223 187 0;
#X msg 257 130 1;
#X msg 393 68 0;
#X obj 188 96 preset_node k12;
#X msg 5 382 pwmclock 1920;
#X obj 329 74 change;
#X obj 520 328 delay 600;
#X obj 112 14 int;
#X msg 504 386 pwmclock 96;
#X obj 494 86 delay 1000;
#X msg 297 431 unexport \, export 18 \, direction out \, open \, togglesoftpwm
1;
#X obj 111 262 f 0;
#X obj 476 55 route 0 1;
#X obj 325 292 pipe 50;
#X msg 27 334 servomode 1;
#X msg 45 439 servomode 0;
#X floatatom 427 197 5 0 0 0 - - - 0 0 1, f 5;
#X obj 299 124 maxlib/scale 1 161 980 10;
#X text 341 139 soft pwm scale;
#X text 511 140 hard pwm scale;
#X obj 173 297 sprintf pin:%02d;
#X msg 238 20 visible \$1;
#X connect 2 0 49 0;
#X connect 3 0 12 0;
#X connect 4 0 55 0;
#X connect 4 1 3 0;
#X connect 5 0 17 0;
#X connect 5 0 63 0;
#X connect 6 0 39 0;
#X connect 7 0 35 0;
#X connect 8 0 31 1;
#X connect 8 0 58 0;
#X connect 9 0 10 0;
#X connect 9 0 11 0;
#X connect 9 0 36 0;
#X connect 10 0 9 0;
#X connect 11 0 53 1;
#X connect 11 0 62 0;
#X connect 12 1 5 0;
#X connect 14 0 15 0;
#X connect 15 0 16 0;
#X connect 17 0 6 0;
#X connect 18 0 22 0;
#X connect 18 1 23 0;
#X connect 19 0 18 0;
#X connect 20 0 12 0;
#X connect 21 0 56 0;
#X connect 21 0 43 0;
#X connect 21 0 20 0;
#X connect 21 0 46 0;
#X connect 22 0 12 0;
#X connect 23 0 12 0;
#X connect 24 0 25 0;
#X connect 25 0 9 0;
#X connect 25 0 6 0;
#X connect 25 0 41 0;
#X connect 25 0 63 0;
#X connect 26 0 3 0;
#X connect 27 0 12 0;
#X connect 28 0 12 0;
#X connect 29 0 28 0;
#X connect 30 0 32 0;
#X connect 30 0 42 0;
#X connect 30 0 45 0;
#X connect 31 0 4 0;
#X connect 31 1 3 0;
#X connect 32 0 31 0;
#X connect 33 0 34 0;
#X connect 34 0 8 0;
#X connect 34 1 40 0;
#X connect 35 0 17 1;
#X connect 36 0 37 0;
#X connect 36 0 41 0;
#X connect 36 0 44 0;
#X connect 36 0 54 0;
#X connect 37 0 38 0;
#X connect 38 0 59 0;
#X connect 38 1 33 0;
#X connect 39 0 26 0;
#X connect 39 1 47 0;
#X connect 40 0 29 0;
#X connect 41 0 48 0;
#X connect 41 1 46 0;
#X connect 41 1 20 0;
#X connect 42 0 6 0;
#X connect 43 0 31 0;
#X connect 43 0 38 0;
#X connect 44 0 30 0;
#X connect 45 0 30 0;
#X connect 46 0 12 0;
#X connect 47 0 38 1;
#X connect 48 0 27 0;
#X connect 48 0 50 0;
#X connect 49 0 7 0;
#X connect 50 0 12 0;
#X connect 51 0 53 0;
#X connect 52 0 12 0;
#X connect 53 0 19 0;
#X connect 54 0 52 0;
#X connect 54 0 51 0;
#X connect 54 1 53 0;
#X connect 55 0 3 0;
#X connect 56 0 12 0;
#X connect 57 0 12 0;
#X connect 59 0 8 0;
#X connect 62 0 14 0;
#X connect 63 0 1 0;
#X coords 0 -1 1 1 89 89 2 117 127;
#X gopspill 1;
