#N canvas 104 147 575 725 10;
#X obj 56 193 ggee/image @pd_extra/K12/objects/raspberrypi_gpio_digital_off.png
1 0 25 25 empty empty empty 110 140 1 0 10 #000000 0 -8 55 70 0 1 1
;
#X obj 56 193 ggee/image @pd_extra/K12/objects/raspberrypi_gpio_digital_on.png
1 0 25 25 empty empty empty 110 140 1 0 10 #000000 0 -8 55 70 0 0 1
;
#X obj 152 655 outlet;
#X obj 80 203 nbx 2 14 0 8 0 0 empty empty channel: -48 8 0 11 #fcfcfc
#000000 #000000 0 256 3 0 1 0;
#X obj 123 168 preset_node k12;
#X obj 338 282 coll rpi_gpio.coll;
#C restore;
#X obj 152 607 disis_gpio;
#X obj 69 237 hradio 15 1 0 2 empty empty I/O: -25 7 0 10 #fcfcfc #fc8000
#000000 0 1;
#X msg 183 518 symbol out;
#X msg 118 518 symbol in;
#X obj 117 493 select 0 1;
#X obj 45 390 - 1;
#X obj 45 411 abs;
#X obj 45 453 metro 100;
#X obj 143 191 preset_node k12;
#X obj 447 548 inlet;
#X msg 152 548 direction \$1 \, open;
#X obj 57 218 cnv 15 52 15 empty \$0-r-cnv pin:0 4 7 0 11 #fcfcfc #606060
0;
#X obj 338 318 sprintf pin:%d;
#X obj 338 339 tosymbol;
#X msg 338 360 label \$1;
#X obj 338 381 s \$0-r-cnv;
#X obj 56 50 change;
#X obj 213 324 select 0;
#X text 72 236 i;
#X text 87 236 o;
#X obj 447 571 change;
#X obj 152 631 change;
#X msg 56 77 visible \$1;
#X obj 45 290 > 0;
#X obj 45 334 gate 2 1;
#X obj 90 358 t f f;
#X obj 45 312 + 1;
#X msg 45 358 1;
#X obj 267 255 t b f f;
#X msg 340 548 close \, unexport;
#X obj 305 384 f;
#X obj 305 434 gate 1 0;
#X obj 267 233 change;
#X obj 213 349 t b 0;
#X obj 258 349 t f f b b 0;
#X obj 267 282 delay 100;
#X obj 305 409 != 0;
#X msg 273 548 export \$1;
#X connect 3 0 4 0;
#X connect 3 0 38 0;
#X connect 4 0 3 0;
#X connect 5 0 18 0;
#X connect 5 0 23 0;
#X connect 6 0 27 0;
#X connect 6 1 22 0;
#X connect 7 0 30 1;
#X connect 8 0 16 0;
#X connect 9 0 16 0;
#X connect 10 0 9 0;
#X connect 10 1 8 0;
#X connect 11 0 12 0;
#X connect 12 0 13 0;
#X connect 13 0 6 0;
#X connect 14 0 7 0;
#X connect 15 0 26 0;
#X connect 16 0 6 0;
#X connect 18 0 19 0;
#X connect 19 0 20 0;
#X connect 20 0 21 0;
#X connect 22 0 28 0;
#X connect 23 0 39 0;
#X connect 23 1 40 0;
#X connect 26 0 6 0;
#X connect 27 0 2 0;
#X connect 28 0 1 0;
#X connect 29 0 32 0;
#X connect 30 0 33 0;
#X connect 30 1 31 0;
#X connect 31 0 11 0;
#X connect 31 1 10 0;
#X connect 32 0 30 0;
#X connect 33 0 11 0;
#X connect 34 0 41 0;
#X connect 34 1 29 0;
#X connect 34 2 5 0;
#X connect 35 0 6 0;
#X connect 36 0 42 0;
#X connect 37 0 35 0;
#X connect 38 0 34 0;
#X connect 39 0 35 0;
#X connect 39 1 13 0;
#X connect 40 0 36 1;
#X connect 40 1 43 0;
#X connect 40 2 37 1;
#X connect 40 3 36 0;
#X connect 40 4 13 0;
#X connect 41 0 7 0;
#X connect 42 0 37 0;
#X connect 43 0 6 0;
#X coords 0 -1 1 1 90 90 2 23 173;
