#N canvas 289 39 501 641 10;
#X obj 245 -39 preset_hub k12 %hidden% %node% 2 6 6 %node% 2 7 3;
#X obj 4 98 cnv 15 479 265 empty empty empty 20 12 0 14 #e0e0e0 #404040
0;
#X obj -7 -17 cnv 3 501 3 empty empty empty 5 14 0 20 #fc8000 #b8b8b8
0;
#X obj -7 -45 cnv 15 501 28 empty empty RaspberryPi/AnalogOut 5 14
0 20 #880024 #fcfcfc 0;
#X obj 440 -39 ggee/image @pd_extra/K12/icons/l2ork.png 0 0 48 50 empty
empty empty 48 50 1 0 10 #000000 0 -8 24 25 0 1 1;
#N canvas 395 435 382 201 META 0;
#X text 7 5 DESCRIPTION This is used to get the analog data to Raspberry
Pi's GPIO outputs using PWM algorithm. Specify channel (1-10) to connect.
Use channel 0 to disconnect.;
#X text 6 71 INLET_0 Send data (0-1023) to a desired Raspberry Pi analog
channel (1-10).;
#X restore 441 565 pd META;
#X obj 14 22 K12/math_number;
#X obj 14 107 K12/raspberrypi_analog_out;
#X obj 115 370 ggee/image @pd_extra/K12/images/lop_board.png 0 0 250
167 empty empty empty 250 167 1 0 10 #000000 0 -8 125 84 0 1 1;
#X obj 20 543 pddplink http://moderndevice.com/product/lots-of-pots-lop-board-for-raspberry-pi/
;
#X text 110 104 The Raspberry Pi Analog Output object allows for sending
analog data using GPIOs using Pulse Width Modulation (PWM) algorithm.
PWM produces values between on and off states by quickly switching
on and off up to 1000 times a second. This is particularly effective
when using the object in combination with an LED (Light Emitting Diode).Channel
0 is reserved for "off" position. The remaining 10 channels (1-10)
correspond to GPIO pins (in order found on Modern Device's Lots of
Pots shield). To change channel \, click on the channel number and
enter a new one (between 0 and 10) or click on the number and while
holding the mouse button down \, drag the mouse up and down. If the
object has successfuly connected to the desired analog channel \, the
object logo will light up.Once connected \, the object will be capable
of sending voltage to its output up to a thousand times per second
with values ranging between 0 and 1023 (a total range of 1024).;
#X connect 6 0 7 0;
