#N canvas 283 37 502 634 10;
#X obj 245 -29 preset_hub k12 %hidden% %node% 2 7 4 %node% 2 7 14 %node%
2 6 6 %node% 2 8 6;
#X obj 9 109 cnv 15 469 262 empty empty empty 20 12 0 14 #e0e0e0 #404040
0;
#X obj -7 -7 cnv 3 501 3 empty empty empty 5 14 0 20 #fc8000 #b8b8b8
0;
#X obj -7 -35 cnv 15 501 28 empty empty RaspberryPi/Digital 5 14 0
20 #880024 #fcfcfc 0;
#X obj 440 -29 ggee/image @pd_extra/K12/icons/l2ork.png 0 0 48 50 empty
empty empty 48 50 1 0 10 #000000 0 -8 24 25 0 1 1;
#N canvas 372 215 409 223 META 0;
#X text 6 5 DESCRIPTION This is used to get the digital data to and
from the Rasbperry Pi GPIOs (ideally using Lots of Pots shield).;
#X text 8 38 INLET_0 Send data (0 or 1) to desired Raspberry Pi GPIO
pin.;
#X text 7 58 OUTLET_0 Receive data (0 or 1) from a desired Raspberry
Pi GPIO pin.;
#X restore 441 575 pd META;
#X obj 16 393 K12/math_number;
#X obj 17 117 K12/raspberrypi_digital;
#X obj 17 26 K12/math_number;
#X obj 115 376 ggee/image @pd_extra/K12/images/lop_board.png 0 0 250
168 empty empty empty 250 168 1 0 10 #000000 0 -8 125 84 0 1 1;
#X obj 19 536 pddplink http://moderndevice.com/product/lots-of-pots-lop-board-for-raspberry-pi/
;
#X text 110 114 The Raspberry Pi Digital object allows for both sending
and receiving digital data. The object can do either one or the other
but not both at the same time. This is a limitation of GPIO design.
To set the input/output preference \, click on the "i" or "o" box.
The highlighted box will be the one currently active.Channel 0 is
reserved for "off" position. The remaining 10 channels have corresponding
GPIO pins (in order found on Modern Device's Lots of Pots shield).
To change channel \, click on the channel number and enter new one
(between 1 and 10) or click on the number and while holding the mouse
button down \, drag the mouse up and down. If the object has successfuly
connected to the desired GPIO pin \, the object logo will light up.Depending
on the direction \, the object will either await user input (0 or a
1) or will output 0 or a 1 up to one hundred times per second.;
#X connect 7 0 6 0;
#X connect 8 0 7 0;
