#N canvas 293 64 502 685 10;
#X obj 252 -29 preset_hub k12 %hidden% %node% 2 6 6 %node% 2 9 24 %node%
2 9 25;
#X obj 11 38 cnv 15 478 357 empty empty empty 20 12 0 14 #e0e0e0 #404040
0;
#X obj 0 -7 cnv 3 501 3 empty empty empty 5 14 0 20 #fc8000 #b8b8b8
0;
#X obj 0 -35 cnv 15 501 28 empty empty RaspberryPi/Solenoid 5 14 0
20 #880024 #fcfcfc 0;
#X obj 447 -29 ggee/image @pd_extra/K12/icons/l2ork.png 0 0 48 50 empty
empty empty 48 50 1 0 10 #000000 0 -8 24 25 0 1 1;
#N canvas 388 279 395 407 META 0;
#X text 7 57 INLET_0 any non-zero data.;
#X text 7 5 DESCRIPTION This is used to control a solenoid electromagnet
using Raspberry Pi GPIOs and PWM. Specify channel (1-10) to connect.
Use channel 0 to disconnect., f 62;
#X restore 448 620 pd META;
#X obj 19 54 K12/math_number;
#X obj 122 414 ggee/image @pd_extra/K12/images/lop_board.png 0 0 250
167 empty empty empty 250 167 1 0 10 #000000 0 -8 125 84 0 1 1;
#X obj 26 594 pddplink http://moderndevice.com/product/lots-of-pots-lop-board-for-raspberry-pi/
;
#X obj 19 187 K12/raspberrypi_solenoid;
#X text 117 44 The Raspberry Pi Solenoid object allows the control
of a solenoid electromagnet. It creates a pulse to actuate a solenoid
for the time specified in milliseconds. It achieves this by leveraging
Raspberry Pi's General Purpose Input Output (GPIO) pins in conjunction
with the Pulse Width Modulation (PWM).In this mode PWM produces values
between on and off states by quickly switching on and off hundreds
of times per second.Channel 0 is reserved for "off" position. The
remaining 10 channels (1-10) correspond to GPIO pins (in order found
on Modern Device's Lots of Pots shield). To change channel \, click
on the channel number and enter a new one (between 0 and 10) or click
on the number and while holding the mouse button down \, drag the mouse
up and down. If the object has successfuly connected to the desired
analog channel \, the object logo will light up.For any non-zero
input the object will output full voltage (3.3 Volts) at the specified
analog channel for the duration specified in 'hit ms'. This duration
can set from 20 to 999 milliseconds.NB: Modern Device LOP board comes
in two flavors \, equipped with 8 pan pots (one assigned to each analog
channel) \, or as a "naked" (NOP) board that allows for easier access
to pins.;
#X connect 6 0 9 0;
