#N canvas 513 162 706 516 10;
#X obj 149 146 ggee/image @pd_extra/K12/objects/raspberrypi_solenoid_off.png
1 0 25 25 empty empty empty 110 140 1 0 10 #000000 0 -8 55 70 0 1 1
;
#X obj 72 -45 inlet;
#X obj 220 -26 sel 0 1;
#X obj 220 -49 change;
#X obj 166 169 nbx 3 14 20 999 0 1 \$0-s-null \$0-r-null hit\ ms: -40
5 0 11 #fcfcfc #000000 #000000 20 256 3 0 1 0;
#X obj 173 182 nbx 2 14 0 10 0 0 empty empty channel: -47 6 0 11 #fcfcfc
#000000 #000000 0 256 3 0 1 0;
#X obj 173 245 coll rpi_gpio.coll;
#C restore;
#X obj 160 386 disis_gpio;
#X obj 148 194 cnv 15 52 15 empty \$0-r-cnv pin:00 4 7 0 11 #fcfcfc
#606060 0;
#X obj 173 290 tosymbol;
#X msg 173 311 label \$1;
#X obj 68 84 gate 1 0;
#X obj 88 331 sel 0;
#X obj 88 309 change;
#X msg 15 389 togglesoftpwm 1;
#X obj 15 367 loadbang;
#X msg 88 355 unexport;
#X msg 159 355 unexport \, export \$1 \, direction out \, open;
#X obj 169 44 loadbang;
#X msg 169 67 0;
#X msg 220 -3 open @pd_extra/K12/objects/raspberrypi_solenoid_off.png
;
#X msg 239 21 open @pd_extra/K12/objects/raspberrypi_solenoid_on.png
;
#X msg 18 278 pwm \$1;
#X obj 13 158 speedlim 20;
#X obj 4 30 preset_node k12;
#X obj 4 52 preset_node k12;
#X obj 52 111 max 20;
#X obj 52 133 min 999;
#X obj 18 248 pipe 20;
#X obj 173 332 s \$0-r-cnv;
#X msg 397 277 servomode on;
#X obj 17 191 gate 2;
#X msg 249 86 1;
#X msg 301 275 servomode off;
#X obj 302 295 t 0 1;
#X msg 424 374 pulsegap \$1;
#X obj 180 152 tgl 15 0 \$0-bs-null \$0-br-null pulsate: -54 7 0 11
#fcfcfc #000000 #000000 0 1 1;
#X obj 299 207 route 0 1;
#X obj 238 53 preset_node K12;
#X obj 397 303 t 2 b;
#X obj 424 329 pipe 700;
#X obj 299 184 change;
#X msg 329 237 1023;
#X msg 301 237 1;
#X obj 72 -1 route 0;
#X obj 112 37 max 1;
#X obj 112 59 min 1;
#X obj 72 277 min 1024;
#X obj 72 -23 int;
#X obj 150 -47 inlet;
#X obj 150 -23 max 20;
#X obj 150 21 int;
#X obj 150 -1 min 999;
#X obj 17 212 t 0 1023 clear;
#X msg 424 352 5000;
#X obj 173 269 sprintf pin:%02d;
#X connect 1 0 48 0;
#X connect 2 0 20 0;
#X connect 2 1 21 0;
#X connect 3 0 2 0;
#X connect 3 0 11 0;
#X connect 4 0 26 0;
#X connect 4 0 24 0;
#X connect 5 0 6 0;
#X connect 5 0 25 0;
#X connect 6 0 13 0;
#X connect 6 0 55 0;
#X connect 7 1 3 0;
#X connect 9 0 10 0;
#X connect 10 0 29 0;
#X connect 11 0 23 0;
#X connect 12 0 16 0;
#X connect 12 1 17 0;
#X connect 13 0 12 0;
#X connect 14 0 7 0;
#X connect 15 0 14 0;
#X connect 16 0 7 0;
#X connect 17 0 7 0;
#X connect 18 0 19 0;
#X connect 18 0 32 0;
#X connect 19 0 5 0;
#X connect 19 0 2 0;
#X connect 19 0 4 0;
#X connect 20 0 0 0;
#X connect 21 0 0 0;
#X connect 22 0 7 0;
#X connect 23 0 31 1;
#X connect 24 0 25 0;
#X connect 24 0 4 0;
#X connect 25 0 5 0;
#X connect 26 0 27 0;
#X connect 27 0 23 1;
#X connect 27 0 28 1;
#X connect 28 0 22 0;
#X connect 30 0 7 0;
#X connect 30 0 39 0;
#X connect 31 0 53 0;
#X connect 31 1 22 0;
#X connect 31 1 47 0;
#X connect 32 0 31 0;
#X connect 33 0 7 0;
#X connect 33 0 34 0;
#X connect 34 0 22 0;
#X connect 34 1 31 0;
#X connect 35 0 7 0;
#X connect 36 0 41 0;
#X connect 37 0 33 0;
#X connect 37 0 43 0;
#X connect 37 1 30 0;
#X connect 37 1 42 0;
#X connect 38 0 36 0;
#X connect 39 0 31 0;
#X connect 39 1 40 0;
#X connect 40 0 54 0;
#X connect 41 0 37 0;
#X connect 42 0 46 1;
#X connect 43 0 46 1;
#X connect 44 1 45 0;
#X connect 45 0 46 0;
#X connect 46 0 11 1;
#X connect 48 0 44 0;
#X connect 49 0 50 0;
#X connect 50 0 52 0;
#X connect 51 0 4 0;
#X connect 52 0 51 0;
#X connect 53 0 28 0;
#X connect 53 0 47 0;
#X connect 53 1 22 0;
#X connect 53 1 47 0;
#X connect 54 0 35 0;
#X connect 55 0 9 0;
#X coords 0 -1 1 1 89 89 2 117 127;
#X gopspill 1;
