#N canvas 396 101 369 466 10;
#X obj 86 103 ggee/image @pd_extra/K12/objects/raspberrypi_gpio_analog_out_off.png
1 0 25 25 empty empty empty 110 140 1 0 10 #000000 0 -8 55 70 0 1 1
;
#X obj 111 122 nbx 2 14 0 10 0 0 empty empty channel: -48 8 0 11 #fcfcfc
#000000 #000000 0 256 3 0;
#X obj 168 80 preset_node k12;
#X obj 111 187 coll rpi_gpio.coll;
#C restore;
#X obj 97 416 disis_gpio;
#X obj 283 326 inlet;
#X msg 238 377 pwm \$1;
#X obj 88 137 cnv 15 52 15 empty \$0-r-cnv pin:0 4 7 0 11 #fcfcfc #606060
0;
#X obj 111 211 sprintf pin:%d;
#X obj 111 232 tosymbol;
#X msg 111 253 label \$1;
#X obj 111 274 s \$0-r-cnv;
#X obj 238 356 gate 1 0;
#X obj 15 273 sel 0;
#X obj 15 251 change;
#X obj 154 21 change;
#X msg 205 270 togglesoftpwm 1;
#X obj 205 248 loadbang;
#X msg 15 297 unexport;
#X msg 97 297 unexport \, export \$1 \, direction out \, open;
#X obj 176 106 loadbang;
#X msg 176 127 0;
#X obj 86 103 ggee/image @pd_extra/K12/objects/raspberrypi_gpio_analog_out_on.png
1 0 25 25 empty empty empty 110 140 1 0 10 #000000 0 -8 55 70 0 0 1
;
#X msg 154 46 visible \$1;
#X connect 1 0 2 0;
#X connect 1 0 3 0;
#X connect 2 0 1 0;
#X connect 3 0 8 0;
#X connect 3 0 14 0;
#X connect 4 1 12 0;
#X connect 4 1 15 0;
#X connect 5 0 12 1;
#X connect 6 0 4 0;
#X connect 8 0 9 0;
#X connect 9 0 10 0;
#X connect 10 0 11 0;
#X connect 12 0 6 0;
#X connect 13 0 18 0;
#X connect 13 1 19 0;
#X connect 14 0 13 0;
#X connect 15 0 23 0;
#X connect 16 0 4 0;
#X connect 17 0 16 0;
#X connect 18 0 4 0;
#X connect 19 0 4 0;
#X connect 20 0 21 0;
#X connect 21 0 1 0;
#X connect 23 0 22 0;
#X coords 0 -1 1 1 90 90 2 53 83;
