#N canvas 262 181 320 473 10;
#X obj 76 143 ggee/image @pd_extra/K12/objects/raspberrypi_3008_analog_in_off.png
1 0 25 25 empty empty empty 110 140 1 0 10 #000000 0 -8 55 70 0 1 1
;
#X obj 76 143 ggee/image @pd_extra/K12/objects/raspberrypi_3008_analog_in_on.png
1 0 25 25 empty empty empty 110 140 1 0 10 #000000 0 -8 55 70 0 0 1
;
#X obj 124 430 outlet;
#X obj 101 161 nbx 2 14 -1 7 0 0 empty empty channel: -48 8 0 11 #fcfcfc
#000000 #000000 -1 256 3 0 1 0;
#X obj 150 114 preset_node k12;
#X obj 138 382 disis_spi;
#X msg 183 348 open;
#X msg 138 348 close;
#X obj 124 408 switch 8 0;
#X obj 34 328 metro 100;
#X obj 101 328 + 1;
#X obj 138 327 sel 0, f 8;
#X obj 128 244 > -1;
#X obj 128 265 change;
#X obj 101 221 t f f;
#X obj 128 286 t f f;
#X obj 76 43 change;
#X obj 186 148 loadbang;
#X msg 186 169 -1;
#X msg 76 68 visible \$1;
#X connect 3 0 4 0;
#X connect 3 0 14 0;
#X connect 4 0 3 0;
#X connect 5 0 8 1;
#X connect 5 1 8 2;
#X connect 5 2 8 3;
#X connect 5 3 8 4;
#X connect 5 4 8 5;
#X connect 5 5 8 6;
#X connect 5 6 8 7;
#X connect 5 7 8 8;
#X connect 5 8 16 0;
#X connect 6 0 5 0;
#X connect 7 0 5 0;
#X connect 8 0 2 0;
#X connect 9 0 5 0;
#X connect 10 0 8 0;
#X connect 11 0 7 0;
#X connect 11 1 6 0;
#X connect 12 0 13 0;
#X connect 13 0 15 0;
#X connect 14 0 10 0;
#X connect 14 1 12 0;
#X connect 15 0 9 0;
#X connect 15 1 11 0;
#X connect 16 0 19 0;
#X connect 17 0 18 0;
#X connect 18 0 3 0;
#X connect 19 0 1 0;
#X coords 0 -1 1 1 90 90 2 43 123;
#X gopspill 1;
