#N canvas 325 111 502 417 10;
#X obj 218 -28 preset_hub k12 %hidden% %node% 2 6 6 %node% 2 7 12 %node%
2 7 13;
#X obj 2 134 cnv 15 480 104 empty empty empty 20 12 0 14 #e0e0e0 #404040
0;
#X obj -7 -7 cnv 3 501 3 empty empty empty 5 14 0 20 #fc8000 #b8b8b8
0;
#X obj -7 -35 cnv 15 501 28 empty empty Sarcduino/Hit 5 14 0 20 #880024
#fcfcfc 0;
#X obj 438 -26 ggee/image @pd_extra/K12/icons/l2ork.png 0 0 48 50 empty
empty empty 48 50 1 0 10 #000000 0 -8 24 25 0 1 1;
#N canvas 456 27 450 514 META 0;
#X text 6 58 OUTLET_0 This outputs a 1 if a hit is detected or a 0
otherwise;
#X text 6 38 INLET_0 Connect the Sarcudino Connect object to this inlet
;
#X text 6 5 DESCRIPTION This is used to detect sudden changes in the
Arduino data;
#X restore 441 358 pd META;
#X obj 10 264 K12/math_number;
#X obj 10 141 K12/sarcduino_hit;
#X text 109 156 The Sarcduino Hit object detects sudden changes in
the data coming from the Arduino. Connect the Sarduino Connect object
to the inlet. This object will output the number 1 when a hit is detected
and a 0 otherwise.;
#X obj 10 26 K12/sarcduino_connect;
#X connect 7 0 6 0;
#X connect 9 0 7 0;
