#N canvas 152 298 502 495 10;
#X obj 217 -29 preset_hub k12 %hidden% %node% 2 7 6 %node% 2 8 6 %node%
2 6 4;
#X obj 2 136 cnv 15 478 99 empty empty empty 20 12 0 14 #e0e0e0 #404040
0;
#X obj -7 -7 cnv 3 501 3 empty empty empty 5 14 0 20 #fc8000 #b8b8b8
0;
#X obj -7 -35 cnv 15 501 28 empty empty Sarcduino/Piezo 5 14 0 20 #880024
#fcfcfc 0;
#X obj 439 -27 ggee/image @pd_extra/K12/icons/l2ork.png 0 0 48 50 empty
empty empty 48 50 1 0 10 #000000 0 -8 24 25 0 1 1;
#N canvas 406 27 450 514 META 0;
#X text 6 66 OUTLET_0 This is the absolute value of the pizeo mic.
Connect this to the Math Average object;
#X text 6 42 INLET_0 Connect the Sarcudino Connect object to this inlet
;
#X text 6 5 DESCRIPTION This is used to get the absolute value of the
piezo microphone sensor;
#X restore 441 435 pd META;
#X obj 7 141 K12/sarcduino_piezo;
#X obj 7 259 K12/math_average;
#X obj 7 376 K12/math_number;
#X text 105 142 The Sarcduino Piezo object gives you the absolute value
of the piezo microphone sensor of the Arduino instrument. You can specify
a channel 1-16 by clicking on the channel number and dragging up and
down. Connect the Sarcduino object to the inlet. Connect the outlet
to the MathAverage object to get the average level of the microphone
as shown.;
#X obj 7 24 K12/sarcduino_connect;
#X connect 6 0 7 0;
#X connect 7 0 8 0;
#X connect 10 0 6 0;
