#N canvas 289 39 502 405 10;
#X obj 245 -29 preset_hub k12 %hidden% %node% 2 7 5 %node% 2 6 6;
#X obj 9 149 cnv 15 468 104 empty empty empty 20 12 0 14 #e0e0e0 #404040
0;
#X obj -7 -7 cnv 3 501 3 empty empty empty 5 14 0 20 #fc8000 #b8b8b8
0;
#X obj -7 -35 cnv 15 501 28 empty empty Sarcduino/Digital 5 14 0 20
#880024 #fcfcfc 0;
#X obj 440 -29 ggee/image @pd_extra/K12/icons/l2ork.png 0 0 48 50 empty
empty empty 48 50 1 0 10 #000000 0 -8 24 25 0 1 1;
#N canvas 387 214 385 225 META 0;
#X text 8 38 INLET_0 Connect the Sarcudino Connect object to this inlet.
;
#X text 7 58 OUTLET_0 Connect this to any math or instrument objects.
;
#X text 6 5 DESCRIPTION This is used to get the digital data from the
Arduino.;
#X restore 440 345 pd META;
#X obj 17 277 K12/math_number;
#X obj 17 155 K12/sarcduino_digital;
#X text 115 160 The Sarcduino Digital object takes the data coming
from the Arduino and filters it to select only the data from Digital
devices. You can specify a channel 1-12 by clicking on the channel
number and dragging up and down. Connect the Sarcduino object to the
inlet. Connect the outlet to any math or instrument objects., f 58
;
#X obj 17 39 K12/sarcduino_connect;
#X connect 7 0 6 0;
#X connect 9 0 7 0;
