#N canvas 101 117 502 260 10;
#X obj 254 -26 preset_hub k12 %hidden%;
#X obj 12 58 cnv 15 470 104 empty empty empty 20 12 0 14 #e0e0e0 #404040
0;
#X obj 0 -3 cnv 3 501 3 empty empty empty 5 14 0 20 #fc8000 #b8b8b8
0;
#X obj 0 -31 cnv 15 501 28 empty empty Sarcduino/Connect 5 14 0 20
#880024 #fcfcfc 0;
#X obj 444 -21 ggee/image @pd_extra/K12/icons/l2ork.png 0 0 48 50 empty
empty empty 48 50 1 0 10 #000000 0 -8 24 25 0 1 1;
#N canvas 406 27 450 514 META 0;
#X text 6 5 DESCRIPTION This is used to connect the Arduino to the
patch. Connect the Arudino via USB and press CONNECT;
#X text 6 57 OUTLET_0 Connect this to one of the Sarcduino objects
(Analog or Digital);
#X restore 448 205 pd META;
#X text 114 74 The Sarcduino object allows you to connect the Arduino
to the program. Simply plug in the USB cable for the Arduino and press
the CONNECT button. The icon will turn green when the Arudino is connected.
Connect the outlet to other Sarcduino objects.;
#X obj 19 65 K12/sarcduino_connect;
