#N canvas 301 60 502 439 10;
#X obj 231 -29 preset_hub k12 %hidden% %node% 2 7 6 %node% 2 6 4;
#X obj 10 133 cnv 15 463 104 empty empty empty 20 12 0 14 #e0e0e0 #404040
0;
#X obj -7 -7 cnv 3 501 3 empty empty empty 5 14 0 20 #fc8000 #b8b8b8
0;
#X obj -7 -35 cnv 15 501 28 empty empty Sarcduino/Analog 5 14 0 20
#880024 #fcfcfc 0;
#X obj 440 -27 ggee/image @pd_extra/K12/icons/l2ork.png 0 0 48 50 empty
empty empty 48 50 1 0 10 #000000 0 -8 24 25 0 1 1;
#N canvas 406 27 450 514 META 0;
#X text 8 38 INLET_0 Connect the Sarcudino Connect object to this inlet.
;
#X text 7 58 OUTLET_0 Connect this to any math or instrument objects.
;
#X text 6 5 DESCRIPTION This is used to get the Analog data from the
Sarcduino Connect object.;
#X restore 441 379 pd META;
#X obj 18 140 K12/sarcduino_analog;
#X obj 18 261 K12/math_number;
#X text 113 143 The Sarcduino Analog object takes the data coming from
the Arduino and filters it to select only the data from Analog devices.
You can specify a channel 1-16 by clicking on the channel number and
dragging up and down. Connect the Sarcduino object to the inlet. Connect
the outlet to any math or instrument objects.;
#X obj 18 23 K12/sarcduino_connect;
#X connect 6 0 7 0;
#X connect 9 0 6 0;
