#N canvas 267 156 335 215 10;
#X obj 68 188 outlet;
#X obj 96 107 ggee/image @pd_extra/K12/objects/sarcduino_analog.png
1 0 25 25 empty empty empty 110 140 1 0 10 #000000 0 -8 55 70 0 1 1
;
#X obj 120 118 nbx 2 14 0 5 0 0 empty empty channel: -48 8 0 11 #fcfcfc
#000000 #000000 0 256 3 0;
#X obj 8 14 inlet;
#X obj 120 59 preset_node k12;
#X obj 8 83 route a;
#X obj 8 60 route list;
#X obj 68 137 nbx 4 14 -1e+37 1e+37 0 0 empty empty empty 0 -8 0 20
#fcfcfc #000000 #000000 0 256 3 0;
#X obj 8 106 route 0;
#X connect 2 0 4 0;
#X connect 2 0 8 1;
#X connect 3 0 6 0;
#X connect 4 0 2 0;
#X connect 5 0 8 0;
#X connect 6 0 5 0;
#X connect 7 0 0 0;
#X connect 8 0 7 0;
#X coords 0 -1 1 1 90 90 2 63 87;
#X gopspill 1;
