#N canvas 425 59 429 350 10;
#X obj 248 219 ggee/image @pd_extra/K12/objects/sarcduino_hit6.png
1 0 25 25 empty empty empty 110 140 1 0 10 #000000 0 -8 55 70 0 1 1
;
#X obj 248 219 ggee/image @pd_extra/K12/objects/sarcduino_hit5.png
1 0 25 25 empty empty empty 110 140 1 0 10 #000000 0 -8 55 70 0 0 1
;
#X obj 248 219 ggee/image @pd_extra/K12/objects/sarcduino_hit4.png
1 0 25 25 empty empty empty 110 140 1 0 10 #000000 0 -8 55 70 0 0 1
;
#X obj 248 219 ggee/image @pd_extra/K12/objects/sarcduino_hit3.png
1 0 25 25 empty empty empty 110 140 1 0 10 #000000 0 -8 55 70 0 0 1
;
#X obj 248 219 ggee/image @pd_extra/K12/objects/sarcduino_hit2.png
1 0 25 25 empty empty empty 110 140 1 0 10 #000000 0 -8 55 70 0 0 1
;
#X obj 248 219 ggee/image @pd_extra/K12/objects/sarcduino_hit1.png
1 0 25 25 empty empty empty 110 140 1 0 10 #000000 0 -8 55 70 0 1 1
;
#X obj 33 22 inlet;
#X obj 169 101 select 0 1;
#X obj 197 127 delay 100;
#X obj 33 316 outlet;
#X obj 217 230 nbx 4 14 0 1e+37 0 1 \$0-s-null \$0-r-null empty 0 -8
0 10 #fcfcfc #000000 #000000 0.03 256 3 0;
#X obj 217 252 nbx 4 14 0 1e+37 0 1 \$0-s-null \$0-r-null empty 0 -8
0 10 #fcfcfc #000000 #000000 0.01 256 3 0;
#X obj 311 199 preset_node k12;
#X obj 311 221 preset_node k12;
#X obj 33 48 t f f;
#X obj 33 82 -;
#X obj 84 157 sel 1;
#X msg 84 179 1;
#X obj 33 157 sel 1;
#X msg 33 179 0;
#X obj 33 233 change;
#X obj 33 121 < -0.01;
#X obj 84 121 > 0.03;
#X text 224 219 up;
#X text 224 241 down;
#X obj 217 293 * -1;
#N canvas 1125 154 465 442 delays 0;
#X obj 51 406 outlet;
#X obj 51 16 inlet;
#X obj 339 16 inlet;
#X obj 339 74 delay 15;
#X obj 339 121 delay 15;
#X obj 339 174 delay 15;
#X obj 339 228 delay 15;
#X obj 339 279 delay 15;
#X obj 339 334 delay 15;
#X msg 60 38 stop;
#X msg 51 118 visible 0;
#X obj 101 406 outlet;
#X obj 151 406 outlet;
#X obj 201 406 outlet;
#X obj 251 406 outlet;
#X msg 51 168 visible 1;
#X msg 51 216 visible 1;
#X msg 51 270 visible 1;
#X msg 51 322 visible 1;
#X msg 51 368 visible 1;
#X msg 121 168 visible 0;
#X msg 121 216 visible 0;
#X msg 121 270 visible 0;
#X msg 121 322 visible 0;
#X msg 121 368 visible 0;
#X connect 1 0 10 0;
#X connect 1 0 9 0;
#X connect 2 0 3 0;
#X connect 3 0 10 0;
#X connect 3 0 4 0;
#X connect 4 0 15 0;
#X connect 4 0 5 0;
#X connect 4 0 20 0;
#X connect 5 0 16 0;
#X connect 5 0 6 0;
#X connect 5 0 21 0;
#X connect 6 0 17 0;
#X connect 6 0 7 0;
#X connect 6 0 22 0;
#X connect 7 0 18 0;
#X connect 7 0 8 0;
#X connect 7 0 23 0;
#X connect 8 0 19 0;
#X connect 8 0 24 0;
#X connect 9 0 3 0;
#X connect 9 0 4 0;
#X connect 9 0 5 0;
#X connect 9 0 6 0;
#X connect 9 0 7 0;
#X connect 9 0 8 0;
#X connect 10 0 0 0;
#X connect 10 0 11 0;
#X connect 10 0 12 0;
#X connect 10 0 13 0;
#X connect 10 0 14 0;
#X connect 15 0 14 0;
#X connect 16 0 13 0;
#X connect 17 0 12 0;
#X connect 18 0 11 0;
#X connect 19 0 0 0;
#X connect 20 0 13 0;
#X connect 20 0 12 0;
#X connect 20 0 11 0;
#X connect 20 0 0 0;
#X connect 21 0 11 0;
#X connect 21 0 12 0;
#X connect 21 0 14 0;
#X connect 21 0 0 0;
#X connect 22 0 0 0;
#X connect 22 0 11 0;
#X connect 22 0 14 0;
#X connect 22 0 13 0;
#X connect 23 0 0 0;
#X connect 23 0 14 0;
#X connect 23 0 13 0;
#X connect 23 0 12 0;
#X connect 24 0 11 0;
#X connect 24 0 14 0;
#X connect 24 0 13 0;
#X connect 24 0 12 0;
#X restore 211 159 pd delays;
#X connect 6 0 14 0;
#X connect 7 1 8 0;
#X connect 7 1 26 0;
#X connect 8 0 26 1;
#X connect 10 0 12 0;
#X connect 10 0 22 1;
#X connect 11 0 13 0;
#X connect 11 0 25 0;
#X connect 12 0 10 0;
#X connect 13 0 11 0;
#X connect 14 0 15 1;
#X connect 14 1 15 0;
#X connect 15 0 21 0;
#X connect 15 0 22 0;
#X connect 16 0 17 0;
#X connect 17 0 20 0;
#X connect 18 0 19 0;
#X connect 19 0 20 0;
#X connect 20 0 9 0;
#X connect 20 0 7 0;
#X connect 21 0 18 0;
#X connect 22 0 16 0;
#X connect 25 0 21 1;
#X connect 26 0 5 0;
#X connect 26 1 4 0;
#X connect 26 2 3 0;
#X connect 26 3 2 0;
#X connect 26 4 1 0;
#X coords 0 -1 1 1 90 90 2 215 199;
