#N canvas 675 114 501 519 10;
#X obj 260 -236 preset_hub k12 %hidden% %node% 2 2 14 %preset% 0 23.2558
%preset% 3 0 %node% 2 2 25 %preset% 0 1 %node% 2 8 6 %preset% 0 72
%node% 2 10 6 %preset% 0 67 %node% 2 14 7 %node% 2 9 3 %node% 2 11
3;
#X obj 14 44 cnv 15 466 100 empty empty empty 20 12 0 14 #e0e0e0 #404040
0;
#X obj 20 165 K12/output;
#N canvas 710 434 450 514 META 0;
#X text 10 84 OUTLET_0 This outputs the sum of the two audio signals
;
#X text 10 55 INLET_1 Send any audio signal here;
#X text 11 30 INLET_0 Send any audio signal here;
#X text 11 5 DESCRIPTION This adds two signals together;
#X restore 443 241 pd META;
#X obj -1 -215 cnv 3 501 3 empty empty empty 5 14 0 20 #fc8000 #b8b8b8
0;
#X obj -1 -243 cnv 15 501 28 empty empty Signal/Add 5 14 0 20 #880024
#fcfcfc 0;
#X obj 449 -237 ggee/image @pd_extra/K12/icons/l2ork.png 0 0 48 50
empty empty empty 48 50 1 0 10 #000000 0 -8 24 25 0 1 1;
#X obj 20 49 K12/signal_add;
#X obj 20 -176 K12/math_number;
#X obj 20 -71 K12/signal_sine;
#X obj 125 -176 K12/math_number;
#X obj 125 -71 K12/signal_sine;
#X text 123 58 The Signal Add object adds to audio signals together.
The result is that you hear both of them at the same time. In this
example we are sending two sine waves of different frequency to the
object. What you hear is the addition of the two. Recall leftmost preset
above for an example.;
#X obj 239 -165 cnv 15 243 107 empty empty empty 20 12 0 14 #e0e0e0
#404040 0;
#X obj 384 -156 K12/preset 0;
#X text 246 -97 Recall leftmost presetto initalize values.;
#X connect 7 0 2 0;
#X connect 8 0 9 0;
#X connect 9 0 7 0;
#X connect 10 0 11 0;
#X connect 11 0 7 1;
