#N canvas 81 57 502 350 10;
#X obj 244 -26 preset_hub k12 %hidden% %node% 2 6 14 %node% 2 9 1 %node%
2 6 25 %node% 2 7 6;
#X obj 5 60 cnv 15 476 104 empty empty empty 20 12 0 14 #e0e0e0 #404040
0;
#X obj -8 -3 cnv 3 501 3 empty empty empty 5 14 0 20 #fc8000 #b8b8b8
0;
#X obj -8 -31 cnv 15 501 28 empty empty Signal/Microphone 5 14 0 20
#880024 #fcfcfc 0;
#X obj 438 -22 ggee/image @pd_extra/K12/icons/l2ork.png 0 0 48 50 empty
empty empty 48 50 1 0 10 #000000 0 -8 24 25 0 1 1;
#N canvas 406 27 450 530 META 0;
#X text 9 10 DESCRIPTION This outputs the audio from the microphone
;
#X text 9 57 OUTLET_0 Connect this to any signal math \, or effect
objects \, or to the sound object;
#X text 8 93 OUTLET_1 This is the average level of the audio from the
microphone (non-signal);
#X restore 438 292 pd META;
#X obj 13 186 K12/output;
#X obj 125 186 K12/math_number;
#X text 110 77 The Microphone object allows you to get the signal from
your microphone. Connect this to any signal math \, effect objects
\, the record buffer object \, or the sound object. The left outlet
is the signal. The right outlet is the average level of the signal.
Set the microhpone level with the slider.;
#X obj 12 66 K12/signal_microphone;
#X connect 9 0 6 0;
#X connect 9 1 7 0;
