#N canvas 198 183 501 432 10;
#X obj 14 -62 cnv 15 474 104 empty empty empty 20 12 0 14 #e0e0e0 #404040
0;
#X obj 260 -236 preset_hub k12 %hidden% %node% 2 2 14 %preset% 0 20.9302
%preset% 1 0 %preset% 2 18.6047 %preset% 3 16.2791 %node% 2 2 25 %preset%
0 1 %preset% 1 1 %preset% 2 1 %preset% 3 1 %node% 2 8 6 %preset% 0
48 %preset% 1 48 %preset% 2 60 %preset% 3 36 %node% 2 10 7 %node% 2
7 4 %preset% 0 48 %preset% 1 48 %preset% 2 60 %preset% 3 36;
#X obj 21 73 K12/output;
#N canvas 690 254 450 514 META 0;
#X text 8 5 DESCRIPTION This generates a sawtooth wave;
#X text 8 60 OUTLET_0 This outputs a sawtooth wave. Send this to any
effect object \, signal math object \, or the sound object;
#X text 8 23 INLET_0 Send values between 0 and 127 to set the pitch
;
#X restore 446 156 pd META;
#X obj -1 -215 cnv 3 501 3 empty empty empty 5 14 0 20 #fc8000 #b8b8b8
0;
#X obj -1 -243 cnv 15 501 28 empty empty Signal/Saw 5 14 0 20 #880024
#fcfcfc 0;
#X obj 447 -237 ggee/image @pd_extra/K12/icons/l2ork.png 0 0 48 50
empty empty empty 48 50 1 0 10 #000000 0 -8 24 25 0 1 1;
#X obj 21 -55 K12/signal_saw;
#X obj 21 -184 K12/math_number;
#X obj 235 -183 cnv 15 253 102 empty empty empty 20 12 0 14 #e0e0e0
#404040 0;
#X obj 392 -177 K12/preset;
#X text 119 -41 The Signal Saw object is a sound generator that generates
a sawtooth wave. Use the left inlet to set the pitch (0 to 127). Connect
the outlet to any signal math objects \, any effects \, or the sound
output object., f 58;
#X text 247 -125 Recall leftmost presetto start the example.;
#X connect 7 0 2 0;
#X connect 8 0 7 0;
