#N canvas 318 75 418 348.031 10;
#X obj 128 152 ggee/image @pd_extra/K12/objects/signal_square.png 1
0 25 25 empty empty empty 110 140 1 0 10 #000000 0 -8 55 70 0 1 1;
#X obj 31 144 inlet;
#X obj 32 312 outlet~;
#X obj 31 219 phasor~;
#X obj 32 242 >~ 0.5;
#X obj 32 265 *~ 2;
#X obj 32 288 -~ 1;
#X obj 105 62 preset_node k12;
#X obj 105 169 nbx 5 19 -1e+37 1e+37 0 0 \$0-s-null \$0-r-null empty
0 -8 0 16 #fcfcfc #000000 #000000 0 256 1 0 1 0;
#X obj 31 196 mtof;
#X connect 1 0 8 0;
#X connect 4 0 5 0;
#X connect 5 0 6 0;
#X connect 6 0 2 0;
#X connect 7 0 8 0;
#X connect 8 0 9 0;
#X connect 9 0 3 0;
#X coords 0 -1 1 1 89 89 2 96 133;
#X gopspill 1;
