#N canvas 535 200 419 431 10;
#X obj 129 133 ggee/image @pd_extra/K12/objects/signal_envelope.png
1 0 25 25 empty empty empty 110 140 1 0 10 #000000 0 -8 55 70 0 1 1
;
#X obj 59 310 vline~;
#X obj 99 143 hsl 79 19 5 2000 0 0 \$0-s-null \$0-r-null attack 21
10 0 10 #fcfcfc #000000 #000000 0 1 0;
#X text 97 126 short;
#X text 156 125 long;
#X obj 99 165 hsl 79 19 5 2000 0 0 \$0-s-null \$0-r-null decay 24 9
0 10 #fcfcfc #000000 #000000 1620 1 0;
#X obj 59 267 pack 0 0 0;
#X obj 59 166 sel 1;
#X obj 59 68 inlet;
#X obj 14 402 outlet~;
#X obj 14 331 *~;
#X obj 14 68 inlet~;
#X msg 59 288 0 \, 1 \$2 \, 0 \$3 \$2;
#X obj 204 114 preset_node k12;
#X obj 204 90 preset_node k12;
#X obj 99 10 loadbang;
#X obj 99 31 t b b;
#X obj 14 366 *~;
#X obj 59 213 t b b;
#X obj 59 240 delay 5;
#X msg 119 326 0 5 \, 1 5 5;
#X obj 119 348 vline~;
#X connect 1 0 10 1;
#X connect 2 0 6 1;
#X connect 2 0 14 0;
#X connect 5 0 6 2;
#X connect 5 0 13 0;
#X connect 6 0 12 0;
#X connect 7 0 18 0;
#X connect 8 0 7 0;
#X connect 10 0 17 0;
#X connect 11 0 10 0;
#X connect 12 0 1 0;
#X connect 13 0 5 0;
#X connect 14 0 2 0;
#X connect 15 0 16 0;
#X connect 16 0 2 0;
#X connect 16 1 5 0;
#X connect 17 0 9 0;
#X connect 18 0 19 0;
#X connect 18 1 20 0;
#X connect 19 0 6 0;
#X connect 20 0 21 0;
#X connect 21 0 17 1;
#X coords 0 -1 1 1 90 90 2 96 113;
#X gopspill 1;
