#N canvas 95 64 501 449 10;
#X obj 233 -161 cnv 15 246 101 empty empty empty 20 12 0 14 #e0e0e0
#404040 0;
#X obj 383 -155 K12/preset;
#X obj 15 -42 cnv 15 471 101 empty empty empty 20 12 0 14 #e0e0e0 #404040
0;
#X obj 260 -236 preset_hub k12 %hidden% %node% 2 4 14 %preset% 0 34.8837
%preset% 1 56.9767 %preset% 2 50 %preset% 3 38.3721 %node% 2 1 7 %node%
2 4 25 %preset% 0 0 %preset% 1 0 %preset% 2 0 %preset% 3 0 %node% 2
9 6 %preset% 0 60 %preset% 1 72 %preset% 2 67 %preset% 3 64 %node%
2 10 3 %preset% 0 60 %preset% 1 72 %preset% 2 67 %preset% 3 64;
#X obj 21 83 K12/output;
#N canvas 635 172 450 514 META 0;
#X text 33 12 DESCRIPTION This generates a sine wave;
#X text 33 37 INLET_0 Send values between 0 and 127 to set the pitch
;
#X text 34 63 OUTLET_0 This outputs a sine wave. Send this to any effect
object \, signal math object \, or the sound object;
#X restore 446 172 pd META;
#X obj -1 -215 cnv 3 501 3 empty empty empty 5 14 0 20 #fc8000 #b8b8b8
0;
#X obj -1 -243 cnv 15 501 28 empty empty Signal/Sine 5 14 0 20 #880024
#fcfcfc 0;
#X obj 446 -237 ggee/image @pd_extra/K12/icons/l2ork.png 0 0 48 50
empty empty empty 48 50 1 0 10 #000000 0 -8 24 25 0 1 1;
#X obj 21 -160 K12/math_number;
#X obj 21 -37 K12/signal_sine;
#X text 115 -32 The Signal Sine object is a sound generator that generates
a sine wave. Use the left inlet to set the pitch or enter it in the
number box. The pitch is expressed in MIDI compatible format with normal
pitches being between 0 and 127 Connect the outlet to any signal math
objects \, any effects \, or the sound output object.;
#X text 241 -97 Recall leftmost presetto initialize values.;
#X connect 9 0 10 0;
#X connect 10 0 4 0;
