#N canvas 206 75 502 560 10;
#X obj 240 29 cnv 15 243 107 empty empty empty 20 12 0 14 #e0e0e0 #404040
0;
#X obj 13 313 cnv 15 468 158 empty empty empty 20 12 0 14 #e0e0e0 #404040
0;
#X obj 116 -29 preset_hub k12 %hidden% %node% 2 7 7 %node% 2 11 14
%preset% 0 30.2326 %node% 2 9 1 %preset% 0 8008 %node% 2 9 9 %preset%
0 localhost %node% 2 11 25 %preset% 0 1;
#X obj -5 -4 cnv 3 501 3 empty empty empty 5 14 0 20 #fc8000 #b8b8b8
0;
#X obj -5 -33 cnv 15 501 28 empty empty Signal/Netreceive 5 14 0 20
#880024 #fcfcfc 0;
#X obj 443 -26 ggee/image @pd_extra/K12/icons/l2ork.png 0 0 48 50 empty
empty empty 48 50 1 0 10 #000000 0 -8 24 25 0 1 1;
#N canvas 529 184 450 370 META 0;
#X text 13 6 DESCRIPTION This receives incoming sound sent to this
computer over the network;
#X text 13 47 OUTLET_0 The sound received from another computer over
the network;
#X restore 441 577 pd META;
#X obj 385 38 K12/preset 0;
#X obj 24 93 K12/signal_pink 0;
#X obj 24 208 K12/signal_netsend 0;
#X obj 24 350 K12/signal_netreceive 0;
#X obj 24 493 K12/output 0;
#X text 246 92 Recall leftmost presetto start the example.;
#X text 123 320 The Signal NetReceive object is like the Math NetReceive
object \, except that it is used to receive sound over the network
from another computer. In this example \, we are sending pink noise
to another computer. The NetSend object sends the sound to the computer
with the address 'localhost' at port 8008 ('localhost' is a special
shortcut address that means 'this computer'.) Signal NetReceive's partner
object is the Signal NetSend object.Look at the help files for the
Signal NetSend for more information on how that object works., f 58
;
#X connect 8 0 9 0;
#X connect 10 0 11 0;
