#N canvas 278 90 501 518 10;
#X obj 260 -236 preset_hub k12 %hidden% %node% 2 2 14 %preset% 0 100
%preset% 1 0 %node% 2 2 25 %preset% 0 0 %node% 2 7 6 %preset% 0 72
%node% 2 9 6 %preset% 0 -24 %node% 2 13 7 %node% 2 8 3 %node% 2 10
3;
#X obj 11 33 cnv 15 468 104 empty empty empty 20 12 0 14 #e0e0e0 #404040
0;
#X obj 18 160 K12/output;
#N canvas 710 434 450 514 META 0;
#X text 10 55 INLET_1 Send any audio signal here;
#X text 11 30 INLET_0 Send any audio signal here;
#X text 11 5 DESCRIPTION This multiplies two signals together;
#X text 10 84 OUTLET_0 This outputs the product of the two audio signals
;
#X restore 448 244 pd META;
#X obj -1 -215 cnv 3 501 3 empty empty empty 5 14 0 20 #fc8000 #b8b8b8
0;
#X obj -1 -243 cnv 15 501 28 empty empty Signal/Multiply 5 14 0 20
#880024 #fcfcfc 0;
#X obj 446 -237 ggee/image @pd_extra/K12/icons/l2ork.png 0 0 48 50
empty empty empty 48 50 1 0 10 #000000 0 -8 24 25 0 1 1;
#X obj 18 -179 K12/math_number;
#X obj 18 -81 K12/signal_sine;
#X obj 132 -179 K12/math_number;
#X obj 132 -81 K12/signal_sine;
#X obj 18 40 K12/signal_multiply;
#X obj 236 -179 cnv 15 243 107 empty empty empty 20 12 0 14 #e0e0e0
#404040 0;
#X obj 381 -170 K12/preset 0;
#X text 113 54 The Signal Multiply object multiplies two signals together.
One way to think of it is that the wave at the right inlet controls
the loudness (or amplitude) of the wave at the left inlet. The result
is the multiplication of the two signals \, or what we refer to as
amplitude modulation.;
#X text 241 -111 Recall leftmost presetto initialize values.;
#X connect 7 0 8 0;
#X connect 8 0 11 0;
#X connect 9 0 10 0;
#X connect 10 0 11 1;
#X connect 11 0 2 0;
