#N canvas 459 101 418 403 10;
#X obj 117 177 ggee/image @pd_extra/K12/objects/signal_microphone.png
1 0 25 25 empty empty empty 110 140 1 0 10 #000000 0 -8 55 70 0 1 1
;
#X obj 111 120 preset_node k12;
#X obj 111 188 vsl 34 44 0 100 0 0 \$0-s_none \$0-r_none empty 0 -9
0 10 #fcfcfc #000000 #000000 0 1 0;
#N canvas 0 0 271 201 level 0;
#X obj 49 8 inlet~;
#X obj 48 99 *~;
#X obj 152 8 inlet;
#X obj 152 82 line~;
#X obj 48 121 outlet~;
#X obj 152 38 / 100;
#X msg 152 60 \$1 50;
#X connect 0 0 1 0;
#X connect 1 0 4 0;
#X connect 2 0 5 0;
#X connect 3 0 1 1;
#X connect 5 0 6 0;
#X connect 6 0 3 0;
#X restore 251 149 pd level;
#X obj 250 93 adc~ 1;
#X obj 220 223 outlet~;
#X obj 276 223 env~ 1600 800;
#X obj 276 255 - 100;
#X obj 276 283 / 100;
#X obj 276 310 expr 1+$f1;
#X obj 276 335 speedlim 10;
#X obj 276 357 outlet;
#X connect 1 0 2 0;
#X connect 2 0 3 1;
#X connect 3 0 5 0;
#X connect 3 0 6 0;
#X connect 4 0 3 0;
#X connect 6 0 7 0;
#X connect 7 0 8 0;
#X connect 8 0 9 0;
#X connect 9 0 10 0;
#X connect 10 0 11 0;
#X coords 0 -1 1 1 90 90 2 84 157;
