#N canvas 533 67 343 230 10;
#X obj 131 114 ggee/image @pd_extra/K12/objects/signal_multiply.png
1 0 25 25 empty empty empty 110 140 1 0 10 #000000 0 -8 55 70 0 1 1
;
#X obj 42 87 *~;
#X obj 41 29 inlet~;
#X obj 87 29 inlet~;
#X obj 42 171 outlet~;
#X connect 1 0 4 0;
#X connect 2 0 1 0;
#X connect 3 0 1 1;
#X coords 0 -1 1 1 90 90 2 98 94;
#X gopspill 1;
