#N canvas 605 331 488 320 10;
#X obj 254 116 bng 14 250 50 0 empty empty empty 17 7 0 10 #fcfcfc
#000000 #000000;
#X obj 245 134 bng 32 250 50 0 empty empty empty 17 7 0 10 #fcfcfc
#000000 #000000;
#X obj 65 273 outlet;
#X obj 65 5 inlet;
#X msg 141 180 2;
#X msg 171 180 1;
#X obj 65 208 & 8;
#X obj 65 97 route button;
#X obj 65 229 > 0;
#X obj 249 94 ggee/image @pd_extra/K12/objects/wii_nunchuk_buttons.png
1 0 25 25 empty empty empty 110 170 1 0 10 #000000 0 -8 55 85 0 1 1
;
#X obj 65 26 route nunchuk passthrough motionplus;
#N canvas 411 217 455 392 check_4_wiimote_passthrough 0;
#X obj 177 22 inlet;
#X obj 246 22 inlet;
#X obj 132 252 t 1 f;
#X obj 132 329 s;
#X obj 159 279 change;
#X msg 159 300 symbol passthrough-\$1;
#X obj 132 231 gate 1 0;
#X obj 246 101 counter 0 10;
#X obj 246 122 sel 0;
#X obj 246 143 t 1 b;
#X obj 273 165 delay 2000;
#X msg 273 186 0;
#X obj 246 59 route angle_rate;
#X obj 246 80 t b;
#X connect 0 0 6 1;
#X connect 1 0 12 0;
#X connect 2 0 3 0;
#X connect 2 1 4 0;
#X connect 4 0 5 0;
#X connect 5 0 3 1;
#X connect 6 0 2 0;
#X connect 7 0 8 0;
#X connect 8 0 9 0;
#X connect 9 0 6 0;
#X connect 9 1 10 0;
#X connect 10 0 11 0;
#X connect 11 0 6 0;
#X connect 12 0 13 0;
#X connect 13 0 7 0;
#X restore 136 53 pd check_4_wiimote_passthrough;
#X floatatom 141 230 5 0 0 0 - - - 0 0, f 5;
#X obj 141 251 sel 2 1;
#X obj 90 139 preset_node k12;
#X obj 249 94 ggee/image @pd_extra/K12/objects/wii_nunchuk_buttons_C.png
1 0 25 25 empty empty empty 110 170 1 0 10 #000000 0 -8 55 85 0 0 1
;
#X obj 249 94 ggee/image @pd_extra/K12/objects/wii_nunchuk_buttons_Z.png
1 0 25 25 empty empty empty 110 170 1 0 10 #000000 0 -8 55 85 0 0 1
;
#X msg 141 284 visible 1;
#X msg 207 284 visible 0;
#X msg 273 284 visible 1;
#X msg 339 284 visible 0;
#X msg 406 284 visible 0;
#X connect 0 0 4 0;
#X connect 1 0 5 0;
#X connect 3 0 10 0;
#X connect 4 0 12 0;
#X connect 5 0 12 0;
#X connect 6 0 8 0;
#X connect 7 0 6 0;
#X connect 8 0 2 0;
#X connect 10 0 7 0;
#X connect 10 1 11 0;
#X connect 10 2 11 1;
#X connect 12 0 6 1;
#X connect 12 0 13 0;
#X connect 13 0 18 0;
#X connect 13 0 17 0;
#X connect 13 0 21 0;
#X connect 13 1 19 0;
#X connect 13 1 20 0;
#X connect 13 1 21 0;
#X connect 14 0 12 0;
#X connect 17 0 15 0;
#X connect 18 0 16 0;
#X connect 19 0 16 0;
#X connect 20 0 15 0;
#X connect 21 0 9 0;
#X coords 0 -1 1 1 90 90 2 216 89;
#X gopspill 1;
