#N canvas 264 216 501 307 10;
#X obj 10 39 cnv 15 469 182 empty empty empty 20 12 0 14 #e0e0e0 #404040
0;
#X obj 113 201 cnv 13 258 13 empty empty empty 20 12 0 14 #f8a872 #404040
0;
#X obj 215 -28 preset_hub k12 %hidden%;
#X obj 17 46 K12/wii_connect;
#X text 114 95 2 On the wiimote \, simultaneously press buttons 1 &
2;
#X text 114 42 The Wii Connect object is the first step in setting
up a new instrument. To connect the wiimote \, follow these steps:
, f 59;
#N canvas 1229 456 450 514 META 0;
#X text 10 6 DESCRIPTION Press the "Connect" button to connect the
wiimote to the computer;
#X text 10 34 OUTLET_0 Connect this to any of the light blue wiimote
objects;
#X restore 441 241 pd META;
#X text 114 78 1 Click the red connect button;
#X text 114 112 3 When the wiimote vibrates and the button turns green
\, it is connected.;
#X text 114 144 To disconnect \, simply press the same button. When
it turns red \, it has disconnnected.;
#X obj -6 -5 cnv 3 501 3 empty empty empty 5 14 0 20 #fc8000 #b8b8b8
0;
#X text 114 180 Connect the outlet to any of the blue wiimote objects.
;
#X obj -6 -34 cnv 15 501 28 empty empty Wii/Connect 5 14 0 20 #880024
#fcfcfc 0;
#X obj 441 -26 ggee/image @pd_extra/K12/icons/l2ork.png 0 0 48 50 empty
empty empty 48 50 1 0 10 #000000 0 -8 24 25 0 1 1;
#X text 114 200 IMPORTANT! Wii object only works on Linux.;
