#N canvas 362 73 501 451 10;
#X obj 8 132 cnv 15 477 170 empty empty empty 20 12 0 14 #e0e0e0 #404040
0;
#X obj 14 138 K12/wii_hit;
#N canvas 572 86 395 115 META 0;
#X text 8 33 INLET_0 Connect the Wii Connect object here;
#X text 8 9 DESCRIPTION Registers jolts from the Wiimote as hits;
#X text 7 58 OUTLET_0 Outputs 1 when a hit has been detected and a
0 once the hit has ended;
#X restore 442 381 pd META;
#X obj 14 21 K12/wii_connect;
#X obj -2 -6 cnv 3 501 3 empty empty empty 5 14 0 20 #fc8000 #b8b8b8
0;
#X obj 14 320 K12/math_number;
#X obj 241 -30 preset_hub k12 %hidden% %node% 2 5 6 %node% 2 1 35 %node%
2 1 36;
#X obj -2 -35 cnv 15 501 28 empty empty Wii/Hit 5 14 0 20 #880024 #fcfcfc
0;
#X obj 444 -27 ggee/image @pd_extra/K12/icons/l2ork.png 0 0 48 50 empty
empty empty 48 50 1 0 10 #000000 0 -8 24 25 0 1 1;
#X text 113 137 The Wii Nunchuk Hit object takes one input from the
Wii Connect object. It calculates when the Wiimote is jolted as it
has hit something (e.g. a mallet hitting a drum).Use high setting
to adjust the threshold of acceleration necessary to trigger a hit
\, and use the low setting for a threshold which acceleration needs
to drop below before the next hit can be detected.This object outputs
a 0 if no hit is occuring \, and a 1 if a hit occurs. Connect the outlet
to an instrument or math object.;
#X connect 1 0 5 0;
#X connect 3 0 1 0;
