#N canvas 754 231 417 532 10;
#X obj 238 358 ggee/image @pd_extra/K12/objects/wii_nunchuk_hit6.png
1 0 25 25 empty empty empty 110 140 1 0 10 #000000 0 -8 55 70 0 1 1
;
#X obj 238 358 ggee/image @pd_extra/K12/objects/wii_nunchuk_hit5.png
1 0 25 25 empty empty empty 110 140 1 0 10 #000000 0 -8 55 70 0 1 1
;
#X obj 238 358 ggee/image @pd_extra/K12/objects/wii_nunchuk_hit4.png
1 0 25 25 empty empty empty 110 140 1 0 10 #000000 0 -8 55 70 0 1 1
;
#X obj 238 358 ggee/image @pd_extra/K12/objects/wii_nunchuk_hit3.png
1 0 25 25 empty empty empty 110 140 1 0 10 #000000 0 -8 55 70 0 1 1
;
#X obj 238 358 ggee/image @pd_extra/K12/objects/wii_nunchuk_hit2.png
1 0 25 25 empty empty empty 110 140 1 0 10 #000000 0 -8 55 70 0 1 1
;
#X obj 238 358 ggee/image @pd_extra/K12/objects/wii_nunchuk_hit1.png
1 0 25 25 empty empty empty 110 140 1 0 10 #000000 0 -8 55 70 0 1 1
;
#X obj 15 150 expr sqrt(pow($f1 \, 2) + pow($f2 \, 2) + pow($f3 \,
2));
#X obj 15 200 -;
#X obj 15 173 t f f;
#X obj 15 221 abs;
#X obj 21 413 gate 1 1;
#X msg 48 458 0;
#X obj 56 324 sel 1;
#X msg 56 345 1;
#X obj 110 505 outlet;
#X obj 56 304 < 0.02;
#X msg 28 345 0;
#X obj 56 283 gate 1 0;
#X msg 79 458 1;
#X obj 15 390 moses 0.3;
#X obj 15 15 inlet;
#X obj 15 87 route acceleration;
#X obj 15 108 unpack 0 0 0;
#X obj 159 241 select 0 1;
#X obj 159 197 expr if ($f1 > 0 \, 1 \, 0);
#X obj 187 267 delay 100;
#X obj 56 367 pipe 50;
#X obj 21 436 t f b;
#X msg 110 457 1 \, 0 250;
#X obj 110 481 line;
#X obj 159 219 change;
#X obj 208 370 nbx 4 14 0 1e+37 0 1 \$0-s-null \$0-r-null empty 0 -8
0 10 #fcfcfc #000000 #000000 0.3 256 3 0 1 0;
#X obj 208 392 nbx 4 14 0 1e+37 0 1 \$0-s-null \$0-r-null empty 0 -8
0 10 #fcfcfc #000000 #000000 0.02 256 3 0 1 0;
#X text 215 358 high;
#X text 215 381 low;
#X obj 301 339 preset_node k12;
#X obj 301 361 preset_node k12;
#X obj 15 36 route nunchuk passthrough motionplus;
#N canvas 411 217 455 392 check_4_wiimote_passthrough 0;
#X obj 177 22 inlet;
#X obj 246 22 inlet;
#X obj 132 252 t 1 f;
#X obj 132 329 s;
#X obj 159 279 change;
#X msg 159 300 symbol passthrough-\$1;
#X obj 132 231 gate 1 0;
#X obj 246 101 counter 0 10;
#X obj 246 122 sel 0;
#X obj 246 143 t 1 b;
#X obj 273 165 delay 2000;
#X msg 273 186 0;
#X obj 246 59 route angle_rate;
#X obj 246 80 t b;
#X connect 0 0 6 1;
#X connect 1 0 12 0;
#X connect 2 0 3 0;
#X connect 2 1 4 0;
#X connect 4 0 5 0;
#X connect 5 0 3 1;
#X connect 6 0 2 0;
#X connect 7 0 8 0;
#X connect 8 0 9 0;
#X connect 9 0 6 0;
#X connect 9 1 10 0;
#X connect 10 0 11 0;
#X connect 11 0 6 0;
#X connect 12 0 13 0;
#X connect 13 0 7 0;
#X restore 86 65 pd check_4_wiimote_passthrough;
#N canvas 938 247 465 442 delays 0;
#X obj 51 405 outlet;
#X obj 51 16 inlet;
#X obj 339 16 inlet;
#X obj 339 74 delay 15;
#X obj 339 121 delay 15;
#X obj 339 174 delay 15;
#X obj 339 228 delay 15;
#X obj 339 279 delay 15;
#X obj 339 334 delay 15;
#X msg 60 38 stop;
#X msg 51 118 visible 0;
#X obj 101 406 outlet;
#X obj 151 406 outlet;
#X obj 201 406 outlet;
#X obj 251 406 outlet;
#X msg 51 168 visible 1;
#X msg 51 216 visible 1;
#X msg 51 270 visible 1;
#X msg 51 322 visible 1;
#X msg 51 368 visible 1;
#X connect 1 0 10 0;
#X connect 1 0 9 0;
#X connect 2 0 3 0;
#X connect 3 0 10 0;
#X connect 3 0 4 0;
#X connect 4 0 15 0;
#X connect 4 0 5 0;
#X connect 5 0 16 0;
#X connect 5 0 6 0;
#X connect 6 0 17 0;
#X connect 6 0 7 0;
#X connect 7 0 18 0;
#X connect 7 0 8 0;
#X connect 8 0 19 0;
#X connect 9 0 3 0;
#X connect 9 0 4 0;
#X connect 9 0 5 0;
#X connect 9 0 6 0;
#X connect 9 0 7 0;
#X connect 9 0 8 0;
#X connect 10 0 11 0;
#X connect 10 0 12 0;
#X connect 10 0 13 0;
#X connect 10 0 14 0;
#X connect 10 0 0 0;
#X connect 15 0 0 0;
#X connect 16 0 11 0;
#X connect 17 0 12 0;
#X connect 18 0 13 0;
#X connect 19 0 14 0;
#X restore 226 294 pd delays;
#X connect 6 0 8 0;
#X connect 7 0 9 0;
#X connect 8 0 7 1;
#X connect 8 1 7 0;
#X connect 9 0 17 1;
#X connect 9 0 19 0;
#X connect 10 0 27 0;
#X connect 11 0 10 0;
#X connect 12 0 13 0;
#X connect 12 0 16 0;
#X connect 13 0 26 0;
#X connect 15 0 12 0;
#X connect 16 0 17 0;
#X connect 17 0 15 0;
#X connect 18 0 17 0;
#X connect 19 1 10 1;
#X connect 20 0 37 0;
#X connect 21 0 22 0;
#X connect 22 0 6 0;
#X connect 22 1 6 1;
#X connect 22 2 6 2;
#X connect 23 1 25 0;
#X connect 23 1 39 0;
#X connect 24 0 30 0;
#X connect 25 0 39 1;
#X connect 26 0 10 0;
#X connect 27 1 11 0;
#X connect 27 1 18 0;
#X connect 27 1 28 0;
#X connect 28 0 29 0;
#X connect 29 0 24 0;
#X connect 29 0 14 0;
#X connect 30 0 23 0;
#X connect 31 0 35 0;
#X connect 31 0 19 1;
#X connect 32 0 36 0;
#X connect 32 0 15 1;
#X connect 35 0 31 0;
#X connect 36 0 32 0;
#X connect 37 0 21 0;
#X connect 37 1 38 0;
#X connect 37 2 38 1;
#X connect 39 0 1 0;
#X connect 39 1 2 0;
#X connect 39 2 3 0;
#X connect 39 3 4 0;
#X connect 39 4 5 0;
#X coords 0 -1 1 1 89 89 2 206 339;
#X gopspill 1;
