#N canvas 570 143 373 366 10;
#X obj 27 271 disis_wiimote;
#X obj 27 38 bng 76 250 50 0 empty connect_r empty 17 7 0 10 #fc2828
#000000 #fcfcfc;
#X obj 27 293 outlet;
#N canvas 96 309 648 345 running_the_wiimote 0;
#X obj 20 8 inlet;
#X obj 20 318 outlet;
#X msg 20 113 discover;
#X obj 191 84 metro 100;
#X obj 191 55 tgl 15 0 empty empty empty 17 7 0 10 #fcfcfc #000000
#000000 0 1;
#X msg 262 84 reportAcceleration \$1;
#X obj 262 57 tgl 15 0 empty empty empty 17 7 0 10 #fcfcfc #000000
#000000 0 1;
#X obj 408 59 tgl 15 0 empty empty empty 17 7 0 10 #fcfcfc #000000
#000000 0 1;
#X obj 227 8 inlet;
#X text 281 5 On connection \, start these;
#X msg 94 113 disconnect;
#X obj 94 8 inlet;
#X msg 408 84 reportExpansion \$1;
#X obj 408 230 tgl 15 0 empty empty empty 17 7 0 10 #fcfcfc #000000
#000000 0 1;
#X msg 408 271 togglePassthrough \$1;
#X obj 191 135 sel 0;
#X obj 191 114 counter 0 10;
#X obj 191 318 outlet;
#X obj 440 180 delay 2000;
#X msg 440 201 0;
#X obj 408 155 t f b;
#X obj 408 250 change;
#X obj 408 134 r passthrough-\$0;
#X obj 191 156 f \$0;
#X msg 191 177 passthrough \$1;
#X connect 0 0 2 0;
#X connect 2 0 1 0;
#X connect 3 0 1 0;
#X connect 3 0 16 0;
#X connect 4 0 3 0;
#X connect 5 0 1 0;
#X connect 6 0 5 0;
#X connect 7 0 12 0;
#X connect 8 0 4 0;
#X connect 8 0 6 0;
#X connect 8 0 7 0;
#X connect 10 0 1 0;
#X connect 11 0 10 0;
#X connect 12 0 1 0;
#X connect 13 0 21 0;
#X connect 14 0 1 0;
#X connect 15 0 23 0;
#X connect 16 0 15 0;
#X connect 18 0 19 0;
#X connect 19 0 13 0;
#X connect 20 0 13 0;
#X connect 20 1 18 0;
#X connect 21 0 14 0;
#X connect 22 0 20 0;
#X connect 23 0 24 0;
#X connect 24 0 17 0;
#X restore 27 249 pd running_the_wiimote;
#X obj 27 227 delay 1000;
#X obj 53 51 ggee/image @pd_extra/K12/objects/wii_connect_off.png 1
0 25 25 empty empty empty 110 140 1 0 10 #000000 0 -8 55 70 0 1 1;
#X obj 199 293 select 0 1 2;
#X msg 169 249 2;
#X obj 199 227 delay 10000;
#X msg 199 249 0;
#X msg 129 336 stop;
#N canvas 3 75 315 316 on_off_logic 0;
#X obj 60 21 inlet;
#X obj 138 22 inlet;
#X obj 138 57 expr if ($f1 == 1 \, 2 \, 1);
#X obj 61 270 outlet;
#X obj 158 183 outlet;
#X obj 61 101 gate 2 1;
#X obj 98 125 t b b;
#X obj 98 211 delay 1000;
#X connect 0 0 5 1;
#X connect 1 0 2 0;
#X connect 2 0 5 0;
#X connect 5 0 3 0;
#X connect 5 1 6 0;
#X connect 6 0 7 0;
#X connect 6 1 4 0;
#X connect 7 0 3 0;
#X restore 27 185 pd on_off_logic;
#X obj 53 51 ggee/image @pd_extra/K12/objects/wii_connect_pending.png
1 0 25 25 empty empty empty 110 140 1 0 10 #000000 0 -8 55 70 0 0 1
;
#X obj 53 51 ggee/image @pd_extra/K12/objects/wii_connect_on.png 1
0 25 25 empty empty empty 110 140 1 0 10 #000000 0 -8 55 70 0 0 1;
#X msg 156 28 visible \$1;
#X msg 225 28 visible \$1;
#X msg 294 28 visible \$1;
#X obj 156 4 t 1 0;
#X obj 230 4 t 1 0;
#X obj 193 4 t 1 0;
#X connect 0 0 2 0;
#X connect 0 1 3 2;
#X connect 0 1 6 0;
#X connect 0 1 11 1;
#X connect 1 0 11 0;
#X connect 3 0 0 0;
#X connect 3 1 2 0;
#X connect 4 0 3 0;
#X connect 6 0 17 0;
#X connect 6 1 10 0;
#X connect 6 1 18 0;
#X connect 6 2 19 0;
#X connect 7 0 6 0;
#X connect 8 0 9 0;
#X connect 9 0 6 0;
#X connect 10 0 8 0;
#X connect 11 0 4 0;
#X connect 11 0 7 0;
#X connect 11 0 8 0;
#X connect 11 1 3 1;
#X connect 14 0 5 0;
#X connect 15 0 12 0;
#X connect 16 0 13 0;
#X connect 17 0 14 0;
#X connect 17 1 15 0;
#X connect 17 1 16 0;
#X connect 18 0 16 0;
#X connect 18 1 14 0;
#X connect 18 1 15 0;
#X connect 19 0 15 0;
#X connect 19 1 16 0;
#X connect 19 1 14 0;
#X coords 0 -1 1 1 90 90 2 20 31;
