#N canvas 319 208 341 392 10;
#X obj 26 358 outlet;
#X obj 25 15 inlet;
#X obj 209 199 ggee/image @pd_extra/K12/objects/wii_nunchuk_stick.png
1 0 25 25 empty empty empty 110 140 1 0 10 #000000 0 -8 55 70 0 1 1
;
#X obj 82 358 outlet;
#X obj 25 269 unpack 0 0;
#X obj 25 246 route stick;
#X obj 26 298 / 128;
#X obj 26 319 - 1;
#X obj 82 298 / 128;
#X obj 82 319 - 1;
#X obj 25 36 route nunchuk passthrough motionplus;
#N canvas 411 217 455 392 check_4_wiimote_passthrough 0;
#X obj 177 22 inlet;
#X obj 246 22 inlet;
#X obj 132 252 t 1 f;
#X obj 132 329 s;
#X obj 159 279 change;
#X msg 159 300 symbol passthrough-\$1;
#X obj 132 231 gate 1 0;
#X obj 246 101 counter 0 10;
#X obj 246 122 sel 0;
#X obj 246 143 t 1 b;
#X obj 273 165 delay 2000;
#X msg 273 186 0;
#X obj 246 59 route angle_rate;
#X obj 246 80 t b;
#X connect 0 0 6 1;
#X connect 1 0 12 0;
#X connect 2 0 3 0;
#X connect 2 1 4 0;
#X connect 4 0 5 0;
#X connect 5 0 3 1;
#X connect 6 0 2 0;
#X connect 7 0 8 0;
#X connect 8 0 9 0;
#X connect 9 0 6 0;
#X connect 9 1 10 0;
#X connect 10 0 11 0;
#X connect 11 0 6 0;
#X connect 12 0 13 0;
#X connect 13 0 7 0;
#X restore 96 73 pd check_4_wiimote_passthrough;
#X connect 1 0 10 0;
#X connect 4 0 6 0;
#X connect 4 1 8 0;
#X connect 5 0 4 0;
#X connect 6 0 7 0;
#X connect 7 0 0 0;
#X connect 8 0 9 0;
#X connect 9 0 3 0;
#X connect 10 0 5 0;
#X connect 10 1 11 0;
#X connect 10 2 11 1;
#X coords 0 -1 1 1 90 90 2 176 179;
