#N canvas 693 145 432 319 10;
#X obj 46 268 outlet;
#X obj 65 25 inlet;
#X obj 65 47 route acceleration;
#X obj 65 70 unpack 0 0 0;
#X obj 249 109 ggee/image @pd_extra/K12/objects/wii_accelerometer.png
1 0 25 25 empty empty empty 110 140 1 0 10 #000000 0 -8 55 70 0 1 1
;
#X obj 311 89 preset_node k12;
#X obj 46 217 switch 3 1;
#X obj 238 139 hradio 15 1 0 3 empty empty empty 0 -8 0 10 #fcfcfc
#000000 #000000 0;
#X obj 46 238 / 4.846;
#X obj 235 111 cnv 13 14 13 empty \$0-compare x 20 12 0 18 #fcfcfc
#404040 0;
#X obj 238 188 select 0 1 2;
#X obj 238 232 tosymbol;
#X obj 238 277 s \$0-compare;
#X msg 238 254 label \$1;
#X msg 238 210 x;
#X msg 267 210 y;
#X msg 296 210 z;
#X obj 46 196 + 1;
#X connect 1 0 2 0;
#X connect 2 0 3 0;
#X connect 3 0 6 1;
#X connect 3 1 6 2;
#X connect 3 2 6 3;
#X connect 5 0 7 0;
#X connect 6 0 8 0;
#X connect 7 0 10 0;
#X connect 7 0 17 0;
#X connect 8 0 0 0;
#X connect 10 0 14 0;
#X connect 10 1 15 0;
#X connect 10 2 16 0;
#X connect 11 0 13 0;
#X connect 13 0 12 0;
#X connect 14 0 11 0;
#X connect 15 0 11 0;
#X connect 16 0 11 0;
#X connect 17 0 6 0;
#X coords 0 -1 1 1 90 90 2 216 89;
