#N canvas 761 207 501 541 10;
#X obj 8 133 cnv 15 480 262 empty empty empty 20 12 0 14 #e0e0e0 #404040
0;
#N canvas 507 463 450 407 META 0;
#X text 8 43 INLET_0 Connect the Wii Connect object here;
#X text 7 68 OUTLET_0 Outputs values between -1 and 1 for the selected
axis;
#X text 8 9 DESCRIPTION Monitors Motion Plus x-axis \, y \, or z-axis
speed;
#X restore 443 473 pd META;
#X obj 14 21 K12/wii_connect;
#X obj -2 -6 cnv 3 501 3 empty empty empty 5 14 0 20 #fc8000 #b8b8b8
0;
#X obj 14 418 K12/math_number;
#X obj 241 -30 preset_hub k12 %hidden% %node% 2 4 6 %node% 2 8 6;
#X obj -2 -35 cnv 15 501 28 empty empty Wii/SpeedXRY 5 14 0 20 #880024
#fcfcfc 0;
#X obj 444 -27 ggee/image @pd_extra/K12/icons/l2ork.png 0 0 48 50 empty
empty empty 48 50 1 0 10 #000000 0 -8 24 25 0 1 1;
#X obj 14 139 K12/wii_speed_xry;
#X text 111 139 The Wii Speed XRY (X axis \, Roll \, Y-axis) object
takes one input from the Wii Connect object. It provides Motion Plus's
angular speed of the selected axis. This object REQUIRES MOTION PLUS
to work. It outputs values between -1 and 1 reflecting speed and direction.
Its output can be used in data calculations or to drive an instrumentt
(e.g. control how loud it is based on wiimote motion.Click on one
of the three buttons to select x \, roll \, or y axis as your source
or click anywhere else inside the object to recalibrate motion plus.The
object will automatically calibrate itself as soon as it receives first
data from the wiimote object. In case the object outputs value other
than 0 while Wiimote is still \, it may need to be recalibrated. To
manually recalibrate motion plus \, place wiimote on a flat surface
\, make sure it is still and click in the center of the object outside
the three boxes., f 61;
#X connect 2 0 8 0;
#X connect 8 0 4 0;
