#N canvas 693 145 509 603 10;
#X obj 249 319 ggee/image @pd_extra/K12/objects/wii_hit6.png 1 0 25
25 empty empty empty 110 140 1 0 10 #000000 0 -8 55 70 0 1 1;
#X obj 249 319 ggee/image @pd_extra/K12/objects/wii_hit5.png 1 0 25
25 empty empty empty 110 140 1 0 10 #000000 0 -8 55 70 0 1 1;
#X obj 249 319 ggee/image @pd_extra/K12/objects/wii_hit4.png 1 0 25
25 empty empty empty 110 140 1 0 10 #000000 0 -8 55 70 0 1 1;
#X obj 249 319 ggee/image @pd_extra/K12/objects/wii_hit3.png 1 0 25
25 empty empty empty 110 140 1 0 10 #000000 0 -8 55 70 0 1 1;
#X obj 249 319 ggee/image @pd_extra/K12/objects/wii_hit2.png 1 0 25
25 empty empty empty 110 140 1 0 10 #000000 0 -8 55 70 0 1 1;
#X obj 249 319 ggee/image @pd_extra/K12/objects/wii_hit1.png 1 0 25
25 empty empty empty 110 140 1 0 10 #000000 0 -8 55 70 0 1 1;
#X obj 25 110 expr sqrt(pow($f1 \, 2) + pow($f2 \, 2) + pow($f3 \,
2));
#X obj 25 160 -;
#X obj 25 133 t f f;
#X obj 25 181 abs;
#X obj 31 373 gate 1 1;
#X msg 58 418 0;
#X obj 66 284 sel 1;
#X msg 66 305 1;
#X obj 120 465 outlet;
#X obj 66 264 < 0.02;
#X msg 38 305 0;
#X obj 66 243 gate 1 0;
#X msg 89 418 1;
#X obj 25 350 moses 0.3;
#X obj 25 15 inlet;
#X obj 25 37 route acceleration;
#X obj 25 60 unpack 0 0 0;
#X obj 169 201 select 0 1;
#X obj 169 157 expr if ($f1 > 0 \, 1 \, 0);
#X obj 197 227 delay 100;
#X obj 66 327 pipe 50;
#X obj 31 396 t f b;
#X msg 120 417 1 \, 0 250;
#X obj 120 441 line;
#X obj 169 179 change;
#X obj 218 330 nbx 4 14 0 1e+37 0 1 \$0-s-null \$0-r-null empty 0 -8
0 10 #fcfcfc #000000 #000000 0.3 256 3 0;
#X obj 218 352 nbx 4 14 0 1e+37 0 1 \$0-s-null \$0-r-null empty 0 -8
0 10 #fcfcfc #000000 #000000 0.02 256 3 0;
#X text 225 318 high;
#X text 225 341 low;
#X obj 311 299 preset_node k12;
#X obj 311 321 preset_node k12;
#N canvas 938 247 465 442 delays 0;
#X obj 51 405 outlet;
#X obj 51 16 inlet;
#X obj 339 16 inlet;
#X obj 339 74 delay 15;
#X obj 339 121 delay 15;
#X obj 339 174 delay 15;
#X obj 339 228 delay 15;
#X obj 339 279 delay 15;
#X obj 339 334 delay 15;
#X msg 60 38 stop;
#X msg 51 118 visible 0;
#X obj 101 406 outlet;
#X obj 151 406 outlet;
#X obj 201 406 outlet;
#X obj 251 406 outlet;
#X msg 51 168 visible 1;
#X msg 51 216 visible 1;
#X msg 51 270 visible 1;
#X msg 51 322 visible 1;
#X msg 51 368 visible 1;
#X connect 1 0 10 0;
#X connect 1 0 9 0;
#X connect 2 0 3 0;
#X connect 3 0 10 0;
#X connect 3 0 4 0;
#X connect 4 0 15 0;
#X connect 4 0 5 0;
#X connect 5 0 16 0;
#X connect 5 0 6 0;
#X connect 6 0 17 0;
#X connect 6 0 7 0;
#X connect 7 0 18 0;
#X connect 7 0 8 0;
#X connect 8 0 19 0;
#X connect 9 0 3 0;
#X connect 9 0 4 0;
#X connect 9 0 5 0;
#X connect 9 0 6 0;
#X connect 9 0 7 0;
#X connect 9 0 8 0;
#X connect 10 0 11 0;
#X connect 10 0 12 0;
#X connect 10 0 13 0;
#X connect 10 0 14 0;
#X connect 10 0 0 0;
#X connect 15 0 0 0;
#X connect 16 0 11 0;
#X connect 17 0 12 0;
#X connect 18 0 13 0;
#X connect 19 0 14 0;
#X restore 141 251 pd delays;
#X connect 6 0 8 0;
#X connect 7 0 9 0;
#X connect 8 0 7 1;
#X connect 8 1 7 0;
#X connect 9 0 17 1;
#X connect 9 0 19 0;
#X connect 10 0 27 0;
#X connect 11 0 10 0;
#X connect 12 0 13 0;
#X connect 12 0 16 0;
#X connect 13 0 26 0;
#X connect 15 0 12 0;
#X connect 16 0 17 0;
#X connect 17 0 15 0;
#X connect 18 0 17 0;
#X connect 19 1 10 1;
#X connect 20 0 21 0;
#X connect 21 0 22 0;
#X connect 22 0 6 0;
#X connect 22 1 6 1;
#X connect 22 2 6 2;
#X connect 23 1 25 0;
#X connect 23 1 37 0;
#X connect 24 0 30 0;
#X connect 25 0 37 1;
#X connect 26 0 10 0;
#X connect 27 1 11 0;
#X connect 27 1 18 0;
#X connect 27 1 28 0;
#X connect 28 0 29 0;
#X connect 29 0 24 0;
#X connect 29 0 14 0;
#X connect 30 0 23 0;
#X connect 31 0 35 0;
#X connect 31 0 19 1;
#X connect 32 0 36 0;
#X connect 32 0 15 1;
#X connect 35 0 31 0;
#X connect 36 0 32 0;
#X connect 37 0 1 0;
#X connect 37 1 2 0;
#X connect 37 2 3 0;
#X connect 37 3 4 0;
#X connect 37 4 5 0;
#X coords 0 -1 1 1 90 90 2 216 299;
#X gopspill 1;
