#N canvas 72 166 1311 565 10;
#X obj 199 359 disis_wiimote_legacy;
#X obj 199 17 bng 40 250 50 0 empty l2orkmote-pair-button PAIR 8 20
0 10 #fc2828 #202020 #202020 1;
#X msg 266 338 disconnect;
#X obj 266 297 gate 1 0;
#X msg 316 408 reportAcceleration \$1 \, reportExpansion \$1 \, togglePassthrough
\$1, f 22;
#X obj 210 318 tgl 15 0 empty empty empty 17 7 0 10 #fcfcfc #000000
#000000 0 1 1;
#X obj 210 338 metro 25;
#N canvas 566 54 638 521 l2ork_wiimote_connect 1;
#X obj 41 143 shell;
#X obj 41 32 inlet;
#X obj 41 266 outlet;
#X obj 68 80 s l2ork-init-monitor-ip;
#X obj 41 56 t b b;
#X msg 41 119 ~/L2Ork/PD/Abstractions/whatismyl2orkmote;
#X obj 87 266 outlet;
#X obj 134 436 outlet;
#X obj 41 222 route left right;
#X msg 198 356 discover;
#X msg 134 356 discover;
#X obj 134 288 delay 500;
#X obj 134 266 t b b 2, f 22;
#X obj 198 336 t b b;
#X obj 134 336 t b b;
#X obj 184 436 outlet;
#X obj 284 436 outlet;
#X obj 334 436 outlet;
#X obj 234 436 outlet;
#X obj 358 163 shell;
#X msg 358 139 ~/L2Ork/PD/Abstractions/whatismyl2orkmote;
#X obj 310 80 r l2orkmote-left-connect;
#X obj 313 186 gate 2 1;
#X obj 310 102 t b 1;
#X obj 313 218 route left;
#X obj 383 218 route right;
#X obj 463 102 t b 2;
#X obj 463 80 r l2orkmote-right-connect;
#X connect 0 0 8 0;
#X connect 1 0 4 0;
#X connect 4 0 5 0;
#X connect 4 1 3 0;
#X connect 5 0 0 0;
#X connect 8 0 2 0;
#X connect 8 1 6 0;
#X connect 8 2 12 0;
#X connect 9 0 15 0;
#X connect 10 0 7 0;
#X connect 11 0 14 0;
#X connect 12 0 11 0;
#X connect 12 1 13 0;
#X connect 12 2 17 0;
#X connect 13 0 9 0;
#X connect 13 1 16 0;
#X connect 14 0 10 0;
#X connect 14 1 18 0;
#X connect 19 0 22 1;
#X connect 20 0 19 0;
#X connect 21 0 23 0;
#X connect 22 0 24 0;
#X connect 22 1 25 0;
#X connect 23 0 20 0;
#X connect 23 1 22 0;
#X connect 24 0 2 0;
#X connect 24 1 13 0;
#X connect 25 0 6 0;
#X connect 25 1 14 0;
#X connect 26 0 20 0;
#X connect 26 1 22 0;
#X connect 27 0 26 0;
#X restore 199 136 pd l2ork_wiimote_connect;
#X obj 241 17 bng 40 250 50 0 l2orkmote-left-plus-calibrate l2orkmote-left-plus-calibrate-button
LEFT 8 20 0 10 #202020 #202020 #fcfcfc 1;
#X msg 199 246 connect \$1;
#X obj 199 226 tosymbol;
#X obj 283 17 bng 40 250 50 0 l2orkmote-right-plus-calibrate l2orkmote-right-plus-calibrate-button
RIGHT 5 20 0 10 #202020 #202020 #fcfcfc 1;
#X obj 266 317 t b;
#X obj 813 359 disis_wiimote_legacy;
#X obj 824 318 tgl 15 0 empty empty empty 17 7 0 10 #fcfcfc #000000
#000000 0 1 1;
#X obj 824 338 metro 25;
#X msg 930 408 reportAcceleration \$1 \, reportExpansion \$1 \, togglePassthrough
\$1, f 22;
#X obj 118 173 * 2;
#X obj 118 195 t b f;
#X obj 118 225 +, f 2;
#X obj 930 386 pipe 100;
#X obj 316 386 pipe 100;
#X msg 880 338 disconnect;
#X obj 880 297 gate 1 0;
#X obj 880 317 t b;
#X obj 62 173 pipe 500;
#X obj 199 116 delay 3000;
#X obj 199 206 t s b;
#X msg 813 246 connect \$1;
#X obj 813 226 tosymbol;
#X obj 813 206 t s b;
#N canvas 443 68 355 331 l2orkmote_left_arm_pitch 0;
#X obj 70 138 l2ork_wii_jolt_filter;
#X obj 70 182 average 2;
#X obj 70 101 unpack 0 0 0;
#X obj 70 204 nbx 5 14 -1 1 0 0 empty empty empty 0 -8 0 10 #fcfcfc
#000000 #000000 0 256 0 0 1 0;
#X obj 70 47 inlet;
#X text 70 244 lower arm forward pitch -1 to 1;
#X obj 70 69 t l l;
#X obj 70 223 l2orkmote-send arm-pitch-forward 1;
#X connect 0 0 1 0;
#X connect 1 0 3 0;
#X connect 2 1 0 0;
#X connect 3 0 7 0;
#X connect 4 0 6 0;
#X connect 6 0 2 0;
#X connect 6 1 0 1;
#X restore 52 411 pd l2orkmote_left_arm_pitch;
#N canvas 295 76 655 383 l2orkmote_left_joystick 0;
#X obj 271 12 inlet;
#X obj 271 37 unpack 0 0;
#X floatatom 271 76 5 0 0 0 - - - 0 0 1, f 5;
#X floatatom 328 77 5 0 0 0 - - - 0 0 1, f 5;
#X text 276 57 l r;
#X text 333 58 u d;
#X floatatom 234 252 5 0 0 0 - - - 0 0 1, f 5;
#X obj 271 116 expr if (sqrt(pow($f1-127 \, 2)+pow($f2-127 \, 2))>50
\, if($f2-127>0 \, (acos(($f1-127)/(sqrt(pow($f1-127 \, 2)+pow($f2-127
\, 2)))))*180/3.14159 \, 360-(acos(($f1-127)/(sqrt(pow($f1-127 \, 2)+pow($f2-127
\, 2)))))*180/3.14159) \, -1);
#X obj 271 230 change;
#N canvas 53 314 1213 402 l2orkmote_left_joystick_angle_clockwise_analog
0;
#X obj 397 36 inlet;
#X obj 430 308 +;
#X obj 447 287 accum;
#X obj 459 221 expr if(int($f2)==5 && int($f1)==0 \, 6 \, 0) \; if
(int($f2)==0 && int($f1)==5 \, -6 \, 0);
#X obj 430 185 t f b f f;
#X obj 459 257 sel 0;
#X obj 397 163 sel -1;
#X obj 397 141 change;
#X obj 56 308 +;
#X obj 73 287 accum;
#X obj 56 163 t f b f f;
#X obj 85 257 sel 0;
#X obj 23 141 sel -1;
#X obj 397 82 change;
#X floatatom 121 304 5 0 0 0 - - - 0 0 1, f 5;
#X floatatom 500 299 8 0 0 0 - - - 0 0 1, f 8;
#X obj 85 188 expr if(int($f2)<=359 && int($f2)>300 && int($f1)>=0
&& int($f1)<60 \, 360 \, 0) \; if (int($f2)>=0 && int($f2)<60 && int($f1)<=359
&& int($f1)>300 \, -360 \, 0);
#X obj 820 308 +;
#X obj 837 287 accum;
#X obj 820 185 t f b f f;
#X obj 849 257 sel 0;
#X obj 787 163 sel -1;
#X obj 787 141 change;
#X floatatom 912 299 5 0 0 0 - - - 0 0 1, f 5;
#X obj 849 221 expr if(int($f2)==11 && int($f1)==0 \, 12 \, 0) \; if
(int($f2)==0 && int($f1)==11 \, -12 \, 0);
#X obj 898 257 r l2orkmote-left-reset-joystick-additive-offset;
#X obj 23 119 l2orkmote-send-joystick-mirror analog 1 1;
#X obj 442 163 l2orkmote-send-joystick-mirror analog-6 1 1;
#X obj 832 163 l2orkmote-send-joystick-mirror analog-12 1 1;
#X obj 820 330 l2orkmote-send-joystick-mirror analog-12-additive 1
1;
#X obj 430 330 l2orkmote-send-joystick-mirror analog-6-additive 1 1
;
#X obj 56 330 l2orkmote-send-joystick-mirror analog-additive 1 1;
#X obj 397 119 expr if($f1>-1 \, fmod($f1/60+0.5 \, 6) \, -1);
#X obj 787 119 expr if ($f1>-1 \, fmod($f1/30+0.5 \, 12) \, -1);
#X obj 397 60 expr if($f1>-1 \, fmod(360-$f1 \, 360) \, -1);
#X connect 0 0 34 0;
#X connect 1 0 15 0;
#X connect 1 0 30 0;
#X connect 2 0 1 1;
#X connect 3 0 5 0;
#X connect 3 1 5 0;
#X connect 4 0 1 0;
#X connect 4 1 2 0;
#X connect 4 2 3 1;
#X connect 4 3 3 0;
#X connect 5 1 2 1;
#X connect 6 1 4 0;
#X connect 7 0 6 0;
#X connect 7 0 27 0;
#X connect 8 0 31 0;
#X connect 8 0 14 0;
#X connect 9 0 8 1;
#X connect 10 0 8 0;
#X connect 10 1 9 0;
#X connect 10 2 16 1;
#X connect 10 3 16 0;
#X connect 11 1 9 1;
#X connect 12 1 10 0;
#X connect 13 0 12 0;
#X connect 13 0 26 0;
#X connect 13 0 32 0;
#X connect 13 0 33 0;
#X connect 16 0 11 0;
#X connect 16 1 11 0;
#X connect 17 0 23 0;
#X connect 17 0 29 0;
#X connect 18 0 17 1;
#X connect 19 0 17 0;
#X connect 19 1 18 0;
#X connect 19 2 24 1;
#X connect 19 3 24 0;
#X connect 20 1 18 1;
#X connect 21 1 19 0;
#X connect 22 0 21 0;
#X connect 22 0 28 0;
#X connect 24 0 20 0;
#X connect 24 1 20 0;
#X connect 25 0 18 0;
#X connect 25 0 2 0;
#X connect 25 0 9 0;
#X connect 32 0 7 0;
#X connect 33 0 22 0;
#X connect 34 0 13 0;
#X connect 34 0 33 0;
#X restore 310 299 pd l2orkmote_left_joystick_angle_clockwise_analog
;
#N canvas 47 14 1213 383 l2orkmote_left_joystick_angle_counterclockwise_analog
0;
#X obj 391 24 inlet;
#X obj 424 276 +;
#X obj 441 255 accum;
#X obj 453 189 expr if(int($f2)==5 && int($f1)==0 \, 6 \, 0) \; if
(int($f2)==0 && int($f1)==5 \, -6 \, 0);
#X obj 424 153 t f b f f;
#X obj 453 225 sel 0;
#X obj 391 131 sel -1;
#X obj 391 109 change;
#X obj 50 276 +;
#X obj 67 255 accum;
#X obj 50 131 t f b f f;
#X obj 79 225 sel 0;
#X obj 17 109 sel -1;
#X obj 391 50 change;
#X floatatom 115 272 5 0 0 0 - - - 0 0 1, f 5;
#X floatatom 494 267 5 0 0 0 - - - 0 0 1, f 5;
#X obj 79 156 expr if(int($f2)<=359 && int($f2)>300 && int($f1)>=0
&& int($f1)<60 \, 360 \, 0) \; if (int($f2)>=0 && int($f2)<60 && int($f1)<=359
&& int($f1)>300 \, -360 \, 0);
#X obj 824 276 +;
#X obj 841 255 accum;
#X obj 824 153 t f b f f;
#X obj 853 225 sel 0;
#X obj 791 131 sel -1;
#X obj 791 109 change;
#X floatatom 916 267 5 0 0 0 - - - 0 0 1, f 5;
#X obj 853 189 expr if(int($f2)==11 && int($f1)==0 \, 12 \, 0) \; if
(int($f2)==0 && int($f1)==11 \, -12 \, 0);
#X obj 902 225 r l2orkmote-left-reset-joystick-additive-offset;
#X obj 17 87 l2orkmote-send-joystick-mirror analog 2 1;
#X obj 436 131 l2orkmote-send-joystick-mirror analog-6 2 1;
#X obj 836 131 l2orkmote-send-joystick-mirror analog-12 2 1;
#X obj 50 298 l2orkmote-send-joystick-mirror analog-additive 2 1;
#X obj 424 298 l2orkmote-send-joystick-mirror analog-6-additive 2 1
;
#X obj 824 298 l2orkmote-send-joystick-mirror analog-12-additive 2
1;
#X obj 391 87 expr if($f1>-1 \, fmod($f1/60+0.5 \, 6) \, -1);
#X obj 790 87 expr if ($f1>-1 \, fmod($f1/30+0.5 \, 12) \, -1);
#X connect 0 0 13 0;
#X connect 1 0 15 0;
#X connect 1 0 30 0;
#X connect 2 0 1 1;
#X connect 3 0 5 0;
#X connect 3 1 5 0;
#X connect 4 0 1 0;
#X connect 4 1 2 0;
#X connect 4 2 3 1;
#X connect 4 3 3 0;
#X connect 5 1 2 1;
#X connect 6 1 4 0;
#X connect 7 0 6 0;
#X connect 7 0 27 0;
#X connect 8 0 14 0;
#X connect 8 0 29 0;
#X connect 9 0 8 1;
#X connect 10 0 8 0;
#X connect 10 1 9 0;
#X connect 10 2 16 1;
#X connect 10 3 16 0;
#X connect 11 1 9 1;
#X connect 12 1 10 0;
#X connect 13 0 12 0;
#X connect 13 0 26 0;
#X connect 13 0 32 0;
#X connect 13 0 33 0;
#X connect 16 0 11 0;
#X connect 16 1 11 0;
#X connect 17 0 23 0;
#X connect 17 0 31 0;
#X connect 18 0 17 1;
#X connect 19 0 17 0;
#X connect 19 1 18 0;
#X connect 19 2 24 1;
#X connect 19 3 24 0;
#X connect 20 1 18 1;
#X connect 21 1 19 0;
#X connect 22 0 21 0;
#X connect 22 0 28 0;
#X connect 24 0 20 0;
#X connect 24 1 20 0;
#X connect 25 0 18 0;
#X connect 25 0 2 0;
#X connect 25 0 9 0;
#X connect 32 0 7 0;
#X connect 33 0 22 0;
#X restore 290 321 pd l2orkmote_left_joystick_angle_counterclockwise_analog
;
#X obj 13 114 - 127;
#X obj 13 185 - 127;
#X obj 13 207 l2orkmote-send joystick-vertical 1;
#X obj 13 136 l2orkmote-send joystick-horizontal 1;
#X obj 271 252 expr if($f1>-1 \, fmod($f1+270 \, 360) \, -1);
#X obj 13 228 l2orkmote-send joystick-vertical-raw 1;
#X obj 13 157 l2orkmote-send joystick-horizontal-raw 1;
#X obj 271 276 t f f f;
#N canvas 771 465 340 170 l2orkmote_left_joystick_centered 0;
#X obj 60 26 inlet;
#X obj 60 51 == -1;
#X obj 60 76 change;
#X obj 60 101 l2orkmote-send joystick-centered 1;
#X connect 0 0 1 0;
#X connect 1 0 2 0;
#X connect 2 0 3 0;
#X restore 271 343 pd l2orkmote_left_joystick_centered;
#X connect 0 0 1 0;
#X connect 1 0 2 0;
#X connect 1 1 3 0;
#X connect 2 0 7 0;
#X connect 2 0 11 0;
#X connect 2 0 17 0;
#X connect 3 0 7 1;
#X connect 3 0 12 0;
#X connect 3 0 16 0;
#X connect 7 0 8 0;
#X connect 8 0 15 0;
#X connect 11 0 14 0;
#X connect 12 0 13 0;
#X connect 15 0 6 0;
#X connect 15 0 18 0;
#X connect 18 0 19 0;
#X connect 18 1 10 0;
#X connect 18 2 9 0;
#X restore 52 433 pd l2orkmote_left_joystick;
#N canvas 47 14 394 610 l2orkmote_left_arm_roll 0;
#X obj 70 47 inlet;
#X obj 71 207 atan;
#X obj 71 186 expr \\$f1 / \\$f2;
#X obj 105 235 expr if ($f1 > 0 \, 3.14159 \, -3.14159);
#X obj 71 258 pack 0 0 0, f 12;
#X obj 71 280 expr if ($f3 <= 0 \, \\$f1 + \\$f2 \, \\$f1);
#X obj 125 164 sel 0;
#X obj 71 138 l2ork_wii_jolt_filter;
#X obj 71 101 unpack 0 0 0;
#X obj 71 69 t l l;
#X obj 71 402 nbx 5 14 -2.5 2.5 0 0 empty empty empty 0 -8 0 10 #fcfcfc
#000000 #000000 0 256 0 0 1 0;
#X obj 71 478 > 0.4;
#X obj 108 478 > 1;
#X obj 133 478 > 1.75;
#X obj 177 478 > 2.25;
#X floatatom 71 527 5 0 0 0 - - - 0 0 1, f 5;
#X obj 71 453 t f f f f f f, f 32;
#X obj 71 505 expr 4-($f1+$f2+$f3+$f4+$f5+$f6);
#X obj 260 478 > -0.4;
#X obj 222 478 > -1;
#X obj 71 548 outlet;
#X obj 83 427 l2orkmote-send arm-roll 1;
#X obj 107 307 r l2orkmote-hand-swap;
#X obj 107 329 sel 1 0;
#X msg 107 351 -1;
#X msg 137 351 1;
#X obj 71 380 * 1;
#X connect 0 0 9 0;
#X connect 1 0 4 0;
#X connect 2 0 1 0;
#X connect 3 0 4 1;
#X connect 4 0 5 0;
#X connect 5 0 26 0;
#X connect 6 1 2 1;
#X connect 6 1 4 2;
#X connect 7 0 3 0;
#X connect 7 0 2 0;
#X connect 8 0 7 0;
#X connect 8 2 6 0;
#X connect 9 0 8 0;
#X connect 9 1 7 1;
#X connect 10 0 16 0;
#X connect 10 0 21 0;
#X connect 11 0 17 0;
#X connect 12 0 17 1;
#X connect 13 0 17 2;
#X connect 14 0 17 3;
#X connect 15 0 20 0;
#X connect 16 0 11 0;
#X connect 16 1 12 0;
#X connect 16 2 13 0;
#X connect 16 3 14 0;
#X connect 16 4 19 0;
#X connect 16 5 18 0;
#X connect 17 0 15 0;
#X connect 18 0 17 5;
#X connect 19 0 17 4;
#X connect 22 0 23 0;
#X connect 23 0 24 0;
#X connect 23 1 25 0;
#X connect 26 0 10 0;
#X restore 393 477 pd l2orkmote_left_arm_roll;
#N canvas 137 14 567 683 l2orkmote_left_jolt 0;
#X obj 18 16 inlet;
#X obj 18 37 unpack 0 0 0;
#X floatatom 18 172 5 0 0 0 - - - 0 0 1, f 5;
#X obj 18 275 change;
#X obj 18 296 select 1;
#X obj 18 89 expr (sqrt(pow($f4-$f1 \, 2)+pow($f5-$f2 \, 2)+pow($f6-$f3
\, 2)));
#X obj 18 58 t f f;
#X obj 57 58 t f f;
#X floatatom 18 110 5 0 0 0 - - - 0 0 1, f 5;
#X obj 388 16 inlet;
#X floatatom 18 234 5 0 0 0 - - - 0 0 1, f 5;
#X obj 18 213 average 3;
#X obj 18 254 > 0.5;
#X obj 18 192 > 0.3;
#X obj 388 36 unpack 0 0 0;
#X obj 388 81 t f f;
#X obj 18 130 average 2;
#X obj 18 151 pow 4;
#X obj 389 648 l2orkmote-send hand-jolt 1;
#X obj 18 317 l2orkmote-send arm-jolt 1;
#X floatatom 388 131 5 0 0 0 - - - 0 0 1, f 5;
#X obj 449 311 -;
#X obj 434 472 accum;
#X obj 473 444 t b f;
#X obj 389 333 tgl 15 0 empty empty empty 17 7 0 10 #fcfcfc #000000
#000000 0 1 1;
#X obj 389 353 + 1;
#X obj 389 376 gate 2 0;
#X msg 389 398 0;
#X obj 389 522 change;
#X obj 389 543 sel 1;
#X obj 388 215 pow 0.4;
#X obj 389 627 gate 1 1;
#X obj 449 333 nbx 5 14 0 1e+37 0 0 empty empty empty 0 -8 0 10 #fcfcfc
#000000 #000000 0 256 0 0 1 0;
#X obj 388 194 average 2;
#X obj 388 279 t f f f;
#X obj 434 419 moses 1;
#X msg 389 606 1;
#X obj 389 564 t b 0 b;
#X obj 388 257 pow 0.5;
#X obj 388 236 average 4;
#X obj 389 585 delay 100;
#X floatatom 449 374 5 0 0 0 - - - 0 0 1, f 5;
#X obj 96 58 t f f f f;
#X obj 130 159 average 3;
#X floatatom 130 181 5 0 0 0 - - - 0 0 1, f 5;
#X obj 388 61 switch 2 1;
#X obj 388 109 -;
#X obj 388 173 abs;
#X obj 130 202 > 0.5;
#X obj 130 224 + 1;
#X floatatom 130 246 5 0 0 0 - - - 0 0 1, f 5;
#X obj 130 137 l2ork_wii_jolt_filter 0.05;
#X obj 449 352 pow 0.25;
#X obj 389 501 > 1;
#X obj 389 311 > 0.64;
#X obj 388 152 / 4000;
#X obj 434 397 > 0.3;
#X connect 0 0 1 0;
#X connect 1 0 6 0;
#X connect 1 1 7 0;
#X connect 1 2 42 0;
#X connect 2 0 13 0;
#X connect 3 0 4 0;
#X connect 4 0 19 0;
#X connect 5 0 8 0;
#X connect 6 0 5 3;
#X connect 6 1 5 0;
#X connect 7 0 5 4;
#X connect 7 1 5 1;
#X connect 8 0 16 0;
#X connect 9 0 14 0;
#X connect 10 0 12 0;
#X connect 11 0 10 0;
#X connect 12 0 3 0;
#X connect 13 0 11 0;
#X connect 14 0 45 2;
#X connect 14 2 45 1;
#X connect 15 0 46 1;
#X connect 15 1 46 0;
#X connect 16 0 17 0;
#X connect 17 0 2 0;
#X connect 20 0 55 0;
#X connect 21 0 32 0;
#X connect 22 0 53 0;
#X connect 23 0 22 0;
#X connect 23 1 22 1;
#X connect 24 0 25 0;
#X connect 25 0 26 0;
#X connect 26 0 27 0;
#X connect 26 1 56 0;
#X connect 27 0 53 0;
#X connect 28 0 29 0;
#X connect 29 0 37 0;
#X connect 30 0 39 0;
#X connect 31 0 18 0;
#X connect 32 0 52 0;
#X connect 33 0 30 0;
#X connect 34 0 54 0;
#X connect 34 1 21 1;
#X connect 34 2 21 0;
#X connect 35 0 22 0;
#X connect 35 1 23 0;
#X connect 36 0 31 0;
#X connect 37 0 40 0;
#X connect 37 1 31 0;
#X connect 37 2 31 1;
#X connect 38 0 34 0;
#X connect 39 0 38 0;
#X connect 40 0 36 0;
#X connect 42 0 5 5;
#X connect 42 1 5 2;
#X connect 42 2 51 0;
#X connect 42 3 51 1;
#X connect 43 0 44 0;
#X connect 44 0 48 0;
#X connect 45 0 15 0;
#X connect 46 0 20 0;
#X connect 47 0 33 0;
#X connect 48 0 49 0;
#X connect 49 0 45 0;
#X connect 49 0 50 0;
#X connect 51 0 43 0;
#X connect 52 0 26 1;
#X connect 52 0 41 0;
#X connect 53 0 28 0;
#X connect 54 0 24 0;
#X connect 55 0 47 0;
#X connect 56 0 35 0;
#X restore 52 477 pd l2orkmote_left_jolt;
#N canvas 314 76 517 252 l2orkmote_left_accelerometers_raw 0;
#X obj 27 24 inlet;
#X obj 247 24 inlet;
#X obj 27 46 unpack 0 0 0;
#X obj 247 46 unpack 0 0 0;
#X obj 27 178 l2orkmote-send arm-accel-x 1;
#X obj 61 200 l2orkmote-send arm-accel-y 1;
#X obj 96 222 l2orkmote-send arm-accel-z 1;
#X obj 247 178 l2orkmote-send hand-accel-x 1;
#X obj 281 200 l2orkmote-send hand-accel-y 1;
#X obj 316 222 l2orkmote-send hand-accel-z 1;
#X obj 110 73 r l2orkmote-hand-swap;
#X obj 110 95 sel 1 0;
#X msg 110 117 -1;
#X msg 140 117 1;
#X obj 27 156 * 1;
#X obj 247 156 * 1;
#X connect 0 0 2 0;
#X connect 1 0 3 0;
#X connect 2 0 14 0;
#X connect 2 1 5 0;
#X connect 2 2 6 0;
#X connect 3 0 15 0;
#X connect 3 1 8 0;
#X connect 3 2 9 0;
#X connect 10 0 11 0;
#X connect 11 0 12 0;
#X connect 11 1 13 0;
#X connect 14 0 4 0;
#X connect 15 0 7 0;
#X restore 52 521 pd l2orkmote_left_accelerometers_raw;
#N canvas 314 64 485 531 l2orkmote-left-buttons 0;
#X obj 20 23 inlet;
#X obj 277 23 inlet;
#X obj 20 45 unpack 0 0;
#X obj 77 230 & 8;
#X obj 77 252 > 0;
#X obj 104 319 > 0;
#X obj 104 297 & 4;
#X obj 57 275 tgl 15 0 empty empty empty 17 7 0 10 #fcfcfc #000000
#000000 0 1 1;
#X obj 84 343 tgl 15 0 empty empty empty 17 7 0 10 #fcfcfc #000000
#000000 0 1 1;
#X obj 277 252 > 0;
#X obj 304 319 > 0;
#X obj 257 275 tgl 15 0 empty empty empty 17 7 0 10 #fcfcfc #000000
#000000 0 1 1;
#X obj 284 343 tgl 15 0 empty empty empty 17 7 0 10 #fcfcfc #000000
#000000 0 1 1;
#X obj 277 230 & 2;
#X obj 304 297 & 1;
#X obj 146 407 expr \\$f1+$f2+$f3+$f4;
#X obj 146 429 == 4;
#X obj 183 376 t b f;
#X obj 222 376 t b f;
#X obj 261 376 t b f;
#X obj 146 451 change;
#X obj 146 472 tgl 15 0 empty empty empty 17 7 0 10 #fcfcfc #000000
#000000 0 1 1;
#X obj 77 274 l2orkmote-send button-1 1;
#X obj 104 341 l2orkmote-send button-2 1;
#X obj 277 274 l2orkmote-send button-3 1;
#X obj 304 341 l2orkmote-send button-4 1;
#X obj 146 492 l2orkmote-send button-all 1;
#X obj 277 68 t f f f, f 10;
#X obj 77 67 t f f f, f 10;
#X obj 149 187 l2orkmote-send button-raw 1;
#X obj 149 143 +;
#X obj 149 101 t b f;
#X obj 149 165 change;
#X connect 0 0 2 0;
#X connect 1 0 27 0;
#X connect 2 1 28 0;
#X connect 3 0 4 0;
#X connect 4 0 7 0;
#X connect 4 0 15 0;
#X connect 4 0 22 0;
#X connect 5 0 8 0;
#X connect 5 0 17 0;
#X connect 5 0 23 0;
#X connect 6 0 5 0;
#X connect 9 0 11 0;
#X connect 9 0 18 0;
#X connect 9 0 24 0;
#X connect 10 0 12 0;
#X connect 10 0 19 0;
#X connect 10 0 25 0;
#X connect 13 0 9 0;
#X connect 14 0 10 0;
#X connect 15 0 16 0;
#X connect 16 0 20 0;
#X connect 17 0 15 0;
#X connect 17 1 15 1;
#X connect 18 0 15 0;
#X connect 18 1 15 2;
#X connect 19 0 15 0;
#X connect 19 1 15 3;
#X connect 20 0 21 0;
#X connect 21 0 26 0;
#X connect 27 0 13 0;
#X connect 27 1 14 0;
#X connect 27 2 31 0;
#X connect 28 0 3 0;
#X connect 28 1 6 0;
#X connect 28 2 30 0;
#X connect 30 0 32 0;
#X connect 31 0 30 0;
#X connect 31 1 30 1;
#X connect 32 0 29 0;
#X restore 52 499 pd l2orkmote-left-buttons;
#N canvas 838 14 394 620 l2orkmote_left_hand_roll 0;
#X obj 71 47 inlet;
#X obj 71 207 atan;
#X obj 71 186 expr \\$f1 / \\$f2;
#X obj 105 235 expr if ($f1 > 0 \, 3.14159 \, -3.14159);
#X obj 71 258 pack 0 0 0, f 12;
#X obj 71 280 expr if ($f3 <= 0 \, \\$f1 + \\$f2 \, \\$f1);
#X obj 125 164 sel 0;
#X obj 71 138 l2ork_wii_jolt_filter;
#X obj 71 101 unpack 0 0 0;
#X obj 71 69 t l l;
#X obj 71 402 nbx 5 14 -2.5 2.5 0 0 empty empty empty 0 -8 0 10 #fcfcfc
#000000 #000000 0 256 0 0 1 0;
#X obj 71 478 > 0.4;
#X obj 108 478 > 1;
#X obj 133 478 > 1.75;
#X obj 177 478 > 2.25;
#X floatatom 71 527 5 0 0 0 - - - 0 0 1, f 5;
#X obj 71 453 t f f f f f f, f 32;
#X obj 260 478 > -0.4;
#X obj 222 478 > -1;
#X obj 71 548 outlet;
#X obj 71 505 expr ($f1+$f2+$f3+$f4+$f5+$f6)-2;
#X obj 83 427 l2orkmote-send hand-roll 1;
#X obj 107 306 r l2orkmote-hand-swap;
#X obj 107 328 sel 1 0;
#X msg 107 350 -1;
#X msg 137 350 1;
#X obj 71 379 * 1;
#X connect 0 0 9 0;
#X connect 1 0 4 0;
#X connect 2 0 1 0;
#X connect 3 0 4 1;
#X connect 4 0 5 0;
#X connect 5 0 26 0;
#X connect 6 1 2 1;
#X connect 6 1 4 2;
#X connect 7 0 3 0;
#X connect 7 0 2 0;
#X connect 8 0 7 0;
#X connect 8 2 6 0;
#X connect 9 0 8 0;
#X connect 9 1 7 1;
#X connect 10 0 16 0;
#X connect 10 0 21 0;
#X connect 11 0 20 0;
#X connect 12 0 20 1;
#X connect 13 0 20 2;
#X connect 14 0 20 3;
#X connect 15 0 19 0;
#X connect 16 0 11 0;
#X connect 16 1 12 0;
#X connect 16 2 13 0;
#X connect 16 3 14 0;
#X connect 16 4 18 0;
#X connect 16 5 17 0;
#X connect 17 0 20 5;
#X connect 18 0 20 4;
#X connect 20 0 15 0;
#X connect 22 0 23 0;
#X connect 23 0 24 0;
#X connect 23 1 25 0;
#X connect 26 0 10 0;
#X restore 488 499 pd l2orkmote_left_hand_roll;
#N canvas 529 82 355 331 l2orkmote_left_hand_pitch 0;
#X obj 70 138 l2ork_wii_jolt_filter;
#X obj 70 182 average 2;
#X obj 70 101 unpack 0 0 0;
#X obj 70 204 nbx 5 14 -1 1 0 0 empty empty empty 0 -8 0 10 #fcfcfc
#000000 #000000 0 256 0 0 1 0;
#X obj 70 47 inlet;
#X obj 70 69 t l l;
#X text 70 244 lower hand forward pitch -1 to 1;
#X obj 70 160 * -1;
#X obj 70 223 l2orkmote-send hand-pitch-forward 1;
#X connect 0 0 7 0;
#X connect 1 0 3 0;
#X connect 2 1 0 0;
#X connect 3 0 8 0;
#X connect 4 0 5 0;
#X connect 5 0 2 0;
#X connect 5 1 0 1;
#X connect 7 0 1 0;
#X restore 52 455 pd l2orkmote_left_hand_pitch;
#N canvas 281 221 568 448 pair_gui 0;
#X obj 175 44 inlet;
#X msg 223 127 color 13 12 12;
#X msg 239 148 color 15 12 12;
#X msg 130 303 color 16 12 12;
#X obj 130 261 gate 2 1;
#X msg 175 282 color 17 12 12;
#X obj 130 44 inlet;
#X obj 175 70 sel 3 2 1 0 -1;
#X obj 289 261 gate 2 1;
#X msg 289 303 color 6 12 12;
#X msg 334 282 color 7 12 12;
#X obj 207 348 s l2orkmote-pair-button;
#X obj 236 100 loadbang;
#X connect 0 0 7 0;
#X connect 1 0 11 0;
#X connect 2 0 11 0;
#X connect 3 0 11 0;
#X connect 4 0 3 0;
#X connect 4 1 5 0;
#X connect 5 0 11 0;
#X connect 6 0 4 0;
#X connect 6 0 8 0;
#X connect 7 0 4 1;
#X connect 7 1 8 1;
#X connect 7 2 8 1;
#X connect 7 3 1 0;
#X connect 7 4 2 0;
#X connect 8 0 9 0;
#X connect 8 1 10 0;
#X connect 9 0 11 0;
#X connect 10 0 11 0;
#X connect 12 0 1 0;
#X restore 55 246 pd pair_gui;
#N canvas 303 72 699 400 calib_gui 0;
#X obj 45 36 inlet;
#X obj 345 36 inlet;
#X msg 235 243 color 16 12 12;
#X msg 535 243 color 16 12 12;
#X floatatom 226 145 5 0 0 0 - - - 0 0 1, f 5;
#X msg 226 166 color \$1 12 12;
#X msg 45 243 color 12 12 0;
#X msg 345 243 color 12 12 0;
#X obj 140 198 gate 2 1;
#X obj 85 86 + 1;
#X obj 45 168 sel 0 1;
#X obj 440 198 gate 2 1;
#X obj 385 86 + 1;
#X obj 345 168 sel 0 1;
#X obj 345 145 f;
#X obj 385 108 t b f;
#X text 226 122 DEBUG;
#X obj 85 108 t b f;
#X obj 45 145 f;
#X msg 140 310 color 5 12 12;
#X obj 140 272 inlet;
#X msg 440 310 color 5 12 12;
#X obj 440 272 inlet;
#X obj 140 291 t b;
#X obj 440 291 t b;
#X msg 140 243 color 14 12 12;
#X msg 440 243 color 14 12 12;
#X obj 85 64 r l2orkmote-left-plus-calibrate-file-present;
#X obj 385 64 r l2orkmote-right-plus-calibrate-file-present;
#X obj 345 347 s l2orkmote-right-plus-calibrate-button;
#X obj 45 347 s l2orkmote-left-plus-calibrate-button;
#X connect 0 0 18 0;
#X connect 1 0 14 0;
#X connect 2 0 30 0;
#X connect 3 0 29 0;
#X connect 4 0 5 0;
#X connect 5 0 30 0;
#X connect 6 0 30 0;
#X connect 7 0 29 0;
#X connect 8 0 25 0;
#X connect 8 1 2 0;
#X connect 9 0 17 0;
#X connect 10 0 6 0;
#X connect 10 1 8 1;
#X connect 11 0 26 0;
#X connect 11 1 3 0;
#X connect 12 0 15 0;
#X connect 13 0 7 0;
#X connect 13 1 11 1;
#X connect 14 0 13 0;
#X connect 15 0 14 0;
#X connect 15 1 11 0;
#X connect 17 0 18 0;
#X connect 17 1 8 0;
#X connect 18 0 10 0;
#X connect 19 0 30 0;
#X connect 20 0 23 0;
#X connect 21 0 29 0;
#X connect 22 0 24 0;
#X connect 23 0 19 0;
#X connect 24 0 21 0;
#X connect 25 0 30 0;
#X connect 26 0 29 0;
#X connect 27 0 9 0;
#X connect 28 0 12 0;
#X restore 518 434 pd calib_gui;
#N canvas 519 72 355 331 l2orkmote_right_arm_pitch 0;
#X obj 70 138 l2ork_wii_jolt_filter;
#X obj 70 182 average 2;
#X obj 70 101 unpack 0 0 0;
#X obj 70 204 nbx 5 14 -1 1 0 0 empty empty empty 0 -8 0 10 #fcfcfc
#000000 #000000 0 256 0 0 1 0;
#X obj 70 47 inlet;
#X text 70 244 lower arm forward pitch -1 to 1;
#X obj 70 69 t l l;
#X obj 70 223 l2orkmote-send arm-pitch-forward 2;
#X connect 0 0 1 0;
#X connect 1 0 3 0;
#X connect 2 1 0 0;
#X connect 3 0 7 0;
#X connect 4 0 6 0;
#X connect 6 0 2 0;
#X connect 6 1 0 1;
#X restore 660 411 pd l2orkmote_right_arm_pitch;
#N canvas 94 76 655 387 l2orkmote_right_joystick 0;
#X obj 271 12 inlet;
#X obj 271 37 unpack 0 0;
#X floatatom 271 76 5 0 0 0 - - - 0 0 1, f 5;
#X floatatom 328 77 5 0 0 0 - - - 0 0 1, f 5;
#X text 276 57 l r;
#X text 333 58 u d;
#X floatatom 234 254 5 0 0 0 - - - 0 0 1, f 5;
#X obj 271 116 expr if (sqrt(pow($f1-127 \, 2)+pow($f2-127 \, 2))>50
\, if($f2-127>0 \, (acos(($f1-127)/(sqrt(pow($f1-127 \, 2)+pow($f2-127
\, 2)))))*180/3.14159 \, 360-(acos(($f1-127)/(sqrt(pow($f1-127 \, 2)+pow($f2-127
\, 2)))))*180/3.14159) \, -1);
#X obj 271 230 change;
#N canvas 72 64 1213 402 l2orkmote_right_joystick_angle_clockwise_analog
0;
#X obj 397 36 inlet;
#X obj 430 308 +;
#X obj 447 287 accum;
#X obj 459 221 expr if(int($f2)==5 && int($f1)==0 \, 6 \, 0) \; if
(int($f2)==0 && int($f1)==5 \, -6 \, 0);
#X obj 430 185 t f b f f;
#X obj 459 257 sel 0;
#X obj 397 163 sel -1;
#X obj 397 141 change;
#X obj 56 308 +;
#X obj 73 287 accum;
#X obj 56 163 t f b f f;
#X obj 85 257 sel 0;
#X obj 23 141 sel -1;
#X obj 397 82 change;
#X floatatom 121 304 5 0 0 0 - - - 0 0 1, f 5;
#X floatatom 500 299 5 0 0 0 - - - 0 0 1, f 5;
#X obj 85 188 expr if(int($f2)<=359 && int($f2)>300 && int($f1)>=0
&& int($f1)<60 \, 360 \, 0) \; if (int($f2)>=0 && int($f2)<60 && int($f1)<=359
&& int($f1)>300 \, -360 \, 0);
#X obj 820 308 +;
#X obj 837 287 accum;
#X obj 820 185 t f b f f;
#X obj 849 257 sel 0;
#X obj 787 163 sel -1;
#X obj 787 141 change;
#X floatatom 912 299 5 0 0 0 - - - 0 0 1, f 5;
#X obj 849 221 expr if(int($f2)==11 && int($f1)==0 \, 12 \, 0) \; if
(int($f2)==0 && int($f1)==11 \, -12 \, 0);
#X obj 898 257 r l2orkmote-right-reset-joystick-additive-offset;
#X obj 23 119 l2orkmote-send-joystick-mirror analog 1 2;
#X obj 442 163 l2orkmote-send-joystick-mirror analog-6 1 2;
#X obj 832 163 l2orkmote-send-joystick-mirror analog-12 1 2;
#X obj 56 330 l2orkmote-send-joystick-mirror analog-additive 1 2;
#X obj 430 330 l2orkmote-send-joystick-mirror analog-6-additive 1 2
;
#X obj 820 330 l2orkmote-send-joystick-mirror analog-12-additive 1
2;
#X obj 397 119 expr if($f1>-1 \, fmod($f1/60+0.5 \, 6) \, -1);
#X obj 786 119 expr if ($f1>-1 \, fmod($f1/30+0.5 \, 12) \, -1);
#X obj 397 60 expr if($f1>-1 \, fmod(360-$f1 \, 360) \, -1);
#X connect 0 0 34 0;
#X connect 1 0 15 0;
#X connect 1 0 30 0;
#X connect 2 0 1 1;
#X connect 3 0 5 0;
#X connect 3 1 5 0;
#X connect 4 0 1 0;
#X connect 4 1 2 0;
#X connect 4 2 3 1;
#X connect 4 3 3 0;
#X connect 5 1 2 1;
#X connect 6 1 4 0;
#X connect 7 0 6 0;
#X connect 7 0 27 0;
#X connect 8 0 14 0;
#X connect 8 0 29 0;
#X connect 9 0 8 1;
#X connect 10 0 8 0;
#X connect 10 1 9 0;
#X connect 10 2 16 1;
#X connect 10 3 16 0;
#X connect 11 1 9 1;
#X connect 12 1 10 0;
#X connect 13 0 12 0;
#X connect 13 0 26 0;
#X connect 13 0 32 0;
#X connect 13 0 33 0;
#X connect 16 0 11 0;
#X connect 16 1 11 0;
#X connect 17 0 23 0;
#X connect 17 0 31 0;
#X connect 18 0 17 1;
#X connect 19 0 17 0;
#X connect 19 1 18 0;
#X connect 19 2 24 1;
#X connect 19 3 24 0;
#X connect 20 1 18 1;
#X connect 21 1 19 0;
#X connect 22 0 21 0;
#X connect 22 0 28 0;
#X connect 24 0 20 0;
#X connect 24 1 20 0;
#X connect 25 0 18 0;
#X connect 25 0 2 0;
#X connect 25 0 9 0;
#X connect 32 0 7 0;
#X connect 33 0 22 0;
#X connect 34 0 13 0;
#X connect 34 0 33 0;
#X restore 310 298 pd l2orkmote_right_joystick_angle_clockwise_analog
;
#N canvas 47 14 1213 383 l2orkmote_right_joystick_angle_counterclockwise_analog
0;
#X obj 391 24 inlet;
#X obj 424 276 +;
#X obj 441 255 accum;
#X obj 453 189 expr if(int($f2)==5 && int($f1)==0 \, 6 \, 0) \; if
(int($f2)==0 && int($f1)==5 \, -6 \, 0);
#X obj 424 153 t f b f f;
#X obj 453 225 sel 0;
#X obj 391 131 sel -1;
#X obj 391 109 change;
#X obj 50 276 +;
#X obj 67 255 accum;
#X obj 50 131 t f b f f;
#X obj 79 225 sel 0;
#X obj 17 109 sel -1;
#X obj 391 50 change;
#X floatatom 115 272 5 0 0 0 - - - 0 0 1, f 5;
#X floatatom 494 267 5 0 0 0 - - - 0 0 1, f 5;
#X obj 79 156 expr if(int($f2)<=359 && int($f2)>300 && int($f1)>=0
&& int($f1)<60 \, 360 \, 0) \; if (int($f2)>=0 && int($f2)<60 && int($f1)<=359
&& int($f1)>300 \, -360 \, 0);
#X obj 824 276 +;
#X obj 841 255 accum;
#X obj 824 153 t f b f f;
#X obj 853 225 sel 0;
#X obj 791 131 sel -1;
#X obj 791 109 change;
#X floatatom 916 267 5 0 0 0 - - - 0 0 1, f 5;
#X obj 853 189 expr if(int($f2)==11 && int($f1)==0 \, 12 \, 0) \; if
(int($f2)==0 && int($f1)==11 \, -12 \, 0);
#X obj 902 225 r l2orkmote-right-reset-joystick-additive-offset;
#X obj 17 87 l2orkmote-send-joystick-mirror analog 2 2;
#X obj 436 131 l2orkmote-send-joystick-mirror analog-6 2 2;
#X obj 836 131 l2orkmote-send-joystick-mirror analog-12 2 2;
#X obj 824 298 l2orkmote-send-joystick-mirror analog-12-additive 2
2;
#X obj 424 298 l2orkmote-send-joystick-mirror analog-6-additive 2 2
;
#X obj 50 298 l2orkmote-send-joystick-mirror analog-additive 2 2;
#X obj 391 87 expr if($f1>-1 \, fmod($f1/60+0.5 \, 6) \, -1);
#X obj 790 87 expr if ($f1>-1 \, fmod($f1/30+0.5 \, 12) \, -1);
#X connect 0 0 13 0;
#X connect 1 0 15 0;
#X connect 1 0 30 0;
#X connect 2 0 1 1;
#X connect 3 0 5 0;
#X connect 3 1 5 0;
#X connect 4 0 1 0;
#X connect 4 1 2 0;
#X connect 4 2 3 1;
#X connect 4 3 3 0;
#X connect 5 1 2 1;
#X connect 6 1 4 0;
#X connect 7 0 6 0;
#X connect 7 0 27 0;
#X connect 8 0 14 0;
#X connect 8 0 31 0;
#X connect 9 0 8 1;
#X connect 10 0 8 0;
#X connect 10 1 9 0;
#X connect 10 2 16 1;
#X connect 10 3 16 0;
#X connect 11 1 9 1;
#X connect 12 1 10 0;
#X connect 13 0 12 0;
#X connect 13 0 26 0;
#X connect 13 0 32 0;
#X connect 13 0 33 0;
#X connect 16 0 11 0;
#X connect 16 1 11 0;
#X connect 17 0 23 0;
#X connect 17 0 29 0;
#X connect 18 0 17 1;
#X connect 19 0 17 0;
#X connect 19 1 18 0;
#X connect 19 2 24 1;
#X connect 19 3 24 0;
#X connect 20 1 18 1;
#X connect 21 1 19 0;
#X connect 22 0 21 0;
#X connect 22 0 28 0;
#X connect 24 0 20 0;
#X connect 24 1 20 0;
#X connect 25 0 18 0;
#X connect 25 0 2 0;
#X connect 25 0 9 0;
#X connect 32 0 7 0;
#X connect 33 0 22 0;
#X restore 290 320 pd l2orkmote_right_joystick_angle_counterclockwise_analog
;
#X obj 8 114 - 127;
#X obj 8 182 - 127;
#X obj 8 204 l2orkmote-send joystick-vertical 2;
#X obj 8 136 l2orkmote-send joystick-horizontal 2;
#X obj 271 252 expr if($f1>-1 \, fmod($f1+270 \, 360) \, -1);
#X obj 8 225 l2orkmote-send joystick-vertical-raw 2;
#X obj 8 157 l2orkmote-send joystick-horizontal-raw 2;
#N canvas 771 453 340 170 l2orkmote_right_joystick_centered 0;
#X obj 60 26 inlet;
#X obj 60 51 == -1;
#X obj 60 76 change;
#X obj 60 101 l2orkmote-send joystick-centered 2;
#X connect 0 0 1 0;
#X connect 1 0 2 0;
#X connect 2 0 3 0;
#X restore 271 342 pd l2orkmote_right_joystick_centered;
#X obj 271 277 t f f f;
#X connect 0 0 1 0;
#X connect 1 0 2 0;
#X connect 1 1 3 0;
#X connect 2 0 7 0;
#X connect 2 0 11 0;
#X connect 2 0 17 0;
#X connect 3 0 7 1;
#X connect 3 0 12 0;
#X connect 3 0 16 0;
#X connect 7 0 8 0;
#X connect 8 0 15 0;
#X connect 11 0 14 0;
#X connect 12 0 13 0;
#X connect 15 0 6 0;
#X connect 15 0 19 0;
#X connect 19 0 18 0;
#X connect 19 1 10 0;
#X connect 19 2 9 0;
#X restore 660 433 pd l2orkmote_right_joystick;
#N canvas 519 72 355 331 l2orkmote_right_hand_pitch 0;
#X obj 70 138 l2ork_wii_jolt_filter;
#X obj 70 182 average 2;
#X obj 70 101 unpack 0 0 0;
#X obj 70 204 nbx 5 14 -1 1 0 0 empty empty empty 0 -8 0 10 #fcfcfc
#000000 #000000 0 256 0 0 1 0;
#X obj 70 47 inlet;
#X obj 70 69 t l l;
#X text 70 244 lower hand forward pitch -1 to 1;
#X obj 70 160 * -1;
#X obj 70 223 l2orkmote-send hand-pitch-forward 2;
#X connect 0 0 7 0;
#X connect 1 0 3 0;
#X connect 2 1 0 0;
#X connect 3 0 8 0;
#X connect 4 0 5 0;
#X connect 5 0 2 0;
#X connect 5 1 0 1;
#X connect 7 0 1 0;
#X restore 660 455 pd l2orkmote_right_hand_pitch;
#N canvas 220 64 571 679 l2orkmote_right_jolt 0;
#X obj 18 8 inlet;
#X obj 18 29 unpack 0 0 0;
#X floatatom 18 164 5 0 0 0 - - - 0 0 1, f 5;
#X obj 18 267 change;
#X obj 18 288 select 1;
#X obj 18 81 expr (sqrt(pow($f4-$f1 \, 2)+pow($f5-$f2 \, 2)+pow($f6-$f3
\, 2)));
#X obj 18 50 t f f;
#X obj 57 50 t f f;
#X floatatom 18 102 5 0 0 0 - - - 0 0 1, f 5;
#X obj 388 8 inlet;
#X floatatom 18 226 5 0 0 0 - - - 0 0 1, f 5;
#X obj 18 205 average 3;
#X obj 18 246 > 0.5;
#X obj 18 184 > 0.3;
#X obj 18 122 average 2;
#X obj 18 143 pow 4;
#X obj 18 309 l2orkmote-send arm-jolt 2;
#X obj 389 642 l2orkmote-send hand-jolt 2;
#X obj 388 30 unpack 0 0 0;
#X obj 388 75 t f f;
#X floatatom 388 125 5 0 0 0 - - - 0 0 1, f 5;
#X obj 449 305 -;
#X obj 434 466 accum;
#X obj 473 438 t b f;
#X obj 389 327 tgl 15 0 empty empty empty 17 7 0 10 #fcfcfc #000000
#000000 0 1 1;
#X obj 389 347 + 1;
#X obj 389 370 gate 2 0;
#X msg 389 392 0;
#X obj 389 516 change;
#X obj 389 537 sel 1;
#X obj 388 209 pow 0.4;
#X obj 389 621 gate 1 1;
#X obj 449 327 nbx 5 14 0 1e+37 0 0 empty empty empty 0 -8 0 10 #fcfcfc
#000000 #000000 0 256 0 0 1 0;
#X obj 388 188 average 2;
#X obj 388 273 t f f f;
#X obj 434 413 moses 1;
#X msg 389 600 1;
#X obj 389 558 t b 0 b;
#X obj 388 251 pow 0.5;
#X obj 388 230 average 4;
#X obj 389 579 delay 100;
#X floatatom 449 368 5 0 0 0 - - - 0 0 1, f 5;
#X obj 130 153 average 3;
#X floatatom 130 175 5 0 0 0 - - - 0 0 1, f 5;
#X obj 388 55 switch 2 1;
#X obj 388 103 -;
#X obj 388 167 abs;
#X obj 130 196 > 0.5;
#X obj 130 218 + 1;
#X floatatom 130 240 5 0 0 0 - - - 0 0 1, f 5;
#X obj 130 131 l2ork_wii_jolt_filter 0.05;
#X obj 449 346 pow 0.25;
#X obj 389 495 > 1;
#X obj 389 305 > 0.64;
#X obj 388 146 / 4000;
#X obj 434 391 > 0.3;
#X obj 96 50 t f f f f;
#X connect 0 0 1 0;
#X connect 1 0 6 0;
#X connect 1 1 7 0;
#X connect 1 2 56 0;
#X connect 2 0 13 0;
#X connect 3 0 4 0;
#X connect 4 0 16 0;
#X connect 5 0 8 0;
#X connect 6 0 5 3;
#X connect 6 1 5 0;
#X connect 7 0 5 4;
#X connect 7 1 5 1;
#X connect 8 0 14 0;
#X connect 9 0 18 0;
#X connect 10 0 12 0;
#X connect 11 0 10 0;
#X connect 12 0 3 0;
#X connect 13 0 11 0;
#X connect 14 0 15 0;
#X connect 15 0 2 0;
#X connect 18 0 44 2;
#X connect 18 2 44 1;
#X connect 19 0 45 1;
#X connect 19 1 45 0;
#X connect 20 0 54 0;
#X connect 21 0 32 0;
#X connect 22 0 52 0;
#X connect 23 0 22 0;
#X connect 23 1 22 1;
#X connect 24 0 25 0;
#X connect 25 0 26 0;
#X connect 26 0 27 0;
#X connect 26 1 55 0;
#X connect 27 0 52 0;
#X connect 28 0 29 0;
#X connect 29 0 37 0;
#X connect 30 0 39 0;
#X connect 31 0 17 0;
#X connect 32 0 51 0;
#X connect 33 0 30 0;
#X connect 34 0 53 0;
#X connect 34 1 21 1;
#X connect 34 2 21 0;
#X connect 35 0 22 0;
#X connect 35 1 23 0;
#X connect 36 0 31 0;
#X connect 37 0 40 0;
#X connect 37 1 31 0;
#X connect 37 2 31 1;
#X connect 38 0 34 0;
#X connect 39 0 38 0;
#X connect 40 0 36 0;
#X connect 42 0 43 0;
#X connect 43 0 47 0;
#X connect 44 0 19 0;
#X connect 45 0 20 0;
#X connect 46 0 33 0;
#X connect 47 0 48 0;
#X connect 48 0 44 0;
#X connect 48 0 49 0;
#X connect 50 0 42 0;
#X connect 51 0 26 1;
#X connect 51 0 41 0;
#X connect 52 0 28 0;
#X connect 53 0 24 0;
#X connect 54 0 46 0;
#X connect 55 0 35 0;
#X connect 56 0 5 5;
#X connect 56 1 5 2;
#X connect 56 2 50 0;
#X connect 56 3 50 1;
#X restore 660 477 pd l2orkmote_right_jolt;
#N canvas 264 14 479 534 l2orkmote-right-buttons 0;
#X obj 20 23 inlet;
#X obj 277 23 inlet;
#X obj 20 45 unpack 0 0;
#X obj 77 230 & 8;
#X obj 77 252 > 0;
#X obj 104 319 > 0;
#X obj 104 297 & 4;
#X obj 57 275 tgl 15 0 empty empty empty 17 7 0 10 #fcfcfc #000000
#000000 0 1 1;
#X obj 84 343 tgl 15 0 empty empty empty 17 7 0 10 #fcfcfc #000000
#000000 0 1 1;
#X obj 277 252 > 0;
#X obj 304 319 > 0;
#X obj 257 275 tgl 15 0 empty empty empty 17 7 0 10 #fcfcfc #000000
#000000 0 1 1;
#X obj 284 343 tgl 15 0 empty empty empty 17 7 0 10 #fcfcfc #000000
#000000 0 1 1;
#X obj 277 230 & 2;
#X obj 304 297 & 1;
#X obj 146 407 expr \\$f1+$f2+$f3+$f4;
#X obj 146 429 == 4;
#X obj 183 376 t b f;
#X obj 222 376 t b f;
#X obj 261 376 t b f;
#X obj 146 451 change;
#X obj 146 472 tgl 15 0 empty empty empty 17 7 0 10 #fcfcfc #000000
#000000 0 1 1;
#X obj 77 274 l2orkmote-send button-1 2;
#X obj 277 274 l2orkmote-send button-3 2;
#X obj 304 341 l2orkmote-send button-4 2;
#X obj 104 341 l2orkmote-send button-2 2;
#X obj 146 492 l2orkmote-send button-all 2;
#X obj 77 68 t f f f, f 10;
#X obj 277 68 t f f f, f 10;
#X obj 165 151 +;
#X obj 165 109 t b f;
#X obj 165 173 change;
#X obj 165 195 l2orkmote-send button-raw 2;
#X connect 0 0 2 0;
#X connect 1 0 28 0;
#X connect 2 1 27 0;
#X connect 3 0 4 0;
#X connect 4 0 7 0;
#X connect 4 0 15 0;
#X connect 4 0 22 0;
#X connect 5 0 8 0;
#X connect 5 0 17 0;
#X connect 5 0 25 0;
#X connect 6 0 5 0;
#X connect 9 0 11 0;
#X connect 9 0 18 0;
#X connect 9 0 23 0;
#X connect 10 0 12 0;
#X connect 10 0 19 0;
#X connect 10 0 24 0;
#X connect 13 0 9 0;
#X connect 14 0 10 0;
#X connect 15 0 16 0;
#X connect 16 0 20 0;
#X connect 17 0 15 0;
#X connect 17 1 15 1;
#X connect 18 0 15 0;
#X connect 18 1 15 2;
#X connect 19 0 15 0;
#X connect 19 1 15 3;
#X connect 20 0 21 0;
#X connect 21 0 26 0;
#X connect 27 0 3 0;
#X connect 27 1 6 0;
#X connect 27 2 29 0;
#X connect 28 0 13 0;
#X connect 28 1 14 0;
#X connect 28 2 30 0;
#X connect 29 0 31 0;
#X connect 30 0 29 0;
#X connect 30 1 29 1;
#X connect 31 0 32 0;
#X restore 660 499 pd l2orkmote-right-buttons;
#N canvas 314 64 517 271 l2orkmote_right_accelerometers_raw 0;
#X obj 27 24 inlet;
#X obj 247 24 inlet;
#X obj 27 46 unpack 0 0 0;
#X obj 247 46 unpack 0 0 0;
#X obj 27 178 l2orkmote-send arm-accel-x 2;
#X obj 61 200 l2orkmote-send arm-accel-y 2;
#X obj 96 222 l2orkmote-send arm-accel-z 2;
#X obj 281 200 l2orkmote-send hand-accel-y 2;
#X obj 316 222 l2orkmote-send hand-accel-z 2;
#X obj 110 72 r l2orkmote-hand-swap;
#X obj 110 94 sel 1 0;
#X obj 27 155 * -1;
#X obj 247 155 * -1;
#X msg 110 116 1;
#X msg 140 116 -1;
#X obj 247 178 l2orkmote-send hand-accel-x 2;
#X connect 0 0 2 0;
#X connect 1 0 3 0;
#X connect 2 0 11 0;
#X connect 2 1 5 0;
#X connect 2 2 6 0;
#X connect 3 0 12 0;
#X connect 3 1 7 0;
#X connect 3 2 8 0;
#X connect 9 0 10 0;
#X connect 10 0 13 0;
#X connect 10 1 14 0;
#X connect 11 0 4 0;
#X connect 12 0 15 0;
#X restore 660 521 pd l2orkmote_right_accelerometers_raw;
#N canvas 137 14 470 549 l2orkmote_right_calibrate_plus 0;
#X obj 25 221 unpack 0 0 0;
#X obj 25 460 -;
#X obj 262 460 -;
#X obj 48 316 f;
#X obj 74 316 f;
#X obj 101 316 f;
#X obj 154 432 nbx 5 14 -1e+37 1e+37 0 1 empty empty empty 0 -8 0 10
#fcfcfc #000000 #000000 0 256 0 0 1 0;
#X obj 40 432 nbx 5 14 -1e+37 1e+37 0 1 empty empty empty 0 -8 0 10
#fcfcfc #000000 #000000 0 256 0 0 1 0;
#X obj 97 432 nbx 5 14 -1e+37 1e+37 0 1 empty empty empty 0 -8 0 10
#fcfcfc #000000 #000000 0 256 0 0 1 0;
#X obj 87 460 -;
#X obj 106 221 t b b b b;
#X obj 177 20 loadbang;
#X obj 25 55 inlet;
#X obj 177 307 route read;
#X obj 25 488 pack 0 0 0;
#X obj 25 510 outlet;
#X msg 177 42 read l2orkmote-right.preset \, recall 1;
#X msg 185 250 store 1 \, write l2orkmote-right.preset \, read l2orkmote-right.preset
;
#X obj 177 286 preset_hub l2orkmote-right file %hidden% %node% 1 19
%node% 1 20 %node% 1 21;
#X obj 131 356 preset_node l2orkmote-right;
#X obj 131 376 preset_node l2orkmote-right;
#X obj 131 396 preset_node l2orkmote-right;
#X obj 106 76 r l2orkmote-right-plus-calibrate;
#X obj 177 328 s l2orkmote-right-plus-calibrate-file-present;
#X obj 106 100 t b b;
#X obj 240 152 expr 1-$f1;
#X obj 240 174 gate 1 1;
#X obj 106 198 delay 100;
#X obj 240 130 r l2orkmote-right-connection;
#X obj 240 196 s l2orkmote-right-connect;
#X connect 0 0 3 1;
#X connect 0 0 1 0;
#X connect 0 1 4 1;
#X connect 0 1 9 0;
#X connect 0 2 5 1;
#X connect 0 2 2 0;
#X connect 1 0 14 0;
#X connect 2 0 14 2;
#X connect 3 0 7 0;
#X connect 4 0 8 0;
#X connect 5 0 6 0;
#X connect 6 0 2 1;
#X connect 6 0 21 0;
#X connect 7 0 1 1;
#X connect 7 0 19 0;
#X connect 8 0 9 1;
#X connect 8 0 20 0;
#X connect 9 0 14 1;
#X connect 10 0 17 0;
#X connect 10 1 3 0;
#X connect 10 2 4 0;
#X connect 10 3 5 0;
#X connect 11 0 16 0;
#X connect 12 0 0 0;
#X connect 13 0 23 0;
#X connect 14 0 15 0;
#X connect 16 0 18 0;
#X connect 17 0 18 0;
#X connect 18 0 13 0;
#X connect 19 0 7 0;
#X connect 20 0 8 0;
#X connect 21 0 6 0;
#X connect 22 0 24 0;
#X connect 24 0 27 0;
#X connect 24 1 26 1;
#X connect 25 0 26 0;
#X connect 26 0 29 0;
#X connect 27 0 10 0;
#X connect 28 0 25 0;
#X restore 913 455 pd l2orkmote_right_calibrate_plus;
#N canvas 541 35 470 539 l2orkmote_left_calibrate_plus 0;
#X obj 25 218 unpack 0 0 0;
#X obj 25 457 -;
#X obj 262 457 -;
#X obj 48 313 f;
#X obj 74 313 f;
#X obj 101 313 f;
#X obj 154 429 nbx 5 14 -1e+37 1e+37 0 1 empty empty empty 0 -8 0 10
#fcfcfc #000000 #000000 0 256 0 0 1 0;
#X obj 40 429 nbx 5 14 -1e+37 1e+37 0 1 empty empty empty 0 -8 0 10
#fcfcfc #000000 #000000 0 256 0 0 1 0;
#X obj 97 429 nbx 5 14 -1e+37 1e+37 0 1 empty empty empty 0 -8 0 10
#fcfcfc #000000 #000000 0 256 0 0 1 0;
#X obj 87 457 -;
#X obj 131 353 preset_node l2orkmote-left;
#X obj 131 373 preset_node l2orkmote-left;
#X obj 131 393 preset_node l2orkmote-left;
#X obj 177 283 preset_hub l2orkmote-left file %hidden% %node% 1 10
%node% 1 11 %node% 1 12;
#X obj 106 218 t b b b b;
#X obj 177 20 loadbang;
#X msg 177 42 read l2orkmote-left.preset \, recall 1;
#X obj 25 55 inlet;
#X obj 177 304 route read;
#X msg 185 247 store 1 \, write l2orkmote-left.preset \, read l2orkmote-left.preset
;
#X obj 25 485 pack 0 0 0;
#X obj 25 507 outlet;
#X obj 177 325 s l2orkmote-left-plus-calibrate-file-present;
#X obj 106 76 r l2orkmote-left-plus-calibrate;
#X obj 106 98 t b b;
#X obj 240 128 r l2orkmote-left-connection;
#X obj 240 150 expr 1-$f1;
#X obj 240 172 gate 1 1;
#X obj 106 196 delay 100;
#X obj 240 194 s l2orkmote-left-connect;
#X connect 0 0 3 1;
#X connect 0 0 1 0;
#X connect 0 1 4 1;
#X connect 0 1 9 0;
#X connect 0 2 5 1;
#X connect 0 2 2 0;
#X connect 1 0 20 0;
#X connect 2 0 20 2;
#X connect 3 0 7 0;
#X connect 4 0 8 0;
#X connect 5 0 6 0;
#X connect 6 0 2 1;
#X connect 7 0 1 1;
#X connect 7 0 10 0;
#X connect 8 0 9 1;
#X connect 9 0 20 1;
#X connect 10 0 7 0;
#X connect 11 0 8 0;
#X connect 12 0 6 0;
#X connect 13 0 18 0;
#X connect 14 0 19 0;
#X connect 14 1 3 0;
#X connect 14 2 4 0;
#X connect 14 3 5 0;
#X connect 15 0 16 0;
#X connect 16 0 13 0;
#X connect 17 0 0 0;
#X connect 18 0 22 0;
#X connect 19 0 13 0;
#X connect 20 0 21 0;
#X connect 23 0 24 0;
#X connect 24 0 28 0;
#X connect 24 1 27 1;
#X connect 25 0 26 0;
#X connect 26 0 27 0;
#X connect 27 0 29 0;
#X connect 28 0 14 0;
#X restore 299 455 pd l2orkmote_left_calibrate_plus;
#N canvas 47 14 1038 654 l2orkmote_left_plus_direction 0;
#X obj 54 43 inlet;
#X obj 54 65 unpack 0 0 0;
#X obj 54 192 expr \\$f1/2000;
#X msg 130 296 0;
#X msg 14 390 0;
#X obj 117 254 expr pow($f1 \, 1.6);
#X obj 54 387 expr -pow(-$f1 \, 1.6);
#X obj 54 212 moses 0.085;
#X obj 117 233 - 0.085;
#X obj 54 275 moses -0.085;
#X obj 54 296 + 0.085;
#X obj 199 187 speedlim 500;
#X obj 199 231 delay 1000;
#X obj 199 301 change;
#X obj 199 209 t b b;
#X msg 226 279 1;
#X msg 199 279 0;
#X obj 54 418 nbx 5 14 -1 1 0 0 empty empty empty 0 -8 0 10 #fcfcfc
#000000 #000000 0 256 0 0 1 0;
#X obj 14 367 sel 0;
#X obj 199 346 s l2orkmote-left-plus-connection;
#X obj 297 385 change -1;
#X obj 54 161 expr if(abs($f2) >= abs($f1) \, \\$f2 \, \\$f1);
#X obj 531 98 loadbang;
#X msg 648 139 150;
#X msg 531 139 300;
#X text 409 274 directional calculation;
#X obj 648 385 change -1;
#X obj 445 452 inlet;
#X obj 336 543 % 8;
#X floatatom 297 609 5 0 0 0 - - - 0 0 1, f 5;
#X obj 336 565 sel 0;
#X msg 336 587 8;
#X obj 297 429 moses 1;
#X obj 336 521 expr \\$f1+$f2+8;
#X obj 297 161 expr if(sqrt(pow($f2 \, 2)+pow($f1 \, 2)) > \\$f4 \,
if(abs($f2)>=abs($f1) \, if($f2>=0 \, if($f1<-$f3 \, 2 \, if($f1>$f3
\, 4 \, 3)) \, if($f1<-$f3 \, 8 \, if($f1>$f3 \, 6 \, 7))) \, if($f1>=0
\, if($f2<-$f3 \, 6 \, if($f2>$f3 \, 4 \, 5)) \, if($f2<-$f3 \, 8 \,
if($f2>$f3 \, 2 \, 1)))) \, 0) \; if(sqrt(pow($f2 \, 2)+pow($f1 \,
2)) > \\$f4 \, if(abs($f2)>=abs($f1) \, if($f2>=0 \, 3 \, 7) \, if($f1>=0
\, 5 \, 1)) \, 0);
#X floatatom 648 609 5 0 0 0 - - - 0 0 1, f 5;
#X obj 687 565 sel 0;
#X obj 648 429 moses 1;
#X obj 687 521 expr \\$f1+$f2+8;
#X obj 687 543 % 8;
#X msg 687 587 8;
#X obj 456 521 % 2;
#X obj 456 543 == 0;
#X obj 417 499 t f f f;
#X obj 456 565 gate 1 0;
#X obj 291 118 t f f f f;
#X obj 54 118 t f f f f;
#X obj 667 225 change;
#X obj 485 452 inlet;
#X obj 346 452 nbx 5 14 1 2 0 0 empty empty empty 0 -8 0 10 #fcfcfc
#000000 #000000 1 256 0 0 1 0;
#X obj 417 477 switch 2 1;
#X obj 667 247 expr if($f1>-1 \, 360-($f1+180)%360 \, -1);
#X obj 780 291 r l2orkmote-left-hand-roll;
#X obj 780 313 expr \\$f1*180/3.14159;
#X floatatom 959 357 5 0 0 0 - - - 0 0 1, f 5;
#X obj 667 335 expr if($f1>-1 \, ($f1+$f2+360)%360 \, -1);
#X obj 667 161 expr if(sqrt(pow($f1 \, 2)+pow($f2 \, 2))>100 \, if($f2>0
\, (acos(($f1)/(sqrt(pow($f1 \, 2)+pow($f2 \, 2)))))*180/3.14159 \,
360-(acos(($f1)/(sqrt(pow($f1 \, 2)+pow($f2 \, 2)))))*180/3.14159)
\, -1);
#X obj 54 139 l2orkmote-send plus-vertical 1;
#X obj 291 139 l2orkmote-send plus-horizontal 1;
#X obj 54 438 l2orkmote-send plus-motion 1;
#X obj 304 407 l2orkmote-send plus-direction-relative-8 1;
#X obj 297 630 l2orkmote-send plus-direction-absolute-8 1;
#X obj 655 407 l2orkmote-send plus-direction-relative-4 1;
#X obj 667 357 l2orkmote-send plus-direction-absolute-analog 1;
#X obj 648 630 l2orkmote-send plus-direction-absolute-4 1;
#X obj 667 269 l2orkmote-send plus-direction-relative-analog 1;
#X obj 116 118 l2orkmote-send plus-roll 1;
#X obj 346 429 r l2orkmote-plus-direction-absolute-modifier;
#X obj 151 7 r l2orkmote-hand-swap;
#X obj 151 29 sel 1 0;
#X obj 116 97 * 1;
#X msg 151 51 -1;
#X msg 181 51 1;
#X obj 291 97 * 1;
#X connect 0 0 1 0;
#X connect 1 0 46 0;
#X connect 1 1 70 0;
#X connect 1 2 73 0;
#X connect 2 0 7 0;
#X connect 3 0 17 0;
#X connect 4 0 17 0;
#X connect 5 0 17 0;
#X connect 6 0 17 0;
#X connect 7 0 9 0;
#X connect 7 1 8 0;
#X connect 8 0 5 0;
#X connect 9 0 10 0;
#X connect 9 1 3 0;
#X connect 10 0 6 0;
#X connect 11 0 14 0;
#X connect 12 0 16 0;
#X connect 13 0 18 0;
#X connect 13 0 19 0;
#X connect 14 0 12 0;
#X connect 14 1 15 0;
#X connect 15 0 13 0;
#X connect 16 0 13 0;
#X connect 17 0 59 0;
#X connect 18 0 4 0;
#X connect 20 0 32 0;
#X connect 20 0 60 0;
#X connect 21 0 2 0;
#X connect 21 0 11 0;
#X connect 22 0 24 0;
#X connect 22 0 23 0;
#X connect 23 0 34 3;
#X connect 24 0 34 2;
#X connect 26 0 37 0;
#X connect 26 0 62 0;
#X connect 27 0 50 1;
#X connect 28 0 30 0;
#X connect 29 0 61 0;
#X connect 30 0 31 0;
#X connect 30 1 29 0;
#X connect 31 0 29 0;
#X connect 32 0 29 0;
#X connect 32 1 33 0;
#X connect 33 0 28 0;
#X connect 34 0 20 0;
#X connect 34 1 26 0;
#X connect 35 0 64 0;
#X connect 36 0 40 0;
#X connect 36 1 35 0;
#X connect 37 0 35 0;
#X connect 37 1 38 0;
#X connect 38 0 39 0;
#X connect 39 0 36 0;
#X connect 40 0 35 0;
#X connect 41 0 42 0;
#X connect 42 0 44 0;
#X connect 43 0 33 1;
#X connect 43 1 44 1;
#X connect 43 2 41 0;
#X connect 44 0 38 1;
#X connect 45 0 58 0;
#X connect 45 1 21 1;
#X connect 45 2 34 1;
#X connect 45 3 56 1;
#X connect 46 0 57 0;
#X connect 46 1 21 0;
#X connect 46 2 34 0;
#X connect 46 3 56 0;
#X connect 47 0 51 0;
#X connect 48 0 50 2;
#X connect 49 0 50 0;
#X connect 50 0 43 0;
#X connect 51 0 55 0;
#X connect 51 0 65 0;
#X connect 52 0 53 0;
#X connect 53 0 55 1;
#X connect 55 0 54 0;
#X connect 55 0 63 0;
#X connect 56 0 47 0;
#X connect 67 0 49 0;
#X connect 68 0 69 0;
#X connect 69 0 71 0;
#X connect 69 1 72 0;
#X connect 70 0 66 0;
#X connect 73 0 45 0;
#X restore 299 521 pd l2orkmote_left_plus_direction;
#N canvas 140 29 394 586 l2orkmote_right_arm_roll 0;
#X obj 70 27 inlet;
#X obj 71 187 atan;
#X obj 71 166 expr \\$f1 / \\$f2;
#X obj 105 215 expr if ($f1 > 0 \, 3.14159 \, -3.14159);
#X obj 71 238 pack 0 0 0, f 12;
#X obj 125 144 sel 0;
#X obj 71 118 l2ork_wii_jolt_filter;
#X obj 71 81 unpack 0 0 0;
#X obj 71 49 t l l;
#X obj 71 392 nbx 5 14 -2.5 2.5 0 0 empty empty empty 0 -8 0 10 #fcfcfc
#000000 #000000 0 256 0 0 1 0;
#X obj 71 468 > 0.4;
#X obj 108 468 > 1;
#X obj 133 468 > 1.75;
#X obj 177 468 > 2.25;
#X floatatom 71 517 5 0 0 0 - - - 0 0 1, f 5;
#X obj 71 443 t f f f f f f, f 32;
#X obj 71 495 expr 4-($f1+$f2+$f3+$f4+$f5+$f6);
#X obj 260 468 > -0.4;
#X obj 222 468 > -1;
#X obj 71 538 outlet;
#X obj 83 417 l2orkmote-send arm-roll 2;
#X obj 107 297 r l2orkmote-hand-swap;
#X obj 107 319 sel 1 0;
#X msg 107 341 1;
#X msg 137 341 -1;
#X obj 71 370 * -1;
#X obj 71 260 expr if ($f3 <= 0 \, \\$f1 + \\$f2 \, \\$f1);
#X connect 0 0 8 0;
#X connect 1 0 4 0;
#X connect 2 0 1 0;
#X connect 3 0 4 1;
#X connect 4 0 26 0;
#X connect 5 1 2 1;
#X connect 5 1 4 2;
#X connect 6 0 3 0;
#X connect 6 0 2 0;
#X connect 7 0 6 0;
#X connect 7 2 5 0;
#X connect 8 0 7 0;
#X connect 8 1 6 1;
#X connect 9 0 15 0;
#X connect 9 0 20 0;
#X connect 10 0 16 0;
#X connect 11 0 16 1;
#X connect 12 0 16 2;
#X connect 13 0 16 3;
#X connect 14 0 19 0;
#X connect 15 0 10 0;
#X connect 15 1 11 0;
#X connect 15 2 12 0;
#X connect 15 3 13 0;
#X connect 15 4 18 0;
#X connect 15 5 17 0;
#X connect 16 0 14 0;
#X connect 17 0 16 5;
#X connect 18 0 16 4;
#X connect 21 0 22 0;
#X connect 22 0 23 0;
#X connect 22 1 24 0;
#X connect 25 0 9 0;
#X connect 26 0 25 0;
#X restore 1010 477 pd l2orkmote_right_arm_roll;
#N canvas 842 29 394 588 l2orkmote_right_hand_roll 0;
#X obj 70 27 inlet;
#X obj 71 187 atan;
#X obj 71 166 expr \\$f1 / \\$f2;
#X obj 105 215 expr if ($f1 > 0 \, 3.14159 \, -3.14159);
#X obj 71 238 pack 0 0 0, f 12;
#X obj 71 260 expr if ($f3 <= 0 \, \\$f1 + \\$f2 \, \\$f1);
#X obj 125 144 sel 0;
#X obj 71 118 l2ork_wii_jolt_filter;
#X obj 71 81 unpack 0 0 0;
#X obj 71 49 t l l;
#X obj 71 392 nbx 5 14 -2.5 2.5 0 0 empty empty empty 0 -8 0 10 #fcfcfc
#000000 #000000 0 256 0 0 1 0;
#X obj 71 468 > 0.4;
#X obj 108 468 > 1;
#X obj 133 468 > 1.75;
#X obj 177 468 > 2.25;
#X floatatom 71 517 5 0 0 0 - - - 0 0 1, f 5;
#X obj 71 443 t f f f f f f, f 32;
#X obj 260 468 > -0.4;
#X obj 222 468 > -1;
#X obj 71 538 outlet;
#X obj 71 495 expr ($f1+$f2+$f3+$f4+$f5+$f6)-2;
#X obj 83 417 l2orkmote-send hand-roll 2;
#X obj 107 297 r l2orkmote-hand-swap;
#X obj 107 319 sel 1 0;
#X msg 107 341 1;
#X msg 137 341 -1;
#X obj 71 370 * -1;
#X connect 0 0 9 0;
#X connect 1 0 4 0;
#X connect 2 0 1 0;
#X connect 3 0 4 1;
#X connect 4 0 5 0;
#X connect 5 0 26 0;
#X connect 6 1 2 1;
#X connect 6 1 4 2;
#X connect 7 0 3 0;
#X connect 7 0 2 0;
#X connect 8 0 7 0;
#X connect 8 2 6 0;
#X connect 9 0 8 0;
#X connect 9 1 7 1;
#X connect 10 0 16 0;
#X connect 10 0 21 0;
#X connect 11 0 20 0;
#X connect 12 0 20 1;
#X connect 13 0 20 2;
#X connect 14 0 20 3;
#X connect 15 0 19 0;
#X connect 16 0 11 0;
#X connect 16 1 12 0;
#X connect 16 2 13 0;
#X connect 16 3 14 0;
#X connect 16 4 18 0;
#X connect 16 5 17 0;
#X connect 17 0 20 5;
#X connect 18 0 20 4;
#X connect 20 0 15 0;
#X connect 22 0 23 0;
#X connect 23 0 24 0;
#X connect 23 1 25 0;
#X connect 26 0 10 0;
#X restore 1108 499 pd l2orkmote_right_hand_roll;
#N canvas 47 14 1066 679 l2orkmote_right_plus_direction 0;
#X obj 54 35 inlet;
#X obj 54 57 unpack 0 0 0;
#X obj 54 216 expr \\$f1/2000;
#X msg 130 320 0;
#X msg 14 414 0;
#X obj 117 278 expr pow($f1 \, 1.6);
#X obj 54 411 expr -pow(-$f1 \, 1.6);
#X obj 54 236 moses 0.085;
#X obj 117 257 - 0.085;
#X obj 54 299 moses -0.085;
#X obj 54 320 + 0.085;
#X obj 199 211 speedlim 500;
#X obj 199 255 delay 1000;
#X obj 199 325 change;
#X obj 199 233 t b b;
#X msg 226 303 1;
#X msg 199 303 0;
#X obj 54 442 nbx 5 14 -1 1 0 0 empty empty empty 0 -8 0 10 #fcfcfc
#000000 #000000 0 256 0 0 1 0;
#X obj 14 391 sel 0;
#X obj 297 409 change -1;
#X obj 54 185 expr if(abs($f2) >= abs($f1) \, \\$f2 \, \\$f1);
#X obj 531 92 loadbang;
#X msg 660 163 150;
#X msg 531 163 300;
#X text 409 298 directional calculation;
#X obj 660 409 change -1;
#X obj 445 476 inlet;
#X obj 336 567 % 8;
#X floatatom 297 633 5 0 0 0 - - - 0 0 1, f 5;
#X obj 336 589 sel 0;
#X msg 336 611 8;
#X obj 297 453 moses 1;
#X obj 336 545 expr \\$f1+$f2+8;
#X obj 297 185 expr if(sqrt(pow($f2 \, 2)+pow($f1 \, 2)) > \\$f4 \,
if(abs($f2)>=abs($f1) \, if($f2>=0 \, if($f1<-$f3 \, 2 \, if($f1>$f3
\, 4 \, 3)) \, if($f1<-$f3 \, 8 \, if($f1>$f3 \, 6 \, 7))) \, if($f1>=0
\, if($f2<-$f3 \, 6 \, if($f2>$f3 \, 4 \, 5)) \, if($f2<-$f3 \, 8 \,
if($f2>$f3 \, 2 \, 1)))) \, 0) \; if(sqrt(pow($f2 \, 2)+pow($f1 \,
2)) > \\$f4 \, if(abs($f2)>=abs($f1) \, if($f2>=0 \, 3 \, 7) \, if($f1>=0
\, 5 \, 1)) \, 0), f 61;
#X floatatom 660 633 5 0 0 0 - - - 0 0 1, f 5;
#X obj 699 589 sel 0;
#X obj 660 453 moses 1;
#X obj 699 545 expr \\$f1+$f2+8;
#X obj 699 567 % 8;
#X msg 699 611 8;
#X obj 456 545 % 2;
#X obj 456 567 == 0;
#X obj 417 523 t f f f;
#X obj 456 589 gate 1 0;
#X obj 291 112 t f f f f;
#X obj 54 112 t f f f f;
#X obj 679 249 change;
#X obj 485 476 inlet;
#X obj 346 476 nbx 5 14 1 2 0 0 empty empty empty 0 -8 0 10 #fcfcfc
#000000 #000000 1 256 0 0 1 0;
#X obj 417 501 switch 2 1;
#X obj 679 271 expr if($f1>-1 \, 360-($f1+180)%360 \, -1);
#X obj 808 337 expr \\$f1*180/3.14159;
#X floatatom 972 381 5 0 0 0 - - - 0 0 1, f 5;
#X obj 199 370 s l2orkmote-right-plus-connection;
#X obj 808 315 r l2orkmote-right-hand-roll;
#X obj 679 359 expr if($f1>-1 \, ($f1+$f2+360)%360 \, -1);
#X obj 679 185 expr if (sqrt(pow($f1 \, 2)+pow($f2 \, 2))>100 \, if($f2>0
\, (acos(($f1)/(sqrt(pow($f1 \, 2)+pow($f2 \, 2)))))*180/3.14159 \,
360-(acos(($f1)/(sqrt(pow($f1 \, 2)+pow($f2 \, 2)))))*180/3.14159)
\, -1);
#X obj 346 453 r l2orkmote-plus-direction-absolute-modifier;
#X obj 54 163 l2orkmote-send plus-vertical 2;
#X obj 116 112 l2orkmote-send plus-roll 2;
#X obj 291 163 l2orkmote-send plus-horizontal 2;
#X obj 679 293 l2orkmote-send plus-direction-relative-analog 2;
#X obj 679 381 l2orkmote-send plus-direction-absolute-analog 2;
#X obj 667 431 l2orkmote-send plus-direction-relative-4 2;
#X obj 660 654 l2orkmote-send plus-direction-absolute-4 2;
#X obj 297 654 l2orkmote-send plus-direction-absolute-8 2;
#X obj 304 431 l2orkmote-send plus-direction-relative-8 2;
#X obj 54 462 l2orkmote-send plus-motion 2;
#X obj 116 91 * -1;
#X obj 191 5 r l2orkmote-hand-swap;
#X obj 191 27 sel 1 0;
#X msg 191 49 1;
#X msg 221 49 -1;
#X obj 291 91 * -1;
#X connect 0 0 1 0;
#X connect 1 0 45 0;
#X connect 1 1 68 0;
#X connect 1 2 73 0;
#X connect 2 0 7 0;
#X connect 3 0 17 0;
#X connect 4 0 17 0;
#X connect 5 0 17 0;
#X connect 6 0 17 0;
#X connect 7 0 9 0;
#X connect 7 1 8 0;
#X connect 8 0 5 0;
#X connect 9 0 10 0;
#X connect 9 1 3 0;
#X connect 10 0 6 0;
#X connect 11 0 14 0;
#X connect 12 0 16 0;
#X connect 13 0 18 0;
#X connect 13 0 53 0;
#X connect 14 0 12 0;
#X connect 14 1 15 0;
#X connect 15 0 13 0;
#X connect 16 0 13 0;
#X connect 17 0 67 0;
#X connect 18 0 4 0;
#X connect 19 0 31 0;
#X connect 19 0 66 0;
#X connect 20 0 2 0;
#X connect 20 0 11 0;
#X connect 21 0 23 0;
#X connect 21 0 22 0;
#X connect 22 0 33 3;
#X connect 23 0 33 2;
#X connect 25 0 36 0;
#X connect 25 0 63 0;
#X connect 26 0 49 1;
#X connect 27 0 29 0;
#X connect 28 0 65 0;
#X connect 29 0 30 0;
#X connect 29 1 28 0;
#X connect 30 0 28 0;
#X connect 31 0 28 0;
#X connect 31 1 32 0;
#X connect 32 0 27 0;
#X connect 33 0 19 0;
#X connect 33 1 25 0;
#X connect 34 0 64 0;
#X connect 35 0 39 0;
#X connect 35 1 34 0;
#X connect 36 0 34 0;
#X connect 36 1 37 0;
#X connect 37 0 38 0;
#X connect 38 0 35 0;
#X connect 39 0 34 0;
#X connect 40 0 41 0;
#X connect 41 0 43 0;
#X connect 42 0 32 1;
#X connect 42 1 43 1;
#X connect 42 2 40 0;
#X connect 43 0 37 1;
#X connect 44 0 60 0;
#X connect 44 1 20 1;
#X connect 44 2 33 1;
#X connect 44 3 56 1;
#X connect 45 0 58 0;
#X connect 45 1 20 0;
#X connect 45 2 33 0;
#X connect 45 3 56 0;
#X connect 46 0 50 0;
#X connect 47 0 49 2;
#X connect 48 0 49 0;
#X connect 49 0 42 0;
#X connect 50 0 55 0;
#X connect 50 0 61 0;
#X connect 51 0 55 1;
#X connect 54 0 51 0;
#X connect 55 0 52 0;
#X connect 55 0 62 0;
#X connect 56 0 46 0;
#X connect 57 0 48 0;
#X connect 68 0 59 0;
#X connect 69 0 70 0;
#X connect 70 0 71 0;
#X connect 70 1 72 0;
#X connect 73 0 44 0;
#X restore 913 521 pd l2orkmote_right_plus_direction;
#X obj 199 67 t b -1 b 0;
#X obj 1013 171 pddplink L2OrkmoteAPI.txt;
#X obj 25 318 l2orkmote-receive message 1;
#X obj 637 318 l2orkmote-receive message 2;
#X obj 373 386 s l2orkmote-left-connection;
#X obj 987 386 s l2orkmote-right-connection;
#X text 1013 33 L2Orkmote abstraction version 1.0by Ivica Ico Bukvic
(c) 2019ico.bukvic.netl2ork.icat.vt.eduAPI information is found
inL2OrkmoteAPI.txtYou can also access it by clicking on thelink
below.;
#X connect 0 0 36 0;
#X connect 0 1 31 0;
#X connect 0 1 33 0;
#X connect 0 1 35 0;
#X connect 0 1 34 0;
#X connect 0 3 36 1;
#X connect 0 4 35 1;
#X connect 0 4 37 0;
#X connect 0 4 38 0;
#X connect 0 5 32 0;
#X connect 0 6 48 0;
#X connect 0 6 34 1;
#X connect 0 7 21 0;
#X connect 0 7 3 0;
#X connect 1 0 53 0;
#X connect 2 0 0 0;
#X connect 3 0 12 0;
#X connect 4 0 0 0;
#X connect 5 0 6 0;
#X connect 6 0 0 0;
#X connect 7 0 27 0;
#X connect 7 1 30 0;
#X connect 7 2 13 0;
#X connect 7 3 0 0;
#X connect 7 4 40 3;
#X connect 7 5 40 1;
#X connect 7 6 39 0;
#X connect 9 0 0 0;
#X connect 9 0 40 1;
#X connect 10 0 9 0;
#X connect 12 0 2 0;
#X connect 13 0 45 0;
#X connect 13 1 41 0;
#X connect 13 1 44 0;
#X connect 13 1 46 0;
#X connect 13 1 50 0;
#X connect 13 3 45 1;
#X connect 13 4 43 0;
#X connect 13 4 46 1;
#X connect 13 4 51 0;
#X connect 13 5 42 0;
#X connect 13 6 47 0;
#X connect 13 6 44 1;
#X connect 13 7 20 0;
#X connect 13 7 23 0;
#X connect 14 0 15 0;
#X connect 15 0 13 0;
#X connect 16 0 13 0;
#X connect 17 0 18 0;
#X connect 18 0 19 0;
#X connect 18 1 19 1;
#X connect 19 0 39 1;
#X connect 20 0 16 0;
#X connect 20 0 14 0;
#X connect 20 0 17 0;
#X connect 20 0 40 2;
#X connect 20 0 58 0;
#X connect 21 0 4 0;
#X connect 21 0 19 0;
#X connect 21 0 5 0;
#X connect 21 0 40 0;
#X connect 21 0 57 0;
#X connect 22 0 13 0;
#X connect 23 0 24 0;
#X connect 24 0 22 0;
#X connect 25 0 39 1;
#X connect 26 0 7 0;
#X connect 27 0 10 0;
#X connect 27 1 40 1;
#X connect 28 0 13 0;
#X connect 29 0 28 0;
#X connect 30 0 29 0;
#X connect 30 1 40 3;
#X connect 33 0 49 1;
#X connect 37 0 49 2;
#X connect 47 0 52 0;
#X connect 48 0 49 0;
#X connect 50 0 52 1;
#X connect 51 0 52 2;
#X connect 53 0 26 0;
#X connect 53 1 25 0;
#X connect 53 2 3 1;
#X connect 53 2 23 1;
#X connect 53 3 19 1;
#X connect 55 0 0 0;
#X connect 56 0 13 0;
#X coords 0 -1 1 1 128 44 2 197 15;
