#N canvas 178 190 420 467 10;
#X obj 179 112 inlet;
#X obj 179 436 send;
#X obj 200 412 tosymbol;
#X obj 16 49 loadbang;
#X obj 16 71 t b b, f 14;
#X obj 16 328 sel 1 2;
#X msg 16 350 left;
#X msg 56 350 right;
#X text 123 11 arguments:1 = send context (without l2orkmote-left/right)2
= default position (1=left \, 2=right);
#X obj 16 377 sprintf l2orkmote-%s-%s;
#X obj 16 183 \$2;
#X obj 97 350 symbol \$1;
#X obj 28 113 r l2orkmote-hand-swap;
#X obj 16 205 +, f 7;
#X obj 28 136 tgl 15 0 empty empty empty 17 7 0 10 -262144 -1 -1 0
1;
#X obj 16 227 % 2;
#X msg 16 271 2;
#X floatatom 16 293 5 0 0 0 - - -, f 5;
#X obj 16 249 sel 0;
#X obj 28 156 t b f;
#X connect 0 0 1 0;
#X connect 2 0 1 1;
#X connect 3 0 4 0;
#X connect 4 0 10 0;
#X connect 4 1 11 0;
#X connect 5 0 6 0;
#X connect 5 1 7 0;
#X connect 6 0 9 0;
#X connect 7 0 9 0;
#X connect 9 0 2 0;
#X connect 10 0 13 0;
#X connect 11 0 9 1;
#X connect 12 0 14 0;
#X connect 13 0 15 0;
#X connect 14 0 19 0;
#X connect 15 0 18 0;
#X connect 16 0 17 0;
#X connect 17 0 5 0;
#X connect 18 0 16 0;
#X connect 18 1 17 0;
#X connect 19 0 10 0;
#X connect 19 1 13 1;
