#N canvas 276 136 565 357 10;
#X obj 283 57 inlet;
#X obj 169 105 expr sqrt(pow($f1 \, 2) + pow($f2 \, 2) + pow($f3 \,
2));
#X obj 283 81 unpack 0 0 0;
#X obj 176 154 -;
#X obj 169 127 t f f;
#X obj 176 175 abs;
#X obj 143 341 gate 1 1;
#X obj 207 235 sel 1;
#X msg 207 256 1;
#X obj 143 362 outlet;
#X obj 137 234 inlet;
#X obj 207 277 change;
#X msg 237 256 0;
#X obj 207 215 < 0.2;
#X obj 207 161 f \$1;
#X obj 207 139 loadbang;
#X obj 207 184 sel 0;
#X obj 337 139 inlet;
#X obj 207 299 sel 0;
#X obj 207 321 s l2ork_wii_jolt_filter_report_hit;
#X connect 0 0 2 0;
#X connect 1 0 4 0;
#X connect 2 0 1 0;
#X connect 2 1 1 1;
#X connect 2 2 1 2;
#X connect 3 0 5 0;
#X connect 4 0 3 1;
#X connect 4 1 3 0;
#X connect 5 0 13 0;
#X connect 6 0 9 0;
#X connect 7 0 8 0;
#X connect 7 1 12 0;
#X connect 8 0 11 0;
#X connect 10 0 6 1;
#X connect 11 0 6 0;
#X connect 11 0 18 0;
#X connect 12 0 11 0;
#X connect 13 0 7 0;
#X connect 14 0 16 0;
#X connect 15 0 14 0;
#X connect 16 1 13 1;
#X connect 17 0 16 0;
#X connect 18 0 19 0;
