#N canvas 603 16 559 564 10;
#X obj 283 462 inlet;
#X obj 283 526 send;
#X obj 304 502 tosymbol;
#X obj 276 126 tgl 15 0 empty empty empty 17 7 0 10 -262144 -1 -1 0
1;
#X obj 296 265 % 2;
#X msg 296 309 2;
#X floatatom 296 331 5 0 0 0 - - -, f 5;
#X obj 296 287 sel 0;
#X obj 276 103 r l2orkmote-joystick-mirror;
#X obj 20 462 sprintf l2orkmote-%s-joystick-angle-%s-%s;
#X obj 21 80 loadbang;
#X obj 21 363 sel 1 2;
#X msg 21 385 left;
#X msg 61 385 right;
#X obj 102 385 symbol \$1;
#X obj 33 147 r l2orkmote-hand-swap;
#X obj 21 250 +, f 7;
#X obj 33 171 tgl 15 0 empty empty empty 17 7 0 10 -262144 -1 -1 0
1;
#X obj 21 272 % 2;
#X msg 21 316 2;
#X floatatom 21 338 5 0 0 0 - - -, f 5;
#X obj 21 294 sel 0;
#X obj 33 191 t b f;
#X obj 21 103 t b b b, f 14;
#X text 149 11 arguments:1 = send context (without l2orkmote-left/right-joystick-angle-)2
= default position (1=left \, 2=right)3 = default mirroring (1=clockwise
\, 2=counterclockwise), f 65;
#X obj 296 352 sel 1 2;
#X msg 296 374 clockwise;
#X msg 362 374 counterclockwise;
#X obj 296 243 +, f 6;
#X obj 276 147 t b b f;
#X obj 21 228 \$3;
#X obj 296 221 \$2;
#X connect 0 0 1 0;
#X connect 2 0 1 1;
#X connect 3 0 29 0;
#X connect 4 0 7 0;
#X connect 5 0 6 0;
#X connect 6 0 25 0;
#X connect 7 0 5 0;
#X connect 7 1 6 0;
#X connect 8 0 3 0;
#X connect 9 0 2 0;
#X connect 10 0 23 0;
#X connect 11 0 12 0;
#X connect 11 1 13 0;
#X connect 12 0 9 0;
#X connect 13 0 9 0;
#X connect 14 0 9 2;
#X connect 15 0 17 0;
#X connect 16 0 18 0;
#X connect 17 0 22 0;
#X connect 18 0 21 0;
#X connect 19 0 20 0;
#X connect 20 0 11 0;
#X connect 21 0 19 0;
#X connect 21 1 20 0;
#X connect 22 0 30 0;
#X connect 22 1 16 1;
#X connect 23 0 30 0;
#X connect 23 1 14 0;
#X connect 23 2 31 0;
#X connect 25 0 26 0;
#X connect 25 1 27 0;
#X connect 26 0 9 1;
#X connect 27 0 9 1;
#X connect 28 0 4 0;
#X connect 29 0 30 0;
#X connect 29 1 31 0;
#X connect 29 2 28 1;
#X connect 30 0 16 0;
#X connect 31 0 28 0;
