#N canvas 158 170 413 364 10;
#X obj 18 59 loadbang;
#X obj 30 83 r l2orkmote-hand-swap;
#X obj 18 175 +, f 7;
#X obj 30 106 tgl 15 0 empty empty empty 17 7 0 10 -262144 -1 -1 0
1;
#X obj 18 197 % 2;
#X msg 18 241 2;
#X floatatom 18 263 5 0 0 0 - - -, f 5;
#X obj 18 219 sel 0;
#X obj 30 126 t b f;
#X text 108 18 arguments:1 = send context (without l2orkmote-left/right)2
= default position (1=left \, 2=right);
#X obj 192 283 r l2orkmote-right-\$1;
#X obj 163 260 r l2orkmote-left-\$1;
#X obj 18 153 \$2;
#X obj 135 327 outlet;
#X obj 135 304 switch 2 0;
#X connect 0 0 12 0;
#X connect 1 0 3 0;
#X connect 2 0 4 0;
#X connect 3 0 8 0;
#X connect 4 0 7 0;
#X connect 5 0 6 0;
#X connect 6 0 14 0;
#X connect 7 0 5 0;
#X connect 7 1 6 0;
#X connect 8 0 12 0;
#X connect 8 1 2 1;
#X connect 10 0 14 2;
#X connect 11 0 14 1;
#X connect 12 0 2 0;
#X connect 14 0 13 0;
