#N canvas 72 8 1806 1043 10;
#X obj -30 -115 preset_hub k12 1 %hidden% %node% 2 9 8 %preset% 0 0
%node% 2 21 7 %node% 1 26 %preset% 0 0.616984;
#N canvas 1003 416 751 398 dac-control 0;
#X obj 98 44 inlet~;
#X obj 608 44 inlet~;
#X obj 345 344 dac~;
#X obj 174 44 r main-out-send;
#X msg 113 232 \$1 10;
#X obj 113 261 line~;
#X obj 98 296 *~;
#X msg 623 232 \$1 10;
#X obj 623 261 line~;
#X obj 608 296 *~;
#X obj 174 173 - 0.01;
#X obj 300 291 s main-out-receive;
#X msg 300 263 set \$1;
#X obj 299 44 loadbang;
#X obj 299 72 t 1 b 0;
#X obj 322 109 s main-out-get-level;
#X obj 174 114 t f f f;
#X obj 353 142 r main-out-get-level;
#X obj 300 170 gate 1 1;
#X obj 300 226 f;
#X obj 402 344 s~ \$0-main-output-r;
#X obj 202 344 s~ \$0-main-output-l;
#X obj 130 296 s~ \$0-left-multiplier;
#X obj 463 296 s~ \$0-right-multiplier;
#X connect 0 0 6 0;
#X connect 1 0 9 0;
#X connect 3 0 16 0;
#X connect 4 0 5 0;
#X connect 5 0 6 1;
#X connect 5 0 22 0;
#X connect 6 0 2 0;
#X connect 6 0 21 0;
#X connect 7 0 8 0;
#X connect 8 0 9 1;
#X connect 8 0 23 0;
#X connect 9 0 2 1;
#X connect 9 0 20 0;
#X connect 10 0 4 0;
#X connect 10 0 7 0;
#X connect 12 0 11 0;
#X connect 13 0 14 0;
#X connect 14 0 18 0;
#X connect 14 1 15 0;
#X connect 14 2 18 0;
#X connect 16 0 10 0;
#X connect 16 1 12 0;
#X connect 16 2 19 1;
#X connect 17 0 18 1;
#X connect 18 0 19 0;
#X connect 19 0 12 0;
#X restore 669 1006 pd dac-control;
#N canvas 1110 400 300 547 soundfile-init 0;
#N canvas 727 359 450 300 (subpatch) 0;
#X array verse1 576000 float 0 black black;
#X coords 0 1 575999 -1 200 140 1;
#X scroll 1;
#X restore 33 24 graph;
#X obj 20 181 loadbang;
#X obj 47 271 soundfiler;
#X obj 20 206 t b b;
#X obj 20 510 outlet;
#X obj 210 510 outlet;
#X obj 20 300 array size verse1;
#X msg 47 233 read -resize verse1-quantized.wav verse1;
#X obj 20 447 expr 1/($f1/48000);
#X obj 20 395 metro 1000;
#X obj 20 424 f, f 15;
#X obj 20 470 change -1;
#X obj 20 330 t 1 f f;
#X connect 1 0 3 0;
#X connect 3 0 6 0;
#X connect 3 1 7 0;
#X connect 6 0 12 0;
#X connect 7 0 2 0;
#X connect 8 0 11 0;
#X connect 9 0 10 0;
#X connect 10 0 8 0;
#X connect 11 0 4 0;
#X connect 12 0 9 0;
#X connect 12 1 10 1;
#X connect 12 2 5 0;
#X restore 200 650 pd soundfile-init;
#X obj 228 716 phasor~;
#X obj 228 739 *~ 846720;
#X obj 120 978 hsl 330 52 0.01 1 1 0 main-out-send main-out-receive
empty -2 -8 0 10 #ffc4c4c4 #ff000000 #ff000000 29450 1 0 1;
#X text 129 996 SILENT;
#X text 402 996 LOUDEST;
#X text 226 996 AUDIO OUTPUT VOLUME;
#X obj 780 896 K12/fx_reverb;
#X obj 183 679 f;
#X obj 295 364 tgl 50 0 empty empty empty 17 7 0 10 #fffcfcfc #ff000000
#ff000000 0 1 1;
#X obj 295 424 sel 1 0;
#X obj 247 803 *~;
#X obj 267 520 Line~;
#X msg 267 495 \$1 5;
#X obj 322 557 gate 2 1;
#X obj 348 459 t 0 1;
#X obj 295 459 t 1 2;
#X obj 322 582 t 0;
#X obj 367 582 t b 0;
#X obj 20 940 K12/preset;
#X text 265 957 V;
#X obj 20 877 loadbang;
#X msg 20 902 0;
#X obj 159 176 unpack 0 0;
#X obj 120 954 preset_node k12;
#X obj 312 176 unpack 0 0;
#X obj 142 239 r;
#X msg 159 214 set \$1-tracker-sync;
#X obj 142 283 ==, f 11;
#X obj 142 305 sel 1;
#X obj 142 261 change -1;
#X obj 142 327 t 1 0, f 11;
#X obj 295 239 r;
#X msg 312 214 set \$1-tracker-sync;
#X obj 295 283 ==, f 11;
#X obj 295 305 sel 1;
#X obj 295 261 change -1;
#X obj 295 327 t 0 0, f 11;
#X obj 159 151 route 0;
#X text 10 140 first \, look for sound 0then...args:1=part to sync
with2=beat to start at;
#X obj 312 151 route 0;
#X obj 680 40 r l2ork-custom;
#X obj 680 65 route soundfile;
#X obj 680 90 route 1 0;
#X obj 228 762 tabread4~ verse1;
#X obj 717 860 *~ 1;
#X obj 670 860 *~ 0.5;
#N canvas 1110 400 300 547 soundfile-init 0;
#N canvas 727 359 450 300 (subpatch) 0;
#X array verse2 618921 float 0 black black;
#X coords 0 1 618920 -1 200 140 1;
#X scroll 1;
#X restore 33 24 graph;
#X obj 20 181 loadbang;
#X obj 47 271 soundfiler;
#X obj 20 206 t b b;
#X obj 20 510 outlet;
#X obj 210 510 outlet;
#X obj 20 447 expr 1/($f1/48000);
#X obj 20 395 metro 1000;
#X obj 20 424 f, f 15;
#X obj 20 470 change -1;
#X obj 20 330 t 1 f f;
#X obj 20 300 array size verse2;
#X msg 47 233 read -resize verse2-quantized.wav verse2;
#X connect 1 0 3 0;
#X connect 3 0 11 0;
#X connect 3 1 12 0;
#X connect 6 0 9 0;
#X connect 7 0 8 0;
#X connect 8 0 6 0;
#X connect 9 0 4 0;
#X connect 10 0 7 0;
#X connect 10 1 8 1;
#X connect 10 2 5 0;
#X connect 11 0 10 0;
#X connect 12 0 2 0;
#X restore 500 650 pd soundfile-init;
#X obj 528 716 phasor~;
#X obj 528 739 *~ 846720;
#X obj 483 679 f;
#X obj 595 364 tgl 50 0 empty empty empty 17 7 0 10 #fffcfcfc #ff000000
#ff000000 0 1 1;
#X obj 595 424 sel 1 0;
#X obj 547 803 *~;
#X obj 567 520 Line~;
#X msg 567 495 \$1 5;
#X obj 622 557 gate 2 1;
#X obj 648 459 t 0 1;
#X obj 595 459 t 1 2;
#X obj 622 582 t 0;
#X obj 667 582 t b 0;
#X obj 459 176 unpack 0 0;
#X obj 612 176 unpack 0 0;
#X obj 442 239 r;
#X msg 459 214 set \$1-tracker-sync;
#X obj 442 283 ==, f 11;
#X obj 442 305 sel 1;
#X obj 442 261 change -1;
#X obj 442 327 t 1 0, f 11;
#X obj 595 239 r;
#X msg 612 214 set \$1-tracker-sync;
#X obj 595 283 ==, f 11;
#X obj 595 305 sel 1;
#X obj 595 261 change -1;
#X obj 595 327 t 0 0, f 11;
#X obj 459 151 route 1;
#X obj 612 151 route 1;
#N canvas 1110 400 332 547 soundfile-init 0;
#N canvas 727 359 450 300 (subpatch) 0;
#X array refrain-short 575653 float 0 black black;
#X coords 0 1 575652 -1 200 140 1;
#X scroll 1;
#X restore 33 24 graph;
#X obj 20 181 loadbang;
#X obj 47 271 soundfiler;
#X obj 20 206 t b b;
#X obj 20 510 outlet;
#X obj 210 510 outlet;
#X obj 20 447 expr 1/($f1/48000);
#X obj 20 395 metro 1000;
#X obj 20 424 f, f 15;
#X obj 20 470 change -1;
#X obj 20 330 t 1 f f;
#X msg 47 233 read -resize refrain-short.wav refrain-short;
#X obj 20 300 array size refrain-short;
#X connect 1 0 3 0;
#X connect 3 0 12 0;
#X connect 3 1 11 0;
#X connect 6 0 9 0;
#X connect 7 0 8 0;
#X connect 8 0 6 0;
#X connect 9 0 4 0;
#X connect 10 0 7 0;
#X connect 10 1 8 1;
#X connect 10 2 5 0;
#X connect 11 0 2 0;
#X connect 12 0 10 0;
#X restore 800 650 pd soundfile-init;
#X obj 828 716 phasor~;
#X obj 828 739 *~ 846720;
#X obj 783 679 f;
#X obj 895 364 tgl 50 0 empty empty empty 17 7 0 10 #fffcfcfc #ff000000
#ff000000 0 1 1;
#X obj 895 424 sel 1 0;
#X obj 847 803 *~;
#X obj 867 520 Line~;
#X msg 867 495 \$1 5;
#X obj 922 557 gate 2 1;
#X obj 948 459 t 0 1;
#X obj 895 459 t 1 2;
#X obj 922 582 t 0;
#X obj 967 582 t b 0;
#X obj 759 176 unpack 0 0;
#X obj 912 176 unpack 0 0;
#X obj 742 239 r;
#X msg 759 214 set \$1-tracker-sync;
#X obj 742 283 ==, f 11;
#X obj 742 305 sel 1;
#X obj 742 261 change -1;
#X obj 742 327 t 1 0, f 11;
#X obj 895 239 r;
#X msg 912 214 set \$1-tracker-sync;
#X obj 895 283 ==, f 11;
#X obj 895 305 sel 1;
#X obj 895 261 change -1;
#X obj 895 327 t 0 0, f 11;
#X obj 759 151 route 2;
#X obj 912 151 route 2;
#X obj 828 762 tabread4~ refrain-short;
#X obj 528 762 tabread4~ verse2;
#N canvas 1110 400 332 547 soundfile-init 0;
#N canvas 727 359 450 300 (subpatch) 0;
#X array refrain-long 980926 float 0 black black;
#X coords 0 1 980925 -1 200 140 1;
#X scroll 1;
#X restore 33 24 graph;
#X obj 20 181 loadbang;
#X obj 47 271 soundfiler;
#X obj 20 206 t b b;
#X obj 20 510 outlet;
#X obj 210 510 outlet;
#X obj 20 447 expr 1/($f1/48000);
#X obj 20 395 metro 1000;
#X obj 20 424 f, f 15;
#X obj 20 470 change -1;
#X obj 20 330 t 1 f f;
#X msg 47 233 read -resize refrain-long.wav refrain-long;
#X obj 20 300 array size refrain-long;
#X connect 1 0 3 0;
#X connect 3 0 12 0;
#X connect 3 1 11 0;
#X connect 6 0 9 0;
#X connect 7 0 8 0;
#X connect 8 0 6 0;
#X connect 9 0 4 0;
#X connect 10 0 7 0;
#X connect 10 1 8 1;
#X connect 10 2 5 0;
#X connect 11 0 2 0;
#X connect 12 0 10 0;
#X restore 1100 650 pd soundfile-init;
#X obj 1128 716 phasor~;
#X obj 1128 739 *~ 846720;
#X obj 1083 679 f;
#X obj 1195 364 tgl 50 0 empty empty empty 17 7 0 10 #fffcfcfc #ff000000
#ff000000 0 1 1;
#X obj 1195 424 sel 1 0;
#X obj 1147 803 *~;
#X obj 1167 520 Line~;
#X msg 1167 495 \$1 5;
#X obj 1222 557 gate 2 1;
#X obj 1248 459 t 0 1;
#X obj 1195 459 t 1 2;
#X obj 1222 582 t 0;
#X obj 1267 582 t b 0;
#X obj 1059 176 unpack 0 0;
#X obj 1212 176 unpack 0 0;
#X obj 1042 239 r;
#X msg 1059 214 set \$1-tracker-sync;
#X obj 1042 283 ==, f 11;
#X obj 1042 305 sel 1;
#X obj 1042 261 change -1;
#X obj 1042 327 t 1 0, f 11;
#X obj 1195 239 r;
#X msg 1212 214 set \$1-tracker-sync;
#X obj 1195 283 ==, f 11;
#X obj 1195 305 sel 1;
#X obj 1195 261 change -1;
#X obj 1195 327 t 0 0, f 11;
#X obj 1059 151 route 3;
#X obj 1212 151 route 3;
#X obj 1128 762 tabread4~ refrain-long;
#X obj 1565 364 tgl 50 0 empty empty empty 17 7 0 10 #fffcfcfc #ff000000
#ff000000 0 1 1;
#X obj 1429 176 unpack 0 0;
#X obj 1582 176 unpack 0 0;
#X obj 1412 239 r;
#X msg 1429 214 set \$1-tracker-sync;
#X obj 1412 283 ==, f 11;
#X obj 1412 305 sel 1;
#X obj 1412 261 change -1;
#X obj 1412 327 t 1 0, f 11;
#X obj 1565 239 r;
#X msg 1582 214 set \$1-tracker-sync;
#X obj 1565 283 ==, f 11;
#X obj 1565 305 sel 1;
#X obj 1565 261 change -1;
#X obj 1565 327 t 0 0, f 11;
#X obj 1429 151 route 4;
#X obj 1582 151 route 4;
#X obj 1452 447 loadbang;
#X msg 1452 472 seed 42;
#X obj 1508 923 oneshot~ b1 beepG1-1.wav;
#X obj 1508 585 bng 15 250 50 0 empty empty empty 17 7 0 10 #FFFCFCFC
#FF000000 #FF000000 1;
#X obj 1529 899 oneshot~ b2 beepD1-1.wav;
#X obj 1529 585 bng 15 250 50 0 empty empty empty 17 7 0 10 #FFFCFCFC
#FF000000 #FF000000 1;
#X obj 1550 585 bng 15 250 50 0 empty empty empty 17 7 0 10 #FFFCFCFC
#FF000000 #FF000000 1;
#X obj 1571 585 bng 15 250 50 0 empty empty empty 17 7 0 10 #FFFCFCFC
#FF000000 #FF000000 1;
#X obj 1592 585 bng 15 250 50 0 empty empty empty 17 7 0 10 #FFFCFCFC
#FF000000 #FF000000 1;
#X obj 1613 585 bng 15 250 50 0 empty empty empty 17 7 0 10 #FFFCFCFC
#FF000000 #FF000000 1;
#X obj 1508 546 sel 1 2 3 4 5 6;
#X obj 1550 873 oneshot~ b3 boopE1-1.wav;
#X obj 1571 849 oneshot~ b4 beepE2-1.wav;
#X obj 1613 799 oneshot~ b6 boopG1-1.wav;
#X obj 1592 825 oneshot~ b5 boopE2-1.wav;
#X obj 1508 520 random 30;
#X obj 1508 472 metro 187.5;
#X connect 2 0 10 1;
#X connect 2 1 4 1;
#X connect 3 0 4 0;
#X connect 4 0 46 0;
#X connect 9 0 1 0;
#X connect 9 0 1 1;
#X connect 10 0 3 0;
#X connect 11 0 12 0;
#X connect 12 0 18 0;
#X connect 12 1 17 0;
#X connect 13 0 47 0;
#X connect 13 0 48 0;
#X connect 14 0 13 1;
#X connect 14 1 16 1;
#X connect 15 0 14 0;
#X connect 16 0 19 0;
#X connect 16 1 20 0;
#X connect 17 0 15 0;
#X connect 17 1 16 0;
#X connect 18 0 15 0;
#X connect 18 1 16 0;
#X connect 19 0 3 0;
#X connect 20 0 10 0;
#X connect 20 1 3 1;
#X connect 23 0 24 0;
#X connect 24 0 21 0;
#X connect 25 0 29 0;
#X connect 25 1 30 1;
#X connect 26 0 5 0;
#X connect 27 0 35 0;
#X connect 27 1 36 1;
#X connect 28 0 32 0;
#X connect 29 0 28 1;
#X connect 30 0 31 0;
#X connect 31 0 33 0;
#X connect 32 0 30 0;
#X connect 33 0 11 0;
#X connect 33 1 29 0;
#X connect 34 0 38 0;
#X connect 35 0 34 1;
#X connect 36 0 37 0;
#X connect 37 0 39 0;
#X connect 38 0 36 0;
#X connect 39 0 11 0;
#X connect 39 1 35 0;
#X connect 40 0 25 0;
#X connect 42 0 27 0;
#X connect 43 0 44 0;
#X connect 44 0 45 0;
#X connect 45 0 40 0;
#X connect 45 0 77 0;
#X connect 45 0 107 0;
#X connect 45 0 139 0;
#X connect 45 0 157 0;
#X connect 45 1 42 0;
#X connect 45 1 78 0;
#X connect 45 1 108 0;
#X connect 45 1 140 0;
#X connect 45 1 158 0;
#X connect 46 0 13 0;
#X connect 47 0 9 0;
#X connect 47 0 1 0;
#X connect 47 0 1 1;
#X connect 48 0 9 0;
#X connect 49 0 52 1;
#X connect 49 1 51 1;
#X connect 50 0 51 0;
#X connect 51 0 110 0;
#X connect 52 0 50 0;
#X connect 53 0 54 0;
#X connect 54 0 60 0;
#X connect 54 1 59 0;
#X connect 55 0 48 0;
#X connect 55 0 47 0;
#X connect 56 0 55 1;
#X connect 56 1 58 1;
#X connect 57 0 56 0;
#X connect 58 0 61 0;
#X connect 58 1 62 0;
#X connect 59 0 57 0;
#X connect 59 1 58 0;
#X connect 60 0 57 0;
#X connect 60 1 58 0;
#X connect 61 0 50 0;
#X connect 62 0 52 0;
#X connect 62 1 50 1;
#X connect 63 0 66 0;
#X connect 63 1 67 1;
#X connect 64 0 72 0;
#X connect 64 1 73 1;
#X connect 65 0 69 0;
#X connect 66 0 65 1;
#X connect 67 0 68 0;
#X connect 68 0 70 0;
#X connect 69 0 67 0;
#X connect 70 0 53 0;
#X connect 70 1 66 0;
#X connect 71 0 75 0;
#X connect 72 0 71 1;
#X connect 73 0 74 0;
#X connect 74 0 76 0;
#X connect 75 0 73 0;
#X connect 76 0 53 0;
#X connect 76 1 72 0;
#X connect 77 0 63 0;
#X connect 78 0 64 0;
#X connect 79 0 82 1;
#X connect 79 1 81 1;
#X connect 80 0 81 0;
#X connect 81 0 109 0;
#X connect 82 0 80 0;
#X connect 83 0 84 0;
#X connect 84 0 90 0;
#X connect 84 1 89 0;
#X connect 85 0 48 0;
#X connect 85 0 47 0;
#X connect 86 0 85 1;
#X connect 86 1 88 1;
#X connect 87 0 86 0;
#X connect 88 0 91 0;
#X connect 88 1 92 0;
#X connect 89 0 87 0;
#X connect 89 1 88 0;
#X connect 90 0 87 0;
#X connect 90 1 88 0;
#X connect 91 0 80 0;
#X connect 92 0 82 0;
#X connect 92 1 80 1;
#X connect 93 0 96 0;
#X connect 93 1 97 1;
#X connect 94 0 102 0;
#X connect 94 1 103 1;
#X connect 95 0 99 0;
#X connect 96 0 95 1;
#X connect 97 0 98 0;
#X connect 98 0 100 0;
#X connect 99 0 97 0;
#X connect 100 0 83 0;
#X connect 100 1 96 0;
#X connect 101 0 105 0;
#X connect 102 0 101 1;
#X connect 103 0 104 0;
#X connect 104 0 106 0;
#X connect 105 0 103 0;
#X connect 106 0 83 0;
#X connect 106 1 102 0;
#X connect 107 0 93 0;
#X connect 108 0 94 0;
#X connect 109 0 85 0;
#X connect 110 0 55 0;
#X connect 111 0 114 1;
#X connect 111 1 113 1;
#X connect 112 0 113 0;
#X connect 113 0 141 0;
#X connect 114 0 112 0;
#X connect 115 0 116 0;
#X connect 116 0 122 0;
#X connect 116 1 121 0;
#X connect 117 0 47 0;
#X connect 117 0 48 0;
#X connect 118 0 117 1;
#X connect 118 1 120 1;
#X connect 119 0 118 0;
#X connect 120 0 123 0;
#X connect 120 1 124 0;
#X connect 121 0 119 0;
#X connect 121 1 120 0;
#X connect 122 0 119 0;
#X connect 122 1 120 0;
#X connect 123 0 112 0;
#X connect 124 0 114 0;
#X connect 124 1 112 1;
#X connect 125 0 128 0;
#X connect 125 1 129 1;
#X connect 126 0 134 0;
#X connect 126 1 135 1;
#X connect 127 0 131 0;
#X connect 128 0 127 1;
#X connect 129 0 130 0;
#X connect 130 0 132 0;
#X connect 131 0 129 0;
#X connect 132 0 115 0;
#X connect 132 1 128 0;
#X connect 133 0 137 0;
#X connect 134 0 133 1;
#X connect 135 0 136 0;
#X connect 136 0 138 0;
#X connect 137 0 135 0;
#X connect 138 0 115 0;
#X connect 138 1 134 0;
#X connect 139 0 125 0;
#X connect 140 0 126 0;
#X connect 141 0 117 0;
#X connect 142 0 175 0;
#X connect 143 0 146 0;
#X connect 143 1 147 1;
#X connect 144 0 152 0;
#X connect 144 1 153 1;
#X connect 145 0 149 0;
#X connect 146 0 145 1;
#X connect 147 0 148 0;
#X connect 148 0 150 0;
#X connect 149 0 147 0;
#X connect 150 0 142 0;
#X connect 150 1 146 0;
#X connect 151 0 155 0;
#X connect 152 0 151 1;
#X connect 153 0 154 0;
#X connect 154 0 156 0;
#X connect 155 0 153 0;
#X connect 156 0 142 0;
#X connect 156 1 152 0;
#X connect 157 0 143 0;
#X connect 158 0 144 0;
#X connect 159 0 160 0;
#X connect 160 0 174 0;
#X connect 161 0 47 0;
#X connect 161 0 48 0;
#X connect 162 0 161 0;
#X connect 163 0 47 0;
#X connect 163 0 48 0;
#X connect 164 0 163 0;
#X connect 165 0 170 0;
#X connect 166 0 171 0;
#X connect 167 0 173 0;
#X connect 168 0 172 0;
#X connect 169 0 162 0;
#X connect 169 1 164 0;
#X connect 169 2 165 0;
#X connect 169 3 166 0;
#X connect 169 4 167 0;
#X connect 169 5 168 0;
#X connect 170 0 47 0;
#X connect 170 0 48 0;
#X connect 171 0 47 0;
#X connect 171 0 48 0;
#X connect 172 0 47 0;
#X connect 172 0 48 0;
#X connect 173 0 47 0;
#X connect 173 0 48 0;
#X connect 174 0 169 0;
#X connect 175 0 174 0;
