#N canvas 722 393 271 341 10;
#X obj -30 -30 preset_hub k12 1 %hidden%;
#X obj 50 157 s chat-out;
#X obj 80 55 r adv-user-ctrl-pass-set;
#X obj 23 83 pack 0 0 s;
#X text 93 83 add part x to user y;
#X obj 23 229 r part-mapper-update;
#X obj 23 254 route \$1;
#X obj 23 305 s part-\$1-radio-r;
#X obj 23 55 t f \$1;
#X obj 23 20 r part-\$1-radio-s;
#X msg 50 133 chat admin p:\$3 l2ork-part \$2 \$1;
#X obj 23 108 t b l;
#X obj 23 185 s l2ork-part-mapper-refresh-parts;
#X msg 23 279 set \$1;
#X connect 2 0 3 2;
#X connect 3 0 11 0;
#X connect 5 0 6 0;
#X connect 6 0 13 0;
#X connect 8 0 3 0;
#X connect 8 1 3 1;
#X connect 9 0 8 0;
#X connect 10 0 1 0;
#X connect 11 0 12 0;
#X connect 11 1 10 0;
#X connect 13 0 7 0;
