#N canvas 234 237 476 825 10;
#X obj -30 -115 preset_hub k12 1 %hidden% %node% 2 14 8 %preset% 0
3 %node% 2 29 7 %node% 1 34 %preset% 0 0.153253;
#N canvas 1003 416 751 398 dac-control 0;
#X obj 98 44 inlet~;
#X obj 608 44 inlet~;
#X obj 345 344 dac~;
#X obj 174 44 r main-out-send;
#X msg 113 232 \$1 10;
#X obj 113 261 line~;
#X obj 98 296 *~;
#X msg 623 232 \$1 10;
#X obj 623 261 line~;
#X obj 608 296 *~;
#X obj 174 173 - 0.01;
#X obj 300 291 s main-out-receive;
#X msg 300 263 set \$1;
#X obj 299 44 loadbang;
#X obj 299 72 t 1 b 0;
#X obj 322 109 s main-out-get-level;
#X obj 174 114 t f f f;
#X obj 353 142 r main-out-get-level;
#X obj 300 170 gate 1 1;
#X obj 300 226 f;
#X obj 402 344 s~ \$0-main-output-r;
#X obj 202 344 s~ \$0-main-output-l;
#X obj 130 296 s~ \$0-left-multiplier;
#X obj 463 296 s~ \$0-right-multiplier;
#X connect 0 0 6 0;
#X connect 1 0 9 0;
#X connect 3 0 16 0;
#X connect 4 0 5 0;
#X connect 5 0 6 1;
#X connect 5 0 22 0;
#X connect 6 0 2 0;
#X connect 6 0 21 0;
#X connect 7 0 8 0;
#X connect 8 0 9 1;
#X connect 8 0 23 0;
#X connect 9 0 2 1;
#X connect 9 0 20 0;
#X connect 10 0 4 0;
#X connect 10 0 7 0;
#X connect 12 0 11 0;
#X connect 13 0 14 0;
#X connect 14 0 18 0;
#X connect 14 1 15 0;
#X connect 14 2 18 0;
#X connect 16 0 10 0;
#X connect 16 1 12 0;
#X connect 16 2 19 1;
#X connect 17 0 18 1;
#X connect 18 0 19 0;
#X connect 19 0 12 0;
#X restore 14 751 pd dac-control;
#N canvas 1111 400 268 414 soundfile-init 0;
#N canvas 727 359 450 300 (subpatch) 0;
#X array left 756304 float 0 black black;
#X coords 0 1 756303 -1 200 140 1;
#X scroll 1;
#X restore 33 24 graph;
#X obj 20 181 loadbang;
#X obj 47 271 soundfiler;
#X obj 20 206 t b b;
#X obj 20 300 array size left;
#X obj 20 372 outlet;
#X obj 70 372 outlet;
#X obj 20 325 t 1 f;
#X msg 47 233 read -resize raye-vocals.wav left;
#X connect 1 0 3 0;
#X connect 3 0 4 0;
#X connect 3 1 8 0;
#X connect 4 0 7 0;
#X connect 7 0 5 0;
#X connect 7 1 6 0;
#X connect 8 0 2 0;
#X restore 32 312 pd soundfile-init;
#X obj 15 522 tabread4~ left;
#X obj 15 476 phasor~;
#X obj 32 389 expr 1/($f1/48000);
#X obj 32 337 metro 1000;
#X obj 15 499 *~ 846720;
#X obj 32 366 f;
#X obj 131 336 t f f;
#X obj 124 750 hsl 330 52 0.01 1 1 0 main-out-send main-out-receive
empty -2 -8 0 10 #c4c4c4 #000000 #000000 19500 1 0 1;
#X text 133 768 SILENT;
#X text 406 768 LOUDEST;
#X text 230 768 AUDIO OUTPUT VOLUME;
#X obj 15 641 K12/fx_reverb;
#X obj 62 605 *~ 0.3;
#X obj 15 605 *~ 1.5;
#X obj 15 439 f;
#X obj 295 314 tgl 50 0 empty empty empty 17 7 0 10 #fcfcfc #000000
#000000 0 1 1;
#X obj 295 374 sel 1 0;
#X obj 34 563 *~;
#X obj 267 470 Line~;
#X msg 267 445 \$1 5;
#X obj 322 507 gate 2 1;
#X obj 348 409 t 0 1;
#X obj 295 409 t 1 2;
#X obj 322 532 t 0;
#X obj 367 532 t b 0;
#X obj 32 412 change -1;
#X obj 228 629 K12/preset;
#X text 269 729 V;
#X obj 228 566 loadbang;
#X msg 228 591 0;
#X obj 159 126 unpack 0 0;
#X obj 124 726 preset_node k12;
#X obj 312 126 unpack 0 0;
#X obj 142 189 r;
#X msg 159 164 set \$1-tracker-sync;
#X obj 142 233 ==, f 11;
#X obj 142 255 sel 1;
#X obj 142 211 change -1;
#X obj 142 277 t 1 0, f 11;
#X obj 295 189 r;
#X msg 312 164 set \$1-tracker-sync;
#X obj 295 233 ==, f 11;
#X obj 295 255 sel 1;
#X obj 295 211 change -1;
#X obj 295 277 t 0 0, f 11;
#X obj 159 101 route 0;
#X text 12 85 first \, look for sound 0then...args:1=part to sync
with2=beat to start at;
#X obj 312 101 route 0;
#X obj 227 16 r l2ork-custom;
#X obj 227 41 route soundfile;
#X obj 227 66 route 1 0;
#X connect 2 0 6 0;
#X connect 2 1 9 0;
#X connect 3 0 20 0;
#X connect 4 0 7 0;
#X connect 5 0 28 0;
#X connect 6 0 8 0;
#X connect 7 0 3 0;
#X connect 8 0 5 0;
#X connect 9 0 8 1;
#X connect 9 1 7 1;
#X connect 14 0 1 0;
#X connect 14 0 1 1;
#X connect 15 0 14 0;
#X connect 15 0 1 0;
#X connect 15 0 1 1;
#X connect 16 0 14 0;
#X connect 17 0 4 0;
#X connect 18 0 19 0;
#X connect 19 0 25 0;
#X connect 19 1 24 0;
#X connect 20 0 16 0;
#X connect 20 0 15 0;
#X connect 21 0 20 1;
#X connect 21 1 23 1;
#X connect 22 0 21 0;
#X connect 23 0 26 0;
#X connect 23 1 27 0;
#X connect 24 0 22 0;
#X connect 24 1 23 0;
#X connect 25 0 22 0;
#X connect 25 1 23 0;
#X connect 26 0 4 0;
#X connect 27 0 17 0;
#X connect 27 1 4 1;
#X connect 28 0 17 1;
#X connect 31 0 32 0;
#X connect 32 0 29 0;
#X connect 33 0 37 0;
#X connect 33 1 38 1;
#X connect 34 0 10 0;
#X connect 35 0 43 0;
#X connect 35 1 44 1;
#X connect 36 0 40 0;
#X connect 37 0 36 1;
#X connect 38 0 39 0;
#X connect 39 0 41 0;
#X connect 40 0 38 0;
#X connect 41 0 18 0;
#X connect 41 1 37 0;
#X connect 42 0 46 0;
#X connect 43 0 42 1;
#X connect 44 0 45 0;
#X connect 45 0 47 0;
#X connect 46 0 44 0;
#X connect 47 0 18 0;
#X connect 47 1 43 0;
#X connect 48 0 33 0;
#X connect 50 0 35 0;
#X connect 51 0 52 0;
#X connect 52 0 53 0;
#X connect 53 0 48 0;
#X connect 53 1 50 0;
