#N canvas 274 82 448 266 10;
#X obj 1 1 cnv 15 445 20 empty \$0-pddp.cnv.header scope_and_locality
20 10 1 18 #fcbcc4 #202020 0;
#X obj 407 2 pddp/pddplink http://puredata.info/dev/pddp -text pddp
;
#X text 20 36 Depending on the complexity of your patches \, you may
need to control whether or not messages will be used by only ONE patch
\, or throughout all open patches. The scope of a message is considered
either 'local' or 'global'., f 68;
#N canvas 16 214 428 366 Global_scope 0;
#N canvas 1 1 254 169 example_a 0;
#X obj 18 19 r foo;
#X floatatom 18 44 5 0 0 0 - - - 0 0 1, f 5;
#X obj 18 96 r a-foo;
#X floatatom 18 116 5 0 0 0 - - - 0 0 1, f 5;
#X connect 0 0 1 0;
#X connect 2 0 3 0;
#X restore 14 56 pd example_a;
#N canvas 121 2 256 168 example_b 0;
#X obj 18 19 r foo;
#X floatatom 18 44 5 0 0 0 - - - 0 0 1, f 5;
#X obj 18 96 r a-foo;
#X floatatom 18 116 5 0 0 0 - - - 0 0 1, f 5;
#X connect 0 0 1 0;
#X connect 2 0 3 0;
#X restore 14 81 pd example_b;
#N canvas 215 2 263 169 example_c 0;
#X obj 18 19 r foo;
#X floatatom 18 44 5 0 0 0 - - - 0 0 1, f 5;
#X obj 18 96 r a-foo;
#X floatatom 18 116 5 0 0 0 - - - 0 0 1, f 5;
#X connect 0 0 1 0;
#X connect 2 0 3 0;
#X restore 14 106 pd example_c;
#X text 17 38 Open these subpatches.;
#X obj 23 187 s foo;
#X floatatom 23 166 5 0 0 0 - - - 0 0 1, f 5;
#X text 13 125 Click-n-drag these number boxes and notice the appropriate
receive objects in each open sub-patch.;
#X floatatom 82 166 5 0 0 0 - - - 0 0 1, f 5;
#X floatatom 159 166 5 0 0 0 - - - 0 0 1, f 5;
#X floatatom 232 166 5 0 0 0 - - - 0 0 1, f 5;
#X obj 82 187 s a-foo;
#X obj 159 187 s b-foo;
#X obj 232 187 s c-foo;
#X text 18 23 GLOBAL SCOPE - send and receive messages in ALL OPEN
PATCHES;
#X obj 1 1 cnv 15 425 20 empty \$0-pddp.cnv.subheading empty 20 10
1 18 #fcbcc4 #202020 0;
#X text 7 1 Global Scope;
#X text 15 217 Send objects simply post their information to the cyberspace
within your computer (that's one way to look at it!) Receive objects
simply keep their ears open for all messages floating through that
cyberspace from send objects of the same name! Hence \, if you name
a [send] something like "foo" \, then all [receive] objects in open
patches named "foo" will 'hear' those messages. Also note that the
term 'open patches' includes all sub-patches \, abstractions and patches
that are currently open in Pd -- they don't have to be VISIBLE...they
only have to be open/embedded in other patches., f 66;
#X connect 5 0 4 0;
#X connect 7 0 10 0;
#X connect 8 0 11 0;
#X connect 9 0 12 0;
#X restore 23 114 pd Global_scope;
#X obj 1 243 cnv 15 445 20 empty \$0-pddp.cnv.footer empty 20 12 0
14 #e0e0e0 #202020 0;
#N canvas 375 272 392 148 META 0;
#X text 12 55 LIBRARY PDDP;
#X text 12 35 DESCRIPTION notions of scope in Pd;
#X text 12 15 KEYWORDS nonlocal needs_work all_about_pd;
#X text 12 75 HELP_PATCH_AUTHORS Dave Sabine \, May 5 \, 2003 . Jonathan
Wilkes revised the patch to conform to the PDDP template for Pd version
0.42. Documentation revised and finished by Ivica Ico Bukvic <ico@vt.edu>
for Pd-L2Ork.;
#X restore 398 245 pd META;
#N canvas 216 279 428 121 Related_objects 0;
#X obj 1 1 cnv 15 425 20 empty \$0-pddp.cnv.subheading empty 3 12 0
14 #fcbcc4 #202020 0;
#X text 7 2 Scope and Locality- Related Objects;
#X restore 103 245 pd Related_objects;
#X obj 6 245 pddp/pddplink all_about.pd -text All About Pd;
#X obj 59 219 pddp/pddplink ../2.control.examples/14.dollarsigns.pd
-text doc/2.control.examples/14.dollarsigns.pd;
#X obj 59 204 pddp/pddplink all_about_dollarsign_zero.pd;
#X obj 23 149 Local_scope and inheritance;
#X text 20 183 For additional info see:;
