#N canvas 585 178 553 688 10;
#X obj 0 663 cnv 15 552 21 empty \$0-pddp.cnv.footer empty 20 12 0
14 #dcdcdc #404040 0;
#X obj 0 0 cnv 15 552 40 empty \$0-pddp.cnv.header canvasinfo 3 12
0 18 #c4dcdc #000000 0;
#X obj 0 519 cnv 3 550 3 empty \$0-pddp.cnv.inlets inlets 8 12 0 13
#dcdcdc #000000 0;
#N canvas 48 165 482 332 META 0;
#X text 12 145 LIBRARY internal;
#X text 12 25 LICENSE SIBSD;
#X text 12 105 INLET_1 float;
#X text 12 5 KEYWORDS patch_op canvas_op;
#X text 12 45 DESCRIPTION get info about a canvas;
#X text 12 65 INLET_0 args boxtext coords dir dirty dollarzero editmode
filename hitbox name pointer posonparent screenpos toplevel vis;
#X text 12 125 OUTLET_0 list;
#X text 12 165 AUTHOR Jonathan Wilkes;
#X text 12 185 RELEASE_DATE 2013;
#X text 12 205 HELP_PATCH_AUTHORS Jonathan Wilkes;
#X restore 500 665 pd META;
#X obj 0 562 cnv 3 550 3 empty \$0-pddp.cnv.outlets outlets 8 12 0
13 #dcdcdc #000000 0;
#X obj 0 594 cnv 3 550 3 empty \$0-pddp.cnv.argument arguments 8 12
0 13 #dcdcdc #000000 0;
#X obj 0 631 cnv 3 550 3 empty \$0-pddp.cnv.more_info more_info 8 12
0 13 #dcdcdc #000000 0;
#X obj 78 527 cnv 17 3 30 empty \$0-pddp.cnv.let.0 0 5 6 0 16 #dcdcdc
#646464 0;
#N canvas 196 385 428 108 Related_objects 0;
#X obj 1 1 cnv 15 425 20 empty \$0-pddp.cnv.subheading empty 3 12 0
14 #c4dcdc #000000 0;
#X text 7 1 [canvasinfo] Related Objects;
#X restore 101 665 pd Related_objects;
#X obj 78 571 cnv 17 3 17 empty \$0-pddp.cnv.let.0 0 5 6 0 16 #dcdcdc
#646464 0;
#X obj 4 665 pddp/pddplink all_about_help_patches.pd -text Usage Guide
;
#X msg 39 48 print;
#X text 98 526 print;
#X text 99 571 list;
#X obj 483 5 canvasinfo;
#X text 11 20 get info about a canvas;
#X obj 39 458 canvasinfo;
#X msg 47 68 args;
#X msg 53 89 boxtext;
#X msg 60 109 coords;
#X text 115 109 list of coords for an abstraction;
#X msg 66 131 dir;
#X msg 73 153 dirty;
#X text 112 152 whether this patch has been edited since the last time
it was saved (0 = no \, 1 = yes);
#X msg 88 220 dollarzero;
#X msg 97 243 editmode;
#X text 156 243 whether the canvas is in editmode (0 = no \, 1 = yes)
;
#X msg 113 289 filename;
#X msg 123 310 hitbox;
#X msg 128 331 name;
#X text 166 331 symbolic receive name for the canvas;
#X text 194 352 pointer to this canvas;
#X msg 138 352 pointer;
#X msg 145 374 posonparent;
#X msg 155 394 screenpos;
#X text 223 374 poson of a gop canvas on its parent canvas;
#X text 223 394 screen position of a visible canvas;
#X msg 165 434 vis;
#X text 193 434 whether a canvas is visible on the screen;
#X text 171 310 see whether a coordinate lies on an object in the canvas
;
#X text 95 130 directory for this canvas' environment;
#X text 158 220 value of \$0 for this canvas' environment;
#X text 175 289 filename for this canvas' environment;
#X obj 39 479 print;
#X msg 164 415 toplevel;
#X text 225 414 whether this canvas is a toplevel (0 = no \, 1 = yes)
;
#N canvas 196 140 428 435 canvas_environment 0;
#X obj 1 1 cnv 15 425 20 empty \$0-pddp.cnv.subheading empty 3 12 0
14 #c4dcdc #000000 0;
#X text 25 34 A canvas can take several forms:;
#X text 25 54 1) A toplevel patch (e.g. \, what you get when you create
a new patch).;
#X text 25 84 2) An abstraction \, or a Pd patch that has been instantiated
in an object box.;
#X text 25 114 3) A subpatch \, like [pd foo].;
#X text 25 144 Toplevel patches and abstractions come with an "environment"
that is inherited by all the [pd] subpatches contained within it.;
#X text 25 184 For example \, this subpatch inherits its "environment
from the canvasinfo-help.pd patch which contains it.;
#X text 25 224 What's included in a canvas' environment?;
#X obj 119 246 bng 15 250 50 0 empty empty empty 17 7 0 10 #fcfcfc
#000000 #000000 1;
#X obj 119 266 f \$0;
#X floatatom 119 300 5 0 0 0 - - - 0 0 1, f 5;
#N canvas 433 184 450 300 another-subpatch 0;
#X msg 148 42 bang;
#X obj 128 63 f \$0;
#X floatatom 148 94 5 0 0 0 - - - 0 0 1, f 5;
#X text 185 95 <-- the value for \$0 is the same for;
#X text 185 109 all canvases in the same environment.;
#X obj 128 21 inlet;
#X obj 128 124 outlet;
#X connect 0 0 1 0;
#X connect 1 0 2 0;
#X connect 1 0 6 0;
#X connect 5 0 1 0;
#X restore 169 279 pd another-subpatch;
#X text 197 259 get the same \$0:;
#X text 25 379 * filename;
#X text 25 359 * directory;
#X text 25 244 * dollarzero:;
#X text 25 329 * args: dollarsign variables \$1 \, \$2 \, \$3 \, and
so on (if they exist);
#X text 7 1 [canvasinfo] What is a Canvas' Environment?;
#X text 197 244 So this subpatch will;
#X obj 169 246 bng 15 250 50 0 empty empty empty 17 7 0 10 #fcfcfc
#000000 #000000 1;
#X floatatom 169 300 5 0 0 0 - - - 0 0 1, f 5;
#X connect 8 0 9 0;
#X connect 9 0 10 0;
#X connect 11 0 20 0;
#X connect 19 0 11 0;
#X restore 101 641 pd canvas_environment;
#N canvas 139 127 428 435 hitbox_and_coords 0;
#X obj 1 1 cnv 15 425 20 empty \$0-pddp.cnv.subheading empty 3 12 0
14 #c4dcdc #000000 0;
#X text 7 1 [canvasinfo] hitbox and coords messages;
#X text 25 34 The "hitbox" message tells whether there's an object
on the canvas that includes the "x y" coordinates you send it:;
#X obj 25 89 canvasinfo;
#X msg 25 68 hitbox 50 75;
#X text 111 67 <-- the point (50 \, 75) is contained within;
#X text 134 83 the message box.;
#X obj 25 110 unpack s f f f f;
#X symbolatom 25 204 10 0 0 3 object - - 0 0 1, f 10;
#X floatatom 93 204 5 0 0 3 top-x - - 0 0 1, f 5;
#X floatatom 131 204 5 0 0 3 top-y - - 0 0 1, f 5;
#X floatatom 169 204 5 0 0 3 btm-x - - 0 0 1, f 5;
#X floatatom 207 203 5 0 0 3 btm-y - - 0 0 1, f 5;
#X text 197 104 If there is a "hit" \, [canvasinfo];
#X text 197 134 followed by coordinates for the;
#X text 197 119 outputs the name of the object;
#X text 197 149 top-right and bottom-left of its;
#X text 197 164 bounding box.;
#X msg 25 257 coords;
#N canvas 433 184 450 300 gop-subpatch 0;
#X obj 31 32 inlet;
#X obj 31 53 canvasinfo;
#X obj 31 184 outlet;
#X connect 0 0 1 0;
#X connect 1 0 2 0;
#X coords 0 -1 1 1 94 40 1 100 100;
#X restore 25 281 pd gop-subpatch;
#X obj 25 334 unpack f f f f f f f f f;
#X floatatom 25 375 5 0 0 3 x-min - - 0 0 1, f 5;
#X floatatom 65 375 5 0 0 3 y-min - - 0 0 1, f 5;
#X floatatom 105 375 5 0 0 3 x-max - - 0 0 1, f 5;
#X floatatom 145 375 5 0 0 3 y-max - - 0 0 1, f 5;
#X floatatom 185 375 5 0 0 3 width - - 0 0 1, f 5;
#X floatatom 225 375 5 0 0 3 height - - 0 0 1, f 5;
#X floatatom 270 375 5 0 0 3 gop - - 0 0 1, f 5;
#X floatatom 310 375 5 0 0 3 x-margin - - 0 0 1, f 5;
#X floatatom 365 375 5 0 0 3 y-margin - - 0 0 1, f 5;
#X text 82 257 The "coords" message returns info that is set in the
;
#X text 132 272 "Properties" dialog for gop dimensions \,;
#X text 132 287 data structure scaling \, and so on.;
#X connect 3 0 7 0;
#X connect 4 0 3 0;
#X connect 7 0 8 0;
#X connect 7 1 9 0;
#X connect 7 2 10 0;
#X connect 7 3 11 0;
#X connect 7 4 12 0;
#X connect 18 0 19 0;
#X connect 19 0 20 0;
#X connect 20 0 21 0;
#X connect 20 1 22 0;
#X connect 20 2 23 0;
#X connect 20 3 24 0;
#X connect 20 4 25 0;
#X connect 20 5 26 0;
#X connect 20 6 27 0;
#X connect 20 7 28 0;
#X connect 20 8 29 0;
#X restore 251 641 pd hitbox_and_coords;
#X text 81 609 1) float;
#X text 169 609 - canvas stacking level (0 = this canvas \, 1 = parent
\, etc.);
#X text 110 89 text of the object box for an abstraction or subpatch
(raw);
#X text 89 68 list of dollarsign argument values for this canvas;
#X text 80 47 print all attributes directly to the console;
#X text 168 526 - print all "method: value(s)" pairs directly to the
console;
#X text 169 571 - varies depending on the message sent to [canvasinfo]
;
#X msg 107 266 editable;
#X text 166 266 whether the canvas is editable (0 = no \, 1 = yes)
;
#X msg 76 186 disable-popup;
#X text 166 186 whether the canvas allows runtime popup(a.k.a. right-click
menu) (0 = no \, 1 = yes);
#X connect 11 0 16 0;
#X connect 16 0 43 0;
#X connect 17 0 16 0;
#X connect 18 0 16 0;
#X connect 19 0 16 0;
#X connect 21 0 16 0;
#X connect 22 0 16 0;
#X connect 24 0 16 0;
#X connect 25 0 16 0;
#X connect 27 0 16 0;
#X connect 28 0 16 0;
#X connect 29 0 16 0;
#X connect 32 0 16 0;
#X connect 33 0 16 0;
#X connect 34 0 16 0;
#X connect 37 0 16 0;
#X connect 44 0 16 0;
#X connect 55 0 16 0;
#X connect 57 0 16 0;
