#N canvas 494 159 553 675 10;
#X obj 0 652 cnv 15 552 21 empty \$0-pddp.cnv.footer empty 20 12 0
14 #dcdcdc #404040 0;
#X obj 0 0 cnv 15 552 40 empty \$0-pddp.cnv.header hradio 3 12 0 18
#c4dcdc #000000 0;
#X obj 0 295 cnv 3 550 3 empty \$0-pddp.cnv.inlets inlets 8 12 0 13
#dcdcdc #000000 0;
#N canvas 487 294 388 270 META 0;
#X text 12 135 LIBRARY internal;
#X text 12 45 LICENSE SIBSD;
#X text 12 155 AUTHOR Thomas Musil;
#X text 12 175 WEBSITE;
#X text 12 25 KEYWORDS control storage GUI nonlocal;
#X text 12 65 DESCRIPTION horizontal row of gui-radio buttons;
#X text 12 85 INLET_0 float bang list size init number send receive
label label_pos label_font color pos delta;
#X text 12 115 OUTLET_0 float;
#X text 12 195 RELEASE_DATE 2002;
#X text 12 5 ALIAS rdb radiobut radiobutton;
#X text 12 215 HELP_PATCH_AUTHORS Jonathan Wilkes revised the patch
to conform to the PDDP template for Pd version 0.42. CSS documentation
and further clean-up by Ivica Ico Bukvic.;
#X restore 504 654 pd META;
#X obj 0 469 cnv 3 550 3 empty \$0-pddp.cnv.outlets outlets 8 12 0
13 #dcdcdc #000000 0;
#X obj 0 521 cnv 3 550 3 empty \$0-pddp.cnv.argument arguments 8 12
0 13 #dcdcdc #000000 0;
#X obj 0 604 cnv 3 550 3 empty \$0-pddp.cnv.more_info more_info 8 12
0 13 #dcdcdc #000000 0;
#X obj 78 304 cnv 17 3 156 empty \$0-pddp.cnv.let.0 0 5 6 0 16 #dcdcdc
#646464 0;
#N canvas 219 506 428 129 Related_objects 0;
#X obj 22 43 bang;
#X obj 69 43 trigger;
#X obj 145 43 until;
#X obj 201 43 bang~;
#X msg 257 43;
#X obj 20 93 x_all_guis bng tgl vsl hsl hradio vradio vu cnv nbx;
#X text 18 69 All iem-gui objects:;
#X obj 1 1 cnv 15 425 20 empty \$0-pddp.cnv.subheading empty 3 12 0
14 #c4dcdc #000000 0;
#X text 8 2 [hradio] Related Objects;
#X restore 100 654 pd Related_objects;
#X obj 78 478 cnv 17 3 17 empty \$0-pddp.cnv.let.0 0 5 6 0 16 #dcdcdc
#646464 0;
#X text 291 165 and receive names. Right-;
#X text 291 180 click and choose;
#X text 290 196 "Properties" to set them \,;
#X obj 427 45 hradio 15 1 0 8 hradio-help-rcv empty empty 0 -8 0 10
#fcfcfc #000000 #000000 0 1;
#X obj 27 50 bng 15 250 50 0 empty empty empty 8 -8 0 10 #fcfcfc #000000
#000000 1;
#X floatatom 27 207 4 0 0 0 - - - 0 0 1, f 4;
#X obj 27 229 bng 15 250 50 0 empty empty empty 8 -8 0 10 #fcfcfc #000000
#000000 1;
#X obj 72 179 tgl 12 0 empty empty empty 8 -8 0 10 #fcfcfc #000000
#000000 0 1 1;
#X obj 72 154 route 0 1 2 3 4 5 6 7 8 9, f 34;
#X msg 172 71 set \$1;
#X floatatom 172 50 4 0 9 0 - - - 0 0 1, f 4;
#X floatatom 50 50 4 0 9 0 - - - 0 0 1, f 4;
#X obj 92 179 tgl 12 0 empty empty empty 8 -8 0 10 #fcfcfc #000000
#000000 0 1 1;
#X obj 112 179 tgl 12 0 empty empty empty 8 -8 0 10 #fcfcfc #000000
#000000 0 1 1;
#X obj 132 179 tgl 12 0 empty empty empty 8 -8 0 10 #fcfcfc #000000
#000000 0 1 1;
#X obj 152 179 tgl 12 0 empty empty empty 8 -8 0 10 #fcfcfc #000000
#000000 0 1 1;
#X obj 172 179 tgl 12 0 empty empty empty 8 -8 0 10 #fcfcfc #000000
#000000 0 1 1;
#X obj 192 179 tgl 12 0 empty empty empty 8 -8 0 10 #fcfcfc #000000
#000000 0 1 1;
#X obj 212 179 tgl 12 0 empty empty empty 8 -8 0 10 #fcfcfc #000000
#000000 0 1 1;
#X obj 232 179 tgl 12 0 empty empty empty 8 -8 0 10 #fcfcfc #000000
#000000 0 1 1;
#X obj 252 179 tgl 12 0 empty empty empty 8 -8 0 10 #fcfcfc #000000
#000000 0 1 1;
#X obj 65 207 print;
#X obj 27 118 hradio 25 1 0 10 hradio-help-snd hradio-help-rcv hradio
150 -8 0 12 #7c7c7c #c4fcc4 #000000 0 1;
#X msg 107 76 3;
#X msg 107 50 7;
#X floatatom 292 59 5 0 0 0 - - - 0 0 1, f 5;
#X floatatom 292 128 5 0 0 0 - - - 0 0 1, f 5;
#X obj 292 80 s hradio-help-rcv;
#X obj 292 105 r hradio-help-snd;
#X text 98 303 float;
#X text 98 424 list;
#X text 98 478 float;
#N canvas 109 239 428 285 hradio-creation-arguments 0;
#X obj 25 215 s pd-hradio-creation-arguments;
#X obj 1 1 cnv 15 425 20 empty \$0-pddp.cnv.subheading empty 3 12 0
14 #c4dcdc #000000 0;
#X text 8 2 [hradio] Creation Arguments and Dynamic Patching;
#X text 22 38 [hradio] can be called with 15 creation arguments. These
are not "optional" - all parameters must be filled or the gui-bng will
not instantiate correctly.;
#X text 22 136 For example \, click the msg-box to dynamically create
a [hradio]:;
#X msg 25 169 obj 160 245 hradio 25 1 0 3 empty empty Sterope 12 -8
0 12 3 27 13 0 1 \;;
#X text 22 80 [hradio] creation arguments: Size Unknown Init Number
sendName receiveName Label labelXOff labelYOff font# fontSize bgColor
foregroundColor labelColor initValue interactive;
#X connect 5 0 0 0;
#X restore 170 582 pd hradio-creation-arguments;
#X text 291 210 or change them with messages (see below);
#N canvas 79 22 428 608 Setting_hradio_properties_through_messages
0;
#X text 105 23 no init;
#X text 161 155 label;
#X msg 162 175 label blabla;
#X msg 115 94 init 1;
#X msg 105 42 init 0;
#X text 114 61 init value;
#X text 115 75 on loadbang;
#X text 307 23 change send name;
#X text 10 155 change receive name;
#X obj 28 228 s z_rcv;
#X msg 11 177 receive z_rcv;
#N canvas 378 326 146 263 init 0;
#X obj 16 11 loadbang;
#X obj 16 42 f \$0;
#X msg 16 73 \; \$1-xpos 290 \; \$1-ypos 550 \; \$1-xlabel 0 \; \$1-ylabel
-8 \; \$1-number 8 \; \$1-font-size 10 \; \$1-size 15 \; \$1-font-size
10 \; \$1-font 0 \; \$1-bg 0 \; \$1-front 12 \; \$1-label 12;
#X connect 0 0 1 0;
#X connect 1 0 2 0;
#X restore 370 491 pd init;
#X text 105 23 no init;
#X msg 115 94 init 1;
#X msg 105 42 init 0;
#X text 114 61 init value;
#X text 115 75 on loadbang;
#X floatatom 198 42 3 0 20 0 - #0-number - 0 0 1, f 3;
#X msg 198 94 number \$1;
#X msg 322 92 send vradio_snd;
#X msg 11 94 size \$1;
#X text 10 23 dimensions;
#X obj 11 44 nbx 3 14 8 200 0 0 empty \$0-size empty 0 -8 0 12 #fcfcfc
#000000 #000000 15 256 0 0 1 0;
#X text 61 41 size;
#X text 300 155 label position;
#X text 9 289 font properties;
#X msg 302 229 label_pos \$1 \$2;
#X msg 11 396 label_font \$1 \$2;
#X text 60 313 1.font(0-2);
#X text 60 334 2.height;
#X text 351 178 1.x-offset;
#X text 351 199 2.y-offset;
#N canvas 366 206 174 259 flash-time 0;
#X obj 68 180 pack;
#X obj 103 149 t b a;
#X obj 68 205 outlet;
#X obj 103 104 nbx 3 14 -1e+37 1e+37 0 0 \$0-dummy \$0-xlabel empty
0 -8 0 12 #fcfcfc #000000 #000000 0 256 0 0 1 0;
#X obj 103 124 nbx 3 14 -1e+37 1e+37 0 0 \$0-dummy \$0-ylabel empty
0 -8 0 12 #fcfcfc #000000 #000000 -8 256 0 0 1 0;
#X connect 0 0 2 0;
#X connect 1 0 0 0;
#X connect 1 1 0 1;
#X connect 3 0 0 0;
#X connect 4 0 1 0;
#X coords 0 -1 1 1 48 42 2 100 100;
#X restore 302 177 pd flash-time;
#N canvas 366 206 174 259 flash-time 0;
#X obj 68 180 pack;
#X obj 103 149 t b a;
#X obj 68 205 outlet;
#X obj 103 104 nbx 3 14 0 2 0 0 \$0-dummy \$0-font empty 0 -8 0 12
#fcfcfc #000000 #000000 0 256 0 0 1 0;
#X obj 103 124 nbx 3 14 -1e+37 1e+37 0 0 \$0-dummy \$0-font-size empty
0 -8 0 12 #fcfcfc #000000 #000000 10 256 0 0 1 0;
#X connect 0 0 2 0;
#X connect 1 0 0 0;
#X connect 1 1 0 1;
#X connect 3 0 0 0;
#X connect 4 0 1 0;
#X coords 0 -1 1 1 48 42 2 100 100;
#X restore 11 311 pd flash-time;
#X text 162 289 preset-colors;
#X text 301 289 RGB-colors;
#X msg 162 396 color \$1 \$2 \$3;
#N canvas 364 205 306 317 flash-time 0;
#X obj 69 196 t b a;
#X obj 33 262 outlet;
#X obj 33 237 pack 0 0 0;
#X obj 120 197 t b a;
#X obj 103 104 nbx 3 14 0 29 0 0 \$0-dummy \$0-bg empty 0 -8 0 12 #fcfcfc
#000000 #000000 0 256 0 0 1 0;
#X obj 103 124 nbx 3 14 0 29 0 0 \$0-dummy \$0-front empty 0 -8 0 12
#fcfcfc #000000 #000000 12 256 0 0 1 0;
#X obj 103 144 nbx 3 14 0 29 0 0 \$0-dummy \$0-label empty 0 -8 0 12
#fcfcfc #000000 #000000 12 256 0 0 1 0;
#X connect 0 0 2 0;
#X connect 0 1 2 1;
#X connect 2 0 1 0;
#X connect 3 0 2 0;
#X connect 3 1 2 2;
#X connect 4 0 2 0;
#X connect 5 0 0 0;
#X connect 6 0 3 0;
#X coords 0 -1 1 1 48 62 2 100 100;
#X restore 162 311 pd flash-time;
#N canvas 0 22 306 317 flash-time 0;
#X obj 96 521 outlet;
#X obj 162 230 t b f;
#X obj 96 268 +;
#X obj 96 293 t b f;
#X obj 96 324 +;
#X obj 19 208 * -65536;
#X obj 96 208 * -256;
#X obj 162 208 * -1;
#X obj 96 355 - 1;
#X obj 96 385 list prepend 0;
#X obj 96 410 route 0 1 2;
#X obj 96 497 pack 0 0 0;
#X obj 115 456 t b a;
#X obj 168 455 t b a;
#X obj 104 124 vradio 15 1 0 3 empty empty empty 0 -8 0 10 #fcfcfc
#000000 #000000 0 1;
#X text 120 120 1.bg;
#X text 120 137 2.front;
#X text 120 153 3.label;
#X obj 103 105 nbx 3 14 0 255 0 0 \$0-dummy \$0-r empty 0 -8 0 10 #fcfcfc
#fc0400 #000000 0 256 0 0 1 0;
#X obj 133 105 nbx 3 14 0 255 0 0 \$0-dummy \$0-g empty 0 -8 0 10 #fcfcfc
#0c4410 #000000 0 256 0 0 1 0;
#X obj 163 105 nbx 3 14 0 255 0 0 \$0-dummy \$0-b empty 0 -8 0 10 #fcfcfc
#0400fc #000000 0 256 0 0 1 0;
#X connect 1 0 2 0;
#X connect 1 1 2 1;
#X connect 2 0 3 0;
#X connect 3 0 4 0;
#X connect 3 1 4 1;
#X connect 4 0 8 0;
#X connect 5 0 4 0;
#X connect 6 0 2 0;
#X connect 7 0 1 0;
#X connect 8 0 9 0;
#X connect 9 0 10 0;
#X connect 10 0 11 0;
#X connect 10 1 12 0;
#X connect 10 2 13 0;
#X connect 11 0 0 0;
#X connect 12 0 11 0;
#X connect 12 1 11 1;
#X connect 13 0 11 0;
#X connect 13 1 11 2;
#X connect 14 0 9 1;
#X connect 18 0 5 0;
#X connect 19 0 6 0;
#X connect 20 0 7 0;
#X coords 0 -1 1 1 102 74 2 100 100;
#X restore 302 311 pd flash-time;
#X text 211 313 1.bg;
#X text 211 333 2.front;
#X text 211 354 3.label;
#X text 162 452 delta;
#X text 10 452 position;
#X msg 11 559 pos \$1 \$2;
#X msg 163 559 delta \$1 \$2;
#X obj 163 535 list;
#X obj 163 474 bng 20 250 50 0 empty empty empty 17 7 0 10 #fcfcfc
#000000 #000000 1;
#X text 59 473 1.x-position;
#X text 59 495 2.y-position;
#X text 242 473 1.x-delta;
#X text 242 495 2.y-delta;
#N canvas 366 206 174 259 flash-time 0;
#X obj 68 180 pack;
#X obj 103 149 t b a;
#X obj 68 205 outlet;
#X obj 103 104 nbx 3 14 -1e+37 1e+37 0 0 \$0-dummy \$0-xpos empty 0
-8 0 12 #fcfcfc #000000 #000000 290 256 0 0 1 0;
#X obj 103 124 nbx 3 14 -1e+37 1e+37 0 0 \$0-dummy \$0-ypos empty 0
-8 0 12 #fcfcfc #000000 #000000 550 256 0 0 1 0;
#X connect 0 0 2 0;
#X connect 1 0 0 0;
#X connect 1 1 0 1;
#X connect 3 0 0 0;
#X connect 4 0 1 0;
#X coords 0 -1 1 1 48 42 2 100 100;
#X restore 11 474 pd flash-time;
#N canvas 366 206 174 259 flash-time 0;
#X obj 68 180 pack;
#X obj 103 149 t b a;
#X obj 68 205 outlet;
#X obj 103 104 nbx 3 14 -20 20 0 0 \$0-dummy \$0-xdelta empty 0 -8
0 12 #fcfcfc #000000 #000000 0 256 0 0 1 0;
#X obj 103 124 nbx 3 14 -20 20 0 0 \$0-dummy \$0-ydelta empty 0 -8
0 12 #fcfcfc #000000 #000000 0 256 0 0 1 0;
#X connect 0 0 2 0;
#X connect 1 0 0 0;
#X connect 1 1 0 1;
#X connect 3 0 0 0;
#X connect 4 0 1 0;
#X coords 0 -1 1 1 48 42 2 100 100;
#X restore 192 474 pd flash-time;
#X obj 269 525 cnv 15 147 77 empty empty empty 20 12 0 14 #000000 #404040
0;
#X obj 270 526 cnv 15 145 75 empty empty empty 20 12 0 14 #fce0c4 #404040
0;
#X floatatom 291 580 5 0 0 0 - - - 0 0 1, f 5;
#X obj 290 550 hradio 15 1 0 8 hradio_snd hradio_rcv myHradio 0 -8
0 10 #fcfcfc #202020 #202020 0 1;
#X obj 11 118 s hradio_rcv;
#X obj 105 118 s hradio_rcv;
#X obj 198 118 s hradio_rcv;
#X obj 308 118 s hradio_rcv;
#X obj 11 254 s hradio_rcv;
#X obj 162 254 s hradio_rcv;
#X obj 302 254 s hradio_rcv;
#X obj 11 421 s hradio_rcv;
#X obj 162 421 s hradio_rcv;
#X obj 11 584 s hradio_rcv;
#X obj 163 584 s hradio_rcv;
#X msg 28 203 receive hradio_rcv;
#X msg 308 46 send hradio1_snd;
#X msg 172 229 label myHradio;
#X obj 1 1 cnv 15 425 20 empty \$0-pddp.cnv.subheading empty 3 12 0
14 #c4dcdc #000000 0;
#X text 8 2 [hradio] Set Properties through Messages;
#X text 198 23 number of cells;
#X connect 2 0 63 0;
#X connect 3 0 59 0;
#X connect 4 0 59 0;
#X connect 10 0 62 0;
#X connect 17 0 18 0;
#X connect 18 0 60 0;
#X connect 19 0 61 0;
#X connect 20 0 58 0;
#X connect 22 0 20 0;
#X connect 26 0 64 0;
#X connect 27 0 65 0;
#X connect 32 0 26 0;
#X connect 33 0 27 0;
#X connect 36 0 66 0;
#X connect 37 0 36 0;
#X connect 38 0 36 0;
#X connect 44 0 67 0;
#X connect 45 0 68 0;
#X connect 46 0 45 0;
#X connect 47 0 46 0;
#X connect 52 0 44 0;
#X connect 53 0 46 1;
#X connect 57 0 56 0;
#X connect 69 0 9 0;
#X connect 70 0 61 0;
#X connect 71 0 63 0;
#X restore 171 445 pd Setting_hradio_properties_through_messages;
#X text 168 478 - output the number of the cell that has been clicked
or sent to the inlet of [hradio]. Cell's are numbered from right to
left \, in increasing order \, starting from zero.;
#X text 24 246 Use the UP- \, DOWN- \, LEFT- or RIGHT-key to move a
selected gui-object. Right-click and choose "Properties" to modify
its appearance.;
#X text 11 21 horizontal row of gui-radio buttons;
#X text 290 149 [hradio] has settable send;
#X text 168 303 - a float highlights the corresponding button and outputs
the button number. Buttons are numbered from left to right \, starting
from zero. For incoming numbers that are out of range \, the nearest
button number is selected.;
#X text 168 525 - creating an [hradio] without any arguments sets default
values for its gui-properties. See the subpatch below to learn how
to dynamically instantiate a [hradio] object with custom properties:
;
#X text 405 609 (c) musil@iem.kug.ac.at;
#X text 447 622 IEM KUG;
#X text 422 634 graz \, austria 2002;
#X text 168 424 - a list is truncated to the first element.;
#X obj 4 654 pddp/pddplink all_about_help_patches.pd -text Usage Guide
;
#X text 98 351 bang;
#X text 168 351 - output the last selected value.;
#X text 329 11 [rdb] or [radiobut] or [radiobutton];
#N canvas 277 184 467 568 advanced_css_properties 0;
#X obj 157 -307 bng 15 250 50 0 empty empty empty 17 7 0 10 #fcfcfc
#000000 #000000 1;
#X msg 130 -396 css border fill rgba(255 \\\, 0 \\\, 255 \\\, 0.9)
;
#X msg 222 -181 0;
#X floatatom 173 -131 5 0 0 0 - - - 0 0 1, f 5;
#X floatatom 82 -131 5 0 0 0 - - - 0 0 1, f 5;
#X obj 222 -203 sel 0;
#X obj 82 -109 pack 0 0 0, f 31;
#X obj 156 -231 t f f f f;
#X floatatom 265 -131 5 0 0 0 - - - 0 0 1, f 5;
#X obj 82 -156 expr 1+$f1/20;
#X obj 265 -156 expr \\$f1*-.5;
#X msg 114 -419 css border transform skew(\$1deg);
#X obj 0 -594 cnv 15 466 21 empty \$0-pddp.cnv.subheading empty 3 12
0 14 #c4dcdc #000000 0;
#X obj 157 -260 counter 1 0 3;
#X obj 157 -285 metro 20;
#X floatatom 114 -440 5 0 0 0 - - - 0 0 1, f 5;
#X msg 82 -86 css border transform scale(\$1) translate(\$2px \\\,
\$3px);
#X text 5 -591 Advanced CSS properties;
#X obj 114 -369 hradio 15 1 0 8 empty empty empty 0 -8 0 10 #fcfcfc
#000000 #000000 0 1;
#X obj 82 -62 hradio 15 0 0 8 hradio-output empty empty 0 -8 0 10 #fcfcfc
#000000 #000000 0 1;
#X obj 157 -330 r hradio-output;
#X obj 173 -156 expr \\$f1*-2;
#X obj 106 -488 pddplink https://www.w3schools.com/css/default.asp
;
#X text 6 -567 In Pd-L2Ork \, all iemgui objects can receive various
CSS commands that can further modify their behavior. Below are two
examples. You should avoid using loadbang for providing CSS instructions
to objects because such commands are dropped when the object is invisible
and therefore does not exist on the HTML5 canvas. To be able to address
appropriate elements \, use the Show DevTools option found in the Help
menu. For more info on the CSS commands \, visit:, f 75;
#X connect 0 0 14 0;
#X connect 1 0 18 0;
#X connect 2 0 14 0;
#X connect 3 0 6 1;
#X connect 4 0 6 0;
#X connect 5 0 2 0;
#X connect 6 0 16 0;
#X connect 7 0 9 0;
#X connect 7 1 21 0;
#X connect 7 2 10 0;
#X connect 7 3 5 0;
#X connect 8 0 6 2;
#X connect 9 0 4 0;
#X connect 10 0 8 0;
#X connect 11 0 18 0;
#X connect 13 0 7 0;
#X connect 14 0 13 0;
#X connect 15 0 11 0;
#X connect 16 0 19 0;
#X connect 20 0 0 0;
#X connect 21 0 3 0;
#X restore 170 623 pd advanced_css_properties;
#X text 98 368 interactive;
#X text 168 368 - allows user to specify if the object will respond
to user clicks (1 or on by default). Disabling it (0) will ensure that
the object is strictly there to display value that can be only altered
via an incoming connnection.;
#X text 99 525 16;
#X connect 14 0 32 0;
#X connect 15 0 16 0;
#X connect 18 0 17 0;
#X connect 18 1 22 0;
#X connect 18 2 23 0;
#X connect 18 3 24 0;
#X connect 18 4 25 0;
#X connect 18 5 26 0;
#X connect 18 6 27 0;
#X connect 18 7 28 0;
#X connect 18 8 29 0;
#X connect 18 9 30 0;
#X connect 19 0 32 0;
#X connect 20 0 19 0;
#X connect 21 0 32 0;
#X connect 32 0 15 0;
#X connect 32 0 18 0;
#X connect 32 0 31 0;
#X connect 33 0 32 0;
#X connect 34 0 32 0;
#X connect 35 0 37 0;
#X connect 38 0 36 0;
