#N canvas 234 36 554 616 10;
#X obj 0 585 cnv 15 552 21 empty \$0-pddp.cnv.footer empty 20 12 0
14 #dcdcdc #404040 0;
#X obj 0 0 cnv 15 552 40 empty \$0-pddp.cnv.header legacy_mousewheel
3 12 0 18 #c4dcdc #000000 0;
#X obj 0 307 cnv 3 550 3 empty \$0-pddp.cnv.inlets inlets 8 12 0 13
#dcdcdc #000000 0;
#N canvas 487 278 494 344 META 0;
#X text 12 124 LIBRARY internal;
#X text 12 25 LICENSE SIBSD;
#X text 12 65 OUTLET_0 float;
#X text 12 5 KEYWORDS control user_input legacy;
#X text 12 45 DESCRIPTION get window x/y coordinates from the mouse
;
#X text 12 85 OUTLET_1 float;
#X text 12 144 AUTHOR Jonathan Wilkes;
#X text 12 164 HELP_PATCH_AUTHORS Jonathan Wilkes;
#X text 12 105 OUTLET_2 float;
#X restore 500 587 pd META;
#X obj 0 335 cnv 3 550 3 empty \$0-pddp.cnv.outlets outlets 8 12 0
13 #dcdcdc #000000 0;
#X obj 0 455 cnv 3 550 3 empty \$0-pddp.cnv.argument arguments 8 12
0 13 #dcdcdc #000000 0;
#X obj 0 493 cnv 3 550 3 empty \$0-pddp.cnv.more_info more_info 8 12
0 13 #dcdcdc #000000 0;
#N canvas 222 479 428 145 Related_objects 0;
#X obj 1 1 cnv 15 425 20 empty \$0-pddp.cnv.subheading empty 3 12 0
14 #c4dcdc #000000 0;
#X text 19 72 Externals and other object libraries;
#X obj 18 94 pddp/helplink Gem/gemkeyboard;
#X obj 18 114 pddp/helplink Gem/gemkeyname;
#X obj 21 42 legacy_mousemotion;
#X obj 141 42 legacy_mouseclick;
#X text 7 1 [legacy_mousewheel] Related Objects;
#X restore 102 588 pd Related_objects;
#X text 98 343 float;
#X obj 78 344 cnv 17 3 30 empty \$0-pddp.cnv.let.0 0 5 6 0 16 #dcdcdc
#646464 0;
#X text 98 311 (none);
#X floatatom 155 260 5 0 0 0 delta_z - - 0 0 1, f 5;
#X obj 4 587 pddp/pddplink all_about_help_patches.pd -text Usage Guide
;
#X text 168 311 - input comes directly from the mouse events in the
GUI.;
#X text 98 374 float;
#X obj 78 375 cnv 17 3 30 empty \$0-pddp.cnv.let.0 1 5 6 0 16 #dcdcdc
#646464 0;
#X text 98 459 (none);
#X floatatom 105 237 5 0 0 0 delta_y - - 0 0 1, f 5;
#X floatatom 56 217 5 0 0 0 delta_x - - 0 0 1, f 5;
#X text 98 405 float;
#X obj 78 406 cnv 17 3 30 empty \$0-pddp.cnv.let.0 2 5 6 0 16 #dcdcdc
#646464 0;
#X obj 56 183 legacy_mousewheel;
#X text 11 23 mouse wheel notification on current canvas;
#X text 63 54 This is a convenience class that generates output when
the mouse wheel is moved on a Pd canvas. It is used to provide output
for some old legacy externals from Pd-extended.;
#X text 175 204 Output is only received when the mouse is hovering
over a Pd window.;
#X text 168 343 - delta x;
#X text 168 374 - delta y;
#X text 168 405 - delta z;
#X text 99 507 For platform-consistency \, output is normalized so
that moving the wheel up generates a "-1" \, down generates "1" \,
and "0" means no change. (Haven't tested this with delta x and delta
z yet.);
#X text 63 114 Instead of using this legacy object \, you may want
to consider using the mouse-related methods to [draw] with data structures
for a better mouse event interface. Also \, check out the grid object.
;
#X connect 21 0 18 0;
#X connect 21 1 17 0;
#X connect 21 2 11 0;
