#N canvas 317 67 552 610 10;
#N canvas 0 0 450 300 (subpatch) 0;
#X array myarray1 64 float 16 black black;
#X coords 0 1 63 0 202 89 1;
#X restore 23 219 graph;
#X obj 23 171 preset_hub foo %hidden% %node% 2 22 36;
#X msg 41 136 store \$1;
#X msg 23 83 recall \$1;
#X obj 23 61 hradio 15 1 0 4 empty empty empty 0 -8 0 10 #fcfcfc #000000
#000000 0;
#X obj 41 114 hradio 15 1 0 4 empty empty empty 0 -8 0 10 #fcfcfc #000000
#000000 0;
#X obj -1 -2 cnv 15 552 40 empty \$0-pddp.cnv.header preset_node_array
3 12 0 18 #c4dcdc #000000 0;
#X obj 439 3 preset_node_array;
#X obj -1 585 cnv 15 552 21 empty \$0-pddp.cnv.footer empty 20 12 0
14 #dcdcdc #404040 0;
#X obj -1 326 cnv 3 550 3 empty \$0-pddp.cnv.inlets inlets 8 12 0 13
#dcdcdc #000000 0;
#N canvas 102 436 482 235 META 0;
#X text 18 16 KEYWORDS control storage;
#X text 18 36 LICENSE;
#X text 18 86 INLET_0 clear purge recall reset store;
#X text 18 107 AUTHOR Andr치s Mur치nyi 2013 based on rc-patches by
Dan Wilcox. Additional improvements/fixes/clean-up by Ivica Ico Bukvic
;
#X text 18 157 HELP_PATCH_AUTHORS Andr치s Mur치nyi and Ivica Ico Bukvic
;
#X text 18 56 DESCRIPTION Array preset saving abstraction using preset_node
;
#X restore 499 587 pd META;
#X obj -1 370 cnv 3 550 3 empty \$0-pddp.cnv.argument arguments 8 12
0 13 #dcdcdc #000000 0;
#X obj 77 334 cnv 17 3 30 empty \$0-pddp.cnv.let.0 0 5 6 0 16 #dcdcdc
#646464 0;
#N canvas 102 481 427 84 Related_objects 0;
#X obj 1 0 cnv 15 425 20 empty \$0-pddp.cnv.subheading empty 3 12 0
14 #c4dcdc #000000 0;
#X text 7 1 [preset_node_array] Related Objects;
#X obj 21 36 preset_node;
#X obj 97 36 preset_hub %hidden% %node% 1 2;
#X restore 100 587 pd Related_objects;
#X obj 3 587 pddp/pddplink all_about_help_patches.pd -text Usage Guide
;
#X text 80 387 1) symbol;
#X text 172 406 - OPTIONAL scope for this preset (defaults to null
or "");
#X text 97 333 see;
#X obj 123 334 preset_node;
#X text 80 406 2) symbol;
#X text 171 387 - Array name;
#X text 10 18 Array preset saving abstraction using preset_node;
#X obj 297 219 preset_node_array myarray1 foo;
#X obj -1 435 cnv 3 550 3 empty \$0-pddp.cnv.more_info more_info 8
12 0 13 #dcdcdc #000000 0;
#X text 80 456 Updating list and preset_node data after loading a new
file currently has to be done manually by sending a bang to <arrayname>_changed
like so:;
#X obj 83 504 bng 15 250 50 0 empty empty empty 17 7 0 10 #fcfcfc #000000
#000000;
#X obj 83 524 s myarray1_changed;
#X text 80 546 The bang can be therefore linked to the operations that
open a new file (typically [openpanel] or some other object;
#X connect 2 0 1 0;
#X connect 3 0 1 0;
#X connect 4 0 3 0;
#X connect 5 0 2 0;
#X connect 25 0 26 0;
