#N canvas 127 365 477 709 10;
#X obj -30 -30 preset_hub k12 1 %hidden%;
#X obj 18 168 s chat-out;
#X obj 18 115 nbx 5 14 -1e+37 1e+37 0 0 empty empty empty 0 -8 0 10
#fcfcfc #000000 #000000 3415.43 256 0 0 1 0;
#X msg 18 147 chat admin p:l2orklicious l2ork-length-all \$1;
#X obj 18 62 line 100;
#X text 78 61 tempo;
#X msg 128 64 6000;
#X msg 18 33 0 \, 0.5 30000;
#X msg 18 218 chat admin p:l2orklicious l2ork-sync-all;
#X obj 18 664 s chat-out;
#X obj 36 377 hradio 15 0 0 4 empty empty empty 0 -8 0 10 #fcfcfc #000000
#000000 0 1;
#N canvas 780 508 600 276 load_session 0;
#X obj 20 20 inlet;
#X obj 20 216 outlet;
#X msg 20 191 chat admin p:l2orklicious l2ork-load \$1;
#X obj 20 160 tosymbol;
#X obj 20 45 sel 0 1 2 3;
#X msg 300 115 insterstellar-end;
#X msg 430 115 insterstellar-end-stasis;
#X msg 172 115 interstellar-mid;
#X msg 20 115 interstellar-start-3-1;
#X connect 0 0 4 0;
#X connect 2 0 1 0;
#X connect 3 0 2 0;
#X connect 4 0 8 0;
#X connect 4 1 7 0;
#X connect 4 2 5 0;
#X connect 4 3 6 0;
#X connect 5 0 3 0;
#X connect 6 0 3 0;
#X connect 7 0 3 0;
#X connect 8 0 3 0;
#X restore 36 400 pd load_session;
#X msg 119 563 chat admin p:l2orklicious l2ork-disconnect \$1;
#X floatatom 119 540 5 0 0 0 - - - 0 0 1, f 5;
#X text 155 540 disconnect user;
#X msg 18 195 chat admin p:l2orklicious l2ork-custom sync-to-at 5 12
0;
#X msg 27 242 chat admin p:l2orklicious l2ork-inst-level-at 10 47 1
, f 16;
#N canvas 727 397 412 139 session-sync 0;
#X text 30 40 (REQUIRES L2Ork Tweeter Teacher!);
#X msg 30 60 \; session-sync-offset 0 \; load-session-network-sync
l2ork-grapevine-take-2-6.1;
#X text 30 23 load sync from saved grapevine sessions (currently unused)
;
#X restore 36 330 pd session-sync;
#X text 366 195 sync part 5;
#X text 27 301 part 10 (bass) up;
#X text 57 591 args: start/stop(0/1) soundfile-num sync-to-part at-beat
;
#X msg 42 612 chat admin p:l2orklicious l2ork-custom soundfile 1 0
11 8;
#X msg 58 635 chat admin p:l2orklicious l2ork-custom soundfile 0 0
11 7;
#X msg 141 272 chat admin p:l2orklicious l2ork-inst-level-at 6 63 8
, f 37;
#X text 141 242 mute and unmute part 6 for the 2nd sectionbass and
the final muting at the end;
#X msg 141 307 chat admin p:l2orklicious l2ork-inst-level-at 6 63 0
, f 37;
#X text 36 356 load saved sessions;
#X msg 164 64 stop;
#X obj 128 16 bng 15 250 50 0 empty empty empty 17 7 0 10 #fcfcfc #000000
#000000 1;
#X obj 128 39 t b b;
#X obj 18 87 expr 6000-pow($f1 \, 0.8)*4500;
#X text 220 420 ending;
#X msg 182 439 chat admin p:l2orklicious l2ork-inst-level-list-at 10
56 0.1 0.1 0.1 0.1 0.1 0.1 0.1 0.1 0.1 0.8 0.1 0.1 0.1 0.1, f 40;
#X msg 160 377 chat admin p:l2orklicious l2ork-inst-level-list-at 10
0 0.1 0.1 0.1 0.1 0.1 0.1 0.1 0.1 0.1 0.1 0.1 0.1 0.1 0.1, f 39;
#X text 159 356 contact (end of the middle section);
#X text 209 14 part 12 downbeat ON;
#X text 219 70 part 12 downbeat OFF;
#X msg 209 34 chat admin p:l2orklicious l2ork-inst-level-at 12 0 10
, f 39;
#X msg 219 90 chat admin p:l2orklicious l2ork-inst-level-at 12 0 0.1
, f 39;
#X obj 209 124 s chat-out;
#X msg 220 487 chat admin p:l2orklicious l2ork-inst-level-list-at 10
62 0.1 0.1 0.1 0.1 0.1 0.1 0.1 0.1 0.1 0.1 0.1 0.1 0.1 0.1, f 39;
#X connect 2 0 3 0;
#X connect 3 0 1 0;
#X connect 4 0 30 0;
#X connect 6 0 2 0;
#X connect 7 0 4 0;
#X connect 8 0 9 0;
#X connect 10 0 11 0;
#X connect 11 0 9 0;
#X connect 12 0 9 0;
#X connect 13 0 12 0;
#X connect 15 0 9 0;
#X connect 16 0 9 0;
#X connect 21 0 9 0;
#X connect 22 0 9 0;
#X connect 23 0 9 0;
#X connect 25 0 9 0;
#X connect 27 0 4 0;
#X connect 28 0 29 0;
#X connect 29 0 6 0;
#X connect 29 1 27 0;
#X connect 30 0 2 0;
#X connect 32 0 9 0;
#X connect 33 0 9 0;
#X connect 37 0 39 0;
#X connect 38 0 39 0;
#X connect 40 0 9 0;
