#N canvas 85 439 124 253 10;
#X obj -30 -30 preset_hub k12 1 %hidden%;
#X obj 28 56 pm-cell 1;
#X obj 28 80 pm-cell 2;
#X obj 28 104 pm-cell 3;
#X obj 28 128 pm-cell 4;
#X obj 28 152 pm-cell 5;
#X obj 28 176 pm-cell 6;
#X obj 28 200 pm-cell 7;
#X obj 69 56 pm-cell 8;
#X obj 69 80 pm-cell 9;
#X obj 69 104 pm-cell 10;
#X obj 69 128 pm-cell 11;
#X obj 69 152 pm-cell 12;
#X obj 69 176 pm-cell 13;
#X obj 69 200 pm-cell 14;
#X obj 28 32 tgl 21 1 l2ork-part-mixer-all empty ALL 25 10 0 10 #FFFCB46C
#FF000000 #FF000000 1 1 1;
#N canvas 68 737 143 79 core 0;
#N canvas 808 359 383 413 editable 0;
#X obj 19 19 loadbang;
#X obj 161 125 keyname 1;
#X obj 172 150 sel Shift;
#X msg 172 175 1;
#X msg 223 175 0;
#X obj 116 219 gate 1 0;
#X obj 259 125 keyname 1;
#X msg 270 175 1;
#X msg 333 175 0;
#X obj 214 219 gate 1 0;
#X obj 270 150 sel Control;
#X obj 19 256 expr \\$f1+$f2+$f3, f 33;
#X obj 19 281 == 3;
#X obj 19 306 sel 1;
#X obj 19 331 tgl 15 0 empty empty empty 17 7 0 10 #fffcfcfc #ff000000
#ff000000 1 1 1;
#X text 19 92 ctrl+shift+alt toggles editability (alt being last!)
;
#X obj 64 125 keyname 1;
#X msg 75 175 1;
#X msg 114 175 0;
#X obj 19 219 gate 1 0;
#X obj 75 150 sel Alt;
#X msg 19 43 \; pd-Part-Mixer.pd editable 0;
#X msg 19 355 \; pd-Part-Mixer.pd editable \$1;
#X connect 0 0 21 0;
#X connect 1 0 5 1;
#X connect 1 1 2 0;
#X connect 2 0 3 0;
#X connect 2 1 4 0;
#X connect 3 0 5 0;
#X connect 4 0 5 0;
#X connect 5 0 11 1;
#X connect 6 0 9 1;
#X connect 6 1 10 0;
#X connect 7 0 9 0;
#X connect 8 0 9 0;
#X connect 9 0 11 2;
#X connect 10 0 7 0;
#X connect 10 1 8 0;
#X connect 11 0 12 0;
#X connect 12 0 13 0;
#X connect 13 0 14 0;
#X connect 14 0 22 0;
#X connect 16 0 19 1;
#X connect 16 1 20 0;
#X connect 17 0 19 0;
#X connect 18 0 19 0;
#X connect 19 0 11 0;
#X connect 20 0 17 0;
#X connect 20 1 18 0;
#X restore 40 30 pd editable;
#X restore 61 224 pd core;
#X text 18 11 LOCAL PART MIXER;
