#N canvas 662 268 301 153 10;
#X obj -30 -30 preset_hub k12 1 %hidden%;
#X obj 110 77 tgl 15 0 empty l2ork-part-mixer-all \$1 -16 6 0 10 #FFFCB46C
#FF000000 #FF000000 0 1 1;
#X obj 110 100 s \$1-part-mixer;
#X obj 110 31 closebang;
#X msg 110 52 1;
#X connect 1 0 2 0;
#X connect 3 0 4 0;
#X connect 4 0 1 0;
#X coords 0 -1 1 1 38 21 2 91 74;
