#N canvas 134 137 350 224 10;
#X obj 42 38 r l2ork-custom;
#X msg 42 127 \; main-out-multiplier-r \$1;
#X obj 202 127 sel 0 1;
#X obj 202 173 s intro-stop;
#X obj 221 150 s intro-start;
#X obj 42 62 route main-out-multiplier-r intro sync-to-at;
#N canvas 87 497 657 473 sync-to-at 0;
#X obj 446 52 inlet;
#X obj 463 167 r;
#X msg 480 143 set \$1-tracker-sync;
#X obj 463 216 ==, f 11;
#X obj 463 241 sel 1;
#X obj 463 191 change -1;
#X obj 446 76 unpack 0 0 0;
#X obj 463 401 s;
#X obj 502 401 s;
#X obj 211 294 t f f;
#X obj 515 113 t f f;
#X obj 463 317 f, f 14;
#X obj 463 266 t b 0, f 11;
#X text 39 77 sync-to-at <clientnum 1-12> <sync-to-client-num 1-12>
<time 0-63>, f 66;
#X msg 211 343 symbol \$1-tracker-override;
#X msg 238 317 symbol \$1-tracker-position-override;
#X obj 463 342 t 1 0 f;
#X connect 0 0 6 0;
#X connect 1 0 5 0;
#X connect 2 0 1 1;
#X connect 3 0 4 0;
#X connect 4 0 12 0;
#X connect 5 0 3 0;
#X connect 6 0 9 0;
#X connect 6 1 2 0;
#X connect 6 2 10 0;
#X connect 9 0 14 0;
#X connect 9 1 15 0;
#X connect 10 0 3 1;
#X connect 10 1 11 1;
#X connect 11 0 16 0;
#X connect 12 0 11 0;
#X connect 12 1 2 0;
#X connect 14 0 7 1;
#X connect 15 0 8 1;
#X connect 16 0 7 0;
#X connect 16 1 7 0;
#X connect 16 2 8 0;
#X restore 216 97 pd sync-to-at;
#X text 55 10 transcontinental grapevine (c) 2022-3;
#X connect 0 0 5 0;
#X connect 2 0 3 0;
#X connect 2 1 4 0;
#X connect 5 0 1 0;
#X connect 5 1 2 0;
#X connect 5 2 6 0;
