#N canvas 539 399 821 219 10;
#X obj 0 0 cnv 15 820 217 empty empty empty 5 7 0 10 #444444 #fcfcfc
0;
#X obj 3 3 cnv 15 814 28 empty empty empty 200 5 0 10 #6c6c6c #fcfcfc
0;
#X obj 305 10 hradio 15 0 0 13 \$0-set-user-num empty empty 3 6 0 12
#fcb46c #fc6418 #000000 0 1;
#X obj 11 153 bng 23 250 50 0 empty empty empty 17 7 0 10 #fcfcfc #000000
#000000 1;
#X obj 3 34 cnv 15 814 148 empty empty empty 20 12 0 14 #8080c0 #404040
0;
#X obj 543 39 cnv 15 268 108 empty empty empty 20 12 0 14 #a8a8d4 #404040
0;
#X obj 224 39 cnv 15 313 108 empty empty empty 20 12 0 14 #bcbcdc #404040
0;
#X obj 10 39 cnv 15 207 108 empty empty empty 20 12 0 14 #a8a8d4 #404040
0;
#N canvas 0 22 450 300 (subpatch) 0;
#X array \$0-amp-env-teacher 100 float 22 #0080ff #0080ff;
#X coords 0 1 100 0 140 51 1;
#X restore 229 72 graph;
#X dropdown 229 52 6 0 0 2 - #0-carrier-r #0-carrier-s, f 6;
#X dropdown 286 52 6 0 0 2 - #0-modulator-r #0-modulator-s, f 6;
#N canvas 0 22 450 300 (subpatch) 0;
#X array \$0-mod-env-teacher 100 float 22 #ff8080 #ff8080;
#X coords 0 1 100 0 140 51 1;
#X restore 375 72 graph;
#X obj 343 53 nbx 5 14 1 1e+37 0 1 \$0-note-dur-s \$0-note-dur-r ms
0 6 0 8 #fcb46c #000000 #000000 1 256 1 0 1 0;
#X obj 403 53 nbx 5 14 0 99999 0 1 \$0-harmonicity-s \$0-harmonicity-r
empty 0 -7 0 12 #fcb46c #000000 #000000 0 256 0 0 1 0;
#X obj 463 53 nbx 5 14 1 9999 0 1 \$0-mod-amp-s \$0-mod-amp-r empty
0 -7 0 12 #fcb46c #000000 #000000 1 256 0 0 1 0;
#X obj 12 130 tgl 15 0 \$0-tracker-s \$0-tracker-r PLAY(tab) 17 6 0
10 #fcb46c #000000 #000000 0 23.4375 1;
#X obj 12 95 tgl 15 0 \$0-loop-s \$0-loop-r LOOP(alt) 17 6 0 10 #fcb46c
#000000 #000000 0 1 1;
#X obj 12 41 tgl 15 0 \$0-keyboard-s \$0-keyboard-r KEYBOARD(ctrl)
17 6 0 10 #fc6418 #000000 #000000 0 1 1;
#N canvas 793 437 450 211 REVERB 0;
#X obj 195 90 hsl 55 17 0 1 0 1 \$0-reverb-amp-s \$0-reverb-amp-r LVL
22 6 0 10 #80fc80 #008000 #000000 0 1 0 1;
#X obj 195 112 hradio 15 0 1 4 \$0-reverb-type-s \$0-reverb-type-r
empty 0 -8 0 10 #fcb46c #fc6418 #000000 0 1;
#X coords 0 -1 1 1 68 61 1 191 70;
#X restore 544 85 pd REVERB;
#N canvas 783 363 412 210 DRY 0;
#X obj 182 91 hsl 55 17 0 1 0 1 \$0-dry-amp-s \$0-dry-amp-r LVL 22
6 0 10 #80fc80 #008000 #000000 0 1 0 1;
#X coords 0 -1 1 1 68 42 1 178 70;
#X restore 544 40 pd DRY;
#X text 343 38 NOTE DUR;
#X text 467 38 MOD AMP;
#X obj 10 152 cnv 15 23 25 null-s \$0-instance-gui-teacher 0 6 9 0
18 #000000 #ffffff 0;
#N canvas 380 204 374 208 ECHO 0;
#X obj 160 107 hsl 55 17 0 0.999 0 1 \$0-echo-fb-s \$0-echo-fb-r FB
24 7 0 10 #fcb46c #fc6418 #000000 0 1 0 1;
#X obj 160 63 hsl 55 17 0 1 0 0 \$0-echo-amp-s \$0-echo-amp-r LVL 22
6 0 10 #80fc80 #008000 #000000 0 1 0 1;
#X obj 160 87 nbx 5 16 0.001 9999 0 1 \$0-echo-ms-s \$0-echo-ms-r ms
1 7 0 8 #fcb46c #000000 #000000 0.001 256 1 0 1 0;
#X coords 0 -1 1 1 68 106 1 156 42;
#X restore 615 40 pd ECHO;
#N canvas 1102 401 741 480 OUT 0;
#X obj 341 248 hsl 40 15 0 1.5708 0 1 \$0-out-pan-s \$0-out-pan-r empty
12 6 0 10 #fcb46c #fc6418 #000000 1900 0 0 1;
#X obj 341 181 vsl 45 58 0 100 0 1 \$0-out-amp-s \$0-out-amp-r LVL
14 28 0 10 #80fc80 #008080 #000000 0 1 0 1;
#X text 341 247 L;
#X text 376 247 R;
#X coords 0 -1 1 1 53 106 1 337 161;
#X restore 757 40 pd OUT;
#N canvas 698 198 378 216 FLANGER 0;
#X obj 160 63 hsl 55 17 0 1 0 1 \$0-flanger-amp-s \$0-flanger-amp-r
LVL 22 6 0 10 #80fc80 #008080 #000000 0 1 0 1;
#X obj 160 87 nbx 5 16 0.001 100 0 1 \$0-flanger-hz-s \$0-flanger-hz-r
Hz 1 7 0 8 #fcb46c #000000 #000000 0.001 256 1 0 1 0;
#X obj 160 107 hsl 55 17 0 100 0 1 \$0-flanger-mod-amp-s \$0-flanger-mod-amp-r
MOD\ AMP 10 7 0 10 #fcb46c #fc6418 #000000 0 1 0 1;
#X obj 160 128 nbx 5 16 0.001 50 0 1 \$0-flanger-ms-s \$0-flanger-ms-r
ms 1 7 0 8 #fcb46c #000000 #000000 0.001 256 1 0 1 0;
#X coords 0 -1 1 1 68 106 1 156 42;
#X restore 686 40 pd FLANGER;
#X obj 12 113 nbx 5 14 500 60000 0 1 \$0-loop-length-s \$0-loop-length-r
ms 1 5 0 8 #fcb46c #000000 #000000 500 256 1 0 1 0;
#X text 281 127 PCH(u/d);
#X obj 229 129 nbx 6 12 -192 192 0 1 \$0-octave-s \$0-octave-r empty
0 -7 0 9 #fcb46c #000000 #000000 0 256 0 0 1 1;
#X obj 34 152 hsl 772 25 0 63 0 0 \$0-tracker-time-s \$0-tracker-time-r
                                                                 4
8 0 20 #84c0fc #fcfcfc #000000 0 0 0 1;
#X text 33 153 . . . . . . . . . . . . . . . . . . . . . . . . . .
. . . .;
#X text 394 153 . . . . . . . . . . . . . . . . . . . . . . . . . .
. . . .;
#X text 756 153 . . . . .;
#X text 130 145 v;
#X text 226 145 v;
#X text 322 145 v;
#X text 418 145 v;
#X text 514 145 v;
#X text 611 145 v;
#X text 707 145 v;
#X obj 12 77 tgl 15 0 \$0-solo-s \$0-solo-r SOLO(esc) 17 6 0 10 #fcb46c
#000000 #000000 0 1 1;
#X obj 520 43 vsl 13 95 0.1 10 1 1 \$0-overdrive-s \$0-overdrive-r
empty 10 13 0 10 #80fc80 #008080 #000000 0 1 0 1;
#X symbolatom 334 127 30 0 0 0 - #0-inst-name-r #0-inst-name-s 0 0
1, f 30;
#X text 230 38 CARRIER;
#X text 282 38 MODULATOR;
#X text 516 84 ---;
#X text 522 96 LVL;
#X text 522 46 OVR;
#X text 66 112 LOOP LENGTH(shift+l/r);
#X obj 12 59 tgl 15 0 \$0-hover-s \$0-hover-r HOVER(space) 17 6 0 10
#fcb46c #000000 #000000 0 8 1;
#X text 485 9 12;
#X text 470 9 11;
#X text 455 9 10;
#X text 443 9 9;
#X text 428 9 8;
#X text 413 9 7;
#X text 398 9 6;
#X text 383 9 5;
#X text 368 9 4;
#X text 353 9 3;
#X text 338 9 2;
#X text 323 9 1;
#X text 307 9 0;
#X text 396 38 HARMONICITY;
#X symbolatom 666 9 24 0 0 0 - #0-password-r #0-password-s 0 0 1,
f 24;
#X symbolatom 87 129 21 0 0 0 - #0-username-r #0-username-s 0 0 1,
f 21;
#X obj 8 9 cnv 15 15 15 empty empty L2Ork\ Tweeter\ Teacher\ Widget
0 6 0 10 #6c6c6c #fcfcfc 0;
#X obj 234 9 cnv 15 15 15 empty empty SELECT\ USER 0 6 0 10 #6c6c6c
#fcfcfc 0;
#X obj 570 9 cnv 15 15 15 empty empty SERVER\ PASSWORD 0 6 0 10 #6c6c6c
#fcfcfc 0;
#X obj 3 185 cnv 15 814 28 empty empty empty 200 5 0 10 #6c6c6c #fcfcfc
0;
#X symbolatom 151 191 24 0 0 0 - #0-session-r #0-session-s 0 0 1,
f 24;
#X obj 8 191 cnv 15 15 15 empty empty LOAD\ SESSION/SYNC\ DELAY 0 6
0 10 #6c6c6c #fcfcfc 0;
#X floatatom 303 191 8 0 0 0 - #0-session-delay-r #0-session-delay-s
0 0 1, f 8;
#X obj 359 191 bng 16 250 50 0 \$0-session-load-s \$0-session-load-r
LOAD 20 6 0 10 #80fc80 #008080 #ffffff 1;
#N canvas 993 486 377 95 core 0;
#N canvas 143 109 702 717 ae-logic 0;
#X obj 424 236 until;
#X obj 424 283 f;
#X obj 454 283 + 1;
#X msg 469 236 0;
#X obj 424 204 35;
#X text 447 204 table size;
#X obj 439 180 + 3;
#X text 432 323 read out table to list;
#X obj 439 159 expr size("$s1");
#X text 466 180 multiple of 4 + 3?;
#X msg 410 360 clear;
#X obj 365 382 list cat;
#X obj 320 408 gate 1 1;
#X obj 274 452 list prepend ae;
#X obj 274 497 list prepend;
#X obj 179 374 route bang;
#X obj 167 488 until;
#X obj 167 510 list append;
#X obj 167 532 list split 1;
#X obj 254 571 f;
#X obj 284 571 + 1;
#X msg 269 549 0;
#X obj 167 554 t f b;
#X obj 191 447 t 1 b l b 0;
#X obj 141 607 tabwrite \$0-amp-env-teacher;
#X obj 326 102 t b 1 b b b 0 b 0;
#X obj 115 349 delay 500;
#X msg 115 374 1;
#X obj 275 431 gate 1 1;
#X obj 326 64 r \$0-amp-env-teacher_changed;
#X obj 439 138 symbol \$0-amp-env-teacher;
#X obj 424 304 tabread \$0-amp-env-teacher;
#X obj 343 474 r \$0-user-num;
#X obj 274 520 s \$0-teacher-commands;
#X obj 191 423 gate 1 1;
#X obj 179 349 r \$0-ae;
#X connect 0 0 1 0;
#X connect 1 0 2 0;
#X connect 1 0 31 0;
#X connect 2 0 1 1;
#X connect 3 0 1 1;
#X connect 4 0 0 0;
#X connect 6 0 4 1;
#X connect 8 0 6 0;
#X connect 10 0 11 1;
#X connect 11 0 12 1;
#X connect 12 0 28 1;
#X connect 13 0 14 0;
#X connect 14 0 33 0;
#X connect 15 1 34 1;
#X connect 16 0 17 0;
#X connect 17 0 18 0;
#X connect 18 0 22 0;
#X connect 18 1 17 1;
#X connect 18 2 16 1;
#X connect 19 0 20 0;
#X connect 19 0 24 1;
#X connect 20 0 19 1;
#X connect 21 0 19 1;
#X connect 22 0 24 0;
#X connect 22 1 19 0;
#X connect 23 0 28 0;
#X connect 23 1 16 0;
#X connect 23 2 17 1;
#X connect 23 3 21 0;
#X connect 23 4 28 0;
#X connect 25 0 11 0;
#X connect 25 0 26 0;
#X connect 25 1 12 0;
#X connect 25 2 4 0;
#X connect 25 3 3 0;
#X connect 25 4 30 0;
#X connect 25 5 12 0;
#X connect 25 6 10 0;
#X connect 25 7 34 0;
#X connect 26 0 27 0;
#X connect 27 0 34 0;
#X connect 28 0 13 0;
#X connect 29 0 25 0;
#X connect 30 0 8 0;
#X connect 31 0 11 0;
#X connect 32 0 14 1;
#X connect 34 0 23 0;
#X connect 35 0 15 0;
#X restore 261 19 pd ae-logic;
#N canvas 727 338 584 470 update-user-num 0;
#X obj 252 356 tosymbol;
#X msg 252 379 label \$1;
#X msg 37 379 label_pos \$1 9;
#X obj 37 334 > 9;
#X obj 37 356 expr (1-$f1)*6;
#X msg 322 315 l2ork-report \$1;
#X obj 423 141 s \$0-user-num;
#X obj 252 412 s \$0-instance-gui-teacher;
#X obj 322 338 s \$0-admin-commands;
#X obj 237 39 r \$0-set-user-num;
#X msg 205 315 color #0080ff;
#X msg 100 315 color #000;
#X obj 317 141 r myclientnum;
#X obj 268 171 == 0;
#X obj 302 171 ==;
#X obj 268 196 +;
#X obj 268 225 sel 1;
#X obj 403 40 loadbang;
#X obj 403 65 s whatismyclientnum;
#X obj 268 112 t f f f, f 12;
#X obj 322 277 f;
#X obj 295 252 t b b;
#X obj 423 114 s \$0-tracker-tracker;
#X obj 237 62 t f f f f 0;
#X connect 0 0 1 0;
#X connect 1 0 7 0;
#X connect 2 0 7 0;
#X connect 3 0 4 0;
#X connect 4 0 2 0;
#X connect 5 0 8 0;
#X connect 9 0 23 0;
#X connect 10 0 7 0;
#X connect 11 0 7 0;
#X connect 12 0 14 1;
#X connect 13 0 15 0;
#X connect 14 0 15 1;
#X connect 15 0 16 0;
#X connect 16 0 11 0;
#X connect 16 1 21 0;
#X connect 17 0 18 0;
#X connect 19 0 13 0;
#X connect 19 1 14 0;
#X connect 19 2 20 1;
#X connect 20 0 5 0;
#X connect 21 0 10 0;
#X connect 21 1 20 0;
#X connect 23 0 3 0;
#X connect 23 1 0 0;
#X connect 23 2 19 0;
#X connect 23 3 6 0;
#X connect 23 4 22 0;
#X restore 67 19 pd update-user-num;
#N canvas 143 109 702 717 mod-logic 0;
#X obj 424 236 until;
#X obj 424 283 f;
#X obj 454 283 + 1;
#X msg 469 236 0;
#X obj 424 204 35;
#X text 447 204 table size;
#X obj 439 180 + 3;
#X text 432 323 read out table to list;
#X obj 439 159 expr size("$s1");
#X text 466 180 multiple of 4 + 3?;
#X msg 410 360 clear;
#X obj 365 382 list cat;
#X obj 320 408 gate 1 1;
#X obj 274 497 list prepend;
#X obj 179 374 route bang;
#X obj 167 488 until;
#X obj 167 510 list append;
#X obj 167 532 list split 1;
#X obj 254 571 f;
#X obj 284 571 + 1;
#X msg 269 549 0;
#X obj 167 554 t f b;
#X obj 191 447 t 1 b l b 0;
#X obj 326 102 t b 1 b b b 0 b 0;
#X obj 115 349 delay 500;
#X msg 115 374 1;
#X obj 275 431 gate 1 1;
#X obj 343 474 r \$0-user-num;
#X obj 274 520 s \$0-teacher-commands;
#X obj 191 423 gate 1 1;
#X obj 326 64 r \$0-mod-env-teacher_changed;
#X obj 439 138 symbol \$0-mod-env-teacher;
#X obj 424 304 tabread \$0-mod-env-teacher;
#X obj 274 452 list prepend me;
#X obj 179 349 r \$0-me;
#X obj 141 607 tabwrite \$0-mod-env-teacher;
#X connect 0 0 1 0;
#X connect 1 0 2 0;
#X connect 1 0 32 0;
#X connect 2 0 1 1;
#X connect 3 0 1 1;
#X connect 4 0 0 0;
#X connect 6 0 4 1;
#X connect 8 0 6 0;
#X connect 10 0 11 1;
#X connect 11 0 12 1;
#X connect 12 0 26 1;
#X connect 13 0 28 0;
#X connect 14 1 29 1;
#X connect 15 0 16 0;
#X connect 16 0 17 0;
#X connect 17 0 21 0;
#X connect 17 1 16 1;
#X connect 17 2 15 1;
#X connect 18 0 19 0;
#X connect 18 0 35 1;
#X connect 19 0 18 1;
#X connect 20 0 18 1;
#X connect 21 0 35 0;
#X connect 21 1 18 0;
#X connect 22 0 26 0;
#X connect 22 1 15 0;
#X connect 22 2 16 1;
#X connect 22 3 20 0;
#X connect 22 4 26 0;
#X connect 23 0 11 0;
#X connect 23 0 24 0;
#X connect 23 1 12 0;
#X connect 23 2 4 0;
#X connect 23 3 3 0;
#X connect 23 4 31 0;
#X connect 23 5 12 0;
#X connect 23 6 10 0;
#X connect 23 7 29 0;
#X connect 24 0 25 0;
#X connect 25 0 29 0;
#X connect 26 0 33 0;
#X connect 27 0 13 1;
#X connect 29 0 22 0;
#X connect 30 0 23 0;
#X connect 31 0 8 0;
#X connect 32 0 11 0;
#X connect 33 0 13 0;
#X connect 34 0 14 0;
#X restore 17 39 pd mod-logic;
#N canvas 1313 34 546 325 net-output 0;
#X obj 199 199 s chat-out;
#X obj 199 153 list prepend admin;
#X obj 199 176 list prepend chat;
#X obj 199 95 list prepend l2ork-teach;
#X obj 199 130 list prepend p:l2orklicious;
#X obj 199 61 r \$0-teacher-commands;
#X obj 74 61 r \$0-admin-commands;
#X obj 380 94 sprintf p:%s;
#X obj 380 70 r \$0-password s;
#X connect 1 0 2 0;
#X connect 2 0 0 0;
#X connect 3 0 4 0;
#X connect 4 0 1 0;
#X connect 5 0 3 0;
#X connect 6 0 4 0;
#X connect 7 0 4 1;
#X connect 8 0 7 0;
#X restore 278 39 pd net-output;
#N canvas 54 166 1142 360 net-input 0;
#X obj 33 27 r network-in;
#X obj 33 75 route 0;
#X obj 72 51 r \$0-user-num;
#X obj 63 149 s \$0-ae;
#X obj 94 175 s \$0-me;
#X obj 891 272 route bang;
#X obj 948 298 s \$0-tracker-char-r;
#X obj 33 199 core/net-i \$0 loop-length;
#X obj 155 149 core/net-i \$0 octave;
#X obj 124 222 core/net-i \$0 keyboard;
#X obj 186 175 core/net-i \$0 note-dur;
#X obj 216 199 core/net-i \$0 harmonicity;
#X obj 247 247 core/net-i \$0 modulator;
#X obj 278 222 core/net-i \$0 carrier;
#X obj 308 149 core/net-i \$0 mod-amp;
#X obj 339 174 core/net-i \$0 overdrive;
#X obj 370 272 core/net-i \$0 flanger-hz;
#X obj 400 247 core/net-i \$0 flanger-amp;
#X obj 431 222 core/net-i \$0 flanger-mod-amp;
#X obj 462 149 core/net-i \$0 flanger-ms;
#X obj 492 174 core/net-i \$0 out-amp;
#X obj 523 199 core/net-i \$0 echo-ms;
#X obj 554 272 core/net-i \$0 echo-amp;
#X obj 584 247 core/net-i \$0 echo-fb;
#X obj 615 149 core/net-i \$0 dry-amp;
#X obj 646 174 core/net-i \$0 reverb-amp;
#X obj 676 199 core/net-i \$0 reverb-type;
#X obj 707 222 core/net-i \$0 out-pan;
#X obj 737 247 core/net-i \$0 loop;
#X obj 767 272 core/net-i \$0 hover;
#X obj 922 222 core/net-i-sym \$0 inst-name;
#X obj 952 247 core/net-i-sym \$0 username;
#X obj 830 174 core/net-i \$0 solo;
#X obj 33 110 route loop-length ae me keyboard octave note-dur harmonicity
modulator carrier mod-amp overdrive flanger-hz flanger-amp flanger-mod-amp
flanger-ms out-amp echo-ms echo-amp echo-fb dry-amp reverb-amp reverb-type
out-pan loop hover tracker solo tracker-time tracker-char inst-name
username reset, f 164;
#X obj 983 150 s \$0-reset;
#X obj 33 247 s \$0-tracker-loop-length;
#X obj 860 199 core/net-i \$0 tracker-time;
#X obj 799 149 core/net-i \$0 tracker;
#X obj 799 298 s \$0-tracker-tracker;
#X obj 860 323 s \$0-tracker-tracker-time;
#X obj 737 323 s \$0-tracker-loop;
#X connect 0 0 1 0;
#X connect 1 0 33 0;
#X connect 2 0 1 1;
#X connect 5 1 6 0;
#X connect 7 0 35 0;
#X connect 28 0 40 0;
#X connect 33 0 7 0;
#X connect 33 1 3 0;
#X connect 33 2 4 0;
#X connect 33 3 9 0;
#X connect 33 4 8 0;
#X connect 33 5 10 0;
#X connect 33 6 11 0;
#X connect 33 7 12 0;
#X connect 33 8 13 0;
#X connect 33 9 14 0;
#X connect 33 10 15 0;
#X connect 33 11 16 0;
#X connect 33 12 17 0;
#X connect 33 13 18 0;
#X connect 33 14 19 0;
#X connect 33 15 20 0;
#X connect 33 16 21 0;
#X connect 33 17 22 0;
#X connect 33 18 23 0;
#X connect 33 19 24 0;
#X connect 33 20 25 0;
#X connect 33 21 26 0;
#X connect 33 22 27 0;
#X connect 33 23 28 0;
#X connect 33 24 29 0;
#X connect 33 25 37 0;
#X connect 33 26 32 0;
#X connect 33 27 36 0;
#X connect 33 28 5 0;
#X connect 33 29 30 0;
#X connect 33 30 31 0;
#X connect 33 31 34 0;
#X connect 36 0 39 0;
#X connect 37 0 38 0;
#X restore 182 19 pd net-input;
#N canvas 680 374 1201 586 val-logic 0;
#X obj 545 550 s \$0-teacher-commands;
#X obj 22 18 r \$0-loop-length-s;
#X obj 140 18 r \$0-keyboard-s;
#X obj 561 49 r \$0-user-num;
#X obj 22 98 pack 0 0;
#X msg 22 125 \$2 loop-length \$1;
#X msg 140 125 \$2 keyboard \$1;
#X msg 240 125 \$2 octave \$1;
#X obj 140 98 pack 0 0;
#X obj 240 98 pack 0 0;
#X obj 240 18 r \$0-octave-s;
#X obj 328 98 pack 0 0;
#X obj 328 18 r \$0-note-dur-s;
#X msg 328 125 \$2 note-dur \$1;
#X obj 428 98 pack 0 0;
#X obj 428 18 r \$0-harmonicity-s;
#X msg 428 125 \$2 harmonicity \$1;
#X obj 546 98 pack 0 0;
#X obj 546 18 r \$0-modulator-s;
#X msg 546 125 \$2 modulator \$1;
#X obj 653 98 pack 0 0;
#X obj 653 18 r \$0-carrier-s;
#X msg 653 125 \$2 carrier \$1;
#X obj 749 98 pack 0 0;
#X obj 749 18 r \$0-mod-amp-s;
#X msg 749 125 \$2 mod-amp \$1;
#X obj 845 98 pack 0 0;
#X obj 845 18 r \$0-overdrive-s;
#X msg 845 125 \$2 overdrive \$1;
#X obj 955 98 pack 0 0;
#X obj 955 18 r \$0-flanger-hz-s;
#X msg 955 125 \$2 flanger-hz \$1;
#X obj 1070 98 pack 0 0;
#X msg 1070 125 \$2 flanger-amp \$1;
#X obj 1070 18 r \$0-flanger-amp-s;
#X obj 22 232 pack 0 0;
#X obj 22 152 r \$0-flanger-mod-amp-s;
#X msg 22 259 \$2 flanger-mod-amp \$1;
#X obj 166 232 pack 0 0;
#X obj 166 152 r \$0-flanger-ms-s;
#X msg 166 259 \$2 flanger-ms \$1;
#X obj 281 232 pack 0 0;
#X msg 281 259 \$2 out-amp \$1;
#X obj 281 152 r \$0-out-amp-s;
#X obj 378 232 pack 0 0;
#X obj 378 152 r \$0-echo-ms-s;
#X msg 378 259 \$2 echo-ms \$1;
#X obj 475 232 pack 0 0;
#X obj 475 152 r \$0-echo-amp-s;
#X msg 475 259 \$2 echo-amp \$1;
#X obj 578 232 pack 0 0;
#X obj 578 152 r \$0-echo-fb-s;
#X msg 578 259 \$2 echo-fb \$1;
#X obj 675 232 pack 0 0;
#X obj 675 152 r \$0-dry-amp-s;
#X msg 675 259 \$2 dry-amp \$1;
#X obj 772 232 pack 0 0;
#X obj 772 152 r \$0-reverb-amp-s;
#X msg 772 259 \$2 reverb-amp \$1;
#X obj 885 232 pack 0 0;
#X msg 885 259 \$2 reverb-type \$1;
#X obj 885 152 r \$0-reverb-type-s;
#X obj 512 286 r \$0-inst-name-s;
#X msg 512 393 \$2 inst-name \$1;
#X obj 512 366 pack s 0;
#X obj 1002 151 r \$0-out-pan-s;
#X msg 1002 258 \$2 out-pan \$1;
#X obj 1002 231 pack 0 0;
#X obj 22 366 pack 0 0;
#X obj 22 286 r \$0-loop-s;
#X msg 22 393 \$2 loop \$1;
#X obj 184 366 pack 0 0;
#X msg 184 393 \$2 tracker \$1;
#X obj 184 286 r \$0-tracker-s;
#X obj 100 366 pack 0 0;
#X obj 100 286 r \$0-hover-s;
#X msg 100 393 \$2 hover \$1;
#X obj 622 366 pack s 0;
#X obj 622 286 r \$0-username-s;
#X msg 622 393 \$2 username \$1;
#X obj 280 366 pack 0 0;
#X obj 280 286 r \$0-solo-s;
#X msg 280 393 \$2 solo \$1;
#X obj 360 286 r \$0-tracker-time-s;
#X obj 360 366 pack 0 0 0;
#X msg 360 393 \$2 tracker-time \$1 0 \$3;
#X obj 490 52 print aaa;
#X obj 417 327 r \$0-tracker-tracker;
#X connect 1 0 4 0;
#X connect 2 0 8 0;
#X connect 3 0 4 1;
#X connect 3 0 9 1;
#X connect 3 0 8 1;
#X connect 3 0 11 1;
#X connect 3 0 14 1;
#X connect 3 0 17 1;
#X connect 3 0 20 1;
#X connect 3 0 23 1;
#X connect 3 0 26 1;
#X connect 3 0 29 1;
#X connect 3 0 32 1;
#X connect 3 0 35 1;
#X connect 3 0 38 1;
#X connect 3 0 41 1;
#X connect 3 0 44 1;
#X connect 3 0 47 1;
#X connect 3 0 50 1;
#X connect 3 0 53 1;
#X connect 3 0 56 1;
#X connect 3 0 59 1;
#X connect 3 0 64 1;
#X connect 3 0 67 1;
#X connect 3 0 68 1;
#X connect 3 0 71 1;
#X connect 3 0 74 1;
#X connect 3 0 77 1;
#X connect 3 0 80 1;
#X connect 3 0 84 1;
#X connect 4 0 5 0;
#X connect 5 0 0 0;
#X connect 6 0 0 0;
#X connect 7 0 0 0;
#X connect 8 0 6 0;
#X connect 9 0 7 0;
#X connect 10 0 9 0;
#X connect 11 0 13 0;
#X connect 12 0 11 0;
#X connect 13 0 0 0;
#X connect 14 0 16 0;
#X connect 15 0 14 0;
#X connect 16 0 0 0;
#X connect 17 0 19 0;
#X connect 18 0 17 0;
#X connect 18 0 86 0;
#X connect 19 0 0 0;
#X connect 20 0 22 0;
#X connect 21 0 20 0;
#X connect 22 0 0 0;
#X connect 23 0 25 0;
#X connect 24 0 23 0;
#X connect 25 0 0 0;
#X connect 26 0 28 0;
#X connect 27 0 26 0;
#X connect 28 0 0 0;
#X connect 29 0 31 0;
#X connect 30 0 29 0;
#X connect 31 0 0 0;
#X connect 32 0 33 0;
#X connect 33 0 0 0;
#X connect 34 0 32 0;
#X connect 35 0 37 0;
#X connect 36 0 35 0;
#X connect 37 0 0 0;
#X connect 38 0 40 0;
#X connect 39 0 38 0;
#X connect 40 0 0 0;
#X connect 41 0 42 0;
#X connect 42 0 0 0;
#X connect 43 0 41 0;
#X connect 44 0 46 0;
#X connect 45 0 44 0;
#X connect 46 0 0 0;
#X connect 47 0 49 0;
#X connect 48 0 47 0;
#X connect 49 0 0 0;
#X connect 50 0 52 0;
#X connect 51 0 50 0;
#X connect 52 0 0 0;
#X connect 53 0 55 0;
#X connect 54 0 53 0;
#X connect 55 0 0 0;
#X connect 56 0 58 0;
#X connect 57 0 56 0;
#X connect 58 0 0 0;
#X connect 59 0 60 0;
#X connect 60 0 0 0;
#X connect 61 0 59 0;
#X connect 62 0 64 0;
#X connect 63 0 0 0;
#X connect 64 0 63 0;
#X connect 65 0 67 0;
#X connect 66 0 0 0;
#X connect 67 0 66 0;
#X connect 68 0 70 0;
#X connect 69 0 68 0;
#X connect 70 0 0 0;
#X connect 71 0 72 0;
#X connect 72 0 0 0;
#X connect 73 0 71 0;
#X connect 73 0 84 2;
#X connect 74 0 76 0;
#X connect 75 0 74 0;
#X connect 76 0 0 0;
#X connect 77 0 79 0;
#X connect 78 0 77 0;
#X connect 79 0 0 0;
#X connect 80 0 82 0;
#X connect 81 0 80 0;
#X connect 82 0 0 0;
#X connect 83 0 84 0;
#X connect 84 0 85 0;
#X connect 85 0 0 0;
#X connect 87 0 84 2;
#X restore 96 39 pd val-logic;
#N canvas 635 7 719 884 tracker-logic 0;
#X obj 435 557 tosymbol;
#X obj 332 794 list prepend label;
#X obj 332 816 list trim;
#X obj 126 83 loadbang;
#X msg 118 106 0;
#X obj 230 259 counter 0 63;
#X msg 280 404 \$2 \$1;
#X obj 365 720 sprintf %s%s;
#X msg 584 319 160;
#X obj 584 341 sprintf %c;
#X obj 584 363 tosymbol;
#X obj 584 297 loadbang;
#X msg 435 618 <;
#X obj 278 143 metro 36;
#X obj 435 535 coll;
#C restore;
#X msg 472 618 :;
#X obj 423 344 gate 1 1;
#X obj 423 184 expr 1-$f1;
#X msg 459 422 \$1 \$2;
#X obj 459 398 pack 0 s;
#X msg 423 398 \$1 0;
#X obj 423 376 t f f;
#X obj 382 54 / 64;
#X obj 502 184 sel 1;
#X obj 278 165 t b b;
#X obj 502 207 t b b;
#X obj 118 54 t b b;
#X obj 332 768 symbol;
#X obj 365 742 tosymbol;
#X obj 390 646 gate 2 1;
#X obj 435 668 tosymbol;
#X obj 378 668 tosymbol;
#X obj 435 691 t s 1;
#X obj 480 344 kalashnikov 64;
#X obj 278 208 t b b 2;
#X obj 297 230 kalashnikov 64;
#X obj 337 252 expr 63-$f1;
#X text 492 231 disabled deleting on enabling the tracker, f 12;
#X obj 459 461 list;
#X obj 459 483 list trim;
#X obj 480 320 loadbang;
#X obj 208 153 expr 1-$f1;
#X obj 208 175 gate 1 1;
#X msg 114 395 set \$1;
#X obj 435 580 select \\\, \\\;, f 13;
#X obj 230 281 t f f f f f f;
#X obj 259 330 r \$0-tracker-char-r;
#X obj 253 379 t b l;
#X obj 423 127 r \$0-loop-s;
#X obj 118 30 r \$0-reset;
#X obj 251 82 r \$0-tracker-s;
#X obj 114 416 s \$0-tracker-time-r;
#X obj 382 30 r \$0-loop-length-s;
#X obj 251 111 t f f;
#X msg 260 353 \$2 \$1;
#X obj 332 838 s \$0-tracker-time-r;
#X obj 210 213 t f f;
#X obj 30 141 r \$0-tracker-time-s;
#X obj 409 103 s \$0-loop-length-4-tracker-time-send;
#X obj 382 79 t f f;
#X obj 229 30 r \$0-tracker-loop-length;
#X obj 215 60 r \$0-tracker-tracker;
#X obj 30 164 r \$0-tracker-tracker-time;
#X obj 500 127 r \$0-tracker-loop;
#X connect 0 0 44 0;
#X connect 1 0 2 0;
#X connect 2 0 55 0;
#X connect 3 0 4 0;
#X connect 4 0 56 0;
#X connect 5 0 45 0;
#X connect 6 0 38 0;
#X connect 7 0 28 0;
#X connect 8 0 9 0;
#X connect 9 0 10 0;
#X connect 10 0 19 1;
#X connect 11 0 8 0;
#X connect 12 0 29 1;
#X connect 13 0 24 0;
#X connect 14 0 0 0;
#X connect 15 0 29 1;
#X connect 16 0 21 0;
#X connect 17 0 16 0;
#X connect 18 0 38 0;
#X connect 19 0 18 0;
#X connect 21 0 20 0;
#X connect 21 1 19 0;
#X connect 22 0 13 1;
#X connect 22 0 59 0;
#X connect 23 0 25 0;
#X connect 24 0 34 0;
#X connect 24 1 5 0;
#X connect 25 0 34 0;
#X connect 26 0 4 0;
#X connect 27 0 1 0;
#X connect 28 0 7 1;
#X connect 28 0 27 1;
#X connect 29 0 31 0;
#X connect 29 1 30 0;
#X connect 30 0 32 0;
#X connect 31 0 7 0;
#X connect 32 0 7 1;
#X connect 32 1 29 0;
#X connect 33 1 21 0;
#X connect 34 0 27 0;
#X connect 34 1 35 0;
#X connect 34 2 29 0;
#X connect 35 1 36 0;
#X connect 36 0 14 0;
#X connect 38 0 39 0;
#X connect 39 0 14 0;
#X connect 40 0 33 0;
#X connect 41 0 42 0;
#X connect 42 0 34 0;
#X connect 43 0 51 0;
#X connect 44 0 12 0;
#X connect 44 1 15 0;
#X connect 44 2 29 1;
#X connect 45 1 43 0;
#X connect 45 4 16 1;
#X connect 46 0 54 0;
#X connect 47 0 42 1;
#X connect 47 1 6 0;
#X connect 48 0 17 0;
#X connect 48 0 23 0;
#X connect 49 0 26 0;
#X connect 50 0 53 0;
#X connect 52 0 22 0;
#X connect 53 0 41 0;
#X connect 53 1 13 0;
#X connect 54 0 47 0;
#X connect 56 0 43 0;
#X connect 56 1 5 2;
#X connect 57 0 56 0;
#X connect 59 1 58 0;
#X connect 60 0 22 0;
#X connect 61 0 53 0;
#X connect 62 0 56 0;
#X connect 63 0 17 0;
#X restore 175 39 pd tracker-logic;
#N canvas 33 137 902 721 server-commands 0;
#X obj 318 110 r \$0-session-delay-s;
#X obj 144 41 r \$0-session-s;
#X obj 489 110 r \$0-sync-all-s;
#X obj 318 468 s \$0-admin-commands;
#X msg 52 204 l2ork-load \$1;
#X msg 489 135 l2ork-sync-all;
#X msg 318 135 l2ork-load-sync-delay \$1;
#X obj 52 132 symbol;
#X obj 52 110 r \$0-session-load-s;
#X obj 177 132 symbol;
#X obj 177 110 r \$0-session-save-s;
#X msg 212 394 l2ork-sync-save \$1;
#X obj 127 554 coll;
#C restore;
#X obj 92 401 patch_name;
#X msg 127 470 dump;
#X obj 92 423 pack s s;
#X obj 92 635 list trim;
#X msg 197 518 clear \, read \$1/../sessions/\$2-session-coll.txt;
#X obj 92 445 t b b b l, f 18;
#X msg 92 470 end;
#X obj 235 279 s save-session-r;
#X obj 274 256 s session-name-r;
#X obj 235 231 t b 1 s;
#X obj 173 279 gate 1 0;
#X obj 218 207 r local-save-complete;
#X obj 173 347 symbol;
#X obj 173 371 t b s s;
#X obj 173 303 t b 0;
#X obj 177 157 t 1 s s 0, f 15;
#X obj 177 182 s toggle-local-sync-save;
#X obj 661 426 t a a;
#X msg 688 450 \$2;
#X obj 688 475 route tracker-time;
#X msg 688 500 1;
#X obj 616 541 gate 1 0;
#X msg 793 500 0;
#X obj 526 289 r teacher-network-session-sync;
#X obj 616 598 list trim;
#X text 541 319 here we need to check for both symbol and session-title.
one is triggered when requesting loading of the session \, while other
when requesting sync., f 39;
#X msg 162 470 start;
#X obj 526 387 route start end symbol session-title;
#X obj 92 659 s \$0-admin-commands;
#X obj 92 598 list prepend l2ork-sync-save-data;
#X obj 616 573 list prepend l2ork-sync-data;
#X obj 616 659 s \$0-admin-commands;
#X msg 526 626 l2ork-sync-vis;
#X obj 654 59 r \$0-load-session-network-sync;
#X obj 654 110 symbol;
#X obj 654 135 s load-session-network-sync;
#X connect 0 0 6 0;
#X connect 1 0 7 1;
#X connect 1 0 9 1;
#X connect 1 0 47 1;
#X connect 2 0 5 0;
#X connect 4 0 3 0;
#X connect 5 0 3 0;
#X connect 6 0 3 0;
#X connect 7 0 4 0;
#X connect 8 0 7 0;
#X connect 9 0 28 0;
#X connect 10 0 9 0;
#X connect 11 0 3 0;
#X connect 12 0 42 0;
#X connect 13 0 15 0;
#X connect 14 0 12 0;
#X connect 15 0 18 0;
#X connect 16 0 41 0;
#X connect 17 0 12 0;
#X connect 18 0 19 0;
#X connect 18 1 14 0;
#X connect 18 2 39 0;
#X connect 18 3 17 0;
#X connect 19 0 42 0;
#X connect 22 0 20 0;
#X connect 22 1 23 0;
#X connect 22 2 21 0;
#X connect 23 0 27 0;
#X connect 24 0 23 1;
#X connect 25 0 26 0;
#X connect 26 0 13 0;
#X connect 26 1 15 1;
#X connect 26 2 11 0;
#X connect 27 0 25 0;
#X connect 27 1 23 0;
#X connect 28 0 29 0;
#X connect 28 1 25 1;
#X connect 28 2 22 0;
#X connect 28 3 29 0;
#X connect 30 0 34 1;
#X connect 30 1 31 0;
#X connect 31 0 32 0;
#X connect 32 0 33 0;
#X connect 32 1 35 0;
#X connect 33 0 34 0;
#X connect 34 0 43 0;
#X connect 35 0 34 0;
#X connect 36 0 40 0;
#X connect 37 0 44 0;
#X connect 39 0 42 0;
#X connect 40 0 45 0;
#X connect 40 4 30 0;
#X connect 42 0 16 0;
#X connect 43 0 37 0;
#X connect 45 0 44 0;
#X connect 46 0 47 0;
#X connect 47 0 48 0;
#X restore 17 59 pd server-commands;
#N canvas 782 315 450 265 init 0;
#X obj 190 39 loadbang;
#X msg 190 67 names sine saw tri square pink;
#X obj 65 95 s \$0-password-r;
#X msg 65 67 symbol l2orklicious;
#X msg 65 127 symbol Username;
#X obj 65 155 s \$0-username-r;
#X obj 175 155 s \$0-inst-name-r;
#X obj 190 95 s \$0-modulator-r;
#X obj 297 95 s \$0-carrier-r;
#X obj 285 155 s \$0-session-r;
#X msg 218 185 set 3000;
#X msg 175 127 set ...;
#X obj 218 210 s \$0-session-delay-r;
#X connect 0 0 1 0;
#X connect 0 0 3 0;
#X connect 0 0 4 0;
#X connect 0 0 11 0;
#X connect 0 0 10 0;
#X connect 1 0 7 0;
#X connect 1 0 8 0;
#X connect 3 0 2 0;
#X connect 4 0 5 0;
#X connect 10 0 12 0;
#X connect 11 0 6 0;
#X connect 11 0 9 0;
#X restore 17 19 pd init;
#X restore 766 191 pd core;
#X obj 662 191 bng 16 250 50 0 \$0-sync-all-s \$0-sync-all-r SYNC\ ALL
20 6 0 10 #fcb46c #fc6418 #ffffff 1;
#X obj 409 191 bng 16 250 50 0 \$0-session-save-s \$0-session-save-r
SAVE 20 6 0 10 #fcb46c #fc6418 #ffffff 1;
#X obj 515 191 bng 16 250 50 0 \$0-load-session-network-sync null-r
SESSION\ SYNC 20 6 0 10 #fcb46c #fc6418 #ffffff 1;
