#N canvas 72 84 734 845 10;
#X obj 36 30 r network-in;
#X obj 36 88 route 0;
#X floatatom 130 29 5 0 0 0 - - - 0 0 1, f 5;
#X obj 36 113 route loop-length;
#X obj 36 138 route bang;
#X obj 93 193 nbx 5 14 -1e+37 1e+37 0 0 empty empty empty 0 -8 0 10
#fcfcfc #000000 #000000 0 256 0 0 1 0;
#X obj 526 787 s chat-out;
#N canvas 0 22 450 300 (subpatch) 0;
#X array \$0-amp-env-teacher 100 float 22 #0080ff #0080ff;
#X coords 0 1 100 0 140 51 1;
#X restore 314 72 graph;
#N canvas 0 22 450 300 (subpatch) 0;
#X array \$0-mod-env-teacher 100 float 22 #ff8080 #ff8080;
#X coords 0 1 100 0 140 51 1;
#X restore 511 72 graph;
#X obj 360 335 until;
#X obj 360 382 f;
#X obj 390 382 + 1;
#X msg 405 335 0;
#X obj 360 303 35;
#X text 383 303 table size;
#X obj 375 279 + 3;
#X text 525 403 read out table to list;
#X obj 375 258 expr size("$s1");
#X text 402 279 multiple of 4 + 3?;
#X msg 346 459 clear;
#X obj 301 481 list cat;
#X obj 256 507 gate 1 1;
#X obj 314 157 bng 15 250 50 0 empty empty empty 17 7 0 10 #fcfcfc
#000000 #000000 1;
#X obj 210 551 list prepend ae;
#X obj 210 576 list prepend;
#X obj 375 237 symbol \$0-amp-env-teacher;
#X obj 314 132 r \$0-amp-env-teacher_changed;
#X obj 360 403 tabread \$0-amp-env-teacher;
#X obj 115 448 route ae;
#X obj 115 473 route bang;
#X obj 211 530 gate 1 0;
#X obj 103 587 until;
#X obj 103 609 list append;
#X obj 103 631 list split 1;
#X obj 190 670 f;
#X obj 220 670 + 1;
#X msg 205 648 0;
#X obj 103 653 t f b;
#X obj 127 546 t 1 b l b 0;
#X obj 77 706 tabwrite \$0-amp-env-teacher;
#X obj 318 191 t b 1 b b b 0 b 0;
#X obj 127 522 gate 1 0;
#X obj 210 369 delay 500;
#X msg 210 394 1;
#X obj 526 737 list prepend admin;
#X obj 526 762 list prepend chat;
#X obj 528 689 list prepend l2ork-teach;
#X obj 528 714 list prepend p:l2orklicious;
#X msg 93 213 2 loop-length \$1;
#X msg 93 167 set \$1;
#X connect 0 0 1 0;
#X connect 1 0 3 0;
#X connect 1 0 28 0;
#X connect 2 0 1 1;
#X connect 2 0 24 1;
#X connect 3 0 4 0;
#X connect 4 1 49 0;
#X connect 5 0 48 0;
#X connect 9 0 10 0;
#X connect 10 0 11 0;
#X connect 10 0 27 0;
#X connect 11 0 10 1;
#X connect 12 0 10 1;
#X connect 13 0 9 0;
#X connect 15 0 13 1;
#X connect 17 0 15 0;
#X connect 19 0 20 1;
#X connect 20 0 21 1;
#X connect 21 0 30 1;
#X connect 22 0 40 0;
#X connect 23 0 24 0;
#X connect 24 0 46 0;
#X connect 25 0 17 0;
#X connect 26 0 22 0;
#X connect 27 0 20 0;
#X connect 28 0 29 0;
#X connect 29 1 41 1;
#X connect 30 0 23 0;
#X connect 31 0 32 0;
#X connect 32 0 33 0;
#X connect 33 0 37 0;
#X connect 33 1 32 1;
#X connect 33 2 31 1;
#X connect 34 0 35 0;
#X connect 34 0 39 1;
#X connect 35 0 34 1;
#X connect 36 0 34 1;
#X connect 37 0 39 0;
#X connect 37 1 34 0;
#X connect 38 0 30 0;
#X connect 38 1 31 0;
#X connect 38 2 32 1;
#X connect 38 3 36 0;
#X connect 38 4 30 0;
#X connect 40 0 20 0;
#X connect 40 0 42 0;
#X connect 40 1 21 0;
#X connect 40 2 13 0;
#X connect 40 3 12 0;
#X connect 40 4 25 0;
#X connect 40 5 21 0;
#X connect 40 6 19 0;
#X connect 40 7 41 0;
#X connect 41 0 38 0;
#X connect 42 0 43 0;
#X connect 43 0 41 0;
#X connect 44 0 45 0;
#X connect 45 0 6 0;
#X connect 46 0 47 0;
#X connect 47 0 44 0;
#X connect 48 0 46 0;
#X connect 49 0 5 0;
