#N canvas 27 35 385 688 10;
#X obj -30 -30 preset_hub k12 1 %hidden%;
#X obj 50 571 s offline-messages;
#X msg 80 513 server at inst-level-all 1 0 0.1, f 37;
#X msg 80 324 server at inst-level 1 0 0.1 \, server at inst-level
2 0 0.1 \, server at inst-level 3 0 0.1 \, server at inst-level 11
0 10 \, server at inst-level 12 0 8.5 \, server at inst-level 4 0 0.1
\, server at inst-level 8 0 0.1 \, server at inst-level 9 0 0.1 \,
server at inst-level 10 0 0.1 \, server at inst-level 5 0 1 \, server
at inst-level 6 0 1 \, server at inst-level 7 0 1, f 37;
#X msg 109 171 server at inst-level 1 0 6.9 \, server at inst-level
2 0 6.9 \, server at inst-level 3 0 6.9 \, server at inst-level 11
0 0.1 \, server at inst-level 12 0 0.1 \, server at inst-level 4 0
0.1 \, server at inst-level 8 0 7.5 \, server at inst-level 9 0 10
\, server at inst-level 10 0 10 \, server at inst-level 5 0 1 \, server
at inst-level 6 0 1 \, server at inst-level 7 0 1, f 37;
#X msg 51 477 server at inst-level-list 1 0 0.1 0.1 0.1 0.1 1 1 1 0.1
0.1 0.1 0.1 0.1, f 37;
#X obj 126 69 tgl 15 0 empty empty empty 17 7 0 10 #fcfcfc #000000
#000000 0 1 1;
#X obj 126 92 expr \\$f1*8.4+0.1;
#X obj 126 141 s network-in;
#X msg 126 116 12 overdrive-override \$1, f 25;
#X obj 51 15 key;
#X obj 51 40 select 49 50 51;
#X text 151 40 use keys 1 \, 2 \, and 3;
#N canvas 109 363 271 244 autoload-session 0;
#X msg 82 94 symbol coffin-dance;
#X obj 55 141 s load-session;
#X obj 55 45 loadbang;
#X obj 55 70 t b b;
#X obj 82 118 s session-name-r;
#X connect 0 0 4 0;
#X connect 2 0 3 0;
#X connect 3 0 1 0;
#X connect 3 1 0 0;
#X restore 168 571 pd autoload-session;
#X text 15 599 Coffin Dance MEME song (Astronomia by Vicetone & Tony
Igy)Created and adapted by Ivica Ico Bukvic 2024 IMPORTANT! This
patch requires L2Ork-Tweeter.pd orL2Orkmote-Tweeter.pd to be open
prior to opening it.;
#X connect 2 0 1 0;
#X connect 3 0 1 0;
#X connect 4 0 1 0;
#X connect 5 0 1 0;
#X connect 6 0 7 0;
#X connect 7 0 9 0;
#X connect 9 0 8 0;
#X connect 10 0 11 0;
#X connect 11 0 5 0;
#X connect 11 1 3 0;
#X connect 11 2 4 0;
