#N canvas 6 25 219 281 10;
#X obj 10 -10 preset_hub k12 1 %hidden%;
#N canvas 645 150 588 653 guts 0;
#X obj 256 21 loadbang;
#X obj 256 207 s whatismyclientnum;
#X symbolatom 117 23 20 0 0 0 - - - 0 0 1, f 20;
#X text 60 22 PASSWORD:;
#X msg 295 77 symbol l2orklicious;
#X obj 295 104 s adv-user-ctrl-pass-r;
#N canvas 727 397 355 244 save-on-close 0;
#X obj 99 76 closebang;
#X obj 99 127 preset_node auc;
#X msg 99 101 store 1 \, write sync-control-preset.txt;
#X connect 0 0 1 0;
#X connect 0 0 2 0;
#X connect 2 0 1 0;
#X restore 256 231 pd save-on-close;
#X obj 275 181 preset_hub auc file %hidden% %node% 1 8 %was% 1 14 %node%
2 24 19 %was% 2 30 19 %node% 2 24 20 %was% 2 30 20 %node% 2 24 21 %was%
2 30 21 %node% 2 25 19 %was% 2 31 19 %node% 2 25 20 %was% 2 31 20 %node%
2 25 21 %was% 2 31 21 %node% 2 26 19 %was% 2 32 19 %node% 2 26 20 %was%
2 32 20 %node% 2 26 21 %was% 2 32 21 %node% 2 27 19 %was% 2 33 19 %node%
2 27 20 %was% 2 33 20 %node% 2 27 21 %was% 2 33 21 %node% 2 28 19 %was%
2 34 19 %node% 2 28 20 %was% 2 34 20 %node% 2 28 21 %was% 2 34 21 %node%
2 29 19 %was% 2 35 19 %node% 2 29 20 %was% 2 35 20 %node% 2 29 21 %was%
2 35 21 %node% 2 30 19 %was% 2 36 19 %node% 2 30 20 %was% 2 36 20 %node%
2 30 21 %was% 2 36 21 %node% 2 31 19 %was% 2 37 19 %node% 2 31 20 %was%
2 37 20 %node% 2 31 21 %was% 2 37 21 %node% 2 32 19 %was% 2 38 19 %node%
2 32 20 %was% 2 38 20 %node% 2 32 21 %was% 2 38 21 %node% 2 33 19 %was%
2 39 19 %node% 2 33 20 %was% 2 39 20 %node% 2 33 21 %was% 2 39 21 %node%
2 6 1 %was% 2 12 1;
#X obj 317 21 preset_node auc;
#X obj 417 21 r adv-user-ctrl-pass-r;
#X obj 318 51 s adv-user-ctrl-pass-s;
#X obj 181 573 gate 1 0;
#X obj 29 310 r myclientnum;
#X msg 198 370 set \$1-toggle-keyboard;
#X obj 181 395 r;
#X obj 226 548 gate 1 0;
#X obj 29 370 s local-report-request;
#X obj 30 395 r local-report-response;
#X obj 30 420 route;
#X obj 29 335 t b f f;
#X obj 30 445 route keyboard;
#X msg 181 598 \; \$1-activate bang;
#X text 41 41 #;
#X obj 256 51 t b b b;
#X obj 31 57 auc-cell 1;
#X obj 31 80 auc-cell 2;
#X obj 31 103 auc-cell 3;
#X obj 31 126 auc-cell 4;
#X obj 31 149 auc-cell 5;
#X obj 31 172 auc-cell 6;
#X obj 31 195 auc-cell 7;
#X obj 31 218 auc-cell 8;
#X obj 31 241 auc-cell 9;
#X obj 31 264 auc-cell 10;
#X obj 271 397 keyname;
#X msg 286 155 initfileloc;
#X msg 275 128 read sync-control-preset.txt \, recall 1;
#X text 56 41 SYNC;
#X text 178 41 AT;
#X text 201 41 LENGTH;
#X text 95 41 PART/LENGTH;
#X text 208 395 F1-F10;
#X obj 310 422 sel F1 F2 F3 F4 F5 F6 F7 F8 F9 F10;
#X msg 290 458 1;
#X msg 317 458 2;
#X msg 344 458 3;
#X msg 371 458 4;
#X msg 398 458 5;
#X msg 425 458 6;
#X msg 452 458 7;
#X msg 479 458 8;
#X msg 506 458 9;
#X msg 533 458 10;
#X obj 271 422 sel 1;
#X obj 288 498 t f 1;
#X msg 226 458 0;
#X obj 271 524 f;
#N canvas 808 359 383 413 editable 0;
#X obj 19 19 loadbang;
#X obj 161 125 keyname 1;
#X obj 172 150 sel Shift;
#X msg 172 175 1;
#X msg 223 175 0;
#X obj 116 219 gate 1 0;
#X obj 259 125 keyname 1;
#X msg 270 175 1;
#X msg 333 175 0;
#X obj 214 219 gate 1 0;
#X obj 270 150 sel Control;
#X obj 19 256 expr \\$f1+$f2+$f3, f 33;
#X obj 19 281 == 3;
#X obj 19 306 sel 1;
#X obj 19 331 tgl 15 0 empty empty empty 17 7 0 10 #fcfcfc #000000
#000000 1 1 1;
#X text 19 92 ctrl+shift+alt toggles editability (alt being last!)
;
#X obj 64 125 keyname 1;
#X msg 75 175 1;
#X msg 114 175 0;
#X obj 19 219 gate 1 0;
#X obj 75 150 sel Alt;
#X msg 19 43 \; pd-Sync-Controls.pd editable 0;
#X msg 19 355 \; pd-Sync-Controls.pd editable \$1;
#X connect 0 0 21 0;
#X connect 1 0 5 1;
#X connect 1 1 2 0;
#X connect 2 0 3 0;
#X connect 2 1 4 0;
#X connect 3 0 5 0;
#X connect 4 0 5 0;
#X connect 5 0 11 1;
#X connect 6 0 9 1;
#X connect 6 1 10 0;
#X connect 7 0 9 0;
#X connect 8 0 9 0;
#X connect 9 0 11 2;
#X connect 10 0 7 0;
#X connect 10 1 8 0;
#X connect 11 0 12 0;
#X connect 12 0 13 0;
#X connect 13 0 14 0;
#X connect 14 0 22 0;
#X connect 16 0 19 1;
#X connect 16 1 20 0;
#X connect 17 0 19 0;
#X connect 18 0 19 0;
#X connect 19 0 11 0;
#X connect 20 0 17 0;
#X connect 20 1 18 0;
#X restore 256 255 pd editable;
#X msg 366 155 updatefileloc;
#X connect 0 0 23 0;
#X connect 2 0 10 0;
#X connect 2 0 8 0;
#X connect 4 0 5 0;
#X connect 8 0 2 0;
#X connect 9 0 2 0;
#X connect 11 0 21 0;
#X connect 12 0 19 0;
#X connect 13 0 14 1;
#X connect 14 0 11 0;
#X connect 15 0 11 1;
#X connect 17 0 18 0;
#X connect 18 0 20 0;
#X connect 19 0 16 0;
#X connect 19 1 13 0;
#X connect 19 2 18 1;
#X connect 20 0 11 0;
#X connect 23 0 1 0;
#X connect 23 1 36 0;
#X connect 23 2 4 0;
#X connect 34 0 53 0;
#X connect 34 1 42 0;
#X connect 35 0 7 0;
#X connect 36 0 7 0;
#X connect 42 0 43 0;
#X connect 42 1 44 0;
#X connect 42 2 45 0;
#X connect 42 3 46 0;
#X connect 42 4 47 0;
#X connect 42 5 48 0;
#X connect 42 6 49 0;
#X connect 42 7 50 0;
#X connect 42 8 51 0;
#X connect 42 9 52 0;
#X connect 42 10 55 0;
#X connect 43 0 54 0;
#X connect 44 0 54 0;
#X connect 45 0 54 0;
#X connect 46 0 54 0;
#X connect 47 0 54 0;
#X connect 48 0 54 0;
#X connect 49 0 54 0;
#X connect 50 0 54 0;
#X connect 51 0 54 0;
#X connect 52 0 54 0;
#X connect 53 0 56 0;
#X connect 54 0 56 1;
#X connect 54 1 15 0;
#X connect 55 0 15 0;
#X connect 56 0 15 1;
#X connect 58 0 7 0;
#X coords 0 -1 1 1 214 269 2 29 19;
#X restore 2 2 pd guts;
