#N canvas 133 0 1638 975 10;
#X obj -4 0 cnv 15 1637 973 empty empty empty 5 7 0 10 #444444 #fcfcfc
0;
#X obj 0 2 cnv 15 1631 19 empty empty empty 200 5 0 10 #6c6c6c #fcfcfc
0;
#X obj 1 4 cnv 15 13 13 null-s title-version-r L2Ork\ Tweeter\ 0.43\ by
4 5 0 10 #6c6c6c #fcfcfc 0;
#X obj 234 3 cnv 15 125 16 empty empty (c)\ 2020\ Released\ under\ the
4 6 0 10 #6c6c6c #fcfcfc 0;
#X obj 0 24 cnv 15 280 41 empty empty empty 4 5 0 10 #6c6c6c #fcfcfc
0;
#X obj 9 28 cnv 8 121 8 empty empty HOSTNAME:PORT -1 5 0 10 #6c6c6c
#fcfcfc 0;
#X symbolatom 8 42 37 0 0 2 - #0-hostname-r #0-hostname-s 1 0, f 37
;
#X obj 395 24 cnv 15 490 41 empty empty empty 4 5 0 10 #6c6c6c #fcfcfc
0;
#X obj 888 24 cnv 15 555 41 empty empty empty 4 5 0 10 #6c6c6c #fcfcfc
0;
#X obj 894 28 cnv 8 70 8 empty empty CHAT -1 5 0 10 #6c6c6c #fcfcfc
0;
#X symbolatom 894 42 90 0 0 0 - #0-chat-r #0-chat-s 1 0, f 90;
#X obj 1446 24 cnv 15 184 41 empty empty empty 4 5 0 10 #6c6c6c #fcfcfc
0;
#X obj 1501 28 cnv 8 70 8 empty empty SESSION\ NAME -1 5 0 10 #6c6c6c
#fcfcfc 0;
#X symbolatom 1474 42 21 0 0 0 - session-name-r session-name-s 1 0
, f 21;
#X obj 1455 42 bng 16 250 50 0 load-session load-session-r LOAD -4
-9 0 10 #80fc80 #008080 #fcfcfc;
#X obj 1605 42 bng 16 250 50 0 save-session save-session-r SAVE -5
-9 0 10 #fcb46c #fc6418 #fcfcfc;
#N canvas 769 452 503 135 settings 0;
#N canvas 139 226 861 565 loop-logic 0;
#X obj 506 413 r myclientnum;
#X obj 101 566 forward null;
#X obj 479 566 forward null;
#X msg 128 533 send \$1-write-coll;
#X msg 506 533 send \$1-read-coll;
#X obj 116 366 r \$0-store-loop;
#X obj 494 366 r \$0-recall-loop;
#X obj 101 413 f;
#X obj 101 390 r \$0-store-loop-apply;
#X obj 127 219 coll;
#C restore;
#X obj 127 159 gate 1 0;
#X obj 172 136 key;
#X floatatom 127 244 5 0 0 0 - - - 0 0, f 5;
#X obj 195 159 loadbang;
#X obj 146 43 keyname;
#X obj 185 65 sel Shift;
#X msg 185 87 1;
#X msg 236 87 0;
#X obj 101 136 &&, f 10;
#X obj 101 114 gate 1 0;
#X obj 128 413 r myclientnum;
#X msg 195 182 clear \, 33 1 \, 64 2 \, 35 3 \, 36 4 \, 37 5 \, 94
6 \, 38 7 \, 42 8 \, 40 9 \, 41 10, f 36;
#X obj 127 268 t b f;
#X obj 154 291 s \$0-store-loop-r;
#X obj 127 313 s \$0-store-loop-apply-r;
#X text 278 295 goes to the gui and calls stuff below from there,
f 25;
#X obj 479 390 r \$0-recall-loop-apply;
#X obj 479 413 f;
#X obj 505 219 coll;
#C restore;
#X obj 505 159 gate 1 0;
#X obj 550 136 key;
#X floatatom 505 244 5 0 0 0 - - - 0 0, f 5;
#X obj 573 159 loadbang;
#X obj 524 43 keyname;
#X obj 563 65 sel Shift;
#X msg 563 87 1;
#X msg 614 87 0;
#X obj 479 136 &&, f 10;
#X obj 479 114 gate 1 0;
#X obj 505 268 t b f;
#X text 663 295 goes to the gui and calls stuff below from there,
f 25;
#X obj 532 291 s \$0-recall-loop-r;
#X obj 505 313 s \$0-recall-loop-apply-r;
#X msg 573 182 clear \, 81 1 \, 87 2 \, 69 3 \, 82 4 \, 84 5 \, 89
6 \, 85 7 \, 73 8 \, 79 9 \, 80 10, f 36;
#X obj 101 20 r global-toggle-keyboard;
#X obj 101 77 gate 1 0;
#X obj 479 20 r global-toggle-keyboard;
#X obj 479 77 gate 1 0;
#X obj 506 509 moses 1;
#X obj 128 509 moses 1;
#X obj 434 533 gate 1 0;
#X obj 56 533 gate 1 0;
#X obj 128 478 t f f;
#X obj 56 509 > 0;
#X obj 434 509 > 0;
#X obj 506 478 t f f;
#X obj 74 441 sel 0;
#X msg 74 466 1;
#X obj 452 441 sel 0;
#X msg 452 466 1;
#X connect 0 0 55 0;
#X connect 3 0 1 0;
#X connect 4 0 2 0;
#X connect 5 0 7 1;
#X connect 6 0 27 1;
#X connect 7 0 56 0;
#X connect 8 0 7 0;
#X connect 9 0 12 0;
#X connect 10 0 9 0;
#X connect 11 0 10 1;
#X connect 12 0 22 0;
#X connect 13 0 21 0;
#X connect 14 0 45 1;
#X connect 14 1 15 0;
#X connect 15 0 16 0;
#X connect 15 1 17 0;
#X connect 16 0 19 0;
#X connect 16 0 18 1;
#X connect 17 0 19 0;
#X connect 17 0 18 1;
#X connect 18 0 10 0;
#X connect 19 0 18 0;
#X connect 20 0 52 0;
#X connect 21 0 9 0;
#X connect 22 0 24 0;
#X connect 22 1 23 0;
#X connect 26 0 27 0;
#X connect 27 0 58 0;
#X connect 28 0 31 0;
#X connect 29 0 28 0;
#X connect 30 0 29 1;
#X connect 31 0 39 0;
#X connect 32 0 43 0;
#X connect 33 0 47 1;
#X connect 33 1 34 0;
#X connect 34 0 35 0;
#X connect 34 1 36 0;
#X connect 35 0 38 0;
#X connect 35 0 37 1;
#X connect 36 0 38 0;
#X connect 36 0 37 1;
#X connect 37 0 29 0;
#X connect 38 0 37 0;
#X connect 39 0 42 0;
#X connect 39 1 41 0;
#X connect 43 0 28 0;
#X connect 44 0 45 0;
#X connect 45 0 19 1;
#X connect 46 0 47 0;
#X connect 47 0 38 1;
#X connect 48 1 4 0;
#X connect 49 1 3 0;
#X connect 50 0 2 0;
#X connect 51 0 1 0;
#X connect 52 0 53 0;
#X connect 52 1 49 0;
#X connect 53 0 51 0;
#X connect 54 0 50 0;
#X connect 55 0 54 0;
#X connect 55 1 48 0;
#X connect 56 0 57 0;
#X connect 56 1 51 1;
#X connect 57 0 51 1;
#X connect 58 0 59 0;
#X connect 58 1 50 1;
#X connect 59 0 50 1;
#X restore 17 23 pd loop-logic;
#N canvas 737 23 1134 954 network-io 0;
#X obj 272 279 list prepend send;
#X obj 272 301 list trim;
#X obj 20 137 tgl 15 0 empty empty empty 17 7 0 10 #fcfcfc #000000
#000000 0 1;
#X obj 20 156 metro 1000;
#X msg 20 177 ping;
#X obj 20 219 list trim;
#X obj 272 360 netclient;
#X obj 83 177 r myid;
#X obj 272 459 s myid;
#X obj 272 437 unpack 0 0;
#X obj 269 706 s myclientnum;
#X obj 20 198 list append;
#X obj 272 245 list prepend;
#X obj 354 223 r myclientnum;
#X text 20 41 machine that goes ping!;
#X obj 891 554 s network-in;
#X text 352 245 this adds client num (according to the server), f
25;
#X text 84 277 this prepends the send command;
#X obj 272 223 r client-out;
#X obj 220 643 loadbang;
#X msg 220 665 -1;
#X obj 20 61 r myid;
#X obj 798 296 delay 500;
#X text 717 426 ignore local changes among broadcast messages \, except
when message from server calls for a report (to sync other clients)
;
#X text 903 499 last option is for all other clients;
#X obj 717 474 route myclientnum, f 18;
#X obj 822 499 route report;
#X text 712 12 initiates connection;
#X obj 313 866 tosymbol;
#X obj 323 682 sel 1;
#X obj 842 12 r reconnect;
#X obj 539 157 r disconnect;
#X obj 83 82 r disconnect;
#X msg 83 103 0;
#X obj 227 335 gate 1 0;
#X msg 313 890 \; nclients-gui label \$1;
#X obj 187 791 s nclients;
#X obj 452 857 sel 0;
#X obj 497 903 s myclientnum;
#X obj 452 903 s myid;
#X obj 452 880 t 0 -1;
#X text 73 647 make myclientnum initially invalid or -1, f 23;
#X obj 203 223 r chat-out;
#X obj 20 359 loadbang;
#X obj 20 401 tosymbol;
#X obj 20 464 s \$0-hostname-r;
#X obj 901 162 r \$0-hostname-s;
#X text 21 337 default hostname setting;
#X obj 323 387 s network-status;
#X obj 256 791 loadbang;
#X obj 363 439 print CHAT;
#X obj 842 95 t b b b;
#X obj 881 117 s disconnect;
#X obj 272 410 route myid nclients chat server;
#X obj 586 903 print SERVER;
#X obj 20 103 pipe 100;
#X obj 20 82 > 0;
#X obj 489 571 unpack 0 0;
#X obj 572 600 sel 1 0;
#X obj 564 736 pack 0 s;
#X msg 591 642 symbol disconnected;
#X msg 572 621 symbol connected;
#X msg 564 758 user \$1 \$2;
#X msg 305 628 \; \$1-remote-user-gui-update \$2;
#X obj 750 638 r myclientnum;
#X obj 470 533 t l l l;
#X obj 735 616 unpack 0 0;
#X obj 735 660 ==;
#X obj 777 715 f;
#X obj 735 685 sel 1;
#X obj 777 737 sel 0;
#X obj 797 41 gate 1 1;
#X obj 797 66 t b b 0;
#X msg 773 116 1;
#X obj 773 95 delay 1000;
#X text 858 41 avoid spamming connect request (only 1 per second).
also addresses weird timing issues during init if the spam is allowed.
, f 45;
#X obj 693 792 t l l;
#N canvas 195 164 552 685 check-version 0;
#X obj 145 35 inlet;
#X obj 52 364 s disconnect;
#X obj 145 110 ==;
#X obj 145 135 sel 0 1;
#X obj 145 285 t b l;
#X obj 186 661 outlet;
#X floatatom 81 80 8 0 0 0 - - - 0 0, f 8;
#X floatatom 133 387 5 0 0 0 - - - 0 0, f 5;
#X obj 133 364 r myclientnum;
#X obj 133 436 + 1;
#X obj 133 461 gate 2 1;
#X obj 133 411 == -1;
#X obj 186 639 list trim;
#X obj 250 572 list prepend guest;
#X obj 133 572 list prepend user;
#X obj 133 550 list prepend;
#X msg 145 58 \$2 \$3;
#X obj 145 80 unpack 0 0;
#X text 133 316 server assigned client num (guests get -1 which is
not very informative \, so we use the incoming third arg value to get
the human-readable client number), f 54;
#X obj 81 58 r version;
#X msg 328 170 version match--welcome to L2Ork Tweeter!, f 30;
#X msg 145 170 version mismatch--disconnecting... please download the
server-compatible version of the client available at http://l2ork.music.vt.edu/main/make-your-own-l2ork/tweeter/
, f 28;
#X connect 0 0 16 0;
#X connect 2 0 3 0;
#X connect 3 0 21 0;
#X connect 3 1 20 0;
#X connect 4 0 1 0;
#X connect 4 1 10 1;
#X connect 6 0 2 1;
#X connect 7 0 11 0;
#X connect 8 0 7 0;
#X connect 9 0 10 0;
#X connect 10 0 15 0;
#X connect 10 1 13 0;
#X connect 11 0 9 0;
#X connect 12 0 5 0;
#X connect 13 0 12 0;
#X connect 14 0 12 0;
#X connect 15 0 14 0;
#X connect 16 0 17 0;
#X connect 17 0 2 0;
#X connect 17 1 15 1;
#X connect 19 0 6 0;
#X connect 20 0 10 1;
#X connect 21 0 4 0;
#X restore 615 820 pd check-version;
#X obj 20 516 r network-status;
#X obj 20 602 s nclients-gui;
#X msg 20 570 color 12 0;
#X msg 92 570 color -4.44147e+06;
#X msg 256 813 0;
#X obj 313 844 nbx 5 14 0 1e+37 0 0 empty empty empty 0 -8 0 10 #fcfcfc
#000000 #000000 0 256 0 0;
#X obj 20 538 sel 0 1;
#X obj 861 140 delay 250;
#X obj 489 621 sel -1;
#X obj 430 571 route -1;
#X text 817 664 locally disconnects client if its ping is running late
to keep its state in sync with the server (does not work for guests)
, f 23;
#X msg 720 820 server \$1 \$2;
#X obj 489 736 pack 0 s;
#X msg 489 758 guest \$2;
#X obj 861 206 lister;
#X obj 901 184 s2l :;
#X msg 861 296 connect \$1 \$2;
#X obj 918 249 sel 0;
#X obj 861 227 unpack s 0;
#X obj 861 162 t b b;
#X msg 930 227 9001;
#X obj 861 274 pack s 0;
#X msg 798 371 send whatismyid \$1;
#X obj 798 350 f 0;
#X obj 813 329 r \$0-slot-s;
#X obj 593 532 s disconnect;
#X obj 360 706 t f f f;
#X obj 277 35 keyname;
#X obj 316 60 sel ShiftCtrlF12;
#X obj 277 60 sel 1;
#X obj 277 108 f;
#X msg 316 81 1;
#X msg 409 81 0;
#X obj 277 129 sel 1;
#X obj 277 150 bng 15 250 50 0 empty empty empty 17 7 0 10 #fcfcfc
#000000 #000000;
#X obj 277 173 s disconnect;
#X text 305 108 use Shift+Ctrl+F12 to disconnect;
#X obj 609 180 r myclientnum;
#X obj 594 207 f;
#X obj 594 229 sel -1;
#X obj 72 538 loadbang;
#X obj 519 207 f;
#X msg 519 251 send disconnect \$1 \, disconnect, f 16;
#X obj 777 762 s silent-disconnect;
#X obj 376 133 r silent-disconnect;
#X msg 376 158 disconnect;
#N canvas 557 284 450 323 session-management 0;
#X obj 253 39 inlet;
#X obj 152 39 r myclientnum;
#X obj 152 64 != -1;
#X obj 152 89 gate 1 0;
#X obj 152 114 route load save;
#X obj 152 139 tosymbol;
#X obj 152 164 t b s;
#X obj 212 139 tosymbol;
#X obj 212 164 t b s;
#X obj 179 234 s session-name-r;
#X obj 152 211 s load-session-r;
#X obj 212 187 s save-session-r;
#X connect 0 0 3 1;
#X connect 1 0 2 0;
#X connect 2 0 3 0;
#X connect 3 0 4 0;
#X connect 4 0 5 0;
#X connect 4 1 7 0;
#X connect 5 0 6 0;
#X connect 6 0 10 0;
#X connect 6 1 9 0;
#X connect 7 0 8 0;
#X connect 8 0 11 0;
#X connect 8 1 9 0;
#X restore 655 554 pd session-management;
#X msg 627 251 \; \$1-override-solo 0 \; \$1-manual-toggle-tracker
0 \;, f 26;
#X obj 539 179 t b b;
#X obj 501 133 r override-disconnect;
#X obj 409 499 route status connection server disconnect session loop-length
, f 62;
#X obj 978 554 r myclientnum;
#X obj 978 638 pack 0 0, f 15;
#X msg 978 667 \; \$2-manual-loop-length \$1;
#X obj 978 617 gate 1 0;
#X obj 978 575 t f f;
#X obj 978 596 > 0;
#X msg 20 380 pd-l2ork.music.vt.edu:9002;
#X connect 0 0 1 0;
#X connect 1 0 34 1;
#X connect 2 0 3 0;
#X connect 3 0 4 0;
#X connect 4 0 11 0;
#X connect 5 0 0 0;
#X connect 6 0 53 0;
#X connect 6 1 29 0;
#X connect 6 1 48 0;
#X connect 6 1 34 0;
#X connect 7 0 11 1;
#X connect 9 0 8 0;
#X connect 9 1 10 0;
#X connect 9 1 25 1;
#X connect 11 0 5 0;
#X connect 12 0 0 0;
#X connect 13 0 12 1;
#X connect 18 0 12 0;
#X connect 19 0 20 0;
#X connect 20 0 10 0;
#X connect 21 0 56 0;
#X connect 22 0 101 0;
#X connect 25 1 26 0;
#X connect 26 0 15 0;
#X connect 26 1 15 0;
#X connect 28 0 35 0;
#X connect 29 1 104 0;
#X connect 30 0 71 1;
#X connect 31 0 126 0;
#X connect 32 0 33 0;
#X connect 33 0 2 0;
#X connect 34 0 6 0;
#X connect 37 0 40 0;
#X connect 40 0 39 0;
#X connect 40 1 38 0;
#X connect 42 0 0 0;
#X connect 43 0 135 0;
#X connect 44 0 45 0;
#X connect 46 0 93 0;
#X connect 49 0 82 0;
#X connect 51 0 22 0;
#X connect 51 1 85 0;
#X connect 51 2 52 0;
#X connect 53 0 9 0;
#X connect 53 1 104 0;
#X connect 53 2 50 0;
#X connect 53 3 128 0;
#X connect 53 4 25 0;
#X connect 55 0 2 0;
#X connect 56 0 55 0;
#X connect 57 0 86 0;
#X connect 57 1 58 0;
#X connect 58 0 61 0;
#X connect 58 1 60 0;
#X connect 59 0 62 0;
#X connect 60 0 59 1;
#X connect 60 0 90 1;
#X connect 61 0 59 1;
#X connect 61 0 90 1;
#X connect 62 0 54 0;
#X connect 64 0 67 1;
#X connect 65 0 87 0;
#X connect 65 1 57 0;
#X connect 65 2 66 0;
#X connect 66 0 67 0;
#X connect 66 1 68 1;
#X connect 67 0 69 0;
#X connect 68 0 70 0;
#X connect 69 0 68 0;
#X connect 70 0 121 0;
#X connect 71 0 72 0;
#X connect 72 0 74 0;
#X connect 72 1 51 0;
#X connect 72 2 71 0;
#X connect 73 0 71 0;
#X connect 74 0 73 0;
#X connect 76 0 77 0;
#X connect 76 1 89 0;
#X connect 77 0 54 0;
#X connect 78 0 84 0;
#X connect 80 0 79 0;
#X connect 81 0 79 0;
#X connect 82 0 83 0;
#X connect 83 0 28 0;
#X connect 84 0 80 0;
#X connect 84 1 81 0;
#X connect 85 0 97 0;
#X connect 86 0 90 0;
#X connect 86 1 59 0;
#X connect 87 1 63 0;
#X connect 89 0 54 0;
#X connect 90 0 91 0;
#X connect 91 0 54 0;
#X connect 92 0 96 0;
#X connect 93 0 92 1;
#X connect 94 0 6 0;
#X connect 95 1 99 1;
#X connect 96 0 99 0;
#X connect 96 1 95 0;
#X connect 97 0 92 0;
#X connect 97 1 98 0;
#X connect 98 0 95 0;
#X connect 99 0 94 0;
#X connect 100 0 6 0;
#X connect 101 0 100 0;
#X connect 102 0 101 1;
#X connect 104 0 36 0;
#X connect 104 1 83 0;
#X connect 104 2 37 0;
#X connect 105 0 107 0;
#X connect 105 1 106 0;
#X connect 106 0 109 0;
#X connect 106 1 110 0;
#X connect 107 0 108 0;
#X connect 108 0 111 0;
#X connect 109 0 108 1;
#X connect 110 0 108 1;
#X connect 111 0 112 0;
#X connect 112 0 113 0;
#X connect 115 0 116 1;
#X connect 115 0 119 1;
#X connect 116 0 117 0;
#X connect 117 1 125 0;
#X connect 118 0 80 0;
#X connect 119 0 120 0;
#X connect 120 0 34 1;
#X connect 122 0 123 0;
#X connect 123 0 34 1;
#X connect 126 0 119 0;
#X connect 126 1 116 0;
#X connect 127 0 119 0;
#X connect 128 0 63 0;
#X connect 128 1 65 0;
#X connect 128 2 76 0;
#X connect 128 3 103 0;
#X connect 128 4 124 0;
#X connect 128 5 132 1;
#X connect 128 6 54 0;
#X connect 129 0 133 0;
#X connect 130 0 131 0;
#X connect 132 0 130 0;
#X connect 133 0 134 0;
#X connect 133 1 130 1;
#X connect 134 0 132 0;
#X connect 135 0 44 0;
#X restore 221 23 pd network-io;
#N canvas 353 215 1163 639 preset-logic 0;
#X obj 100 376 r \$0-store-preset;
#X obj 249 376 r myclientnum;
#X obj 67 552 pack 0 0;
#X msg 67 582 \; \$2-store-preset \$1;
#X obj 334 552 pack 0 0;
#X obj 67 531 gate 1 0;
#X obj 334 531 gate 1 0;
#X obj 516 376 r network-status;
#X obj 516 398 sel 1;
#X obj 516 420 delay 1000;
#N canvas 958 350 694 475 first-time-override-set-main-out 0;
#X obj 75 54 r override-myid;
#X obj 176 54 r myclientnum;
#X obj 346 54 text define override;
#X obj 289 54 loadbang;
#X obj 289 77 t b 999 b;
#X msg 442 192 -1;
#X obj 329 147 + 1;
#X obj 329 215 text set override;
#X obj 442 215 text delete override;
#X obj 75 148 f;
#X floatatom 75 211 5 0 0 0 - - - 0 0, f 5;
#X obj 75 169 t f f;
#X msg 75 385 \; \$1-main-out-override bang \;;
#X obj 329 192 pack 0 0;
#X obj 374 172 tgl 15 0 empty empty empty 17 7 0 10 #fcfcfc #000000
#000000 0 1;
#X text 393 171 DEBUG;
#X obj 176 96 - 1;
#X obj 75 190 text get override 1;
#X obj 75 235 sel 0;
#X obj 75 362 f;
#X obj 167 362 text set override;
#X obj 75 260 t b b;
#X obj 176 117 t f f;
#X obj 167 293 pack 0 0 0;
#X obj 176 75 t f f f;
#X msg 200 341 \$3;
#X obj 167 318 t l l;
#X msg 167 341 \$2 1;
#X text 381 118 corresponds with the max number of clients;
#X obj 289 118 kalashnikov 12;
#X connect 0 0 9 0;
#X connect 1 0 24 0;
#X connect 3 0 4 0;
#X connect 4 0 29 0;
#X connect 4 1 7 1;
#X connect 4 2 5 0;
#X connect 5 0 8 0;
#X connect 6 0 13 0;
#X connect 9 0 11 0;
#X connect 10 0 18 0;
#X connect 11 0 17 0;
#X connect 13 0 7 0;
#X connect 14 0 13 1;
#X connect 16 0 22 0;
#X connect 17 0 10 0;
#X connect 18 0 21 0;
#X connect 19 0 12 0;
#X connect 21 0 19 0;
#X connect 21 1 23 0;
#X connect 22 0 9 1;
#X connect 22 1 23 2;
#X connect 23 0 26 0;
#X connect 24 0 16 0;
#X connect 24 1 19 1;
#X connect 24 2 23 1;
#X connect 25 0 20 1;
#X connect 26 0 27 0;
#X connect 26 1 25 0;
#X connect 27 0 20 0;
#X connect 29 1 6 0;
#X restore 630 376 pd first-time-override-set-main-out;
#X msg 334 582 \; \$2-recall-preset \$1;
#X obj 85 398 r \$0-store-preset-apply;
#X obj 85 423 f;
#X obj 352 423 f;
#X obj 367 376 r \$0-recall-preset;
#X obj 352 398 r \$0-recall-preset-apply;
#X obj 66 225 coll;
#C restore;
#X obj 66 165 gate 1 0;
#X obj 111 142 key;
#X floatatom 66 250 5 0 0 0 - - - 0 0, f 5;
#X obj 134 165 loadbang;
#X obj 85 49 keyname;
#X obj 124 71 sel Shift;
#X msg 124 93 1;
#X msg 175 93 0;
#X obj 40 142 &&, f 10;
#X obj 40 120 gate 1 0;
#X obj 66 274 t b f;
#X text 227 301 goes to the gui and calls stuff below from there,
f 25;
#X obj 93 297 s \$0-store-preset-r;
#X obj 66 319 s \$0-store-preset-apply-r;
#X msg 134 188 clear \, 65 1 \, 83 2 \, 68 3 \, 70 4 \, 71 5 \, 72
6 \, 74 7 \, 75 8 \, 76 9 \, 58 10, f 36;
#X obj 506 225 coll;
#C restore;
#X obj 506 165 gate 1 0;
#X obj 551 142 key;
#X floatatom 506 250 5 0 0 0 - - - 0 0, f 5;
#X obj 574 165 loadbang;
#X obj 525 49 keyname;
#X obj 564 71 sel Shift;
#X msg 564 93 1;
#X msg 615 93 0;
#X obj 480 142 &&, f 10;
#X obj 480 120 gate 1 0;
#X obj 506 274 t b f;
#X text 673 301 goes to the gui and calls stuff below from there,
f 25;
#X obj 533 297 s \$0-recall-preset-r;
#X obj 506 319 s \$0-recall-preset-apply-r;
#X msg 574 188 clear \, 90 1 \, 88 2 \, 67 3 \, 86 4 \, 66 5 \, 78
6 \, 77 7 \, 60 8 \, 62 9 \, 63 10, f 36;
#X obj 40 27 r global-toggle-keyboard;
#X obj 40 72 gate 1 0;
#X obj 480 27 r global-toggle-keyboard;
#X obj 480 72 gate 1 0;
#X obj 67 510 >= 1;
#X obj 334 510 >= 1;
#X obj 249 398 t f f f f f;
#X obj 516 447 f;
#X msg 555 494 \; \$1-main-out-override bang \;;
#X obj 516 472 moses 1;
#X obj 85 448 sel 0;
#X obj 352 448 sel 0;
#X msg 85 473 1;
#X msg 352 473 1;
#X obj 938 49 keyname;
#X msg 977 93 1;
#X obj 893 27 r global-toggle-keyboard;
#X obj 893 72 gate 1 0;
#X obj 977 71 sel ShiftUp ShiftDown;
#X msg 1038 93 -1;
#X obj 893 120 *;
#X msg 1100 93 0;
#X obj 935 165 r \$0-recall-preset;
#X obj 920 186 +;
#X obj 920 211 t b f;
#X obj 947 232 s \$0-recall-preset-r;
#X obj 920 254 s \$0-recall-preset-apply-r;
#X obj 893 142 sel 0;
#X connect 0 0 13 1;
#X connect 1 0 55 0;
#X connect 2 0 3 0;
#X connect 4 0 11 0;
#X connect 5 0 2 0;
#X connect 6 0 4 0;
#X connect 7 0 8 0;
#X connect 8 0 9 0;
#X connect 9 0 56 0;
#X connect 12 0 13 0;
#X connect 13 0 59 0;
#X connect 14 0 60 0;
#X connect 15 0 14 1;
#X connect 16 0 14 0;
#X connect 17 0 20 0;
#X connect 18 0 17 0;
#X connect 19 0 18 1;
#X connect 20 0 28 0;
#X connect 21 0 32 0;
#X connect 22 0 50 1;
#X connect 22 1 23 0;
#X connect 23 0 24 0;
#X connect 23 1 25 0;
#X connect 24 0 27 0;
#X connect 24 0 26 1;
#X connect 25 0 27 0;
#X connect 25 0 26 1;
#X connect 26 0 18 0;
#X connect 27 0 26 0;
#X connect 28 0 31 0;
#X connect 28 1 30 0;
#X connect 32 0 17 0;
#X connect 33 0 36 0;
#X connect 34 0 33 0;
#X connect 35 0 34 1;
#X connect 36 0 44 0;
#X connect 37 0 48 0;
#X connect 38 0 52 1;
#X connect 38 1 39 0;
#X connect 39 0 40 0;
#X connect 39 1 41 0;
#X connect 40 0 43 0;
#X connect 40 0 42 1;
#X connect 41 0 43 0;
#X connect 41 0 42 1;
#X connect 42 0 34 0;
#X connect 43 0 42 0;
#X connect 44 0 47 0;
#X connect 44 1 46 0;
#X connect 48 0 33 0;
#X connect 49 0 50 0;
#X connect 50 0 27 1;
#X connect 51 0 52 0;
#X connect 52 0 43 1;
#X connect 53 0 5 0;
#X connect 54 0 6 0;
#X connect 55 0 53 0;
#X connect 55 1 2 1;
#X connect 55 2 54 0;
#X connect 55 3 4 1;
#X connect 55 4 56 1;
#X connect 56 0 58 0;
#X connect 58 1 57 0;
#X connect 59 0 61 0;
#X connect 59 1 5 1;
#X connect 60 0 62 0;
#X connect 60 1 6 1;
#X connect 61 0 5 1;
#X connect 62 0 6 1;
#X connect 63 0 66 1;
#X connect 63 1 67 0;
#X connect 64 0 69 1;
#X connect 65 0 66 0;
#X connect 66 0 69 0;
#X connect 67 0 64 0;
#X connect 67 1 68 0;
#X connect 67 2 70 0;
#X connect 68 0 69 1;
#X connect 69 0 76 0;
#X connect 70 0 69 1;
#X connect 71 0 72 1;
#X connect 72 0 73 0;
#X connect 73 0 75 0;
#X connect 73 1 74 0;
#X connect 76 1 72 0;
#X restore 113 23 pd preset-logic;
#N canvas 383 23 599 905 override 0;
#X msg 541 113 0;
#X obj 136 44 keyname;
#X obj 175 293 r nclients;
#X obj 91 176 gate 1 0;
#X floatatom 46 538 5 0 0 0 - - - 0 0, f 5;
#X obj 104 675 s myclientnum;
#X obj 91 268 f;
#X obj 91 198 sel 1;
#X obj 75 719 s override-myid;
#X obj 91 293 t f b, f 12;
#X obj 160 315 f;
#X obj 160 336 > 0;
#X obj 160 357 sel 1;
#X obj 160 378 t b 2;
#X obj 46 423 gate 2 1;
#X obj 91 446 t b f 1;
#X obj 91 500 f;
#X msg 235 718 \; \$1-manual-toggle-keyboard 0;
#X obj 235 696 + 1;
#X obj 175 113 t 1 1;
#X obj 211 113 t 2 1;
#X obj 247 113 t 3 1;
#X obj 283 113 t 4 1;
#X obj 319 113 t 5 1;
#X obj 355 113 t 6 1;
#X obj 391 113 t 7 1;
#X obj 427 113 t 8 1;
#X obj 463 113 t 9 1;
#X obj 499 113 t 10 1;
#X text 288 675 max users (not including guests);
#X msg 244 631 \; \$1-override-solo 0;
#X obj 226 568 r myclientnum;
#X obj 211 589 f;
#X obj 211 610 sel -1;
#X obj 89 697 s override-disconnect;
#X obj 160 423 s override-disconnect;
#X obj 60 761 s override-access-all-buttons;
#X obj 61 789 r myclientnum;
#X obj 46 561 t b b b b f b b;
#X obj 46 810 f;
#X msg 46 832 \; \$1-manual-toggle-keyboard 1;
#X obj 91 474 delay 101;
#X text 155 474 When connected \, this is delayed by 101 since the
myid is delayed by 100 inside the L2OrkTweet abstraction;
#X obj 175 65 sel ShiftF1 ShiftF2 ShiftF3 ShiftF4 ShiftF5 ShiftF6 ShiftF7
ShiftF8 ShiftF9 ShiftF10;
#X obj 195 675 kalashnikov 12;
#X connect 0 0 3 0;
#X connect 1 0 3 1;
#X connect 1 1 43 0;
#X connect 2 0 10 1;
#X connect 3 0 7 0;
#X connect 4 0 38 0;
#X connect 6 0 9 0;
#X connect 7 0 6 0;
#X connect 9 0 14 1;
#X connect 9 1 10 0;
#X connect 10 0 11 0;
#X connect 11 0 12 0;
#X connect 12 0 13 0;
#X connect 13 0 35 0;
#X connect 13 1 14 0;
#X connect 14 0 4 0;
#X connect 14 1 15 0;
#X connect 15 0 41 0;
#X connect 15 1 16 1;
#X connect 15 2 14 0;
#X connect 16 0 4 0;
#X connect 18 0 17 0;
#X connect 19 0 6 1;
#X connect 19 1 3 0;
#X connect 20 0 6 1;
#X connect 20 1 3 0;
#X connect 21 0 6 1;
#X connect 21 1 3 0;
#X connect 22 0 6 1;
#X connect 22 1 3 0;
#X connect 23 0 6 1;
#X connect 23 1 3 0;
#X connect 24 0 6 1;
#X connect 24 1 3 0;
#X connect 25 0 6 1;
#X connect 25 1 3 0;
#X connect 26 0 6 1;
#X connect 26 1 3 0;
#X connect 27 0 6 1;
#X connect 27 1 3 0;
#X connect 28 0 6 1;
#X connect 28 1 3 0;
#X connect 31 0 32 1;
#X connect 32 0 33 0;
#X connect 33 1 30 0;
#X connect 37 0 39 1;
#X connect 38 0 39 0;
#X connect 38 1 36 0;
#X connect 38 2 8 0;
#X connect 38 3 34 0;
#X connect 38 4 5 0;
#X connect 38 5 44 0;
#X connect 38 6 32 0;
#X connect 39 0 40 0;
#X connect 41 0 16 0;
#X connect 43 0 19 0;
#X connect 43 1 20 0;
#X connect 43 2 21 0;
#X connect 43 3 22 0;
#X connect 43 4 23 0;
#X connect 43 5 24 0;
#X connect 43 6 25 0;
#X connect 43 7 26 0;
#X connect 43 8 27 0;
#X connect 43 9 28 0;
#X connect 43 10 0 0;
#X connect 44 1 18 0;
#X restore 317 23 pd override;
#N canvas 615 291 659 502 chat-logic 0;
#X obj 40 27 loadbang;
#X obj 40 193 s \$0-chat-r;
#X obj 40 97 tosymbol;
#X obj 40 119 list prepend set;
#X obj 40 141 list trim;
#X obj 282 171 r \$0-chat-s;
#X obj 398 432 list prepend chat;
#X obj 405 27 r myclientnum;
#X obj 398 459 s chat-out;
#X obj 405 49 sel -1;
#X obj 450 148 r myid;
#X obj 405 221 sprintf GUEST(%d):;
#X obj 398 359 list prepend null;
#X obj 405 169 gate 1 0;
#X obj 405 194 t f 0;
#X obj 587 94 r myid;
#X obj 587 119 t b f;
#X obj 497 148 f;
#X obj 237 228 s2l;
#X obj 237 249 route bang;
#X obj 294 270 t 1;
#X obj 237 270 t 0;
#X obj 237 302 gate 1 0;
#X msg 40 49 Click here to chat while online. Press return to send.
Chat will appear in the console., f 32;
#X obj 405 98 pipe 0;
#X obj 405 74 t 0 1;
#X text 257 98 ugly workaround for the loadbang myclientnum -1 vallue
stored in the pd network-io, f 24;
#X obj 96 302 r local-report-request;
#X obj 192 459 s local-report-response;
#X obj 497 170 sprintf USER-%d(%d):;
#X obj 485 119 t f f;
#X obj 192 432 list prepend session-title;
#X obj 282 194 t s s s;
#X obj 192 348 symbol;
#X connect 0 0 23 0;
#X connect 2 0 3 0;
#X connect 3 0 4 0;
#X connect 4 0 1 0;
#X connect 5 0 32 0;
#X connect 6 0 8 0;
#X connect 7 0 9 0;
#X connect 9 0 25 0;
#X connect 9 1 30 0;
#X connect 10 0 13 1;
#X connect 11 0 12 1;
#X connect 12 0 6 0;
#X connect 13 0 14 0;
#X connect 14 0 11 0;
#X connect 14 1 13 0;
#X connect 15 0 16 0;
#X connect 16 0 17 0;
#X connect 16 1 29 1;
#X connect 17 0 29 0;
#X connect 18 0 19 0;
#X connect 19 0 21 0;
#X connect 19 1 20 0;
#X connect 20 0 22 0;
#X connect 21 0 22 0;
#X connect 22 0 12 0;
#X connect 23 0 2 0;
#X connect 24 0 13 0;
#X connect 25 0 24 0;
#X connect 25 1 13 0;
#X connect 27 0 33 0;
#X connect 29 0 12 1;
#X connect 30 1 17 1;
#X connect 31 0 28 0;
#X connect 32 0 22 1;
#X connect 32 1 18 0;
#X connect 32 2 33 1;
#X connect 33 0 31 0;
#X restore 401 23 pd chat-logic;
#X obj 17 54 loadbang;
#X msg 17 79 \; pd dsp 1;
#N canvas 159 6 794 948 load-save-session 0;
#X obj 32 205 route report;
#X obj 101 483 coll;
#C restore;
#X obj 232 294 patch_name;
#X obj 302 294 s \$0-redraw-gui;
#X msg 533 59 clear;
#X obj 101 282 list prepend;
#X obj 101 229 t l b;
#X obj 128 251 counter;
#X obj 32 184 gate 1 0;
#X obj 32 122 delay 3000;
#X msg 232 361 dump;
#X obj 235 34 r load-session;
#X obj 32 145 t b 0;
#X obj 56 517 r network-status;
#X obj 56 542 + 1;
#X obj 56 568 gate 2 1;
#X obj 167 831 s network-in;
#X obj 548 302 patch_name;
#X obj 548 191 gate 1 0;
#X obj 548 226 t b 0;
#X obj 232 265 t b b s;
#X obj 232 221 symbol;
#X obj 605 191 r session-name-s;
#X obj 232 316 pack s s;
#X obj 548 324 pack s s;
#X obj 548 256 symbol;
#X obj 548 279 t b s;
#X obj 485 399 loadbang;
#X obj 533 443 s session-name-r;
#X text 533 465 set up the default session name;
#X obj 473 36 t b b 1 0 b 1;
#X obj 488 83 s local-report-request;
#X obj 77 34 r local-report-response;
#X obj 269 593 r myclientnum;
#X obj 269 616 t f f;
#X obj 212 639 route null;
#X obj 212 661 list prepend null;
#X obj 207 780 list trim;
#X obj 235 59 t b b b;
#X msg 32 96 stop;
#X msg 533 421 symbol jamminlicious-002;
#X obj 473 14 r save-session;
#X text 118 543 only allow loading of session for all clients when
we are not connected to a server. Otherwise apply the session only
to the current client.;
#X obj 525 565 + 1;
#X text 578 544 max users (not including guests);
#X obj 567 587 r myclientnum;
#X obj 552 609 ==;
#X obj 525 587 t f f;
#X obj 480 635 gate 1 0;
#X obj 232 338 t b b l;
#X text 496 495 open gate for the local tracker-time to be immediately
broadcast via internet (if connected) upon loading a session, f 42
;
#X msg 480 657 \; \$1-send-local-tracker-time-report 1 \;;
#X msg 548 361 write \$1/sessions/\$2-session-coll.txt;
#X msg 271 361 clear \, read \$1/sessions/\$2-session-coll.txt;
#X obj 56 722 route session-title;
#X obj 207 758 list prepend;
#X obj 276 683 r myclientnum;
#X obj 56 775 moses 1;
#X msg 56 796 1;
#X msg 95 796 2;
#X obj 56 822 gate 2 1;
#X obj 56 877 list prepend loaded session titled:;
#X obj 56 899 list trim;
#X obj 56 921 print TWEETER;
#X obj 101 616 route session-title;
#X obj 212 683 list trim;
#X obj 207 802 s chat-out;
#X msg 276 705 server user \$1 loaded session titled:, f 15;
#N canvas 857 329 434 317 open||browse 0;
#X obj 139 101 list length;
#X obj 139 79 s2l;
#X obj 112 32 inlet;
#X obj 67 247 outlet;
#X obj 112 57 t s s;
#X obj 139 126 > 0;
#X obj 67 196 gate 1 0;
#X obj 139 151 t f f;
#X obj 166 173 sel 0;
#X obj 166 219 openpanel;
#X obj 166 247 outlet;
#X obj 215 123 patch_name;
#X obj 215 101 loadbang;
#X obj 215 145 sprintf %s/sessions/;
#X obj 215 173 tosymbol;
#X obj 166 196 symbol;
#X connect 0 0 5 0;
#X connect 1 0 0 0;
#X connect 2 0 4 0;
#X connect 4 0 6 1;
#X connect 4 1 1 0;
#X connect 5 0 7 0;
#X connect 6 0 3 0;
#X connect 7 0 6 0;
#X connect 7 1 8 0;
#X connect 8 0 15 0;
#X connect 9 0 10 0;
#X connect 11 0 13 0;
#X connect 12 0 11 0;
#X connect 13 0 14 0;
#X connect 14 0 15 1;
#X connect 15 0 9 0;
#X restore 232 243 pd open||browse;
#X msg 338 326 clear \, read \$1;
#X obj 319 265 t b s b;
#X msg 485 421 symbol;
#X obj 485 544 kalashnikov 12;
#X connect 0 1 6 0;
#X connect 1 0 15 1;
#X connect 2 0 23 0;
#X connect 4 0 1 0;
#X connect 5 0 1 0;
#X connect 6 0 5 0;
#X connect 6 1 7 0;
#X connect 7 0 5 1;
#X connect 8 0 0 0;
#X connect 9 0 12 0;
#X connect 10 0 1 0;
#X connect 11 0 38 0;
#X connect 12 0 18 1;
#X connect 12 1 8 0;
#X connect 13 0 14 0;
#X connect 14 0 15 0;
#X connect 15 0 54 0;
#X connect 15 1 64 0;
#X connect 17 0 24 0;
#X connect 18 0 19 0;
#X connect 19 0 25 0;
#X connect 19 1 18 0;
#X connect 20 0 3 0;
#X connect 20 1 2 0;
#X connect 20 2 23 1;
#X connect 21 0 68 0;
#X connect 22 0 21 1;
#X connect 22 0 25 1;
#X connect 23 0 49 0;
#X connect 24 0 52 0;
#X connect 25 0 26 0;
#X connect 26 0 17 0;
#X connect 26 1 24 1;
#X connect 27 0 71 0;
#X connect 30 0 9 0;
#X connect 30 1 31 0;
#X connect 30 2 8 0;
#X connect 30 3 7 2;
#X connect 30 4 4 0;
#X connect 30 5 18 0;
#X connect 32 0 8 1;
#X connect 33 0 34 0;
#X connect 34 0 35 1;
#X connect 34 1 36 1;
#X connect 35 0 36 0;
#X connect 36 0 65 0;
#X connect 37 0 66 0;
#X connect 38 0 21 0;
#X connect 38 1 12 0;
#X connect 38 2 39 0;
#X connect 39 0 9 0;
#X connect 40 0 28 0;
#X connect 41 0 30 0;
#X connect 43 0 47 0;
#X connect 45 0 46 1;
#X connect 46 0 48 0;
#X connect 47 0 48 1;
#X connect 47 1 46 0;
#X connect 48 0 51 0;
#X connect 49 0 10 0;
#X connect 49 1 72 0;
#X connect 49 2 53 0;
#X connect 52 0 1 0;
#X connect 53 0 1 0;
#X connect 54 0 60 1;
#X connect 54 1 16 0;
#X connect 55 0 37 0;
#X connect 56 0 67 0;
#X connect 57 0 58 0;
#X connect 57 1 59 0;
#X connect 58 0 60 0;
#X connect 59 0 60 0;
#X connect 60 0 61 0;
#X connect 61 0 62 0;
#X connect 62 0 63 0;
#X connect 64 0 55 0;
#X connect 64 1 35 0;
#X connect 65 0 16 0;
#X connect 67 0 55 1;
#X connect 68 0 20 0;
#X connect 68 1 70 0;
#X connect 69 0 1 0;
#X connect 70 0 10 0;
#X connect 70 1 69 0;
#X connect 70 2 3 0;
#X connect 71 0 28 0;
#X connect 72 1 43 0;
#X restore 359 52 pd load-save-session;
#N canvas 245 457 450 346 version 0;
#X obj 177 51 loadbang;
#X obj 177 101 t f f;
#X obj 204 125 s version;
#X obj 177 269 s title-version-r;
#X text 215 76 update version here;
#X floatatom 138 76 5 0 0 0 - - - 0 0, f 5;
#X obj 177 221 tosymbol;
#X msg 177 245 label \$1;
#X text 99 75 DEBUG;
#X msg 177 197 L2Ork Tweeter \$1 by;
#X msg 177 76 0.43;
#X connect 0 0 10 0;
#X connect 1 0 9 0;
#X connect 1 1 2 0;
#X connect 5 0 1 0;
#X connect 6 0 7 0;
#X connect 7 0 3 0;
#X connect 9 0 6 0;
#X connect 10 0 1 0;
#X restore 283 52 pd version;
#X connect 5 0 6 0;
#X restore 1559 3 pd settings;
#X obj 239 42 nbx 2 16 0 12 0 0 \$0-slot-s null-r empty 1 -9 0 12 #fcb46c
#000000 #000000 0 256 0 1;
#X obj 243 28 cnv 8 10 8 empty empty SLOT -1 5 0 10 #6c6c6c #fcfcfc
0;
#X obj 283 24 cnv 15 55 41 empty empty empty 4 5 0 10 #6c6c6c #fcfcfc
0;
#X obj 302 42 bng 16 250 50 0 reconnect null-r CONNECT -13 -9 0 10
#fc6418 #000000 #fcfcfc;
#X obj 341 24 cnv 15 51 41 empty empty empty 4 5 0 10 #6c6c6c #fcfcfc
0;
#X obj 352 42 cnv 15 30 16 null-s nclients-gui 0 3 6 0 12 #202020 #fcfcfc
0;
#X obj 352 28 cnv 8 8 8 empty empty USERS -1 5 0 10 #6c6c6c #fcfcfc
0;
#X obj -1 68 core/L2OrkTweet 1;
#X obj 545 30 nbx 4 15 1 9999 0 0 \$0-store-loop \$0-store-loop-r empty
-64 5 0 12 #fcb46c #000000 #000000 1 256 0 1;
#X obj 545 45 nbx 4 15 1 9999 0 0 \$0-recall-loop \$0-recall-loop-r
empty -64 5 0 12 #80fc80 #000000 #000000 1 256 0 1;
#X obj 410 30 cnv 8 10 8 empty empty STORE\ LOOP\ (shift+1-0) -1 5
0 10 #6c6c6c #fcfcfc 0;
#X obj 404 45 cnv 8 10 8 empty empty RECALL\ LOOP\ (shift+q-p) -1 5
0 10 #6c6c6c #fcfcfc 0;
#X obj 599 30 bng 15 250 50 0 \$0-store-loop-apply \$0-store-loop-apply-r
empty -5 -9 0 10 #fcb46c #fc6418 #fcfcfc;
#X obj 599 45 bng 15 250 50 0 \$0-recall-loop-apply \$0-recall-loop-apply-r
empty -5 -9 0 10 #80fc80 #008080 #fcfcfc;
#X obj 809 30 nbx 4 15 1 9999 0 0 \$0-store-preset \$0-store-preset-r
empty -64 5 0 12 #fcb46c #000000 #000000 1 256 0 1;
#X obj 809 45 nbx 4 15 1 9999 0 0 \$0-recall-preset \$0-recall-preset-r
empty -64 5 0 12 #80fc80 #000000 #000000 1 256 0 1;
#X obj 662 30 cnv 8 10 8 empty empty STORE\ PRESET\ (shift+a-:) -1
5 0 10 #6c6c6c #fcfcfc 0;
#X obj 656 45 cnv 8 10 8 empty empty RECALL\ PRESET\ (shift+z-/) -1
5 0 10 #6c6c6c #fcfcfc 0;
#X obj 863 30 bng 15 250 50 0 \$0-store-preset-apply \$0-store-preset-apply-r
empty -5 -9 0 10 #fcb46c #fc6418 #fcfcfc;
#X obj 863 45 bng 15 250 50 0 \$0-recall-preset-apply \$0-recall-preset-apply-r
empty -5 -9 0 10 #80fc80 #008080 #fcfcfc;
#X obj -1 219 core/L2OrkTweet 2;
#X obj -1 370 core/L2OrkTweet 3;
#X obj -1 521 core/L2OrkTweet 4;
#X obj -1 672 core/L2OrkTweet 5;
#X obj -1 823 core/L2OrkTweet 6;
#X obj 816 68 core/L2OrkTweet 7;
#X obj 816 219 core/L2OrkTweet 8;
#X obj 816 370 core/L2OrkTweet 9;
#X obj 816 521 core/L2OrkTweet 10;
#N canvas 678 241 516 566 supplemental-documentation 0;
#X text 10 11 Please consider viewing the introductory video found
at:;
#X obj 9 31 pddp/pddplink http://bit.ly/L2Ork-Tweeter;
#X text 10 51 Additional Commands;
#X text 10 81 Instrument Levels;
#X text 10 226 Instrument Presets;
#X text 10 247 Shift+Up/Down: increase/decrease preset instrument number
and immediately apply it., f 82;
#X text 10 101 Return or Enter: set instrument output level to zero
(OVR/LVL slider). Repeat press sets it temporarily to the last known
value \, while upon release it reverts to zero., f 82;
#X text 10 148 ' (key next to Return): set instrument output level
to the last known value (OVR/LVL slider). Repeat press sets it temporarily
to zero \, while upon release it reverts to the last known value.,
f 82;
#X text 10 289 Main Mix;
#X text 10 310 Left/Right: incrementally change the panning of the
main output., f 82;
#X text 10 195 Shift+Backslash (or |): set instrument output level
one (unity)., f 82;
#X restore 1299 3 pd supplemental-documentation (click here);
#X obj 1144 3 pddp/pddplink http://l2ork.icat.vt.edu;
#X obj 136 3 pddp/pddplink http://ico.bukvic.net -text Ivica Ico Bukvic
;
#X obj 406 3 pddp/pddplink https://www.gnu.org/licenses/gpl-3.0.en.html
-text GPL v3 License;
#X obj 816 672 core/L2OrkTweet 11;
#X obj 816 823 core/L2OrkTweet 12;
