#N canvas 113 7 1638 982 10;
#X obj 0 0 cnv 15 1637 973 empty empty empty 5 7 0 10 #444444 #fcfcfc
0;
#X obj 4 2 cnv 15 1630 19 empty empty empty 200 5 0 10 #6c6c6c #fcfcfc
0;
#X obj 5 4 cnv 15 13 13 null-s title-version-r L2Ork\ Tweeter\ v.0.71\ by
4 5 0 10 #6c6c6c #fcfcfc 0;
#X obj 252 3 cnv 15 125 16 empty empty (c)\ 2020-2\ Released\ under\ the
4 6 0 10 #6c6c6c #fcfcfc 0;
#X obj 4 24 cnv 15 280 41 empty empty empty 4 5 0 10 #6c6c6c #fcfcfc
0;
#X obj 13 28 cnv 8 121 8 empty empty HOSTNAME:PORT -1 5 0 10 #6c6c6c
#fcfcfc 0;
#X symbolatom 12 42 37 0 0 2 - #0-hostname-r #0-hostname-s 1 0 1,
f 37;
#X obj 399 24 cnv 15 490 41 empty empty empty 4 5 0 10 #6c6c6c #fcfcfc
0;
#X obj 892 24 cnv 15 555 41 empty empty empty 4 5 0 10 #6c6c6c #fcfcfc
0;
#X obj 898 28 cnv 8 70 8 empty empty CHAT -1 5 0 10 #6c6c6c #fcfcfc
0;
#X symbolatom 898 42 90 0 0 0 - #0-chat-r #0-chat-s 1 0 1, f 90;
#X obj 1450 24 cnv 15 184 41 empty empty empty 4 5 0 10 #6c6c6c #fcfcfc
0;
#X obj 1505 28 cnv 8 70 8 empty empty SESSION\ NAME -1 5 0 10 #6c6c6c
#fcfcfc 0;
#X obj 1459 42 bng 16 250 50 0 load-session load-session-r LOAD -4
-9 0 10 #80fc80 #008080 #fcfcfc 1;
#X obj 1609 42 bng 16 250 50 0 save-session save-session-r SAVE -5
-9 0 10 #fcb46c #fc6418 #fcfcfc 1;
#X obj 243 42 nbx 2 16 0 12 0 0 \$0-slot-s null-r empty 1 -9 0 12 #fcb46c
#000000 #000000 0 256 0 1 1 0;
#X obj 247 28 cnv 8 10 8 empty empty SLOT -1 5 0 10 #6c6c6c #fcfcfc
0;
#X obj 287 24 cnv 15 55 41 empty empty empty 4 5 0 10 #6c6c6c #fcfcfc
0;
#X obj 306 42 bng 16 250 50 0 reconnect null-r CONNECT -13 -9 0 10
#fc6418 #000000 #fcfcfc 1;
#X obj 345 24 cnv 15 51 41 empty empty empty 4 5 0 10 #6c6c6c #fcfcfc
0;
#X obj 356 42 cnv 15 30 16 null-s nclients-gui 0 3 6 0 12 #202020 #fcfcfc
0;
#X obj 356 28 cnv 8 8 8 empty empty USERS -1 5 0 10 #6c6c6c #fcfcfc
0;
#X obj 3 68 core/L2OrkTweet 1;
#X obj 549 30 nbx 4 15 1 9999 0 0 \$0-store-loop \$0-store-loop-r empty
-64 5 0 12 #fcb46c #000000 #000000 1 256 0 1 1 0;
#X obj 549 45 nbx 4 15 1 9999 0 0 \$0-recall-loop \$0-recall-loop-r
empty -64 5 0 12 #80fc80 #000000 #000000 1 256 0 1 1 0;
#X obj 414 30 cnv 8 10 8 empty empty STORE\ LOOP\ (shift+1-0) -1 5
0 10 #6c6c6c #fcfcfc 0;
#X obj 408 45 cnv 8 10 8 empty empty RECALL\ LOOP\ (shift+q-p) -1 5
0 10 #6c6c6c #fcfcfc 0;
#X obj 603 30 bng 15 250 50 0 \$0-store-loop-apply \$0-store-loop-apply-r
empty -5 -9 0 10 #fcb46c #fc6418 #fcfcfc 1;
#X obj 603 45 bng 15 250 50 0 \$0-recall-loop-apply \$0-recall-loop-apply-r
empty -5 -9 0 10 #80fc80 #008080 #fcfcfc 1;
#X obj 813 30 nbx 4 15 1 9999 0 0 \$0-store-preset \$0-store-preset-r
empty -64 5 0 12 #fcb46c #000000 #000000 1 256 0 1 1 0;
#X obj 813 45 nbx 4 15 1 9999 0 1 \$0-recall-preset \$0-recall-preset-r
empty -64 5 0 12 #80fc80 #000000 #000000 11 256 0 1 1 0;
#X obj 666 30 cnv 8 10 8 empty empty STORE\ PRESET\ (shift+a-:) -1
5 0 10 #6c6c6c #fcfcfc 0;
#X obj 660 45 cnv 8 10 8 empty empty RECALL\ PRESET\ (shift+z-/) -1
5 0 10 #6c6c6c #fcfcfc 0;
#X obj 867 30 bng 15 250 50 0 \$0-store-preset-apply \$0-store-preset-apply-r
empty -5 -9 0 10 #fcb46c #fc6418 #fcfcfc 1;
#X obj 867 45 bng 15 250 50 0 \$0-recall-preset-apply \$0-recall-preset-apply-r
empty -5 -9 0 10 #80fc80 #008080 #fcfcfc 1;
#X obj 3 219 core/L2OrkTweet 2;
#X obj 3 370 core/L2OrkTweet 3;
#X obj 3 521 core/L2OrkTweet 4;
#X obj 3 672 core/L2OrkTweet 5;
#X obj 3 823 core/L2OrkTweet 6;
#X obj 820 68 core/L2OrkTweet 7;
#X obj 820 219 core/L2OrkTweet 8;
#X obj 820 370 core/L2OrkTweet 9;
#X obj 820 521 core/L2OrkTweet 10;
#N canvas 686 218 513 656 supplemental-documentation 0;
#X obj 0 0 cnv 15 512 651 empty empty empty 20 12 0 14 #e0e0e0 #404040
0;
#X obj 8 576 cnv 15 65 17 empty empty empty 20 12 0 14 #fcb46c #404040
0;
#X obj 8 379 cnv 15 160 17 empty empty empty 20 12 0 14 #fcb46c #404040
0;
#X obj 8 329 cnv 15 52 17 empty empty empty 20 12 0 14 #fcb46c #404040
0;
#X obj 8 266 cnv 15 112 17 empty empty empty 20 12 0 14 #fcb46c #404040
0;
#X obj 8 81 cnv 15 106 17 empty empty empty 20 12 0 14 #fcb46c #404040
0;
#X text 8 11 Please consider viewing the introductory video found at:
;
#X obj 7 31 pddp/pddplink http://bit.ly/L2Ork-Tweeter;
#X text 8 81 Instrument Levels;
#X text 8 266 Instrument Presets;
#X text 8 287 Shift+Up/Down: increase/decrease preset instrument number
and immediately apply it., f 82;
#X text 8 329 Main Mix;
#X text 8 350 Left/Right: incrementally change the panning of the main
output., f 82;
#X text 8 235 Shift+Backslash (or |): set instrument output level to
one or 100% (unity)., f 82;
#X text 8 101 ' (key next to Return): set instrument output level to
zero (OVR/LVL slider). Repeat press sets it temporarily to the last
known value \, while upon release it reverts to zero., f 82;
#X text 8 379 Sharing Loops and Patterns;
#X text 9 576 Hover Mode;
#X text 9 597 When hover mode is enabled \, you can enter notes anywhere
on the tracker timeline regardless where the timebar is currently located.
Delete \, shift+delete \, and ~ (insert) also work in this mode.,
f 82;
#X text 8 51 Below is a list of additional commands that are not clearly
annotated elsewhere., f 82;
#X text 8 148 Return or Enter: set instrument output level to the last
known value (OVR/LVL slider). Repeat press sets it temporarily to zero
\, while upon release it reverts to the last known value. When holding
Return/Enter pressed during changing of instruments (e.g. \, using
shift+up/down) \, the instrument will remain silent until the Return/Enter
key is released \, at which point \, the level will revert to the new
instrument's value., f 82;
#X text 8 400 You can easily share your patterns and loops with others.
To do so \, you will want to click on the user number you wish to copy
instrument and/or loop from \, using one of the following clicking
actions that need to be performed within the 500ms of initiating the
first click:, f 82;
#X text 8 456 single click - loop sync (play on/off and time bar location)double
click - loop contents and lengthtriple click - loop sync and contents
and lengthquadruple click - everything (loop \, loop sync \, preset
\, main out \, and pan)shift + single click - preset (instrument)shift
+ double click - main out and pan valuesshift + triple click - preset
and main out and pan valuesshift + quadruple click - everything (loop
\, loop sync \, preset \, main out \, and pan), f 82;
#X restore 1326 3 pd supplemental-documentation (click here);
#X obj 153 3 pddp/pddplink http://ico.bukvic.net -text Ivica Ico Bukvic
;
#X obj 437 3 pddp/pddplink https://www.gnu.org/licenses/gpl-3.0.en.html
-text GPL v3 License;
#X obj 820 672 core/L2OrkTweet 11;
#X obj 820 823 core/L2OrkTweet 12;
#N canvas 769 560 502 131 core 0;
#N canvas 139 226 861 565 loop-logic 0;
#X obj 506 413 r myclientnum;
#X obj 101 566 forward null;
#X obj 479 566 forward null;
#X msg 128 533 send \$1-write-coll;
#X msg 506 533 send \$1-read-coll;
#X obj 116 366 r \$0-store-loop;
#X obj 494 366 r \$0-recall-loop;
#X obj 101 413 f;
#X obj 101 390 r \$0-store-loop-apply;
#X obj 127 219 coll;
#C restore;
#X obj 127 159 gate 1 0;
#X obj 172 136 key;
#X floatatom 127 244 5 0 0 0 - - - 0 0 1, f 5;
#X obj 195 159 loadbang;
#X obj 146 43 keyname;
#X obj 185 65 sel Shift;
#X msg 185 87 1;
#X msg 236 87 0;
#X obj 101 136 &&, f 10;
#X obj 101 114 gate 1 0;
#X obj 128 413 r myclientnum;
#X msg 195 182 clear \, 33 1 \, 64 2 \, 35 3 \, 36 4 \, 37 5 \, 94
6 \, 38 7 \, 42 8 \, 40 9 \, 41 10, f 36;
#X obj 127 268 t b f;
#X obj 154 291 s \$0-store-loop-r;
#X obj 127 313 s \$0-store-loop-apply-r;
#X text 278 295 goes to the gui and calls stuff below from there,
f 25;
#X obj 479 390 r \$0-recall-loop-apply;
#X obj 479 413 f;
#X obj 505 219 coll;
#C restore;
#X obj 505 159 gate 1 0;
#X obj 550 136 key;
#X floatatom 505 244 5 0 0 0 - - - 0 0 1, f 5;
#X obj 573 159 loadbang;
#X obj 524 43 keyname;
#X obj 563 65 sel Shift;
#X msg 563 87 1;
#X msg 614 87 0;
#X obj 479 136 &&, f 10;
#X obj 479 114 gate 1 0;
#X obj 505 268 t b f;
#X text 663 295 goes to the gui and calls stuff below from there,
f 25;
#X obj 532 291 s \$0-recall-loop-r;
#X obj 505 313 s \$0-recall-loop-apply-r;
#X msg 573 182 clear \, 81 1 \, 87 2 \, 69 3 \, 82 4 \, 84 5 \, 89
6 \, 85 7 \, 73 8 \, 79 9 \, 80 10, f 36;
#X obj 101 20 r global-toggle-keyboard;
#X obj 101 77 gate 1 0;
#X obj 479 20 r global-toggle-keyboard;
#X obj 479 77 gate 1 0;
#X obj 506 509 moses 1;
#X obj 128 509 moses 1;
#X obj 434 533 gate 1 0;
#X obj 56 533 gate 1 0;
#X obj 128 478 t f f;
#X obj 56 509 > 0;
#X obj 434 509 > 0;
#X obj 506 478 t f f;
#X obj 74 441 sel 0;
#X msg 74 466 1;
#X obj 452 441 sel 0;
#X msg 452 466 1;
#X connect 0 0 55 0;
#X connect 3 0 1 0;
#X connect 4 0 2 0;
#X connect 5 0 7 1;
#X connect 6 0 27 1;
#X connect 7 0 56 0;
#X connect 8 0 7 0;
#X connect 9 0 12 0;
#X connect 10 0 9 0;
#X connect 11 0 10 1;
#X connect 12 0 22 0;
#X connect 13 0 21 0;
#X connect 14 0 45 1;
#X connect 14 1 15 0;
#X connect 15 0 16 0;
#X connect 15 1 17 0;
#X connect 16 0 19 0;
#X connect 16 0 18 1;
#X connect 17 0 19 0;
#X connect 17 0 18 1;
#X connect 18 0 10 0;
#X connect 19 0 18 0;
#X connect 20 0 52 0;
#X connect 21 0 9 0;
#X connect 22 0 24 0;
#X connect 22 1 23 0;
#X connect 26 0 27 0;
#X connect 27 0 58 0;
#X connect 28 0 31 0;
#X connect 29 0 28 0;
#X connect 30 0 29 1;
#X connect 31 0 39 0;
#X connect 32 0 43 0;
#X connect 33 0 47 1;
#X connect 33 1 34 0;
#X connect 34 0 35 0;
#X connect 34 1 36 0;
#X connect 35 0 38 0;
#X connect 35 0 37 1;
#X connect 36 0 38 0;
#X connect 36 0 37 1;
#X connect 37 0 29 0;
#X connect 38 0 37 0;
#X connect 39 0 42 0;
#X connect 39 1 41 0;
#X connect 43 0 28 0;
#X connect 44 0 45 0;
#X connect 45 0 19 1;
#X connect 46 0 47 0;
#X connect 47 0 38 1;
#X connect 48 1 4 0;
#X connect 49 1 3 0;
#X connect 50 0 2 0;
#X connect 51 0 1 0;
#X connect 52 0 53 0;
#X connect 52 1 49 0;
#X connect 53 0 51 0;
#X connect 54 0 50 0;
#X connect 55 0 54 0;
#X connect 55 1 48 0;
#X connect 56 0 57 0;
#X connect 56 1 51 1;
#X connect 57 0 51 1;
#X connect 58 0 59 0;
#X connect 58 1 50 1;
#X connect 59 0 50 1;
#X restore 17 23 pd loop-logic;
#N canvas 737 64 1145 954 network-io 0;
#X obj 272 279 list prepend send;
#X obj 272 301 list trim;
#X obj 20 137 tgl 15 0 empty empty empty 17 7 0 10 #fcfcfc #000000
#000000 0 1 1;
#X obj 20 156 metro 1000;
#X msg 20 177 ping;
#X obj 20 219 list trim;
#X obj 272 360 netclient;
#X obj 83 177 r myid;
#X obj 272 459 s myid;
#X obj 272 437 unpack 0 0;
#X obj 269 706 s myclientnum;
#X obj 20 198 list append;
#X obj 272 245 list prepend;
#X obj 354 223 r myclientnum;
#X text 20 41 machine that goes ping!;
#X obj 951 528 s network-in;
#X text 352 245 this adds client num (according to the server), f
25;
#X text 84 277 this prepends the send command;
#X obj 272 223 r client-out;
#X obj 190 625 loadbang;
#X msg 190 647 -1;
#X obj 20 61 r myid;
#X obj 798 296 delay 500;
#X text 712 12 initiates connection;
#X obj 313 866 tosymbol;
#X obj 323 682 sel 1;
#X obj 842 12 r reconnect;
#X obj 539 157 r disconnect;
#X obj 83 82 r disconnect;
#X msg 83 103 0;
#X obj 227 335 gate 1 0;
#X msg 313 890 \; nclients-gui label \$1;
#X obj 187 791 s nclients;
#X obj 452 857 sel 0;
#X obj 497 903 s myclientnum;
#X obj 452 903 s myid;
#X obj 452 880 t 0 -1;
#X text 43 629 make myclientnum initially invalid or -1, f 23;
#X obj 203 223 r chat-out;
#X obj 901 162 r \$0-hostname-s;
#X obj 323 387 s network-status;
#X obj 256 791 loadbang;
#X obj 363 439 print CHAT;
#X obj 842 95 t b b b;
#X obj 881 117 s disconnect;
#X obj 272 410 route myid nclients chat server;
#X obj 586 903 print SERVER;
#X obj 20 103 pipe 100;
#X obj 20 82 > 0;
#X obj 482 571 unpack 0 0;
#X obj 565 600 sel 1 0;
#X obj 557 736 pack 0 s;
#X msg 584 642 symbol disconnected;
#X msg 565 621 symbol connected;
#X msg 557 758 user \$1 \$2;
#X msg 294 627 \; \$1-remote-user-gui-update \$2;
#X obj 750 638 r myclientnum;
#X obj 463 528 t l l l;
#X obj 735 616 unpack 0 0;
#X obj 735 660 ==;
#X obj 777 715 f;
#X obj 735 685 sel 1;
#X obj 777 737 sel 0;
#X obj 797 41 gate 1 1;
#X obj 797 66 t b b 0;
#X msg 773 116 1;
#X obj 773 95 delay 1000;
#X text 858 41 avoid spamming connect request (only 1 per second).
also addresses weird timing issues during init if the spam is allowed.
, f 45;
#N canvas 195 164 552 685 check-version 0;
#X obj 145 35 inlet;
#X obj 52 364 s disconnect;
#X obj 145 110 ==;
#X obj 145 135 sel 0 1;
#X obj 145 285 t b l;
#X obj 186 661 outlet;
#X floatatom 81 80 8 0 0 0 - - - 0 0 1, f 8;
#X floatatom 133 387 5 0 0 0 - - - 0 0 1, f 5;
#X obj 133 364 r myclientnum;
#X obj 133 436 + 1;
#X obj 133 461 gate 2 1;
#X obj 133 411 == -1;
#X obj 186 639 list trim;
#X obj 250 572 list prepend guest;
#X obj 133 572 list prepend user;
#X obj 133 550 list prepend;
#X msg 145 58 \$2 \$3;
#X obj 145 80 unpack 0 0;
#X text 133 316 server assigned client num (guests get -1 which is
not very informative \, so we use the incoming third arg value to get
the human-readable client number), f 54;
#X obj 81 58 r version;
#X msg 328 170 version match--welcome to L2Ork Tweeter!, f 30;
#X msg 145 170 version mismatch--disconnecting... please download the
server-compatible version of the client available at http://l2ork.music.vt.edu/main/make-your-own-l2ork/tweeter/
, f 28;
#X connect 0 0 16 0;
#X connect 2 0 3 0;
#X connect 3 0 21 0;
#X connect 3 1 20 0;
#X connect 4 0 1 0;
#X connect 4 1 10 1;
#X connect 6 0 2 1;
#X connect 7 0 11 0;
#X connect 8 0 7 0;
#X connect 9 0 10 0;
#X connect 10 0 15 0;
#X connect 10 1 13 0;
#X connect 11 0 9 0;
#X connect 12 0 5 0;
#X connect 13 0 12 0;
#X connect 14 0 12 0;
#X connect 15 0 14 0;
#X connect 16 0 17 0;
#X connect 17 0 2 0;
#X connect 17 1 15 1;
#X connect 19 0 6 0;
#X connect 20 0 10 1;
#X connect 21 0 4 0;
#X restore 615 820 pd check-version;
#X obj 20 516 r network-status;
#X obj 20 602 s nclients-gui;
#X msg 20 570 color 12 0;
#X msg 92 570 color -4.44147e+06;
#X msg 256 813 0;
#X obj 313 844 nbx 5 14 0 1e+37 0 0 empty empty empty 0 -8 0 10 #fcfcfc
#000000 #000000 0 256 0 0 1 0;
#X obj 20 538 sel 0 1;
#X obj 861 140 delay 250;
#X obj 482 621 sel -1;
#X obj 423 571 route -1;
#X text 817 664 locally disconnects client if its ping is running late
to keep its state in sync with the server (does not work for guests)
, f 23;
#X obj 482 736 pack 0 s;
#X msg 482 758 guest \$2;
#X obj 861 206 lister;
#X obj 901 184 s2l :;
#X msg 861 296 connect \$1 \$2;
#X obj 918 249 sel 0;
#X obj 861 227 unpack s 0;
#X obj 861 162 t b b;
#X msg 930 227 9001;
#X obj 861 274 pack s 0;
#X msg 798 371 send whatismyid \$1;
#X obj 798 350 f 0;
#X obj 813 329 r \$0-slot-s;
#X obj 572 528 s disconnect;
#X obj 360 706 t f f f;
#X obj 277 35 keyname;
#X obj 316 60 sel ShiftCtrlF12;
#X obj 277 60 sel 1;
#X obj 277 108 f;
#X msg 316 81 1;
#X msg 409 81 0;
#X obj 277 129 sel 1;
#X obj 277 150 bng 15 250 50 0 empty empty empty 17 7 0 10 #fcfcfc
#000000 #000000 1;
#X obj 277 173 s disconnect;
#X text 305 108 use Shift+Ctrl+F12 to disconnect;
#X obj 609 180 r myclientnum;
#X obj 594 207 f;
#X obj 594 229 sel -1;
#X obj 72 538 loadbang;
#X obj 519 207 f;
#X msg 519 251 send disconnect \$1 \, disconnect, f 16;
#X obj 777 762 s silent-disconnect;
#X obj 376 133 r silent-disconnect;
#X msg 376 158 disconnect;
#N canvas 341 210 1261 692 session-management 0;
#X obj 133 29 inlet;
#X obj 32 29 r myclientnum;
#X obj 32 54 != -1;
#X obj 32 79 gate 1 0;
#X obj 32 555 t b s;
#X obj 91 455 tosymbol;
#X obj 91 480 t b s;
#X obj 59 625 s session-name-r;
#X obj 32 602 s load-session-r;
#X obj 91 503 s save-session-r;
#X obj 32 530 unpack s f;
#X obj 89 651 s load-session-delayed-network-sync;
#X obj 511 625 coll;
#C restore;
#X obj 664 551 patch_name 1;
#X obj 697 482 r session-name-s;
#X obj 664 573 pack s s;
#X obj 664 505 symbol;
#X obj 664 528 t b s;
#X msg 664 598 write \$1/sessions/\$2-session-coll.txt;
#X obj 150 412 tosymbol;
#X obj 150 434 s session-name-r;
#X obj 461 536 list prepend;
#X obj 461 455 t l b;
#X obj 488 505 counter;
#X obj 150 378 t a 1;
#X obj 308 411 gate 1 0;
#X obj 384 455 t b 0;
#X obj 308 455 t b 0, f 7;
#X msg 308 478 clear;
#X obj 105 315 r toggle-local-sync-save;
#X obj 105 339 gate 1 1;
#X text 257 315 this one is administered through the teacher widget
where broadcasting locally saved session data should not be overwriting
the local file \, so here we prevent that with the gate., f 38;
#X obj 974 487 + 1;
#X obj 934 464 kalashnikov 12;
#X obj 906 569 pipe 250;
#X msg 906 618 \; \$1-reset-gui color #fcb46c #000;
#X msg 993 569 \; \$1-reset-gui color #fcb46c #fc6418 #000 \; \$1-reset-gui
bang;
#X obj 974 510 t f f b;
#X msg 1013 534 clear;
#X obj 411 153 s network-in;
#X obj 308 433 route start end, f 26;
#X obj 324 129 route start end;
#X obj 369 185 r myclientnum;
#X msg 324 234 \; \$2-send-local-tracker-time-report \$1;
#X obj 324 210 pack 0 0;
#X msg 324 152 0;
#X obj 32 104 route load save sync-save sync-save-data sync-vis sync-data
;
#X obj 697 319 patch_name 1;
#X msg 628 401 dump;
#X obj 628 172 symbol;
#X obj 697 341 pack s s;
#X obj 697 363 t b b l;
#X msg 736 401 clear \, read \$1/sessions/\$2-session-coll.txt;
#X obj 697 290 t b s;
#X obj 563 651 s teacher-network-session-sync;
#X obj 741 52 delay;
#X obj 741 29 r load-session-delayed-network-sync;
#X obj 562 29 r load-session-network-sync;
#X msg 563 130 end;
#X msg 571 172 start;
#X obj 563 84 t b b b, f 12;
#X obj 562 52 t b s, f 17;
#X obj 741 84 t b b b, f 12;
#X obj 628 227 select dummy;
#X obj 628 195 t s s;
#X connect 0 0 3 1;
#X connect 1 0 2 0;
#X connect 2 0 3 0;
#X connect 3 0 46 0;
#X connect 4 0 8 0;
#X connect 4 1 7 0;
#X connect 5 0 6 0;
#X connect 6 0 9 0;
#X connect 6 1 7 0;
#X connect 10 0 4 0;
#X connect 10 1 11 0;
#X connect 12 0 54 0;
#X connect 13 0 15 0;
#X connect 14 0 16 1;
#X connect 15 0 18 0;
#X connect 16 0 17 0;
#X connect 17 0 13 0;
#X connect 17 1 15 1;
#X connect 18 0 12 0;
#X connect 19 0 20 0;
#X connect 21 0 12 0;
#X connect 22 0 21 0;
#X connect 22 1 23 0;
#X connect 23 0 21 1;
#X connect 24 0 19 0;
#X connect 24 1 25 0;
#X connect 25 0 40 0;
#X connect 26 0 16 0;
#X connect 26 1 25 0;
#X connect 27 0 28 0;
#X connect 27 1 23 2;
#X connect 28 0 12 0;
#X connect 29 0 30 0;
#X connect 30 0 24 0;
#X connect 32 0 37 0;
#X connect 33 1 32 0;
#X connect 34 0 35 0;
#X connect 37 0 34 0;
#X connect 37 1 36 0;
#X connect 37 2 38 0;
#X connect 38 0 34 0;
#X connect 40 0 27 0;
#X connect 40 1 26 0;
#X connect 40 2 22 0;
#X connect 41 0 45 0;
#X connect 41 2 39 0;
#X connect 42 0 44 1;
#X connect 44 0 43 0;
#X connect 45 0 44 0;
#X connect 46 0 10 0;
#X connect 46 1 5 0;
#X connect 46 2 30 1;
#X connect 46 3 25 1;
#X connect 46 4 33 0;
#X connect 46 5 41 0;
#X connect 47 0 50 0;
#X connect 48 0 12 0;
#X connect 49 0 64 0;
#X connect 50 0 51 0;
#X connect 51 0 48 0;
#X connect 51 2 52 0;
#X connect 52 0 12 0;
#X connect 53 0 47 0;
#X connect 53 1 50 1;
#X connect 55 0 62 0;
#X connect 56 0 55 0;
#X connect 57 0 61 0;
#X connect 58 0 54 0;
#X connect 59 0 54 0;
#X connect 60 0 58 0;
#X connect 60 1 49 0;
#X connect 60 2 59 0;
#X connect 61 0 60 0;
#X connect 61 1 49 1;
#X connect 62 0 58 0;
#X connect 62 1 48 0;
#X connect 62 2 59 0;
#X connect 63 0 48 0;
#X connect 63 1 53 0;
#X connect 64 0 63 1;
#X connect 64 1 63 0;
#X restore 626 554 pd session-management;
#X msg 627 251 \; \$1-override-solo 0 \; \$1-manual-toggle-tracker
0 \;, f 26;
#X obj 539 179 t b b;
#X obj 501 133 r override-disconnect;
#X obj 693 792 t l l;
#X msg 720 819 \$2;
#X obj 720 843 sprintf server v.%.02f;
#X obj 783 474 route myclientnum;
#X text 653 401 ignore local changes among broadcast messages \, except
when message from server calls for a report (to sync other clients)
\, or if a teacher patch uses report to change remoteuser settings
(report with a bang requests report \, otherwiseit feeds the values)
, f 61;
#X text 962 491 rightmost outlet is for all other clients, f 23;
#X obj 882 499 route report;
#X obj 229 570 r whatismyclientnum;
#X obj 269 681 f;
#N canvas 727 338 285 242 loop-length 0;
#X obj 156 45 inlet;
#X obj 69 45 r myclientnum;
#X obj 69 129 pack 0 0, f 15;
#X msg 69 158 \; \$2-manual-loop-length \$1;
#X obj 69 108 gate 1 0;
#X obj 69 66 t f f;
#X obj 69 87 > 0;
#X connect 0 0 4 1;
#X connect 1 0 5 0;
#X connect 2 0 3 0;
#X connect 4 0 2 0;
#X connect 5 0 6 0;
#X connect 5 1 2 1;
#X connect 6 0 4 0;
#X restore 681 528 pd loop-length;
#N canvas 312 268 941 599 timed-messages 0;
#X obj 23 22 inlet;
#X obj 470 167 r;
#X msg 485 142 set \$1-tracker-sync;
#X obj 469 108 unpack 0 0 0, f 20;
#X obj 470 217 ==, f 10;
#X obj 470 319 f;
#X obj 470 242 sel 1;
#X obj 23 108 core/inst-lvl 1;
#X obj 122 108 core/inst-lvl 2;
#X obj 226 108 core/inst-lvl 3;
#X obj 330 108 core/inst-lvl 4;
#X obj 23 138 core/inst-lvl 5;
#X obj 122 138 core/inst-lvl 6;
#X obj 226 138 core/inst-lvl 7;
#X obj 330 138 core/inst-lvl 8;
#X obj 23 168 core/inst-lvl 9;
#X obj 122 168 core/inst-lvl 10;
#X obj 226 168 core/inst-lvl 11;
#X obj 330 168 core/inst-lvl 12;
#X obj 470 267 t b 0, f 11;
#X obj 470 192 change -1;
#X obj 470 297 kalashnikov 12;
#X obj 510 319 + 1;
#X obj 470 368 list prepend;
#X obj 470 563 s network-in;
#X obj 470 342 list prepend overdrive-override;
#X obj 23 56 route inst-level inst-level-all inst-level-list, f 147
;
#X obj 699 191 r;
#X msg 714 166 set \$1-tracker-sync;
#X obj 699 241 ==, f 10;
#X obj 699 266 sel 1;
#X obj 699 291 t b 0, f 11;
#X obj 699 216 change -1;
#X obj 699 321 kalashnikov 12;
#X obj 766 369 + 1;
#X obj 699 522 list prepend, f 14;
#X obj 699 496 list prepend overdrive-override;
#X obj 699 108 t a a, f 27;
#X obj 739 418 list store, f 20;
#X obj 699 132 unpack 0 0;
#X obj 799 291 zl slice 2;
#X obj 739 345 t f f;
#X msg 739 393 get \$1 1;
#X text 41 265 given the timing of individual parts will depend on
when the trigger points for various cues happen \, mixing inst-level-all
and inst-level is going to be difficult to determine and may be best
if the two are staggered one after another using the same timing source.
or \, better yet \, use the new inst-level-list that allows for synchronous
individual treatment of each part.;
#X connect 0 0 26 0;
#X connect 1 0 20 0;
#X connect 2 0 1 1;
#X connect 3 0 2 0;
#X connect 3 1 4 1;
#X connect 3 2 5 1;
#X connect 4 0 6 0;
#X connect 5 0 25 0;
#X connect 6 0 19 0;
#X connect 19 0 21 0;
#X connect 19 1 2 0;
#X connect 20 0 4 0;
#X connect 21 0 5 0;
#X connect 21 1 22 0;
#X connect 22 0 23 1;
#X connect 23 0 24 0;
#X connect 25 0 23 0;
#X connect 26 0 7 0;
#X connect 26 0 18 0;
#X connect 26 0 17 0;
#X connect 26 0 16 0;
#X connect 26 0 15 0;
#X connect 26 0 14 0;
#X connect 26 0 13 0;
#X connect 26 0 12 0;
#X connect 26 0 11 0;
#X connect 26 0 10 0;
#X connect 26 0 9 0;
#X connect 26 0 8 0;
#X connect 26 1 3 0;
#X connect 26 2 37 0;
#X connect 27 0 32 0;
#X connect 28 0 27 1;
#X connect 29 0 30 0;
#X connect 30 0 31 0;
#X connect 31 0 33 0;
#X connect 31 1 28 0;
#X connect 32 0 29 0;
#X connect 33 1 41 0;
#X connect 34 0 35 1;
#X connect 35 0 24 0;
#X connect 36 0 35 0;
#X connect 37 0 39 0;
#X connect 37 1 40 0;
#X connect 38 0 36 0;
#X connect 39 0 28 0;
#X connect 39 1 29 1;
#X connect 40 1 38 1;
#X connect 41 0 42 0;
#X connect 41 1 34 0;
#X connect 42 0 38 0;
#X restore 766 554 pd timed-messages;
#X obj 409 499 route status connection server disconnect session loop-length
at l2ork-custom, f 77;
#X obj 810 528 s l2ork-custom;
#X connect 0 0 1 0;
#X connect 1 0 30 1;
#X connect 2 0 3 0;
#X connect 3 0 4 0;
#X connect 4 0 11 0;
#X connect 5 0 0 0;
#X connect 6 0 45 0;
#X connect 6 1 25 0;
#X connect 6 1 40 0;
#X connect 6 1 30 0;
#X connect 7 0 11 1;
#X connect 9 0 8 0;
#X connect 9 1 121 1;
#X connect 9 1 126 0;
#X connect 11 0 5 0;
#X connect 12 0 0 0;
#X connect 13 0 12 1;
#X connect 18 0 12 0;
#X connect 19 0 20 0;
#X connect 20 0 126 0;
#X connect 21 0 48 0;
#X connect 22 0 91 0;
#X connect 24 0 31 0;
#X connect 25 1 94 0;
#X connect 26 0 63 1;
#X connect 27 0 116 0;
#X connect 28 0 29 0;
#X connect 29 0 2 0;
#X connect 30 0 6 0;
#X connect 33 0 36 0;
#X connect 36 0 35 0;
#X connect 36 1 34 0;
#X connect 38 0 0 0;
#X connect 39 0 83 0;
#X connect 41 0 73 0;
#X connect 43 0 22 0;
#X connect 43 1 76 0;
#X connect 43 2 44 0;
#X connect 45 0 9 0;
#X connect 45 1 94 0;
#X connect 45 2 42 0;
#X connect 45 3 129 0;
#X connect 45 4 121 0;
#X connect 47 0 2 0;
#X connect 48 0 47 0;
#X connect 49 0 77 0;
#X connect 49 1 50 0;
#X connect 50 0 53 0;
#X connect 50 1 52 0;
#X connect 51 0 54 0;
#X connect 52 0 51 1;
#X connect 52 0 80 1;
#X connect 53 0 51 1;
#X connect 53 0 80 1;
#X connect 54 0 46 0;
#X connect 56 0 59 1;
#X connect 57 0 78 0;
#X connect 57 1 49 0;
#X connect 57 2 58 0;
#X connect 58 0 59 0;
#X connect 58 1 60 1;
#X connect 59 0 61 0;
#X connect 60 0 62 0;
#X connect 61 0 60 0;
#X connect 62 0 111 0;
#X connect 63 0 64 0;
#X connect 64 0 66 0;
#X connect 64 1 43 0;
#X connect 64 2 63 0;
#X connect 65 0 63 0;
#X connect 66 0 65 0;
#X connect 68 0 46 0;
#X connect 69 0 75 0;
#X connect 71 0 70 0;
#X connect 72 0 70 0;
#X connect 73 0 74 0;
#X connect 74 0 24 0;
#X connect 75 0 71 0;
#X connect 75 1 72 0;
#X connect 76 0 87 0;
#X connect 77 0 80 0;
#X connect 77 1 51 0;
#X connect 78 1 55 0;
#X connect 80 0 81 0;
#X connect 81 0 46 0;
#X connect 82 0 86 0;
#X connect 83 0 82 1;
#X connect 84 0 6 0;
#X connect 85 1 89 1;
#X connect 86 0 89 0;
#X connect 86 1 85 0;
#X connect 87 0 82 0;
#X connect 87 1 88 0;
#X connect 88 0 85 0;
#X connect 89 0 84 0;
#X connect 90 0 6 0;
#X connect 91 0 90 0;
#X connect 92 0 91 1;
#X connect 94 0 32 0;
#X connect 94 1 74 0;
#X connect 94 2 33 0;
#X connect 95 0 97 0;
#X connect 95 1 96 0;
#X connect 96 0 99 0;
#X connect 96 1 100 0;
#X connect 97 0 98 0;
#X connect 98 0 101 0;
#X connect 99 0 98 1;
#X connect 100 0 98 1;
#X connect 101 0 102 0;
#X connect 102 0 103 0;
#X connect 105 0 106 1;
#X connect 105 0 109 1;
#X connect 106 0 107 0;
#X connect 107 1 115 0;
#X connect 108 0 71 0;
#X connect 109 0 110 0;
#X connect 110 0 30 1;
#X connect 112 0 113 0;
#X connect 113 0 30 1;
#X connect 116 0 109 0;
#X connect 116 1 106 0;
#X connect 117 0 109 0;
#X connect 118 0 68 0;
#X connect 118 1 119 0;
#X connect 119 0 120 0;
#X connect 120 0 46 0;
#X connect 121 1 124 0;
#X connect 124 0 15 0;
#X connect 124 1 15 0;
#X connect 125 0 126 0;
#X connect 126 0 10 0;
#X connect 129 0 55 0;
#X connect 129 1 57 0;
#X connect 129 2 118 0;
#X connect 129 3 93 0;
#X connect 129 4 114 0;
#X connect 129 5 127 0;
#X connect 129 6 128 0;
#X connect 129 7 130 0;
#X connect 129 8 46 0;
#X restore 221 23 pd network-io;
#N canvas 353 215 1163 639 preset-logic 0;
#X obj 100 376 r \$0-store-preset;
#X obj 249 376 r myclientnum;
#X obj 67 552 pack 0 0;
#X msg 67 582 \; \$2-store-preset \$1;
#X obj 334 552 pack 0 0;
#X obj 67 531 gate 1 0;
#X obj 334 531 gate 1 0;
#X obj 516 376 r network-status;
#X obj 516 398 sel 1;
#X obj 516 420 delay 1000;
#N canvas 958 350 694 475 first-time-override-set-main-out 0;
#X obj 75 54 r override-myid;
#X obj 176 54 r myclientnum;
#X obj 346 54 text define override;
#X obj 289 54 loadbang;
#X obj 289 77 t b 999 b;
#X msg 442 192 -1;
#X obj 329 147 + 1;
#X obj 329 215 text set override;
#X obj 442 215 text delete override;
#X obj 75 148 f;
#X floatatom 75 211 5 0 0 0 - - - 0 0 1, f 5;
#X obj 75 169 t f f;
#X msg 75 385 \; \$1-main-out-override bang \;;
#X obj 329 192 pack 0 0;
#X obj 374 172 tgl 15 0 empty empty empty 17 7 0 10 #fcfcfc #000000
#000000 0 1 1;
#X text 393 171 DEBUG;
#X obj 176 96 - 1;
#X obj 75 190 text get override 1;
#X obj 75 235 sel 0;
#X obj 75 362 f;
#X obj 167 362 text set override;
#X obj 75 260 t b b;
#X obj 176 117 t f f;
#X obj 167 293 pack 0 0 0;
#X obj 176 75 t f f f;
#X msg 200 341 \$3;
#X obj 167 318 t l l;
#X msg 167 341 \$2 1;
#X text 381 118 corresponds with the max number of clients;
#X obj 289 118 kalashnikov 12;
#X connect 0 0 9 0;
#X connect 1 0 24 0;
#X connect 3 0 4 0;
#X connect 4 0 29 0;
#X connect 4 1 7 1;
#X connect 4 2 5 0;
#X connect 5 0 8 0;
#X connect 6 0 13 0;
#X connect 9 0 11 0;
#X connect 10 0 18 0;
#X connect 11 0 17 0;
#X connect 13 0 7 0;
#X connect 14 0 13 1;
#X connect 16 0 22 0;
#X connect 17 0 10 0;
#X connect 18 0 21 0;
#X connect 19 0 12 0;
#X connect 21 0 19 0;
#X connect 21 1 23 0;
#X connect 22 0 9 1;
#X connect 22 1 23 2;
#X connect 23 0 26 0;
#X connect 24 0 16 0;
#X connect 24 1 19 1;
#X connect 24 2 23 1;
#X connect 25 0 20 1;
#X connect 26 0 27 0;
#X connect 26 1 25 0;
#X connect 27 0 20 0;
#X connect 29 1 6 0;
#X restore 630 376 pd first-time-override-set-main-out;
#X msg 334 582 \; \$2-recall-preset \$1;
#X obj 85 398 r \$0-store-preset-apply;
#X obj 85 423 f;
#X obj 352 423 f;
#X obj 367 376 r \$0-recall-preset;
#X obj 352 398 r \$0-recall-preset-apply;
#X obj 66 225 coll;
#C restore;
#X obj 66 165 gate 1 0;
#X obj 111 142 key;
#X floatatom 66 250 5 0 0 0 - - - 0 0 1, f 5;
#X obj 134 165 loadbang;
#X obj 85 49 keyname;
#X obj 124 71 sel Shift;
#X msg 124 93 1;
#X msg 175 93 0;
#X obj 40 142 &&, f 10;
#X obj 40 120 gate 1 0;
#X obj 66 274 t b f;
#X text 227 301 goes to the gui and calls stuff below from there,
f 25;
#X obj 93 297 s \$0-store-preset-r;
#X obj 66 319 s \$0-store-preset-apply-r;
#X msg 134 188 clear \, 65 1 \, 83 2 \, 68 3 \, 70 4 \, 71 5 \, 72
6 \, 74 7 \, 75 8 \, 76 9 \, 58 10, f 36;
#X obj 506 225 coll;
#C restore;
#X obj 506 165 gate 1 0;
#X obj 551 142 key;
#X floatatom 506 250 5 0 0 0 - - - 0 0 1, f 5;
#X obj 574 165 loadbang;
#X obj 525 49 keyname;
#X obj 564 71 sel Shift;
#X msg 564 93 1;
#X msg 615 93 0;
#X obj 480 142 &&, f 10;
#X obj 480 120 gate 1 0;
#X obj 506 274 t b f;
#X text 673 301 goes to the gui and calls stuff below from there,
f 25;
#X obj 533 297 s \$0-recall-preset-r;
#X obj 506 319 s \$0-recall-preset-apply-r;
#X msg 574 188 clear \, 90 1 \, 88 2 \, 67 3 \, 86 4 \, 66 5 \, 78
6 \, 77 7 \, 60 8 \, 62 9 \, 63 10, f 36;
#X obj 40 27 r global-toggle-keyboard;
#X obj 40 72 gate 1 0;
#X obj 480 27 r global-toggle-keyboard;
#X obj 480 72 gate 1 0;
#X obj 67 510 >= 1;
#X obj 334 510 >= 1;
#X obj 249 398 t f f f f f;
#X obj 516 447 f;
#X msg 555 494 \; \$1-main-out-override bang \;;
#X obj 516 472 moses 1;
#X obj 85 448 sel 0;
#X obj 352 448 sel 0;
#X msg 85 473 1;
#X msg 352 473 1;
#X obj 938 49 keyname;
#X msg 977 93 1;
#X obj 893 27 r global-toggle-keyboard;
#X obj 893 72 gate 1 0;
#X obj 977 71 sel ShiftUp ShiftDown;
#X msg 1038 93 -1;
#X obj 893 120 *;
#X msg 1100 93 0;
#X obj 935 165 r \$0-recall-preset;
#X obj 920 186 +;
#X obj 920 211 t b f;
#X obj 947 232 s \$0-recall-preset-r;
#X obj 920 254 s \$0-recall-preset-apply-r;
#X obj 893 142 sel 0;
#X connect 0 0 13 1;
#X connect 1 0 55 0;
#X connect 2 0 3 0;
#X connect 4 0 11 0;
#X connect 5 0 2 0;
#X connect 6 0 4 0;
#X connect 7 0 8 0;
#X connect 8 0 9 0;
#X connect 9 0 56 0;
#X connect 12 0 13 0;
#X connect 13 0 59 0;
#X connect 14 0 60 0;
#X connect 15 0 14 1;
#X connect 16 0 14 0;
#X connect 17 0 20 0;
#X connect 18 0 17 0;
#X connect 19 0 18 1;
#X connect 20 0 28 0;
#X connect 21 0 32 0;
#X connect 22 0 50 1;
#X connect 22 1 23 0;
#X connect 23 0 24 0;
#X connect 23 1 25 0;
#X connect 24 0 27 0;
#X connect 24 0 26 1;
#X connect 25 0 27 0;
#X connect 25 0 26 1;
#X connect 26 0 18 0;
#X connect 27 0 26 0;
#X connect 28 0 31 0;
#X connect 28 1 30 0;
#X connect 32 0 17 0;
#X connect 33 0 36 0;
#X connect 34 0 33 0;
#X connect 35 0 34 1;
#X connect 36 0 44 0;
#X connect 37 0 48 0;
#X connect 38 0 52 1;
#X connect 38 1 39 0;
#X connect 39 0 40 0;
#X connect 39 1 41 0;
#X connect 40 0 43 0;
#X connect 40 0 42 1;
#X connect 41 0 43 0;
#X connect 41 0 42 1;
#X connect 42 0 34 0;
#X connect 43 0 42 0;
#X connect 44 0 47 0;
#X connect 44 1 46 0;
#X connect 48 0 33 0;
#X connect 49 0 50 0;
#X connect 50 0 27 1;
#X connect 51 0 52 0;
#X connect 52 0 43 1;
#X connect 53 0 5 0;
#X connect 54 0 6 0;
#X connect 55 0 53 0;
#X connect 55 1 2 1;
#X connect 55 2 54 0;
#X connect 55 3 4 1;
#X connect 55 4 56 1;
#X connect 56 0 58 0;
#X connect 58 1 57 0;
#X connect 59 0 61 0;
#X connect 59 1 5 1;
#X connect 60 0 62 0;
#X connect 60 1 6 1;
#X connect 61 0 5 1;
#X connect 62 0 6 1;
#X connect 63 0 66 1;
#X connect 63 1 67 0;
#X connect 64 0 69 1;
#X connect 65 0 66 0;
#X connect 66 0 69 0;
#X connect 67 0 64 0;
#X connect 67 1 68 0;
#X connect 67 2 70 0;
#X connect 68 0 69 1;
#X connect 69 0 76 0;
#X connect 70 0 69 1;
#X connect 71 0 72 1;
#X connect 72 0 73 0;
#X connect 73 0 75 0;
#X connect 73 1 74 0;
#X connect 76 1 72 0;
#X restore 113 23 pd preset-logic;
#N canvas 383 23 711 905 override 0;
#X msg 625 113 0;
#X obj 136 44 keyname;
#X obj 175 293 r nclients;
#X obj 91 176 gate 1 0;
#X floatatom 46 538 5 0 0 0 - - - 0 0 1, f 5;
#X obj 104 675 s myclientnum;
#X obj 91 268 f;
#X obj 91 198 sel 1;
#X obj 75 719 s override-myid;
#X obj 91 293 t f b, f 12;
#X obj 160 315 f;
#X obj 160 336 > 0;
#X obj 160 357 sel 1;
#X obj 160 378 t b 2;
#X obj 46 423 gate 2 1;
#X obj 91 446 t b f 1;
#X obj 91 500 f;
#X msg 235 718 \; \$1-manual-toggle-keyboard 0;
#X obj 235 696 + 1;
#X obj 175 113 t 1 1;
#X obj 211 113 t 2 1;
#X obj 247 113 t 3 1;
#X obj 283 113 t 4 1;
#X obj 319 113 t 5 1;
#X obj 355 113 t 6 1;
#X obj 391 113 t 7 1;
#X obj 427 113 t 8 1;
#X obj 463 113 t 9 1;
#X obj 499 113 t 10 1;
#X text 288 675 max users (not including guests);
#X msg 244 631 \; \$1-override-solo 0;
#X obj 226 568 r myclientnum;
#X obj 211 589 f;
#X obj 211 610 sel -1;
#X obj 89 697 s override-disconnect;
#X obj 160 423 s override-disconnect;
#X obj 60 761 s override-access-all-buttons;
#X obj 61 789 r myclientnum;
#X obj 46 561 t b b b b f b b;
#X obj 46 810 f;
#X msg 46 832 \; \$1-manual-toggle-keyboard 1;
#X obj 91 474 delay 101;
#X text 155 474 When connected \, this is delayed by 101 since the
myid is delayed by 100 inside the L2OrkTweet abstraction;
#X obj 195 675 kalashnikov 12;
#X obj 175 65 sel ShiftF1 ShiftF2 ShiftF3 ShiftF4 ShiftF5 ShiftF6 ShiftF7
ShiftF8 ShiftF9 ShiftF10 ShiftF11 ShiftF12;
#X obj 541 113 t 11 1;
#X obj 583 113 t 12 1;
#X obj 145 267 print;
#X connect 0 0 3 0;
#X connect 1 0 3 1;
#X connect 1 1 44 0;
#X connect 2 0 10 1;
#X connect 3 0 7 0;
#X connect 4 0 38 0;
#X connect 6 0 9 0;
#X connect 7 0 6 0;
#X connect 9 0 14 1;
#X connect 9 1 10 0;
#X connect 10 0 11 0;
#X connect 11 0 12 0;
#X connect 12 0 13 0;
#X connect 13 0 35 0;
#X connect 13 1 14 0;
#X connect 14 0 4 0;
#X connect 14 1 15 0;
#X connect 15 0 41 0;
#X connect 15 1 16 1;
#X connect 15 2 14 0;
#X connect 16 0 4 0;
#X connect 18 0 17 0;
#X connect 19 0 6 1;
#X connect 19 1 3 0;
#X connect 20 0 6 1;
#X connect 20 1 3 0;
#X connect 21 0 6 1;
#X connect 21 1 3 0;
#X connect 22 0 6 1;
#X connect 22 1 3 0;
#X connect 23 0 6 1;
#X connect 23 1 3 0;
#X connect 24 0 6 1;
#X connect 24 1 3 0;
#X connect 25 0 6 1;
#X connect 25 1 3 0;
#X connect 26 0 6 1;
#X connect 26 1 3 0;
#X connect 27 0 6 1;
#X connect 27 1 3 0;
#X connect 28 0 6 1;
#X connect 28 1 3 0;
#X connect 31 0 32 1;
#X connect 32 0 33 0;
#X connect 33 1 30 0;
#X connect 37 0 39 1;
#X connect 38 0 39 0;
#X connect 38 1 36 0;
#X connect 38 2 8 0;
#X connect 38 3 34 0;
#X connect 38 4 5 0;
#X connect 38 5 43 0;
#X connect 38 6 32 0;
#X connect 39 0 40 0;
#X connect 41 0 16 0;
#X connect 43 1 18 0;
#X connect 44 0 19 0;
#X connect 44 1 20 0;
#X connect 44 2 21 0;
#X connect 44 3 22 0;
#X connect 44 4 23 0;
#X connect 44 5 24 0;
#X connect 44 6 25 0;
#X connect 44 7 26 0;
#X connect 44 8 27 0;
#X connect 44 9 28 0;
#X connect 44 10 45 0;
#X connect 44 11 46 0;
#X connect 44 12 0 0;
#X connect 45 0 6 1;
#X connect 45 1 3 0;
#X connect 46 0 6 1;
#X connect 46 1 3 0;
#X restore 317 23 pd override;
#N canvas 615 291 659 502 chat-logic 0;
#X obj 40 27 loadbang;
#X obj 40 193 s \$0-chat-r;
#X obj 40 97 tosymbol;
#X obj 40 119 list prepend set;
#X obj 40 141 list trim;
#X obj 282 171 r \$0-chat-s;
#X obj 398 432 list prepend chat;
#X obj 405 27 r myclientnum;
#X obj 398 459 s chat-out;
#X obj 405 49 sel -1;
#X obj 450 148 r myid;
#X obj 405 221 sprintf GUEST(%d):;
#X obj 398 359 list prepend null;
#X obj 405 169 gate 1 0;
#X obj 405 194 t f 0;
#X obj 587 94 r myid;
#X obj 587 119 t b f;
#X obj 497 148 f;
#X obj 237 228 s2l;
#X obj 237 249 route bang;
#X obj 294 270 t 1;
#X obj 237 270 t 0;
#X obj 237 302 gate 1 0;
#X msg 40 49 Click here to chat while online. Press return to send.
Chat will appear in the console., f 32;
#X obj 405 98 pipe 0;
#X obj 405 74 t 0 1;
#X text 257 98 ugly workaround for the loadbang myclientnum -1 vallue
stored in the pd network-io, f 24;
#X obj 96 302 r local-report-request;
#X obj 192 459 s local-report-response;
#X obj 497 170 sprintf USER-%d(%d):;
#X obj 485 119 t f f;
#X obj 192 432 list prepend session-title;
#X obj 282 194 t s s s;
#X obj 192 348 symbol;
#X connect 0 0 23 0;
#X connect 2 0 3 0;
#X connect 3 0 4 0;
#X connect 4 0 1 0;
#X connect 5 0 32 0;
#X connect 6 0 8 0;
#X connect 7 0 9 0;
#X connect 9 0 25 0;
#X connect 9 1 30 0;
#X connect 10 0 13 1;
#X connect 11 0 12 1;
#X connect 12 0 6 0;
#X connect 13 0 14 0;
#X connect 14 0 11 0;
#X connect 14 1 13 0;
#X connect 15 0 16 0;
#X connect 16 0 17 0;
#X connect 16 1 29 1;
#X connect 17 0 29 0;
#X connect 18 0 19 0;
#X connect 19 0 21 0;
#X connect 19 1 20 0;
#X connect 20 0 22 0;
#X connect 21 0 22 0;
#X connect 22 0 12 0;
#X connect 23 0 2 0;
#X connect 24 0 13 0;
#X connect 25 0 24 0;
#X connect 25 1 13 0;
#X connect 27 0 33 0;
#X connect 29 0 12 1;
#X connect 30 1 17 1;
#X connect 31 0 28 0;
#X connect 32 0 22 1;
#X connect 32 1 18 0;
#X connect 32 2 33 1;
#X connect 33 0 31 0;
#X restore 401 23 pd chat-logic;
#X obj 17 52 loadbang;
#X msg 17 77 \; pd dsp 1;
#N canvas 511 22 884 959 load-save-session 0;
#X obj 27 205 route report;
#X obj 96 523 coll;
#C restore;
#X obj 305 294 patch_name 1;
#X obj 375 294 s \$0-redraw-gui;
#X msg 603 59 clear;
#X obj 96 352 list prepend;
#X obj 96 269 t l b;
#X obj 123 291 counter;
#X obj 27 184 gate 1 0;
#X msg 305 361 dump;
#X obj 305 34 r load-session;
#X obj 27 145 t b 0;
#X obj 51 458 r network-status;
#X obj 51 523 + 1;
#X obj 51 549 gate 2 1;
#X obj 162 851 s network-in;
#X obj 618 302 patch_name 1;
#X obj 618 191 gate 1 0;
#X obj 305 265 t b b s;
#X obj 305 221 symbol;
#X obj 675 191 r session-name-s;
#X obj 305 316 pack s s;
#X obj 618 324 pack s s;
#X obj 618 256 symbol, f 10;
#X obj 618 279 t b s;
#X obj 525 399 loadbang;
#X obj 573 443 s session-name-r;
#X text 573 465 set up the default session name;
#X obj 558 81 s local-report-request;
#X obj 72 34 r local-report-response;
#X obj 306 573 r myclientnum;
#X obj 306 596 t f f;
#X obj 249 619 route null;
#X obj 249 641 list prepend null;
#X obj 172 804 list trim;
#X msg 573 421 symbol jamminlicious-002;
#X obj 543 14 r save-session;
#X text 157 458 only allow loading of session for all clients when
we are not connected to a server. Otherwise apply the session only
to the current client., f 52;
#X obj 565 565 + 1;
#X text 618 544 max users (not including guests);
#X obj 607 587 r myclientnum;
#X obj 592 609 ==;
#X obj 565 587 t f f;
#X obj 520 635 gate 1 0;
#X obj 305 338 t b b l;
#X text 536 495 open gate for the local tracker-time to be immediately
broadcast via internet (if connected) upon loading a session, f 42
;
#X msg 520 657 \; \$1-send-local-tracker-time-report 1 \;;
#X msg 618 361 write \$1/sessions/\$2-session-coll.txt;
#X msg 344 361 clear \, read \$1/sessions/\$2-session-coll.txt;
#X obj 51 702 route session-title;
#X obj 244 778 list prepend;
#X obj 313 663 r myclientnum;
#X obj 51 795 moses 1;
#X msg 51 816 1;
#X msg 90 816 2;
#X obj 51 842 gate 2 1;
#X obj 51 877 list prepend loaded session titled:;
#X obj 51 899 list trim;
#X obj 51 921 print TWEETER;
#X obj 249 663 list trim;
#X obj 172 826 s chat-out;
#X msg 313 688 server user \$1 loaded session titled:, f 15;
#N canvas 857 329 434 317 open||browse 0;
#X obj 139 101 list length;
#X obj 139 79 s2l;
#X obj 112 32 inlet;
#X obj 67 247 outlet;
#X obj 112 57 t s s;
#X obj 139 126 > 0;
#X obj 67 196 gate 1 0;
#X obj 139 151 t f f;
#X obj 166 173 sel 0;
#X obj 166 219 openpanel;
#X obj 166 247 outlet;
#X obj 215 123 patch_name 1;
#X obj 215 101 loadbang;
#X obj 215 145 sprintf %s/sessions/;
#X obj 215 173 tosymbol;
#X obj 166 196 symbol;
#X connect 0 0 5 0;
#X connect 1 0 0 0;
#X connect 2 0 4 0;
#X connect 4 0 6 1;
#X connect 4 1 1 0;
#X connect 5 0 7 0;
#X connect 6 0 3 0;
#X connect 7 0 6 0;
#X connect 7 1 8 0;
#X connect 8 0 15 0;
#X connect 9 0 10 0;
#X connect 11 0 13 0;
#X connect 12 0 11 0;
#X connect 13 0 14 0;
#X connect 14 0 15 1;
#X connect 15 0 9 0;
#X restore 305 243 pd open||browse;
#X msg 411 326 clear \, read \$1;
#X obj 392 265 t b s b;
#X msg 525 421 symbol;
#X obj 525 544 kalashnikov 12;
#X obj 543 36 t b b 1 0 b 1;
#X obj 482 279 s local-save-complete;
#X obj 618 226 t b b 0;
#X obj 207 343 sel 1896;
#X obj 305 59 t b b;
#X obj 207 368 delay 250;
#X obj 123 314 t f f;
#X text 206 395 REMINDER: update the 1896 value in case more variables
are added later. this allows for deterministic session saving., f
36;
#X obj 482 258 delay 1000;
#X obj 96 596 route session-title symbol;
#X msg 235 688 server user \$1 loaded nameless session, f 11;
#X obj 221 754 list prepend;
#X obj 172 619 t b;
#X connect 0 1 6 0;
#X connect 1 0 14 1;
#X connect 2 0 21 0;
#X connect 4 0 1 0;
#X connect 5 0 1 0;
#X connect 6 0 5 0;
#X connect 6 1 7 0;
#X connect 7 0 73 0;
#X connect 8 0 0 0;
#X connect 9 0 1 0;
#X connect 10 0 71 0;
#X connect 11 0 17 1;
#X connect 11 1 8 0;
#X connect 12 0 13 0;
#X connect 13 0 14 0;
#X connect 14 0 49 0;
#X connect 14 1 76 0;
#X connect 16 0 22 0;
#X connect 17 0 69 0;
#X connect 18 0 3 0;
#X connect 18 1 2 0;
#X connect 18 2 21 1;
#X connect 19 0 62 0;
#X connect 20 0 19 1;
#X connect 20 0 23 1;
#X connect 21 0 44 0;
#X connect 22 0 47 0;
#X connect 23 0 24 0;
#X connect 24 0 16 0;
#X connect 24 1 22 1;
#X connect 25 0 65 0;
#X connect 29 0 8 1;
#X connect 30 0 31 0;
#X connect 31 0 32 1;
#X connect 31 1 33 1;
#X connect 32 0 33 0;
#X connect 33 0 59 0;
#X connect 34 0 60 0;
#X connect 35 0 26 0;
#X connect 36 0 67 0;
#X connect 38 0 42 0;
#X connect 40 0 41 1;
#X connect 41 0 43 0;
#X connect 42 0 43 1;
#X connect 42 1 41 0;
#X connect 43 0 46 0;
#X connect 44 0 9 0;
#X connect 44 1 66 0;
#X connect 44 2 48 0;
#X connect 47 0 1 0;
#X connect 48 0 1 0;
#X connect 49 0 55 1;
#X connect 49 1 15 0;
#X connect 50 0 34 0;
#X connect 51 0 61 0;
#X connect 51 0 77 0;
#X connect 52 0 53 0;
#X connect 52 1 54 0;
#X connect 53 0 55 0;
#X connect 54 0 55 0;
#X connect 55 0 56 0;
#X connect 56 0 57 0;
#X connect 57 0 58 0;
#X connect 59 0 15 0;
#X connect 61 0 50 1;
#X connect 62 0 18 0;
#X connect 62 1 64 0;
#X connect 63 0 1 0;
#X connect 64 0 9 0;
#X connect 64 1 63 0;
#X connect 64 2 3 0;
#X connect 65 0 26 0;
#X connect 66 1 38 0;
#X connect 67 1 28 0;
#X connect 67 2 8 0;
#X connect 67 3 7 2;
#X connect 67 4 4 0;
#X connect 67 5 17 0;
#X connect 69 0 75 0;
#X connect 69 1 23 0;
#X connect 69 2 17 0;
#X connect 70 0 72 0;
#X connect 71 0 19 0;
#X connect 71 1 11 0;
#X connect 72 0 11 0;
#X connect 73 0 5 1;
#X connect 73 1 70 0;
#X connect 75 0 68 0;
#X connect 76 0 50 0;
#X connect 76 1 79 0;
#X connect 76 2 32 0;
#X connect 77 0 78 1;
#X connect 78 0 34 0;
#X connect 79 0 78 0;
#X restore 359 52 pd load-save-session;
#N canvas 245 529 450 324 version 0;
#X obj 177 51 loadbang;
#X obj 177 101 t f f;
#X obj 204 125 s version;
#X obj 177 269 s title-version-r;
#X text 215 76 update version here;
#X floatatom 138 76 5 0 0 0 - - - 0 0 1, f 5;
#X msg 177 245 label \$1;
#X text 99 75 DEBUG;
#X obj 177 168 sprintf L2Ork Tweeter v.%.02f by;
#X obj 177 193 tosymbol;
#X msg 177 76 0.71;
#X connect 0 0 10 0;
#X connect 1 0 8 0;
#X connect 1 1 2 0;
#X connect 5 0 1 0;
#X connect 6 0 3 0;
#X connect 8 0 9 0;
#X connect 9 0 6 0;
#X connect 10 0 1 0;
#X restore 283 52 pd version;
#N canvas 876 192 894 714 local-copy-logic 0;
#X obj 22 22 r local-copyfrom-mode;
#X obj 210 22 r local-copyfrom-data;
#X obj 210 125 route 0;
#X obj 210 47 list trim;
#X obj 235 453 list prepend;
#X obj 304 429 r myclientnum;
#X obj 235 476 s network-in;
#X floatatom 22 47 5 0 0 0 - - - 0 0 1, f 5;
#X obj 118 381 route preset;
#X obj 199 381 route preset-all;
#X obj 304 381 route loop;
#X obj 373 381 route loop-all;
#X obj 118 359 gate 1 0;
#X obj 199 359 gate 1 0;
#X obj 304 359 gate 1 0;
#X obj 373 359 gate 1 0;
#X obj 156 220 t 1 0 0 0;
#X obj 217 220 t 0 0 1 0;
#X obj 278 220 t 1 0 1 0;
#X obj 339 220 t 1 1 0 0;
#X obj 473 220 t 1 1 1 1 b;
#X obj 503 289 f;
#X obj 503 333 s client-out;
#X text 277 47 we first do list trim since trimming is not taken care
of inside the net-io abstractions \, as this is a more efficient way
of doing the same. then \, we check for data that is prepended with
0 such data does not have copyfrom context set and therefore we ignore
it. see net-io abstractions and look for the \$5 argument for more
info., f 48;
#X obj 503 418 r network-in;
#X text 503 356 client number requesting copy will be added in network-io
subpatch. below \, we handle incoming messages which will be arriving
only for clients other than our own., f 46;
#X obj 647 566 route client2client;
#X obj 647 588 route time-sync;
#X obj 590 500 zl slice 1;
#X obj 647 610 pack f f, f 22;
#X msg 503 311 client2client time-sync \$1;
#X obj 400 220 t 0 0 1 1 b;
#X msg 647 637 \; \$1-copyfrom-tracker-position \$2;
#X msg 776 566 \$1;
#X obj 518 267 r local-copyfrom-client-num;
#X text 49 545 Copyfrom modes: 1 - single click - loop-all only (sync)2
- double click - loop3 - triple click - loop+loop-all4 - quadruple
click - everything5 - shift + single click - preset6 - shift + double
click - preset-all only7 - shift + triple click - preset+preset-all8
- shift + quadruple click - everything, f 49;
#X obj 22 145 select 1 2 3 4 5 6 7 8;
#X obj 95 220 t 0 1 0 0;
#X obj 22 220 t 0 0 0 1 b;
#X obj 503 443 route malformed symbol session-title;
#X obj 776 500 list length;
#X obj 776 544 gate 1 0;
#X obj 776 522 > 1;
#X obj 716 465 t a a a;
#X obj 776 588 route float;
#X connect 0 0 7 0;
#X connect 1 0 3 0;
#X connect 2 1 15 1;
#X connect 2 1 14 1;
#X connect 2 1 13 1;
#X connect 2 1 12 1;
#X connect 3 0 2 0;
#X connect 4 0 6 0;
#X connect 5 0 4 1;
#X connect 7 0 36 0;
#X connect 8 0 4 0;
#X connect 9 0 4 0;
#X connect 10 0 4 0;
#X connect 11 0 4 0;
#X connect 12 0 8 0;
#X connect 13 0 9 0;
#X connect 14 0 10 0;
#X connect 15 0 11 0;
#X connect 16 0 12 0;
#X connect 16 1 13 0;
#X connect 16 2 14 0;
#X connect 16 3 15 0;
#X connect 17 0 12 0;
#X connect 17 1 13 0;
#X connect 17 2 14 0;
#X connect 17 3 15 0;
#X connect 18 0 12 0;
#X connect 18 1 13 0;
#X connect 18 2 14 0;
#X connect 18 3 15 0;
#X connect 19 0 12 0;
#X connect 19 1 13 0;
#X connect 19 2 14 0;
#X connect 19 3 15 0;
#X connect 20 0 12 0;
#X connect 20 1 13 0;
#X connect 20 2 14 0;
#X connect 20 3 15 0;
#X connect 20 4 21 0;
#X connect 21 0 30 0;
#X connect 24 0 39 0;
#X connect 26 0 27 0;
#X connect 27 0 29 0;
#X connect 28 1 26 0;
#X connect 29 0 32 0;
#X connect 30 0 22 0;
#X connect 31 0 12 0;
#X connect 31 1 13 0;
#X connect 31 2 14 0;
#X connect 31 3 15 0;
#X connect 31 4 21 0;
#X connect 33 0 44 0;
#X connect 34 0 21 1;
#X connect 36 0 38 0;
#X connect 36 1 17 0;
#X connect 36 2 31 0;
#X connect 36 3 20 0;
#X connect 36 4 16 0;
#X connect 36 5 37 0;
#X connect 36 6 19 0;
#X connect 36 7 20 0;
#X connect 37 0 12 0;
#X connect 37 1 13 0;
#X connect 37 2 14 0;
#X connect 37 3 15 0;
#X connect 38 0 12 0;
#X connect 38 1 13 0;
#X connect 38 2 14 0;
#X connect 38 3 15 0;
#X connect 38 4 21 0;
#X connect 39 3 43 0;
#X connect 40 0 42 0;
#X connect 41 0 33 0;
#X connect 42 0 41 0;
#X connect 43 0 28 0;
#X connect 43 1 41 1;
#X connect 43 2 40 0;
#X connect 44 0 29 1;
#X restore 153 52 pd local-copy-logic;
#N canvas 727 338 450 252 init 0;
#X obj 24 84 tosymbol;
#X obj 24 147 s \$0-hostname-r;
#X msg 24 63 pd-l2ork.music.vt.edu:9002;
#X obj 211 27 loadbang;
#X obj 211 206 s \$0-chat-r;
#X obj 211 110 tosymbol;
#X obj 211 132 list prepend set;
#X obj 211 154 list trim;
#X msg 211 62 Click here to chat while online. Press return to send.
Chat will appear in the console., f 32;
#X connect 0 0 1 0;
#X connect 2 0 0 0;
#X connect 3 0 8 0;
#X connect 3 0 2 0;
#X connect 5 0 6 0;
#X connect 6 0 7 0;
#X connect 7 0 4 0;
#X connect 8 0 5 0;
#X restore 437 81 pd init;
#N canvas 771 453 357 223 guest-stuff 0;
#X obj 92 56 r 0-remote-user-gui-update;
#X text 92 84 dummy receive to intercept guest data request and prevent
unnecessary error being printed into the console, f 27;
#X restore 336 81 pd guest-stuff;
#N canvas 808 498 356 216 editable 0;
#X msg 85 65 \; pd-L2Ork-Tweeter.pd editable 0;
#X msg 85 105 \; pd-L2Ork-Tweeter.pd editable 1;
#X restore 253 81 pd editable;
#X connect 5 0 6 0;
#X restore 1586 3 pd core;
#X obj 1089 3 hsl 229 17 1 101 1 1 main-out-multiplier main-out-multiplier-r
LOCAL\ MAIN\ OUT -90 6 0 10 #80fc80 #008000 #ffffff 22800 1 0 1;
#X obj 751 3 pddp/pddplink https://l2ork.music.vt.edu/main/make-your-own-l2ork/tweeter/
-text website;
#X obj 526 3 cnv 15 19 16 empty empty For\ latest\ updates\ visit\ the\ project
4 6 0 10 #6c6c6c #fcfcfc 0;
#X text 1091 3 MIN;
#X text 1300 3 MAX;
#X symbolatom 1478 42 21 0 0 0 - session-name-r session-name-s 1 0
1, f 21;
#X editable 0;
