#N canvas 116 127 477 213 12;
#X obj 11 9 l2orkmote/l2orkmote;
#N canvas 167 545 345 89 guts 0;
#N canvas 635 351 612 634 states 0;
#X obj 22 24 r l2orkmote-left-arm-pitch-forward;
#X obj 22 49 > 0.75;
#X obj 22 74 change;
#X obj 22 99 + 1;
#X obj 22 583 s l2orkmote-left-hand-mode;
#X obj 279 583 s l2orkmote-right-hand-mode;
#X obj 359 118 r l2orkmote-left-button-3;
#X obj 412 147 r l2orkmote-left-button-4;
#X obj 285 59 r l2orkmote-left-button-1;
#X obj 306 90 r l2orkmote-left-button-2;
#X obj 306 119 * 2;
#X obj 359 147 * 3;
#X obj 412 176 * 4;
#X obj 306 148 t b f;
#X obj 286 239 expr \\$f1+$f2+$f3+$f4, f 23;
#X obj 359 176 t b f;
#X obj 412 205 t b f;
#X obj 286 267 moses 0;
#X floatatom 240 239 5 0 0 0 - - - 0 0 1, f 5;
#X obj 332 295 moses 5;
#X msg 286 333 0;
#X obj 332 360 change;
#X floatatom 332 389 5 0 0 0 - - - 0 0 1, f 5;
#X obj 279 473 gate 2 1;
#X obj 332 416 + 2;
#X obj 332 445 f;
#X obj 22 124 t f b f;
#X msg 279 502 1;
#X obj 279 534 change;
#X connect 0 0 1 0;
#X connect 1 0 2 0;
#X connect 2 0 3 0;
#X connect 3 0 26 0;
#X connect 6 0 11 0;
#X connect 7 0 12 0;
#X connect 8 0 14 0;
#X connect 9 0 10 0;
#X connect 10 0 13 0;
#X connect 11 0 15 0;
#X connect 12 0 16 0;
#X connect 13 0 14 0;
#X connect 13 1 14 1;
#X connect 14 0 17 0;
#X connect 15 0 14 0;
#X connect 15 1 14 2;
#X connect 16 0 14 0;
#X connect 16 1 14 3;
#X connect 17 0 20 0;
#X connect 17 1 19 0;
#X connect 18 0 17 0;
#X connect 19 0 21 0;
#X connect 19 1 20 0;
#X connect 20 0 21 0;
#X connect 21 0 22 0;
#X connect 22 0 24 0;
#X connect 23 0 27 0;
#X connect 23 1 28 0;
#X connect 24 0 25 0;
#X connect 25 0 23 1;
#X connect 26 0 4 0;
#X connect 26 1 25 0;
#X connect 26 2 23 0;
#X connect 27 0 28 0;
#X connect 28 0 5 0;
#X restore 29 27 pd states;
#N canvas 97 734 505 256 forwards 0;
#N canvas 465 320 925 535 lh-buttons 0;
#X obj 481 29 r l2orkmote-left-button-3;
#X obj 670 29 r l2orkmote-left-button-4;
#X obj 103 29 r l2orkmote-left-button-1;
#X obj 292 29 r l2orkmote-left-button-2;
#X obj 384 64 r l2orkmote-left-hand-mode;
#X obj 50 120 gate 2 1;
#X obj 50 179 s l2orkmote-left-button-1-mode-1;
#X obj 239 220 gate 2 1;
#X obj 239 279 s l2orkmote-left-button-2-mode-1;
#X obj 428 320 gate 2 1;
#X obj 617 422 gate 2 1;
#X obj 103 149 s l2orkmote-left-button-1-mode-2;
#X obj 292 249 s l2orkmote-left-button-2-mode-2;
#X obj 481 349 s l2orkmote-left-button-3-mode-2;
#X obj 428 379 s l2orkmote-left-button-3-mode-1;
#X obj 670 451 s l2orkmote-left-button-4-mode-2;
#X obj 617 481 s l2orkmote-left-button-4-mode-1;
#X text 24 419 due to the way wiimotes are designed buttons 1 and 2
are coupled and buttons 3 and 4 are coupled. this means whenever user
presses button 1 \, button 2 will also output value even if it is the
same. button 2 will output always before 1 and button 4 will always
output before 3;
#X connect 0 0 9 1;
#X connect 1 0 10 1;
#X connect 2 0 5 1;
#X connect 3 0 7 1;
#X connect 4 0 5 0;
#X connect 4 0 7 0;
#X connect 4 0 9 0;
#X connect 4 0 10 0;
#X connect 5 0 6 0;
#X connect 5 1 11 0;
#X connect 7 0 8 0;
#X connect 7 1 12 0;
#X connect 9 0 14 0;
#X connect 9 1 13 0;
#X connect 10 0 16 0;
#X connect 10 1 15 0;
#X restore 21 17 pd lh-buttons;
#N canvas 802 432 951 502 rh-buttons 0;
#X obj 103 29 r l2orkmote-right-button-1;
#X obj 292 29 r l2orkmote-right-button-2;
#X obj 481 29 r l2orkmote-right-button-3;
#X obj 670 29 r l2orkmote-right-button-4;
#X obj 384 64 r l2orkmote-right-hand-mode;
#X obj 47 246 s l2orkmote-right-button-1-mode-2;
#X obj 33 271 s l2orkmote-right-button-1-mode-1;
#X obj 33 120 gate 6 1;
#X obj 61 221 s l2orkmote-right-button-1-mode-3;
#X obj 75 196 s l2orkmote-right-button-1-mode-4;
#X obj 89 171 s l2orkmote-right-button-1-mode-5;
#X obj 103 146 s l2orkmote-right-button-1-mode-6;
#X obj 222 300 gate 6 1;
#X obj 292 326 s l2orkmote-right-button-2-mode-6;
#X obj 278 351 s l2orkmote-right-button-2-mode-5;
#X obj 264 376 s l2orkmote-right-button-2-mode-4;
#X obj 250 401 s l2orkmote-right-button-2-mode-3;
#X obj 236 426 s l2orkmote-right-button-2-mode-2;
#X obj 222 451 s l2orkmote-right-button-2-mode-1;
#X obj 411 120 gate 6 1;
#X obj 481 146 s l2orkmote-right-button-3-mode-6;
#X obj 467 171 s l2orkmote-right-button-3-mode-5;
#X obj 453 196 s l2orkmote-right-button-3-mode-4;
#X obj 439 221 s l2orkmote-right-button-3-mode-3;
#X obj 425 246 s l2orkmote-right-button-3-mode-2;
#X obj 411 271 s l2orkmote-right-button-3-mode-1;
#X obj 600 300 gate 6 1;
#X obj 670 326 s l2orkmote-right-button-4-mode-6;
#X obj 656 351 s l2orkmote-right-button-4-mode-5;
#X obj 642 376 s l2orkmote-right-button-4-mode-4;
#X obj 628 401 s l2orkmote-right-button-4-mode-3;
#X obj 614 426 s l2orkmote-right-button-4-mode-2;
#X obj 600 451 s l2orkmote-right-button-4-mode-1;
#X connect 0 0 7 1;
#X connect 1 0 12 1;
#X connect 2 0 19 1;
#X connect 3 0 26 1;
#X connect 4 0 7 0;
#X connect 4 0 12 0;
#X connect 4 0 19 0;
#X connect 4 0 26 0;
#X connect 7 0 6 0;
#X connect 7 1 5 0;
#X connect 7 2 8 0;
#X connect 7 3 9 0;
#X connect 7 4 10 0;
#X connect 7 5 11 0;
#X connect 12 0 18 0;
#X connect 12 1 17 0;
#X connect 12 2 16 0;
#X connect 12 3 15 0;
#X connect 12 4 14 0;
#X connect 12 5 13 0;
#X connect 19 0 25 0;
#X connect 19 1 24 0;
#X connect 19 2 23 0;
#X connect 19 3 22 0;
#X connect 19 4 21 0;
#X connect 19 5 20 0;
#X connect 26 0 32 0;
#X connect 26 1 31 0;
#X connect 26 2 30 0;
#X connect 26 3 29 0;
#X connect 26 4 28 0;
#X connect 26 5 27 0;
#X restore 181 17 pd rh-buttons;
#N canvas 771 501 555 300 lh-roll 0;
#X obj 214 108 r l2orkmote-left-hand-mode;
#X obj 132 150 gate 2 1;
#X obj 185 59 r l2orkmote-left-hand-roll;
#X obj 132 209 s l2orkmote-left-hand-roll-mode-1;
#X obj 185 179 s l2orkmote-left-hand-roll-mode-2;
#X connect 0 0 1 0;
#X connect 1 0 3 0;
#X connect 1 1 4 0;
#X connect 2 0 1 1;
#X restore 21 47 pd lh-roll;
#N canvas 771 561 555 300 lh-hand-pitch 0;
#X obj 214 108 r l2orkmote-left-hand-mode;
#X obj 132 150 gate 2 1;
#X obj 104 59 r l2orkmote-left-hand-pitch-forward;
#X obj 185 179 s l2orkmote-left-hand-pitch-forward-mode-2;
#X obj 132 209 s l2orkmote-left-hand-pitch-forward-mode-1;
#X obj 104 108 moses -0.849;
#X connect 0 0 1 0;
#X connect 1 0 4 0;
#X connect 1 1 3 0;
#X connect 2 0 5 0;
#X connect 5 1 1 1;
#X restore 21 77 pd lh-hand-pitch;
#N canvas 243 77 912 940 lh-joystick 0;
#X obj 39 134 sel -1;
#X obj 92 69 r l2orkmote-left-joystick-angle-clockwise-analog;
#X obj 78 451 expr int($f1/36)+1;
#X obj 384 599 gate 1 0;
#X obj 384 515 t f f;
#X obj 389 869 f;
#X obj 416 542 sel 0;
#X obj 654 599 gate 1 0;
#X obj 654 515 t f f, f 15;
#X obj 659 816 f;
#X obj 756 542 sel 0;
#X obj 389 896 s recall-loop-r;
#X obj 78 420 +;
#X obj 78 164 t f b f f;
#X obj 138 275 sel 0;
#X obj 138 197 expr if(int($f2)<=359 && int($f2)>300 && int($f1)>=0
&& int($f1)<60 \, 360 \, 0) \; if (int($f2)>=0 && int($f2)<60 && int($f1)<=359
&& int($f1)>300 \, -360 \, 0);
#X msg 23 352 set \$1;
#X obj 98 345 expr if($f1<=-360 \, -360 \, \\$f1);
#X obj 98 374 expr if($f1>=36000 \, 36000 \, \\$f1);
#X obj 78 480 nbx 5 14 1 999 0 0 empty empty empty 0 -8 0 10 #fcfcfc
#000000 #000000 7 256 0 0 1 0;
#X obj 98 318 accum;
#X obj 39 101 gate 2 1;
#X obj 39 35 r l2orkmote-left-hand-mode;
#X obj 384 456 r l2orkmote-left-button-3-mode-1;
#X obj 654 456 r l2orkmote-left-button-4-mode-1;
#X obj 78 566 r l2orkmote-left-joystick-centered;
#X obj 150 810 + 1;
#X obj 150 839 gate 2 1;
#X obj 430 716 s recall-loop-preview;
#X obj 203 896 s l2orkmote-clear;
#X obj 384 485 change;
#X obj 654 485 change;
#X obj 659 846 s recall-preset-r;
#X obj 700 746 s recall-preset-preview;
#X obj 440 657 r l2orkmote-left-button-2-mode-1;
#X obj 294 780 gate 1 0;
#X obj 601 716 gate 1 0;
#X obj 440 686 t f f;
#X obj 294 810 t b;
#X obj 384 628 t f f f;
#X obj 347 699 change;
#X obj 654 628 t f f f;
#X obj 78 510 t f f;
#X obj 601 745 change;
#X obj 601 776 t b;
#X obj 78 653 sel 1;
#X obj 78 682 t b -1;
#X msg 347 669 set \$1;
#X obj 78 595 change -1;
#X obj 78 624 t f f f, f 21;
#X obj 222 649 + 1;
#X obj 222 677 gate 2 1;
#X connect 0 1 13 0;
#X connect 1 0 21 1;
#X connect 2 0 19 0;
#X connect 3 0 39 0;
#X connect 4 0 3 0;
#X connect 4 1 6 0;
#X connect 5 0 11 0;
#X connect 6 0 27 1;
#X connect 7 0 41 0;
#X connect 8 0 7 0;
#X connect 8 1 10 0;
#X connect 9 0 32 0;
#X connect 10 0 9 0;
#X connect 12 0 2 0;
#X connect 13 0 12 0;
#X connect 13 1 20 0;
#X connect 13 2 15 1;
#X connect 13 3 15 0;
#X connect 14 1 20 1;
#X connect 15 0 14 0;
#X connect 15 1 14 0;
#X connect 16 0 20 0;
#X connect 17 0 18 0;
#X connect 18 0 16 0;
#X connect 18 0 12 1;
#X connect 19 0 42 0;
#X connect 20 0 17 0;
#X connect 21 0 0 0;
#X connect 22 0 21 0;
#X connect 23 0 30 0;
#X connect 24 0 31 0;
#X connect 25 0 48 0;
#X connect 26 0 27 0;
#X connect 27 0 5 0;
#X connect 27 1 29 0;
#X connect 30 0 4 0;
#X connect 31 0 8 0;
#X connect 34 0 37 0;
#X connect 35 0 38 0;
#X connect 36 0 43 0;
#X connect 37 0 35 0;
#X connect 37 1 36 0;
#X connect 38 0 27 1;
#X connect 39 0 40 0;
#X connect 39 1 5 1;
#X connect 39 2 28 0;
#X connect 40 0 35 1;
#X connect 41 0 36 1;
#X connect 41 1 9 1;
#X connect 41 2 33 0;
#X connect 42 0 51 1;
#X connect 42 1 7 1;
#X connect 43 0 44 0;
#X connect 44 0 9 0;
#X connect 45 0 46 0;
#X connect 46 0 35 1;
#X connect 46 1 47 0;
#X connect 47 0 40 0;
#X connect 48 0 49 0;
#X connect 49 0 45 0;
#X connect 49 1 26 0;
#X connect 49 2 50 0;
#X connect 50 0 51 0;
#X connect 51 0 3 1;
#X restore 21 137 pd lh-joystick;
#N canvas 216 80 1637 950 rh-joystick 0;
#X obj 79 625 expr int($f1/30);
#X obj 184 97 r l2orkmote-right-joystick-angle-clockwise-analog;
#X obj 79 538 +;
#X obj 99 436 accum;
#X obj 79 255 t f b f f;
#X obj 139 366 sel 0;
#X obj 40 155 sel -1;
#X obj 139 288 expr if(int($f2)<=359 && int($f2)>300 && int($f1)>=0
&& int($f1)<60 \, 360 \, 0) \; if (int($f2)>=0 && int($f2)<60 && int($f1)<=359
&& int($f1)>300 \, -360 \, 0);
#X msg 24 470 set \$1;
#X obj 99 492 expr if($f1>=6840 \, 6840 \, \\$f1);
#X obj 99 463 expr if($f1<=-6120 \, -6120 \, \\$f1);
#X msg 79 867 label \$1;
#X obj 79 738 expr ($f1+192)%12;
#X obj 1185 896 s l2orkmote-pitch-number;
#X obj 94 563 loadbang;
#X msg 94 592 0;
#X obj 40 128 gate 6 1, f 21;
#X obj 40 69 r l2orkmote-right-hand-mode;
#X msg 1091 659 160;
#X obj 1091 681 sprintf %c;
#X obj 1091 703 tosymbol;
#X obj 1052 870 symbol;
#X obj 1185 870 f;
#X obj 1240 774 t b b;
#X obj 1370 459 r l2orkmote-right-button-1-mode-1;
#X obj 1052 896 s l2orkmote-pitch;
#X obj 79 797 t a a;
#X obj 79 896 s l2orkmote-pitch-display;
#X obj 1090 636 loadbang;
#X obj 1052 813 symbol;
#X obj 1052 774 t b 0;
#X obj 1120 208 gate 6 1, f 21;
#X obj 1120 89 r l2orkmote-right-hand-mode;
#X obj 1264 127 r l2orkmote-right-joystick-horizontal;
#X text 105 19 currently joystick is only used in modes 1 \, 3 \, and
4 \, of which 1 is using clockwise motion and l/r data \, while 3 and
4 use l/r data. see the main docs and states subpatch for more info.
, f 96;
#X obj 551 230 gate 1 0;
#X obj 79 204 expr 1-$f1;
#X obj 79 230 gate 1 1;
#X obj 551 528 +;
#X obj 571 426 accum;
#X obj 551 255 t f b f f;
#X obj 611 386 sel 0;
#X obj 611 288 expr if(int($f2)<=359 && int($f2)>300 && int($f1)>=0
&& int($f1)<60 \, 360 \, 0) \; if (int($f2)>=0 && int($f2)<60 && int($f1)<=359
&& int($f1)>300 \, -360 \, 0);
#X msg 496 460 set \$1;
#X obj 416 366 r l2orkmote-octave;
#X obj 644 220 s l2orkmote-get-octave;
#X obj 1317 405 r l2orkmote-right-button-4-mode-1;
#X obj 1317 432 expr 1-$f1;
#X obj 1317 486 gate 1 1;
#X obj 644 195 sel 1;
#X obj 528 160 t f f f;
#X obj 551 665 s l2orkmote-set-octave;
#X obj 826 413 r l2orkmote-right-button-4-mode-1;
#X obj 826 502 gate 1 0;
#X obj 936 502 gate 1 0;
#X obj 989 476 r l2orkmote-right-button-2-mode-1;
#X obj 879 442 r l2orkmote-right-button-1-mode-1;
#X msg 858 671 12;
#X obj 858 720 +;
#X obj 858 749 nbx 5 14 -192 192 0 0 empty empty empty 0 -8 0 10 #fcfcfc
#000000 #000000 192 256 0 0 1 0;
#X obj 416 395 t f f;
#X msg 968 671 -12;
#X obj 551 615 t f f;
#X obj 858 775 s l2orkmote-set-octave;
#X obj 1264 156 expr \\$f1/200+0.5;
#X obj 1264 185 nbx 5 14 0 1 0 0 empty empty empty 0 -8 0 10 #fcfcfc
#000000 #000000 0.52 256 0 0 1 0;
#X obj 1177 269 s l2orkmote-flanger-mod-amp;
#X obj 1240 375 r l2orkmote-right-joystick-centered;
#X obj 1240 659 + 1;
#X obj 1240 686 gate 2 2;
#X obj 266 896 s l2orkmote-pitch-number-display;
#X obj 79 704 t f f f;
#X obj 1177 239 * 100;
#X obj 1317 514 moses 1;
#X obj 1415 650 metro 50;
#X obj 1383 551 t b 1;
#X obj 1415 621 pipe 300;
#X obj 79 768 coll core/num2notes.txt;
#C restore;
#X msg 210 738 write core/num2notes.txt;
#X obj 1293 551 t b 0 b;
#X msg 1429 589 clear;
#X obj 826 561 sel 1;
#X obj 936 561 sel 1;
#X obj 528 131 r l2orkmote-right-button-4-mode-1;
#X obj 826 442 t f f;
#X obj 1235 300 s l2orkmote-dry-amp;
#X text 643 424 was -6120 -6120;
#X text 643 511 was 6840 6840;
#X obj 551 556 expr \\$f1/180;
#X obj 571 482 expr if($f1>=41040 \, 41040 \, \\$f1);
#X obj 571 453 expr if($f1<=-36720 \, -36720 \, \\$f1);
#X obj 416 425 * 180;
#X text 404 492 2 half-steps per revolution, f 14;
#X obj 936 590 t b b;
#X obj 826 590 t b b;
#X obj 826 632 s l2orkmote-get-octave;
#X connect 0 0 71 0;
#X connect 1 0 16 1;
#X connect 2 0 0 0;
#X connect 3 0 10 0;
#X connect 4 0 2 0;
#X connect 4 1 3 0;
#X connect 4 2 7 1;
#X connect 4 3 7 0;
#X connect 5 1 3 1;
#X connect 6 1 37 1;
#X connect 6 1 35 1;
#X connect 7 0 5 0;
#X connect 7 1 5 0;
#X connect 8 0 3 0;
#X connect 9 0 8 0;
#X connect 9 0 2 1;
#X connect 10 0 9 0;
#X connect 11 0 27 0;
#X connect 12 0 77 0;
#X connect 14 0 15 0;
#X connect 15 0 0 0;
#X connect 16 0 6 0;
#X connect 17 0 16 0;
#X connect 18 0 19 0;
#X connect 19 0 20 0;
#X connect 20 0 29 1;
#X connect 21 0 25 0;
#X connect 22 0 13 0;
#X connect 23 0 21 0;
#X connect 23 1 22 0;
#X connect 24 0 48 1;
#X connect 26 0 11 0;
#X connect 26 1 21 1;
#X connect 28 0 18 0;
#X connect 29 0 21 0;
#X connect 30 0 29 0;
#X connect 30 1 22 0;
#X connect 31 2 72 0;
#X connect 31 4 85 0;
#X connect 32 0 31 0;
#X connect 33 0 64 0;
#X connect 35 0 40 0;
#X connect 36 0 37 0;
#X connect 37 0 4 0;
#X connect 38 0 88 0;
#X connect 39 0 90 0;
#X connect 40 0 38 0;
#X connect 40 1 39 0;
#X connect 40 2 42 1;
#X connect 40 3 42 0;
#X connect 41 1 39 1;
#X connect 42 0 41 0;
#X connect 42 1 41 0;
#X connect 43 0 39 0;
#X connect 44 0 60 0;
#X connect 46 0 47 0;
#X connect 47 0 48 0;
#X connect 48 0 73 0;
#X connect 49 0 45 0;
#X connect 50 0 36 0;
#X connect 50 1 35 0;
#X connect 50 2 49 0;
#X connect 52 0 84 0;
#X connect 53 0 81 0;
#X connect 54 0 82 0;
#X connect 55 0 54 1;
#X connect 56 0 53 1;
#X connect 57 0 58 0;
#X connect 58 0 59 0;
#X connect 59 0 58 1;
#X connect 59 0 63 0;
#X connect 60 0 91 0;
#X connect 60 1 58 1;
#X connect 61 0 58 0;
#X connect 62 0 51 0;
#X connect 62 1 58 1;
#X connect 64 0 65 0;
#X connect 65 0 31 1;
#X connect 67 0 68 0;
#X connect 68 0 69 0;
#X connect 69 0 23 0;
#X connect 69 1 30 0;
#X connect 71 0 12 0;
#X connect 71 1 70 0;
#X connect 71 2 22 1;
#X connect 72 0 66 0;
#X connect 73 0 79 0;
#X connect 73 1 75 0;
#X connect 74 0 69 1;
#X connect 75 0 69 1;
#X connect 75 1 76 0;
#X connect 76 0 74 0;
#X connect 77 0 26 0;
#X connect 78 0 77 0;
#X connect 79 1 74 0;
#X connect 79 2 80 0;
#X connect 80 0 76 0;
#X connect 81 0 94 0;
#X connect 82 0 93 0;
#X connect 83 0 50 0;
#X connect 84 0 53 0;
#X connect 84 1 54 0;
#X connect 88 0 62 0;
#X connect 89 0 43 0;
#X connect 89 0 38 1;
#X connect 90 0 89 0;
#X connect 91 0 43 0;
#X connect 93 0 95 0;
#X connect 93 1 61 0;
#X connect 94 0 95 0;
#X connect 94 1 57 0;
#X restore 181 137 pd rh-joystick;
#N canvas 826 300 935 630 rh-roll 0;
#X obj 132 54 r l2orkmote-right-hand-roll;
#X obj 144 103 r l2orkmote-right-hand-mode;
#X obj 62 145 gate 6 1;
#X obj 62 573 s l2orkmote-right-hand-roll-mode-1;
#X obj 76 544 s l2orkmote-right-hand-roll-mode-2;
#X obj 90 515 s l2orkmote-right-hand-roll-mode-3;
#X obj 104 406 s l2orkmote-right-hand-roll-mode-4;
#X obj 118 297 s l2orkmote-right-hand-roll-mode-5;
#X obj 522 266 nbx 5 14 0 1.5708 0 0 empty empty empty 0 -8 0 10 #fcfcfc
#000000 #000000 0.911344 256 0 0 1 0;
#X obj 522 318 s l2orkmote-pan;
#X obj 132 269 s l2orkmote-right-hand-roll-mode-6;
#X obj 522 237 expr (-$f1/3+0.5)*1.5708;
#X obj 579 196 gate 1 0;
#X obj 632 168 r l2orkmote-right-hand-roll-mode-1;
#X obj 579 127 r l2orkmote-right-button-3-mode-1;
#X obj 522 98 r l2orkmote-right-hand-roll-mode-5;
#X obj 132 216 nbx 5 14 0 1 0 0 empty empty empty 0 -8 0 10 #fcfcfc
#000000 #000000 0 256 0 0 1 0;
#X obj 132 239 change;
#X obj 522 289 change;
#X obj 132 187 expr (-$f1/3+0.5);
#X obj 90 464 nbx 5 14 0 1 0 0 empty empty empty 0 -8 0 10 #fcfcfc
#000000 #000000 0 256 0 0 1 0;
#X obj 90 487 change;
#X obj 90 435 expr (-$f1/3+0.5);
#X obj 104 357 nbx 5 14 0 1 0 0 empty empty empty 0 -8 0 10 #fcfcfc
#000000 #000000 0 256 0 0 1 0;
#X obj 104 380 change;
#X obj 104 328 expr (-$f1/3+0.5);
#X obj 523 407 nbx 5 14 -1 1 0 0 empty empty empty 0 -8 0 10 #fcfcfc
#000000 #000000 1 256 0 0 1 0;
#X obj 523 430 expr int((($f1*-1)+1)*31.5);
#X obj 523 378 r l2orkmote-right-hand-roll-mode-1;
#X obj 523 517 s l2orkmote-hover-location;
#X obj 523 488 int;
#X obj 523 459 average 10;
#X connect 0 0 2 1;
#X connect 1 0 2 0;
#X connect 2 0 3 0;
#X connect 2 1 4 0;
#X connect 2 2 22 0;
#X connect 2 3 25 0;
#X connect 2 4 7 0;
#X connect 2 5 19 0;
#X connect 8 0 18 0;
#X connect 11 0 8 0;
#X connect 12 0 11 0;
#X connect 13 0 12 1;
#X connect 14 0 12 0;
#X connect 15 0 11 0;
#X connect 16 0 17 0;
#X connect 17 0 10 0;
#X connect 18 0 9 0;
#X connect 19 0 16 0;
#X connect 20 0 21 0;
#X connect 21 0 5 0;
#X connect 22 0 20 0;
#X connect 23 0 24 0;
#X connect 24 0 6 0;
#X connect 25 0 23 0;
#X connect 26 0 27 0;
#X connect 27 0 31 0;
#X connect 28 0 26 0;
#X connect 30 0 29 0;
#X connect 31 0 30 0;
#X restore 181 47 pd rh-roll;
#N canvas 771 537 535 309 lr-rh-hand-pitch 0;
#X obj 16 21 r l2orkmote-left-arm-pitch-forward;
#X obj 16 46 > -0.85;
#X obj 270 46 > -0.85;
#X obj 141 98 &&;
#X obj 270 21 r l2orkmote-right-arm-pitch-forward;
#X obj 141 127 change;
#X obj 187 259 s l2orkmote-toggle-hover;
#X obj 219 229 s l2orkmote-toggle-keyboard;
#X obj 187 191 t f f;
#X obj 141 156 moses 1;
#X obj 141 191 t f f;
#X text 244 127 given both the keyboard and hover are dependent on
the same l2orkmote trigger \, and keyboard toggles the ability to toggle
hover mode \, here \, we need to watch the execution order., f 37
;
#X connect 0 0 1 0;
#X connect 1 0 3 0;
#X connect 2 0 3 1;
#X connect 3 0 5 0;
#X connect 4 0 2 0;
#X connect 5 0 9 0;
#X connect 8 0 6 0;
#X connect 8 1 7 0;
#X connect 9 0 10 0;
#X connect 9 1 8 0;
#X connect 10 0 7 0;
#X connect 10 1 6 0;
#X restore 88 207 pd lr-rh-hand-pitch;
#N canvas 871 548 323 407 rh-buttons-mode-2 0;
#X obj 40 232 s l2orkmote-toggle-loop;
#X obj 40 112 s l2orkmote-toggle-play;
#X obj 40 352 s l2orkmote-toggle-solo;
#X obj 40 53 sel 1;
#X obj 40 172 sel 1;
#X obj 40 292 sel 1;
#X obj 40 82 tgl 15 0 empty empty empty 17 7 0 10 #fcfcfc #000000 #000000
0 1 1;
#X obj 40 201 tgl 15 0 empty empty empty 17 7 0 10 #fcfcfc #000000
#000000 0 1 1;
#X obj 40 321 tgl 15 0 empty empty empty 17 7 0 10 #fcfcfc #000000
#000000 0 1 1;
#X obj 40 24 r l2orkmote-right-button-2-mode-2;
#X obj 40 143 r l2orkmote-right-button-3-mode-2;
#X obj 40 263 r l2orkmote-right-button-4-mode-2;
#X connect 3 0 6 0;
#X connect 4 0 7 0;
#X connect 5 0 8 0;
#X connect 6 0 1 0;
#X connect 7 0 0 0;
#X connect 8 0 2 0;
#X connect 9 0 3 0;
#X connect 10 0 4 0;
#X connect 11 0 5 0;
#X restore 327 47 pd rh-buttons-mode-2;
#N canvas 871 572 375 228 rh-buttons-mode-5 0;
#X obj 56 114 gate 1 0;
#X obj 56 172 s l2orkmote-dry-instrument-level;
#X obj 56 23 r l2orkmote-right-button-1-mode-5;
#X obj 109 88 r l2orkmote-dry-amp;
#X connect 0 0 1 0;
#X connect 2 0 0 0;
#X connect 3 0 0 1;
#X restore 327 77 pd rh-buttons-mode-5;
#N canvas 771 441 450 241 rh-jolt 0;
#X obj 182 71 r l2orkmote-right-arm-jolt;
#X obj 112 40 r l2orkmote-right-hand-mode;
#X obj 112 124 gate 6 1;
#X obj 126 174 s l2orkmote-reset;
#X connect 0 0 2 1;
#X connect 1 0 2 0;
#X connect 2 1 3 0;
#X restore 181 167 pd rh-jolt;
#N canvas 137 432 543 459 rh-hand-pitch 0;
#X obj 104 108 moses -0.849;
#X obj 104 59 r l2orkmote-right-hand-pitch-forward;
#X obj 214 108 r l2orkmote-right-hand-mode;
#X obj 132 150 gate 6 1;
#X obj 146 367 s l2orkmote-right-hand-pitch-forward-mode-2;
#X obj 160 337 s l2orkmote-right-hand-pitch-forward-mode-3;
#X obj 174 247 s l2orkmote-right-hand-pitch-forward-mode-4;
#X obj 160 281 nbx 5 14 -0.7 0.5 0 0 empty empty empty 0 -8 0 10 #fcfcfc
#000000 #000000 0 256 0 0 1 0;
#X obj 160 305 expr (pow(($f1+0.7)/1.2 \, 2)*100)+0.001;
#X obj 174 188 nbx 5 14 -0.7 0.5 0 0 empty empty empty 0 -8 0 10 #fcfcfc
#000000 #000000 0 256 0 0 1 0;
#X obj 174 212 expr (pow(($f1+0.7)/1.2 \, 4)*9999)+0.001;
#X connect 0 1 3 1;
#X connect 1 0 0 0;
#X connect 2 0 3 0;
#X connect 3 1 4 0;
#X connect 3 2 7 0;
#X connect 3 3 9 0;
#X connect 7 0 8 0;
#X connect 8 0 5 0;
#X connect 9 0 10 0;
#X connect 10 0 6 0;
#X restore 181 77 pd rh-hand-pitch;
#N canvas 823 320 543 430 rh-arm-pitch 0;
#X obj 94 108 moses -0.849;
#X obj 204 108 r l2orkmote-right-hand-mode;
#X obj 122 150 gate 6 1;
#X obj 94 59 r l2orkmote-right-arm-pitch-forward;
#X obj 164 247 s l2orkmote-right-arm-pitch-forward-mode-4;
#X obj 150 340 s l2orkmote-right-arm-pitch-forward-mode-3;
#X obj 150 286 nbx 5 14 -0.7 0.5 0 0 empty empty empty 0 -8 0 10 #fcfcfc
#000000 #000000 0 256 0 0 1 0;
#X obj 150 310 expr (pow(($f1+0.7)/1.2 \, 2)*50)+0.001;
#X obj 164 191 nbx 5 14 -0.7 0.5 0 0 empty empty empty 0 -8 0 10 #fcfcfc
#000000 #000000 0 256 0 0 1 0;
#X obj 164 215 expr (pow(($f1+0.7)/1.2 \, 0.5)*0.998)+0.001;
#X connect 0 1 2 1;
#X connect 1 0 2 0;
#X connect 2 2 6 0;
#X connect 2 3 8 0;
#X connect 3 0 0 0;
#X connect 6 0 7 0;
#X connect 7 0 5 0;
#X connect 8 0 9 0;
#X connect 9 0 4 0;
#X restore 181 107 pd rh-arm-pitch;
#N canvas 858 463 490 410 rh-buttons-mode-6 0;
#X obj 48 40 r l2orkmote-right-button-1-mode-6;
#X obj 153 98 r l2orkmote-right-button-3-mode-6;
#X obj 101 69 r l2orkmote-right-button-2-mode-6;
#X obj 205 127 r l2orkmote-right-button-4-mode-6;
#X obj 48 333 s l2orkmote-reverb-type;
#X obj 48 69 sel 1;
#X obj 101 98 sel 1;
#X obj 153 127 sel 1;
#X msg 48 98 0;
#X msg 101 127 1;
#X msg 153 157 2;
#X obj 205 156 sel 1;
#X msg 205 186 3;
#X obj 48 275 change;
#X floatatom 48 304 5 0 0 0 - - - 0 0 1, f 5;
#X connect 0 0 5 0;
#X connect 1 0 7 0;
#X connect 2 0 6 0;
#X connect 3 0 11 0;
#X connect 5 0 8 0;
#X connect 6 0 9 0;
#X connect 7 0 10 0;
#X connect 8 0 13 0;
#X connect 9 0 13 0;
#X connect 10 0 13 0;
#X connect 11 0 12 0;
#X connect 12 0 13 0;
#X connect 13 0 14 0;
#X connect 14 0 4 0;
#X restore 327 107 pd rh-buttons-mode-6;
#N canvas 331 271 583 391 rh-buttons-mode-1 0;
#X obj 106 45 r l2orkmote-right-button-2-mode-1;
#X obj 196 324 s l2orkmote-set-tracker-position;
#X obj 106 80 moses 1;
#X obj 228 224 metro 50;
#X obj 196 117 t b 1;
#X obj 228 195 pipe 300;
#X obj 196 265 f;
#X obj 297 224 r l2orkmote-hover-location;
#X msg 252 154 clear;
#X obj 106 117 t b 0 b;
#X obj 196 294 change -1;
#X connect 0 0 2 0;
#X connect 2 0 9 0;
#X connect 2 1 4 0;
#X connect 3 0 6 0;
#X connect 4 0 6 0;
#X connect 4 1 5 0;
#X connect 5 0 3 0;
#X connect 6 0 10 0;
#X connect 7 0 6 1;
#X connect 8 0 5 0;
#X connect 9 1 3 0;
#X connect 9 2 8 0;
#X connect 10 0 1 0;
#X restore 327 17 pd rh-buttons-mode-1;
#X restore 107 27 pd forwards;
#X restore 152 33 pd guts;
#X obj 11 62 cnv 15 123 110 empty l2orkmote-pitch-display c 29 42 0
96 #edb5b5 #404040 0;
#X obj 130 61 nbx 4 111 -192 228 0 0 empty l2orkmote-pitch-number-display
NOTE\ PITCH -116 7 0 10 #edb5b5 #000000 #000000 0 256 3 0 0 0;
#N canvas 595 69 789 989 tweeter-l2orkmote-documentation 0;
#X text 14 17 BOTH HANDS must be not facing downwards (in relaxed state)
in order for the input to work. this allows the user to type with one
hand if they need to do something on the laptop without making unwanted
sound., f 108;
#X text 14 391 #1 (mode 1) RIGHT (when the pitch is between -0.7 and
0.5 or roughly -60 to 45 degrees):button 1 = add a note (if joystick
is off-center) or delete a note (if joystick is centered) at hover
location OR transpose octave up (if button 4 also pressed & held before)button
2 = move tracker time bar location to where L2Orkmote is pointing OR
transpose octave down (if button 4 is pressed & held before)button
3 = roll panning*button 4 = transpose using joystick (clockwise and
counter-clockwise) or buttons 1 and 2 (see above)joystick = clockwise
and counter-clockwise note selection (button 1) or transposition (button
3)roll = note hover red cursor position#2 (mode 2) RIGHT (when the
LEFT HAND pitch is above 0.75 or above 67.5 degree angle \, facing
upwards):button 1 = toggles adjustment of the main output volumehand
pitch = main output volume (only enabled when the button 1 is pressed)button
2 = play loop on/offbutton 3 = loop on/offbutton 4 = solo on/offarm
jolt = restart#2.1 (mode 3) Left hand button 1 is pressed:roll =
flange levelhand pitch = flange oscillator speed (0.001-100Hz)arm
pitch = flange delay (0.001-50ms)joystick = flange mod amp (l/r \,
can be used in an arc \, as well \, for more precise positoning) (0-100)#2.2
(mode 4) Left hand button 2 is pressed:roll = echo levelhand pitch
= echo delay (0.001-9999ms \, may need to be made exponential for finer
tuning of the low end)arm pitch = echo feedback (0-0.999)#2.3 (mode
5) Left hand button 3 is pressed:button 1 = joystick dry instrument
out (l/r \, can be used in an arc \, as well \, for more precise positoning)roll
= panning*#2.4 (mode 6) Left hand button 4 is pressed:roll = reverb
levelbuttons 1-4 = reverb mode (1 = least reverberant \, 4 = most
reverberant), f 108;
#X text 14 68 #1 (mode 1) LEFT (when the pitch is between -0.7 and
0.5 or roughly -60 to 45 degrees):button 1 = toggle instrument level
on/offbutton 2 = enable instrument level adjustment (does not work
when buttons 3 or 4 are already pressed \, see below)button 3 = select
loop (combined with joystick \, activates when the button is released
\, OR if you hold button 1 it is continually making changes as you
move joystick \; releasing with joystick being set to middle clears
the loop)button 4 = select instrument (combine with joystick \, activates
when the button is released \, OR if you hold button 1 it is continually
making changes as you move joystick)joystick = clockwise and counter-clockwise
instrument and loop selection (used with buttons 3 and 4)hand pitch
= instrument overdrive level (only when enabled when the button 2 is
pressed)roll = modifies mod amp (+-100%)#2 (mode 2) LEFT (when the
pitch is above 0.75 or above 67.5 degree angle \, or typically facing
upwards):no buttons = main out adjustment and loop controls mode (see
right hand info below)button 1 = flangerbutton 2 = echobutton 3
= dry outbutton 4 = reverb, f 108;
#X restore 210 33 pd tweeter-l2orkmote-documentation;
#X text 284 177 (c) Ivica Ico Bukvic 2022;
#X text 153 10 Tweeter L2Orkmote Interface v.0.2.0;
