#N canvas 224 68 1370 951.969 10;
#X obj 0 0 cnv 15 1638 1127 empty empty empty 5 7 0 10 #ff444444 #fffcfcfc
0;
#X obj 4 2 cnv 15 1630 19 empty empty empty 200 5 0 10 #ff6c6c6c #fffcfcfc
0;
#X obj 5 4 cnv 15 13 13 null-s title-version-r L2Ork\ Tweeter\ v.0.90\ by
4 5 0 10 #ff6c6c6c #fffcfcfc 0;
#X obj 252 3 cnv 15 125 16 empty empty (c)\ 2020-present\ Released\ under\ the
4 6 0 10 #ff6c6c6c #fffcfcfc 0;
#X obj 4 24 cnv 15 280 41 empty empty empty 4 5 0 10 #ff6c6c6c #fffcfcfc
0;
#X obj 13 28 cnv 8 121 8 empty empty HOSTNAME:PORT -1 5 0 10 #ff6c6c6c
#fffcfcfc 0;
#X symbolatom 12 42 37 0 0 2 - #0-hostname-r #0-hostname-s 1 0 1,
f 37;
#X obj 399 24 cnv 15 490 41 empty empty empty 4 5 0 10 #ff6c6c6c #fffcfcfc
0;
#X obj 892 24 cnv 15 555 41 empty empty empty 4 5 0 10 #ff6c6c6c #fffcfcfc
0;
#X obj 898 28 cnv 8 70 8 empty empty CHAT -1 5 0 10 #ff6c6c6c #fffcfcfc
0;
#X symbolatom 898 42 90 0 0 0 - #0-chat-r #0-chat-s 1 0 1, f 90;
#X obj 1450 24 cnv 15 184 41 empty \$0-session-panel SESSION\ NAME
54 9 0 10 #ff6c6c6c #fffcfcfc 0;
#X obj 1459 42 bng 16 250 50 0 load-session load-session-r LOAD -4
-9 0 10 #ff80fc80 #ff008080 #fffcfcfc 1;
#X obj 1609 42 bng 16 250 50 0 save-session save-session-r SAVE -5
-9 0 10 #fffcb46c #fffc6418 #fffcfcfc 1;
#X obj 243 42 nbx 2 16 -1 14 0 1 \$0-slot-s null-r empty 1 -9 0 12
#fffcb46c #ff000000 #ff000000 0 256 0 1 1 0;
#X obj 247 28 cnv 8 10 8 empty empty SLOT -1 5 0 10 #ff6c6c6c #fffcfcfc
0;
#X obj 287 24 cnv 15 55 41 empty empty empty 4 5 0 10 #ff6c6c6c #fffcfcfc
0;
#X obj 306 42 bng 16 250 50 0 reconnect null-r CONNECT -13 -9 0 10
#fffc6418 #ff000000 #fffcfcfc 1;
#X obj 345 24 cnv 15 51 41 empty empty empty 4 5 0 10 #ff6c6c6c #fffcfcfc
0;
#X obj 356 42 cnv 15 30 16 null-s nclients-gui 0 3 6 0 12 #ff202020
#fffcfcfc 0;
#X obj 356 28 cnv 8 8 8 empty empty USERS -1 5 0 10 #ff6c6c6c #fffcfcfc
0;
#X obj 3 68 core/L2OrkTweet 1;
#X obj 579 30 nbx 4 15 1 9999 0 0 \$0-store-loop \$0-store-loop-r empty
-64 5 0 12 #fffcb46c #ff000000 #ff000000 1 256 0 1 1 0;
#X obj 579 45 nbx 4 15 1 9999 0 1 \$0-recall-loop \$0-recall-loop-r
empty -64 5 0 12 #ff80fc80 #ff000000 #ff000000 11 256 0 1 1 0;
#X obj 444 30 cnv 8 10 8 empty empty STORE\ LOOP\ (shift+1-0) -1 5
0 10 #ff6c6c6c #fffcfcfc 0;
#X obj 438 45 cnv 8 10 8 empty empty RECALL\ LOOP\ (shift+q-p) -1 5
0 10 #ff6c6c6c #fffcfcfc 0;
#X obj 633 30 bng 15 250 50 0 \$0-store-loop-apply \$0-store-loop-apply-r
empty -5 -9 0 10 #fffcb46c #fffc6418 #fffcfcfc 1;
#X obj 633 45 bng 15 250 50 0 \$0-recall-loop-apply \$0-recall-loop-apply-r
empty -5 -9 0 10 #ff80fc80 #ff008080 #fffcfcfc 1;
#X obj 813 30 nbx 4 15 1 9999 0 0 \$0-store-preset \$0-store-preset-r
empty -64 5 0 12 #fffcb46c #ff000000 #ff000000 1 256 0 1 1 0;
#X obj 813 45 nbx 4 15 1 9999 0 1 \$0-recall-preset \$0-recall-preset-r
empty -64 5 0 12 #ff80fc80 #ff000000 #ff000000 11 256 0 1 1 0;
#X obj 666 30 cnv 8 10 8 empty empty STORE\ PRESET\ (shift+a-:) -1
5 0 10 #ff6c6c6c #fffcfcfc 0;
#X obj 660 45 cnv 8 10 8 empty empty RECALL\ PRESET\ (shift+z-/) -1
5 0 10 #ff6c6c6c #fffcfcfc 0;
#X obj 867 30 bng 15 250 50 0 \$0-store-preset-apply \$0-store-preset-apply-r
empty -5 -9 0 10 #fffcb46c #fffc6418 #fffcfcfc 1;
#X obj 867 45 bng 15 250 50 0 \$0-recall-preset-apply \$0-recall-preset-apply-r
empty -5 -9 0 10 #ff80fc80 #ff008080 #fffcfcfc 1;
#X obj 3 219 core/L2OrkTweet 2;
#X obj 3 370 core/L2OrkTweet 3;
#X obj 3 521 core/L2OrkTweet 4;
#X obj 3 672 core/L2OrkTweet 5;
#X obj 3 823 core/L2OrkTweet 6;
#X obj 3 974 core/L2OrkTweet 7;
#X obj 820 68 core/L2OrkTweet 8;
#X obj 820 219 core/L2OrkTweet 9;
#X obj 820 370 core/L2OrkTweet 10;
#X obj 152 3 pddp/pddplink http://ico.bukvic.net -text Ivica Ico Bukvic
;
#X obj 472 3 pddp/pddplink https://www.gnu.org/licenses/gpl-3.0.en.html
-text GPL v3 License;
#X obj 820 521 core/L2OrkTweet 11;
#X obj 820 672 core/L2OrkTweet 12;
#N canvas 560 448 510 131 core 0;
#N canvas 80 24 898 923 loop-logic 0;
#X obj 127 219 coll;
#C restore;
#X obj 127 159 gate 1 0;
#X obj 172 136 key;
#X floatatom 127 244 5 0 0 0 - - - 0 0 1, f 5;
#X obj 195 159 loadbang;
#X obj 146 43 keyname;
#X obj 185 65 sel Shift;
#X msg 185 87 1;
#X msg 236 87 0;
#X obj 101 136 &&, f 10;
#X obj 101 114 gate 1 0;
#X msg 195 182 clear \, 33 1 \, 64 2 \, 35 3 \, 36 4 \, 37 5 \, 94
6 \, 38 7 \, 42 8 \, 40 9 \, 41 10, f 36;
#X obj 127 268 t b f;
#X obj 154 291 s \$0-store-loop-r;
#X obj 127 313 s \$0-store-loop-apply-r;
#X text 278 295 goes to the gui and calls stuff below from there,
f 25;
#X obj 505 219 coll;
#C restore;
#X obj 505 159 gate 1 0;
#X obj 550 136 key;
#X floatatom 505 244 5 0 0 0 - - - 0 0 1, f 5;
#X obj 573 159 loadbang;
#X obj 524 43 keyname;
#X obj 563 65 sel Shift;
#X msg 563 87 1;
#X msg 614 87 0;
#X obj 479 136 &&, f 10;
#X obj 479 114 gate 1 0;
#X obj 505 268 t b f;
#X text 663 295 goes to the gui and calls stuff below from there,
f 25;
#X obj 532 291 s \$0-recall-loop-r;
#X obj 505 313 s \$0-recall-loop-apply-r;
#X msg 573 182 clear \, 81 1 \, 87 2 \, 69 3 \, 82 4 \, 84 5 \, 89
6 \, 85 7 \, 73 8 \, 79 9 \, 80 10, f 36;
#X obj 101 20 r global-toggle-keyboard;
#X obj 101 77 gate 1 0;
#X obj 479 20 r global-toggle-keyboard;
#X obj 479 77 gate 1 0;
#X obj 120 817 pack 0 0;
#X obj 120 786 gate 1 0;
#X obj 188 688 f;
#X obj 120 765 >= 1;
#X obj 188 713 sel 0;
#X msg 165 742 1;
#X msg 101 505 \$1;
#X obj 146 456 list;
#X obj 101 373 r glob-multi-lp;
#X obj 101 396 + 1;
#X obj 101 479 gate 2 1;
#X obj 146 505 zl iter 1;
#X obj 545 423 r myclientnum;
#X obj 498 817 pack 0 0;
#X obj 498 786 gate 1 0;
#X obj 566 688 f;
#X obj 498 765 >= 1;
#X obj 566 713 sel 0;
#X msg 543 742 1;
#X obj 524 456 list;
#X obj 479 642 t b f f;
#X obj 524 505 zl iter 1;
#X obj 524 530 t f f;
#X obj 551 554 - 1;
#X obj 551 578 text get ck;
#X obj 494 613 gate 1 0;
#X obj 146 530 t f f;
#X obj 173 554 - 1;
#X obj 173 578 text get ck;
#X obj 116 613 gate 1 0;
#X obj 146 396 r \$0-store-loop-apply;
#X obj 205 665 r \$0-store-loop;
#X msg 120 847 \; \$2-write-coll \$1;
#X obj 101 642 t b f f;
#X obj 524 396 r \$0-recall-loop-apply;
#X obj 583 665 r \$0-recall-loop;
#X msg 499 847 \; \$2-read-coll \$1;
#X text 352 487 recalling should go to all parts that have keyboard
currently enabled regardless if multi is enabled \, while storing should
only apply to a non-single part in the non-multi mode, f 26;
#X connect 0 0 3 0;
#X connect 1 0 0 0;
#X connect 2 0 1 1;
#X connect 3 0 12 0;
#X connect 4 0 11 0;
#X connect 5 0 33 1;
#X connect 5 1 6 0;
#X connect 6 0 7 0;
#X connect 6 1 8 0;
#X connect 7 0 10 0;
#X connect 7 0 9 1;
#X connect 8 0 10 0;
#X connect 8 0 9 1;
#X connect 9 0 1 0;
#X connect 10 0 9 0;
#X connect 11 0 0 0;
#X connect 12 0 14 0;
#X connect 12 1 13 0;
#X connect 16 0 19 0;
#X connect 17 0 16 0;
#X connect 18 0 17 1;
#X connect 19 0 27 0;
#X connect 20 0 31 0;
#X connect 21 0 35 1;
#X connect 21 1 22 0;
#X connect 22 0 23 0;
#X connect 22 1 24 0;
#X connect 23 0 26 0;
#X connect 23 0 25 1;
#X connect 24 0 26 0;
#X connect 24 0 25 1;
#X connect 25 0 17 0;
#X connect 26 0 25 0;
#X connect 27 0 30 0;
#X connect 27 1 29 0;
#X connect 31 0 16 0;
#X connect 32 0 33 0;
#X connect 33 0 10 1;
#X connect 34 0 35 0;
#X connect 35 0 26 1;
#X connect 36 0 68 0;
#X connect 37 0 36 0;
#X connect 38 0 40 0;
#X connect 39 0 37 0;
#X connect 40 0 41 0;
#X connect 40 1 37 1;
#X connect 41 0 37 1;
#X connect 42 0 69 0;
#X connect 43 0 46 1;
#X connect 44 0 45 0;
#X connect 45 0 46 0;
#X connect 46 0 42 0;
#X connect 46 1 47 0;
#X connect 47 0 62 0;
#X connect 48 0 55 1;
#X connect 48 0 43 1;
#X connect 49 0 72 0;
#X connect 50 0 49 0;
#X connect 51 0 53 0;
#X connect 52 0 50 0;
#X connect 53 0 54 0;
#X connect 53 1 50 1;
#X connect 54 0 50 1;
#X connect 55 0 57 0;
#X connect 56 0 51 0;
#X connect 56 1 52 0;
#X connect 56 2 49 1;
#X connect 57 0 58 0;
#X connect 58 0 61 1;
#X connect 58 1 59 0;
#X connect 59 0 60 0;
#X connect 60 0 61 0;
#X connect 61 0 56 0;
#X connect 62 0 65 1;
#X connect 62 1 63 0;
#X connect 63 0 64 0;
#X connect 64 0 65 0;
#X connect 65 0 69 0;
#X connect 66 0 43 0;
#X connect 67 0 38 1;
#X connect 69 0 38 0;
#X connect 69 1 39 0;
#X connect 69 2 36 1;
#X connect 70 0 55 0;
#X connect 71 0 51 1;
#X restore 17 23 pd loop-logic;
#N canvas 293 94 1238 964 network-io 0;
#X obj 272 279 list prepend send;
#X obj 272 301 list trim;
#X obj 20 137 tgl 15 0 empty empty empty 17 7 0 10 #fffcfcfc #ff000000
#ff000000 0 1 1;
#X obj 20 156 metro 1000;
#X msg 20 177 ping;
#X obj 20 219 list trim;
#X obj 83 177 r myid;
#X obj 272 460 s myid;
#X obj 259 736 s myclientnum;
#X obj 20 198 list append;
#X text 20 41 machine that goes ping!;
#X obj 1041 528 s network-in;
#X text 271 212 this adds client num (according to the server), f
25;
#X text 84 277 this prepends the send command;
#X obj 180 655 loadbang;
#X msg 180 677 -1;
#X obj 20 61 r myid;
#X text 712 12 initiates connection;
#X obj 313 866 tosymbol;
#X obj 323 680 sel 1;
#X obj 842 12 r reconnect;
#X obj 539 157 r disconnect;
#X obj 83 82 r disconnect;
#X msg 83 103 0;
#X obj 227 335 gate 1 0;
#X msg 313 890 \; nclients-gui label \$1;
#X obj 187 791 s nclients;
#X obj 452 857 sel 0;
#X obj 497 903 s myclientnum;
#X obj 452 903 s myid;
#X obj 452 880 t 0 -1;
#X text 33 659 make myclientnum initially invalid or -1, f 23;
#X obj 155 223 r chat-out;
#X obj 901 162 r \$0-hostname-s;
#X obj 323 386 s network-status;
#X obj 256 791 loadbang;
#X obj 363 437 print CHAT;
#X obj 842 95 t b b b;
#X obj 881 117 s disconnect;
#X obj 272 410 route myid nclients chat server;
#X obj 586 903 print SERVER;
#X obj 20 103 pipe 100;
#X obj 20 82 > 0;
#X obj 482 571 unpack 0 0;
#X obj 565 600 sel 1 0;
#X obj 557 736 pack 0 s;
#X msg 584 642 symbol disconnected;
#X msg 565 621 symbol connected;
#X msg 557 758 user \$1 \$2;
#X msg 294 627 \; \$1-remote-user-gui-update \$2;
#X obj 752 638 r myclientnum;
#X obj 470 528 t l l l;
#X obj 735 616 unpack 0 0;
#X obj 735 700 ==;
#X obj 775 755 f;
#X obj 735 725 sel 1;
#X obj 775 777 sel 0;
#X obj 797 41 gate 1 1;
#X obj 797 66 t b b 0;
#X msg 773 116 1;
#X obj 773 95 delay 1000;
#X text 858 41 avoid spamming connect request (only 1 per second).
also addresses weird timing issues during init if the spam is allowed.
, f 45;
#N canvas 218 127 553 686 check-version 0;
#X obj 145 35 inlet;
#X obj 52 364 s disconnect;
#X obj 145 110 ==;
#X obj 145 135 sel 0 1;
#X obj 145 285 t b l;
#X obj 186 661 outlet;
#X floatatom 81 80 8 0 0 0 - - - 0 0 1, f 8;
#X floatatom 133 414 5 0 0 0 - - - 0 0 1, f 5;
#X obj 133 364 r myclientnum;
#X obj 133 463 + 1;
#X obj 133 488 gate 2 1;
#X obj 133 438 == -1;
#X obj 186 639 list trim;
#X obj 250 572 list prepend guest;
#X obj 133 572 list prepend user;
#X obj 133 550 list prepend;
#X msg 145 58 \$2 \$3;
#X obj 145 80 unpack 0 0;
#X text 133 316 server assigned client num (guests get -1 which is
not very informative \, so we use the incoming third arg value to get
the human-readable client number), f 54;
#X obj 81 58 r version;
#X msg 328 170 version match--welcome to L2Ork Tweeter!, f 30;
#X msg 145 170 version mismatch--disconnecting... please download the
server-compatible version of the client available at http://l2ork.bukvic.net/main/make-your-own-l2ork/tweeter/
, f 28;
#X msg 133 389 \$1;
#X connect 0 0 16 0;
#X connect 2 0 3 0;
#X connect 3 0 21 0;
#X connect 3 1 20 0;
#X connect 4 0 1 0;
#X connect 4 1 10 1;
#X connect 6 0 2 1;
#X connect 7 0 11 0;
#X connect 8 0 22 0;
#X connect 9 0 10 0;
#X connect 10 0 15 0;
#X connect 10 1 13 0;
#X connect 11 0 9 0;
#X connect 12 0 5 0;
#X connect 13 0 12 0;
#X connect 14 0 12 0;
#X connect 15 0 14 0;
#X connect 16 0 17 0;
#X connect 17 0 2 0;
#X connect 17 1 15 1;
#X connect 19 0 6 0;
#X connect 20 0 10 1;
#X connect 21 0 4 0;
#X connect 22 0 7 0;
#X restore 615 820 pd check-version;
#X obj 20 516 r network-status;
#X obj 20 602 s nclients-gui;
#X msg 20 570 color 12 0;
#X msg 92 570 color -4.44147e+06;
#X msg 256 813 0;
#X obj 313 844 nbx 5 14 0 1e+37 0 0 empty empty empty 0 -8 0 10 #fffcfcfc
#ff000000 #ff000000 0 256 0 0 1 0;
#X obj 20 538 sel 0 1;
#X obj 482 621 sel -1;
#X obj 423 571 route -1;
#X text 817 704 locally disconnects client if its ping is running late
to keep its state in sync with the server (does not work for guests)
, f 23;
#X obj 482 736 pack 0 s;
#X msg 482 758 guest \$2;
#X obj 861 206 lister;
#X obj 901 184 s2l :;
#X msg 861 296 connect \$1 \$2;
#X obj 918 249 sel 0;
#X obj 861 227 unpack s 0;
#X obj 861 162 t b b;
#X obj 861 274 pack s 0;
#X msg 554 414 send whatismyid \$1;
#X obj 554 393 f 0;
#X obj 571 372 r \$0-slot-s;
#X obj 572 528 s disconnect;
#X obj 360 706 t f f f;
#X obj 277 35 keyname;
#X obj 316 60 sel ShiftCtrlF12;
#X obj 277 60 sel 1;
#X obj 277 108 f;
#X msg 316 81 1;
#X msg 409 81 0;
#X obj 277 129 sel 1;
#X obj 277 150 bng 15 250 50 0 empty empty empty 17 7 0 10 #fffcfcfc
#ff000000 #ff000000 1;
#X obj 277 173 s disconnect;
#X text 305 108 use Shift+Ctrl+F12 to disconnect;
#X obj 621 157 r myclientnum;
#X obj 594 227 f;
#X obj 594 249 sel -1;
#X obj 72 538 loadbang;
#X obj 509 227 f;
#X obj 775 802 s silent-disconnect;
#X obj 376 133 r silent-disconnect;
#X msg 376 158 disconnect;
#N canvas 249 193 1038 692 session-management 0;
#X obj 133 49 inlet;
#X obj 32 29 r myclientnum;
#X obj 32 84 != -1;
#X obj 32 109 gate 1 0;
#X obj 32 555 t b s;
#X obj 91 455 tosymbol;
#X obj 91 480 t b s;
#X obj 59 625 s session-name-r;
#X obj 32 602 s load-session-r;
#X obj 91 503 s save-session-r;
#X obj 32 530 unpack s f;
#X obj 89 651 s load-session-delayed-network-sync;
#X obj 501 625 coll;
#C restore;
#X obj 664 551 patch_name 1;
#X obj 697 482 r session-name-s;
#X obj 664 573 pack s s;
#X obj 664 505 symbol;
#X obj 664 528 t b s;
#X msg 664 598 write \$1/sessions/\$2-session-coll.txt;
#X obj 120 402 tosymbol;
#X obj 120 424 s session-name-r;
#X obj 476 536 list prepend;
#X obj 496 505 counter;
#X obj 120 368 t a 1;
#X obj 304 411 gate 1 0;
#X msg 304 492 clear;
#X obj 105 255 r toggle-local-sync-save;
#X text 257 315 this one is administered through the teacher widget
where broadcasting locally saved session data should not be overwriting
the local file \, so here we prevent that with the gate., f 38;
#X obj 304 433 route start end, f 26;
#X obj 32 134 route load save sync-save sync-save-data sync-vis sync-data
;
#X obj 698 319 patch_name 1;
#X msg 629 401 dump;
#X obj 629 172 symbol;
#X obj 698 341 pack s s;
#X obj 698 363 t b b l;
#X msg 737 401 clear \, read \$1/sessions/\$2-session-coll.txt;
#X obj 698 290 t b s;
#X obj 563 651 s teacher-network-session-sync;
#X obj 741 52 delay;
#X obj 741 29 r load-session-delayed-network-sync;
#X obj 563 29 r load-session-network-sync;
#X msg 563 130 end;
#X msg 571 172 start;
#X obj 563 84 t b b b, f 12;
#X obj 563 52 t b s, f 17;
#X obj 629 227 select dummy;
#X obj 629 195 t s s;
#X obj 105 289 gate 2 1;
#X msg 150 312 1;
#X obj 380 455 t b 0 b;
#X obj 207 173 t a b;
#X obj 234 492 counter;
#X obj 304 455 t b 0 0;
#X obj 419 525 f;
#X obj 419 550 - 1;
#X obj 796 84 r session-name-r;
#X obj 763 130 symbol;
#X obj 741 84 t b b b, f 8;
#X obj 457 455 t l l b;
#N canvas 910 384 450 495 notification 0;
#X obj 167 85 inlet;
#X obj 246 392 s \$0-session-panel;
#X msg 306 312 #6c6c6c;
#X obj 246 343 tosymbol;
#X msg 246 367 color \$1 #fcfcfc;
#X obj 306 287 delay 500;
#X msg 188 312 #43c57d;
#X msg 246 312 #da5716;
#X obj 352 85 inlet;
#X obj 236 146 lister;
#X obj 236 169 zl slice 2;
#X obj 236 192 route 1;
#X obj 236 215 route reverb-type;
#X text 28 23 checks that the last entry in the session file is 1 reverb-type
<number> \, which should be the last line of a session file, f 64
;
#X obj 236 254 t b b b;
#X obj 288 254 t b b b;
#X obj 24 312 f;
#X obj 130 312 f;
#X msg 24 367 successfully received all \$1 lines of sync-save data
, f 14;
#X msg 130 367 incomplete sync-save data received consisting of \$1
lines, f 14;
#X obj 24 446 print TWEETER;
#X obj 167 109 t b f f;
#X connect 0 0 21 0;
#X connect 2 0 3 0;
#X connect 3 0 4 0;
#X connect 4 0 1 0;
#X connect 5 0 2 0;
#X connect 6 0 3 0;
#X connect 7 0 3 0;
#X connect 8 0 9 1;
#X connect 9 0 10 0;
#X connect 10 0 11 0;
#X connect 11 0 12 0;
#X connect 12 0 14 0;
#X connect 12 1 15 0;
#X connect 14 0 16 0;
#X connect 14 1 6 0;
#X connect 14 2 5 0;
#X connect 15 0 17 0;
#X connect 15 1 7 0;
#X connect 15 2 5 0;
#X connect 16 0 18 0;
#X connect 17 0 19 0;
#X connect 18 0 20 0;
#X connect 19 0 20 0;
#X connect 21 0 9 0;
#X connect 21 1 16 1;
#X connect 21 2 17 1;
#X restore 328 625 pd notification;
#X f 22;
#X obj 400 195 s network-in-local-only;
#X obj 400 173 zl iter 5;
#X obj 266 173 s session-sync-all;
#X msg 32 54 \$1;
#X connect 0 0 3 1;
#X connect 1 0 63 0;
#X connect 2 0 3 0;
#X connect 3 0 29 0;
#X connect 4 0 8 0;
#X connect 4 1 7 0;
#X connect 5 0 6 0;
#X connect 6 0 9 0;
#X connect 6 1 7 0;
#X connect 10 0 4 0;
#X connect 10 1 11 0;
#X connect 12 0 37 0;
#X connect 13 0 15 0;
#X connect 14 0 16 1;
#X connect 15 0 18 0;
#X connect 16 0 17 0;
#X connect 17 0 13 0;
#X connect 17 1 15 1;
#X connect 18 0 12 0;
#X connect 19 0 20 0;
#X connect 21 0 12 0;
#X connect 22 0 21 1;
#X connect 23 0 19 0;
#X connect 23 1 24 0;
#X connect 24 0 28 0;
#X connect 25 0 12 0;
#X connect 26 0 47 0;
#X connect 28 0 52 0;
#X connect 28 1 49 0;
#X connect 28 2 58 0;
#X connect 29 0 10 0;
#X connect 29 1 5 0;
#X connect 29 2 47 1;
#X connect 29 3 50 0;
#X connect 29 4 62 0;
#X connect 29 5 61 0;
#X connect 30 0 33 0;
#X connect 31 0 12 0;
#X connect 32 0 46 0;
#X connect 33 0 34 0;
#X connect 34 0 31 0;
#X connect 34 2 35 0;
#X connect 35 0 12 0;
#X connect 36 0 30 0;
#X connect 36 1 33 1;
#X connect 38 0 57 0;
#X connect 39 0 38 0;
#X connect 40 0 44 0;
#X connect 41 0 37 0;
#X connect 42 0 37 0;
#X connect 43 0 41 0;
#X connect 43 1 32 0;
#X connect 43 2 42 0;
#X connect 44 0 43 0;
#X connect 44 1 32 1;
#X connect 45 0 31 0;
#X connect 45 1 36 0;
#X connect 46 0 45 1;
#X connect 46 1 45 0;
#X connect 47 0 23 0;
#X connect 47 1 48 0;
#X connect 48 0 47 0;
#X connect 49 0 16 0;
#X connect 49 1 24 0;
#X connect 49 2 53 0;
#X connect 50 0 24 1;
#X connect 50 1 51 0;
#X connect 51 0 53 1;
#X connect 52 0 25 0;
#X connect 52 1 22 2;
#X connect 52 2 51 2;
#X connect 53 0 54 0;
#X connect 54 0 59 0;
#X connect 55 0 56 1;
#X connect 56 0 36 0;
#X connect 57 0 41 0;
#X connect 57 1 56 0;
#X connect 57 2 42 0;
#X connect 58 0 59 1;
#X connect 58 1 21 0;
#X connect 58 2 22 0;
#X connect 61 0 60 0;
#X connect 63 0 2 0;
#X restore 626 554 pd session-management;
#X obj 539 179 t b b;
#X obj 509 133 r override-disconnect;
#X obj 693 792 t l l;
#X msg 720 819 \$2;
#X obj 720 843 sprintf server v.%.02f;
#X text 1052 491 rightmost outlet is for all other clients, f 23;
#X obj 972 499 route report;
#X obj 229 570 r whatismyclientnum;
#N canvas 727 338 285 242 loop-length 0;
#X obj 156 58 inlet;
#X obj 69 28 r myclientnum;
#X obj 69 142 pack 0 0, f 15;
#X msg 69 171 \; \$2-manual-loop-length \$1;
#X obj 69 121 gate 1 0;
#X obj 69 79 t f f;
#X obj 69 100 > 0;
#X msg 69 53 \$1;
#X connect 0 0 4 1;
#X connect 1 0 7 0;
#X connect 2 0 3 0;
#X connect 4 0 2 0;
#X connect 5 0 6 0;
#X connect 5 1 2 1;
#X connect 6 0 4 0;
#X connect 7 0 5 0;
#X restore 681 528 pd loop-length;
#N canvas 312 268 941 599 timed-messages 0;
#X obj 23 22 inlet;
#X obj 470 167 r;
#X msg 487 142 set \$1-tracker-sync;
#X obj 469 108 unpack 0 0 0, f 20;
#X obj 470 217 ==, f 10;
#X obj 470 319 f;
#X obj 470 242 sel 1;
#X obj 23 108 core/inst-lvl 1;
#X obj 127 108 core/inst-lvl 2;
#X obj 231 108 core/inst-lvl 3;
#X obj 335 108 core/inst-lvl 4;
#X obj 23 138 core/inst-lvl 5;
#X obj 127 138 core/inst-lvl 6;
#X obj 231 138 core/inst-lvl 7;
#X obj 335 138 core/inst-lvl 8;
#X obj 23 168 core/inst-lvl 9;
#X obj 127 168 core/inst-lvl 10;
#X obj 231 168 core/inst-lvl 11;
#X obj 335 168 core/inst-lvl 12;
#X obj 470 267 t b 0, f 11;
#X obj 470 192 change -1;
#X obj 510 319 + 1;
#X obj 470 368 list prepend;
#X obj 470 563 s network-in;
#X obj 470 342 list prepend overdrive-override;
#X obj 23 56 route inst-level inst-level-all inst-level-list, f 147
;
#X obj 699 191 r;
#X msg 716 166 set \$1-tracker-sync;
#X obj 699 241 ==, f 10;
#X obj 699 266 sel 1;
#X obj 699 291 t b 0, f 11;
#X obj 699 216 change -1;
#X obj 766 369 + 1;
#X obj 699 522 list prepend, f 14;
#X obj 699 496 list prepend overdrive-override;
#X obj 699 108 t a a, f 27;
#X obj 739 418 list store, f 20;
#X obj 699 132 unpack 0 0;
#X obj 799 291 zl slice 2;
#X obj 739 345 t f f;
#X msg 739 393 get \$1 1;
#X text 41 265 given the timing of individual parts will depend on
when the trigger points for various cues happen \, mixing inst-level-all
and inst-level is going to be difficult to determine and may be best
if the two are staggered one after another using the same timing source.
or \, better yet \, use the new inst-level-list that allows for synchronous
individual treatment of each part.;
#X obj 23 197 core/inst-lvl 13;
#X obj 127 197 core/inst-lvl 14;
#X obj 470 297 kalashnikov 14;
#X obj 699 321 kalashnikov 14;
#X connect 0 0 25 0;
#X connect 1 0 20 0;
#X connect 2 0 1 1;
#X connect 3 0 2 0;
#X connect 3 1 4 1;
#X connect 3 2 5 1;
#X connect 4 0 6 0;
#X connect 5 0 24 0;
#X connect 6 0 19 0;
#X connect 19 0 44 0;
#X connect 19 1 2 0;
#X connect 20 0 4 0;
#X connect 21 0 22 1;
#X connect 22 0 23 0;
#X connect 24 0 22 0;
#X connect 25 0 7 0;
#X connect 25 0 18 0;
#X connect 25 0 17 0;
#X connect 25 0 16 0;
#X connect 25 0 15 0;
#X connect 25 0 14 0;
#X connect 25 0 13 0;
#X connect 25 0 12 0;
#X connect 25 0 11 0;
#X connect 25 0 10 0;
#X connect 25 0 9 0;
#X connect 25 0 8 0;
#X connect 25 0 42 0;
#X connect 25 0 43 0;
#X connect 25 1 3 0;
#X connect 25 2 35 0;
#X connect 26 0 31 0;
#X connect 27 0 26 1;
#X connect 28 0 29 0;
#X connect 29 0 30 0;
#X connect 30 0 45 0;
#X connect 30 1 27 0;
#X connect 31 0 28 0;
#X connect 32 0 33 1;
#X connect 33 0 23 0;
#X connect 34 0 33 0;
#X connect 35 0 37 0;
#X connect 35 1 38 0;
#X connect 36 0 34 0;
#X connect 37 0 27 0;
#X connect 37 1 28 1;
#X connect 38 1 36 1;
#X connect 39 0 40 0;
#X connect 39 1 32 0;
#X connect 40 0 36 0;
#X connect 44 0 5 0;
#X connect 44 1 21 0;
#X connect 45 1 39 0;
#X restore 775 554 pd timed-messages;
#X obj 272 360 netclient 0 20;
#N canvas 727 397 552 161 l2ork-custom 0;
#X obj 23 26 inlet;
#X msg 23 100 \; main-out-multiplier-r \$1;
#N canvas 379 405 436 489 sync-w-tempo-to-at 0;
#X obj 49 26 inlet;
#X obj 49 428 core/sync-w-tempo-to-at;
#X obj 65 403 core/sync-w-tempo-to-at;
#X obj 97 354 core/sync-w-tempo-to-at;
#X obj 81 378 core/sync-w-tempo-to-at;
#X obj 113 329 core/sync-w-tempo-to-at;
#X obj 129 304 core/sync-w-tempo-to-at;
#X obj 145 279 core/sync-w-tempo-to-at;
#X obj 161 255 core/sync-w-tempo-to-at;
#X obj 177 230 core/sync-w-tempo-to-at;
#X obj 193 205 core/sync-w-tempo-to-at;
#X obj 209 180 core/sync-w-tempo-to-at;
#X obj 225 156 core/sync-w-tempo-to-at;
#X obj 49 51 route 1 2 3 4 5 6 7 8 9 10 11 12 13 14;
#X obj 241 130 core/sync-w-tempo-to-at;
#X obj 257 106 core/sync-w-tempo-to-at;
#X text 91 25 <request-from-client-num 1-14>;
#X connect 0 0 13 0;
#X connect 13 0 1 0;
#X connect 13 1 2 0;
#X connect 13 2 4 0;
#X connect 13 3 3 0;
#X connect 13 4 5 0;
#X connect 13 5 6 0;
#X connect 13 6 7 0;
#X connect 13 7 8 0;
#X connect 13 8 9 0;
#X connect 13 9 10 0;
#X connect 13 10 11 0;
#X connect 13 11 12 0;
#X connect 13 12 14 0;
#X connect 13 13 15 0;
#X restore 301 76 pd sync-w-tempo-to-at;
#N canvas 727 397 422 480 sync-to-at 0;
#X obj 59 26 inlet;
#X obj 59 408 core/sync-to-at;
#X obj 75 383 core/sync-to-at;
#X obj 91 358 core/sync-to-at;
#X obj 107 334 core/sync-to-at;
#X obj 123 309 core/sync-to-at;
#X obj 139 284 core/sync-to-at;
#X obj 155 259 core/sync-to-at;
#X obj 171 235 core/sync-to-at;
#X obj 187 210 core/sync-to-at;
#X obj 203 185 core/sync-to-at;
#X obj 219 160 core/sync-to-at;
#X obj 235 136 core/sync-to-at;
#X text 101 25 <request-from-client-num 1-14>;
#X obj 59 51 route 1 2 3 4 5 6 7 8 9 10 11 12 13 14;
#X obj 251 110 core/sync-to-at;
#X obj 267 86 core/sync-to-at;
#X connect 0 0 14 0;
#X connect 14 0 1 0;
#X connect 14 1 2 0;
#X connect 14 2 3 0;
#X connect 14 3 4 0;
#X connect 14 4 5 0;
#X connect 14 5 6 0;
#X connect 14 6 7 0;
#X connect 14 7 8 0;
#X connect 14 8 9 0;
#X connect 14 9 10 0;
#X connect 14 10 11 0;
#X connect 14 11 12 0;
#X connect 14 12 15 0;
#X connect 14 13 16 0;
#X restore 162 76 pd sync-to-at;
#X obj 23 53 route main-out-multiplier-r sync-to-at sync-w-tempo-to-at
, f 70;
#X obj 440 76 s l2ork-custom;
#X text 67 14 here are a growing number of standardized messagesthe
rest we pass through the l2ork-custom send;
#X connect 0 0 4 0;
#X connect 4 0 1 0;
#X connect 4 1 3 0;
#X connect 4 2 2 0;
#X connect 4 3 5 0;
#X restore 810 528 pd l2ork-custom;
#X obj 154 386 r offline-messages;
#X msg 627 271 \; \$1-override-solo 0 \; \$1-manual-toggle-tracker
0;
#X obj 409 499 route status connection server disconnect session loop-length
at l2ork-custom session-report, f 92;
#N canvas 622 216 612 765 session-report 0;
#X obj 25 27 inlet;
#X obj 89 227 gate 1 0;
#X obj 133 126 s local-report-request;
#X obj 133 151 r local-report-response;
#X obj 89 277 route report session-title;
#X obj 341 688 list trim;
#X obj 341 663 list prepend session-report-response;
#X obj 341 713 s chat-out;
#X obj 410 126 unpack 0 0;
#X text 176 65 requesting client's socket and id, f 19;
#X obj 163 190 route;
#X obj 341 613 list prepend;
#X text 423 612 prepend receiver's socketdata \, so that the serverknows
where to send this;
#X text 203 190 this filters properties ofthe client who just connectedas
we don't want to impose onthem stale state data from this \, previously
connected client;
#N canvas 727 397 428 575 send-connected-only 0;
#X obj 90 33 inlet;
#X obj 90 58 t l l;
#X msg 90 112 \$1;
#X obj 52 504 outlet;
#X obj 90 166 core/lrrcc 1;
#X obj 104 188 core/lrrcc 2;
#X obj 118 210 core/lrrcc 3;
#X obj 132 232 core/lrrcc 4;
#X obj 146 254 core/lrrcc 5;
#X obj 160 276 core/lrrcc 6;
#X obj 174 298 core/lrrcc 7;
#X obj 188 320 core/lrrcc 8;
#X obj 202 342 core/lrrcc 9;
#X obj 216 365 core/lrrcc 10;
#X obj 230 388 core/lrrcc 11;
#X obj 244 411 core/lrrcc 12;
#X obj 90 137 gate 14 0;
#X obj 260 434 core/lrrcc 13;
#X obj 275 457 core/lrrcc 14;
#X connect 0 0 1 0;
#X connect 1 0 16 1;
#X connect 1 1 2 0;
#X connect 2 0 16 0;
#X connect 4 0 3 0;
#X connect 5 0 3 0;
#X connect 6 0 3 0;
#X connect 7 0 3 0;
#X connect 8 0 3 0;
#X connect 9 0 3 0;
#X connect 10 0 3 0;
#X connect 11 0 3 0;
#X connect 12 0 3 0;
#X connect 13 0 3 0;
#X connect 14 0 3 0;
#X connect 15 0 3 0;
#X connect 16 0 4 0;
#X connect 16 1 5 0;
#X connect 16 2 6 0;
#X connect 16 3 7 0;
#X connect 16 4 8 0;
#X connect 16 5 9 0;
#X connect 16 6 10 0;
#X connect 16 7 11 0;
#X connect 16 8 12 0;
#X connect 16 9 13 0;
#X connect 16 10 14 0;
#X connect 16 11 15 0;
#X connect 16 12 17 0;
#X connect 16 13 18 0;
#X connect 17 0 3 0;
#X connect 18 0 3 0;
#X restore 242 304 pd send-connected-only;
#X text 256 266 do we need routing for report here?, f 19;
#X obj 89 252 list trim;
#X text 413 526 this is triggered whenthe last line has been sent
;
#X obj 25 76 t b b 1 l;
#X obj 291 385 route tracker-time;
#X obj 197 443 gate 2 1;
#X obj 64 569 list trim;
#X obj 85 476 list append;
#X obj 85 500 t l l;
#X obj 64 525 list;
#X obj 64 547 list prepend server session sync-data;
#X obj 242 329 t l l 2;
#X msg 291 410 1;
#X obj 291 360 zl slice 1;
#X obj 25 445 t 0 0 b;
#X text 87 342 we split tracker-time data from the rest \, so that
the sync data arrives in a single message \, thus ensuring that all
client data arrives at the same time, f 24;
#X connect 0 0 18 0;
#X connect 1 0 16 0;
#X connect 3 0 10 0;
#X connect 4 2 14 0;
#X connect 5 0 7 0;
#X connect 6 0 5 0;
#X connect 8 0 11 1;
#X connect 8 1 10 1;
#X connect 10 1 1 1;
#X connect 11 0 6 0;
#X connect 14 0 26 0;
#X connect 16 0 4 0;
#X connect 18 0 29 0;
#X connect 18 1 2 0;
#X connect 18 2 1 0;
#X connect 18 3 8 0;
#X connect 19 0 27 0;
#X connect 20 0 22 0;
#X connect 20 1 11 0;
#X connect 21 0 11 0;
#X connect 22 0 23 0;
#X connect 23 0 24 1;
#X connect 23 1 22 1;
#X connect 24 0 25 0;
#X connect 25 0 21 0;
#X connect 26 0 20 1;
#X connect 26 1 28 0;
#X connect 26 2 20 0;
#X connect 27 0 20 0;
#X connect 28 1 19 0;
#X connect 29 0 1 0;
#X connect 29 1 22 1;
#X connect 29 2 24 0;
#X restore 897 554 pd session-report;
#X obj 554 349 sel 1;
#N canvas 162 161 814 724 client-out-parser 0;
#X obj 85 510 outlet;
#X obj 85 350 r client-out;
#X obj 85 482 list append;
#X obj 20 44 loadbang;
#X obj 20 69 t b 999 b;
#X msg 96 154 -1;
#X text 112 109 dictates max number of clients;
#X obj 20 109 kalashnikov 14;
#X obj 79 44 r \$0-reinit-ck;
#X obj 20 20 text define ck;
#X text 114 20 client keyboard status list is stored here;
#X obj 20 177 text set ck;
#X obj 96 177 text delete ck;
#X msg 20 139 0;
#X obj 85 454 gate 1 0;
#N canvas 490 404 712 178 input-parser 0;
#X obj 20 20 r 1-toggle-keyboard;
#X obj 20 45 text set ck 0;
#X obj 160 20 r 2-toggle-keyboard;
#X obj 160 45 text set ck 1;
#X obj 300 20 r 3-toggle-keyboard;
#X obj 300 45 text set ck 2;
#X obj 440 20 r 4-toggle-keyboard;
#X obj 440 45 text set ck 3;
#X obj 580 20 r 5-toggle-keyboard;
#X obj 580 45 text set ck 4;
#X obj 20 70 r 6-toggle-keyboard;
#X obj 20 95 text set ck 5;
#X obj 160 70 r 7-toggle-keyboard;
#X obj 160 95 text set ck 6;
#X obj 300 70 r 8-toggle-keyboard;
#X obj 300 95 text set ck 7;
#X obj 440 70 r 9-toggle-keyboard;
#X obj 440 95 text set ck 8;
#X obj 580 70 r 10-toggle-keyboard;
#X obj 580 95 text set ck 9;
#X obj 20 120 r 11-toggle-keyboard;
#X obj 20 145 text set ck 10;
#X obj 160 120 r 12-toggle-keyboard;
#X obj 160 145 text set ck 11;
#X obj 300 120 r 13-toggle-keyboard;
#X obj 300 145 text set ck 12;
#X obj 440 120 r 14-toggle-keyboard;
#X obj 440 145 text set ck 13;
#X connect 0 0 1 0;
#X connect 2 0 3 0;
#X connect 4 0 5 0;
#X connect 6 0 7 0;
#X connect 8 0 9 0;
#X connect 10 0 11 0;
#X connect 12 0 13 0;
#X connect 14 0 15 0;
#X connect 16 0 17 0;
#X connect 18 0 19 0;
#X connect 20 0 21 0;
#X connect 22 0 23 0;
#X connect 24 0 25 0;
#X connect 26 0 27 0;
#X restore 20 220 pd input-parser;
#X obj 429 374 kalashnikov 14;
#X obj 527 439 text get ck;
#X obj 469 400 t f f;
#X obj 479 496 f;
#X obj 527 464 sel 1;
#X obj 429 350 r get-all-local-parts-with-keyboard-on;
#X obj 462 649 s all-local-parts-with-keyboard-on;
#X obj 479 521 t f f;
#X obj 506 566 text get myparts;
#X obj 462 624 f;
#X obj 479 566 + 1;
#X obj 506 591 sel 0;
#X text 429 278 we use this helper function to multiplex actions that
should apply to all parts that currently have keyboard control enabled
(e.g. loading or saving multiple presets);
#X obj 85 380 t 0 b 1 l;
#X obj 102 405 s get-all-local-parts-with-keyboard-on;
#X obj 130 432 r all-local-parts-with-keyboard-on;
#X text 20 250 client-out so far receives only gui-redraw and timed
sync messages. the keyboard status is only active when the user is
connected to server. therefore \, it is ok to multiplex such an output
to all the parts the user is currently controlling (determined by the
KEYBOARD (ctrl) toggle).;
#X connect 1 0 29 0;
#X connect 2 0 0 0;
#X connect 3 0 4 0;
#X connect 4 0 7 0;
#X connect 4 1 11 1;
#X connect 4 2 5 0;
#X connect 5 0 12 0;
#X connect 7 0 13 0;
#X connect 8 0 4 0;
#X connect 13 0 11 0;
#X connect 14 0 2 0;
#X connect 16 1 18 0;
#X connect 17 0 20 0;
#X connect 18 0 17 0;
#X connect 18 1 19 1;
#X connect 19 0 23 0;
#X connect 20 0 19 0;
#X connect 21 0 16 0;
#X connect 23 0 24 0;
#X connect 23 1 26 0;
#X connect 24 0 27 0;
#X connect 25 0 22 0;
#X connect 26 0 25 1;
#X connect 27 0 25 0;
#X connect 29 0 14 0;
#X connect 29 1 30 0;
#X connect 29 2 14 0;
#X connect 29 3 2 1;
#X connect 31 0 14 1;
#X restore 272 245 pd client-out-parser;
#X obj 259 710 list;
#N canvas 718 234 943 420 filter-my-parts 0;
#X obj 107 61 inlet;
#X text 80 30 incoming messages;
#X obj 60 370 outlet;
#X text 130 320 messages allowed to pass through that do not belong
to the local user, f 19;
#X obj 60 320 gate 1 0;
#X obj 50 130 zl slice 1;
#X obj 510 154 loadbang;
#X obj 510 179 t b 999 b;
#X msg 620 264 -1;
#X text 602 219 dictates max number of clients;
#X obj 510 219 kalashnikov 14;
#X obj 510 130 text define myparts;
#X obj 510 287 text set myparts;
#X obj 620 287 text delete myparts;
#X obj 50 180 - 1;
#X obj 50 205 text get myparts;
#X msg 480 249 1;
#X obj 50 230 t b f;
#X obj 105 290 list;
#X obj 280 187 zl iter 1;
#X obj 319 311 text set myparts;
#X obj 280 212 - 1;
#X msg 319 261 0 \$1;
#X text 510 108 init;
#X obj 319 286 unpack 0 0;
#X obj 107 86 t l l 1;
#X obj 50 155 route float;
#X obj 160 205 t b;
#X text 130 130 most messages start with user id \, with report being
an exception, f 18;
#X obj 60 345 list trim;
#X text 632 130 client myparts status list is stored here;
#X obj 280 155 t l b;
#X obj 569 154 r \$0-reinit-myparts;
#X obj 280 130 r myclientnum;
#X obj 280 237 moses 0;
#X connect 0 0 25 0;
#X connect 4 0 29 0;
#X connect 5 0 26 0;
#X connect 6 0 7 0;
#X connect 7 0 10 0;
#X connect 7 1 12 1;
#X connect 7 2 8 0;
#X connect 8 0 13 0;
#X connect 10 0 16 0;
#X connect 14 0 15 0;
#X connect 15 0 17 0;
#X connect 16 0 12 0;
#X connect 17 0 18 0;
#X connect 17 1 4 0;
#X connect 18 0 4 1;
#X connect 19 0 21 0;
#X connect 21 0 34 0;
#X connect 22 0 24 0;
#X connect 24 0 20 0;
#X connect 24 1 20 1;
#X connect 25 0 5 0;
#X connect 25 1 18 1;
#X connect 25 2 4 0;
#X connect 26 0 14 0;
#X connect 26 1 27 0;
#X connect 27 0 18 0;
#X connect 29 0 2 0;
#X connect 31 0 19 0;
#X connect 31 1 7 0;
#X connect 32 0 7 0;
#X connect 33 0 31 0;
#X connect 34 1 22 0;
#X restore 972 470 pd filter-my-parts;
#X obj 155 245 r client-out-w-num;
#X text 860 350 ignore local changes among broadcast messages \, except
when message from server calls for a report (to sync other clients)
\, or if a teacher patch uses report to change remote user settings
(report with a bang requests report \, otherwise it feeds the values).
in both cases report is the first argument \, whereas in all other
situations it is the user's part (or in case of 0.87 and newer \, potentially
multiple parts)., f 53;
#X text 127 177 myid is socket;
#X obj 272 435 zl slice 1;
#X obj 259 540 t b l;
#X msg 752 663 \$1;
#X text 654 182 only the first myclientnum number on the list counts
\, others are add-part, f 19;
#X msg 621 182 \$1;
#X obj 135 496 r resetmyclientnumlist;
#X msg 930 227 9002;
#X obj 861 140 delay 500;
#X obj 509 250 t b f;
#X obj 434 275 delay 100;
#X msg 507 297 send disconnect \$1;
#X msg 434 297 disconnect;
#N canvas 575 222 411 694 solo-state-operations 0;
#X obj 20 44 loadbang;
#X obj 20 69 t b 999 b;
#X msg 106 154 -1;
#X text 112 109 dictates max number of clients;
#X obj 20 109 kalashnikov 14;
#X msg 20 139 0;
#N canvas 490 404 785 317 input-parser 0;
#X obj 80 20 r 1-toggle-solo;
#X obj 220 20 r 2-toggle-solo;
#X obj 360 20 r 3-toggle-solo;
#X obj 500 20 r 4-toggle-solo;
#X obj 640 20 r 5-toggle-solo;
#X obj 80 110 r 6-toggle-solo;
#X obj 220 110 r 7-toggle-solo;
#X obj 360 110 r 8-toggle-solo;
#X obj 500 110 r 9-toggle-solo;
#X obj 640 110 r 10-toggle-solo;
#X obj 80 190 r 11-toggle-solo;
#X obj 220 190 r 12-toggle-solo;
#X obj 360 190 r 13-toggle-solo;
#X obj 500 190 r 14-toggle-solo;
#X obj 80 45 t b f;
#X obj 220 45 t b f;
#X obj 360 45 t b f;
#X obj 500 45 t b f;
#X obj 640 45 t b f;
#X obj 80 135 t b f;
#X obj 220 135 t b f;
#X obj 360 135 t b f;
#X obj 500 135 t b f;
#X obj 640 135 t b f;
#X obj 80 215 t b f;
#X obj 220 215 t b f;
#X obj 360 215 t b f;
#X obj 500 215 t b f;
#X obj 20 290 s are-there-local-parts-with-solo-enabled;
#X obj 107 70 text set so 0;
#X obj 247 70 text set so 1;
#X obj 387 70 text set so 2;
#X obj 527 70 text set so 3;
#X obj 667 70 text set so 4;
#X obj 667 165 text set so 9;
#X obj 527 165 text set so 8;
#X obj 387 165 text set so 7;
#X obj 247 165 text set so 6;
#X obj 107 165 text set so 5;
#X obj 107 245 text set so 10;
#X obj 247 245 text set so 11;
#X obj 387 245 text set so 12;
#X obj 527 245 text set so 13;
#X connect 0 0 14 0;
#X connect 1 0 15 0;
#X connect 2 0 16 0;
#X connect 3 0 17 0;
#X connect 4 0 18 0;
#X connect 5 0 19 0;
#X connect 6 0 20 0;
#X connect 7 0 21 0;
#X connect 8 0 22 0;
#X connect 9 0 23 0;
#X connect 10 0 24 0;
#X connect 11 0 25 0;
#X connect 12 0 26 0;
#X connect 13 0 27 0;
#X connect 14 0 28 0;
#X connect 14 1 29 0;
#X connect 15 0 28 0;
#X connect 15 1 30 0;
#X connect 16 0 28 0;
#X connect 16 1 31 0;
#X connect 17 0 28 0;
#X connect 17 1 32 0;
#X connect 18 0 28 0;
#X connect 18 1 33 0;
#X connect 19 0 28 0;
#X connect 19 1 38 0;
#X connect 20 0 28 0;
#X connect 20 1 37 0;
#X connect 21 0 28 0;
#X connect 21 1 36 0;
#X connect 22 0 28 0;
#X connect 22 1 35 0;
#X connect 23 0 28 0;
#X connect 23 1 34 0;
#X connect 24 0 28 0;
#X connect 24 1 39 0;
#X connect 25 0 28 0;
#X connect 25 1 40 0;
#X connect 26 0 28 0;
#X connect 26 1 41 0;
#X connect 27 0 28 0;
#X connect 27 1 42 0;
#X restore 20 220 pd input-parser;
#X obj 60 374 kalashnikov 14, f 21;
#X obj 102 496 f;
#X obj 23 464 sel 1;
#X obj 102 520 text get myparts;
#X obj 102 545 sel 0;
#X text 124 20 cumulative solo status list is stored here;
#X obj 60 320 r are-there-local-parts-with-solo-enabled;
#X obj 183 610 f;
#X msg 102 570 1;
#X text 20 280 we use this in processing solo request inside L2OrkTweet's
main out subpatch;
#X obj 183 635 s any-local-parts-with-solo-enabled;
#X obj 20 20 text define so;
#X obj 79 44 r \$0-reinit-so;
#X obj 106 177 text delete so;
#X obj 20 177 text set so;
#X obj 23 439 text get so;
#X obj 60 345 t b 0;
#X obj 90 400 t f f;
#X connect 0 0 1 0;
#X connect 1 0 4 0;
#X connect 1 1 21 1;
#X connect 1 2 2 0;
#X connect 2 0 20 0;
#X connect 4 0 5 0;
#X connect 5 0 21 0;
#X connect 7 1 24 0;
#X connect 7 2 14 0;
#X connect 8 0 10 0;
#X connect 9 0 8 0;
#X connect 10 0 11 0;
#X connect 11 0 15 0;
#X connect 13 0 23 0;
#X connect 14 0 17 0;
#X connect 15 0 14 1;
#X connect 19 0 1 0;
#X connect 22 0 9 0;
#X connect 23 0 7 0;
#X connect 23 1 14 1;
#X connect 24 0 22 0;
#X connect 24 1 8 1;
#X restore 1000 640 pd solo-state-operations;
#X text 1000 610 added in 0.88 to improve the solo command behavior
, f 25;
#X connect 0 0 1 0;
#X connect 1 0 24 1;
#X connect 2 0 3 0;
#X connect 3 0 4 0;
#X connect 4 0 9 0;
#X connect 5 0 0 0;
#X connect 6 0 9 1;
#X connect 9 0 5 0;
#X connect 14 0 15 0;
#X connect 15 0 124 0;
#X connect 16 0 42 0;
#X connect 18 0 25 0;
#X connect 19 1 86 0;
#X connect 20 0 57 1;
#X connect 21 0 106 0;
#X connect 22 0 23 0;
#X connect 23 0 2 0;
#X connect 24 0 116 0;
#X connect 27 0 30 0;
#X connect 30 0 29 0;
#X connect 30 1 28 0;
#X connect 32 0 0 0;
#X connect 33 0 76 0;
#X connect 35 0 67 0;
#X connect 37 1 136 0;
#X connect 37 2 38 0;
#X connect 39 0 129 0;
#X connect 39 1 86 0;
#X connect 39 2 36 0;
#X connect 39 3 120 0;
#X connect 39 4 125 0;
#X connect 41 0 2 0;
#X connect 42 0 41 0;
#X connect 43 0 70 0;
#X connect 43 1 44 0;
#X connect 44 0 47 0;
#X connect 44 1 46 0;
#X connect 45 0 48 0;
#X connect 46 0 45 1;
#X connect 46 0 73 1;
#X connect 47 0 45 1;
#X connect 47 0 73 1;
#X connect 48 0 40 0;
#X connect 50 0 131 0;
#X connect 51 0 71 0;
#X connect 51 1 43 0;
#X connect 51 2 52 0;
#X connect 52 0 53 0;
#X connect 52 1 54 1;
#X connect 53 0 55 0;
#X connect 54 0 56 0;
#X connect 55 0 54 0;
#X connect 56 0 102 0;
#X connect 57 0 58 0;
#X connect 58 0 60 0;
#X connect 58 1 37 0;
#X connect 58 2 57 0;
#X connect 59 0 57 0;
#X connect 60 0 59 0;
#X connect 62 0 40 0;
#X connect 63 0 69 0;
#X connect 65 0 64 0;
#X connect 66 0 64 0;
#X connect 67 0 68 0;
#X connect 68 0 18 0;
#X connect 69 0 65 0;
#X connect 69 1 66 0;
#X connect 70 0 73 0;
#X connect 70 1 45 0;
#X connect 71 1 49 0;
#X connect 73 0 74 0;
#X connect 74 0 40 0;
#X connect 75 0 79 0;
#X connect 76 0 75 1;
#X connect 77 0 116 0;
#X connect 78 1 81 1;
#X connect 79 0 81 0;
#X connect 79 1 78 0;
#X connect 80 0 75 0;
#X connect 80 1 135 0;
#X connect 81 0 77 0;
#X connect 82 0 116 0;
#X connect 83 0 82 0;
#X connect 84 0 83 1;
#X connect 86 0 26 0;
#X connect 86 1 68 0;
#X connect 86 2 27 0;
#X connect 87 0 89 0;
#X connect 87 1 88 0;
#X connect 88 0 91 0;
#X connect 88 1 92 0;
#X connect 89 0 90 0;
#X connect 90 0 93 0;
#X connect 91 0 90 1;
#X connect 92 0 90 1;
#X connect 93 0 94 0;
#X connect 94 0 95 0;
#X connect 97 0 133 0;
#X connect 98 0 99 0;
#X connect 99 1 119 0;
#X connect 100 0 65 0;
#X connect 101 0 137 0;
#X connect 103 0 104 0;
#X connect 104 0 24 1;
#X connect 106 0 101 0;
#X connect 106 1 98 0;
#X connect 107 0 101 0;
#X connect 108 0 62 0;
#X connect 108 1 109 0;
#X connect 109 0 110 0;
#X connect 110 0 40 0;
#X connect 112 0 11 0;
#X connect 112 1 11 0;
#X connect 113 0 124 0;
#X connect 116 0 39 0;
#X connect 116 1 19 0;
#X connect 116 1 34 0;
#X connect 116 1 24 0;
#X connect 116 1 122 0;
#X connect 118 0 39 0;
#X connect 120 0 49 0;
#X connect 120 1 51 0;
#X connect 120 2 108 0;
#X connect 120 3 85 0;
#X connect 120 4 105 0;
#X connect 120 5 114 0;
#X connect 120 6 115 0;
#X connect 120 7 117 0;
#X connect 120 8 121 0;
#X connect 120 9 40 0;
#X connect 122 0 83 0;
#X connect 123 0 0 0;
#X connect 124 0 8 0;
#X connect 125 0 112 0;
#X connect 126 0 0 0;
#X connect 129 0 7 0;
#X connect 129 1 130 0;
#X connect 130 0 124 0;
#X connect 130 1 124 1;
#X connect 131 0 53 1;
#X connect 133 0 101 1;
#X connect 133 0 98 1;
#X connect 134 0 124 1;
#X connect 135 0 78 0;
#X connect 136 0 80 0;
#X connect 137 0 138 0;
#X connect 137 1 139 0;
#X connect 138 0 140 0;
#X connect 139 0 24 1;
#X connect 140 0 24 1;
#X restore 221 23 pd network-io;
#N canvas 236 65 1170 914 preset-logic 0;
#X obj 152 670 r \$0-store-preset;
#X obj 67 822 pack 0 0;
#X msg 67 852 \; \$2-store-preset \$1;
#X obj 67 801 gate 1 0;
#X obj 586 376 r network-status;
#X obj 586 398 sel 1;
#X obj 586 420 delay 1000;
#N canvas 957 349 696 477 first-time-override-set-main-out 0;
#X obj 75 54 r override-myid;
#X obj 176 33 r myclientnum;
#X obj 346 54 text define override;
#X obj 289 54 loadbang;
#X obj 289 77 t b 999 b;
#X msg 442 192 -1;
#X obj 329 147 + 1;
#X obj 329 215 text set override;
#X obj 442 215 text delete override;
#X obj 75 148 f;
#X floatatom 75 211 5 0 0 0 - - - 0 0 1, f 5;
#X obj 75 169 t f f;
#X msg 75 385 \; \$1-main-out-override bang \;;
#X obj 329 192 pack 0 0;
#X obj 374 172 tgl 15 0 empty empty empty 17 7 0 10 #fffcfcfc #ff000000
#ff000000 0 1 1;
#X text 393 171 DEBUG;
#X obj 176 96 - 1;
#X obj 75 190 text get override 1;
#X obj 75 235 sel 0;
#X obj 75 362 f;
#X obj 167 362 text set override;
#X obj 75 260 t b b;
#X obj 176 117 t f f;
#X obj 167 293 pack 0 0 0;
#X obj 176 75 t f f f;
#X msg 200 341 \$3;
#X obj 167 318 t l l;
#X msg 167 341 \$2 1;
#X text 381 118 corresponds with the max number of clients;
#X obj 289 118 kalashnikov 14;
#X msg 176 54 \$1;
#X connect 0 0 9 0;
#X connect 1 0 30 0;
#X connect 3 0 4 0;
#X connect 4 0 29 0;
#X connect 4 1 7 1;
#X connect 4 2 5 0;
#X connect 5 0 8 0;
#X connect 6 0 13 0;
#X connect 9 0 11 0;
#X connect 10 0 18 0;
#X connect 11 0 17 0;
#X connect 13 0 7 0;
#X connect 14 0 13 1;
#X connect 16 0 22 0;
#X connect 17 0 10 0;
#X connect 18 0 21 0;
#X connect 19 0 12 0;
#X connect 21 0 19 0;
#X connect 21 1 23 0;
#X connect 22 0 9 1;
#X connect 22 1 23 2;
#X connect 23 0 26 0;
#X connect 24 0 16 0;
#X connect 24 1 19 1;
#X connect 24 2 23 1;
#X connect 25 0 20 1;
#X connect 26 0 27 0;
#X connect 26 1 25 0;
#X connect 27 0 20 0;
#X connect 29 1 6 0;
#X connect 30 0 24 0;
#X restore 700 376 pd first-time-override-set-main-out;
#X obj 93 401 r \$0-store-preset-apply;
#X obj 135 693 f;
#X obj 66 225 coll;
#C restore;
#X obj 66 165 gate 1 0;
#X obj 111 142 key;
#X floatatom 66 250 5 0 0 0 - - - 0 0 1, f 5;
#X obj 134 165 loadbang;
#X obj 85 49 keyname;
#X obj 124 71 sel Shift;
#X msg 124 93 1;
#X msg 175 93 0;
#X obj 40 142 &&, f 10;
#X obj 40 120 gate 1 0;
#X obj 66 274 t b f;
#X text 227 301 goes to the gui and calls stuff below from there,
f 25;
#X obj 93 297 s \$0-store-preset-r;
#X obj 66 319 s \$0-store-preset-apply-r;
#X msg 134 188 clear \, 65 1 \, 83 2 \, 68 3 \, 70 4 \, 71 5 \, 72
6 \, 74 7 \, 75 8 \, 76 9 \, 58 10, f 36;
#X obj 506 225 coll;
#C restore;
#X obj 506 165 gate 1 0;
#X obj 551 142 key;
#X floatatom 506 250 5 0 0 0 - - - 0 0 1, f 5;
#X obj 574 165 loadbang;
#X obj 525 49 keyname;
#X obj 564 71 sel Shift;
#X msg 564 93 1;
#X msg 615 93 0;
#X obj 480 142 &&, f 10;
#X obj 480 120 gate 1 0;
#X obj 506 274 t b f;
#X text 673 301 goes to the gui and calls stuff below from there,
f 25;
#X obj 533 297 s \$0-recall-preset-r;
#X obj 506 319 s \$0-recall-preset-apply-r;
#X msg 574 188 clear \, 90 1 \, 88 2 \, 67 3 \, 86 4 \, 66 5 \, 78
6 \, 77 7 \, 60 8 \, 62 9 \, 63 10, f 36;
#X obj 40 27 r global-toggle-keyboard;
#X obj 40 72 gate 1 0;
#X obj 480 27 r global-toggle-keyboard;
#X obj 480 72 gate 1 0;
#X obj 67 780 >= 1;
#X obj 586 633 f;
#X msg 625 706 \; \$1-main-out-override bang \;;
#X obj 586 658 moses 1;
#X obj 135 718 sel 0;
#X msg 112 747 1;
#X obj 938 49 keyname;
#X msg 977 93 1;
#X obj 893 27 r global-toggle-keyboard;
#X obj 893 72 gate 1 0;
#X obj 977 71 sel ShiftUp ShiftDown;
#X msg 1038 93 -1;
#X obj 893 120 *;
#X msg 1100 93 0;
#X obj 937 165 r \$0-recall-preset;
#X obj 920 186 +;
#X obj 920 211 t b f;
#X obj 947 232 s \$0-recall-preset-r;
#X obj 920 254 s \$0-recall-preset-apply-r;
#X obj 893 142 sel 0;
#X msg 48 510 \$1;
#X text 637 604 this only happens when you initially connect \, which
means you will never have more than one part to control at this point
in time \, so the multi-part aspect is not relevant here, f 27;
#X obj 93 461 list;
#X obj 48 378 r glob-multi-lp;
#X obj 48 401 + 1;
#X obj 48 484 gate 2 1;
#X msg 603 605 \$1;
#X obj 48 647 t b f f;
#X obj 93 510 zl iter 1;
#X obj 384 428 r myclientnum;
#X obj 337 822 pack 0 0;
#X obj 337 801 gate 1 0;
#X obj 405 693 f;
#X obj 337 780 >= 1;
#X obj 405 718 sel 0;
#X msg 382 747 1;
#X obj 363 461 list;
#X obj 318 647 t b f f;
#X obj 363 510 zl iter 1;
#X obj 363 401 r \$0-recall-preset-apply;
#X obj 422 670 r \$0-recall-preset;
#X msg 337 852 \; \$2-recall-preset \$1;
#X obj 363 535 t f f;
#X obj 390 559 - 1;
#X obj 390 583 text get ck;
#X obj 333 618 gate 1 0;
#X obj 93 535 t f f;
#X obj 120 559 - 1;
#X obj 120 583 text get ck;
#X obj 63 618 gate 1 0;
#X text 175 466 recalling should go to all parts that have keyboard
currently enabled regardless if multi is enabled \, while storing should
only apply to a non-single part in the non-multi mode, f 26;
#X connect 0 0 9 1;
#X connect 1 0 2 0;
#X connect 3 0 1 0;
#X connect 4 0 5 0;
#X connect 5 0 6 0;
#X connect 6 0 47 0;
#X connect 8 0 68 0;
#X connect 9 0 50 0;
#X connect 10 0 13 0;
#X connect 11 0 10 0;
#X connect 12 0 11 1;
#X connect 13 0 21 0;
#X connect 14 0 25 0;
#X connect 15 0 43 1;
#X connect 15 1 16 0;
#X connect 16 0 17 0;
#X connect 16 1 18 0;
#X connect 17 0 20 0;
#X connect 17 0 19 1;
#X connect 18 0 20 0;
#X connect 18 0 19 1;
#X connect 19 0 11 0;
#X connect 20 0 19 0;
#X connect 21 0 24 0;
#X connect 21 1 23 0;
#X connect 25 0 10 0;
#X connect 26 0 29 0;
#X connect 27 0 26 0;
#X connect 28 0 27 1;
#X connect 29 0 37 0;
#X connect 30 0 41 0;
#X connect 31 0 45 1;
#X connect 31 1 32 0;
#X connect 32 0 33 0;
#X connect 32 1 34 0;
#X connect 33 0 36 0;
#X connect 33 0 35 1;
#X connect 34 0 36 0;
#X connect 34 0 35 1;
#X connect 35 0 27 0;
#X connect 36 0 35 0;
#X connect 37 0 40 0;
#X connect 37 1 39 0;
#X connect 41 0 26 0;
#X connect 42 0 43 0;
#X connect 43 0 20 1;
#X connect 44 0 45 0;
#X connect 45 0 36 1;
#X connect 46 0 3 0;
#X connect 47 0 49 0;
#X connect 49 1 48 0;
#X connect 50 0 51 0;
#X connect 50 1 3 1;
#X connect 51 0 3 1;
#X connect 52 0 55 1;
#X connect 52 1 56 0;
#X connect 53 0 58 1;
#X connect 54 0 55 0;
#X connect 55 0 58 0;
#X connect 56 0 53 0;
#X connect 56 1 57 0;
#X connect 56 2 59 0;
#X connect 57 0 58 1;
#X connect 58 0 65 0;
#X connect 59 0 58 1;
#X connect 60 0 61 1;
#X connect 61 0 62 0;
#X connect 62 0 64 0;
#X connect 62 1 63 0;
#X connect 65 1 61 0;
#X connect 66 0 73 0;
#X connect 68 0 71 1;
#X connect 69 0 70 0;
#X connect 70 0 71 0;
#X connect 71 0 66 0;
#X connect 71 1 74 0;
#X connect 72 0 47 1;
#X connect 73 0 9 0;
#X connect 73 1 46 0;
#X connect 73 2 1 1;
#X connect 74 0 92 0;
#X connect 75 0 82 1;
#X connect 75 0 68 1;
#X connect 75 0 72 0;
#X connect 76 0 87 0;
#X connect 77 0 76 0;
#X connect 78 0 80 0;
#X connect 79 0 77 0;
#X connect 80 0 81 0;
#X connect 80 1 77 1;
#X connect 81 0 77 1;
#X connect 82 0 84 0;
#X connect 83 0 78 0;
#X connect 83 1 79 0;
#X connect 83 2 76 1;
#X connect 84 0 88 0;
#X connect 85 0 82 0;
#X connect 86 0 78 1;
#X connect 88 0 91 1;
#X connect 88 1 89 0;
#X connect 89 0 90 0;
#X connect 90 0 91 0;
#X connect 91 0 83 0;
#X connect 92 0 95 1;
#X connect 92 1 93 0;
#X connect 93 0 94 0;
#X connect 94 0 95 0;
#X connect 95 0 73 0;
#X restore 113 23 pd preset-logic;
#N canvas 382 22 747 936 override 0;
#X msg 707 115 0;
#X obj 116 22 keyname;
#X obj 157 271 r nclients;
#X obj 71 174 gate 1 0;
#X floatatom 26 516 5 0 0 0 - - - 0 0 1, f 5;
#X obj 71 246 f;
#X obj 71 196 sel 1;
#X obj 55 747 s override-myid;
#X obj 71 271 t f b, f 12;
#X obj 140 293 f;
#X obj 140 314 > 0;
#X obj 140 335 sel 1;
#X obj 140 356 t b 2;
#X obj 26 401 gate 2 1;
#X obj 71 424 t b f 1;
#X obj 71 478 f;
#X msg 248 746 \; \$1-manual-toggle-keyboard 0;
#X obj 248 724 + 1;
#X obj 172 115 t 1 1;
#X obj 208 115 t 2 1;
#X obj 244 115 t 3 1;
#X obj 280 115 t 4 1;
#X obj 316 115 t 5 1;
#X obj 352 115 t 6 1;
#X obj 388 115 t 7 1;
#X obj 424 115 t 8 1;
#X obj 460 115 t 9 1;
#X obj 496 115 t 10 1;
#X text 301 703 max users (not including guests);
#X msg 257 609 \; \$1-override-solo 0;
#X obj 241 516 r myclientnum;
#X obj 224 567 f;
#X obj 224 588 sel -1;
#X obj 70 725 s override-disconnect;
#X obj 140 401 s override-disconnect;
#X obj 40 789 s override-access-all-buttons;
#X obj 43 817 r myclientnum;
#X obj 26 868 f;
#X msg 26 890 \; \$1-manual-toggle-keyboard 1;
#X obj 71 452 delay 101;
#X text 135 452 When connected \, this is delayed by 101 since the
myid is delayed by 100 inside the L2OrkTweet abstraction;
#X obj 538 115 t 11 1;
#X obj 580 115 t 12 1;
#X obj 103 489 r override-solo;
#X obj 85 703 s whatismyclientnum;
#X obj 208 703 kalashnikov 14;
#X obj 155 43 sel ShiftF1 ShiftF2 ShiftF3 ShiftF4 ShiftF5 ShiftF6 ShiftF7
ShiftF8 ShiftF9 ShiftF10 ShiftF11 ShiftF12 ShiftCtrlF1 ShiftCtrlF2
, f 75;
#X obj 622 115 t 13 1;
#X obj 664 115 t 14 1;
#X msg 241 541 \$1;
#X msg 43 842 \$1;
#X obj 112 662 s resetmyclientnumlist;
#X msg 112 623 1 2 3 4 5 6 7 8 9 10 11 12 13 14, f 16;
#X obj 85 597 t b b;
#X obj 26 539 t b b b b b b b;
#X connect 0 0 3 0;
#X connect 1 0 3 1;
#X connect 1 1 46 0;
#X connect 2 0 9 1;
#X connect 3 0 6 0;
#X connect 4 0 54 0;
#X connect 5 0 8 0;
#X connect 6 0 5 0;
#X connect 8 0 13 1;
#X connect 8 1 9 0;
#X connect 9 0 10 0;
#X connect 10 0 11 0;
#X connect 11 0 12 0;
#X connect 12 0 34 0;
#X connect 12 1 13 0;
#X connect 13 0 4 0;
#X connect 13 1 14 0;
#X connect 14 0 39 0;
#X connect 14 1 15 1;
#X connect 14 2 13 0;
#X connect 15 0 4 0;
#X connect 17 0 16 0;
#X connect 18 0 5 1;
#X connect 18 1 3 0;
#X connect 19 0 5 1;
#X connect 19 1 3 0;
#X connect 20 0 5 1;
#X connect 20 1 3 0;
#X connect 21 0 5 1;
#X connect 21 1 3 0;
#X connect 22 0 5 1;
#X connect 22 1 3 0;
#X connect 23 0 5 1;
#X connect 23 1 3 0;
#X connect 24 0 5 1;
#X connect 24 1 3 0;
#X connect 25 0 5 1;
#X connect 25 1 3 0;
#X connect 26 0 5 1;
#X connect 26 1 3 0;
#X connect 27 0 5 1;
#X connect 27 1 3 0;
#X connect 30 0 49 0;
#X connect 31 0 32 0;
#X connect 32 1 29 0;
#X connect 36 0 50 0;
#X connect 37 0 38 0;
#X connect 39 0 15 0;
#X connect 41 0 5 1;
#X connect 41 1 3 0;
#X connect 42 0 5 1;
#X connect 42 1 3 0;
#X connect 43 0 4 0;
#X connect 45 1 17 0;
#X connect 46 0 18 0;
#X connect 46 1 19 0;
#X connect 46 2 20 0;
#X connect 46 3 21 0;
#X connect 46 4 22 0;
#X connect 46 5 23 0;
#X connect 46 6 24 0;
#X connect 46 7 25 0;
#X connect 46 8 26 0;
#X connect 46 9 27 0;
#X connect 46 10 41 0;
#X connect 46 11 42 0;
#X connect 46 12 47 0;
#X connect 46 13 48 0;
#X connect 46 14 0 0;
#X connect 47 0 5 1;
#X connect 47 1 3 0;
#X connect 48 0 5 1;
#X connect 48 1 3 0;
#X connect 49 0 31 1;
#X connect 50 0 37 1;
#X connect 52 0 51 0;
#X connect 53 0 44 0;
#X connect 53 1 52 0;
#X connect 54 0 37 0;
#X connect 54 1 35 0;
#X connect 54 2 7 0;
#X connect 54 3 33 0;
#X connect 54 4 53 0;
#X connect 54 5 45 0;
#X connect 54 6 31 0;
#X restore 317 23 pd override;
#N canvas 615 291 659 572 chat-logic 0;
#X obj 40 27 loadbang;
#X obj 40 193 s \$0-chat-r;
#X obj 40 97 tosymbol;
#X obj 40 119 list prepend set;
#X obj 40 141 list trim;
#X obj 282 211 r \$0-chat-s;
#X obj 398 472 list prepend chat;
#X obj 405 27 r myclientnum;
#X obj 398 499 s chat-out;
#X obj 405 89 sel -1;
#X obj 450 188 r myid;
#X obj 405 261 sprintf GUEST(%d):;
#X obj 398 399 list prepend null;
#X obj 405 209 gate 1 0;
#X obj 405 234 t f 0;
#X obj 587 134 r myid;
#X obj 587 159 t b f;
#X obj 497 188 f;
#X obj 237 268 s2l;
#X obj 237 289 route bang;
#X obj 294 310 t 1;
#X obj 237 310 t 0;
#X obj 237 342 gate 1 0;
#X msg 40 49 Click here to chat while online. Press return to send.
Chat will appear in the console., f 32;
#X obj 405 138 pipe 0;
#X obj 405 114 t 0 1;
#X obj 96 342 r local-report-request;
#X obj 192 499 s local-report-response;
#X obj 497 210 sprintf USER-%d(%d):;
#X obj 487 159 t f f;
#X obj 192 472 list prepend session-title;
#X obj 282 234 t s s s;
#X obj 192 388 symbol;
#X text 257 138 ugly workaround for the loadbang myclientnum -1 value
stored in the pd network-io, f 24;
#X msg 405 52 \$1;
#X connect 0 0 23 0;
#X connect 2 0 3 0;
#X connect 3 0 4 0;
#X connect 4 0 1 0;
#X connect 5 0 31 0;
#X connect 6 0 8 0;
#X connect 7 0 34 0;
#X connect 9 0 25 0;
#X connect 9 1 29 0;
#X connect 10 0 13 1;
#X connect 11 0 12 1;
#X connect 12 0 6 0;
#X connect 13 0 14 0;
#X connect 14 0 11 0;
#X connect 14 1 13 0;
#X connect 15 0 16 0;
#X connect 16 0 17 0;
#X connect 16 1 28 1;
#X connect 17 0 28 0;
#X connect 18 0 19 0;
#X connect 19 0 21 0;
#X connect 19 1 20 0;
#X connect 20 0 22 0;
#X connect 21 0 22 0;
#X connect 22 0 12 0;
#X connect 23 0 2 0;
#X connect 24 0 13 0;
#X connect 25 0 24 0;
#X connect 25 1 13 0;
#X connect 26 0 32 0;
#X connect 28 0 12 1;
#X connect 29 1 17 1;
#X connect 30 0 27 0;
#X connect 31 0 22 1;
#X connect 31 1 18 0;
#X connect 31 2 32 1;
#X connect 32 0 30 0;
#X connect 34 0 9 0;
#X restore 401 23 pd chat-logic;
#X obj 17 52 loadbang;
#X msg 17 77 \; pd dsp 1;
#N canvas 475 62 948 968 load-save-session 0;
#X obj 57 205 route report;
#X obj 305 294 patch_name 1;
#X msg 603 79 clear;
#X obj 96 432 list prepend, f 14;
#X obj 177 251 counter;
#X obj 57 184 gate 1 0;
#X msg 304 371 dump;
#X obj 305 34 r load-session;
#X obj 57 125 t b 0;
#X obj 51 458 r network-status;
#X obj 51 523 + 1;
#X obj 51 549 gate 2 1;
#X obj 162 851 s network-in;
#X obj 618 302 patch_name 1;
#X obj 618 171 gate 1 0;
#X obj 305 221 symbol;
#X obj 675 171 r session-name-s;
#X obj 305 316 pack s s;
#X obj 618 324 pack s s;
#X obj 618 236 symbol, f 10;
#X obj 525 469 loadbang;
#X obj 573 513 s session-name-r;
#X text 573 535 set up the default session name;
#X obj 558 101 s local-report-request;
#X obj 102 34 r local-report-response;
#X obj 259 805 list trim;
#X msg 573 491 symbol jamminlicious-002;
#X obj 543 34 r save-session;
#X text 157 458 only allow loading of session for all clients when
we are not connected to a server. Otherwise apply the session only
to the current client., f 52;
#X obj 565 635 + 1;
#X text 618 614 max users (not including guests);
#X obj 580 778 ==;
#X obj 520 832 gate 1 0;
#X text 536 565 open gate for the local tracker-time to be immediately
broadcast via internet (if connected) upon loading a session, f 42
;
#X msg 618 432 write \$1/sessions/\$2-session-coll.txt;
#X msg 344 371 clear \, read \$1/sessions/\$2-session-coll.txt;
#X obj 51 702 route session-title;
#X obj 282 779 list prepend;
#X obj 273 663 r myclientnum;
#X obj 51 877 list prepend loaded session titled:;
#X obj 51 899 list trim;
#X obj 51 921 print TWEETER;
#X obj 259 827 s chat-out;
#X msg 351 689 server user \$1 loaded session titled:, f 15;
#N canvas 840 353 435 318 open||browse 0;
#X obj 139 101 list length;
#X obj 139 79 s2l;
#X obj 112 32 inlet;
#X obj 67 247 outlet;
#X obj 112 57 t s s;
#X obj 139 126 > 0;
#X obj 67 196 gate 1 0;
#X obj 139 151 t f f;
#X obj 166 173 sel 0;
#X obj 166 219 openpanel;
#X obj 166 247 outlet;
#X obj 215 123 patch_name 1;
#X obj 215 101 loadbang;
#X obj 215 145 sprintf %s/sessions/;
#X obj 215 173 tosymbol;
#X obj 166 196 symbol;
#X connect 0 0 5 0;
#X connect 1 0 0 0;
#X connect 2 0 4 0;
#X connect 4 0 6 1;
#X connect 4 1 1 0;
#X connect 5 0 7 0;
#X connect 6 0 3 0;
#X connect 7 0 6 0;
#X connect 7 1 8 0;
#X connect 8 0 15 0;
#X connect 9 0 10 0;
#X connect 11 0 13 0;
#X connect 12 0 11 0;
#X connect 13 0 14 0;
#X connect 14 0 15 1;
#X connect 15 0 9 0;
#X restore 305 243 pd open||browse;
#X msg 431 326 clear \, read \$1;
#X msg 525 491 symbol;
#X obj 543 56 t b b 1 0 b 1;
#X obj 127 528 s local-save-complete;
#X obj 305 59 t b b;
#X obj 96 596 route session-title symbol;
#X msg 273 689 server user \$1 loaded nameless session, f 11;
#X obj 259 755 list prepend;
#X obj 172 619 t b;
#X obj 26 378 gate 1 0;
#X obj 26 403 t b 0;
#X obj 618 206 t b 0;
#X obj 96 505 coll;
#C restore;
#X obj 126 229 t b l l b;
#X obj 160 275 route 1;
#X obj 160 298 route reverb-type;
#X msg 160 321 1;
#X text 133 351 1 reverb-type is the last message that is received
\, so we monitor for it to know when to save the file, f 24;
#X msg 520 854 \; \$1-send-local-tracker-time-report 1;
#N canvas 1019 331 545 324 track-redraw 0;
#X obj 83 56 inlet;
#X obj 38 28 r network-status;
#X obj 78 213 + 1;
#X obj 38 83 gate 2 1;
#X obj 38 56 + 1;
#X msg 78 258 \; \$1-redraw-gui bang;
#X msg 139 188 redraw-gui;
#X obj 139 213 s client-out;
#X obj 38 188 kalashnikov 14;
#X text 149 53 client-out-parser inside network-io takes care of multiplying
this message for all parts currently controlled by this user. for local
stuff \, we need to do this manually., f 45;
#X obj 283 160 s get-all-local-parts-with-keyboard-on;
#X obj 283 182 r all-local-parts-with-keyboard-on;
#X obj 238 213 gate 1 0;
#X obj 139 120 t b 0 b 1;
#X connect 0 0 3 1;
#X connect 1 0 4 0;
#X connect 2 0 5 0;
#X connect 3 0 8 0;
#X connect 3 1 13 0;
#X connect 4 0 3 0;
#X connect 6 0 7 0;
#X connect 8 1 2 0;
#X connect 11 0 12 1;
#X connect 12 0 5 0;
#X connect 13 0 6 0;
#X connect 13 1 12 0;
#X connect 13 2 10 0;
#X connect 13 3 12 0;
#X restore 392 295 pd track-redraw;
#X obj 305 338 t b b l;
#X obj 525 614 kalashnikov 14;
#X obj 625 708 s get-all-local-parts-with-keyboard-on;
#X obj 625 730 r all-local-parts-with-keyboard-on;
#X obj 580 803 moses 1;
#N canvas 722 393 279 378 multipart-load 0;
#X obj 98 32 inlet;
#X obj 98 294 outlet;
#X obj 98 82 zl slice 1;
#X obj 98 272 list trim;
#X obj 98 250 list;
#X obj 98 57 t l l, f 15;
#X obj 98 151 - 1;
#X obj 98 107 t b f;
#X obj 98 176 text get myparts;
#X obj 98 201 + 1;
#X obj 98 228 gate 2 1, f 19;
#X connect 0 0 5 0;
#X connect 2 0 7 0;
#X connect 3 0 1 0;
#X connect 4 0 3 0;
#X connect 5 0 2 0;
#X connect 5 1 4 1;
#X connect 6 0 8 0;
#X connect 7 0 10 1;
#X connect 7 1 6 0;
#X connect 8 0 9 0;
#X connect 9 0 10 0;
#X connect 10 0 4 0;
#X restore 249 619 pd multipart-load;
#X obj 565 657 t f 0 b f 0 1;
#X obj 580 753 gate 1 0;
#N canvas 857 329 434 317 save||browse 0;
#X obj 139 101 list length;
#X obj 139 79 s2l;
#X obj 112 32 inlet;
#X obj 67 247 outlet;
#X obj 112 57 t s s;
#X obj 139 126 > 0;
#X obj 67 196 gate 1 0;
#X obj 139 151 t f f;
#X obj 166 173 sel 0;
#X obj 166 247 outlet;
#X obj 215 123 patch_name 1;
#X obj 215 101 loadbang;
#X obj 215 145 sprintf %s/sessions/;
#X obj 215 173 tosymbol;
#X obj 166 196 symbol;
#X obj 166 219 savepanel;
#X connect 0 0 5 0;
#X connect 1 0 0 0;
#X connect 2 0 4 0;
#X connect 4 0 6 1;
#X connect 4 1 1 0;
#X connect 5 0 7 0;
#X connect 6 0 3 0;
#X connect 7 0 6 0;
#X connect 7 1 8 0;
#X connect 8 0 14 0;
#X connect 10 0 12 0;
#X connect 11 0 10 0;
#X connect 12 0 13 0;
#X connect 13 0 14 1;
#X connect 14 0 15 0;
#X connect 15 0 9 0;
#X restore 618 258 pd save||browse;
#X obj 618 348 t l l;
#X msg 645 371 successfully saved local session \$1/sessions/\$2-session-coll.txt
, f 32;
#X obj 723 408 print;
#X obj 618 280 t b s s;
#X obj 305 265 t b b s;
#X obj 392 265 t b b s s;
#X msg 704 340 write \$1-session-coll.txt;
#X msg 723 304 successfully saved local session \$1-session-coll.txt
, f 32;
#X msg 743 492 \; session-name-r symbol \$1;
#N canvas 446 263 272 722 parse-filename 0;
#X obj 40 33 inlet;
#X obj 40 103 list fromsymbol;
#X obj 57 212 zl iter 1;
#X obj 110 270 counter;
#X obj 57 241 t f b;
#X obj 57 302 f;
#X obj 57 270 sel 47;
#X obj 40 334 f;
#X obj 40 133 t b l 0 l;
#X obj 40 388 list, f 13;
#X obj 40 361 t b f;
#X obj 40 415 list split;
#X obj 135 641 list tosymbol;
#X obj 135 666 outlet;
#X obj 30 510 t l l;
#X obj 57 535 list length;
#X obj 30 596 list split;
#X obj 57 560 - 17;
#X obj 200 33 inlet;
#X obj 40 58 t s 1;
#X obj 110 470 gate 2 1;
#X obj 200 58 t s 2;
#X connect 0 0 19 0;
#X connect 1 0 8 0;
#X connect 2 0 4 0;
#X connect 3 0 5 1;
#X connect 4 0 6 0;
#X connect 4 1 3 0;
#X connect 5 0 7 1;
#X connect 6 0 5 0;
#X connect 7 0 10 0;
#X connect 8 0 7 0;
#X connect 8 1 2 0;
#X connect 8 2 3 3;
#X connect 8 3 9 1;
#X connect 9 0 11 0;
#X connect 10 0 9 0;
#X connect 10 1 11 1;
#X connect 11 1 20 1;
#X connect 12 0 13 0;
#X connect 14 0 16 0;
#X connect 14 1 15 0;
#X connect 15 0 17 0;
#X connect 16 0 12 0;
#X connect 17 0 16 1;
#X connect 18 0 21 0;
#X connect 19 0 1 0;
#X connect 19 1 20 0;
#X connect 20 0 14 0;
#X connect 20 1 12 0;
#X connect 21 0 1 0;
#X connect 21 1 20 0;
#X restore 743 470 pd parse-filename;
#X obj 704 280 t s s s;
#X connect 0 1 58 0;
#X connect 1 0 17 0;
#X connect 2 0 57 0;
#X connect 3 0 57 0;
#X connect 4 0 3 1;
#X connect 5 0 0 0;
#X connect 6 0 57 0;
#X connect 7 0 49 0;
#X connect 8 0 14 1;
#X connect 8 1 5 0;
#X connect 9 0 10 0;
#X connect 10 0 11 0;
#X connect 11 0 36 0;
#X connect 11 1 50 0;
#X connect 13 0 18 0;
#X connect 14 0 56 0;
#X connect 15 0 44 0;
#X connect 16 0 15 1;
#X connect 16 0 19 1;
#X connect 17 0 65 0;
#X connect 18 0 74 0;
#X connect 19 0 73 0;
#X connect 20 0 46 0;
#X connect 24 0 5 1;
#X connect 25 0 42 0;
#X connect 26 0 21 0;
#X connect 27 0 47 0;
#X connect 29 0 71 0;
#X connect 31 0 69 0;
#X connect 32 0 63 0;
#X connect 34 0 57 0;
#X connect 35 0 57 0;
#X connect 36 0 39 0;
#X connect 36 1 12 0;
#X connect 37 0 25 0;
#X connect 38 0 51 0;
#X connect 38 0 43 0;
#X connect 39 0 40 0;
#X connect 40 0 41 0;
#X connect 43 0 37 1;
#X connect 44 0 78 0;
#X connect 44 1 79 0;
#X connect 45 0 57 0;
#X connect 46 0 21 0;
#X connect 47 1 23 0;
#X connect 47 2 5 0;
#X connect 47 3 4 2;
#X connect 47 4 2 0;
#X connect 47 5 14 0;
#X connect 49 0 15 0;
#X connect 49 1 8 0;
#X connect 50 0 37 0;
#X connect 50 1 53 0;
#X connect 50 2 70 0;
#X connect 51 0 52 1;
#X connect 52 0 25 0;
#X connect 53 0 52 0;
#X connect 54 0 55 0;
#X connect 55 0 8 0;
#X connect 55 1 54 0;
#X connect 56 0 19 0;
#X connect 56 1 14 0;
#X connect 57 0 11 1;
#X connect 57 2 48 0;
#X connect 58 0 54 1;
#X connect 58 1 3 0;
#X connect 58 2 59 0;
#X connect 58 3 4 0;
#X connect 59 0 60 0;
#X connect 60 0 61 0;
#X connect 61 0 54 0;
#X connect 65 0 6 0;
#X connect 65 1 66 0;
#X connect 65 2 35 0;
#X connect 66 1 29 0;
#X connect 68 0 72 1;
#X connect 69 1 32 0;
#X connect 70 0 12 0;
#X connect 71 0 32 1;
#X connect 71 1 72 0;
#X connect 71 2 67 0;
#X connect 71 3 31 1;
#X connect 71 4 32 0;
#X connect 71 5 72 0;
#X connect 72 0 31 0;
#X connect 73 0 77 0;
#X connect 73 1 84 0;
#X connect 74 0 34 0;
#X connect 74 1 75 0;
#X connect 75 0 76 0;
#X connect 77 0 13 0;
#X connect 77 1 18 1;
#X connect 78 0 64 0;
#X connect 78 1 1 0;
#X connect 78 2 17 1;
#X connect 79 0 64 0;
#X connect 79 1 6 0;
#X connect 79 2 45 0;
#X connect 79 3 83 0;
#X connect 80 0 57 0;
#X connect 81 0 76 0;
#X connect 83 0 82 0;
#X connect 84 0 80 0;
#X connect 84 1 81 0;
#X connect 84 2 83 1;
#X restore 359 52 pd load-save-session;
#N canvas 244 552 452 326 version 0;
#X obj 177 51 loadbang;
#X obj 177 101 t f f;
#X obj 204 125 s version;
#X obj 177 269 s title-version-r;
#X text 215 76 update version here;
#X floatatom 138 76 5 0 0 0 - - - 0 0 1, f 5;
#X msg 177 245 label \$1;
#X text 99 75 DEBUG;
#X obj 177 168 sprintf L2Ork Tweeter v.%.02f by;
#X obj 177 193 tosymbol;
#X msg 177 76 0.9;
#X connect 0 0 10 0;
#X connect 1 0 8 0;
#X connect 1 1 2 0;
#X connect 5 0 1 0;
#X connect 6 0 3 0;
#X connect 8 0 9 0;
#X connect 9 0 6 0;
#X connect 10 0 1 0;
#X restore 283 52 pd version;
#N canvas 608 189 896 717 local-copy-logic 0;
#X obj 22 22 r local-copyfrom-mode;
#X obj 210 22 r local-copyfrom-data;
#X obj 210 125 route 0;
#X obj 210 47 list trim;
#X obj 22 544 s network-in;
#X floatatom 22 47 5 0 0 0 - - - 0 0 1, f 5;
#X obj 22 381 route preset;
#X obj 103 381 route preset-all;
#X obj 208 381 route loop;
#X obj 297 381 route loop-all;
#X obj 22 359 gate 1 0;
#X obj 103 359 gate 1 0;
#X obj 208 359 gate 1 0;
#X obj 297 359 gate 1 0;
#X obj 156 220 t 1 0 0 0;
#X obj 217 220 t 0 0 1 0;
#X obj 278 220 t 1 0 1 0;
#X obj 339 220 t 1 1 0 0;
#X obj 473 220 t 1 1 1 1 b;
#X obj 503 289 f;
#X obj 503 333 s client-out;
#X text 277 47 we first do list trim since trimming is not taken care
of inside the net-io abstractions \, as this is a more efficient way
of doing the same. then \, we check for data that is prepended with
0 such data does not have copyfrom context set and therefore we ignore
it. see net-io abstractions and look for the \$5 argument for more
info., f 48;
#X obj 503 418 r network-in;
#X text 503 356 client number requesting copy will be added in network-io
subpatch. below \, we handle incoming messages which will be arriving
only for clients other than our own., f 46;
#X obj 647 566 route client2client;
#X obj 647 588 route time-sync;
#X obj 590 500 zl slice 1;
#X obj 647 610 pack f f, f 22;
#X msg 503 311 client2client time-sync \$1;
#X obj 400 220 t 0 0 1 1 b;
#X msg 647 637 \; \$1-copyfrom-tracker-position \$2;
#X msg 776 566 \$1;
#X obj 520 267 r local-copyfrom-client-num;
#X text 22 565 Copyfrom modes: 1 - single click - loop-all only (sync)2
- double click - loop3 - triple click - loop+loop-all4 - quadruple
click - everything5 - shift + single click - preset6 - shift + double
click - preset-all only7 - shift + triple click - preset+preset-all8
- shift + quadruple click - everything, f 49;
#X obj 22 145 select 1 2 3 4 5 6 7 8;
#X obj 95 220 t 0 1 0 0;
#X obj 22 220 t 0 0 0 1 b;
#X obj 503 443 route malformed symbol session-title;
#X obj 776 500 list length;
#X obj 776 544 gate 1 0;
#X obj 776 522 > 1;
#X obj 716 465 t a a a;
#X obj 776 588 route float;
#X obj 342 588 r local-copyfrom-client-num;
#X obj 297 612 pack 0 0;
#X obj 297 454 gate 1 0;
#X obj 297 403 route tracker-time tracker;
#X text 356 440 only seek sync ifplayback is enabled(track variable)
;
#X obj 22 522 list append;
#X obj 39 449 s get-all-local-parts-with-keyboard-on;
#X obj 39 470 r all-local-parts-with-keyboard-on;
#X obj 342 520 s get-all-local-parts-with-keyboard-on;
#X obj 342 541 r all-local-parts-with-keyboard-on;
#X msg 297 634 \; \$2-copyfrom-tracker-position \$1;
#X obj 297 478 t 0 b 1;
#X obj 297 566 gate 1 0;
#X obj 22 424 t 0 b l 1;
#X obj 22 498 gate 1 0;
#X connect 0 0 5 0;
#X connect 1 0 3 0;
#X connect 2 1 13 1;
#X connect 2 1 12 1;
#X connect 2 1 11 1;
#X connect 2 1 10 1;
#X connect 3 0 2 0;
#X connect 5 0 34 0;
#X connect 6 0 56 0;
#X connect 7 0 56 0;
#X connect 8 0 56 0;
#X connect 9 0 46 0;
#X connect 10 0 6 0;
#X connect 11 0 7 0;
#X connect 12 0 8 0;
#X connect 13 0 9 0;
#X connect 14 0 10 0;
#X connect 14 1 11 0;
#X connect 14 2 12 0;
#X connect 14 3 13 0;
#X connect 15 0 10 0;
#X connect 15 1 11 0;
#X connect 15 2 12 0;
#X connect 15 3 13 0;
#X connect 16 0 10 0;
#X connect 16 1 11 0;
#X connect 16 2 12 0;
#X connect 16 3 13 0;
#X connect 17 0 10 0;
#X connect 17 1 11 0;
#X connect 17 2 12 0;
#X connect 17 3 13 0;
#X connect 18 0 10 0;
#X connect 18 1 11 0;
#X connect 18 2 12 0;
#X connect 18 3 13 0;
#X connect 18 4 19 0;
#X connect 19 0 28 0;
#X connect 22 0 37 0;
#X connect 24 0 25 0;
#X connect 25 0 27 0;
#X connect 26 1 24 0;
#X connect 27 0 30 0;
#X connect 28 0 20 0;
#X connect 29 0 10 0;
#X connect 29 1 11 0;
#X connect 29 2 12 0;
#X connect 29 3 13 0;
#X connect 29 4 19 0;
#X connect 31 0 42 0;
#X connect 32 0 19 1;
#X connect 34 0 36 0;
#X connect 34 1 15 0;
#X connect 34 2 29 0;
#X connect 34 3 18 0;
#X connect 34 4 14 0;
#X connect 34 5 35 0;
#X connect 34 6 17 0;
#X connect 34 7 18 0;
#X connect 35 0 10 0;
#X connect 35 1 11 0;
#X connect 35 2 12 0;
#X connect 35 3 13 0;
#X connect 36 0 10 0;
#X connect 36 1 11 0;
#X connect 36 2 12 0;
#X connect 36 3 13 0;
#X connect 36 4 19 0;
#X connect 37 3 41 0;
#X connect 38 0 40 0;
#X connect 39 0 31 0;
#X connect 40 0 39 0;
#X connect 41 0 26 0;
#X connect 41 1 39 1;
#X connect 41 2 38 0;
#X connect 42 0 27 1;
#X connect 43 0 44 1;
#X connect 44 0 53 0;
#X connect 45 0 54 0;
#X connect 46 0 45 1;
#X connect 46 1 45 0;
#X connect 48 0 4 0;
#X connect 50 0 57 1;
#X connect 52 0 55 1;
#X connect 54 0 55 0;
#X connect 54 1 51 0;
#X connect 54 2 55 0;
#X connect 55 0 44 0;
#X connect 56 0 57 0;
#X connect 56 1 49 0;
#X connect 56 2 48 1;
#X connect 56 3 57 0;
#X connect 57 0 48 0;
#X restore 153 52 pd local-copy-logic;
#N canvas 727 338 450 252 init 0;
#X obj 24 85 tosymbol;
#X obj 24 147 s \$0-hostname-r;
#X obj 211 27 loadbang;
#X obj 211 206 s \$0-chat-r;
#X obj 211 110 tosymbol;
#X obj 211 132 list prepend set;
#X obj 211 154 list trim;
#X msg 211 62 Click here to chat while online. Press return to send.
Chat will appear in the console., f 32;
#X msg 24 63 pd-l2ork.bukvic.net:9002;
#X connect 0 0 1 0;
#X connect 2 0 7 0;
#X connect 2 0 8 0;
#X connect 4 0 5 0;
#X connect 5 0 6 0;
#X connect 6 0 3 0;
#X connect 7 0 4 0;
#X connect 8 0 0 0;
#X restore 437 81 pd init;
#N canvas 771 453 357 223 guest-stuff 0;
#X obj 102 86 r 0-remote-user-gui-update;
#X text 102 106 dummy receives to intercept guest data request and
prevent unnecessary error being printed into the console, f 27;
#X obj 102 46 r 0-override-solo;
#X obj 102 66 r 0-manual-toggle-tracker;
#X restore 336 81 pd guest-stuff;
#N canvas 808 359 383 413 editable 0;
#X msg 19 43 \; pd-L2Ork-Tweeter.pd editable 0;
#X obj 19 19 loadbang;
#X msg 19 355 \; pd-L2Ork-Tweeter.pd editable \$1;
#X obj 161 125 keyname 1;
#X obj 172 150 sel Shift;
#X msg 172 175 1;
#X msg 223 175 0;
#X obj 116 219 gate 1 0;
#X obj 259 125 keyname 1;
#X msg 270 175 1;
#X msg 333 175 0;
#X obj 214 219 gate 1 0;
#X obj 270 150 sel Control;
#X obj 19 256 expr \\$f1+$f2+$f3, f 33;
#X obj 19 281 == 3;
#X obj 19 306 sel 1;
#X obj 19 331 tgl 15 0 empty empty empty 17 7 0 10 #fffcfcfc #ff000000
#ff000000 1 1 1;
#X text 19 92 ctrl+shift+alt toggles editability (alt being last!)
;
#X obj 64 125 keyname 1;
#X msg 75 175 1;
#X msg 114 175 0;
#X obj 19 219 gate 1 0;
#X obj 75 150 sel Alt;
#X connect 1 0 0 0;
#X connect 3 0 7 1;
#X connect 3 1 4 0;
#X connect 4 0 5 0;
#X connect 4 1 6 0;
#X connect 5 0 7 0;
#X connect 6 0 7 0;
#X connect 7 0 13 1;
#X connect 8 0 11 1;
#X connect 8 1 12 0;
#X connect 9 0 11 0;
#X connect 10 0 11 0;
#X connect 11 0 13 2;
#X connect 12 0 9 0;
#X connect 12 1 10 0;
#X connect 13 0 14 0;
#X connect 14 0 15 0;
#X connect 15 0 16 0;
#X connect 16 0 2 0;
#X connect 18 0 21 1;
#X connect 18 1 22 0;
#X connect 19 0 21 0;
#X connect 20 0 21 0;
#X connect 21 0 13 0;
#X connect 22 0 19 0;
#X connect 22 1 20 0;
#X restore 253 81 pd editable;
#N canvas 727 341 450 314 loop-preset-glob 0;
#X obj 74 63 r glob-recall-loop;
#X obj 234 63 r glob-store-loop;
#X obj 64 193 r glob-recall-preset;
#X obj 234 193 r glob-store-preset;
#X obj 261 112 s \$0-store-loop-r;
#X obj 74 88 t b f;
#X obj 234 88 t b f;
#X obj 234 137 s \$0-store-loop-apply-r;
#X obj 101 112 s \$0-recall-loop-r;
#X obj 74 137 s \$0-recall-loop-apply-r;
#X obj 234 218 t b f;
#X obj 64 218 t b f;
#X obj 91 242 s \$0-recall-preset-r;
#X obj 64 267 s \$0-recall-preset-apply-r;
#X obj 261 242 s \$0-store-preset-r;
#X obj 234 267 s \$0-store-preset-apply-r;
#X text 66 18 translator for external widgets that offer a largernumber
of easy-to-access presets and loops;
#X connect 0 0 5 0;
#X connect 1 0 6 0;
#X connect 2 0 11 0;
#X connect 3 0 10 0;
#X connect 5 0 9 0;
#X connect 5 1 8 0;
#X connect 6 0 7 0;
#X connect 6 1 4 0;
#X connect 10 0 15 0;
#X connect 10 1 14 0;
#X connect 11 0 13 0;
#X connect 11 1 12 0;
#X restore 122 81 pd loop-preset-glob;
#X connect 5 0 6 0;
#X restore 1586 3 pd core;
#X obj 1101 3 hsl 229 17 1 101 1 1 main-out-multiplier main-out-multiplier-r
LOCAL\ MAIN\ OUT -90 6 0 10 #ff80fc80 #ff008000 #ffffffff 22800 1 0
1;
#X obj 561 3 cnv 15 19 16 empty empty For\ latest\ updates\ visit\ the\ project
4 6 0 10 #ff6c6c6c #fffcfcfc 0;
#X text 1103 3 MIN;
#X text 1312 3 MAX;
#X symbolatom 1478 42 21 0 0 0 - session-name-r session-name-s 1 0
1, f 21;
#N canvas 1372 149 146 180 widgets 0;
#X obj 0 0 cnv 15 149 176 empty empty empty 20 12 0 14 #ffe0e0e0 #ff404040
0;
#X text 12 105 PERFORMER:;
#X text 12 12 CONDUCTOR:;
#X obj 12 32 pddplink admin/L2Ork-Tweeter-Teacher.pd -text Teacher
;
#X obj 12 124 pddplink widgets/Loop-Preset-Matrix.pd -text Loop Preset
Matrix;
#X obj 13 53 pddplink admin/DISIS-Dante-Out-Controls.pd -text DISIS
Dante Out;
#X obj 12 144 pddplink widgets/sync-controls/Sync-Controls.pd -text
Sync Controls;
#X obj 13 73 pddplink widgets/part-mapper/Part-Mapper.pd -text Part
Mapper;
#X restore 1519 3 pd widgets;
#N canvas 712 186 500 647 supplemental-documentation 0;
#X obj 0 0 cnv 15 512 651 empty empty empty 20 12 0 14 #ffe0e0e0 #ff404040
0;
#X obj 8 576 cnv 15 65 17 empty empty empty 20 12 0 14 #fffcb46c #ff404040
0;
#X obj 8 379 cnv 15 154 17 empty empty empty 20 12 0 14 #fffcb46c #ff404040
0;
#X obj 8 329 cnv 15 52 17 empty empty empty 20 12 0 14 #fffcb46c #ff404040
0;
#X obj 8 266 cnv 15 112 17 empty empty empty 20 12 0 14 #fffcb46c #ff404040
0;
#X obj 8 81 cnv 15 106 17 empty empty empty 20 12 0 14 #fffcb46c #ff404040
0;
#X text 8 11 Please consider viewing the introductory video found at:
;
#X obj 7 31 pddp/pddplink http://bit.ly/L2Ork-Tweeter;
#X text 8 81 Instrument Levels;
#X text 8 266 Instrument Presets;
#X text 8 287 Shift+Up/Down: increase/decrease preset instrument number
and immediately apply it., f 82;
#X text 8 329 Main Mix;
#X text 8 350 Left/Right: incrementally change the panning of the main
output., f 82;
#X text 8 235 Shift+Backslash (or |): set instrument output level to
one or 100% (unity)., f 82;
#X text 8 101 ' (key next to Return): set instrument output level to
zero (OVR/LVL slider). Repeat press sets it temporarily to the last
known value \, while upon release it reverts to zero., f 82;
#X text 9 576 Hover Mode;
#X text 9 597 When hover mode is enabled \, you can enter notes anywhere
on the tracker timeline regardless where the timebar is currently located.
Delete \, shift+delete \, and ~ (insert) also work in this mode.,
f 82;
#X text 8 51 Below is a list of additional commands that are not clearly
annotated elsewhere., f 82;
#X text 8 148 Return or Enter: set instrument output level to the last
known value (OVR/LVL slider). Repeat press sets it temporarily to zero
\, while upon release it reverts to the last known value. When holding
Return/Enter pressed during changing of instruments (e.g. \, using
shift+up/down) \, the instrument will remain silent until the Return/Enter
key is released \, at which point \, the level will revert to the new
instrument's value., f 82;
#X text 8 456 single click - loop sync (play on/off and time bar location)double
click - loop contents and lengthtriple click - loop sync and contents
and lengthquadruple click - everything (loop \, loop sync \, preset
\, main out \, and pan)shift + single click - preset (instrument)shift
+ double click - main out and pan valuesshift + triple click - preset
and main out and pan valuesshift + quadruple click - everything (loop
\, loop sync \, preset \, main out \, and pan), f 82;
#X text 8 379 Sharing Loops and Presets;
#X text 8 400 You can easily share your presets and loops with others.
To do so \, you will want to click on the user number you wish to copy
instrument and/or loop from \, using one of the following clicking
actions that need to be performed within the 500ms of initiating the
first click:, f 82;
#X restore 1338 3 pd supplemental-documentation;
#X obj 820 823 core/L2OrkTweet 13;
#X obj 820 974 core/L2OrkTweet 14;
#X obj 411 43 tgl 15 0 glob-multi-lp glob-multi-pl-r empty 17 7 0 10
#FFFCB46C #FF000000 #FF000000 0 1 1;
#X obj 405 28 cnv 8 8 8 empty empty MULTI -1 5 0 10 #ff6c6c6c #fffcfcfc
0;
#X obj 788 3 pddp/pddplink https://l2ork.bukvic.net/main/make-your-own-l2ork/tweeter/
-text website;
