#N canvas 1281 353 349 456 10;
#X obj 40 299 f, f 8;
#X obj 40 237 sel 1;
#X obj 40 215 ==;
#X obj 112 153 gate 1 0;
#X obj 28 52 route \$1;
#X obj 28 29 inlet;
#X obj 40 408 s network-in;
#X obj 28 75 unpack 0 0;
#X obj 112 121 >= 0.1;
#X text 100 75 0 for level disables previous request;
#X obj 85 98 t f f;
#X obj 157 121 r \$1-tracker-sync;
#X obj 112 175 change -1;
#X obj 40 259 t b 0;
#X obj 40 324 moses 0.1;
#X obj 40 383 list prepend \$1;
#X obj 40 361 list prepend overdrive;
#X connect 0 0 14 0;
#X connect 1 0 13 0;
#X connect 2 0 1 0;
#X connect 3 0 12 0;
#X connect 4 0 7 0;
#X connect 5 0 4 0;
#X connect 7 0 2 1;
#X connect 7 1 10 0;
#X connect 8 0 3 0;
#X connect 10 0 0 1;
#X connect 10 1 8 0;
#X connect 11 0 3 1;
#X connect 12 0 2 0;
#X connect 13 0 0 0;
#X connect 13 1 3 0;
#X connect 14 1 16 0;
#X connect 15 0 6 0;
#X connect 16 0 15 0;
