#N canvas 284 180 1338 691 10;
#X obj 17 257 bng 23 250 50 0 empty empty empty 17 7 0 10 #fffcfcfc
#ff000000 #ff000000 1;
#X obj 9 138 cnv 15 814 148 empty empty empty 20 12 0 14 #ff8080c0
#ff404040 0;
#X obj 549 143 cnv 15 268 108 empty empty empty 20 12 0 14 #ffa8a8d4
#ff404040 0;
#X obj 230 143 cnv 15 313 108 empty empty empty 20 12 0 14 #ffbcbcdc
#ff404040 0;
#X obj 16 143 cnv 15 207 108 empty empty empty 20 12 0 14 #ffa8a8d4
#ff404040 0;
#X obj 127 145 cnv 15 94 70 empty empty empty 20 12 0 14 #ff9898cc
#ff404040 0;
#N canvas 0 22 450 300 (subpatch) 0;
#X array \$1-amp-envelope 100 float 6 #0080ff #0080ff;
#X coords 0 1 100 0 140 51 1;
#X restore 235 176 graph;
#X dropdown 235 156 6 0 0 2 - - - 1, f 6;
#X dropdown 292 156 6 0 0 2 - - - 1, f 6;
#N canvas 0 22 450 300 (subpatch) 0;
#X array \$1-mod-envelope 100 float 6 #ff8080 #ff8080;
#X coords 0 1 100 0 140 51 1;
#X restore 381 176 graph;
#X obj 349 157 nbx 5 14 1 1e+37 0 1 \$1-note-dur null-r ms 0 6 0 8
#fffcb46c #ff000000 #ff000000 2000 256 1 1 1 0;
#X obj 409 157 nbx 5 14 0 99999 0 1 \$1-harmonicity null-r empty 0
-7 0 12 #fffcb46c #ff000000 #ff000000 40 256 0 1 1 1;
#X obj 469 157 nbx 5 14 1 9999 0 1 \$1-mod-amp null-r empty 0 -7 0
12 #fffcb46c #ff000000 #ff000000 1000 256 0 1 1 1;
#X obj 18 234 tgl 15 0 \$1-tracker \$1-manual-toggle-tracker PLAY(tab)
17 6 0 10 #fffcb46c #ff000000 #ff000000 0 1 1;
#X obj 18 199 tgl 15 0 \$1-loop null-r LOOP(alt) 17 6 0 10 #fffcb46c
#ff000000 #ff000000 0 1 1;
#X obj 18 145 tgl 15 0 \$1-toggle-keyboard \$1-manual-toggle-keyboard
KEYBOARD(ctrl) 17 6 0 10 #fffc6418 #ff000000 #ff000000 1 1 1;
#N canvas 793 437 521 278 REVERB 0;
#X obj 45 181 freeverb~;
#N canvas 3 75 470 252 reverb_levels 0;
#X msg 173 175 roomsize 0.98 \, wet 0.7 \, dry 0.5 \, width 0 \, damping
0.7;
#X obj 56 27 loadbang;
#X obj 113 82 select 0 1 2 3;
#X msg 113 106 roomsize 0.4 \, wet 0.3 \, dry 0.7 \, width 0 \, damping
0.5;
#X msg 133 129 roomsize 0.6 \, wet 0.5 \, dry 0.5 \, width 0 \, damping
0.3;
#X msg 153 152 roomsize 0.8 \, wet 0.6 \, dry 0.2 \, width 0 \, damping
0.7;
#X obj 113 27 inlet;
#X obj 113 222 outlet;
#X connect 0 0 7 0;
#X connect 1 0 3 0;
#X connect 2 0 3 0;
#X connect 2 1 4 0;
#X connect 2 2 5 0;
#X connect 2 3 0 0;
#X connect 3 0 7 0;
#X connect 4 0 7 0;
#X connect 5 0 7 0;
#X connect 6 0 2 0;
#X restore 62 154 pd reverb_levels;
#X obj 45 213 *~ 0.5;
#X obj 45 125 +~ 1e-07;
#X obj 195 90 hsl 55 17 0 1 0 1 empty empty LVL 22 6 0 10 #ff80fc80
#ff008000 #ff000000 3900 1 0 1;
#X obj 195 112 hradio 15 0 1 4 empty empty empty 0 -8 0 10 #fffcb46c
#fffc6418 #ff000000 2 1;
#X obj 45 99 *~;
#X obj 60 78 line~;
#X msg 60 57 \$1 10;
#X obj 45 26 r~ \$0-in;
#X obj 45 239 s~ \$0-reverb-out;
#X msg 243 27 set \$1;
#X obj 243 6 r \$0-set-node-context;
#X obj 195 50 preset_node null;
#X obj 305 50 preset_node null;
#X obj 246 214 net-io \$1 reverb-type 2 0 preset;
#X obj 246 172 net-io \$1 reverb-amp 0.722222 0 preset;
#X msg 303 117 interactive \$1;
#X obj 303 97 tgl 15 0 empty empty empty 17 7 0 10 #fffcfcfc #ff000000
#ff000000 1 1 1;
#X obj 303 75 r \$0-toggle-local;
#X connect 0 0 2 0;
#X connect 0 1 2 0;
#X connect 1 0 0 0;
#X connect 2 0 10 0;
#X connect 3 0 0 0;
#X connect 4 0 8 0;
#X connect 4 0 13 0;
#X connect 4 0 16 0;
#X connect 5 0 1 0;
#X connect 5 0 14 0;
#X connect 5 0 15 0;
#X connect 6 0 3 0;
#X connect 7 0 6 1;
#X connect 8 0 7 0;
#X connect 9 0 6 0;
#X connect 11 0 13 0;
#X connect 11 0 14 0;
#X connect 12 0 11 0;
#X connect 13 0 4 0;
#X connect 14 0 5 0;
#X connect 15 0 5 0;
#X connect 16 0 4 0;
#X connect 17 0 4 0;
#X connect 17 0 5 0;
#X connect 18 0 17 0;
#X connect 19 0 18 0;
#X coords 0 -1 1 1 68 61 1 191 70;
#X restore 550 189 pd REVERB;
#N canvas 783 363 450 323 DRY 0;
#X obj 182 91 hsl 55 17 0 1 0 1 empty empty LVL 22 6 0 10 #ff80fc80
#ff008000 #ff000000 5400 1 0 1;
#X obj 62 169 *~;
#X obj 79 148 line~;
#X msg 79 127 \$1 10;
#X obj 62 26 r~ \$0-in;
#X obj 62 239 s~ \$0-dry-out;
#X msg 182 30 set \$1;
#X obj 182 9 r \$0-set-node-context;
#X obj 182 50 preset_node null;
#X obj 247 156 net-io \$1 dry-amp 1 0 preset;
#X msg 328 57 interactive \$1;
#X obj 328 37 tgl 15 0 empty empty empty 17 7 0 10 #fffcfcfc #ff000000
#ff000000 1 1 1;
#X obj 328 15 r \$0-toggle-local;
#X connect 0 0 3 0;
#X connect 0 0 8 0;
#X connect 0 0 9 0;
#X connect 1 0 5 0;
#X connect 2 0 1 1;
#X connect 3 0 2 0;
#X connect 4 0 1 0;
#X connect 6 0 8 0;
#X connect 7 0 6 0;
#X connect 8 0 0 0;
#X connect 9 0 0 0;
#X connect 10 0 0 0;
#X connect 11 0 10 0;
#X connect 12 0 11 0;
#X coords 0 -1 1 1 68 42 1 178 70;
#X restore 550 144 pd DRY;
#X text 349 142 NOTE DUR;
#X text 473 142 MOD AMP;
#X obj 16 256 cnv 15 23 25 null-s \$1-instance-gui 0 6 9 0 18 #ff202020
#fffcfcfc 0;
#N canvas 920 340 379 349 octave-logic 0;
#X obj 274 78 sel Up Down;
#X msg 248 165 -12;
#X msg 209 165 12;
#X obj 209 140 sel 0;
#X obj 208 117 f;
#X obj 248 140 sel 0;
#X obj 248 117 f;
#X obj 223 78 t f f;
#X obj 118 251 outlet;
#X obj 163 197 gate 1 0;
#X obj 80 165 r \$0-toggle-local;
#X obj 223 56 keyname 1;
#X obj 118 228 gate 1 0;
#X obj 32 197 r \$1-toggle-keyboard;
#X connect 0 0 4 0;
#X connect 0 1 6 0;
#X connect 1 0 9 1;
#X connect 2 0 9 1;
#X connect 3 0 2 0;
#X connect 4 0 3 0;
#X connect 5 0 1 0;
#X connect 6 0 5 0;
#X connect 7 0 4 1;
#X connect 7 1 6 1;
#X connect 9 0 12 1;
#X connect 10 0 9 0;
#X connect 11 0 7 0;
#X connect 11 1 0 0;
#X connect 12 0 8 0;
#X connect 13 0 12 0;
#X restore 17 90 pd octave-logic;
#N canvas 380 204 475 427 ECHO 0;
#X obj 20 354 *~ 0.5;
#X obj 47 272 delwrite~ \$0-delread_ex 2000;
#X obj 160 107 hsl 55 17 0 0.999 0 1 \$0-s-null \$0-r-null FB 24 7
0 10 #fffcb46c #fffc6418 #ff000000 3950 1 0 1;
#X obj 223 272 vd~ \$0-delread_ex;
#X obj 223 251 line~;
#X obj 160 63 hsl 55 17 0 1 0 0 empty empty LVL 22 6 0 10 #ff80fc80
#ff008000 #ff000000 1700 1 0 1;
#X obj 20 203 *~;
#X obj 35 182 line~;
#X msg 35 161 \$1 10;
#X msg 223 230 \$1 10;
#X msg 363 264 \$1 10;
#X obj 363 286 line~;
#X obj 223 309 *~;
#X obj 160 87 nbx 5 16 0.001 9999 0 1 empty empty ms 1 7 0 8 #fffcb46c
#ff000000 #ff000000 250 256 1 1 1 0;
#X text 135 87 ms;
#X obj 20 43 r~ \$0-in;
#X obj 20 385 s~ \$0-echo-out;
#X obj 267 93 net-io \$1 echo-amp 0 0 preset;
#X obj 267 179 net-io \$1 echo-fb 0 0 preset;
#X obj 267 136 net-io \$1 echo-ms 0 0 preset;
#X msg 291 50 set \$1;
#X obj 291 29 r \$0-set-node-context;
#X obj 270 4 preset_node null;
#X obj 160 4 preset_node null;
#X obj 50 4 preset_node null;
#X msg 91 219 interactive \$1;
#X obj 91 199 tgl 15 0 empty empty empty 17 7 0 10 #fffcfcfc #ff000000
#ff000000 1 1 1;
#X obj 91 177 r \$0-toggle-local;
#X connect 0 0 16 0;
#X connect 2 0 10 0;
#X connect 2 0 24 0;
#X connect 2 0 18 0;
#X connect 3 0 12 0;
#X connect 4 0 3 0;
#X connect 5 0 8 0;
#X connect 5 0 23 0;
#X connect 5 0 17 0;
#X connect 6 0 0 0;
#X connect 6 0 1 0;
#X connect 7 0 6 1;
#X connect 8 0 7 0;
#X connect 9 0 4 0;
#X connect 10 0 11 0;
#X connect 11 0 12 1;
#X connect 12 0 0 0;
#X connect 12 0 1 0;
#X connect 13 0 9 0;
#X connect 13 0 22 0;
#X connect 13 0 19 0;
#X connect 15 0 6 0;
#X connect 17 0 5 0;
#X connect 18 0 2 0;
#X connect 19 0 13 0;
#X connect 20 0 22 0;
#X connect 20 0 23 0;
#X connect 20 0 24 0;
#X connect 21 0 20 0;
#X connect 22 0 13 0;
#X connect 23 0 5 0;
#X connect 24 0 2 0;
#X connect 25 0 5 0;
#X connect 25 0 13 0;
#X connect 25 0 2 0;
#X connect 26 0 25 0;
#X connect 27 0 26 0;
#X coords 0 -1 1 1 68 106 1 156 42;
#X restore 621 144 pd ECHO;
#N canvas 727 338 450 300 keyboard-logic 0;
#X obj 230 92 sel 1;
#X obj 230 113 symbol;
#X obj 230 209 outlet;
#X obj 185 166 gate 1 0;
#X obj 102 134 r \$0-toggle-local;
#X obj 230 134 sel Control;
#X obj 230 71 keyname;
#X connect 0 0 1 0;
#X connect 1 0 5 0;
#X connect 3 0 2 0;
#X connect 4 0 3 0;
#X connect 5 0 3 1;
#X connect 6 0 0 0;
#X connect 6 1 1 1;
#X restore 17 112 pd keyboard-logic;
#N canvas 1081 237 668 730 OUT 0;
#X obj 10 126 *~;
#X obj 10 92 z~ 64;
#X obj 57 92 limiter~;
#X msg 69 69 compress 98 88 0.5;
#X obj 13 702 dac~;
#N canvas 0 22 271 201 level 0;
#X obj 49 8 inlet~;
#X obj 48 156 *~;
#X obj 152 8 inlet;
#X obj 152 124 line~;
#X obj 48 179 outlet~;
#X obj 152 58 / 100;
#X msg 152 102 \$1 50;
#X obj 152 80 pow 2;
#X connect 0 0 1 0;
#X connect 1 0 4 0;
#X connect 2 0 5 0;
#X connect 3 0 1 1;
#X connect 5 0 7 0;
#X connect 6 0 3 0;
#X connect 7 0 6 0;
#X restore 10 45 pd level;
#X obj 69 45 loadbang;
#X obj 481 69 sig~ 1;
#X obj 481 114 snapshot~;
#X obj 527 69 loadbang;
#X obj 481 136 change;
#X obj 481 158 s pd-l2ork-k12_main_out;
#X text 417 48 logic for detecting dsp status on startup;
#X obj 527 91 delay 10;
#X obj 341 248 hsl 40 15 0 1.5708 0 1 empty empty empty 12 6 0 10 #fffcb46c
#fffc6418 #ff000000 1950 0 0 1;
#X obj 13 446 *~;
#X obj 50 446 *~;
#X obj 28 408 line~;
#X obj 105 408 line~;
#X msg 28 386 \$1 10;
#X msg 105 386 \$1 10;
#X obj 28 364 cos;
#X obj 105 364 sin;
#X msg 379 138 0.7854;
#X obj 341 181 vsl 45 58 0 100 0 1 empty empty LVL 14 28 0 10 #ff80fc80
#ff008080 #ff000000 0 1 0 1;
#X text 341 247 L;
#X text 376 247 R;
#X obj 10 11 r~ \$0-dry-out;
#X obj 96 12 r~ \$0-reverb-out;
#X obj 292 12 r~ \$0-flanger-out;
#X obj 200 12 r~ \$0-echo-out;
#X obj 430 232 net-io \$1 out-amp 0 0 preset-all;
#X obj 430 275 net-io \$1 out-pan 0 0 preset-all;
#X msg 459 343 set \$1;
#X obj 459 322 r \$0-set-node-context;
#X obj 304 92 preset_node null;
#X obj 304 114 preset_node null;
#X obj 10 332 *~;
#X obj 27 307 line~;
#X msg 27 285 \$1 10;
#X obj 27 223 loadbang;
#X msg 27 244 1;
#X obj 256 379 f;
#X obj 256 401 == 0;
#X obj 256 422 gate 1 0;
#X obj 255 307 r \$0-main-out-override;
#X obj 255 349 t 28.0702 b;
#X obj 255 328 route bang;
#N canvas 719 335 450 300 pan-logic 0;
#X obj 319 37 keyname 1;
#X obj 319 58 sel 1;
#X obj 319 79 symbol;
#X obj 233 37 keyname 1;
#X obj 233 58 sel 1;
#X obj 233 79 symbol;
#X obj 233 151 +;
#X obj 358 125 inlet;
#X obj 143 237 outlet;
#X obj 188 183 gate 1 0;
#X obj 105 151 r \$0-toggle-local;
#X obj 143 214 gate 1 0;
#X obj 57 183 r \$1-toggle-keyboard;
#X obj 233 100 sel Left;
#X obj 319 100 sel Right;
#X msg 233 125 -0.05;
#X msg 319 125 0.05;
#X connect 0 0 1 0;
#X connect 0 1 2 1;
#X connect 1 0 2 0;
#X connect 2 0 14 0;
#X connect 3 0 4 0;
#X connect 3 1 5 1;
#X connect 4 0 5 0;
#X connect 5 0 13 0;
#X connect 6 0 9 1;
#X connect 7 0 6 1;
#X connect 9 0 11 1;
#X connect 10 0 9 0;
#X connect 11 0 8 0;
#X connect 12 0 11 0;
#X connect 13 0 15 0;
#X connect 14 0 16 0;
#X connect 15 0 6 0;
#X connect 16 0 6 0;
#X restore 257 161 pd pan-logic;
#N canvas 727 338 450 300 DISIS-dac~ 0;
#X obj 32 243 dac~ 1 2 5 6 17 18;
#X obj 191 88 r main-out-dante;
#X obj 191 154 line~;
#X msg 191 132 \$1 10;
#X obj 191 110 sin;
#X obj 296 154 line~;
#X msg 296 132 \$1 10;
#X obj 296 110 sin;
#X obj 32 183 *~;
#X obj 116 214 *~;
#X obj 143 214 *~;
#X obj 74 183 *~;
#X obj 296 88 r main-sub-out-dante;
#X obj 32 35 inlet~;
#X obj 74 35 inlet~;
#X connect 1 0 4 0;
#X connect 2 0 8 1;
#X connect 2 0 11 1;
#X connect 3 0 2 0;
#X connect 4 0 3 0;
#X connect 5 0 10 1;
#X connect 5 0 9 1;
#X connect 6 0 5 0;
#X connect 7 0 6 0;
#X connect 8 0 0 0;
#X connect 8 0 0 3;
#X connect 9 0 0 4;
#X connect 10 0 0 5;
#X connect 11 0 0 1;
#X connect 11 0 0 2;
#X connect 12 0 7 0;
#X connect 13 0 8 0;
#X connect 13 0 9 0;
#X connect 14 0 11 0;
#X connect 14 0 10 0;
#X restore 49 702 pd DISIS-dac~;
#X obj 335 379 r main-out-multiplier;
#X obj 335 401 expr ($f1-1)/100;
#X msg 335 423 \$1 10;
#X obj 335 445 line~;
#X obj 13 486 *~;
#X obj 50 486 *~;
#X msg 196 91 interactive \$1;
#X obj 196 71 tgl 15 0 empty empty empty 17 7 0 10 #fffcfcfc #ff000000
#ff000000 1 1 1;
#X obj 196 49 r \$0-toggle-local;
#N canvas 727 397 455 490 main-disis-mix 0;
#X obj 18 21 inlet~;
#X obj 330 21 inlet~;
#X obj 18 417 matrix~ 1 2 1;
#X obj 330 417 matrix~ 1 2 1;
#X obj 38 70 r main-out-dante;
#X obj 64 92 r main-sub-out-dante;
#X obj 64 114 t b f;
#X obj 38 156 +;
#X floatatom 38 181 5 0 0 0 - - - 0 0 1, f 5;
#X obj 38 215 > 0;
#X obj 119 114 loadbang;
#X obj 18 446 outlet~;
#X obj 330 446 outlet~;
#X obj 78 446 outlet~;
#X obj 390 446 outlet~;
#X msg 119 139 0;
#X obj 38 275 t b b;
#X obj 180 275 t b b;
#X obj 38 240 sel 0 1;
#X msg 38 304 0 0 1 50 \, 0 1 0 50, f 10;
#X msg 109 304 0 0 1 50 \, 0 1 0 50, f 10;
#X msg 180 304 0 0 0 50 \, 0 1 1 50, f 10;
#X msg 251 304 0 0 0 50 \, 0 1 1 50, f 10;
#X connect 0 0 2 0;
#X connect 1 0 3 0;
#X connect 2 0 11 0;
#X connect 2 1 12 0;
#X connect 3 0 13 0;
#X connect 3 1 14 0;
#X connect 4 0 7 0;
#X connect 5 0 6 0;
#X connect 6 0 7 0;
#X connect 6 1 7 1;
#X connect 7 0 8 0;
#X connect 8 0 9 0;
#X connect 9 0 18 0;
#X connect 10 0 15 0;
#X connect 15 0 8 0;
#X connect 16 0 19 0;
#X connect 16 1 20 0;
#X connect 17 0 21 0;
#X connect 17 1 22 0;
#X connect 18 0 16 0;
#X connect 18 1 17 0;
#X connect 19 0 2 0;
#X connect 20 0 3 0;
#X connect 21 0 2 0;
#X connect 22 0 3 0;
#X restore 13 666 pd main-disis-mix;
#X obj 89 223 r solo;
#N canvas 643 168 821 724 filter-local 0;
#X obj 274 19 inlet;
#X obj 283 689 outlet;
#X obj 301 55 r \$1-myclientnum;
#X obj 274 79 route;
#X obj 204 654 expr 1-$f1;
#X obj 244 109 moses 1;
#X text 49 79 the command is coming from this part;
#X obj 19 548 gate 1 0;
#X msg 19 520 1;
#X text 64 149 the command will arrive here before it is sent via a
send to change the solo status and generate output from the receive
below, f 35;
#X obj 19 570 t f 0;
#X obj 64 206 r any-local-parts-with-solo-enabled;
#X text 75 519 if we are turning solo off and are the last one to do
so \, we should still output audio for this one. however \, if there
are oters still active among the parts that belong to this particular
user \, the level should be 0 \, since the other part should be still
solo-ed out, f 32;
#X text 313 79 the command is coming from another part (that canstill
be owned by this user);
#X obj 301 181 text get myparts;
#X obj 301 157 - 1;
#X obj 301 109 unpack 0 0;
#X obj 301 328 f;
#X obj 318 304 r \$1-toggle-solo;
#X obj 301 351 moses 1;
#X obj 301 204 expr 2-($f1*2)+$f2;
#X obj 301 229 > 1;
#X obj 301 254 sel 1;
#X text 344 239 0 = NOT our part that has solo OFF1 = NOT our part
that has solo ON2 = OUR part that has solo OFF3 = OUR part that has
solo ON;
#X text 410 180 outputs 0 if it is our part and 1 if it is not;
#X obj 340 380 t b;
#X obj 340 405 \$1;
#X obj 340 430 - 1;
#X obj 340 455 text get myparts;
#X obj 340 480 moses 1;
#X msg 340 535 1;
#X text 454 329 4 conditions (with one sub-condition):other part is
also a part of this user or not (P/p)the other part has solo or not
(S/s)PS > check if we have solo and are a local part \, and if so
\, make us audible. otherwise mute.Ps > check if we have solo and
are a local part \, and if so \, make us audible. otherwise \, check
if any other part of this user has solo enabled and if yes \, mute
us. otherwise make us audible.pS > ignoreps > ignore;
#X connect 0 0 3 0;
#X connect 2 0 3 1;
#X connect 3 0 5 0;
#X connect 3 1 16 0;
#X connect 4 0 1 0;
#X connect 5 0 8 0;
#X connect 5 1 1 0;
#X connect 7 0 10 0;
#X connect 8 0 7 0;
#X connect 10 0 4 0;
#X connect 10 1 7 0;
#X connect 11 0 7 1;
#X connect 14 0 20 0;
#X connect 15 0 14 0;
#X connect 16 0 15 0;
#X connect 16 1 20 1;
#X connect 17 0 19 0;
#X connect 18 0 17 1;
#X connect 19 0 8 0;
#X connect 19 1 25 0;
#X connect 20 0 21 0;
#X connect 21 0 22 0;
#X connect 22 0 17 0;
#X connect 25 0 26 0;
#X connect 26 0 27 0;
#X connect 27 0 28 0;
#X connect 28 0 29 0;
#X connect 29 0 30 0;
#X connect 29 1 8 0;
#X connect 30 0 1 0;
#X restore 89 244 pd filter-local;
#X msg 100 569 \$1 10;
#X obj 100 591 line~;
#X obj 100 487 r \$1-part-mixer;
#X obj 13 636 *~;
#X obj 50 636 *~;
#X obj 110 511 loadbang;
#X msg 110 536 1;
#X connect 0 0 37 0;
#X connect 1 0 0 0;
#X connect 2 0 0 1;
#X connect 3 0 2 0;
#X connect 5 0 1 0;
#X connect 5 0 2 0;
#X connect 6 0 3 0;
#X connect 7 0 8 0;
#X connect 8 0 10 0;
#X connect 9 0 13 0;
#X connect 10 0 11 0;
#X connect 13 0 8 0;
#X connect 14 0 21 0;
#X connect 14 0 22 0;
#X connect 14 0 36 0;
#X connect 14 0 32 0;
#X connect 14 0 48 0;
#X connect 15 0 54 0;
#X connect 16 0 55 0;
#X connect 17 0 15 1;
#X connect 18 0 16 1;
#X connect 19 0 17 0;
#X connect 20 0 18 0;
#X connect 21 0 19 0;
#X connect 22 0 20 0;
#X connect 23 0 14 0;
#X connect 24 0 5 1;
#X connect 24 0 35 0;
#X connect 24 0 42 1;
#X connect 24 0 31 0;
#X connect 27 0 5 0;
#X connect 28 0 5 0;
#X connect 29 0 5 0;
#X connect 30 0 5 0;
#X connect 31 0 24 0;
#X connect 32 0 14 0;
#X connect 33 0 35 0;
#X connect 33 0 36 0;
#X connect 34 0 33 0;
#X connect 35 0 24 0;
#X connect 36 0 14 0;
#X connect 37 0 15 0;
#X connect 37 0 16 0;
#X connect 38 0 37 1;
#X connect 39 0 38 0;
#X connect 40 0 41 0;
#X connect 41 0 39 0;
#X connect 42 0 43 0;
#X connect 43 0 44 0;
#X connect 44 0 24 0;
#X connect 45 0 47 0;
#X connect 46 0 44 1;
#X connect 46 1 42 0;
#X connect 47 0 46 0;
#X connect 48 0 14 0;
#X connect 50 0 51 0;
#X connect 51 0 52 0;
#X connect 52 0 53 0;
#X connect 53 0 55 1;
#X connect 53 0 54 1;
#X connect 54 0 65 0;
#X connect 55 0 66 0;
#X connect 56 0 24 0;
#X connect 56 0 14 0;
#X connect 57 0 56 0;
#X connect 58 0 57 0;
#X connect 59 0 4 0;
#X connect 59 1 4 1;
#X connect 59 2 49 0;
#X connect 59 3 49 1;
#X connect 60 0 61 0;
#X connect 61 0 39 0;
#X connect 62 0 63 0;
#X connect 63 0 66 1;
#X connect 63 0 65 1;
#X connect 64 0 62 0;
#X connect 65 0 59 0;
#X connect 66 0 59 1;
#X connect 67 0 68 0;
#X connect 68 0 62 0;
#X coords 0 -1 1 1 53 106 1 337 161;
#X restore 763 144 pd OUT;
#N canvas 697 197 675 422 FLANGER 0;
#X obj 20 354 *~ 0.5;
#X obj 160 63 hsl 55 17 0 1 0 1 empty empty LVL 22 6 0 10 #ff80fc80
#ff008080 #ff000000 1854 1 0 1;
#X obj 20 203 *~;
#X obj 35 182 line~;
#X msg 35 161 \$1 10;
#X obj 160 87 nbx 5 16 0.001 100 0 1 empty empty Hz 1 7 0 8 #fffcb46c
#ff000000 #ff000000 0.01 256 1 1 1 0;
#X obj 20 43 r~ \$0-in;
#X obj 48 271 delwrite~ \$0-delread_fl 2000;
#X obj 223 271 vd~ \$0-delread_fl;
#X obj 160 107 hsl 55 17 0 100 0 1 \$0-s-null \$0-r-null MOD\ AMP 10
7 0 10 #fffcb46c #fffc6418 #ff000000 1800 1 0 1;
#X obj 317 141 osc~ 1;
#X obj 317 216 *~;
#X msg 332 173 \$1 10;
#X obj 332 195 line~;
#X obj 223 246 +~;
#X obj 20 385 s~ \$0-flanger-out;
#X obj 223 176 + 3;
#X obj 160 128 nbx 5 16 0.001 50 0 1 empty empty ms 1 7 0 8 #fffcb46c
#ff000000 #ff000000 0.001 256 1 1 1 0;
#X obj 223 309 *~ 0.9;
#X obj 161 152 t b f;
#X text 136 87 Hz;
#X text 136 128 ms;
#X msg 408 33 set \$1;
#X obj 408 12 r \$0-set-node-context;
#X obj 270 14 preset_node null;
#X obj 160 14 preset_node null;
#X obj 50 14 preset_node null;
#X obj 270 44 preset_node null;
#X obj 394 118 net-io \$1 flanger-hz 0.01 0 preset;
#X obj 394 75 net-io \$1 flanger-amp 0.351852 0 preset;
#X obj 394 161 net-io \$1 flanger-mod-amp 33.3889 0 preset;
#X obj 394 204 net-io \$1 flanger-ms 0.001 0 preset;
#X msg 223 197 \$1 10;
#X obj 223 219 line~;
#X msg 372 295 interactive \$1;
#X obj 372 275 tgl 15 0 empty empty empty 17 7 0 10 #fffcfcfc #ff000000
#ff000000 1 1 1;
#X obj 372 253 r \$0-toggle-local;
#X connect 0 0 15 0;
#X connect 1 0 4 0;
#X connect 1 0 25 0;
#X connect 1 0 29 0;
#X connect 2 0 0 0;
#X connect 2 0 7 0;
#X connect 3 0 2 1;
#X connect 4 0 3 0;
#X connect 5 0 10 0;
#X connect 5 0 24 0;
#X connect 5 0 28 0;
#X connect 6 0 2 0;
#X connect 8 0 18 0;
#X connect 9 0 12 0;
#X connect 9 0 16 0;
#X connect 9 0 27 0;
#X connect 9 0 30 0;
#X connect 10 0 11 0;
#X connect 11 0 14 1;
#X connect 12 0 13 0;
#X connect 13 0 11 1;
#X connect 14 0 8 0;
#X connect 16 0 32 0;
#X connect 17 0 19 0;
#X connect 17 0 26 0;
#X connect 17 0 31 0;
#X connect 18 0 0 0;
#X connect 18 0 7 0;
#X connect 19 0 9 0;
#X connect 19 1 16 1;
#X connect 22 0 24 0;
#X connect 22 0 25 0;
#X connect 22 0 26 0;
#X connect 22 0 27 0;
#X connect 23 0 22 0;
#X connect 24 0 5 0;
#X connect 25 0 1 0;
#X connect 26 0 17 0;
#X connect 27 0 9 0;
#X connect 28 0 5 0;
#X connect 29 0 1 0;
#X connect 30 0 9 0;
#X connect 31 0 17 0;
#X connect 32 0 33 0;
#X connect 33 0 14 0;
#X connect 34 0 1 0;
#X connect 34 0 5 0;
#X connect 34 0 9 0;
#X connect 34 0 17 0;
#X connect 35 0 34 0;
#X connect 36 0 35 0;
#X coords 0 -1 1 1 68 106 1 156 42;
#X restore 692 144 pd FLANGER;
#X obj 429 426 \$1;
#X obj 18 217 nbx 7 14 500 1e+07 0 1 \$1-loop-length \$1-manual-loop-length
ms 1 5 0 8 #fffcb46c #ff000000 #ff000000 1500 256 1 1 1 0;
#X text 287 231 PCH(u/d);
#X obj 130 198 tgl 15 0 null-s \$1-delete-gui DELETE(del) 17 6 0 10
#fffcb46c #ff000000 #ff000000 0 1 0;
#X obj 130 147 bng 15 250 50 0 null-s \$1-clear-gui CLEAR(bkspc) 17
6 0 10 #fffcb46c #ff000000 #ff000000 0;
#X obj 468 469 == -1;
#X obj 130 164 bng 15 250 50 0 null-s \$1-reset-gui RESET(`) 17 6 0
10 #fffcb46c #ff000000 #ff000000 0;
#X obj 495 426 r \$1-myclientnum;
#X obj 429 350 r myid;
#X obj 429 371 t b;
#X obj 429 392 delay 100;
#X obj 324 529 tosymbol;
#X msg 324 552 label \$1;
#X obj 324 576 s \$1-instance-gui;
#X obj 429 447 t f f f;
#X obj 381 529 s \$0-instance;
#X msg 669 575 null;
#X obj 669 627 s \$0-set-node-context;
#X obj 327 25 r \$0-set-node-context;
#X msg 327 46 set \$1;
#X obj 669 596 tosymbol;
#X obj 468 649 s \$0-toggle-local;
#N canvas 140 60 1266 953 tracker 0;
#X obj 115 241 coll key-diatonic-coll.txt;
#C restore;
#X obj 698 872 list prepend label;
#X obj 698 894 list trim;
#X obj 419 221 loadbang;
#X msg 411 244 0;
#X obj 541 358 counter 0 63;
#X obj 145 376 gate 1 0;
#X obj 145 397 t s 0;
#X obj 562 457 pack s 0 0;
#X msg 831 557 \$2 \$1;
#X obj 421 743 coll;
#C restore;
#X msg 873 557 \$2 \$3;
#X obj 115 220 t f 0;
#X obj 874 81 moses 2;
#X obj 913 178 - 2;
#X floatatom 913 200 5 0 0 0 - - - 0 0 1, f 5;
#X obj 421 765 sel 0;
#X msg 907 449 \$1 0;
#X msg 927 504 \$1 \$2;
#X msg 972 400 160;
#X obj 972 422 sprintf %c;
#X obj 927 480 pack 0 s;
#X obj 972 444 tosymbol;
#X obj 972 378 loadbang;
#X obj 205 140 key 1;
#X obj 574 242 metro 36;
#X obj 786 795 coll;
#C restore;
#X obj 719 422 gate 1 1;
#X obj 719 222 expr 1-$f1;
#X msg 755 500 \$1 \$2;
#X obj 755 476 pack 0 s;
#X msg 719 476 \$1 0;
#X obj 719 454 t f f;
#X floatatom 677 163 5 0 0 0 - - - 0 0 1, f 5;
#X obj 650 78 / 64;
#X obj 115 199 gate 1 0;
#X obj 283 488 patch_name 1;
#X obj 283 455 t b f;
#X obj 63 488 patch_name 1;
#X obj 280 263 symbol;
#X obj 280 242 sel 1;
#X obj 280 221 keyname 1;
#X obj 798 222 sel 1;
#X obj 31 239 sel 1;
#X obj 574 264 t b b;
#X obj 798 245 t b b;
#X obj 874 59 gate 1 0;
#X obj 757 132 gate 1 0;
#X obj 939 128 > 2;
#X obj 913 107 t f f;
#X obj 411 52 gate 1 0;
#X obj 63 607 t b l;
#X obj 163 743 coll;
#C restore;
#X msg 63 708 dump;
#X obj 163 768 pack 0 0;
#X msg 163 790 \$2 \$1;
#X obj 650 27 r \$1-toggle-keyboard;
#X obj 650 57 r \$1-loop-length;
#X obj 525 163 r \$1-tracker;
#X obj 698 605 r \$1-redraw-gui;
#X obj 31 164 r \$1-toggle-keyboard;
#X obj 23 355 s \$1-note-generator;
#X obj 63 433 r \$1-read-coll;
#X obj 283 433 r \$1-write-coll;
#X obj 798 198 r \$1-loop;
#X obj 939 178 s \$1-delete-gui;
#X obj 220 768 route bang;
#X obj 919 35 r \$1-delete-key;
#X obj 802 109 r \$1-clear-key;
#X obj 456 27 r \$1-reset-key;
#X obj 796 176 s \$1-clear-gui;
#X obj 698 846 symbol;
#X obj 776 422 kalashnikov 64;
#X obj 421 680 list;
#X obj 421 702 list trim;
#X obj 220 743 net-io-coll \$1 tracker-data loop;
#X obj 448 916 s \$1-note-generator;
#X obj 63 455 t b b f;
#X obj 190 331 gate 1 0;
#X obj 746 692 kalashnikov 64;
#X obj 786 715 expr 63-$f1;
#X obj 160 165 gate 1 0;
#X obj 235 309 gate 1 0;
#X obj 115 285 t f 1 f f;
#X obj 35 376 list prepend note;
#X obj 23 312 route \$1;
#X obj 23 291 r network-in;
#X obj 23 333 route note;
#X obj 115 118 r \$0-toggle-local;
#X text 788 269 disabled deleting on enabling the tracker, f 12;
#X obj 757 154 t b b b;
#X obj 9 9 r network-in;
#X obj 525 187 f;
#X obj 906 683 coll;
#C restore;
#X msg 906 754 \$2 \$1;
#X obj 963 708 route bang;
#X obj 963 633 list;
#X obj 963 655 list trim;
#X obj 963 683 net-io-coll \$1 tracker-char loop;
#X msg 906 651 dump;
#X obj 906 732 pack s 0;
#X obj 786 398 loadbang;
#X obj 906 708 tosymbol;
#X obj 504 252 expr 1-$f1;
#X msg 939 153 set \$1;
#X obj 504 274 gate 1 1;
#X obj 650 99 t f f;
#N canvas 91 311 679 621 tracker-time-sync-logic 0;
#X obj 154 67 inlet;
#X obj 34 388 route bang, f 15;
#X obj 154 111 t f b;
#X obj 79 186 f;
#X obj 125 186 timer;
#X obj 34 410 t b b;
#X obj 154 89 + 1;
#X obj 34 366 net-io-list \$1 tracker-time loop-all;
#X obj 299 506 delay;
#X obj 299 483 t b f;
#X obj 230 584 outlet;
#X obj 194 186 inlet;
#X obj 125 211 expr \\$f2-$f1;
#X obj 230 561 f;
#X obj 125 231 moses 0;
#X msg 115 257 0;
#X floatatom 125 283 5 0 0 0 - - - 0 0 1, f 5;
#X floatatom 79 283 5 0 0 0 - - - 0 0 1, f 5;
#X obj 299 584 outlet;
#X obj 247 483 % 64;
#X obj 79 324 pack 0 0 0, f 16;
#X obj 247 461 unpack 0 0 0, f 18;
#X obj 299 561 f;
#X floatatom 172 283 5 0 0 0 - - - 0 0 1, f 5;
#X obj 172 253 inlet;
#X obj 299 528 t b b, f 9;
#X obj 11 10 r \$1-send-local-tracker-time-report;
#X obj 11 83 gate 1 0;
#X obj 79 38 r \$0-manual-tracker-position;
#X obj 58 483 r \$1-tracker-position-override;
#X obj 299 207 r \$1-copyfrom-tracker-position;
#X obj 299 33 r \$1-copyto-tracker-position;
#X text 299 10 new approach introduced in 0.8;
#X obj 299 291 gate 1 0;
#X obj 445 505 pack 0 0;
#X obj 458 232 r \$0-tracker;
#X obj 458 256 route set;
#X obj 383 145 s \$1-copyto-counter;
#X text 358 280 this only captures values when the playback is enabled
, f 19;
#X obj 299 172 s \$1-manual-toggle-tracker;
#X msg 299 145 set \$1;
#X obj 299 57 t b b 1 1 1 f f 0 0;
#X obj 121 410 t l l l;
#X obj 212 145 unpack 0 0 0;
#X obj 341 117 s \$0-from-tracker-time;
#X obj 11 108 t b l 0;
#X obj 79 67 t 1 f b 0;
#X obj 247 439 gate 1 1;
#X obj 490 313 text define \$0-queue;
#X obj 308 357 loadbang;
#X msg 299 381 -1;
#X obj 299 405 text delete \$0-queue;
#X text 489 280 used for queueingcopyfrom-tracker-position;
#X obj 326 256 text set \$0-queue 14;
#X msg 445 529 \; \$1-copyto-tracker-position \$2;
#X obj 405 357 kalashnikov 14;
#X obj 445 381 text get \$0-queue;
#X obj 445 406 route bang;
#X obj 299 316 t b b f 0;
#X obj 299 232 t 1 f;
#X connect 0 0 6 0;
#X connect 1 0 5 0;
#X connect 1 1 42 0;
#X connect 2 0 3 1;
#X connect 2 1 4 0;
#X connect 3 0 17 0;
#X connect 4 0 12 0;
#X connect 5 0 3 0;
#X connect 5 1 4 1;
#X connect 6 0 2 0;
#X connect 7 0 1 0;
#X connect 8 0 25 0;
#X connect 9 0 8 0;
#X connect 9 1 8 1;
#X connect 11 0 12 1;
#X connect 12 0 14 0;
#X connect 13 0 10 0;
#X connect 14 0 15 0;
#X connect 14 1 16 0;
#X connect 15 0 16 0;
#X connect 16 0 20 1;
#X connect 17 0 20 0;
#X connect 19 0 13 1;
#X connect 20 0 7 0;
#X connect 21 0 19 0;
#X connect 21 1 9 0;
#X connect 21 2 22 1;
#X connect 22 0 18 0;
#X connect 23 0 20 2;
#X connect 24 0 23 0;
#X connect 25 0 22 0;
#X connect 25 1 13 0;
#X connect 26 0 27 0;
#X connect 27 0 45 0;
#X connect 28 0 46 0;
#X connect 29 0 13 0;
#X connect 30 0 59 0;
#X connect 31 0 41 0;
#X connect 33 0 58 0;
#X connect 34 0 54 0;
#X connect 35 0 36 0;
#X connect 36 0 33 1;
#X connect 40 0 39 0;
#X connect 41 0 4 1;
#X connect 41 1 4 0;
#X connect 41 2 23 0;
#X connect 41 3 44 0;
#X connect 41 4 40 0;
#X connect 41 5 3 1;
#X connect 41 6 37 0;
#X connect 41 7 23 0;
#X connect 41 8 44 0;
#X connect 42 0 27 1;
#X connect 42 1 43 0;
#X connect 42 2 47 1;
#X connect 43 0 3 1;
#X connect 43 1 16 0;
#X connect 43 2 23 0;
#X connect 45 0 3 0;
#X connect 45 1 43 0;
#X connect 45 2 27 0;
#X connect 46 0 47 0;
#X connect 46 1 3 0;
#X connect 46 2 15 0;
#X connect 46 3 47 0;
#X connect 47 0 21 0;
#X connect 49 0 50 0;
#X connect 50 0 51 0;
#X connect 55 1 56 0;
#X connect 56 0 57 0;
#X connect 57 1 34 0;
#X connect 58 0 50 0;
#X connect 58 1 55 0;
#X connect 58 2 34 1;
#X connect 58 3 33 0;
#X connect 59 0 33 0;
#X connect 59 1 53 0;
#X restore 467 117 pd tracker-time-sync-logic \$1;
#X obj 466 469 s \$0-tracker;
#X obj 698 916 s \$0-tracker;
#X obj 467 312 t f f;
#X obj 467 354 % 64;
#X obj 467 333 + 64;
#X obj 646 187 s \$0-from-tracker-time;
#X msg 466 448 set \$1;
#X obj 317 9 r \$0-tracker-s;
#X obj 317 96 s \$0-manual-tracker-position, f 8;
#X obj 317 31 int;
#X obj 251 95 gate 2 1;
#X obj 251 75 + 1;
#X obj 351 221 t f f f;
#X obj 487 788 r \$1-tracker;
#X obj 487 810 expr 1-$f1;
#X obj 448 788 t f f;
#X obj 487 832 gate 1 0;
#X obj 487 854 list prepend note;
#X obj 318 180 change -1;
#X obj 251 115 t b f;
#X msg 251 155 -1;
#X obj 318 201 sel -1;
#X obj 251 135 delay 50;
#X obj 506 312 t f f f;
#X obj 9 31 route sync-all loop-length;
#X obj 85 53 s \$1-manual-loop-length;
#X obj 1114 87 gate 1 0;
#X obj 1114 108 t f f;
#X msg 1141 131 set \$1;
#X obj 1159 63 r \$1-insert-key;
#X obj 1141 206 s \$1-insert-gui;
#X obj 1114 263 f;
#X obj 1114 230 sel 1;
#X obj 1114 288 t f f;
#X obj 920 309 gate 1 0;
#X msg 421 652 delete \$1 \, 63 0;
#X msg 524 652 insert \$1 0 \, delete 64;
#X obj 394 629 t b f;
#X obj 497 629 t b f;
#X obj 993 240 keyname;
#X obj 1032 261 sel Shift;
#X msg 1083 282 0;
#X msg 1032 282 2;
#X obj 993 309 expr \\$f1+$f2-1;
#X obj 993 330 moses 1;
#X obj 888 378 gate 2 1;
#X obj 960 534 t b f;
#X obj 1067 534 t b f;
#X obj 1094 554 pack 0 s;
#X obj 987 554 pack 0 s;
#X msg 987 574 delete \$1 \, 63 \$2;
#X msg 1094 574 insert \$1 \$2 \, delete 64;
#X obj 965 282 f;
#X obj 893 249 t b f;
#X text 179 196 key outputs firstthen the keyname;
#N canvas 324 307 370 308 hover-mode-logic 0;
#X obj 186 272 outlet;
#X obj 186 246 pack s 0 0;
#X text 256 246 char time note;
#X obj 137 126 inlet;
#X obj 249 106 inlet;
#X obj 214 47 r \$1-hover-location;
#X obj 249 131 t 1 f;
#X obj 92 168 gate 1 0;
#X obj 92 193 t s 0;
#X text 24 22 this one mimics the regularnote entry \, except it followsthe
pointer \, rather thantimebar. as a result \, itsmechanics are similar
to theone found inside the parenttracker patch.;
#X connect 1 0 0 0;
#X connect 3 0 7 1;
#X connect 4 0 6 0;
#X connect 5 0 1 1;
#X connect 6 0 7 0;
#X connect 6 1 1 2;
#X connect 7 0 8 0;
#X connect 8 0 1 0;
#X connect 8 1 7 0;
#X restore 217 376 pd hover-mode-logic \$1;
#N canvas 727 338 317 243 hover-mode-gate 0;
#X obj 110 49 r \$1-hover-mode;
#X obj 110 74 + 1;
#X obj 110 99 gate 2 1;
#X obj 155 74 inlet;
#X obj 110 125 outlet;
#X obj 155 125 outlet;
#X text 52 154 left outlet is normal \, right one isfor the hover
mode;
#X connect 0 0 1 0;
#X connect 1 0 2 0;
#X connect 2 0 4 0;
#X connect 2 1 5 0;
#X connect 3 0 2 1;
#X restore 115 263 pd hover-mode-gate;
#X obj 190 355 t s s;
#X obj 995 81 r \$1-hover-mode;
#X obj 995 101 + 1;
#X obj 995 131 switch 2 1;
#X obj 1052 35 r \$1-hover-location;
#X obj 937 249 gate 2 1;
#X obj 280 288 t s s;
#N canvas 727 338 299 373 filter-tracker-updates 0;
#X obj 90 124 inlet;
#X obj 170 124 inlet;
#X obj 90 316 > 0;
#X msg 90 217 0;
#X msg 123 217 1;
#X obj 90 192 select;
#X obj 155 193 t f f;
#X obj 154 237 !=;
#X obj 90 267 +;
#X floatatom 90 292 5 0 0 0 - - - 0 0 1, f 5;
#X floatatom 170 147 5 0 0 0 - - - 0 0 1, f 5;
#X obj 90 341 outlet;
#X text 16 12 this subpatch filters situations where userkeeps holding
the same note by pressing andholding the keyboard key corresponding
tothat note and if the time location is thesame and the note \, it
prevents unnecessaryrepeat storing of the same note because thiscan
become rather cpu intensive.;
#X obj 155 171 f;
#X obj 90 147 t s s b;
#X connect 0 0 14 0;
#X connect 1 0 10 0;
#X connect 2 0 11 0;
#X connect 3 0 8 0;
#X connect 4 0 8 0;
#X connect 5 0 3 0;
#X connect 5 1 4 0;
#X connect 6 0 7 1;
#X connect 6 1 7 0;
#X connect 7 0 8 1;
#X connect 8 0 9 0;
#X connect 9 0 2 0;
#X connect 10 0 13 1;
#X connect 13 0 6 0;
#X connect 14 0 5 1;
#X connect 14 1 5 0;
#X connect 14 2 13 0;
#X restore 307 333 pd filter-tracker-updates;
#X obj 307 401 gate 1 0;
#X obj 251 402 gate 1 0;
#X obj 995 152 t f f f;
#X text 1046 152 <- distributes time from allsources (manual \, hover
\, metro);
#X obj 118 818 gate 2 1;
#X msg 119 790 1;
#X obj 861 779 gate 2 1;
#X msg 862 751 1;
#X obj 439 402 t f f;
#X obj 439 497 s \$1-tracker-sync;
#X obj 868 140 gate 1 0;
#X obj 788 36 r \$0-toggle-local;
#X obj 590 210 r \$1-copyto-counter;
#N canvas 713 542 957 349 label-compositor 0;
#X obj 45 248 sprintf %s%s%s%s%s%s%s%s%s%s%s%s%s%s%s%s%s%s%s%s%s%s%s%s%s%s%s%s%s%s%s%s%s%s%s%s%s%s%s%s%s%s%s%s%s%s%s%s%s%s%s%s%s%s%s%s%s%s%s%s%s%s%s%s
, f 148;
#X obj 45 208 gate 64 0;
#X obj 86 26 inlet;
#X obj 590 26 inlet;
#X obj 45 273 tosymbol;
#X obj 45 298 outlet;
#X obj 86 50 tosymbol;
#X msg 86 111 <;
#X msg 123 111 :;
#X obj 86 73 select \\\, \\\;, f 13;
#X obj 590 51 + 1;
#X obj 17 183 inlet;
#X text 187 26 left inlet forces output.middle inletconnects to the
1st outlet of the coll object. right inlet connects to the index counter.
;
#X obj 17 208 t b;
#X connect 0 0 4 0;
#X connect 1 0 0 0;
#X connect 1 1 0 1;
#X connect 1 2 0 2;
#X connect 1 3 0 3;
#X connect 1 4 0 4;
#X connect 1 5 0 5;
#X connect 1 6 0 6;
#X connect 1 7 0 7;
#X connect 1 8 0 8;
#X connect 1 9 0 9;
#X connect 1 10 0 10;
#X connect 1 11 0 11;
#X connect 1 12 0 12;
#X connect 1 13 0 13;
#X connect 1 14 0 14;
#X connect 1 15 0 15;
#X connect 1 16 0 16;
#X connect 1 17 0 17;
#X connect 1 18 0 18;
#X connect 1 19 0 19;
#X connect 1 20 0 20;
#X connect 1 21 0 21;
#X connect 1 22 0 22;
#X connect 1 23 0 23;
#X connect 1 24 0 24;
#X connect 1 25 0 25;
#X connect 1 26 0 26;
#X connect 1 27 0 27;
#X connect 1 28 0 28;
#X connect 1 29 0 29;
#X connect 1 30 0 30;
#X connect 1 31 0 31;
#X connect 1 32 0 32;
#X connect 1 33 0 33;
#X connect 1 34 0 34;
#X connect 1 35 0 35;
#X connect 1 36 0 36;
#X connect 1 37 0 37;
#X connect 1 38 0 38;
#X connect 1 39 0 39;
#X connect 1 40 0 40;
#X connect 1 41 0 41;
#X connect 1 42 0 42;
#X connect 1 43 0 43;
#X connect 1 44 0 44;
#X connect 1 45 0 45;
#X connect 1 46 0 46;
#X connect 1 47 0 47;
#X connect 1 48 0 48;
#X connect 1 49 0 49;
#X connect 1 50 0 50;
#X connect 1 51 0 51;
#X connect 1 52 0 52;
#X connect 1 53 0 53;
#X connect 1 54 0 54;
#X connect 1 55 0 55;
#X connect 1 56 0 56;
#X connect 1 57 0 57;
#X connect 1 58 0 58;
#X connect 1 59 0 59;
#X connect 1 60 0 60;
#X connect 1 61 0 61;
#X connect 1 62 0 62;
#X connect 1 63 0 63;
#X connect 2 0 6 0;
#X connect 3 0 10 0;
#X connect 4 0 5 0;
#X connect 6 0 9 0;
#X connect 7 0 1 1;
#X connect 8 0 1 1;
#X connect 9 0 7 0;
#X connect 9 1 8 0;
#X connect 9 2 1 1;
#X connect 10 0 1 0;
#X connect 11 0 13 0;
#X connect 13 0 0 0;
#X restore 731 823 pd label-compositor;
#X obj 638 140 t f f;
#X obj 317 52 t f f f f f;
#X obj 380 74 - 1;
#X obj 562 479 t l l l;
#X msg 802 557 \$2;
#X obj 541 380 t f f f f f f f;
#X obj 645 768 t b b f;
#X obj 888 422 t f f f;
#X obj 1032 354 t f f;
#X obj 682 539 r network-in;
#X obj 682 561 route \$1;
#X obj 682 583 route redraw-gui;
#X msg 1020 742 \$1;
#X obj 525 210 t f f f f;
#N canvas 727 397 332 300 reset 0;
#X obj 55 36 inlet;
#X obj 195 113 r \$1-tracker;
#X obj 150 142 gate 1 1;
#X obj 133 175 f;
#X obj 100 210 s \$0-from-tracker-time;
#X obj 85 238 outlet;
#X obj 55 61 t 1 b b 0 0 b;
#X obj 130 85 s \$1-reset-gui;
#X connect 0 0 6 0;
#X connect 1 0 2 1;
#X connect 2 0 3 1;
#X connect 3 0 4 0;
#X connect 6 0 2 0;
#X connect 6 1 3 0;
#X connect 6 2 5 0;
#X connect 6 3 4 0;
#X connect 6 4 2 0;
#X connect 6 5 7 0;
#X restore 411 117 pd reset;
#N canvas 727 397 284 203 am-i-online 0;
#X obj 149 74 inlet;
#X obj 104 98 gate 1 0;
#X obj 104 122 outlet;
#X obj 104 51 r \$1-active;
#X connect 0 0 1 1;
#X connect 1 0 2 0;
#X connect 3 0 1 0;
#X restore 9 76 pd am-i-online;
#X obj 466 427 + 0.5;
#X obj 746 667 loadbang;
#X obj 698 667 t b b;
#X obj 145 530 s \$1-redraw-gui;
#X obj 71 552 t b l;
#X obj 35 397 s \$1-client-out;
#X obj 487 875 s \$1-client-out;
#N canvas 1813 371 451 301 multi-lp 0;
#X obj 230 64 r glob-multi-lp;
#X obj 213 113 sel 0 1;
#X obj 232 137 \$1;
#X obj 163 205 sprintf %d%s;
#X obj 213 89 f;
#X obj 163 230 tosymbol;
#X obj 163 28 inlet;
#X obj 163 255 outlet;
#X obj 163 53 t f b;
#X msg 172 159 symbol -;
#X msg 232 159 symbol part-\$1-;
#X connect 0 0 4 1;
#X connect 1 0 9 0;
#X connect 1 1 2 0;
#X connect 2 0 10 0;
#X connect 3 0 5 0;
#X connect 4 0 1 0;
#X connect 5 0 7 0;
#X connect 6 0 8 0;
#X connect 8 0 3 0;
#X connect 8 1 4 0;
#X connect 9 0 3 1;
#X connect 10 0 3 1;
#X restore 171 486 pd multi-lp;
#X obj 63 530 pack s s;
#X obj 283 530 pack s s;
#X msg 98 574 read \$1/../loops/loop-char-\$2coll.txt;
#X msg 90 629 read \$1/../loops/loop-num-\$2coll.txt;
#X msg 283 596 write \$1/../loops/loop-num-\$2coll.txt;
#X msg 283 552 write \$1/../loops/loop-char-\$2coll.txt;
#X connect 0 0 164 0;
#X connect 1 0 2 0;
#X connect 2 0 109 0;
#X connect 3 0 4 0;
#X connect 4 0 131 0;
#X connect 5 0 192 0;
#X connect 6 0 7 0;
#X connect 7 0 174 1;
#X connect 7 1 6 0;
#X connect 8 0 190 0;
#X connect 9 0 96 0;
#X connect 10 0 16 0;
#X connect 11 0 73 0;
#X connect 12 0 0 0;
#X connect 12 1 6 0;
#X connect 13 1 49 0;
#X connect 14 0 15 0;
#X connect 15 0 161 0;
#X connect 16 1 123 0;
#X connect 17 0 73 0;
#X connect 18 0 96 0;
#X connect 19 0 20 0;
#X connect 20 0 22 0;
#X connect 21 0 18 0;
#X connect 22 0 21 1;
#X connect 22 0 30 1;
#X connect 22 0 156 1;
#X connect 22 0 157 1;
#X connect 23 0 19 0;
#X connect 24 0 81 1;
#X connect 25 0 44 0;
#X connect 26 0 186 1;
#X connect 26 1 186 2;
#X connect 27 0 32 0;
#X connect 28 0 27 0;
#X connect 29 0 96 0;
#X connect 30 0 29 0;
#X connect 31 0 73 0;
#X connect 32 0 31 0;
#X connect 32 1 30 0;
#X connect 33 0 25 1;
#X connect 34 0 106 0;
#X connect 35 0 12 0;
#X connect 36 0 212 0;
#X connect 37 0 36 0;
#X connect 37 1 210 0;
#X connect 38 0 211 0;
#X connect 39 0 171 0;
#X connect 40 0 39 0;
#X connect 41 0 40 0;
#X connect 41 1 39 1;
#X connect 42 0 45 0;
#X connect 43 1 6 0;
#X connect 44 1 5 0;
#X connect 45 0 205 0;
#X connect 46 0 13 0;
#X connect 47 0 90 0;
#X connect 48 0 104 0;
#X connect 49 0 183 1;
#X connect 49 1 48 0;
#X connect 50 0 201 0;
#X connect 51 0 53 0;
#X connect 51 1 214 0;
#X connect 52 0 54 0;
#X connect 52 1 54 1;
#X connect 52 3 178 0;
#X connect 53 0 52 0;
#X connect 54 0 55 0;
#X connect 55 0 177 1;
#X connect 56 0 46 0;
#X connect 56 0 47 0;
#X connect 56 0 50 0;
#X connect 56 0 134 0;
#X connect 57 0 34 0;
#X connect 58 0 92 0;
#X connect 59 0 205 0;
#X connect 60 0 35 0;
#X connect 60 0 78 0;
#X connect 60 0 43 0;
#X connect 62 0 77 0;
#X connect 63 0 37 0;
#X connect 64 0 28 0;
#X connect 64 0 42 0;
#X connect 66 0 53 0;
#X connect 66 1 73 0;
#X connect 67 0 46 1;
#X connect 68 0 47 1;
#X connect 69 0 50 1;
#X connect 71 0 1 0;
#X connect 72 1 32 0;
#X connect 73 0 74 0;
#X connect 74 0 52 0;
#X connect 74 0 10 0;
#X connect 74 0 75 0;
#X connect 75 0 66 0;
#X connect 75 1 177 0;
#X connect 77 0 206 0;
#X connect 77 1 38 0;
#X connect 77 2 210 0;
#X connect 78 0 165 0;
#X connect 79 1 80 0;
#X connect 80 0 26 0;
#X connect 81 0 35 1;
#X connect 82 0 78 1;
#X connect 83 0 61 0;
#X connect 83 1 6 0;
#X connect 83 2 8 2;
#X connect 83 3 84 0;
#X connect 84 0 208 0;
#X connect 85 0 87 0;
#X connect 86 0 85 0;
#X connect 87 0 61 0;
#X connect 88 0 81 0;
#X connect 88 0 82 0;
#X connect 90 0 205 0;
#X connect 90 1 72 0;
#X connect 90 2 70 0;
#X connect 91 0 132 0;
#X connect 92 0 200 0;
#X connect 93 0 102 0;
#X connect 93 1 100 1;
#X connect 93 3 180 0;
#X connect 94 0 179 1;
#X connect 95 0 99 0;
#X connect 95 1 96 0;
#X connect 95 1 199 0;
#X connect 96 0 97 0;
#X connect 97 0 26 0;
#X connect 97 0 93 0;
#X connect 97 0 98 0;
#X connect 98 0 95 0;
#X connect 98 1 179 0;
#X connect 99 0 93 0;
#X connect 100 0 94 0;
#X connect 101 0 72 0;
#X connect 102 0 100 0;
#X connect 103 0 105 0;
#X connect 104 0 65 0;
#X connect 105 0 205 0;
#X connect 106 0 107 2;
#X connect 106 1 33 0;
#X connect 107 0 110 0;
#X connect 107 1 187 0;
#X connect 110 0 112 0;
#X connect 110 1 5 2;
#X connect 111 0 181 0;
#X connect 112 0 111 0;
#X connect 114 0 108 0;
#X connect 115 0 117 0;
#X connect 117 0 188 0;
#X connect 118 0 127 0;
#X connect 118 1 5 2;
#X connect 119 0 118 0;
#X connect 120 0 10 0;
#X connect 120 1 5 2;
#X connect 121 0 122 0;
#X connect 122 0 124 0;
#X connect 123 0 76 0;
#X connect 123 1 124 1;
#X connect 124 0 125 0;
#X connect 125 0 209 0;
#X connect 126 0 129 0;
#X connect 127 0 130 0;
#X connect 127 1 126 0;
#X connect 128 0 126 0;
#X connect 129 1 120 0;
#X connect 130 0 128 0;
#X connect 131 0 203 0;
#X connect 131 1 5 2;
#X connect 131 2 8 1;
#X connect 132 0 202 0;
#X connect 132 1 133 0;
#X connect 134 0 135 0;
#X connect 135 0 140 0;
#X connect 135 1 136 0;
#X connect 136 0 138 0;
#X connect 137 0 134 1;
#X connect 139 0 141 0;
#X connect 140 0 139 0;
#X connect 141 0 146 0;
#X connect 141 1 155 0;
#X connect 142 0 153 1;
#X connect 143 0 73 0;
#X connect 144 0 73 0;
#X connect 145 0 105 1;
#X connect 145 1 143 0;
#X connect 146 0 105 1;
#X connect 146 1 144 0;
#X connect 147 0 151 0;
#X connect 147 1 148 0;
#X connect 148 0 150 0;
#X connect 148 1 149 0;
#X connect 149 0 151 1;
#X connect 150 0 151 1;
#X connect 151 0 152 0;
#X connect 152 1 195 0;
#X connect 153 0 194 0;
#X connect 153 1 154 0;
#X connect 153 1 145 0;
#X connect 154 0 205 0;
#X connect 154 1 157 0;
#X connect 155 0 205 0;
#X connect 155 1 156 0;
#X connect 156 0 159 0;
#X connect 157 0 158 0;
#X connect 158 0 96 0;
#X connect 159 0 96 0;
#X connect 160 0 142 1;
#X connect 161 0 160 0;
#X connect 161 1 142 0;
#X connect 163 0 173 1;
#X connect 164 0 83 0;
#X connect 164 1 163 1;
#X connect 165 0 6 1;
#X connect 165 1 163 0;
#X connect 166 0 167 0;
#X connect 167 0 168 0;
#X connect 168 0 175 0;
#X connect 169 0 168 2;
#X connect 170 0 160 0;
#X connect 170 1 160 1;
#X connect 171 0 82 1;
#X connect 171 1 172 0;
#X connect 172 0 173 0;
#X connect 172 0 174 0;
#X connect 173 0 190 0;
#X connect 174 0 8 0;
#X connect 175 0 170 1;
#X connect 175 1 139 1;
#X connect 175 2 172 1;
#X connect 177 0 75 0;
#X connect 177 1 75 1;
#X connect 178 0 177 0;
#X connect 179 0 98 0;
#X connect 179 1 98 1;
#X connect 180 0 179 0;
#X connect 181 0 182 0;
#X connect 181 1 203 0;
#X connect 183 0 14 0;
#X connect 184 0 183 0;
#X connect 185 0 5 2;
#X connect 186 0 71 1;
#X connect 187 1 113 0;
#X connect 188 0 116 0;
#X connect 188 1 118 1;
#X connect 188 2 8 1;
#X connect 188 3 168 1;
#X connect 188 4 189 0;
#X connect 189 0 107 0;
#X connect 190 0 191 0;
#X connect 190 1 9 0;
#X connect 190 2 11 0;
#X connect 191 0 193 0;
#X connect 192 0 8 1;
#X connect 192 1 181 0;
#X connect 192 2 10 0;
#X connect 192 3 107 0;
#X connect 192 4 168 1;
#X connect 192 5 193 0;
#X connect 192 6 27 1;
#X connect 193 0 71 0;
#X connect 193 1 186 0;
#X connect 193 2 26 0;
#X connect 194 0 193 0;
#X connect 194 1 17 0;
#X connect 194 2 21 0;
#X connect 195 0 153 0;
#X connect 195 1 170 0;
#X connect 196 0 197 0;
#X connect 197 0 198 0;
#X connect 198 0 205 0;
#X connect 199 0 193 0;
#X connect 200 0 119 0;
#X connect 200 1 103 0;
#X connect 200 2 25 0;
#X connect 200 3 107 1;
#X connect 201 0 4 0;
#X connect 202 0 201 0;
#X connect 203 0 114 0;
#X connect 204 0 79 0;
#X connect 205 0 71 0;
#X connect 205 1 79 0;
#X connect 207 0 99 0;
#X connect 207 1 213 0;
#X connect 210 0 211 1;
#X connect 210 0 212 1;
#X connect 211 0 51 0;
#X connect 211 0 207 0;
#X connect 212 0 215 0;
#X connect 212 0 216 0;
#X connect 213 0 26 0;
#X connect 213 0 93 0;
#X connect 214 0 10 0;
#X connect 214 0 52 0;
#X connect 215 0 10 0;
#X connect 216 0 26 0;
#X restore 13 380 pd tracker \$1;
#N canvas 596 96 1086 911 instrument 0;
#X obj 357 669 osc~;
#X obj 390 669 phasor~;
#X obj 441 669 triangle~;
#X obj 441 247 mtof;
#X obj 441 647 phasor~;
#X obj 293 669 wave-pick;
#X obj 33 636 line~;
#X obj 357 806 *~;
#X obj 357 669 osc~;
#X obj 479 404 osc~;
#X obj 512 404 phasor~;
#X obj 563 404 triangle~;
#X obj 563 382 phasor~;
#X obj 415 404 wave-pick;
#X obj 804 404 line~;
#X obj 357 710 matrix~ 5 1 1;
#X obj 479 445 matrix~ 5 1 1;
#X obj 355 573 sig~;
#X obj 355 605 +~;
#X obj 479 488 *~;
#X msg 804 383 0 \, 100 \$1;
#X obj 804 362 f;
#X obj 33 592 f;
#X obj 357 837 *~;
#X obj 465 812 line~;
#X msg 465 790 \$1 10;
#X obj 512 316 *;
#X obj 479 581 *~;
#X msg 33 614 0 \, 100 \$1;
#X obj 441 269 t f f;
#X obj 387 63 - 12;
#X obj 441 188 +, f 11;
#X obj 357 785 *~;
#X obj 357 859 s~ \$0-in;
#X msg 494 538 \$1 10;
#X obj 494 559 line~;
#X floatatom 350 64 5 0 0 0 - - - 0 0 1, f 5;
#X msg 387 739 0 5 1 5;
#X obj 387 761 Line~;
#X obj 387 87 t b f;
#X obj 414 132 t b f;
#X obj 414 110 pipe 5;
#X obj 477 110 r \$1-octave;
#X obj 387 38 r \$1-note-generator;
#X obj 527 294 r \$1-harmonicity;
#X obj 819 340 r \$1-note-dur;
#X obj 804 425 tabread4~ \$1-mod-envelope;
#X obj 494 517 r \$1-mod-amp;
#X obj 293 646 r \$1-carrier;
#X obj 48 570 r \$1-note-dur;
#X obj 33 657 tabread4~ \$1-amp-envelope;
#X obj 415 383 r \$1-modulator;
#X obj 756 568 r \$0-toggle-local;
#X obj 605 568 r \$0-set-node-context;
#X obj 908 568 r \$1-amp-envelope_changed;
#X text 630 517 used to check for \$0-toggle-local which does not work
inside an abstraction since its instance is different. also addressing
the problem/bug with the <arrayname>_changed;
#X obj 755 620 r \$0-toggle-local;
#X obj 604 620 r \$0-set-node-context;
#X obj 907 620 r \$1-mod-envelope_changed;
#X obj 604 642 preset_node_array_custom \$1-mod-envelope null me \$1
preset;
#X obj 605 590 preset_node_array_custom \$1-amp-envelope null ae \$1
preset;
#X obj 465 728 loadbang;
#X msg 465 749 1;
#X floatatom 521 749 5 0 0 0 - - - 0 0 1, f 5;
#X obj 521 728 r \$1-overdrive;
#X obj 625 382 phasor~;
#X obj 625 404 expr~ \\$v1 > 0.5;
#X obj 504 647 phasor~;
#X obj 504 669 expr~ \\$v1 > 0.5;
#X obj 724 404 pink~;
#X obj 603 669 pink~;
#X obj 441 162 f;
#X obj 477 132 t b f;
#X obj 400 188 t b b;
#X obj 512 337 t f;
#X connect 1 0 15 1;
#X connect 2 0 15 2;
#X connect 3 0 29 0;
#X connect 4 0 2 0;
#X connect 5 0 15 0;
#X connect 6 0 50 0;
#X connect 7 0 23 0;
#X connect 8 0 15 0;
#X connect 9 0 16 0;
#X connect 10 0 16 1;
#X connect 11 0 16 2;
#X connect 12 0 11 0;
#X connect 13 0 16 0;
#X connect 14 0 46 0;
#X connect 15 0 32 0;
#X connect 16 0 19 0;
#X connect 17 0 18 0;
#X connect 18 0 8 0;
#X connect 18 0 1 0;
#X connect 18 0 4 0;
#X connect 18 0 67 0;
#X connect 19 0 27 0;
#X connect 20 0 14 0;
#X connect 21 0 20 0;
#X connect 22 0 28 0;
#X connect 23 0 33 0;
#X connect 24 0 23 1;
#X connect 25 0 24 0;
#X connect 26 0 74 0;
#X connect 27 0 18 1;
#X connect 28 0 6 0;
#X connect 29 0 17 0;
#X connect 29 1 26 0;
#X connect 30 0 39 0;
#X connect 31 0 3 0;
#X connect 32 0 7 0;
#X connect 34 0 35 0;
#X connect 35 0 27 1;
#X connect 37 0 38 0;
#X connect 38 0 32 1;
#X connect 39 0 37 0;
#X connect 39 1 41 0;
#X connect 40 0 73 0;
#X connect 40 1 71 0;
#X connect 41 0 40 0;
#X connect 42 0 72 0;
#X connect 43 0 30 0;
#X connect 43 0 36 0;
#X connect 44 0 26 1;
#X connect 45 0 21 1;
#X connect 46 0 19 1;
#X connect 47 0 34 0;
#X connect 48 0 5 0;
#X connect 49 0 22 1;
#X connect 50 0 7 1;
#X connect 51 0 13 0;
#X connect 52 0 60 1;
#X connect 53 0 60 0;
#X connect 54 0 60 2;
#X connect 56 0 59 1;
#X connect 57 0 59 0;
#X connect 58 0 59 2;
#X connect 61 0 62 0;
#X connect 62 0 25 0;
#X connect 63 0 25 0;
#X connect 64 0 63 0;
#X connect 65 0 66 0;
#X connect 66 0 16 3;
#X connect 67 0 68 0;
#X connect 68 0 15 3;
#X connect 69 0 16 4;
#X connect 70 0 15 4;
#X connect 71 0 31 0;
#X connect 72 0 71 0;
#X connect 72 1 31 1;
#X connect 73 0 22 0;
#X connect 73 1 21 0;
#X connect 74 0 12 0;
#X connect 74 0 10 0;
#X connect 74 0 9 0;
#X connect 74 0 65 0;
#X restore 13 400 pd instrument \$1;
#X text 1216 652 l2ork.bukvic.net;
#X text 220 598 toggle keyboard input and network output;
#X obj 491 392 r override-myid;
#N canvas 723 345 535 410 delete-logic 0;
#X obj 153 275 gate 1 0;
#X obj 70 243 r \$0-toggle-local;
#X msg 464 95 0;
#X msg 407 95 2;
#X obj 356 126 +;
#X obj 219 368 s \$1-delete-key;
#X obj 114 368 net-io \$1 delete;
#X obj 153 299 t f;
#X obj 153 324 moses 2;
#X obj 192 346 t f f;
#X obj 407 73 sel Delete;
#X obj 60 45 keyname;
#X obj 99 66 sel Shift;
#X msg 150 87 0;
#X msg 99 87 2;
#X obj 60 114 expr \\$f1+$f2-1;
#X obj 60 135 moses 1;
#X obj 226 51 keyname;
#X msg 322 95 0;
#X msg 265 95 2;
#X obj 226 126 +;
#X obj 265 73 sel Delete;
#X obj 356 51 keyname 1;
#X obj 198 172 switch 2 1;
#X text 235 208 added two versions of delete \, one with autorepeat
\, and one without. autorepeat is used when holding shift \, because
that enables autorepeated deletion and relocation of notes. on the
other hand \, when using non-shifted delete \, one can simply hold
delete and scrub with the mouse (in hover mode) or hold the mouse button
and scrub the timeline (in regular mode)., f 43;
#X connect 0 0 7 0;
#X connect 1 0 0 0;
#X connect 2 0 4 1;
#X connect 3 0 4 1;
#X connect 4 0 23 2;
#X connect 6 0 7 0;
#X connect 7 0 8 0;
#X connect 8 1 9 0;
#X connect 9 0 6 0;
#X connect 9 1 5 0;
#X connect 10 0 3 0;
#X connect 10 1 2 0;
#X connect 11 0 15 0;
#X connect 11 1 12 0;
#X connect 12 0 14 0;
#X connect 12 1 13 0;
#X connect 13 0 15 1;
#X connect 14 0 15 1;
#X connect 15 0 16 0;
#X connect 16 1 23 0;
#X connect 17 0 20 0;
#X connect 17 1 21 0;
#X connect 18 0 20 1;
#X connect 19 0 20 1;
#X connect 20 0 23 1;
#X connect 21 0 19 0;
#X connect 21 1 18 0;
#X connect 22 0 4 0;
#X connect 22 1 10 0;
#X connect 23 0 0 1;
#X restore 13 467 pd delete-logic \$1;
#N canvas 727 338 450 300 clear-logic 0;
#X obj 186 155 gate 1 0;
#X obj 103 123 r \$0-toggle-local;
#X obj 186 205 s \$1-clear-key;
#X obj 186 180 t b;
#X obj 231 91 sel 1;
#X obj 231 112 symbol;
#X obj 231 70 keyname;
#X obj 231 133 sel BackSpace;
#X obj 215 180 net-io-nlr \$1 clear;
#X connect 0 0 3 0;
#X connect 1 0 0 0;
#X connect 3 0 2 0;
#X connect 3 0 8 0;
#X connect 4 0 5 0;
#X connect 5 0 7 0;
#X connect 6 0 4 0;
#X connect 6 1 5 1;
#X connect 7 0 0 1;
#X connect 8 0 3 0;
#X restore 13 447 pd clear-logic \$1;
#N canvas 719 335 602 329 reset-logic 0;
#X obj 423 150 gate 1 0;
#X obj 340 118 r \$0-toggle-local;
#X obj 423 201 s \$1-reset-key;
#X obj 423 175 t b;
#X obj 468 85 sel 96;
#X obj 468 64 key 1;
#X obj 453 175 net-io-nlr \$1 reset;
#X obj 25 216 pipe 250;
#X msg 25 265 \; \$1-reset-gui color #fcb46c #000;
#X msg 112 216 \; \$1-reset-gui color #fcb46c #fc6418 #000 \; \$1-reset-gui
bang;
#X obj 93 157 t f f b;
#X msg 132 181 clear;
#X obj 138 82 r session-sync-all;
#X obj 93 108 gate 1 0;
#X obj 93 133 \$1;
#X text 93 25 for session sync visual notificationusing reset bang
button;
#X obj 93 56 r \$1-active;
#X connect 0 0 3 0;
#X connect 1 0 0 0;
#X connect 3 0 2 0;
#X connect 3 0 6 0;
#X connect 4 0 0 1;
#X connect 5 0 4 0;
#X connect 6 0 3 0;
#X connect 7 0 8 0;
#X connect 10 0 7 0;
#X connect 10 1 9 0;
#X connect 10 2 11 0;
#X connect 11 0 7 0;
#X connect 12 0 13 1;
#X connect 13 0 14 0;
#X connect 14 0 10 0;
#X connect 16 0 13 0;
#X restore 13 427 pd reset-logic \$1;
#N canvas 727 338 450 300 tracker-logic 0;
#X obj 239 59 keyname 1;
#X obj 239 80 sel 1;
#X obj 239 101 symbol;
#X obj 239 225 outlet;
#X obj 194 154 gate 1 0;
#X obj 111 122 r \$0-toggle-local;
#X obj 149 185 gate 1 0;
#X obj 62 154 r \$1-toggle-keyboard;
#X obj 239 122 sel Tab;
#X connect 0 0 1 0;
#X connect 0 1 2 1;
#X connect 1 0 2 0;
#X connect 2 0 8 0;
#X connect 4 0 6 1;
#X connect 5 0 4 0;
#X connect 6 0 3 0;
#X connect 7 0 6 0;
#X connect 8 0 4 1;
#X restore 17 24 pd tracker-logic \$1;
#N canvas 719 335 450 300 loop-length-logic 0;
#X obj 319 27 keyname 1;
#X obj 319 48 sel 1;
#X obj 319 69 symbol;
#X obj 233 27 keyname 1;
#X obj 233 48 sel 1;
#X obj 233 69 symbol;
#X msg 233 115 -50;
#X obj 233 151 +;
#X obj 355 125 inlet;
#X obj 143 237 outlet;
#X obj 188 183 gate 1 0;
#X obj 105 151 r \$0-toggle-local;
#X obj 143 214 gate 1 0;
#X obj 57 183 r \$1-toggle-keyboard;
#X obj 233 90 sel ShiftLeft;
#X obj 319 90 sel ShiftRight;
#X msg 319 115 50;
#X connect 0 0 1 0;
#X connect 0 1 2 1;
#X connect 1 0 2 0;
#X connect 2 0 15 0;
#X connect 3 0 4 0;
#X connect 3 1 5 1;
#X connect 4 0 5 0;
#X connect 5 0 14 0;
#X connect 6 0 7 0;
#X connect 7 0 10 1;
#X connect 8 0 7 1;
#X connect 10 0 12 1;
#X connect 11 0 10 0;
#X connect 12 0 9 0;
#X connect 13 0 12 0;
#X connect 14 0 6 0;
#X connect 15 0 16 0;
#X connect 16 0 7 0;
#X restore 17 46 pd loop-length-logic \$1;
#N canvas 887 490 450 323 loop-logic 0;
#X obj 252 64 sel 1;
#X msg 291 86 1;
#X msg 330 86 0;
#X obj 252 117 f;
#X obj 252 139 sel 1;
#X obj 252 42 keyname;
#X obj 162 225 outlet;
#X obj 207 171 gate 1 0;
#X obj 124 139 r \$0-toggle-local;
#X obj 162 202 gate 1 0;
#X obj 76 171 r \$1-toggle-keyboard;
#X obj 291 64 sel Alt;
#X connect 0 0 3 0;
#X connect 1 0 3 1;
#X connect 2 0 3 1;
#X connect 3 0 4 0;
#X connect 4 0 7 1;
#X connect 5 0 0 0;
#X connect 5 1 11 0;
#X connect 7 0 9 1;
#X connect 8 0 7 0;
#X connect 9 0 6 0;
#X connect 10 0 9 0;
#X connect 11 0 1 0;
#X connect 11 1 2 0;
#X restore 17 68 pd loop-logic \$1;
#X obj 146 24 +;
#X obj 235 233 nbx 6 12 -192 192 0 1 \$1-octave null-r empty 0 -7 0
9 #fffcb46c #ff000000 #ff000000 -72 256 0 1 1 1;
#X obj 502 516 + 12;
#X obj 371 350 loadbang;
#X obj 40 256 hsl 772 25 0 63.999 0 0 \$0-tracker-s \$0-tracker 
3 8 0 20 #ff84c0fc #fffcfcfc #ff000000 602 0 0 1;
#X obj 243 392 t f f;
#X text 139 370 DEBUG;
#X obj 270 422 s myclientnum;
#X msg 272 370 12;
#X obj 894 43 net-io \$1 loop 0 0 loop;
#X obj 657 61 net-io \$1 keyboard;
#X text 669 649 disable preset_nodes that do not belong to local user
;
#X obj 347 69 preset_node null;
#X obj 218 69 preset_node null;
#X obj 326 91 preset_node null;
#X obj 357 113 preset_node null;
#X obj 218 113 preset_node null;
#X obj 218 91 preset_node null;
#X obj 470 113 preset_node null;
#X obj 12 629 preset_hub \$1 file %hidden% %node% 3 49 59 44 %was%
3 51 60 44 %node% 3 49 60 44 %was% 3 51 61 44 %node% 1 71 %was% 1 85
%node% 1 72 %was% 1 86 %node% 1 73 %was% 1 87 %node% 1 74 %was% 1 88
%node% 1 75 %was% 1 89 %node% 1 76 %was% 1 90 %node% 1 77 %was% 1 91
%node% 2 25 24 %was% 2 26 28 %node% 2 25 25 %was% 2 26 29 %node% 2
25 26 %was% 2 26 30 %node% 2 25 27 %was% 2 26 31 %node% 2 24 35 %was%
2 25 37 %node% 2 24 36 %was% 2 25 38 %node% 2 22 22 %was% 2 22 25 %node%
2 22 23 %was% 2 22 26 %node% 2 22 24 %was% 2 22 27 %node% 2 17 8 %was%
2 16 9 %node% 2 16 13 %was% 2 15 15 %node% 2 16 14 %was% 2 15 16 %node%
2 122 17 %was% 2 164 17 %node% 2 122 4 %was% 2 171 4 %node% 1 124 %was%
1 174 %node% 2 80 3 %was% 2 95 6;
#X obj 726 596 f;
#N canvas 820 232 834 586 preset-logic 0;
#X obj 334 109 patch_name 1;
#X obj 512 109 patch_name 1;
#X obj 334 35 r \$1-store-preset;
#X obj 334 537 preset_node \$1;
#X obj 593 109 s \$1-manual-toggle-keyboard;
#X obj 71 153 patch_name 1;
#X obj 40 35 loadbang;
#X obj 88 81 s \$0-toggle-local;
#X obj 40 58 t b 0 b 1 b;
#X msg 40 81 null;
#X obj 40 104 tosymbol;
#X obj 103 104 \$1;
#X obj 40 129 s \$0-set-node-context;
#X obj 512 35 r \$1-recall-preset;
#X msg 71 485 read \$1/hub-preset-init.txt \, recall 1;
#X text 593 62 keyboard is toggled on during read to ensure all settings
are processed (disabled), f 30;
#X obj 624 250 r glob-multi-lp;
#X obj 607 299 sel 0 1;
#X obj 626 323 \$1;
#X msg 566 345 symbol .;
#X msg 626 345 symbol -part-\$1.;
#X obj 557 391 sprintf %d%s;
#X obj 512 441 pack s s;
#X text 563 158 sent from L2Ork Tweeter's GUI determines whether we
should load/save presets with part number included (introduced in 0.87
which allows users to have control over multiple parts, f 31;
#X msg 512 463 read \$1/../presets/hub-preset-\$2txt \, recall 1;
#X msg 334 485 store 1 \, write \$1/../presets/hub-preset-\$2txt;
#X obj 607 275 f;
#X obj 512 57 t b f b;
#X obj 334 57 t b f b;
#X obj 334 441 pack s s;
#X obj 557 416 tosymbol;
#X connect 0 0 29 0;
#X connect 1 0 22 0;
#X connect 2 0 28 0;
#X connect 5 0 14 0;
#X connect 6 0 8 0;
#X connect 8 0 9 0;
#X connect 8 1 7 0;
#X connect 8 2 5 0;
#X connect 8 3 7 0;
#X connect 8 4 11 0;
#X connect 9 0 10 0;
#X connect 10 0 12 0;
#X connect 11 0 12 0;
#X connect 13 0 27 0;
#X connect 14 0 3 0;
#X connect 16 0 26 1;
#X connect 17 0 19 0;
#X connect 17 1 18 0;
#X connect 18 0 20 0;
#X connect 19 0 21 1;
#X connect 20 0 21 1;
#X connect 21 0 30 0;
#X connect 22 0 24 0;
#X connect 24 0 3 0;
#X connect 25 0 3 0;
#X connect 26 0 17 0;
#X connect 27 0 1 0;
#X connect 27 1 21 0;
#X connect 27 2 26 0;
#X connect 28 0 0 0;
#X connect 28 1 21 0;
#X connect 28 2 26 0;
#X connect 29 0 25 0;
#X connect 30 0 22 1;
#X connect 30 0 29 1;
#X restore 12 649 pd preset-logic \$1;
#X obj 669 547 sel 0 1;
#X obj 483 626 moses 1;
#X obj 894 172 net-io \$1 carrier 0 0 preset;
#X floatatom 177 370 5 0 0 0 - - - 0 0 1, f 5;
#X obj 681 381 r \$1-remote-user-gui-update;
#X msg 681 422 16;
#X obj 667 519 gate 1 1;
#X obj 612 361 r \$0-toggle-local;
#X obj 612 381 expr 1-$f1;
#X obj 681 401 sel 1 0;
#X text 400 257 . . . . . . . . . . . . . . . . . . . . . . . . . .
. . . .;
#X text 134 249 v;
#X text 231 249 v;
#X text 327 249 v;
#X text 424 249 v;
#X text 520 249 v;
#X text 616 249 v;
#X text 713 249 v;
#X msg 219 552 label_pos \$1 9;
#X obj 219 507 > 9;
#X obj 297 485 t f f;
#X obj 219 529 expr (1-$f1)*6;
#X obj 480 307 == 1;
#X obj 480 329 sel 1;
#X msg 480 351 0;
#X msg 243 370 1;
#X obj 18 163 tgl 15 0 \$1-toggle-solo \$1-override-solo SOLO(esc)
17 6 0 10 #FF7C7C7C #FFFCFCFC #ff000000 0 1 1;
#N canvas 716 332 454 303 solo-logic 0;
#X obj 190 205 outlet;
#X obj 235 116 gate 1 0;
#X obj 280 63 key;
#X obj 280 84 sel 27;
#X obj 190 173 gate 1 0;
#X obj 104 142 r \$1-toggle-keyboard;
#X obj 171 63 r \$1-myclientnum;
#X obj 171 84 == \$1;
#X connect 1 0 4 1;
#X connect 2 0 3 0;
#X connect 3 0 1 1;
#X connect 4 0 0 0;
#X connect 5 0 4 0;
#X connect 6 0 7 0;
#X connect 7 0 1 0;
#X restore 129 112 pd solo-logic;
#X obj 895 529 net-io \$1 solo;
#X msg 213 370 0;
#X obj 1109 172 net-io \$1 note-dur 2000 0 preset;
#X obj 894 268 net-io \$1 harmonicity 40 0 preset;
#X obj 1109 241 net-io \$1 mod-amp 1000 0 preset;
#X obj 894 241 net-io \$1 modulator 2 0 preset;
#X obj 1109 102 net-io \$1 octave -72 0 preset;
#N canvas 719 335 340 199 main-out-override-logic 0;
#X obj 102 54 r \$1-main-out-override;
#X obj 102 79 s \$0-main-out-override;
#X text 24 109 converting human readable number into an instance. see
pd OUT where the main logic plays out., f 50;
#X connect 0 0 1 0;
#X restore 13 487 pd main-out-override-logic \$1;
#X obj 1109 43 net-io \$1 loop-length 1500 0 loop;
#X obj 526 147 vsl 13 95 0.1 10 1 1 null-s null-r empty 10 13 0 10
#ff80fc80 #ff008080 #ff000000 4700 1 0 1;
#X obj 1109 330 net-io \$1 overdrive 1 0 preset;
#X obj 1136 310 s \$1-overdrive;
#X symbolatom 340 231 30 0 0 0 - #0-instrument-name-r #0-instrument-name-s
1 0 1, f 30;
#N canvas 556 302 628 438 name-logic 0;
#X obj 200 45 loadbang;
#X obj 200 87 tosymbol;
#X obj 301 24 r \$0-set-node-context;
#X msg 301 45 set \$1;
#X obj 301 66 preset_node null;
#X symbolatom 301 130 52 0 0 0 - - - 0 0 1, f 52;
#X msg 301 154 set \$1;
#X obj 301 179 s \$0-instrument-name-r;
#X obj 309 106 r \$0-instrument-name-s;
#X obj 28 153 t s s;
#X obj 22 179 symbol;
#X obj 65 179 net-io-sym \$1 inst-name 0 preset;
#X msg 200 66 Simple Bass;
#X obj 194 266 loadbang;
#X obj 194 308 tosymbol;
#X obj 301 245 r \$0-set-node-context;
#X msg 301 266 set \$1;
#X obj 301 287 preset_node null;
#X symbolatom 301 351 52 0 0 0 - - - 0 0 1, f 52;
#X msg 301 375 set \$1;
#X obj 28 374 t s s;
#X obj 22 400 symbol;
#X msg 194 287 Username;
#X obj 309 327 r \$0-username-s;
#X obj 301 400 s \$0-username-r;
#X obj 65 400 net-io-sym \$1 username;
#X text 405 274 disconnected this one to fix username being overwritten
every time they changed a preset, f 32;
#X connect 0 0 12 0;
#X connect 1 0 11 2;
#X connect 2 0 3 0;
#X connect 3 0 4 0;
#X connect 4 0 5 0;
#X connect 5 0 6 0;
#X connect 5 0 9 0;
#X connect 6 0 7 0;
#X connect 8 0 5 0;
#X connect 9 0 11 0;
#X connect 9 1 10 1;
#X connect 10 0 5 0;
#X connect 11 0 10 0;
#X connect 12 0 1 0;
#X connect 13 0 22 0;
#X connect 14 0 25 2;
#X connect 15 0 16 0;
#X connect 16 0 17 0;
#X connect 18 0 19 0;
#X connect 18 0 20 0;
#X connect 19 0 24 0;
#X connect 20 0 25 0;
#X connect 20 1 21 1;
#X connect 21 0 18 0;
#X connect 22 0 14 0;
#X connect 23 0 18 0;
#X connect 25 0 21 0;
#X restore 13 507 pd name-logic \$1;
#N canvas 608 288 602 405 global-keyboard 0;
#X obj 140 78 inlet;
#X obj 50 349 s global-toggle-keyboard;
#X obj 50 53 r \$0-toggle-local;
#X obj 50 325 gate 1 0;
#X obj 50 78 moses 1, f 13;
#X obj 50 103 t 0 0;
#X obj 181 178 kalashnikov 14;
#X obj 140 103 moses 1;
#X obj 221 203 text get ck;
#X obj 254 233 maximum 0;
#X obj 237 289 f;
#X obj 237 141 t b b 0;
#X text 361 72 a kludge solution to global-toggle-keyboard where lower-numbered
instances have precedence over higher-numbered ones (e.g. part 1 takes
precedence over part 12) \, resulting in global-toggle-keyboard being
off \, even if we are pressing CTRL and toggling it off for part 1
and on for part 3 (for instance). so \, here in a kludge-like fashion
we pass on messages \, while for the off messages we check if ck (see
L2Ork-Tweeter > core > network-io > client-out-parser) has any other
on (1) and use maximum value instead., f 31;
#X obj 305 209 f;
#X obj 254 258 t f f;
#X connect 0 0 7 0;
#X connect 2 0 4 0;
#X connect 3 0 1 0;
#X connect 4 0 5 0;
#X connect 4 1 3 0;
#X connect 5 0 3 0;
#X connect 5 1 3 1;
#X connect 6 1 8 0;
#X connect 7 0 11 0;
#X connect 7 1 3 1;
#X connect 8 0 9 0;
#X connect 9 0 14 0;
#X connect 10 0 3 1;
#X connect 11 0 10 0;
#X connect 11 1 6 0;
#X connect 11 2 13 0;
#X connect 13 0 9 1;
#X connect 14 0 10 1;
#X connect 14 1 13 0;
#X restore 684 41 pd global-keyboard;
#X obj 376 46 preset_node null;
#X obj 894 102 net-io \$1 tracker 0 1 loop-all;
#X obj 712 422 t 12 0 0;
#X obj 130 181 tgl 15 0 null-s \$1-insert-gui INSERT(~) 16 6 0 10 #fffcb46c
#ff000000 #ff000000 0 1 0;
#N canvas 1243 398 450 403 insert-logic 0;
#X obj 197 106 gate 1 0;
#X obj 114 74 r \$0-toggle-local;
#X obj 197 166 t f f;
#X obj 263 199 s \$1-insert-key;
#X obj 158 199 net-io \$1 insert;
#X obj 295 53 sel 126;
#X obj 242 53 sel 126;
#X msg 242 78 1;
#X msg 295 78 0;
#X obj 242 28 key 1;
#X obj 295 28 keyup 1;
#X text 43 312 if received over network \, just update the GUI's insert
toggle accordingly \, the rest will be handled inside the tracker where
we are inserting a note inside the coll char and coll data files.;
#X msg 215 250 set \$1;
#X obj 215 275 s \$1-insert-gui;
#X obj 158 224 route bang;
#X connect 0 0 2 0;
#X connect 1 0 0 0;
#X connect 2 0 4 0;
#X connect 2 1 3 0;
#X connect 4 0 14 0;
#X connect 5 0 8 0;
#X connect 6 0 7 0;
#X connect 7 0 0 1;
#X connect 8 0 0 1;
#X connect 9 0 6 0;
#X connect 10 0 5 0;
#X connect 12 0 13 0;
#X connect 14 1 12 0;
#X restore 13 527 pd insert-logic \$1;
#X obj 578 446 r override-access-all-buttons;
#X msg 624 489 14;
#X obj 179 4 loadbang;
#X text 236 142 CARRIER;
#X text 288 142 MODULATOR;
#X msg 235 4 names sine saw tri square pink;
#X obj 179 291 bng 15 250 50 0 empty empty click\ before\ editing 18
6 0 10 #ffff0000 #ff000000 #ff000000 1;
#X obj 179 330 t b b;
#X obj 179 308 bng 15 250 50 0 empty empty click\ before\ saving 18
6 0 10 #ff00ff00 #ff000000 #ff000000 1;
#X obj 217 330 t updatefileloc b b;
#X obj 12 609 fromsymbol;
#X text 522 188 ---;
#X text 528 200 LVL;
#X text 528 150 OVR;
#X obj 1136 289 expr ($f1-0.1)*1.111111;
#X text 88 216 LOOP LENGTH(shift+l/r);
#X symbolatom 93 233 21 0 0 0 - #0-username-r #0-username-s 1 0 1,
f 21;
#N canvas 41 406 798 560 local-copy-logic 0;
#X obj 190 20 inlet;
#X obj 252 81 r \$1-myclientnum;
#X obj 191 530 s local-copyfrom;
#X obj 217 81 f \$1;
#X obj 490 20 keyname;
#X obj 217 106 !=;
#X obj 208 310 counter;
#X obj 191 389 f;
#X obj 145 310 delay 500;
#X obj 529 53 sel Shift;
#X msg 529 78 1;
#X msg 580 78 0;
#X obj 490 111 &&;
#X obj 191 419 +;
#X floatatom 191 444 5 0 0 0 - - - 0 0 1, f 5;
#X obj 224 504 s local-copyfrom-mode;
#X obj 191 504 f \$1;
#X obj 611 375 f;
#X obj 145 272 t b b b;
#X obj 145 335 t 0 b b;
#X obj 584 438 s \$1-instance-gui;
#X msg 584 414 color \$1 0;
#X msg 584 310 10;
#X obj 628 20 r \$1-instance-gui-color;
#X obj 361 504 f \$1;
#X obj 361 530 s local-copyfrom-client-num;
#X obj 490 136 * 4;
#X text 15 431 Copyfrom modes:1 - single click2 - double click3
- triple click4 - quadruple click5 - shift + single click6 - shift
+ double click7 - shift + triple click8 - shift + quadruple click
;
#X obj 208 335 nbx 5 14 0 4 0 0 empty empty empty 0 -8 0 10 #fffcfcfc
#ff000000 #ff000000 0 256 0 0 1 0;
#X obj 191 468 t b f b;
#X obj 145 249 gate 1 1;
#X text 24 18 only copy if we are trying to copy from a part that does
not belong to us or if it does \, that it does not have keyboard enabled
(otherwise we get stack overflow), f 25;
#X obj 254 136 r \$1-toggle-keyboard;
#X obj 254 161 == 0;
#X obj 217 190 +;
#X obj 217 215 > 0;
#X obj 190 55 t b b;
#X connect 0 0 36 0;
#X connect 1 0 5 1;
#X connect 3 0 5 0;
#X connect 4 0 12 0;
#X connect 4 1 9 0;
#X connect 5 0 34 0;
#X connect 6 0 28 0;
#X connect 7 0 13 0;
#X connect 8 0 19 0;
#X connect 9 0 10 0;
#X connect 9 1 11 0;
#X connect 10 0 12 1;
#X connect 11 0 12 1;
#X connect 12 0 26 0;
#X connect 13 0 14 0;
#X connect 14 0 29 0;
#X connect 16 0 2 0;
#X connect 17 0 21 0;
#X connect 18 0 8 0;
#X connect 18 1 6 0;
#X connect 18 2 22 0;
#X connect 19 0 6 3;
#X connect 19 1 7 0;
#X connect 19 2 17 0;
#X connect 21 0 20 0;
#X connect 22 0 21 0;
#X connect 23 0 17 1;
#X connect 24 0 25 0;
#X connect 26 0 13 1;
#X connect 28 0 7 1;
#X connect 29 0 16 0;
#X connect 29 1 15 0;
#X connect 29 2 24 0;
#X connect 30 0 18 0;
#X connect 32 0 33 0;
#X connect 33 0 34 1;
#X connect 34 0 35 0;
#X connect 35 0 30 0;
#X connect 36 0 30 1;
#X connect 36 1 3 0;
#X restore 17 294 pd local-copy-logic \$1;
#X obj 501 539 f;
#X obj 18 181 tgl 15 0 \$1-hover-mode \$1-manual-toggle-hover-mode
HOVER(space) 17 6 0 10 #fffcb46c #ff000000 #ff000000 0 1 1;
#X obj 42 266 ggee/image @pd_extra/ggee/empty_image.png 0 3 773 25
empty empty empty 773 25 0 0 10 #ff000000 0 -8 12.5 12.5 0 1 0;
#N canvas 322 381 254 355 hover-logic 0;
#X obj 63 17 inlet;
#X obj 63 72 list trim;
#X obj 63 97 route size;
#X obj 21 167 unpack 0 0 0 0 0;
#X floatatom 90 263 5 0 0 0 - - - 0 0 1, f 5;
#X obj 21 119 r \$1-hover-mode;
#X obj 21 144 gate 1 0, f 17;
#X obj 90 313 s \$1-hover-location;
#X obj 90 214 int;
#X obj 90 287 change;
#X obj 90 191 / 12.05;
#X obj 63 44 route bang;
#X connect 0 0 11 0;
#X connect 1 0 2 0;
#X connect 2 1 6 1;
#X connect 3 3 10 0;
#X connect 4 0 9 0;
#X connect 5 0 6 0;
#X connect 6 0 3 0;
#X connect 8 0 4 0;
#X connect 9 0 7 0;
#X connect 10 0 8 0;
#X connect 11 1 1 0;
#X restore 43 318 pd hover-logic \$1;
#X obj 1109 369 net-io \$1 hover;
#N canvas 727 338 312 223 hover-logic 0;
#X obj 124 165 outlet;
#X obj 169 99 gate 1 0;
#X obj 86 57 r \$0-toggle-local;
#X obj 214 33 key;
#X obj 214 57 sel 32;
#X obj 36 99 r \$1-toggle-keyboard;
#X obj 124 139 gate 1 0;
#X connect 1 0 6 1;
#X connect 2 0 1 0;
#X connect 3 0 4 0;
#X connect 4 0 1 1;
#X connect 5 0 6 0;
#X connect 6 0 0 0;
#X restore 118 90 pd hover-logic;
#X obj 468 490 t f f f f f;
#X obj 538 516 expr 1+($f1*2);
#X msg 538 539 click \$1;
#X msg 595 489 1;
#X text 402 142 HARMONICITY;
#X obj 657 89 t f f;
#N canvas 1063 98 577 567 lvl-logic 0;
#X obj 233 507 outlet;
#X obj 227 198 inlet;
#X obj 233 479 gate 1 0;
#X obj 150 421 r \$0-toggle-local;
#X obj 492 50 key;
#X obj 427 244 expr 1-$f1;
#X obj 278 404 *;
#X msg 452 302 1;
#X obj 333 50 keyup;
#X obj 278 369 f 1;
#X obj 452 333 t f f;
#X obj 333 173 sel 39 10;
#X obj 402 173 sel 10 39 124;
#X obj 333 274 t b f f;
#X obj 372 302 expr 1-$f1;
#X obj 221 333 gate 1 0;
#X obj 266 302 t b f;
#X obj 288 88 gate 1 0;
#X obj 381 50 r \$0-toggle-local;
#X obj 243 119 gate 1 0;
#X obj 349 88 r \$1-toggle-keyboard;
#X obj 447 117 gate 1 0;
#X obj 402 148 gate 1 0;
#X obj 23 132 route \$1;
#X obj 23 107 r network-in;
#X obj 23 156 route overdrive-override;
#X obj 227 274 sel 0.1;
#X obj 23 289 s network-in;
#X obj 23 265 list prepend \$1 overdrive;
#X obj 23 181 t f 1;
#X connect 1 0 26 0;
#X connect 2 0 0 0;
#X connect 3 0 2 0;
#X connect 4 0 21 1;
#X connect 5 0 13 0;
#X connect 6 0 2 1;
#X connect 7 0 10 0;
#X connect 8 0 17 1;
#X connect 9 0 6 0;
#X connect 10 0 9 0;
#X connect 10 1 6 1;
#X connect 11 0 13 0;
#X connect 11 1 5 0;
#X connect 12 0 13 0;
#X connect 12 1 5 0;
#X connect 12 2 7 0;
#X connect 13 0 9 0;
#X connect 13 1 6 1;
#X connect 13 2 14 0;
#X connect 14 0 15 0;
#X connect 15 0 9 0;
#X connect 16 0 15 1;
#X connect 16 1 9 1;
#X connect 17 0 19 1;
#X connect 18 0 17 0;
#X connect 18 0 21 0;
#X connect 19 0 11 0;
#X connect 20 0 19 0;
#X connect 20 0 22 0;
#X connect 21 0 22 1;
#X connect 22 0 12 0;
#X connect 23 0 25 0;
#X connect 24 0 23 0;
#X connect 25 0 29 0;
#X connect 26 1 16 0;
#X connect 28 0 27 0;
#X connect 29 0 28 0;
#X connect 29 1 13 0;
#X restore 657 109 pd lvl-logic \$1;
#X obj 819 596 loadbang;
#X obj 819 616 s main-out-multiplier-r;
#X text 819 563 to ensure when (re)created the abstraction gets the
main out levels, f 36;
#X text 1251 620 L2OrkTweet;
#X msg 1091 448 interactive \$1;
#X obj 1091 428 tgl 15 0 empty empty empty 17 7 0 10 #fffcfcfc #ff000000
#ff000000 1 1 1;
#X obj 495 447 t f f, f 11;
#X msg 566 489 1;
#X obj 1091 406 r \$0-toggle-local;
#X obj 976 291 r \$1-myclientnum;
#X obj 976 331 == \$1;
#X obj 1003 371 + 1;
#X obj 947 404 gate 2 1;
#X obj 578 466 t b b b 1;
#X obj 902 424 gate 1 0;
#X obj 929 484 \$1;
#X obj 929 504 s override-solo;
#X obj 902 464 t 1 b;
#X obj 976 351 t f f;
#X obj 953 371 moses 1;
#X obj 902 444 route 1;
#X text 1023 636 (c) 2020-present Ivica Ico Bukvic ico.bukvic.net;
#X obj 657 21 t f f;
#X obj 1109 268 t f f;
#X obj 895 364 t f f;
#X obj 894 130 t f f;
#X obj 921 151 s \$1-carrier;
#X obj 921 221 s \$1-modulator;
#X obj 894 200 t f f;
#X msg 1091 470 \; \$0-username-r interactive \$1 \; \$0-instrument-name-r
interactive \$1;
#X obj 1035 470 \$1;
#X obj 1035 448 loadbang;
#X obj 1091 522 pack 0 0;
#X obj 1076 74 r \$0-from-tracker-time;
#X obj 940 74 r \$1-tracker-override;
#N canvas 727 397 287 300 update-status-and-gui 0;
#X obj 78 58 inlet;
#X obj 97 191 s \$1-instance-gui;
#X msg 97 169 color \$1 0;
#X obj 78 218 s \$1-instance-gui-color;
#X obj 78 83 t f f f;
#X obj 117 117 > 12;
#X obj 117 142 s \$1-active;
#X connect 0 0 4 0;
#X connect 2 0 1 0;
#X connect 4 0 3 0;
#X connect 4 1 2 0;
#X connect 4 2 5 0;
#X connect 5 0 6 0;
#X restore 501 575 pd update-status-and-gui;
#X text 761 257 . . . .;
#X obj 1157 15 r \$1-loop-length-override;
#X text 50 257 . . . . . . . . . . . . . . . . . . . . . . . . . .
. . .;
#X obj 1035 496 t f f;
#X msg 1091 571 \; \$2-amp-envelope edit \$1 \; \$2-mod-envelope edit
\$1;
#X obj 1035 522 > 0;
#X obj 1091 549 gate 1 0;
#N canvas 658 312 566 426 parse-client-num 0;
#X obj 409 226 r \$1-myclientnum;
#X obj 340 250 list prepend;
#X obj 340 275 s client-out-w-num;
#X text 310 130 here we prepend our client num since single user can
now have multiple parts \, so with this each part is managing its own
instance here, f 36;
#X text 30 20 introduced in 0.87 \, this implementation allows for
a single user to manage multiple parts \, so we need to handle myclientnum
as a list \, rather than a single number, f 88;
#X obj 62 81 r myclientnum;
#X obj 62 106 t b l 0;
#X obj 62 343 f 0;
#X obj 62 367 s \$1-myclientnum;
#X obj 160 140 zl iter 1;
#X obj 160 165 t f f;
#X obj 187 238 ==;
#X obj 115 278 gate 1 0;
#X obj 115 303 moses 1;
#X obj 204 189 loadbang;
#X obj 204 214 \$1;
#X obj 340 200 r \$1-client-out;
#X connect 0 0 1 1;
#X connect 1 0 2 0;
#X connect 5 0 6 0;
#X connect 6 0 7 0;
#X connect 6 1 9 0;
#X connect 6 2 7 1;
#X connect 7 0 8 0;
#X connect 9 0 10 0;
#X connect 10 0 12 1;
#X connect 10 1 11 0;
#X connect 11 0 12 0;
#X connect 12 0 13 0;
#X connect 13 1 7 1;
#X connect 14 0 15 0;
#X connect 15 0 11 1;
#X connect 16 0 1 0;
#X restore 13 564 pd parse-client-num \$1;
#X obj 991 484 s solo;
#X obj 991 424 pack 0 0;
#X msg 991 461 \$2 \$1;
#X obj 976 311 t f f, f 9;
#X connect 0 0 146 0;
#X connect 7 0 185 0;
#X connect 8 0 188 0;
#X connect 10 0 73 0;
#X connect 10 0 111 0;
#X connect 11 0 74 0;
#X connect 11 0 112 0;
#X connect 12 0 77 0;
#X connect 12 0 113 0;
#X connect 13 0 125 0;
#X connect 14 0 68 0;
#X connect 15 0 182 0;
#X connect 21 0 59 0;
#X connect 23 0 15 0;
#X connect 26 0 40 0;
#X connect 27 0 57 0;
#X connect 27 0 117 0;
#X connect 29 0 103 0;
#X connect 31 0 153 0;
#X connect 33 0 166 0;
#X connect 34 0 35 0;
#X connect 35 0 36 0;
#X connect 36 0 26 0;
#X connect 37 0 38 0;
#X connect 38 0 39 0;
#X connect 40 0 101 0;
#X connect 40 1 41 0;
#X connect 40 2 31 0;
#X connect 42 0 46 0;
#X connect 44 0 45 0;
#X connect 45 0 71 0;
#X connect 45 0 72 0;
#X connect 45 0 73 0;
#X connect 45 0 74 0;
#X connect 45 0 75 0;
#X connect 45 0 76 0;
#X connect 45 0 77 0;
#X connect 45 0 124 0;
#X connect 46 0 43 0;
#X connect 52 0 26 0;
#X connect 56 0 13 0;
#X connect 57 0 27 0;
#X connect 58 0 14 0;
#X connect 59 0 60 0;
#X connect 60 0 59 1;
#X connect 60 0 71 0;
#X connect 60 0 115 0;
#X connect 61 0 147 0;
#X connect 62 0 35 0;
#X connect 64 0 26 0;
#X connect 64 1 66 0;
#X connect 67 0 147 0;
#X connect 68 0 14 0;
#X connect 69 0 15 0;
#X connect 71 0 60 0;
#X connect 73 0 10 0;
#X connect 74 0 11 0;
#X connect 75 0 8 0;
#X connect 76 0 7 0;
#X connect 77 0 12 0;
#X connect 79 0 43 0;
#X connect 81 0 42 0;
#X connect 81 1 79 0;
#X connect 82 0 15 0;
#X connect 83 0 7 0;
#X connect 84 0 64 0;
#X connect 85 0 90 0;
#X connect 86 0 87 1;
#X connect 87 0 147 0;
#X connect 88 0 89 0;
#X connect 89 0 87 0;
#X connect 90 0 86 0;
#X connect 90 1 126 0;
#X connect 99 0 39 0;
#X connect 100 0 102 0;
#X connect 101 0 100 0;
#X connect 101 1 37 0;
#X connect 102 0 99 0;
#X connect 103 0 104 0;
#X connect 104 0 105 0;
#X connect 105 0 29 0;
#X connect 106 0 64 0;
#X connect 107 0 184 0;
#X connect 108 0 107 0;
#X connect 109 0 107 0;
#X connect 110 0 64 0;
#X connect 111 0 10 0;
#X connect 112 0 11 0;
#X connect 113 0 12 0;
#X connect 114 0 8 0;
#X connect 115 0 60 0;
#X connect 117 0 27 0;
#X connect 118 0 124 0;
#X connect 118 0 158 0;
#X connect 119 0 118 0;
#X connect 124 0 118 0;
#X connect 125 0 13 0;
#X connect 126 0 87 1;
#X connect 126 1 13 0;
#X connect 126 2 125 2;
#X connect 129 0 173 0;
#X connect 130 0 87 1;
#X connect 131 0 134 0;
#X connect 134 0 7 0;
#X connect 134 0 8 0;
#X connect 135 0 136 0;
#X connect 136 0 67 0;
#X connect 136 1 110 0;
#X connect 137 0 138 0;
#X connect 138 0 139 0;
#X connect 138 1 67 0;
#X connect 138 2 110 0;
#X connect 139 0 78 0;
#X connect 143 0 120 0;
#X connect 147 0 195 0;
#X connect 148 0 151 0;
#X connect 149 0 150 0;
#X connect 151 0 148 0;
#X connect 152 0 148 0;
#X connect 153 0 47 0;
#X connect 153 1 82 0;
#X connect 153 2 61 0;
#X connect 153 3 81 0;
#X connect 153 4 154 0;
#X connect 154 0 155 0;
#X connect 155 0 149 0;
#X connect 156 0 154 0;
#X connect 158 0 159 0;
#X connect 158 1 183 0;
#X connect 159 0 118 0;
#X connect 160 0 161 0;
#X connect 164 0 13 0;
#X connect 164 0 27 0;
#X connect 164 0 14 0;
#X connect 164 0 107 0;
#X connect 164 0 148 0;
#X connect 164 0 15 0;
#X connect 164 0 10 0;
#X connect 164 0 11 0;
#X connect 164 0 12 0;
#X connect 164 0 60 0;
#X connect 164 0 118 0;
#X connect 164 0 63 0;
#X connect 164 0 8 0;
#X connect 164 0 7 0;
#X connect 165 0 164 0;
#X connect 165 0 189 0;
#X connect 165 0 192 0;
#X connect 166 0 31 1;
#X connect 166 1 79 1;
#X connect 167 0 47 0;
#X connect 168 0 165 0;
#X connect 169 0 207 0;
#X connect 170 0 178 0;
#X connect 171 0 172 0;
#X connect 172 0 174 1;
#X connect 172 1 205 0;
#X connect 173 0 167 0;
#X connect 173 1 156 0;
#X connect 173 2 130 0;
#X connect 173 3 174 0;
#X connect 174 0 180 0;
#X connect 175 0 176 0;
#X connect 177 0 107 0;
#X connect 177 1 175 0;
#X connect 178 0 179 0;
#X connect 178 1 171 0;
#X connect 179 0 174 0;
#X connect 180 0 177 0;
#X connect 182 0 69 0;
#X connect 182 1 123 0;
#X connect 183 0 119 0;
#X connect 183 1 143 0;
#X connect 184 0 109 0;
#X connect 184 1 172 1;
#X connect 185 0 83 0;
#X connect 185 1 186 0;
#X connect 188 0 114 0;
#X connect 188 1 187 0;
#X connect 190 0 199 0;
#X connect 191 0 190 0;
#X connect 192 0 202 1;
#X connect 193 0 125 2;
#X connect 194 0 125 2;
#X connect 197 0 117 2;
#X connect 199 0 201 0;
#X connect 199 1 192 1;
#X connect 201 0 202 0;
#X connect 202 0 200 0;
#X connect 205 0 206 0;
#X connect 206 0 204 0;
#X connect 207 0 170 0;
#X connect 207 1 205 1;
#X coords 0 -1 1 1 815 149 1 9 138;
