#N canvas 727 341 532 481 10;
#X obj -30 -30 preset_hub k12 1 %hidden%;
#X obj 114 316 bng 27 50 49 0 empty empty 2 10 12 0 10 #fcb46c #fc6418
#000000 1;
#X text 83 17 loop-preset button (used by preset-loop-matrix);
#X obj 114 361 f \$1;
#X obj 114 46 loadbang;
#X obj 114 71 f \$1;
#X msg 114 272 label \$1;
#X obj 114 222 tosymbol;
#X msg 178 272 label_pos \$1 12;
#X obj 178 222 > 9;
#X obj 269 222 > 99;
#X obj 114 427 s lpb-data;
#X obj 114 176 t f f f f;
#X obj 361 222 > 999;
#X obj 178 247 expr 10-($f1*3)-($f2*3)-($f3*3);
#X obj 372 46 r plm-offset;
#X obj 114 396 +, f 50;
#X obj 372 94 t b f f;
#X obj 114 152 +;
#X obj 372 70 - 1;
#X connect 1 0 3 0;
#X connect 3 0 16 0;
#X connect 4 0 5 0;
#X connect 5 0 18 0;
#X connect 6 0 1 0;
#X connect 7 0 6 0;
#X connect 8 0 1 0;
#X connect 9 0 14 0;
#X connect 10 0 14 1;
#X connect 12 0 7 0;
#X connect 12 1 9 0;
#X connect 12 2 10 0;
#X connect 12 3 13 0;
#X connect 13 0 14 2;
#X connect 14 0 8 0;
#X connect 15 0 19 0;
#X connect 16 0 11 0;
#X connect 17 0 18 0;
#X connect 17 1 18 1;
#X connect 17 2 16 1;
#X connect 18 0 12 0;
#X connect 19 0 17 0;
#X coords 0 -1 1 1 27 27 2 114 316;
