#N canvas 991 273 778 579 10;
#X obj 42 73 route \$1;
#X obj 42 97 route \$2;
#X text 99 97 select the right value;
#X obj 42 503 outlet;
#X obj 397 30 inlet;
#X obj 447 30 loadbang;
#X obj 447 157 \$1;
#X text 474 74 only send network messages out if this is a local instance
, f 30;
#X obj 531 341 s client-out;
#X obj 42 30 r network-in;
#X obj 593 30 inlet;
#X text 631 30 manually set instance;
#X obj 474 108 r myclientnum;
#X obj 447 179 == -1;
#X obj 531 318 list prepend \$2;
#X text 99 73 select the right client;
#X obj 474 133 t b f;
#X obj 99 438 f;
#X obj 352 265 gate 2 1;
#X obj 447 202 + 1;
#X obj 447 226 f;
#X floatatom 447 251 5 0 0 0 - - - 0 0 1, f 5;
#X obj 486 251 + 1;
#X obj 486 296 gate 2 1;
#X text 352 456 the [t b b 0] thing is designed to override local user
messing with network user's settings since pd-l2ork does not have an
option to ignore actions on gui objects. the gate above branches into
two conditions. left is for recalling latest network-enabled data and
by doing so overriding user input (since it should be disallowed) \,
while the right has two options: do the same as incoming networked
data because we are not connected and need to store latest data \,
or forward to the network., f 67;
#X obj 462 319 route bang;
#X floatatom 486 276 5 0 0 0 - - - 0 0 1, f 5;
#X obj 486 226 r network-status;
#X obj 126 503 outlet;
#X obj 99 463 t f b;
#X text 171 456 optional second outlet cancels message to the engine
(this is necessary for tracker's metro as it will move at least once
before it receives 0 \, even in zero logical time), f 23;
#X text 140 188 nlr stands for no local report because these controls
are triggers and have no state, f 32;
#X obj 42 121 route bang;
#X connect 0 0 1 0;
#X connect 1 0 32 0;
#X connect 4 0 18 1;
#X connect 5 0 6 0;
#X connect 6 0 13 0;
#X connect 9 0 0 0;
#X connect 10 0 6 0;
#X connect 10 0 0 1;
#X connect 12 0 16 0;
#X connect 13 0 19 0;
#X connect 14 0 8 0;
#X connect 16 0 6 0;
#X connect 16 1 13 1;
#X connect 17 0 29 0;
#X connect 18 1 23 1;
#X connect 19 0 20 0;
#X connect 20 0 18 0;
#X connect 20 0 21 0;
#X connect 22 0 26 0;
#X connect 23 0 25 0;
#X connect 23 1 14 0;
#X connect 25 1 17 1;
#X connect 26 0 23 0;
#X connect 27 0 22 0;
#X connect 29 0 3 0;
#X connect 29 1 28 0;
#X connect 32 0 3 0;
#X connect 32 1 17 0;
