#N canvas 453 124 893 835 10;
#X obj 169 381 route \$1;
#X obj 169 405 route \$2;
#X text 226 405 select the right value;
#X obj 74 792 outlet;
#X obj 190 482 inlet;
#X obj 616 353 loadbang;
#X obj 616 425 \$1;
#X text 616 303 only send network messages out if this is a local instance
, f 21;
#X obj 169 356 r network-in;
#X obj 326 30 inlet;
#X text 364 30 manually set instance;
#X obj 616 447 == -1;
#X obj 473 764 list prepend \$2;
#X text 226 381 select the right client;
#X obj 643 401 t b f;
#X obj 616 469 + 1;
#X obj 616 521 f;
#X floatatom 473 710 5 0 0 0 - - - 0 0 1, f 5;
#X obj 473 657 r network-status;
#X obj 65 283 r local-report-request;
#X obj 65 259 s local-report-response;
#X obj 65 219 list prepend \$1;
#X obj 65 189 list prepend \$2;
#X obj 65 239 list trim;
#X obj 169 586 f \$3;
#X obj 65 141 gate 2 1;
#X obj 26 29 loadbang;
#X obj 26 50 \$4;
#X obj 26 71 + 1;
#X obj 26 113 moses 1;
#X obj 26 92 moses 3;
#X text 124 73 4th argument \, when set to 1 (default 0) \, disables
the use of the local (e.g. tracker) variable for session saving purposes
due to delay in timing the metro (based on the tracker-time variable)
which prematurely starts tracker variable, f 32;
#X obj 508 30 inlet;
#X text 210 653 0.46 version introduces the new 5th argument included
below \, which is used to copy preset or loop data to user's slot.
this argument helps inform whether the data belongs to preset or loop.
, f 26;
#X obj 381 468 r local-copyfrom;
#X obj 381 518 sel 1;
#X obj 381 493 == \$1;
#X obj 111 768 s local-copyfrom-data;
#X obj 111 719 list prepend \$2;
#X obj 111 744 list prepend \$5;
#X obj 732 30 inlet;
#X obj 75 308 r \$1-\$2-local-report-request;
#X obj 381 543 t 1 b 2;
#X obj 74 639 gate 3 1, f 13;
#X text 190 435 data input inlet, f 5;
#X obj 473 741 gate 1 0;
#X obj 415 710 gate 2 1;
#X obj 35 498 t 1 b 3;
#X obj 190 507 t f f;
#X text 570 30 override the last known value and pass it along without
sending it to the network (used by session-sync and sync-controls?
, f 24;
#X text 770 30 set internal value without passing it via network.,
f 15;
#X obj 74 672 t f f;
#X obj 508 55 t b f 1;
#X obj 473 787 s \$1-client-out;
#X obj 643 376 r \$1-myclientnum;
#X connect 0 0 1 0;
#X connect 1 0 24 0;
#X connect 4 0 48 0;
#X connect 5 0 6 0;
#X connect 6 0 11 0;
#X connect 8 0 0 0;
#X connect 9 0 6 0;
#X connect 9 0 0 1;
#X connect 9 0 21 1;
#X connect 9 0 36 1;
#X connect 11 0 15 0;
#X connect 12 0 53 0;
#X connect 14 0 6 0;
#X connect 14 1 11 1;
#X connect 15 0 16 0;
#X connect 16 0 46 0;
#X connect 17 0 45 0;
#X connect 18 0 17 0;
#X connect 19 0 47 0;
#X connect 21 0 23 0;
#X connect 22 0 21 0;
#X connect 23 0 20 0;
#X connect 24 0 43 1;
#X connect 25 0 22 0;
#X connect 26 0 27 0;
#X connect 27 0 28 0;
#X connect 28 0 30 0;
#X connect 29 1 25 0;
#X connect 30 0 29 0;
#X connect 32 0 52 0;
#X connect 34 0 36 0;
#X connect 35 0 42 0;
#X connect 36 0 35 0;
#X connect 38 0 39 0;
#X connect 39 0 37 0;
#X connect 40 0 24 1;
#X connect 41 0 47 0;
#X connect 42 0 43 0;
#X connect 42 1 24 0;
#X connect 42 2 43 0;
#X connect 43 0 51 0;
#X connect 43 1 38 0;
#X connect 43 2 25 1;
#X connect 45 0 12 0;
#X connect 46 1 45 1;
#X connect 47 0 43 0;
#X connect 47 1 24 0;
#X connect 47 2 43 0;
#X connect 48 0 24 1;
#X connect 48 1 46 1;
#X connect 51 0 3 0;
#X connect 51 1 46 1;
#X connect 52 0 16 0;
#X connect 52 1 24 0;
#X connect 52 2 46 0;
#X connect 54 0 14 0;
