#N canvas 984 310 835 607 10;
#X obj 25 173 route \$1;
#X obj 25 197 route \$2;
#X text 82 197 select the right value;
#X obj 25 567 outlet;
#X obj 335 30 inlet;
#X obj 430 30 loadbang;
#X obj 430 131 \$1;
#X text 457 60 only send network messages out if this is a local instance
;
#X obj 25 30 r network-in;
#X obj 576 30 inlet;
#X text 614 30 manually set instance;
#X obj 430 153 == -1;
#X obj 514 318 list prepend \$2;
#X text 82 173 select the right client;
#X obj 457 107 t b f;
#X obj 325 261 gate 2 1;
#X obj 430 176 + 1;
#X floatatom 430 227 5 0 0 0 - - - 0 0 1, f 5;
#X obj 469 226 + 1;
#X obj 469 296 gate 2 1;
#X floatatom 469 251 5 0 0 0 - - - 0 0 1, f 5;
#X obj 469 201 r network-status;
#X obj 171 284 r local-report-request;
#X obj 216 567 s local-report-response;
#X obj 216 527 list prepend \$1;
#X obj 216 502 list prepend \$2;
#X obj 216 547 list trim;
#X obj 82 363 lister;
#X obj 25 221 route bang;
#X obj 304 341 r local-copyfrom;
#X obj 304 389 sel 1;
#X obj 304 365 == \$1;
#X obj 374 550 s local-copyfrom-data;
#X obj 374 502 list prepend \$2;
#X obj 374 526 list prepend \$3;
#X obj 171 454 gate 3 1;
#X obj 115 488 t a a;
#X obj 304 413 t 1 b b 2;
#X obj 430 201 f;
#X obj 153 55 r network-in-local-only;
#X obj 108 108 t b a 1;
#X obj 171 307 t 1 b 3;
#X obj 108 30 r \$1-remote-user-gui-update;
#X obj 108 80 gate 1 0;
#X text 573 422 network-in-local-only introduced in 0.83 is used for
session-sync where we do not want the local client that is connected
to the network sending two tracker-time data points \, as that will
throw everyone off. since this abstraction is only used for tracker-time
\, we have a flexibility to handle this special case directly within
the abstraction. we use remote-user-gui-update to update only parts
that have a connected client., f 39;
#X obj 514 341 s \$1-client-out;
#X obj 457 82 r \$1-myclientnum;
#X connect 0 0 1 0;
#X connect 1 0 28 0;
#X connect 4 0 27 0;
#X connect 5 0 6 0;
#X connect 6 0 11 0;
#X connect 8 0 0 0;
#X connect 9 0 6 0;
#X connect 9 0 0 1;
#X connect 9 0 24 1;
#X connect 9 0 31 1;
#X connect 11 0 16 0;
#X connect 12 0 45 0;
#X connect 14 0 6 0;
#X connect 14 1 11 1;
#X connect 15 1 19 1;
#X connect 16 0 38 0;
#X connect 17 0 15 0;
#X connect 18 0 20 0;
#X connect 19 0 27 1;
#X connect 19 1 12 0;
#X connect 20 0 19 0;
#X connect 21 0 18 0;
#X connect 22 0 41 0;
#X connect 24 0 26 0;
#X connect 25 0 24 0;
#X connect 26 0 23 0;
#X connect 27 0 35 1;
#X connect 28 0 3 0;
#X connect 28 1 27 0;
#X connect 29 0 31 0;
#X connect 30 0 37 0;
#X connect 31 0 30 0;
#X connect 33 0 34 0;
#X connect 34 0 32 0;
#X connect 35 0 36 0;
#X connect 35 1 33 0;
#X connect 35 2 25 0;
#X connect 36 0 3 0;
#X connect 36 1 15 1;
#X connect 37 0 35 0;
#X connect 37 1 27 0;
#X connect 37 2 3 0;
#X connect 37 3 35 0;
#X connect 38 0 17 0;
#X connect 39 0 43 1;
#X connect 40 0 38 0;
#X connect 40 1 0 0;
#X connect 40 2 15 0;
#X connect 41 0 35 0;
#X connect 41 1 3 0;
#X connect 41 2 35 0;
#X connect 42 0 43 0;
#X connect 43 0 40 0;
#X connect 46 0 14 0;
