#N canvas 296 215 858 560 10;
#X obj 42 73 route \$1;
#X obj 42 98 route \$2;
#X text 99 98 select the right value;
#X obj 42 520 outlet;
#X obj 382 30 inlet;
#X obj 447 60 loadbang;
#X obj 447 157 \$1;
#X text 474 86 only send network messages out if this is a local instance
;
#X obj 399 313 s client-out;
#X obj 42 30 r network-in;
#X obj 593 30 inlet;
#X text 631 30 manually set instance;
#X obj 474 108 r myclientnum;
#X obj 447 179 == -1;
#X obj 399 290 list prepend \$2;
#X text 99 73 select the right client;
#X obj 474 133 t b f;
#X obj 337 265 gate 2 1;
#X obj 447 202 + 1;
#X obj 447 226 f;
#X obj 337 290 t b 0;
#X obj 139 268 r local-report-request;
#X obj 139 229 s local-report-response;
#X obj 139 189 list prepend \$1;
#X obj 139 159 list prepend \$2;
#X obj 139 209 list trim;
#X obj 364 408 t 0 b 1;
#X obj 364 451 gate 1 0;
#X obj 364 342 r local-copyfrom;
#X obj 364 386 sel 1;
#X obj 364 364 == \$1;
#X obj 364 520 s local-copyfrom-data;
#X obj 364 474 list prepend \$2;
#X obj 364 497 list prepend \$3;
#X obj 382 85 t l l;
#X obj 432 30 inlet;
#X obj 139 293 t b 2;
#X obj 166 520 outlet;
#X text 562 312 first inlet is similar to other net-io objects. the
second one is exclusively for the coll dump request which is called
on the local-report-request for the puropose of saving the entire session.
third inlet is used for setting the context.second outlet is used
to control the flow of the gate \, so that we can distinguish between
the regular report request by the server versus the one initiated for
the purpose of saving the session. the gate is reverted using the bangout
signal from the coll object upon completion of the dump request. this
aspect exists outside this patch and inside the tracker subpatch.,
f 42;
#X connect 0 0 1 0;
#X connect 1 0 3 0;
#X connect 4 0 34 0;
#X connect 5 0 6 0;
#X connect 6 0 13 0;
#X connect 9 0 0 0;
#X connect 10 0 6 0;
#X connect 10 0 0 1;
#X connect 10 0 23 1;
#X connect 10 0 30 1;
#X connect 12 0 16 0;
#X connect 13 0 18 0;
#X connect 14 0 8 0;
#X connect 16 0 6 0;
#X connect 16 1 13 1;
#X connect 17 0 20 0;
#X connect 17 1 14 0;
#X connect 18 0 19 0;
#X connect 19 0 17 0;
#X connect 20 0 19 0;
#X connect 20 1 17 0;
#X connect 21 0 36 0;
#X connect 23 0 25 0;
#X connect 24 0 23 0;
#X connect 25 0 22 0;
#X connect 26 0 27 0;
#X connect 26 1 3 0;
#X connect 26 2 27 0;
#X connect 27 0 32 0;
#X connect 28 0 30 0;
#X connect 29 0 26 0;
#X connect 30 0 29 0;
#X connect 32 0 33 0;
#X connect 33 0 31 0;
#X connect 34 0 17 1;
#X connect 34 1 27 1;
#X connect 35 0 24 0;
#X connect 36 0 3 0;
#X connect 36 1 37 0;
