#N canvas 344 231 976 632 10;
#X obj 42 73 route \$1;
#X obj 42 97 route \$2;
#X text 99 97 select the right value;
#X obj 42 543 outlet;
#X obj 397 30 inlet;
#X obj 447 30 loadbang;
#X obj 447 157 \$1;
#X text 474 86 only send network messages out if this is a local instance
;
#X obj 42 30 r network-in;
#X obj 593 30 inlet;
#X text 631 30 manually set instance;
#X obj 474 108 r myclientnum;
#X obj 447 179 == -1;
#X obj 531 318 list prepend \$2;
#X text 99 73 select the right client;
#X obj 474 133 t b f;
#X obj 352 265 gate 2 1;
#X obj 447 202 + 1;
#X obj 447 226 f;
#X obj 352 290 t b b 0;
#X floatatom 447 251 5 0 0 0 - - - 0 0 1, f 5;
#X obj 486 251 + 1;
#X obj 486 296 gate 2 1;
#X text 347 496 the [t b b 0] thing is designed to override local user
messing with network user's settings since pd-l2ork does not have an
option to ignore actions on gui objects. the gate above branches into
two conditions. left is for recalling latest network-enabled data and
by doing so overriding user input (since it should be disallowed) \,
while the right has two options: do the same as incoming networked
data because we are not connected and need to store latest data \,
or forward to the network., f 65;
#X obj 462 319 route bang;
#X floatatom 486 276 5 0 0 0 - - - 0 0 1, f 5;
#X obj 486 226 r network-status;
#X obj 126 543 outlet;
#X text 170 496 optional second outlet cancels message to the engine
(this is necessary for tracker's metro as it will move at least once
before it receives 0 \, even in zero logical time), f 23;
#X obj 99 478 symbol \$3;
#X obj 99 503 t s b;
#X obj 99 176 tosymbol;
#X obj 775 30 inlet;
#X text 813 29 override default symbol (used for more than one word)
, f 20;
#X obj 42 151 route bang;
#X obj 157 154 r override-access-all-buttons;
#X msg 157 176 2;
#X obj 129 311 t 0 b 1;
#X obj 129 345 gate 1 0;
#X obj 129 235 r local-copyfrom;
#X obj 129 283 sel 1;
#X obj 397 87 t s s;
#X obj 129 258 == \$1;
#X obj 129 414 s local-copyfrom-data;
#X obj 129 368 list prepend \$2;
#X obj 129 391 list prepend \$4;
#X obj 531 341 s \$1-client-out;
#X connect 0 0 1 0;
#X connect 1 0 34 0;
#X connect 4 0 41 0;
#X connect 5 0 6 0;
#X connect 6 0 12 0;
#X connect 8 0 0 0;
#X connect 9 0 6 0;
#X connect 9 0 0 1;
#X connect 9 0 42 1;
#X connect 11 0 15 0;
#X connect 12 0 17 0;
#X connect 13 0 46 0;
#X connect 15 0 6 0;
#X connect 15 1 12 1;
#X connect 16 0 19 0;
#X connect 16 1 22 1;
#X connect 17 0 18 0;
#X connect 18 0 16 0;
#X connect 18 0 20 0;
#X connect 19 0 18 0;
#X connect 19 1 29 0;
#X connect 19 2 16 0;
#X connect 21 0 25 0;
#X connect 22 0 24 0;
#X connect 22 1 13 0;
#X connect 24 1 29 1;
#X connect 25 0 22 0;
#X connect 26 0 21 0;
#X connect 29 0 30 0;
#X connect 30 0 3 0;
#X connect 30 1 27 0;
#X connect 31 0 29 0;
#X connect 32 0 29 0;
#X connect 34 0 3 0;
#X connect 34 1 31 0;
#X connect 35 0 36 0;
#X connect 36 0 16 0;
#X connect 37 0 38 0;
#X connect 37 1 29 0;
#X connect 37 2 38 0;
#X connect 38 0 44 0;
#X connect 39 0 42 0;
#X connect 40 0 37 0;
#X connect 41 0 16 1;
#X connect 41 1 38 1;
#X connect 42 0 40 0;
#X connect 44 0 45 0;
#X connect 45 0 43 0;
