#N canvas 525 23 896 939 10;
#X obj 200 791 until;
#X obj 200 813 list append;
#X obj 200 835 list split 1;
#X obj 287 874 f;
#X obj 317 874 + 1;
#X msg 302 852 0;
#X obj 200 857 t f b;
#X obj 368 271 until;
#X obj 368 318 f;
#X obj 398 318 + 1;
#X msg 413 271 0;
#X obj 368 239 35;
#X text 391 239 table size;
#X obj 383 215 + 3;
#X text 438 339 read out table to list;
#X obj 383 194 expr size("$s1");
#X obj 36 348 inlet;
#X obj 383 173 symbol \$1;
#X obj 368 339 tabread \$1;
#X obj 224 898 tabwrite \$1;
#X obj 36 282 loadbang;
#X obj 36 304 symbol \$2;
#X obj 36 326 route 0;
#X msg 75 388 set \$1;
#X obj 462 416 route \$3;
#X obj 387 824 list prepend \$3;
#X obj 462 372 r network-in;
#X obj 387 846 send client-out;
#X obj 235 60 inlet;
#X obj 462 394 route \$4;
#X obj 323 18 loadbang;
#X obj 266 104 + 1;
#X text 19 17 By Ivica Ico BukvicBased on rc-patches by Dan Wilcox
;
#X text 410 215 multiple of 4 + 3?;
#X obj 381 18 inlet;
#X msg 314 504 clear;
#X obj 269 526 list cat;
#X obj 462 438 route bang;
#X text 387 868 outgoing network messages;
#X text 445 482 incoming network messages;
#X text 334 43 signal when array changed;
#X obj 224 727 gate 1 1;
#X obj 182 410 t b;
#X obj 266 126 gate 2 2, f 10;
#X obj 75 410 preset_node null;
#X text 77 111 outlet 1 is when it is not a local instance (to prevent
editing) and 2 when it is \, so that the local data is updated, f
30;
#X obj 462 460 t b;
#X obj 387 802 gate 1 0;
#X obj 323 151 t b 1 b b b 0 b;
#X obj 269 614 lister;
#X obj 557 868 s local-report-response;
#X obj 557 848 list trim;
#X obj 557 808 list prepend \$3;
#X obj 557 828 list prepend \$4;
#X obj 402 560 r local-report-request;
#X text 310 737 write incoming list to table and send to the net and
for local reports, f 37;
#X obj 712 563 t 0 b 1;
#X obj 712 808 gate 1 0;
#X obj 712 461 r local-copyfrom;
#X obj 712 535 sel 1;
#X obj 224 750 t b l b l l l;
#X obj 712 510 == \$4;
#X obj 712 871 s local-copyfrom-data;
#X obj 712 850 list prepend \$5;
#X obj 712 829 list prepend \$3;
#X connect 0 0 1 0;
#X connect 1 0 2 0;
#X connect 2 0 6 0;
#X connect 2 1 1 1;
#X connect 2 2 0 1;
#X connect 3 0 4 0;
#X connect 3 0 19 1;
#X connect 4 0 3 1;
#X connect 5 0 3 1;
#X connect 6 0 19 0;
#X connect 6 1 3 0;
#X connect 7 0 8 0;
#X connect 8 0 9 0;
#X connect 8 0 18 0;
#X connect 9 0 8 1;
#X connect 10 0 8 1;
#X connect 11 0 7 0;
#X connect 13 0 11 1;
#X connect 15 0 13 0;
#X connect 16 0 23 0;
#X connect 17 0 15 0;
#X connect 18 0 36 0;
#X connect 20 0 21 0;
#X connect 21 0 22 0;
#X connect 22 1 23 0;
#X connect 23 0 44 0;
#X connect 24 0 37 0;
#X connect 25 0 27 0;
#X connect 26 0 29 0;
#X connect 28 0 31 0;
#X connect 28 0 47 0;
#X connect 29 0 24 0;
#X connect 30 0 43 1;
#X connect 31 0 43 0;
#X connect 34 0 43 1;
#X connect 35 0 36 1;
#X connect 36 0 49 0;
#X connect 37 0 46 0;
#X connect 37 1 49 0;
#X connect 41 0 60 0;
#X connect 42 0 49 0;
#X connect 43 0 42 0;
#X connect 43 1 48 0;
#X connect 44 0 49 0;
#X connect 46 0 49 0;
#X connect 47 0 25 0;
#X connect 48 0 36 0;
#X connect 48 1 41 0;
#X connect 48 2 11 0;
#X connect 48 3 10 0;
#X connect 48 4 17 0;
#X connect 48 5 41 0;
#X connect 48 6 35 0;
#X connect 49 0 41 1;
#X connect 51 0 50 0;
#X connect 52 0 53 0;
#X connect 53 0 51 0;
#X connect 54 0 49 0;
#X connect 56 0 57 0;
#X connect 56 1 49 0;
#X connect 56 2 57 0;
#X connect 57 0 64 0;
#X connect 58 0 61 0;
#X connect 59 0 56 0;
#X connect 60 0 0 0;
#X connect 60 1 1 1;
#X connect 60 2 5 0;
#X connect 60 3 47 1;
#X connect 60 4 52 0;
#X connect 60 5 57 1;
#X connect 61 0 59 0;
#X connect 63 0 62 0;
#X connect 64 0 63 0;
