#N canvas 87 497 450 474 10;
#X obj -30 -30 preset_hub k12 1 %hidden%;
#X obj 268 51 inlet;
#X obj 285 166 r;
#X msg 302 142 set \$1-tracker-sync;
#X obj 285 215 ==, f 11;
#X obj 285 240 sel 1;
#X obj 285 190 change -1;
#X obj 268 75 unpack 0 0 0;
#X obj 285 400 s;
#X obj 324 400 s;
#X obj 33 293 t f f;
#X obj 337 112 t f f;
#X obj 285 316 f, f 14;
#X obj 285 265 t b 0, f 11;
#X msg 33 342 symbol \$1-tracker-override;
#X msg 60 316 symbol \$1-tracker-position-override;
#X obj 285 341 t 1 0 f;
#X text 64 49 sync-to-at<sync-from-client-num 1-12><sync-to-client-num
1-12><time 0-63>, f 31;
#X connect 1 0 7 0;
#X connect 2 0 6 0;
#X connect 3 0 2 1;
#X connect 4 0 5 0;
#X connect 5 0 13 0;
#X connect 6 0 4 0;
#X connect 7 0 10 0;
#X connect 7 1 3 0;
#X connect 7 2 11 0;
#X connect 10 0 14 0;
#X connect 10 1 15 0;
#X connect 11 0 4 1;
#X connect 11 1 12 1;
#X connect 12 0 16 0;
#X connect 13 0 12 0;
#X connect 13 1 3 0;
#X connect 14 0 8 1;
#X connect 15 0 9 1;
#X connect 16 0 8 0;
#X connect 16 1 8 0;
#X connect 16 2 9 0;
