#N canvas 801 189 652 811 10;
#X obj -30 -30 preset_hub k12 1 %hidden%;
#X obj 470 26 inlet;
#X obj 476 455 r;
#X msg 493 430 set \$1-tracker-sync;
#X obj 476 499 ==, f 11;
#X obj 476 521 sel 1;
#X obj 476 477 change -1;
#X obj 470 93 unpack 0 0 0;
#X obj 476 769 s;
#X obj 515 769 s;
#X obj 539 131 t f f;
#X obj 476 635 f, f 16;
#X msg 65 741 symbol \$1-tracker-override;
#X msg 80 690 symbol \$1-tracker-position-override;
#X obj 476 660 t 1 0 f;
#X msg 204 623 symbol \$1-manual-loop-length;
#X obj 187 648 s;
#X obj 476 543 t b b 0, f 11;
#X obj 201 516 f;
#X obj 201 541 t f f;
#X obj 128 622 s;
#X msg 145 597 symbol \$1-loop-length;
#X msg 155 622 set \$1;
#X obj 454 131 t f f f;
#X obj 375 307 gate 2 1;
#X obj 348 162 > 12;
#X obj 348 187 + 1;
#X obj 348 212 t f f;
#X obj 218 460 f;
#X obj 173 283 gate 2 1;
#X text 26 26 sync-w-tempo-to-at<sync-from-client-num 1-12><sync-to-client-num
1-12> OR if value is > 12 use this as loop-length<time 0-63>, f 71
;
#X obj 457 257 split 500 60000;
#X msg 457 282 1;
#X obj 437 336 gate 1 0;
#X obj 493 162 split 1 12;
#X obj 493 231 t f 0;
#X msg 544 282 0;
#X obj 315 517 route;
#X obj 315 442 t b f;
#X obj 315 562 route loop-length;
#X obj 65 150 t f f f f b f;
#X obj 315 336 f;
#X obj 315 467 s;
#X msg 332 403 symbol \$1-loop-length-local-report-request;
#X obj 315 492 r local-report-response;
#X obj 375 332 t f f;
#X obj 315 587 t f 0;
#X connect 1 0 7 0;
#X connect 2 0 6 0;
#X connect 3 0 2 1;
#X connect 4 0 5 0;
#X connect 5 0 17 0;
#X connect 6 0 4 0;
#X connect 7 0 40 0;
#X connect 7 1 23 0;
#X connect 7 2 10 0;
#X connect 10 0 4 1;
#X connect 10 1 11 1;
#X connect 11 0 14 0;
#X connect 12 0 8 1;
#X connect 13 0 9 1;
#X connect 14 0 8 0;
#X connect 14 1 8 0;
#X connect 14 2 9 0;
#X connect 15 0 16 1;
#X connect 17 0 11 0;
#X connect 17 1 18 0;
#X connect 17 2 3 0;
#X connect 18 0 19 0;
#X connect 19 0 20 0;
#X connect 19 1 22 0;
#X connect 21 0 20 1;
#X connect 22 0 16 0;
#X connect 23 0 24 1;
#X connect 23 1 25 0;
#X connect 23 2 34 0;
#X connect 24 0 45 0;
#X connect 24 1 28 1;
#X connect 25 0 26 0;
#X connect 26 0 27 0;
#X connect 27 0 29 0;
#X connect 27 1 24 0;
#X connect 28 0 18 1;
#X connect 29 0 41 0;
#X connect 29 1 28 0;
#X connect 31 0 32 0;
#X connect 31 1 36 0;
#X connect 32 0 33 0;
#X connect 33 0 3 0;
#X connect 34 0 35 0;
#X connect 34 1 31 0;
#X connect 35 0 3 0;
#X connect 35 1 33 0;
#X connect 36 0 33 0;
#X connect 37 0 39 0;
#X connect 38 0 42 0;
#X connect 38 1 37 1;
#X connect 39 0 46 0;
#X connect 40 0 12 0;
#X connect 40 1 13 0;
#X connect 40 2 21 0;
#X connect 40 3 15 0;
#X connect 40 4 29 1;
#X connect 40 5 33 1;
#X connect 41 0 38 0;
#X connect 43 0 42 1;
#X connect 44 0 37 0;
#X connect 45 0 41 1;
#X connect 45 1 43 0;
#X connect 46 0 18 1;
#X connect 46 1 43 0;
