#N canvas 719 335 308 358 10;
#X obj 113 152 ==;
#X obj 113 129 t f f;
#X obj 76 84 t b f;
#X obj 209 216 f;
#X obj 113 174 t b f;
#X obj 140 237 gate 2 1, f 12;
#X obj 140 216 + 1;
#X obj 76 51 inlet;
#X obj 139 294 outlet;
#X msg 140 258 \$1 0 0 10;
#X msg 209 258 \$1 0 1 10;
#X obj 180 21 loadbang;
#X obj 180 43 \$1;
#X obj 180 65 sel 0;
#X obj 76 106 kalashnikov 5;
#X connect 0 0 4 0;
#X connect 1 0 0 0;
#X connect 1 1 3 1;
#X connect 2 0 14 0;
#X connect 2 1 0 1;
#X connect 3 0 5 1;
#X connect 4 0 3 0;
#X connect 4 1 6 0;
#X connect 5 0 9 0;
#X connect 5 1 10 0;
#X connect 6 0 5 0;
#X connect 7 0 2 0;
#X connect 9 0 8 0;
#X connect 10 0 8 0;
#X connect 11 0 12 0;
#X connect 12 0 13 0;
#X connect 13 1 14 1;
#X connect 14 1 1 0;
