#N canvas 31 531 459 410 10;
#X obj 17 265 s chat-out;
#X obj 17 66 nbx 5 14 -1e+37 1e+37 0 0 empty empty empty 0 -8 0 10
#fcfcfc #000000 #000000 0 256 0 0 1 0;
#X msg 17 88 chat admin p:l2orklicious l2ork-length-all \$1;
#X msg 127 16 2000;
#X obj 17 43 line 100;
#X msg 17 16 2000 \, 555 30000;
#X text 191 16 REMINDER: open the teacher patch!;
#X text 99 282 sync controls;
#X text 156 118 loading sessions;
#X text 76 43 tempo;
#X msg 55 159 chat admin p:l2orklicious l2ork-load 4th-beat-droplets-6
;
#X msg 55 138 chat admin p:l2orklicious l2ork-load 4th-beat-final-10
;
#X msg 17 302 \; session-sync-offset -1 \; load-session-network-sync
4th-beat-final-10;
#X msg 17 350 \; session-sync-offset 0 \; load-session-network-sync
4th-beat-droplets-6;
#X msg 55 199 chat admin p:l2orklicious l2ork-load-sync-delay 2000
;
#X msg 55 239 chat admin p:l2orklicious l2ork-inst-level-all-at 9 2
0.1;
#X text 190 219 drop;
#X text 74 179 backup (not needed as 2000 is the new default);
#X connect 1 0 2 0;
#X connect 2 0 0 0;
#X connect 3 0 4 0;
#X connect 4 0 1 0;
#X connect 5 0 4 0;
#X connect 10 0 0 0;
#X connect 11 0 0 0;
#X connect 14 0 0 0;
#X connect 15 0 0 0;
