#N canvas 618 89 534 502 12;
#X obj 46 21 inlet;
#X obj 46 263 r \$0-test;
#X obj 46 290 list split 3;
#X obj 46 315 unpack 0 0 0;
#X obj 46 378 ==;
#X obj 46 407 list append;
#X obj 46 432 outlet;
#X obj 46 46 t b b;
#X obj 78 152 send pd;
#X msg 78 127 compatibility 0.49;
#X obj 46 347 log;
#X text 99 21 Code coverage test for compatibility with the 0.49 Vanilla
log behavior. We use the "compatibility" message to set compatibility
to 0.49. Our testing framework makes sure to set compatibility back
to the recent version. We might want to generalize this test for more
tilde unit tests later...;
#X msg 46 180 \; \$0-test 0 2 -1000 bash variable of zero or less to
-1000 \; \$0-test 8 2 3 standard positive variable and base \; \$0-test
1 0 0 natural log;
#X connect 0 0 7 0;
#X connect 1 0 2 0;
#X connect 2 0 3 0;
#X connect 2 1 5 1;
#X connect 3 0 10 0;
#X connect 3 1 10 1;
#X connect 3 2 4 1;
#X connect 4 0 5 0;
#X connect 5 0 6 0;
#X connect 7 0 12 0;
#X connect 7 1 9 0;
#X connect 9 0 8 0;
#X connect 10 0 4 0;
