#N canvas 639 60 534 633 12;
#X obj 135 436 switch~;
#X obj 46 21 inlet;
#X obj 225 517 snapshot~;
#X obj 46 383 r \$0-test;
#X obj 225 435 list split 3;
#X obj 225 460 unpack 0 0 0;
#X obj 225 543 ==;
#X obj 225 572 list append;
#X obj 46 408 trigger bang bang anything;
#X msg 46 180 \; \$0-test 2 2 4 standard positive base and positive
exponent \; \$0-test 0 2 0 bash to zero with zero base and positive
exponent \; \$0-test 0 -2 0 bash to zero with zero base negative exponent
\; \$0-test 2 -2 0.25 standard positive base and negative exponent
\; \$0-test -2 -2 0 bash to zero with negative base and negative exponent
\; \$0-test -2 2 0 bash to zero with negative base and positive exponent
;
#X obj 225 597 outlet;
#X obj 46 46 t b b;
#X obj 78 152 send pd;
#X text 99 41 Code coverage test for compatibility with the pre-0.49
pow~ behavior. We use the "compatibility" message to set compatibility
to 0.48. Our testing framework makes sure to set compatibility back
to the recent version. We might want to generalize this test for more
tilde unit tests later...;
#X msg 78 127 compatibility 0.48;
#X obj 225 492 pow~ 0;
#X text 178 14 Test with *scalar* exponent;
#X connect 1 0 11 0;
#X connect 2 0 6 0;
#X connect 3 0 8 0;
#X connect 4 0 5 0;
#X connect 4 1 7 1;
#X connect 5 0 15 0;
#X connect 5 1 15 1;
#X connect 5 2 6 1;
#X connect 6 0 7 0;
#X connect 7 0 10 0;
#X connect 8 0 2 0;
#X connect 8 1 0 0;
#X connect 8 2 4 0;
#X connect 11 0 9 0;
#X connect 11 1 14 0;
#X connect 14 0 12 0;
#X connect 15 0 2 0;
