#N canvas 645 60 534 633 12;
#X obj 135 436 switch~;
#X obj 46 21 inlet;
#X obj 225 492 pow~;
#X obj 225 517 snapshot~;
#X obj 46 383 r \$0-test;
#X obj 225 435 list split 3;
#X obj 225 460 unpack 0 0 0;
#X obj 225 543 ==;
#X obj 225 572 list append;
#X obj 46 408 trigger bang bang anything;
#X obj 225 597 outlet;
#X obj 46 46 t b b;
#X obj 78 152 send pd;
#X msg 78 127 compatibility 0.49;
#X msg 46 180 \; \$0-test 2 2 4 standard positive base and positive
exponent \; \$0-test 0 2 0 bash to zero with zero base and positive
exponent \; \$0-test 0 -2 0 bash to zero with zero base and negative
exponent \; \$0-test 2 -2 0.25 standard positive base and negative
exponent \; \$0-test -2 -2 0.25 standard negative base and negative
exponent \; \$0-test -2 2 4 standard with negative base and positive
exponent;
#X text 99 21 Code coverage test for compatibility with the 0.49 pow~
behavior. We use the "compatibility" message to set compatibility to
0.49. Our testing framework makes sure to set compatibility back to
the recent version. We might want to generalize this test for more
tilde unit tests later...;
#X connect 1 0 11 0;
#X connect 2 0 3 0;
#X connect 3 0 7 0;
#X connect 4 0 9 0;
#X connect 5 0 6 0;
#X connect 5 1 8 1;
#X connect 6 0 2 0;
#X connect 6 1 2 1;
#X connect 6 2 7 1;
#X connect 7 0 8 0;
#X connect 8 0 10 0;
#X connect 9 0 3 0;
#X connect 9 1 0 0;
#X connect 9 2 5 0;
#X connect 11 0 14 0;
#X connect 11 1 13 0;
#X connect 13 0 12 0;
