#N canvas 1812 220 274 747 10;
#X obj -30 -30 preset_hub k12 1 %hidden%;
#N canvas 727 359 450 300 (subpatch) 0;
#X array \$1 17555 float 0 black black;
#X coords 0 1 17554 -1 200 140 1;
#X scroll 1;
#X restore 35 30 graph;
#X obj 22 187 loadbang;
#X obj 22 187 loadbang;
#X obj 41 321 soundfiler;
#X obj 93 492 metro 1000;
#X obj 93 521 f, f 15;
#X obj 93 567 change -1;
#X obj 22 386 t f 1 f;
#X msg 41 294 read -resize \$2 \$1;
#X obj 22 356 array size \$1;
#X obj 36 593 pack 0 0 0;
#X obj 36 639 line~;
#X msg 36 617 0 \, \$2 \$3;
#X obj 20 560 inlet;
#X obj 36 662 tabread4~ \$1;
#X obj 36 687 outlet~;
#X text 157 671 arguments:1 = array name2 = file name;
#X obj 41 242 symbol \$1;
#X obj 106 242 symbol \$2;
#X obj 41 268 pack s s;
#X obj 22 212 t b b b;
#X msg 210 409 \$1;
#X obj 210 434 / 1000;
#X obj 93 544 expr \\$f1/$f2, f 20;
#X connect 3 0 21 0;
#X connect 4 1 22 0;
#X connect 5 0 6 0;
#X connect 6 0 24 0;
#X connect 7 0 11 2;
#X connect 8 0 11 1;
#X connect 8 1 5 0;
#X connect 8 2 6 1;
#X connect 9 0 4 0;
#X connect 10 0 8 0;
#X connect 11 0 13 0;
#X connect 12 0 15 0;
#X connect 13 0 12 0;
#X connect 14 0 11 0;
#X connect 15 0 16 0;
#X connect 18 0 20 0;
#X connect 19 0 20 1;
#X connect 20 0 9 0;
#X connect 21 0 10 0;
#X connect 21 1 18 0;
#X connect 21 2 19 0;
#X connect 22 0 23 0;
#X connect 23 0 24 1;
#X connect 24 0 7 0;
