#N canvas 2 586 154 394 10;
#X obj 1 1 cnv 15 153 385 empty empty empty 20 12 0 14 #a3a3a3 #404040
0;
#X obj -30 -30 preset_hub k12 1 %hidden%;
#X obj 9 64 nbx 5 14 1 9949 0 0 plm-offset empty empty 0 -8 0 10 #fcb46c
#000000 #000000 1 256 0 1 1 0;
#X obj 84 10 vradio 15 0 0 3 \$0-lpb empty empty 0 -8 0 10 #fcb46c
#fc6418 #000000 0 1;
#X text 100 39 BOTH;
#X obj 9 10 vradio 15 0 0 2 \$0-load-save empty empty 0 -8 0 10 #fcb46c
#fc6418 #000000 0 1;
#X text 26 9 LOAD;
#X text 26 24 SAVE;
#X obj 9 88 ../core/lpb 1;
#X obj 36 88 ../core/lpb 2;
#X obj 63 88 ../core/lpb 3;
#X obj 90 88 ../core/lpb 4;
#X obj 117 88 ../core/lpb 5;
#X obj 9 115 ../core/lpb 6;
#X obj 36 115 ../core/lpb 7;
#X obj 63 115 ../core/lpb 8;
#X obj 90 115 ../core/lpb 9;
#X obj 117 115 ../core/lpb 10;
#X obj 9 142 ../core/lpb 11;
#X obj 36 142 ../core/lpb 12;
#X obj 63 142 ../core/lpb 13;
#X obj 90 142 ../core/lpb 14;
#X obj 117 142 ../core/lpb 15;
#X obj 9 169 ../core/lpb 16;
#X obj 36 169 ../core/lpb 17;
#X obj 63 169 ../core/lpb 18;
#X obj 90 169 ../core/lpb 19;
#X obj 117 169 ../core/lpb 20;
#X obj 9 196 ../core/lpb 21;
#X obj 36 196 ../core/lpb 22;
#X obj 63 196 ../core/lpb 23;
#X obj 90 196 ../core/lpb 24;
#X obj 117 196 ../core/lpb 25;
#X obj 9 223 ../core/lpb 26;
#X obj 36 223 ../core/lpb 27;
#X obj 63 223 ../core/lpb 28;
#X obj 90 223 ../core/lpb 29;
#X obj 117 223 ../core/lpb 30;
#X obj 9 249 ../core/lpb 31;
#X obj 36 249 ../core/lpb 32;
#X obj 63 249 ../core/lpb 33;
#X obj 90 249 ../core/lpb 34;
#X obj 117 249 ../core/lpb 35;
#X obj 9 276 ../core/lpb 36;
#X obj 36 276 ../core/lpb 37;
#X obj 63 276 ../core/lpb 38;
#X obj 90 276 ../core/lpb 39;
#X obj 117 276 ../core/lpb 40;
#X obj 9 303 ../core/lpb 41;
#X obj 36 303 ../core/lpb 42;
#X obj 63 303 ../core/lpb 43;
#X obj 90 303 ../core/lpb 44;
#X obj 117 303 ../core/lpb 45;
#X obj 9 330 ../core/lpb 46;
#X obj 36 330 ../core/lpb 47;
#X obj 63 330 ../core/lpb 48;
#X obj 90 330 ../core/lpb 49;
#X obj 117 330 ../core/lpb 50;
#N canvas 192 494 469 396 core 0;
#X obj 50 324 s glob-recall-loop;
#X obj 95 296 s glob-store-loop;
#X obj 240 324 s glob-recall-preset;
#X obj 285 296 s glob-store-preset;
#X obj 95 245 gate 1 1;
#X obj 50 269 gate 2 1;
#X obj 124 97 + 1;
#X obj 240 269 gate 2 1;
#X obj 285 245 gate 1 0;
#X obj 180 97 sel 0 1 2;
#X obj 180 173 t 1 0;
#X obj 214 123 t 1 1;
#X obj 197 148 t 0 1;
#X obj 124 41 r \$0-load-save;
#X obj 180 71 r \$0-lpb;
#X obj 330 156 r lpb-data;
#N canvas 808 359 383 413 editable 0;
#X obj 19 19 loadbang;
#X obj 161 125 keyname 1;
#X obj 172 150 sel Shift;
#X msg 172 175 1;
#X msg 223 175 0;
#X obj 116 219 gate 1 0;
#X obj 259 125 keyname 1;
#X msg 270 175 1;
#X msg 333 175 0;
#X obj 214 219 gate 1 0;
#X obj 270 150 sel Control;
#X obj 19 256 expr \\$f1+$f2+$f3, f 33;
#X obj 19 281 == 3;
#X obj 19 306 sel 1;
#X obj 19 331 tgl 15 0 empty empty empty 17 7 0 10 #fcfcfc #000000
#000000 0 1 1;
#X text 19 92 ctrl+shift+alt toggles editability (alt being last!)
;
#X obj 64 125 keyname 1;
#X msg 75 175 1;
#X msg 114 175 0;
#X obj 19 219 gate 1 0;
#X obj 75 150 sel Alt;
#X msg 19 43 \; pd-Loop-Preset-Matrix.pd editable 0;
#X msg 19 355 \; pd-Loop-Preset-Matrix.pd editable \$1;
#X connect 0 0 21 0;
#X connect 1 0 5 1;
#X connect 1 1 2 0;
#X connect 2 0 3 0;
#X connect 2 1 4 0;
#X connect 3 0 5 0;
#X connect 4 0 5 0;
#X connect 5 0 11 1;
#X connect 6 0 9 1;
#X connect 6 1 10 0;
#X connect 7 0 9 0;
#X connect 8 0 9 0;
#X connect 9 0 11 2;
#X connect 10 0 7 0;
#X connect 10 1 8 0;
#X connect 11 0 12 0;
#X connect 12 0 13 0;
#X connect 13 0 14 0;
#X connect 14 0 22 0;
#X connect 16 0 19 1;
#X connect 16 1 20 0;
#X connect 17 0 19 0;
#X connect 18 0 19 0;
#X connect 19 0 11 0;
#X connect 20 0 17 0;
#X connect 20 1 18 0;
#X restore 327 56 pd editable;
#X connect 4 0 5 1;
#X connect 5 0 0 0;
#X connect 5 1 1 0;
#X connect 6 0 5 0;
#X connect 6 0 7 0;
#X connect 7 0 2 0;
#X connect 7 1 3 0;
#X connect 8 0 7 1;
#X connect 9 0 10 0;
#X connect 9 1 12 0;
#X connect 9 2 11 0;
#X connect 10 0 4 0;
#X connect 10 1 8 0;
#X connect 11 0 4 0;
#X connect 11 1 8 0;
#X connect 12 0 4 0;
#X connect 12 1 8 0;
#X connect 13 0 6 0;
#X connect 14 0 9 0;
#X connect 15 0 8 1;
#X connect 15 0 4 1;
#X restore 98 362 pd core;
#X text 63 63 OFFSET;
#X text 101 9 LOOP;
#X text 101 24 PRESET;
