#N canvas 343 362 323 446 10;
#X obj 165 35 inlet;
#X obj 177 304 gate 1 1;
#X obj 165 60 route bang;
#X obj 114 218 t b 0, f 11;
#X obj 114 243 delay 500;
#X msg 114 268 1;
#X obj 69 155 gate 1 0;
#X obj 69 132 > 0;
#X obj 69 109 r \$1-user-num;
#X obj 114 132 r \$1-\$2-s;
#X msg 177 356 set \$1;
#X obj 177 381 s \$1-\$2-r;
#X obj 177 329 tosymbol;
#X connect 0 0 2 0;
#X connect 1 0 12 0;
#X connect 2 1 1 1;
#X connect 3 0 4 0;
#X connect 3 1 1 0;
#X connect 4 0 5 0;
#X connect 5 0 1 0;
#X connect 6 0 3 0;
#X connect 7 0 6 0;
#X connect 8 0 7 0;
#X connect 9 0 6 1;
#X connect 10 0 11 0;
#X connect 12 0 10 0;
