#N canvas 167 128 608 865 10;
#X obj 14 -253 preset_hub k12 1 %hidden% %node% 2 5 14 %preset% 0 100
%node% 2 9 5 %preset% 0 48 %node% 2 9 11 %preset% 0 72 %node% 2 9 16
%preset% 0 67 %node% 2 9 21 %preset% 0 70 %node% 2 9 26 %preset% 0
74 %node% 2 9 31 %preset% 0 65 %node% 2 9 36 %preset% 0 69 %node% 2
9 41 %preset% 0 70 %node% 2 9 46 %preset% 0 53 %node% 2 9 51 %preset%
0 72 %node% 2 9 56 %preset% 0 67 %node% 2 9 61 %preset% 0 70 %node%
2 9 66 %preset% 0 76 %node% 2 9 71 %preset% 0 65 %node% 2 9 76 %preset%
0 69 %node% 2 9 81 %preset% 0 55 %node% 2 10 3 %preset% 0 1 %node%
2 10 0 %preset% 0 240 %node% 2 1 6 %preset% 0 70 %node% 2 3 6 %preset%
0 1 %node% 2 4 8 %preset% 0 2 %node% 2 5 25 %preset% 0 1 %node% 2 6
13 %preset% 0 419.545 %node% 2 6 14 %preset% 0 5 %node% 2 7 6 %preset%
0 1 %node% 2 8 7 %node% 2 11 2 %preset% 0 1 %node% 2 11 18 %preset%
0 16 %node% 2 12 6 %preset% 0 305.616 %node% 2 12 13 %preset% 0 678.082
;
#X obj 211 493 K12/math_number 0;
#X obj 128 567 K12/instr_sustained2 0;
#X obj 80 471 K12/math_number 0;
#X obj 128 800 K12/fx_reverb 0;
#X obj 128 914 K12/output 0;
#X obj 128 681 K12/signal_envelope 0;
#X obj 230 609 K12/math_number 0;
#X obj 60 26 K12/preset 0;
#X obj 211 252 K12/logic_sequencer 0;
#X obj 211 26 K12/logic_metronome 0;
#X obj 211 140 K12/logic_counter 0;
#X obj 30 800 K12/fx_multitap 0;
#X text 57 118 recall preset #0to begin;
#X text 57 155 by Ivica Ico Bukvic<ico@vt.edu> 2014-21;
#X connect 1 0 2 1;
#X connect 1 0 7 1;
#X connect 2 0 6 0;
#X connect 3 0 2 0;
#X connect 4 0 5 0;
#X connect 6 0 12 0;
#X connect 6 0 4 0;
#X connect 7 0 6 1;
#X connect 9 0 1 0;
#X connect 10 0 11 0;
#X connect 11 0 9 0;
#X connect 12 0 5 0;
