#N canvas 410 294 450 300 10;
#X obj 186 124 dac~;
#X obj 188 73 osc~ 440;
#X obj 188 93 *~ 0.1;
#X obj 68 61 r test;
#X obj 68 81 print fromPD;
#X connect 1 0 2 0;
#X connect 2 0 0 0;
#X connect 2 0 0 1;
#X connect 3 0 4 0;
