#N canvas 828 358 535 480 10;
#X obj 383 260 text set clients;
#X obj 336 27 r \$1-ping;
#X obj 336 49 t b l;
#X obj 336 173 l;
#X msg 420 237 \$2;
#X msg 383 237 \$1 0;
#X text 362 173 clientnum line;
#X obj 306 360 s server-out;
#X obj 37 438 print disconnection;
#X obj 82 291 timer;
#X floatatom 82 316 13 0 0 0 - - - 0 0 1, f 13;
#X obj 82 196 r \$1-timer;
#X obj 37 259 t l b;
#X obj 37 391 pack 0 0;
#X msg 37 284 \$1;
#X obj 82 363 / 1000;
#X msg 37 415 client \$1 after \$2 seconds;
#X obj 115 27 r \$1-client-disconnect;
#X msg 184 74 stop;
#X obj 255 27 loadbang;
#X obj 255 53 \$1;
#X obj 255 76 t f f;
#X obj 282 97 - 1;
#X obj 138 127 pack 0 0 0;
#X msg 138 149 \$2 \$3;
#X msg 306 337 broadcast server connection \$1 0;
#X obj 336 151 delay 3000;
#X obj 115 53 t 3000 b 0 b;
#X obj 82 338 - 3000;
#X obj 336 205 t l l l l l;
#X msg 353 294 \; client\$1 const 0;
#X connect 1 0 2 0;
#X connect 2 0 26 0;
#X connect 2 1 3 1;
#X connect 3 0 29 0;
#X connect 4 0 0 1;
#X connect 5 0 0 0;
#X connect 9 0 10 0;
#X connect 10 0 28 0;
#X connect 11 0 9 0;
#X connect 12 0 14 0;
#X connect 12 1 9 1;
#X connect 13 0 16 0;
#X connect 14 0 13 0;
#X connect 15 0 13 1;
#X connect 16 0 8 0;
#X connect 17 0 27 0;
#X connect 18 0 26 0;
#X connect 19 0 20 0;
#X connect 20 0 21 0;
#X connect 21 0 23 1;
#X connect 21 1 22 0;
#X connect 22 0 23 2;
#X connect 23 0 24 0;
#X connect 24 0 29 0;
#X connect 25 0 7 0;
#X connect 26 0 3 0;
#X connect 27 0 28 1;
#X connect 27 1 23 0;
#X connect 27 2 28 1;
#X connect 27 3 18 0;
#X connect 28 0 15 0;
#X connect 29 0 12 0;
#X connect 29 1 25 0;
#X connect 29 2 30 0;
#X connect 29 3 5 0;
#X connect 29 4 4 0;
