#N canvas 118 72 425 300 10;
#N canvas 727 338 450 283 connections 0;
#X msg 140 135 disconnect;
#X msg 120 98 connect 198.82.152.114 9999;
#X msg 129 117 connect localhost 9999;
#X obj 120 168 outlet;
#X obj 120 39 inlet;
#X obj 120 64 sel 1 0;
#X connect 0 0 3 0;
#X connect 1 0 3 0;
#X connect 2 0 3 0;
#X connect 4 0 5 0;
#X connect 5 0 1 0;
#X connect 5 1 0 0;
#X restore 297 196 pd connections;
#X obj 297 123 tgl 19 0 empty empty connect: -51 7 0 10 #fcfcfc #000000
#000000 0 1;
#X obj 297 221 netclient;
#X obj 348 244 tgl 15 0 empty empty status: -45 5 0 10 #fcfcfc #000000
#000000 0 1;
#X obj 98 35 tgl 15 0 empty empty empty 17 7 0 10 #fcfcfc #000000 #000000
0 1;
#X obj 41 72 pack 0 0 0;
#X obj 41 35 bng 15 250 50 0 empty empty empty 17 7 0 10 #fcfcfc #000000
#000000;
#X msg 41 97 send admin toggle \$2 \$3;
#X floatatom 41 133 15 0 0 0 - - - 0 0, f 15;
#X msg 41 158 send admin setpin \$1;
#X obj 63 35 nbx 2 15 1 10 0 0 empty empty empty 0 -8 0 10 #fcfcfc
#000000 #000000 1 256 0 0;
#X obj 201 35 nbx 2 15 1 10 0 0 empty empty empty 0 -8 0 10 #fcfcfc
#000000 #000000 1 256 0 0;
#X msg 201 97 send admin disconnect \$1;
#X connect 0 0 2 0;
#X connect 1 0 0 0;
#X connect 2 1 3 0;
#X connect 4 0 5 2;
#X connect 5 0 7 0;
#X connect 6 0 5 0;
#X connect 7 0 2 0;
#X connect 8 0 9 0;
#X connect 9 0 2 0;
#X connect 10 0 5 1;
#X connect 11 0 12 0;
#X connect 12 0 2 0;
