#N canvas 66 26 540 830 10;
#X floatatom 240 400 5 0 0 0 - - - 0 0, f 5;
#X obj 247 213 loadbang;
#X obj 131 17 bang~;
#X obj 131 68 + 1;
#X obj 131 44 f -4;
#X obj 131 96 moses 4;
#X obj 170 118 t b b 0;
#X msg 247 235 -1;
#X obj 215 731 phasor~ 0;
#X obj 266 679 change;
#X obj 281 598 samplerate~;
#X obj 281 574 loadbang;
#X obj 266 657 f;
#X obj 354 598 t b l b;
#X obj 443 753 * 256;
#X obj 443 664 + 1;
#X obj 443 639 f 1;
#X obj 488 715 t 0 0;
#N canvas 390 395 227 196 buffers 0;
#N canvas 727 338 450 300 (subpatch) 0;
#X array \$0-myaudio 256 float 0 black black;
#X coords 0 1 255 -1 202 89 1;
#X restore 11 10 graph;
#N canvas 727 338 450 300 (subpatch) 0;
#X array \$0-serveraudio 4096 float 0 black black;
#X coords 0 1 4095 -1 202 78 1;
#X restore 11 105 graph;
#X restore 14 17 pd buffers;
#X obj 189 373 netclient;
#X obj 189 279 list prepend send;
#X obj 189 301 list trim;
#X obj 266 704 t 0.5 f;
#X obj 443 690 moses 16;
#X obj 215 753 *~ 4096;
#X obj 281 623 / 4096;
#X obj 305 183 inlet~;
#X obj 45 261 inlet;
#X text 244 163 audio input (audio to be sent);
#X text 21 224 connect/disconnect commands to netclient, f 21;
#X obj 215 798 outlet~;
#X text 267 798 audio from the server;
#X obj 189 331 gate 1 0;
#X obj 240 424 sel 1;
#X obj 253 301 r \$0-server-commands;
#X obj 240 472 s \$0-server-commands;
#X obj 370 344 loadbang;
#X obj 370 369 metro 1000;
#X obj 370 419 s \$0-server-commands;
#X msg 299 518 disconnect;
#X obj 299 540 s \$0-server-commands;
#X obj 410 472 outlet;
#X text 410 495 connection status;
#X obj 189 495 route sendauth server remove;
#X obj 21 491 inlet;
#X obj 21 570 s \$0-server-commands;
#X text 21 458 set the password(12345 by default);
#X msg 370 394 send ping;
#X msg 240 449 send whatismyid 0;
#X obj 305 213 tabwrite~ \$0-myaudio;
#X obj 215 775 tabread~ \$0-serveraudio;
#X obj 373 775 array set \$0-serveraudio;
#X obj 189 258 array get \$0-myaudio;
#X obj 21 524 f 12345;
#X obj 45 282 route disconnect, f 19;
#X obj 114 798 print SERVER;
#X obj 21 611 route connection;
#X msg 21 749 server is full. please try again later., f 23;
#X obj 21 676 t b b;
#X obj 48 720 s \$0-server-commands;
#X msg 48 698 disconnect;
#X msg 21 633 \$1;
#X obj 21 654 route -1;
#X msg 21 547 send auth \$1;
#X obj 45 307 t b b;
#X msg 72 330 send disconnect \, disconnect, f 16;
#X msg 45 373 \; \$0-serveraudio const 0;
#X connect 0 0 32 0;
#X connect 0 0 33 0;
#X connect 0 0 41 0;
#X connect 1 0 7 0;
#X connect 2 0 4 0;
#X connect 3 0 4 1;
#X connect 3 0 5 0;
#X connect 4 0 3 0;
#X connect 5 1 6 0;
#X connect 6 0 49 0;
#X connect 6 1 52 0;
#X connect 6 2 4 1;
#X connect 7 0 52 1;
#X connect 8 0 24 0;
#X connect 9 0 22 0;
#X connect 10 0 25 0;
#X connect 11 0 10 0;
#X connect 12 0 9 0;
#X connect 13 0 12 0;
#X connect 13 1 51 0;
#X connect 13 2 16 0;
#X connect 14 0 51 1;
#X connect 15 0 16 1;
#X connect 15 0 23 0;
#X connect 16 0 15 0;
#X connect 17 0 16 1;
#X connect 17 1 14 0;
#X connect 19 0 43 0;
#X connect 19 1 0 0;
#X connect 20 0 21 0;
#X connect 21 0 32 1;
#X connect 22 0 8 1;
#X connect 22 1 8 0;
#X connect 23 0 14 0;
#X connect 23 1 17 0;
#X connect 24 0 50 0;
#X connect 25 0 12 1;
#X connect 26 0 49 0;
#X connect 27 0 54 0;
#X connect 32 0 19 0;
#X connect 33 0 48 0;
#X connect 34 0 32 1;
#X connect 36 0 37 0;
#X connect 37 0 47 0;
#X connect 39 0 40 0;
#X connect 43 0 53 0;
#X connect 43 1 56 0;
#X connect 43 2 39 0;
#X connect 43 3 13 0;
#X connect 44 0 53 1;
#X connect 47 0 38 0;
#X connect 48 0 35 0;
#X connect 50 0 30 0;
#X connect 52 0 20 0;
#X connect 53 0 63 0;
#X connect 54 0 64 0;
#X connect 54 1 19 0;
#X connect 56 0 61 0;
#X connect 56 1 55 0;
#X connect 57 0 55 0;
#X connect 58 0 57 0;
#X connect 58 1 60 0;
#X connect 60 0 59 0;
#X connect 61 0 62 0;
#X connect 62 0 58 0;
#X connect 63 0 45 0;
#X connect 64 0 66 0;
#X connect 64 1 65 0;
#X connect 65 0 19 0;
