#N canvas 363 60 506 479 12;
#X obj 36 60 inlet;
#X obj 36 436 outlet;
#X obj 68 407 send;
#X obj 93 302 loadbang;
#X msg 93 328 dollarzero;
#X obj 93 354 canvasinfo 1;
#X msg 93 379 symbol \$1-result;
#X obj 106 63 bng 20 250 50 0 empty empty Run 21 8 0 12 -262144 -1
-1;
#X obj 68 144 regression_tests/\$1;
#X obj 68 169 list split 1;
#X obj 68 264 list;
#X text 260 221 <- insert "test_name:" here;
#X obj 219 144 loadbang;
#X obj 219 169 list append \$1;
#X msg 219 194 \$1:;
#X obj 108 231 list prepend;
#X obj 156 63 bng 20 250 50 0 empty empty Show_Test 21 8 0 12 -262144
-1 -1;
#N canvas 378 161 450 369 vis 0;
#X obj 118 84 list append \$1;
#X obj 86 34 inlet;
#X obj 93 146 send;
#X msg 58 102 vis 1;
#X obj 86 59 t b b;
#X msg 118 109 symbol pd-\$1.pd;
#X connect 0 0 5 0;
#X connect 1 0 4 0;
#X connect 3 0 2 0;
#X connect 4 0 3 0;
#X connect 4 1 0 0;
#X connect 5 0 2 1;
#X restore 156 94 pd vis;
#X obj 36 85 t b a b;
#N canvas 691 139 570 300 init 0;
#X obj 27 20 inlet;
#X obj 27 45 b;
#X msg 27 70 version;
#X obj 27 95 pdinfo;
#X obj 27 120 unpack 0 0 0;
#X obj 27 148 * 100;
#X obj 27 185 +;
#X msg 27 210 compatibility \$1;
#X text 156 96 reset compatibility level to the current version;
#X obj 27 235 send pd;
#X connect 0 0 1 0;
#X connect 1 0 2 0;
#X connect 2 0 3 0;
#X connect 3 0 4 0;
#X connect 4 0 5 0;
#X connect 4 1 6 1;
#X connect 5 0 6 0;
#X connect 6 0 7 0;
#X connect 7 0 9 0;
#X restore 82 117 pd init;
#X connect 0 0 18 0;
#X connect 3 0 4 0;
#X connect 4 0 5 0;
#X connect 5 0 6 0;
#X connect 6 0 2 1;
#X connect 7 0 8 0;
#X connect 8 0 9 0;
#X connect 9 0 10 0;
#X connect 9 1 15 0;
#X connect 10 0 2 0;
#X connect 12 0 13 0;
#X connect 13 0 14 0;
#X connect 14 0 15 1;
#X connect 15 0 10 1;
#X connect 16 0 17 0;
#X connect 18 0 1 0;
#X connect 18 1 8 0;
#X connect 18 2 19 0;
#X coords 0 -1 1 1 179 46 1 99 42;
