#N canvas 148 253 753 256 10;
#X obj -30 -30 preset_hub k12 1 %hidden%;
#X obj 172 97 hsl 128 24 0 1 0 1 empty empty | 27 6 0 26 #fd7777 #000000
#ff0000 3175 1 0 1;
#X obj 8 215 tgl 26 0 empty empty empty 17 7 0 10 #fcfcfc #000000 #000000
1 1 1;
#X obj 116 150 loadbang;
#X msg 116 171 connect localhost 8010;
#X msg 116 192 disconnect;
#X obj 8 171 mrpeach/packOSC;
#X obj 8 192 mrpeach/udpsend;
#X obj 8 150 r to-mad-mapper;
#N canvas 776 476 217 237 pulses 0;
#X obj 17 43 core/ring-pulse 2 750 Quad-1;
#X obj 17 23 core/ring-pulse 1 750 Quad-1;
#X obj 17 63 core/ring-pulse 3 750 Quad-1;
#X obj 17 83 core/ring-pulse 7 750 Quad-1;
#X obj 17 103 core/ring-pulse 8 750 Quad-1;
#X obj 17 123 core/ring-pulse 9 750 Quad-1;
#X obj 17 143 core/ring-pulse 10 750 Quad-1;
#X obj 17 163 core/ring-pulse 11 750 Quad-1;
#X obj 17 183 core/ring-pulse 12 750 Quad-1;
#X restore 8 129 pd pulses;
#X obj 317 171 ../L2Ork-Tweeter-Lite;
#N canvas 1354 492 404 300 explosion 0;
#X obj 111 23 inlet;
#X obj 111 243 s to-mad-mapper;
#X obj 111 148 snapshot~;
#X obj 49 58 loadbang;
#X obj 49 113 metro 10;
#X obj 111 113 Line~;
#X msg 111 58 0 \, 1 2000 0 10000;
#X msg 111 173 send /surfaces/Nuke_White_Out/opacity \$1;
#X obj 271 24 inlet;
#X obj 271 58 t 0;
#X connect 0 0 6 0;
#X connect 2 0 7 0;
#X connect 3 0 4 0;
#X connect 4 0 2 0;
#X connect 5 0 2 0;
#X connect 6 0 5 0;
#X connect 7 0 1 0;
#X connect 8 0 9 0;
#X connect 9 0 5 1;
#X restore 70 129 pd explosion;
#X obj 70 88 bng 35 250 50 0 empty empty BOOM 5 16 0 10 #fd7777 #000000
#000000 1;
#X text 203 101 VIDEO SPEED;
#X text 200 78 1x;
#X text 296 78 4x;
#N canvas 727 397 450 300 reset-speed 0;
#X msg 164 125 0.25;
#X obj 164 150 outlet;
#X obj 165 100 bng 15 250 50 0 empty empty RESET\ TO\ 1X 17 6 0 10
#fd7777 #000000 #000000 1;
#X connect 0 0 1 0;
#X connect 2 0 0 0;
#X coords 0 -1 1 1 94 24 2 160 96;
#X restore 172 54 pd reset-speed;
#N canvas 727 397 450 300 video-speed 0;
#X obj 98 99 inlet;
#X msg 98 122 send /media/fire_stipes.mov/play_speed \$1;
#X obj 98 147 s to-mad-mapper;
#X connect 0 0 1 0;
#X connect 1 0 2 0;
#X restore 172 129 pd video-speed;
#X obj 115 107 bng 15 250 50 0 empty empty RESET 17 6 0 10 #fd7777
#000000 #000000 1;
#X obj 318 97 hsl 128 24 0 1 0 1 empty empty | 59 6 0 26 #fd7777 #000000
#ff0000 6350 1 0 1;
#N canvas 727 397 450 300 video-saturation 0;
#X obj 98 99 inlet;
#X obj 98 147 s to-mad-mapper;
#X msg 98 122 send /surfaces/Fire/FX/Color/Saturation \$1;
#X connect 0 0 2 0;
#X connect 2 0 1 0;
#X restore 318 129 pd video-saturation;
#X obj 464 97 hsl 128 24 0 1 0 1 empty empty | 59 6 0 26 #fd7777 #000000
#ff0000 6350 1 0 1;
#X obj 610 97 hsl 128 24 0 1 0 1 empty empty | 59 6 0 26 #fd7777 #000000
#ff0000 6350 1 0 1;
#X text 635 101 VIDEO OPACITY;
#X text 479 101 VIDEO BRIGHTNESS;
#X text 333 101 VIDEO SATURATION;
#N canvas 727 397 450 300 video-opacity 0;
#X obj 122 104 inlet;
#X obj 122 152 s to-mad-mapper;
#X msg 122 127 send /surfaces/Fire/opacity \$1;
#X connect 0 0 2 0;
#X connect 2 0 1 0;
#X restore 610 129 pd video-opacity;
#N canvas 727 397 450 300 video-brightness 0;
#X obj 98 99 inlet;
#X obj 98 145 s to-mad-mapper;
#X msg 98 122 send /surfaces/Fire/FX/Color/Brightness \$1;
#X connect 0 0 2 0;
#X connect 2 0 1 0;
#X restore 464 129 pd video-brightness;
#X obj 318 8 hsl 128 24 0 1 0 1 empty empty | 59 6 0 26 #fd7777 #000000
#ff0000 6350 1 0 1;
#X obj 464 8 hsl 128 24 0 1 0 1 empty empty | 59 6 0 26 #fd7777 #000000
#ff0000 6350 1 0 1;
#X obj 610 8 hsl 128 24 0 1 0 1 empty empty | 59 6 0 26 #fd7777 #000000
#ff0000 6350 1 0 1;
#N canvas 727 397 450 300 lava-saturation 0;
#X obj 98 99 inlet;
#X obj 98 147 s to-mad-mapper;
#X msg 98 122 send /surfaces/Lava/FX/Color/Saturation \$1;
#X connect 0 0 2 0;
#X connect 2 0 1 0;
#X restore 318 40 pd lava-saturation;
#N canvas 727 397 450 300 lava-brightness 0;
#X obj 98 99 inlet;
#X obj 98 145 s to-mad-mapper;
#X msg 98 122 send /surfaces/Lava/FX/Color/Brightness \$1;
#X connect 0 0 2 0;
#X connect 2 0 1 0;
#X restore 464 40 pd lava-brightness;
#N canvas 727 397 450 300 lava-opacity 0;
#X obj 138 101 inlet;
#X obj 138 149 s to-mad-mapper;
#X msg 138 124 send /surfaces/Lava/opacity \$1;
#X connect 0 0 2 0;
#X connect 2 0 1 0;
#X restore 610 40 pd lava-opacity;
#X text 637 12 LAVA OPACITY;
#X text 483 12 LAVA BRIGHTNESS;
#X text 337 12 LAVA SATURATION;
#N canvas 727 397 450 203 TODO 0;
#X text 40 32 TODO:adjust pulses' last argument (these should be also
groups)make a group for all rings except those used around playersMake
group of two fire videos named Fire (/surfaces/Fire/opacity \, /surfaces/Fire/FX/Color/Brightness
\, send /surfaces/Fire/FX/Color/Saturation) Make group of all remaining
lava elements;
#X restore 8 8 pd TODO;
#X connect 1 0 17 0;
#X connect 3 0 4 0;
#X connect 4 0 7 0;
#X connect 5 0 7 0;
#X connect 6 0 7 0;
#X connect 7 0 2 0;
#X connect 8 0 6 0;
#X connect 12 0 11 0;
#X connect 16 0 1 0;
#X connect 18 0 11 1;
#X connect 19 0 20 0;
#X connect 21 0 27 0;
#X connect 22 0 26 0;
#X connect 28 0 31 0;
#X connect 29 0 32 0;
#X connect 30 0 33 0;
