#N canvas 727 397 294 205 10;
#X obj -30 -30 preset_hub k12 1 %hidden%;
#X obj 74 38 r \$1-note-generator;
#X obj 74 63 list prepend \$1;
#X obj 74 138 outlet;
#X obj 149 89 r \$1-overdrive;
#X obj 74 113 list append 0;
#X connect 1 0 2 0;
#X connect 2 0 5 0;
#X connect 4 0 5 1;
#X connect 5 0 3 0;
