#N canvas 1146 460 432 309 10;
#X obj -30 -30 preset_hub k12 1 %hidden%;
#X obj 15 20 r \$1-note-generator;
#X obj 15 265 s to-mad-mapper;
#X text 219 20 arguments (all required):1 = instrument number2 =
ramp down duration in ms3 = name of object in MadMapper;
#X msg 15 240 send /surfaces/\$2/opacity \$1;
#X obj 15 200 pack 0 s;
#X obj 127 140 loadbang;
#X obj 127 165 symbol \$3;
#X obj 15 110 pack 0 0;
#X obj 127 50 loadbang;
#X obj 127 75 \$2;
#X obj 15 160 line 10;
#X msg 15 135 1 \, 0 \$2;
#X connect 1 0 8 0;
#X connect 4 0 2 0;
#X connect 5 0 4 0;
#X connect 6 0 7 0;
#X connect 7 0 5 1;
#X connect 8 0 12 0;
#X connect 9 0 10 0;
#X connect 10 0 8 1;
#X connect 11 0 5 0;
#X connect 12 0 11 0;
