#N canvas 838 356 432 371 10;
#X obj -30 -30 preset_hub k12 1 %hidden%;
#X obj 15 20 r \$1-note-generator;
#X obj 15 325 s to-mad-mapper;
#X text 219 20 arguments (all required):1 = instrument number2 =
ramp down duration in ms3 = name of object in MadMapper;
#X obj 15 260 pack 0 s;
#X obj 127 200 loadbang;
#X obj 127 225 symbol \$3;
#X obj 15 170 pack 0 0;
#X obj 127 107 loadbang;
#X obj 127 132 \$2;
#X obj 15 220 line 10;
#X msg 15 300 send /surfaces/\$2/FX/Color/Brightness \$1;
#X msg 15 195 1 \, 0.25 \$2;
#X obj 15 44 unpack 0 0;
#X obj 72 67 > 0.1;
#X obj 15 107 gate 1 0;
#X connect 1 0 13 0;
#X connect 4 0 11 0;
#X connect 5 0 6 0;
#X connect 6 0 4 1;
#X connect 7 0 12 0;
#X connect 8 0 9 0;
#X connect 9 0 7 1;
#X connect 10 0 4 0;
#X connect 11 0 2 0;
#X connect 12 0 10 0;
#X connect 13 0 15 1;
#X connect 13 1 14 0;
#X connect 14 0 15 0;
#X connect 15 0 7 0;
