#N canvas 162 96 845 681 10;
#X obj 27 349 tgl 15 0 empty empty empty 17 7 0 10 #fcfcfc #000000
#000000 0 1 1;
#X floatatom 474 618 5 0 0 0 - - - 0 0 1, f 5;
#X obj 474 639 bng 15 250 50 0 empty empty empty 17 7 0 10 #fcfcfc
#000000 #000000 1;
#X obj 27 370 metro 50;
#X msg 210 126 open;
#X msg 251 126 close;
#X msg 26 68 export 27;
#X msg 215 68 unexport;
#X msg 26 126 direction in;
#X msg 115 126 direction out;
#X obj 474 597 disis_gpio 27;
#X msg 164 68 export;
#X msg 26 248 togglepwm \$1;
#X obj 26 226 tgl 15 0 empty empty empty 17 7 0 10 #fcfcfc #000000
#000000 0 1 1;
#X msg 89 370 pwm \$1;
#X obj 89 349 nbx 5 14 0 1023 0 0 empty empty empty 0 -8 0 10 #fcfcfc
#000000 #000000 0 256 0 0 1 0;
#X msg 95 68 export 18;
#X floatatom 549 618 5 0 0 0 - - - 0 0 1, f 5;
#X obj 474 502 tgl 15 0 empty empty empty 17 7 0 10 #fcfcfc #000000
#000000 0 1 1;
#X text 494 501 if communicating to a pin without pwm (accepts 0 or
1);
#X text 562 596 optional arg sets the pin number;
#X text 586 618 status (0=closed \, 1=open);
#X obj 112 225 tgl 15 0 empty empty empty 17 7 0 10 #fcfcfc #000000
#000000 0 1 1;
#X msg 112 247 togglesoftpwm \$1;
#X msg 24 500 servomode \$1;
#X obj 24 478 tgl 15 0 empty empty empty 17 7 0 10 #fcfcfc #000000
#000000 0 1 1;
#X obj 113 479 nbx 5 14 1 1023 0 0 empty empty empty 0 -8 0 10 #fcfcfc
#000000 #000000 1 256 0 0 1 0;
#X text 150 349 pwm default range is 0-1023;
#X obj 113 532 nbx 7 14 32 1.92e+06 0 0 empty empty empty 0 -8 0 10
#fcfcfc #000000 #000000 32 256 0 0 1 0;
#X msg 113 500 pwmrange \$1;
#X msg 113 553 pwmclock \$1;
#X text 174 478 change pwm range (1-1024 \, 1024 default);
#X text 190 553 change pwm clock (32-1920000 \, 32 default);
#X text 370 618 incoming data ->;
#X text 24 407 5: use mechatronic mode for PWM-enabled servo control.
First toggle servomode and then optionally adjust advanced settings
pwm range register (part of wiringPi) and clock that controls the update
rate \, both of which only work when the servomode is on.;
#X text 24 291 4: either start sending data by sending float 0 or 1
to a regular pin or a 0-1023 range to a pwm (18) pin. If receiving
data \, start the metro to get updates through the first outlet. Metro
is not needed if only sending data.;
#X text 24 154 3: (optional) enable hardware pwm (works only on pin
18) OR software pwm (works on all pins \, including pin 18). The two
are mutually exclusive and will toggle each other off automatically
and reported in the console (this will not be reflected by toggles
below \, however).;
#X text 24 107 2: set the direction \, and open the pin;
#X text 24 24 1: export the desired pin or use "export" without an
argument if you have pin already specified via previous export call
or as a creation argument;
#X connect 0 0 3 0;
#X connect 1 0 2 0;
#X connect 3 0 10 0;
#X connect 4 0 10 0;
#X connect 5 0 10 0;
#X connect 6 0 10 0;
#X connect 7 0 10 0;
#X connect 8 0 10 0;
#X connect 9 0 10 0;
#X connect 10 0 1 0;
#X connect 10 1 17 0;
#X connect 11 0 10 0;
#X connect 12 0 10 0;
#X connect 13 0 12 0;
#X connect 14 0 10 0;
#X connect 15 0 14 0;
#X connect 16 0 10 0;
#X connect 18 0 10 0;
#X connect 22 0 23 0;
#X connect 23 0 10 0;
#X connect 24 0 10 0;
#X connect 25 0 24 0;
#X connect 26 0 29 0;
#X connect 28 0 30 0;
#X connect 29 0 10 0;
#X connect 30 0 10 0;
