#N canvas 1085 497 736 524 10;
#X obj 407 282 text set clients;
#X obj 376 27 r \$1-ping;
#X obj 376 49 t b l;
#X obj 376 173 l;
#X msg 454 237 \$2;
#X text 403 173 clientnum line;
#X obj 582 387 s server-out;
#X msg 179 332 broadcast \$1 out-amp 0 \, broadcast \$1 tracker 0 \,
broadcast server connection \$1 0;
#X obj 376 151 delay 5000;
#X obj 37 478 print disconnection;
#X obj 82 291 timer;
#X floatatom 82 356 13 0 0 0 - - - 0 0 1, f 13;
#X obj 82 259 r \$1-timer;
#X obj 37 259 t l b;
#X obj 37 431 pack 0 0;
#X msg 37 284 \$1;
#X obj 82 378 - 5000;
#X obj 82 403 / 1000;
#X msg 37 455 client \$1 after \$2 seconds;
#X obj 115 27 r \$1-client-disconnect;
#X msg 200 100 stop;
#X obj 309 27 loadbang;
#X obj 309 50 \$1;
#X obj 309 73 t f f;
#X obj 336 94 - 1;
#X obj 138 147 pack 0 0 0;
#X msg 138 169 \$2 \$3;
#X obj 115 73 t 5000 b 0 b;
#X obj 200 73 r \$1-client-free;
#X msg 555 237 \$2;
#X obj 555 260 text get clients 1;
#X msg 582 345 disconnect \$1;
#X obj 555 282 sel 0;
#X text 555 200 brute force disconnectto prevent stale sockets;
#X obj 82 316 t f f;
#N canvas 727 397 316 366 uptime 0;
#X obj 162 62 t b;
#X obj 39 37 inlet;
#X obj 189 237 outlet;
#X obj 39 275 pack 0 0;
#X obj 162 87 \$1;
#X obj 162 112 - 1;
#X obj 162 137 text get clients 1;
#X obj 189 187 > 0;
#X obj 189 212 sel 1;
#X obj 162 37 r get-uptime;
#X obj 39 299 s uptime;
#X obj 162 162 t f f;
#X connect 0 0 4 0;
#X connect 1 0 3 0;
#X connect 3 0 10 0;
#X connect 4 0 5 0;
#X connect 5 0 6 0;
#X connect 6 0 11 0;
#X connect 7 0 8 0;
#X connect 8 0 2 0;
#X connect 9 0 0 0;
#X connect 11 0 3 1;
#X connect 11 1 7 0;
#X restore 141 291 pd uptime;
#X msg 407 237 \$1 0 0;
#X obj 376 205 t l l l l l;
#X connect 1 0 2 0;
#X connect 2 0 8 0;
#X connect 2 1 3 1;
#X connect 3 0 37 0;
#X connect 4 0 0 1;
#X connect 7 0 6 0;
#X connect 8 0 3 0;
#X connect 10 0 34 0;
#X connect 11 0 16 0;
#X connect 12 0 10 0;
#X connect 13 0 15 0;
#X connect 13 1 10 1;
#X connect 14 0 18 0;
#X connect 15 0 14 0;
#X connect 16 0 17 0;
#X connect 17 0 14 1;
#X connect 18 0 9 0;
#X connect 19 0 27 0;
#X connect 20 0 8 0;
#X connect 21 0 22 0;
#X connect 22 0 23 0;
#X connect 23 0 25 1;
#X connect 23 1 24 0;
#X connect 24 0 25 2;
#X connect 25 0 26 0;
#X connect 26 0 37 0;
#X connect 27 0 16 1;
#X connect 27 1 25 0;
#X connect 27 2 16 1;
#X connect 27 3 20 0;
#X connect 28 0 20 0;
#X connect 29 0 30 0;
#X connect 30 0 32 0;
#X connect 31 0 6 0;
#X connect 32 1 31 0;
#X connect 34 0 11 0;
#X connect 34 1 35 0;
#X connect 35 0 10 1;
#X connect 36 0 0 0;
#X connect 37 0 13 0;
#X connect 37 1 7 0;
#X connect 37 2 36 0;
#X connect 37 3 4 0;
#X connect 37 4 29 0;
