#N canvas 22 387 490 503 10;
#X obj 40 452 s chat-out;
#X msg 52 120 chat admin p:l2orklicious l2ork-sync-all;
#X msg 40 41 chat admin p:l2orklicious l2ork-length 6000 3000 500 6000
500 6000 1500 6000 500 3000 \, chat admin p:l2orklicious l2ork-sync-all
;
#X text 40 22 Pre-Drop;
#X text 52 100 Sync;
#X obj 76 151 tgl 15 0 empty empty empty 17 7 0 10 #fcfcfc #000000
#000000 0 1 1;
#X msg 76 172 chat admin p:l2orklicious l2ork-obfuscate \$1;
#X msg 99 253 chat admin p:l2orklicious l2ork-report \$1;
#X floatatom 99 231 5 0 0 0 - - - 0 0 1, f 5;
#X obj 99 211 bng 15 250 50 0 empty empty empty 17 7 0 10 #fcfcfc #000000
#000000 1;
#X msg 121 306 chat admin p:l2orklicious l2ork-load jamminlicious-002
;
#X obj 156 389 nbx 5 14 -1e+37 1e+37 0 0 empty empty empty 0 -8 0 10
#fcfcfc #000000 #000000 2000 256 0 0 1 0;
#X msg 156 411 chat admin p:l2orklicious l2ork-length-all \$1;
#X msg 226 339 2000;
#X msg 156 339 555 30000;
#X obj 156 366 line 100;
#X connect 1 0 0 0;
#X connect 2 0 0 0;
#X connect 5 0 6 0;
#X connect 6 0 0 0;
#X connect 7 0 0 0;
#X connect 8 0 7 0;
#X connect 9 0 8 0;
#X connect 10 0 0 0;
#X connect 11 0 12 0;
#X connect 12 0 0 0;
#X connect 13 0 15 0;
#X connect 14 0 15 0;
#X connect 15 0 11 0;
